<svg xmlns="http://www.w3.org/2000/svg" xmlns:xlink="http://www.w3.org/1999/xlink" width="400" height="600" viewBox="0 0 400 600"><defs><style>.cls-1{fill:url(#linear-gradient);}.cls-2{fill:#fff;}.cls-3{fill:#c0dcf6;}.cls-4{opacity:0.31;filter:url(#AI_Turbulence_5);}</style><linearGradient id="linear-gradient" x1="-724.55" y1="-1078.89" x2="-451.76" y2="-1132.18" gradientTransform="matrix(0, 0.69, -0.78, 0, -661.4, 760.92)" gradientUnits="userSpaceOnUse"><stop offset="0" stop-color="#f7722e"/><stop offset="0.11" stop-color="#f2702d"/><stop offset="0.24" stop-color="#e4692b"/><stop offset="0.37" stop-color="#cd5f26"/><stop offset="0.51" stop-color="#ad5020"/><stop offset="0.65" stop-color="#833d18"/><stop offset="0.8" stop-color="#50250f"/><stop offset="0.95" stop-color="#160a04"/><stop offset="1"/></linearGradient><filter id="AI_Turbulence_5" x="0" y="0" width="100%" height="100%" name="AI_Turbulence_5"><feTurbulence result="turb" baseFrequency="0.4" numOctaves="4" type="fractalNoise"/><feComposite operator="in" in="turb" in2="SourceAlpha"/></filter></defs><g id="Layer_7" data-name="Layer 7"><rect width="400" height="600"/><path class="cls-1" d="M166.59,442.18c33.89,13.15,67.76.18,71.73-1.41,1.16-.46,2.11-.87,2.77-1.16a28.94,28.94,0,0,0,6.64-1.55,19.57,19.57,0,0,0,5.51-2.76,16.19,16.19,0,0,0,5.33-7.51c36.61-32.61,45.08-85.57,22.17-124.52-26.84-45.64-84.4-51-116.75-42.47-2.67.71-4.92,1.45-6.61,2.05-.09.12-.23.31-.42.54-2.85,3.37-7.25,2.72-11,4.12-1.93.72-4.48,2.28-6.91,6-3,3.1-42,45.11-28.85,99.86C111.45,378.62,123.54,425.47,166.59,442.18Z"/><path class="cls-2" d="M74.23,83.68v8.6H58.63v4.6H69.88v8.6H58.63v13.2h-8.9v-35Z"/><path class="cls-2" d="M105,118.68h-9.6l-5.65-11H85.93v11h-8.7v-35h12.5c8.9,0,12.5,3.8,12.5,12,0,4.75-1,7.85-4.15,10.1ZM85.93,92.33v6.75H90c2.4,0,3.6-.3,3.6-3.4s-1.2-3.4-3.6-3.35Z"/><path class="cls-2" d="M112.43,83.68l4.5,11.25,4.5-11.25h10.4l-9.9,22.2v12.8h-10v-12.8l-10-22.2Z"/><path class="cls-2" d="M149.28,96.78c-.2-3.45-.6-5.4-4.3-5.4S141,93.73,141,97.58v7.2c0,3.85.25,6.2,3.95,6.2s4-2.35,4-4.8h-4.4v-7h13v8.25c0,3.3-.7,12.15-12.55,12.15s-12.55-8.85-12.55-12.15V94.93c0-3.3.7-12.15,12.55-12.15s12.6,8.85,12.6,12.15Z"/><path class="cls-2" d="M169.93,92.28h-10v-8.6h28.6v8.6h-10v26.4h-8.6Z"/><path class="cls-2" d="M215.53,83.68v8.6h-15.1v4.6h10.75v8.6H200.43v4.6h15.1v8.6h-24v-35Z"/><path class="cls-2" d="M229.48,83.68l7.9,19.15V83.68H246v35h-10.1L228,99.38v19.3h-8.6v-35Z"/><path class="cls-2" d="M290.48,83.68v8.6h-15.6v4.6h11.25v8.6H274.88v13.2H266v-35Z"/><path class="cls-2" d="M317.58,107.43c0,3.3-.7,12.15-12.56,12.15s-12.55-8.85-12.55-12.15V94.93c0-3.3.7-12.15,12.55-12.15s12.56,8.85,12.56,12.15ZM309,97.58c0-3.85-.25-6.2-4-6.2s-3.95,2.35-3.95,6.2v7.2c0,3.85.25,6.2,3.95,6.2s4-2.35,4-6.2Z"/><path class="cls-2" d="M349.88,118.68h-9.61l-5.65-11h-3.85v11h-8.7v-35h12.5c8.9,0,12.51,3.8,12.51,12,0,4.75-1.06,7.85-4.16,10.1ZM330.77,92.33v6.75h4.1c2.4,0,3.6-.3,3.6-3.4s-1.2-3.4-3.6-3.35Z"/><path class="cls-2" d="M58.33,127.68v35h-8.5v-35Z"/><path class="cls-2" d="M92.68,162.68H81.83l-7.2-11-2.6,3.6v7.4h-8.7v-35H72v12.55l9.15-12.55H92l-11.65,16Z"/><path class="cls-2" d="M123.83,162.68H113l-7.2-11-2.6,3.6v7.4h-8.7v-35h8.7v12.55l9.15-12.55h10.8l-11.65,16Z"/><path class="cls-2" d="M149.63,127.68v8.6h-15.1v4.6h10.75v8.6H134.53v4.6h15.1v8.6h-24v-35Z"/><path class="cls-2" d="M192.73,162.68h-8.6v-7.35h-7.3v7.35h-8.61v-22.9c0-6.3,1-13,12.26-13s12.25,6.7,12.25,13Zm-8.6-22.9c0-2.4-.35-3.6-3.65-3.6s-3.65,1.2-3.65,3.6v6.9h7.3Z"/><path class="cls-2" d="M204.48,136.28h-10v-8.6h28.61v8.6h-10v26.4h-8.6Z"/><path class="cls-2" d="M249.67,127.68v26.4h14.16v8.6H241.07v-35Z"/><path class="cls-2" d="M290.92,127.68v8.6h-15.1v4.6h10.75v8.6H275.82v4.6h15.1v8.6h-24v-35Z"/><path class="cls-2" d="M301.77,127.68l5,21.7,5-21.7h9l-8,35h-11.9l-8.1-35Z"/><path class="cls-2" d="M347.77,127.68v8.6h-15.1v4.6h10.75v8.6H332.67v4.6h15.1v8.6h-24v-35Z"/><path d="M170.77,403.59a.38.38,0,0,0,0-.75.38.38,0,0,0,0,.75Z"/><path d="M158.67,422.56a.38.38,0,0,0,0-.75.38.38,0,0,0,0,.75Z"/><path d="M158.66,403.59a.38.38,0,0,0,0-.75.38.38,0,0,0,0,.75Z"/><path d="M136.18,402.6a.38.38,0,0,0,0-.75.38.38,0,0,0,0,.75Z"/><path d="M152.61,393.1a.38.38,0,0,0,0-.75.38.38,0,0,0,0,.75Z"/><path d="M142.23,373.14a.38.38,0,0,0,0-.75.38.38,0,0,0,0,.75Z"/><path d="M158.67,382.62a.38.38,0,0,0,0-.75.38.38,0,0,0,0,.75Z"/><path d="M170.77,363.65a.38.38,0,0,0,0-.75.38.38,0,0,0,0,.75Z"/><path d="M170.77,382.63a.38.38,0,0,0,0-.75.38.38,0,0,0,0,.75Z"/><path d="M193.25,383.62a.38.38,0,0,0,0-.75.38.38,0,0,0,0,.75Z"/><path d="M176.82,393.11a.38.38,0,0,0,0-.75.38.38,0,0,0,0,.75Z"/><path d="M187.2,413.07a.38.38,0,0,0,0-.75.38.38,0,0,0,0,.75Z"/><path d="M227.78,403.69a.38.38,0,0,0,0-.75.38.38,0,0,0,0,.75Z"/><path d="M215.68,422.66a.38.38,0,0,0,0-.75.38.38,0,0,0,0,.75Z"/><path d="M215.68,403.68a.38.38,0,0,0,0-.75.38.38,0,0,0,0,.75Z"/><path d="M193.19,402.69a.38.38,0,0,0,0-.75.38.38,0,0,0,0,.75Z"/><path d="M209.63,393.2a.38.38,0,0,0,0-.75.38.38,0,0,0,0,.75Z"/><path d="M199.24,373.23a.38.38,0,0,0,0-.75.38.38,0,0,0,0,.75Z"/><path d="M215.68,382.72a.38.38,0,0,0,0-.75.38.38,0,0,0,0,.75Z"/><path d="M227.78,363.74a.38.38,0,0,0,0-.75.38.38,0,0,0,0,.75Z"/><path d="M227.78,382.72a.38.38,0,0,0,0-.75.38.38,0,0,0,0,.75Z"/><path d="M250.27,383.71a.38.38,0,0,0,0-.75.38.38,0,0,0,0,.75Z"/><path d="M233.83,393.2a.38.38,0,0,0,0-.75.38.38,0,0,0,0,.75Z"/><path d="M244.22,413.17a.38.38,0,0,0,0-.75.38.38,0,0,0,0,.75Z"/><path d="M191.77,430.19a.38.38,0,0,0,0-.75.38.38,0,0,0,0,.75Z"/><path d="M179.67,449.17a.38.38,0,0,0,0-.75.38.38,0,0,0,0,.75Z"/><path d="M179.67,430.19a.38.38,0,0,0,0-.75.38.38,0,0,0,0,.75Z"/><path d="M157.18,429.2a.38.38,0,0,0,0-.75.38.38,0,0,0,0,.75Z"/><path d="M173.62,419.71a.38.38,0,0,0,0-.75.38.38,0,0,0,0,.75Z"/><path d="M163.23,399.74a.38.38,0,0,0,0-.75.38.38,0,0,0,0,.75Z"/><path d="M179.67,409.23a.38.38,0,0,0,0-.75.38.38,0,0,0,0,.75Z"/><path d="M191.77,390.25a.38.38,0,0,0,0-.75.38.38,0,0,0,0,.75Z"/><path d="M191.77,409.23a.38.38,0,0,0,0-.75.38.38,0,0,0,0,.75Z"/><path d="M214.26,410.22a.38.38,0,0,0,0-.75.38.38,0,0,0,0,.75Z"/><path d="M197.82,419.71a.38.38,0,0,0,0-.75.38.38,0,0,0,0,.75Z"/><path d="M208.21,439.68a.38.38,0,0,0,0-.75.38.38,0,0,0,0,.75Z"/><path d="M253.94,400.19a.38.38,0,0,0,0-.75.38.38,0,0,0,0,.75Z"/><path d="M241.84,419.16a.38.38,0,0,0,0-.75.38.38,0,0,0,0,.75Z"/><path d="M241.84,400.19a.38.38,0,0,0,0-.75.38.38,0,0,0,0,.75Z"/><path d="M219.36,399.19a.38.38,0,0,0,0-.75.38.38,0,0,0,0,.75Z"/><path d="M235.79,389.7a.38.38,0,0,0,0-.75.38.38,0,0,0,0,.75Z"/><path d="M225.41,369.74a.38.38,0,0,0,0-.75.38.38,0,0,0,0,.75Z"/><path d="M241.84,379.22a.38.38,0,0,0,0-.75.38.38,0,0,0,0,.75Z"/><path d="M253.94,360.25a.38.38,0,0,0,0-.75.38.38,0,0,0,0,.75Z"/><path d="M254,379.22a.38.38,0,0,0,0-.75.38.38,0,0,0,0,.75Z"/><path d="M276.43,380.22a.38.38,0,0,0,0-.75.38.38,0,0,0,0,.75Z"/><path d="M260,389.71a.38.38,0,0,0,0-.75.38.38,0,0,0,0,.75Z"/><path d="M270.38,409.67a.38.38,0,0,0,0-.75.38.38,0,0,0,0,.75Z"/><path d="M145.94,398.19a.38.38,0,0,0,0-.75.38.38,0,0,0,0,.75Z"/><path d="M133.84,417.16a.38.38,0,0,0,0-.75.38.38,0,0,0,0,.75Z"/><path d="M133.84,398.19a.38.38,0,0,0,0-.75.38.38,0,0,0,0,.75Z"/><path d="M111.36,397.2a.38.38,0,0,0,0-.75.38.38,0,0,0,0,.75Z"/><path d="M127.79,387.7a.38.38,0,0,0,0-.75.38.38,0,0,0,0,.75Z"/><path d="M117.41,367.74a.38.38,0,0,0,0-.75.38.38,0,0,0,0,.75Z"/><path d="M133.84,377.22a.38.38,0,0,0,0-.75.38.38,0,0,0,0,.75Z"/><path d="M145.94,358.25a.38.38,0,0,0,0-.75.38.38,0,0,0,0,.75Z"/><path d="M146,377.22a.38.38,0,0,0,0-.75.38.38,0,0,0,0,.75Z"/><path d="M168.43,378.22a.38.38,0,0,0,0-.75.38.38,0,0,0,0,.75Z"/><path d="M152,387.71a.38.38,0,0,0,0-.75.38.38,0,0,0,0,.75Z"/><path d="M162.38,407.67a.38.38,0,0,0,0-.75.38.38,0,0,0,0,.75Z"/><rect class="cls-3" x="78" y="42" width="240" height="26"/><path d="M89.8,58.58l1-.67a2,2,0,0,0,1.82,1.17c1.12,0,1.68-.63,1.68-2.23V49.56h1.33V57c0,1.81-.83,3.28-2.89,3.28A3.08,3.08,0,0,1,89.8,58.58Z"/><path d="M98.37,55.73V49.56h1.34v6.21c0,2.52,1.06,3.31,2.43,3.31s2.5-.79,2.5-3.31V49.56h1.28v6.17c0,3.37-1.63,4.53-3.78,4.53S98.37,59.1,98.37,55.73Z"/><path d="M108.73,49.56h1.38l3.81,6.61,1.13,2.17h.06c-.06-1.06-.17-2.24-.17-3.34V49.56h1.27V60.07h-1.38L111,53.46l-1.13-2.17h-.07c.07,1.06.17,2.18.17,3.28v5.5h-1.27Z"/><path d="M118.47,54.78c0-3.37,1.86-5.41,4.49-5.41s4.49,2.05,4.49,5.41-1.85,5.48-4.49,5.48S118.47,58.14,118.47,54.78Zm7.6,0c0-2.62-1.23-4.23-3.11-4.23s-3.11,1.61-3.11,4.23,1.24,4.3,3.11,4.3S126.07,57.4,126.07,54.78Z"/><path d="M129,58.7l.8-.92a4.05,4.05,0,0,0,2.89,1.3c1.38,0,2.2-.68,2.2-1.7s-.76-1.42-1.75-1.85l-1.51-.67a3,3,0,0,1-2.13-2.7c0-1.61,1.4-2.79,3.31-2.79a4.35,4.35,0,0,1,3.09,1.3l-.71.86a3.33,3.33,0,0,0-2.38-1c-1.18,0-2,.59-2,1.53s.92,1.39,1.74,1.74l1.5.65c1.21.52,2.16,1.24,2.16,2.8s-1.37,3-3.58,3A5,5,0,0,1,129,58.7Z"/><path d="M141.45,49.56h2.63c3.23,0,5,1.88,5,5.22s-1.73,5.29-4.9,5.29h-2.69ZM144,59c2.46,0,3.68-1.54,3.68-4.19s-1.22-4.12-3.68-4.12h-1.19V59Z"/><path d="M151.29,49.56h1.34V60.07h-1.34Z"/><path d="M154.74,58.7l.8-.92a4.06,4.06,0,0,0,2.9,1.3c1.38,0,2.19-.68,2.19-1.7s-.76-1.42-1.75-1.85l-1.51-.67a3,3,0,0,1-2.13-2.7c0-1.61,1.4-2.79,3.31-2.79a4.31,4.31,0,0,1,3.09,1.3l-.7.86a3.37,3.37,0,0,0-2.39-1c-1.18,0-2,.59-2,1.53s.92,1.39,1.74,1.74l1.5.65C161,55,162,55.71,162,57.27s-1.37,3-3.58,3A5,5,0,0,1,154.74,58.7Z"/><path d="M163.43,54.82c0-3.38,2-5.45,4.67-5.45a3.92,3.92,0,0,1,2.89,1.3l-.74.87a2.84,2.84,0,0,0-2.13-1c-2,0-3.31,1.62-3.31,4.24s1.27,4.29,3.26,4.29a3.15,3.15,0,0,0,2.43-1.17l.73.83A4,4,0,0,1,168,60.26C165.4,60.26,163.43,58.24,163.43,54.82Z"/><path d="M173.18,49.56h1.34V60.07h-1.34Z"/><path d="M177.39,49.56h3c2.35,0,3.94.79,3.94,3.1s-1.58,3.24-3.88,3.24h-1.73v4.17h-1.33Zm2.89,5.26c1.84,0,2.72-.67,2.72-2.16s-.93-2-2.78-2h-1.5v4.17Z"/><path d="M186.44,49.56h1.34v9.38h4.59v1.13h-5.93Z"/><path d="M194.22,49.56h6.05v1.13h-4.71V54h4v1.13h-4v3.82h4.87v1.13h-6.21Z"/><path d="M205.85,49.56h3c2.36,0,3.94.79,3.94,3.1s-1.58,3.24-3.87,3.24h-1.73v4.17h-1.34Zm2.9,5.26c1.83,0,2.71-.67,2.71-2.16s-.93-2-2.78-2h-1.49v4.17Z"/><path d="M214.91,49.56h3.29c2.14,0,3.67.77,3.67,3s-1.53,3.11-3.67,3.11h-2v4.44h-1.33Zm3.09,5c1.64,0,2.54-.66,2.54-2s-.9-1.87-2.54-1.87h-1.76v3.89Zm-.07.72,1-.69,3.21,5.5h-1.52Z"/><path d="M228.21,49.56h6.58v1.13h-4.45V54h3.72v1.13h-3.72v3.82H235v1.13H229V50.62h-.06c-.57,1.13-1.14,2.3-1.72,3.43l-3.11,6h-1.4Zm-3.11,6.38h4.7V57h-4.7Z"/><path d="M236.4,58.7l.8-.92a4.09,4.09,0,0,0,2.9,1.3c1.38,0,2.19-.68,2.19-1.7s-.76-1.42-1.75-1.85L239,54.86a2.94,2.94,0,0,1-2.12-2.7c0-1.61,1.39-2.79,3.3-2.79a4.36,4.36,0,0,1,3.1,1.3l-.71.86a3.37,3.37,0,0,0-2.39-1c-1.17,0-2,.59-2,1.53s.92,1.39,1.74,1.74l1.5.65c1.22.52,2.17,1.24,2.17,2.8s-1.38,3-3.58,3A5,5,0,0,1,236.4,58.7Z"/><path d="M245.71,49.56h6v1.13H247V54h4v1.13h-4v3.82h4.88v1.13h-6.21Z"/><path d="M254.14,49.56h1.38l3.8,6.61,1.14,2.17h.06c-.07-1.06-.17-2.24-.17-3.34V49.56h1.27V60.07h-1.38l-3.8-6.61-1.14-2.17h-.06c.06,1.06.17,2.18.17,3.28v5.5h-1.27Z"/><path d="M266.68,50.69H263.5V49.56h7.69v1.13H268v9.38h-1.33Z"/><path d="M273.07,49.56h6.05v1.13H274.4V54h4v1.13h-4v3.82h4.88v1.13h-6.21Z"/><path d="M281.5,49.56h3.29c2.14,0,3.67.77,3.67,3s-1.53,3.11-3.67,3.11h-2v4.44H281.5Zm3.1,5c1.63,0,2.53-.66,2.53-2s-.9-1.87-2.53-1.87h-1.77v3.89Zm-.08.72,1.05-.69,3.21,5.5h-1.52Z"/><path d="M290.6,49.56h6.06v1.13h-4.72V54h4v1.13h-4v3.82h4.88v1.13H290.6Z"/><path d="M299,49.56h3.29c2.14,0,3.68.77,3.68,3s-1.54,3.11-3.68,3.11h-1.95v4.44H299Zm3.1,5c1.64,0,2.54-.66,2.54-2s-.9-1.87-2.54-1.87h-1.76v3.89Zm-.07.72,1.05-.69,3.2,5.5H304.8Z"/><path class="cls-3" d="M256,504h-2.58v-2.21h-2.19V504h-2.58v-6.87c0-1.89.3-3.9,3.68-3.9s3.67,2,3.67,3.9Zm-2.58-6.87c0-.72-.1-1.08-1.09-1.08s-1.1.36-1.1,1.08v2.07h2.19Z"/><path class="cls-3" d="M261.39,493.54l1.25,5.13,1.24-5.13h3.95V504h-2.58v-7l-1.71,7h-1.8L260,497v7h-2.58v-10.5Z"/><path class="cls-3" d="M276.6,504H274v-2.21h-2.19V504h-2.58v-6.87c0-1.89.3-3.9,3.68-3.9s3.67,2,3.67,3.9ZM274,497.17c0-.72-.1-1.08-1.09-1.08s-1.1.36-1.1,1.08v2.07H274Z"/><path class="cls-3" d="M281.06,493.54l2.37,5.74v-5.74H286V504h-3l-2.37-5.79V504H278v-10.5Z"/><path class="cls-3" d="M291.3,493.54c2.82,0,3.75,1.14,3.75,3.6v3.28c0,2.46-.93,3.62-3.75,3.62h-3.79v-10.5Zm.05,7.92c.72,0,1.08-.12,1.08-1v-3.3c0-.93-.36-1-1.08-1h-1.26v5.34Z"/><path class="cls-3" d="M303.68,504H301.1v-2.21h-2.19V504h-2.58v-6.87c0-1.89.3-3.9,3.67-3.9s3.68,2,3.68,3.9Zm-2.58-6.87c0-.72-.11-1.08-1.1-1.08s-1.09.36-1.09,1.08v2.07h2.19Z"/><path class="cls-3" d="M314.34,497.05a1.19,1.19,0,0,0-1.38-1.17c-.58,0-.94.34-.88.69.21,1.17,5,1.14,5,4.59,0,.45-.51,3.1-4.06,3.1-3.21,0-3.92-2-3.92-3.34l2.55-.56c.08,1.08.63,1.32,1.37,1.32s1.27-.43,1.18-.84c-.28-1.27-4.87-1-4.87-4.44,0-.45.25-3.1,3.61-3.1,3.15,0,3.92,1.87,3.92,3.19Z"/><path class="cls-3" d="M320.6,493.54l1.35,3.37,1.35-3.37h3.12l-3,6.66V504h-3V500.2l-3-6.66Z"/><path class="cls-3" d="M329.78,493.54v4.65h2.34v-4.65h2.58V504h-2.58v-3.27h-2.34V504H327.2v-10.5Z"/><path class="cls-3" d="M338.78,493.54v7.92H343V504H336.2v-10.5Z"/><path class="cls-3" d="M351.15,493.54v2.58h-4.53v1.38h3.23v2.58h-3.23v1.38h4.53V504H344v-10.5Z"/><path class="cls-3" d="M360.65,504h-2.88l-1.7-3.29h-1.15V504h-2.61v-10.5h3.75c2.67,0,3.75,1.14,3.75,3.6a3.33,3.33,0,0,1-1.25,3Zm-5.73-7.91v2h1.23c.72,0,1.08-.09,1.08-1s-.36-1-1.08-1Z"/><path class="cls-3" d="M252.35,511.54c2.82,0,3.9,1.14,3.9,3.6a3.39,3.39,0,0,1-.77,2.17,2.12,2.12,0,0,1,1.07,2c0,1.86-.83,2.76-3.64,2.76h-4.16v-10.5Zm.36,8.37c.72,0,1.08-.08,1.08-.78s-.33-.81-1-.81h-1.43v1.59Zm-.12-3.75c.72,0,1.08-.09,1.08-1s-.36-1-1.08-1h-1.26v2Z"/><path class="cls-3" d="M264.81,522h-2.58v-2.21H260V522h-2.58v-6.87c0-1.89.3-3.9,3.68-3.9s3.67,2,3.67,3.9Zm-2.58-6.87c0-.72-.1-1.08-1.09-1.08s-1.1.36-1.1,1.08v2.07h2.19Z"/><path class="cls-3" d="M274.58,522H271.7l-1.7-3.29h-1.15V522h-2.61v-10.5H270c2.67,0,3.75,1.14,3.75,3.6a3.35,3.35,0,0,1-1.24,3Zm-5.73-7.91v2h1.23c.72,0,1.08-.09,1.08-1s-.36-1-1.08-1Z"/><path class="cls-3" d="M279,511.54c2.82,0,3.9,1.14,3.9,3.6a3.43,3.43,0,0,1-.76,2.17,2.13,2.13,0,0,1,1.06,2c0,1.86-.82,2.76-3.64,2.76h-4.16v-10.5Zm.36,8.37c.72,0,1.08-.08,1.08-.78s-.33-.81-1.05-.81H278v1.59Zm-.12-3.75c.72,0,1.08-.09,1.08-1s-.36-1-1.08-1H278v2Z"/><path class="cls-3" d="M291.5,522h-2.58v-2.21h-2.19V522h-2.58v-6.87c0-1.89.3-3.9,3.67-3.9s3.68,2,3.68,3.9Zm-2.58-6.87c0-.72-.11-1.08-1.1-1.08s-1.09.36-1.09,1.08v2.07h2.19Z"/><path class="cls-3" d="M301.26,522h-2.88l-1.69-3.29h-1.15V522h-2.62v-10.5h3.75c2.67,0,3.75,1.14,3.75,3.6a3.33,3.33,0,0,1-1.24,3Zm-5.72-7.91v2h1.22c.72,0,1.08-.09,1.08-1s-.36-1-1.08-1Z"/><path class="cls-3" d="M309.39,522h-2.58v-2.21h-2.19V522H302v-6.87c0-1.89.3-3.9,3.68-3.9s3.67,2,3.67,3.9Zm-2.58-6.87c0-.72-.1-1.08-1.09-1.08s-1.1.36-1.1,1.08v2.07h2.19Z"/><path class="cls-3" d="M317.75,517.87c0,1.15.07,1.86,1.18,1.86s1.23-.59,1.29-1.62l2.49.55c0,1-.22,3.65-3.78,3.65s-3.76-2.66-3.76-3.65v-3.75c0-1,.21-3.64,3.76-3.64s3.78,2.65,3.78,3.64l-2.49.56c-.06-1-.18-1.62-1.29-1.62s-1.18.7-1.18,1.86Z"/><path class="cls-3" d="M331,522h-2.58v-2.21h-2.19V522h-2.58v-6.87c0-1.89.3-3.9,3.68-3.9s3.67,2,3.67,3.9Zm-2.58-6.87c0-.72-.1-1.08-1.09-1.08s-1.1.36-1.1,1.08v2.07h2.19Z"/><path class="cls-3" d="M336.36,511.54l1.25,5.13,1.24-5.13h3.95V522h-2.58v-7l-1.71,7h-1.8L335,515v7h-2.58v-10.5Z"/><path class="cls-3" d="M348.05,511.54c2.67,0,3.75,1.14,3.75,3.6s-1.08,3.6-3.75,3.6h-1.17V522H344.3v-10.5Zm.09,4.62c.72,0,1.08-.09,1.08-1s-.36-1-1.08-1h-1.26v2Z"/><path class="cls-3" d="M359.93,511.54v2.58H355.4v1.38h3.22v2.58H355.4v1.38h4.53V522h-7.2v-10.5Z"/><path class="cls-3" d="M368.46,518.66c0,1-.21,3.65-3.76,3.65s-3.77-2.66-3.77-3.65v-3.75c0-1,.21-3.64,3.77-3.64s3.76,2.65,3.76,3.64Zm-2.58-2.95c0-1.16-.07-1.86-1.18-1.86s-1.19.7-1.19,1.86v2.16c0,1.15.08,1.86,1.19,1.86s1.18-.71,1.18-1.86Z"/><path class="cls-3" d="M372.06,514.12h-3v-2.58h8.58v2.58h-3V522h-2.58Z"/><path class="cls-3" d="M381.24,514.12h-3v-2.58h8.58v2.58h-3V522h-2.58Z"/><path class="cls-3" d="M395,518.66c0,1-.21,3.65-3.76,3.65s-3.77-2.66-3.77-3.65v-3.75c0-1,.21-3.64,3.77-3.64s3.76,2.65,3.76,3.64Zm-2.58-2.95c0-1.16-.07-1.86-1.18-1.86s-1.19.7-1.19,1.86v2.16c0,1.15.08,1.86,1.19,1.86s1.18-.71,1.18-1.86Z"/><path class="cls-3" d="M257.18,540h-2.91l-1.77-3-1.77,3h-2.91l3.22-5.45-2.91-5.05H251l1.5,2.55,1.5-2.55h2.86l-2.9,5.05Z"/><path class="cls-3" d="M265,529.54v2.58h-4.53v1.38h3.22v2.58h-3.22v1.38H265V540h-7.2v-10.5Z"/><path class="cls-3" d="M269.13,529.54l2.37,5.74v-5.74h2.58V540h-3l-2.37-5.79V540H266.1v-10.5Z"/><path class="cls-3" d="M278.13,529.54V540h-2.55v-10.5Z"/><path class="cls-3" d="M286.91,540h-2.58v-2.21h-2.19V540h-2.58v-6.87c0-1.89.3-3.9,3.67-3.9s3.68,2,3.68,3.9Zm-2.58-6.87c0-.72-.11-1.08-1.1-1.08s-1.09.36-1.09,1.08v2.07h2.19Z"/><path class="cls-3" d="M292.2,529.54h2.73l1,7.12,1.17-7.12h2.16l1.17,7.12,1-7.12h2.73l-2,10.5h-2.94l-1-4.46-1,4.46h-2.94Z"/><path class="cls-3" d="M307.53,529.54V540H305v-10.5Z"/><path class="cls-3" d="M312.06,529.54l2.37,5.74v-5.74H317V540h-3l-2.37-5.79V540H309v-10.5Z"/><path class="cls-3" d="M320.91,532.12h-3v-2.58h8.58v2.58h-3V540h-2.58Z"/><path class="cls-3" d="M330,529.54v4.65h2.34v-4.65h2.58V540h-2.58v-3.27H330V540h-2.58v-10.5Z"/><path class="cls-3" d="M343.59,529.54v2.58h-4.53v1.38h3.23v2.58h-3.23v1.38h4.53V540h-7.2v-10.5Z"/><path class="cls-3" d="M353.09,540h-2.88l-1.7-3.29h-1.15V540h-2.61v-10.5h3.75c2.67,0,3.75,1.14,3.75,3.6a3.33,3.33,0,0,1-1.25,3Zm-5.73-7.91v2h1.23c.72,0,1.08-.09,1.08-1s-.36-1-1.08-1Z"/><g class="cls-4"><rect width="400" height="600"/></g></g></svg>