<svg xmlns="http://www.w3.org/2000/svg" xmlns:xlink="http://www.w3.org/1999/xlink" width="400" height="600" viewBox="0 0 400 600"><defs><style>.cls-1{fill:#b1345b;}.cls-2{fill:#582137;}.cls-3{fill:#d1b8cc;}.cls-4{fill:#654e82;}.cls-5{fill:#100a19;}.cls-6{fill:#fff;}.cls-7{fill:#e99c3d;}.cls-8{fill:none;stroke:#e99c3d;stroke-miterlimit:10;}.cls-9{opacity:0.31;filter:url(#AI_Turbulence_5);}</style><filter id="AI_Turbulence_5" x="0" y="0" width="100%" height="100%" name="AI_Turbulence_5"><feTurbulence result="turb" baseFrequency="0.4" numOctaves="4" type="fractalNoise"/><feComposite operator="in" in="turb" in2="SourceAlpha"/></filter></defs><g id="Layer_8" data-name="Layer 8"><rect width="400" height="600"/><path class="cls-1" d="M270,277.24c.09-4.72,1-25.86,17.83-42.51,12.78-12.64,27.45-15.48,32.91-16.46a63.22,63.22,0,0,1,48,11c8.63,6.32,8.33,10.17,8.23,11-.6,4.73-7.66,6.91-16.46,11-15.07,7-18.09,11.52-27.42,16.46C325.12,271.86,306.21,279.71,270,277.24Z"/><path class="cls-2" d="M270,277.24a179.22,179.22,0,0,1,30.17-23.31c12.12-7.46,21.22-13.05,34.29-15.09,19.71-3.07,38.48,3.51,38.4,6.86-.05,1.9-6.17,1.84-16.46,6.85-8.09,3.95-10.94,7.21-16.46,11-17.42,11.88-38.19,12.9-54.85,13.71C278.76,277.55,273.53,277.41,270,277.24Z"/><path class="cls-3" d="M285.09,277.24A70.27,70.27,0,0,1,345.43,243c1.15,0,19.74-.29,20.57,4.12.22,1.18-.71,3.31-26.06,16.46-9.32,4.83-14,7.25-16.45,8.22C315.82,274.78,303,278.43,285.09,277.24Z"/><path class="cls-4" d="M338.57,258c-.12,8.91-12.79,15.65-21.94,13.71-1.18-.25-7.11-1.5-9.6-6.85a12,12,0,0,1,0-9.6c1.66-3.45,4.74-4.77,9.6-6.86,5.62-2.42,8.67-3.73,12.34-2.74C334.26,247.12,338.64,252.74,338.57,258Z"/><circle class="cls-5" cx="322.8" cy="257.35" r="7.54"/><circle class="cls-6" cx="326.23" cy="249.81" r="4.11"/><path class="cls-1" d="M148.84,302.16c-.08-4.72-1-25.86-17.82-42.51C118.23,247,103.57,244.17,98.1,243.19a63.24,63.24,0,0,0-48,11c-8.62,6.33-8.33,10.18-8.23,11,.61,4.73,7.66,6.91,16.46,11,15.08,6.95,18.1,11.51,27.43,16.45C93.73,296.78,112.63,304.63,148.84,302.16Z"/><path class="cls-2" d="M148.84,302.16a179.85,179.85,0,0,0-30.17-23.31c-12.11-7.45-21.21-13.05-34.28-15.09-19.71-3.07-38.49,3.51-38.4,6.86,0,1.9,6.17,1.85,16.45,6.86,8.1,3.94,10.94,7.2,16.46,11,17.42,11.88,38.2,12.9,54.86,13.71C140.08,302.47,145.32,302.34,148.84,302.16Z"/><path class="cls-3" d="M133.76,302.16a70.23,70.23,0,0,0-60.34-34.28c-1.16,0-19.74-.3-20.58,4.11-.22,1.18.72,3.32,26.06,16.46,9.33,4.84,14,7.25,16.46,8.23C103,299.7,115.84,303.35,133.76,302.16Z"/><path class="cls-4" d="M80.27,283c.12,8.91,12.79,15.65,22,13.72,1.17-.25,7.1-1.51,9.6-6.86.13-.29,2.23-5,0-9.6-1.67-3.44-4.74-4.76-9.6-6.86-5.63-2.42-8.68-3.73-12.35-2.74C84.58,272.05,80.2,277.66,80.27,283Z"/><circle class="cls-5" cx="96.04" cy="282.28" r="7.54"/><circle class="cls-6" cx="92.62" cy="274.74" r="4.11"/><path class="cls-7" d="M136.88,36.83a7.16,7.16,0,0,0,2.78-.17,4.11,4.11,0,0,1,1.71-.06,5,5,0,0,1,2.3.88,3.41,3.41,0,0,1,1.59,2.72,12.65,12.65,0,0,1-.18,3.36l-.17,1.83c-.06.29-.06.59-.24.71-.77.47-.59,1.3-.94,2-.36,0-.71-.17-1.07,0A1.57,1.57,0,0,1,140.54,47a3.23,3.23,0,0,1-.18-1.3c-.11-1.35-.17-2.71-.23-4.13-.06-.7-.3-1.41-.42-2.12a1,1,0,0,0-.76-.89,3.48,3.48,0,0,0-4.37,1.72A23,23,0,0,0,132.93,44a16.81,16.81,0,0,0-.83,6.14c.18,1.53,0,3.07.06,4.54,0,1.24.12,2.42.06,3.66-.18,3.66.83,7.32.83,11,0,.17.06.35.06.53-.6,1.83.29,3.3,1.06,4.84.47.94.71,1,1.65.53,1.47-.77,2.48-1.83,4.13-2.36a.73.73,0,0,0,.53-.77c-.12-3.54.3-7.14.24-10.68a.65.65,0,0,0-.06-.3,8.9,8.9,0,0,0-3.72-.7c-.59.06-.65-.59-.83-.95a.57.57,0,0,1,.59-.35,39.89,39.89,0,0,0,4.67-.77h.23c.65-.83.89-.24,1.18.36.06.05.24.05.36.11.35-.53.11-1.18.53-1.71.53.06.94.47,1.53.47.36,0,.36.36.36.65.11,1.12.35,2.25.35,3.37s0,2.42.12,3.65c.23,2.48.06,5,.17,7.5.12,1.3.06,2.59.18,3.89a3.3,3.3,0,0,1-1.59,3.13c-.18.12-.18.41-.47.47-1.12-1.18-1.83-2.71-3-3.83-.48-.42-.42-1.12-.65-1.66-.41,0-.59.3-.77.54a5.57,5.57,0,0,1-2.89,2.3c-.59.82-1.24.7-2,1a5.87,5.87,0,0,1-2.83.18c-.83-.06-1.59-.18-2.42-.3-1.18-.18-2.77-.71-3.24-2.24a30,30,0,0,0-1-3.3,8,8,0,0,1-.47-3.31c0-2.3-.41-4.13-.53-6.37a38.85,38.85,0,0,1,.35-4.49c0-.65.12-1.29.06-1.88-.17-1.48.3-2.95.18-4.43-.18-2.06.59-3.95,1-6a4.35,4.35,0,0,0,.3-.83,11,11,0,0,1,3.6-6.31,18.08,18.08,0,0,1,1.94-1.59,1,1,0,0,1,.3-.12c1.71,0,2.95-1.24,4.37-1.83a15.18,15.18,0,0,1,2.42-.18C138.53,36.54,137.59,36.24,136.88,36.83Zm-10.62,14c-.12,1.41-.24,2.89-.29,4.36,0,.18,0,.36.41.36a26.27,26.27,0,0,1,.53-5.25c0-.06-.12-.18-.18-.3A.84.84,0,0,0,126.26,50.82Z"/><path class="cls-7" d="M169.86,35.83c.3.47-.41.47-.53.94a8.18,8.18,0,0,1,4.13.18c2.07.89,3.78,2.07,4.6,4.31a9.85,9.85,0,0,0,1,1.71,14.27,14.27,0,0,1,2.06,6.67c.06,2.06.18,4.13.12,6.19s-.06,4.43-.24,6.67a18.23,18.23,0,0,1-.88,4.37c-.53,1.89-1.36,3.66-1.77,5.6a9.23,9.23,0,0,1-2.07,4.43,5.6,5.6,0,0,1-1.24.88A4.15,4.15,0,0,1,172.22,79a1.43,1.43,0,0,0-1.12.36c-.47.47-.88.29-1.3.06s-.71-.48-.53-1.07c.06-.29-.18-.53-.41-.88a1.31,1.31,0,0,1-1.24.53,9.43,9.43,0,0,0-1.3.06A2.79,2.79,0,0,1,163.61,77a5.07,5.07,0,0,1-.83-1.07c-.47-.7-.77-1.59-1.95-1.65.42-.41.59-.65.18-1-1.71-1.36-2.06-3.3-2.24-5.37-.24-2.83-.41-5.72-.59-8.56a17.8,17.8,0,0,1,0-2.53l.29-6.08a27.76,27.76,0,0,1,2-8.73,10.58,10.58,0,0,1,3-4.07,17.36,17.36,0,0,1,2.12-1.24c.59-.42,1.13-.95,1.89-.71.18.06.42-.12.65-.24a4.86,4.86,0,0,1,.59-.23C169.15,35.42,169.63,35.42,169.86,35.83Zm-2.24,3.9a6.65,6.65,0,0,0-1.77,2.71,9.8,9.8,0,0,0-.65,4.13,8.1,8.1,0,0,1,.24,2.06c-.12,1.95-.06,3.9-.18,5.85a62.77,62.77,0,0,0,.06,6.72c.12,2.25.29,4.49.47,6.67a6.1,6.1,0,0,0,.89,3.36c.41.59,1,1.66,1.59,2.36-1.12,0-1.48-1.35-2.24-1.65.23.42.41.89.59,1.3a3.56,3.56,0,0,0,.53.83c.17.23.35.65.71.59.7-.06,1,.41,1.29.88.18.3.42.65.83.59a2.64,2.64,0,0,0,2.24-2.06c.12-1.54.53-3.07.77-4.55a55.92,55.92,0,0,0,.88-6.25c.12-2.36.24-4.72.48-7.08.23-3.13.82-6.32.35-9.5a22.73,22.73,0,0,0-1.42-6,2.33,2.33,0,0,0-1.77-1.54,6.65,6.65,0,0,0-1.83-.17A2.81,2.81,0,0,0,167.62,39.73Z"/><path class="cls-7" d="M226.68,36.83a7.1,7.1,0,0,0,2.77-.17,4.11,4.11,0,0,1,1.71-.06,4.93,4.93,0,0,1,2.3.88,3.4,3.4,0,0,1,1.6,2.72,12.65,12.65,0,0,1-.18,3.36l-.18,1.83c0,.29,0,.59-.23.71-.77.47-.59,1.3-.95,2-.35,0-.7-.17-1.06,0A1.57,1.57,0,0,1,230.34,47a3.23,3.23,0,0,1-.18-1.3c-.12-1.35-.18-2.71-.24-4.13,0-.7-.29-1.41-.41-2.12a1,1,0,0,0-.77-.89,3.47,3.47,0,0,0-4.36,1.72A23,23,0,0,0,222.73,44a16.6,16.6,0,0,0-.83,6.14c.18,1.53,0,3.07.06,4.54,0,1.24.12,2.42.06,3.66-.18,3.66.82,7.32.82,11,0,.17.06.35.06.53-.59,1.83.3,3.3,1.06,4.84.48.94.71,1,1.66.53,1.47-.77,2.48-1.83,4.13-2.36a.73.73,0,0,0,.53-.77c-.12-3.54.29-7.14.23-10.68a.77.77,0,0,0,0-.3,8.9,8.9,0,0,0-3.72-.7c-.59.06-.65-.59-.83-.95a.57.57,0,0,1,.59-.35,39.38,39.38,0,0,0,4.66-.77h.24c.65-.83.89-.24,1.18.36.06.05.24.05.35.11.36-.53.12-1.18.53-1.71.54.06.95.47,1.54.47.35,0,.35.36.35.65a32.11,32.11,0,0,1,.36,3.37c.06,1.24,0,2.42.12,3.65.23,2.48,0,5,.17,7.5.12,1.3.06,2.59.18,3.89a3.3,3.3,0,0,1-1.59,3.13c-.18.12-.18.41-.48.47-1.12-1.18-1.82-2.71-3-3.83-.47-.42-.41-1.12-.64-1.66-.42,0-.59.3-.77.54a5.57,5.57,0,0,1-2.89,2.3c-.59.82-1.24.7-2,1a5.88,5.88,0,0,1-2.83.18c-.83-.06-1.59-.18-2.42-.3-1.18-.18-2.77-.71-3.25-2.24a30,30,0,0,0-1-3.3,8,8,0,0,1-.47-3.31c0-2.3-.41-4.13-.53-6.37a36.75,36.75,0,0,1,.35-4.49c0-.65.12-1.29.06-1.88-.18-1.48.3-2.95.18-4.43-.18-2.06.59-3.95,1-6a4.35,4.35,0,0,0,.3-.83,11,11,0,0,1,3.6-6.31,17.14,17.14,0,0,1,1.94-1.59,1,1,0,0,1,.3-.12c1.71,0,2.95-1.24,4.36-1.83a15.37,15.37,0,0,1,2.42-.18C228.33,36.54,227.39,36.24,226.68,36.83Zm-10.62,14c-.12,1.41-.24,2.89-.3,4.36,0,.18.06.36.42.36a25.55,25.55,0,0,1,.53-5.25c0-.06-.12-.18-.18-.3A.84.84,0,0,0,216.06,50.82Z"/><path class="cls-7" d="M259.66,35.83c.3.47-.41.47-.53.94a8.19,8.19,0,0,1,4.13.18c2.06.89,3.78,2.07,4.6,4.31a10.47,10.47,0,0,0,1,1.71,14.28,14.28,0,0,1,2.07,6.67c.06,2.06.18,4.13.12,6.19s-.06,4.43-.24,6.67a18.73,18.73,0,0,1-.88,4.37c-.53,1.89-1.36,3.66-1.77,5.6a9.32,9.32,0,0,1-2.07,4.43,5.6,5.6,0,0,1-1.24.88A4.17,4.17,0,0,1,262,79a1.41,1.41,0,0,0-1.12.36c-.47.47-.89.29-1.3.06s-.71-.48-.53-1.07c.06-.29-.18-.53-.41-.88a1.31,1.31,0,0,1-1.24.53,9.36,9.36,0,0,0-1.3.06A2.78,2.78,0,0,1,253.41,77a5.07,5.07,0,0,1-.83-1.07c-.47-.7-.77-1.59-2-1.65.41-.41.59-.65.18-1-1.71-1.36-2.07-3.3-2.24-5.37-.24-2.83-.42-5.72-.59-8.56a17.8,17.8,0,0,1,0-2.53l.29-6.08a27.76,27.76,0,0,1,2-8.73A10.58,10.58,0,0,1,253.23,38a16.63,16.63,0,0,1,2.12-1.24c.59-.42,1.12-.95,1.89-.71.18.06.41-.12.65-.24a4.29,4.29,0,0,1,.59-.23C259,35.42,259.42,35.42,259.66,35.83Zm-2.24,3.9a6.65,6.65,0,0,0-1.77,2.71,9.8,9.8,0,0,0-.65,4.13,8.09,8.09,0,0,1,.23,2.06c-.11,1.95,0,3.9-.17,5.85a62.77,62.77,0,0,0,.06,6.72c.11,2.25.29,4.49.47,6.67a6.17,6.17,0,0,0,.88,3.36c.42.59,1,1.66,1.6,2.36-1.12,0-1.48-1.35-2.25-1.65a11.4,11.4,0,0,1,.59,1.3,4,4,0,0,0,.54.83c.17.23.35.65.7.59.71-.06,1,.41,1.3.88.18.3.42.65.83.59A2.64,2.64,0,0,0,262,74.07c.12-1.54.53-3.07.77-4.55a58.35,58.35,0,0,0,.88-6.25c.12-2.36.24-4.72.47-7.08.24-3.13.83-6.32.36-9.5a23.13,23.13,0,0,0-1.42-6,2.33,2.33,0,0,0-1.77-1.54,6.68,6.68,0,0,0-1.83-.17A2.81,2.81,0,0,0,257.42,39.73Z"/><path class="cls-7" d="M114.31,109.52c-.59,1.59-.94,3.25-1.65,4.78a1.42,1.42,0,0,0-.12.47c-.05,2.42-1.29,4.49-1.94,6.73a38.1,38.1,0,0,1-1.71,5.13,5.73,5.73,0,0,0-.59,3.13c-.06,1.48.29,3,.23,4.43,0,3.54,0,7.14-.06,10.74v.76a5.59,5.59,0,0,1-.53,3.66c-.77-.47-.77-.47-1.47.12s-.65.59-1.3.18a7.91,7.91,0,0,1-.77-.59c-.29-.24-.47-.59-.94-.42a.22.22,0,0,1-.18-.06c-.29-.11-.29-.76-.83-.53-.35.18-.23.65-.47.95a.91.91,0,0,1-.23.17,2,2,0,0,1-.48-1,42.15,42.15,0,0,1-.11-9.85,23.82,23.82,0,0,0-.18-5.73,7.34,7.34,0,0,0-1.24-4,6.72,6.72,0,0,1-1-2.83c-.95-3.42-1.71-7-2.48-10.45a27,27,0,0,0-1.71-5.6c-.3-.65.06-1.18.29-1.77a.29.29,0,0,1,.36-.12,6,6,0,0,1,5.07,2.83c.47.71.89,1.42,1.53,2.24a2.51,2.51,0,0,0-.29-1.77c-.18-.35-.18-.35.24-1a2,2,0,0,1,.94,1.42,2.36,2.36,0,0,0,.59,1.35,4.7,4.7,0,0,1,.71,1.89c.47,2.24,1.18,4.49,1.71,6.73a32.23,32.23,0,0,0,1.24,3.3,131.25,131.25,0,0,1,6.55-17.4A1.47,1.47,0,0,1,114.31,109.52ZM101,109.4c.12.24.18.77-.24.48a.58.58,0,0,1-.41-.54c-.06-.17.06-.29.24-.29S101,109.17,101,109.4Z"/><path class="cls-7" d="M135.85,106.63c.29.47-.41.47-.53.94a8.19,8.19,0,0,1,4.13.18c2.06.89,3.77,2.07,4.6,4.31a10.47,10.47,0,0,0,1,1.71,14.28,14.28,0,0,1,2.07,6.67c.06,2.06.17,4.13.12,6.19s-.06,4.43-.24,6.67a18.73,18.73,0,0,1-.88,4.37c-.54,1.89-1.36,3.66-1.78,5.6a9.21,9.21,0,0,1-2.06,4.43,5.84,5.84,0,0,1-1.24.88,4.17,4.17,0,0,1-2.83,1.24,1.41,1.41,0,0,0-1.12.36c-.47.47-.89.29-1.3.06s-.71-.48-.53-1.07c.06-.29-.18-.53-.42-.88a1.28,1.28,0,0,1-1.23.53,9.36,9.36,0,0,0-1.3.06,2.8,2.8,0,0,1-2.72-1.06,5,5,0,0,1-.82-1.07c-.47-.7-.77-1.59-2-1.65.41-.41.59-.65.18-1-1.71-1.36-2.07-3.31-2.25-5.37-.23-2.83-.41-5.72-.58-8.56a17.8,17.8,0,0,1,0-2.53l.29-6.08a27.76,27.76,0,0,1,2-8.73,10.68,10.68,0,0,1,2.95-4.08,17.87,17.87,0,0,1,2.12-1.23c.59-.42,1.12-1,1.89-.71.18.06.41-.12.65-.24a3.83,3.83,0,0,1,.59-.23C135.14,106.22,135.61,106.22,135.85,106.63Zm-2.24,3.89a6.75,6.75,0,0,0-1.77,2.72,9.64,9.64,0,0,0-.65,4.13,8.56,8.56,0,0,1,.23,2.06c-.12,1.95-.06,3.9-.17,5.85a65.5,65.5,0,0,0,.05,6.72c.12,2.25.3,4.49.48,6.67a6,6,0,0,0,.88,3.36c.42.59,1,1.66,1.59,2.36-1.12-.06-1.47-1.35-2.24-1.65a11.4,11.4,0,0,1,.59,1.3,4.69,4.69,0,0,0,.53.83c.18.23.36.65.71.59.71-.06,1,.41,1.3.88.18.3.41.65.83.59a2.64,2.64,0,0,0,2.24-2.06c.12-1.54.53-3.07.77-4.55a58.35,58.35,0,0,0,.88-6.25c.12-2.36.24-4.72.47-7.08.24-3.13.83-6.32.36-9.5a23.13,23.13,0,0,0-1.42-6A2.33,2.33,0,0,0,137.5,110a6.68,6.68,0,0,0-1.83-.17A2.83,2.83,0,0,0,133.61,110.52Z"/><path class="cls-7" d="M172.13,132.59c.77.12.89.24.48.95-.18.41.17.82-.06,1.18a2.67,2.67,0,0,1-1.36.35c-2.54-.06-5.07,0-7.61.18-.65.06-1.36.23-2.07.23a1.88,1.88,0,0,1-1.77-1.23.73.73,0,0,1,.36-1.07,10.91,10.91,0,0,1,4.89-.94C167.41,132.48,169.77,132.42,172.13,132.59Z"/><path class="cls-7" d="M201,109.52c-.59,1.59-1,3.25-1.66,4.78a1.68,1.68,0,0,0-.11.47c-.06,2.42-1.3,4.49-1.95,6.73a36.74,36.74,0,0,1-1.71,5.13,5.73,5.73,0,0,0-.59,3.13c-.06,1.48.29,3,.23,4.43,0,3.54,0,7.14-.06,10.74v.76a5.59,5.59,0,0,1-.53,3.66c-.76-.47-.76-.47-1.47.12s-.65.59-1.3.18a7.91,7.91,0,0,1-.77-.59c-.29-.24-.47-.59-.94-.42a.22.22,0,0,1-.18-.06c-.29-.11-.29-.76-.82-.53-.36.18-.24.65-.48.95a.76.76,0,0,1-.23.17,1.87,1.87,0,0,1-.47-1,42.15,42.15,0,0,1-.12-9.85,23.31,23.31,0,0,0-.18-5.73,7.26,7.26,0,0,0-1.24-4,6.72,6.72,0,0,1-1-2.83c-.95-3.42-1.71-7-2.48-10.45a27,27,0,0,0-1.71-5.6c-.3-.65.06-1.18.29-1.77a.29.29,0,0,1,.36-.12,6,6,0,0,1,5.07,2.83c.48.71.89,1.42,1.54,2.24a2.51,2.51,0,0,0-.3-1.77c-.18-.35-.18-.35.24-1a2,2,0,0,1,.94,1.42,2.36,2.36,0,0,0,.59,1.35,4.56,4.56,0,0,1,.71,1.89c.47,2.24,1.18,4.49,1.71,6.73a32.23,32.23,0,0,0,1.24,3.3,131.25,131.25,0,0,1,6.55-17.4A1.49,1.49,0,0,1,201,109.52Zm-13.34-.12c.12.24.18.77-.23.48a.58.58,0,0,1-.42-.54c-.06-.17.06-.29.24-.29S187.65,109.17,187.65,109.4Z"/><path class="cls-7" d="M222.52,106.63c.3.47-.41.47-.53.94a8.19,8.19,0,0,1,4.13.18c2.06.89,3.78,2.07,4.6,4.31a10.47,10.47,0,0,0,1,1.71,14.28,14.28,0,0,1,2.07,6.67c.06,2.06.18,4.13.12,6.19s-.06,4.43-.24,6.67a18.73,18.73,0,0,1-.88,4.37c-.53,1.89-1.36,3.66-1.77,5.6A9.32,9.32,0,0,1,229,147.7a5.6,5.6,0,0,1-1.24.88,4.15,4.15,0,0,1-2.83,1.24,1.43,1.43,0,0,0-1.12.36c-.47.47-.89.29-1.3.06s-.71-.48-.53-1.07c.06-.29-.18-.53-.41-.88a1.31,1.31,0,0,1-1.24.53,9.43,9.43,0,0,0-1.3.06,2.78,2.78,0,0,1-2.71-1.06,5.07,5.07,0,0,1-.83-1.07c-.47-.7-.77-1.59-1.95-1.65.42-.41.59-.65.18-1-1.71-1.36-2.07-3.31-2.24-5.37-.24-2.83-.42-5.72-.59-8.56a17.8,17.8,0,0,1,0-2.53l.29-6.08a27.76,27.76,0,0,1,2-8.73,10.68,10.68,0,0,1,3-4.08,17.87,17.87,0,0,1,2.12-1.23c.59-.42,1.12-1,1.89-.71.18.06.41-.12.65-.24a4.29,4.29,0,0,1,.59-.23C221.81,106.22,222.28,106.22,222.52,106.63Zm-2.24,3.89a6.75,6.75,0,0,0-1.77,2.72,9.8,9.8,0,0,0-.65,4.13,8.09,8.09,0,0,1,.23,2.06c-.11,1.95-.05,3.9-.17,5.85A62.77,62.77,0,0,0,218,132c.11,2.25.29,4.49.47,6.67a6.17,6.17,0,0,0,.88,3.36c.42.59,1,1.66,1.6,2.36-1.12-.06-1.48-1.35-2.25-1.65a11.4,11.4,0,0,1,.59,1.3,4.23,4.23,0,0,0,.54.83c.17.23.35.65.7.59.71-.06,1,.41,1.3.88.18.3.42.65.83.59a2.64,2.64,0,0,0,2.24-2.06c.12-1.54.53-3.07.77-4.55a58.35,58.35,0,0,0,.88-6.25c.12-2.36.24-4.72.47-7.08.24-3.13.83-6.32.36-9.5a23.13,23.13,0,0,0-1.42-6,2.33,2.33,0,0,0-1.77-1.54,6.68,6.68,0,0,0-1.83-.17A2.85,2.85,0,0,0,220.28,110.52Z"/><path class="cls-7" d="M268.13,108.28a1.48,1.48,0,0,1-.3,1c-.71,1.12-1.53,2.3-2.36,3.36s-1.53,2.3-2.24,3.42a8.18,8.18,0,0,1-.59.95c-.29.47-.77.88-.88,1.41s-.42.83-.54,1.36c-.11.88-.88,1.42-1.47,2a2.32,2.32,0,0,0-.47,2.89c.65,1.71,1.41,3.42,2.12,5.19a7.57,7.57,0,0,1,.53,1.65c.06.65.53,1.07.77,1.6a57.65,57.65,0,0,0,3.72,8,25.62,25.62,0,0,1,2.12,4.6,1.59,1.59,0,0,1,.18.71,4.86,4.86,0,0,0,.59,2c.18.29.47.59.29,1.06-.82-.24-1.53-.24-1.94.77-.06.17-.24-.06-.36,0-.53.17-1,.11-1.53.23a2.43,2.43,0,0,1-2.36-.88,6.8,6.8,0,0,0-1.65-1.24c-.24.18.05.53-.24.77a2.16,2.16,0,0,1-1.24-1.42c-.71-2.07-1.36-4.19-1.95-6.31s-1.35-4.19-2-6.26a59.6,59.6,0,0,1-1.83-6.61c0-.23-.18-.41-.3-.71-.53.36-.47.77-.47,1.24.18,1.89.35,3.84.47,5.79.12,3.12.47,6.19.36,9.26a2.5,2.5,0,0,1-.48,1.83c-.17.24-.11.53-.23.83-.12.47-.06,1.06-.89,1.06-.53,0-.29.76-.59,1.18-.65-.42-1.24.12-1.83.29a2,2,0,0,1-2.65-1.41,33.73,33.73,0,0,1-.35-3.6c-.18-2.84-.42-5.61-.65-8.38-.18-2.42-.3-4.84-.36-7.32,0-2.77-.17-5.54-.17-8.38a39.5,39.5,0,0,1,.17-7,11.32,11.32,0,0,0-.06-1.42c-.06-.47-.23-1.12-.06-1.41.54-.59,1-1.12.71-2-.06-.06.18-.23.36-.18a1.75,1.75,0,0,0,1.35-.29,3.36,3.36,0,0,1,2.6-.12,1.38,1.38,0,0,1,1.18,1.24,24.78,24.78,0,0,1,.41,4.19,11,11,0,0,0,.12,2,21.72,21.72,0,0,1,.12,4c.06,2,.18,3.89.29,6a6.64,6.64,0,0,0,1.48-1.77c1.06-1.42,2.06-3,3.07-4.43,1.83-2.71,3.77-5.37,5.84-7.9a19.25,19.25,0,0,0,1.95-2.36c.29-.42.82-.48,1.18-1S268.07,107.75,268.13,108.28Z"/><path class="cls-7" d="M286.48,107.22a13.67,13.67,0,0,1,.53,4.07,21.41,21.41,0,0,0,.29,4.37,39.21,39.21,0,0,1,0,5.31c-.06,1.71-.18,3.42-.23,5.13a37.94,37.94,0,0,1-.48,5.25,18.2,18.2,0,0,0,0,3.54l.18,3.37a7.78,7.78,0,0,0,.35,2.06c.48,1.36.89,2.78,1.42,4.07a14.78,14.78,0,0,0,1.36,2,1.58,1.58,0,0,0,1.71.89,3.12,3.12,0,0,0,2.06-.42,5.25,5.25,0,0,0,2.36-4.66,39.7,39.7,0,0,1,.36-5.37,2.89,2.89,0,0,0,.06-1,49.45,49.45,0,0,1,.41-7.32,16.38,16.38,0,0,0-.18-3.83,33.83,33.83,0,0,1-.17-6.44c.06-1.59-.12-3.12-.18-4.72,0-.76-.24-1.47.35-2.18.18-.24.06-.83.06-1.18s0-.77.53-.83c.77,0,1.07.06,1.24.65a2.59,2.59,0,0,1,.18,1.18v1.77c.83-1.29-.12-2.77.35-4.19.3,0,.48.06.48.3a1.88,1.88,0,0,1,.05.77c-.17,1.77.12,3.48,0,5.25a16.36,16.36,0,0,1-.11,1.71,13,13,0,0,0,0,2.65,39.93,39.93,0,0,1,.47,5.91c-.12,2.3-.41,4.66-.3,7s-.06,4.48-.11,6.72a14.18,14.18,0,0,1-.48,2.78,3.57,3.57,0,0,0,0,1.89,4.77,4.77,0,0,1-1.24,4.3,2.14,2.14,0,0,1-1.35.71,13.37,13.37,0,0,0-2.13.59,3.13,3.13,0,0,1-1.29.3c-.18-.06-.48-.12-.6.11-.29.65-.88.48-1.35.42a3.31,3.31,0,0,0-1.71.06,5.49,5.49,0,0,1-3.72-.83c-1.12-.65-2.18-1.42-3.31-2.06-1.53-.89-2.12-2.42-2.47-4.13-.12-.77-.24-1.6-.42-2.37-.11-.53.18-1,.12-1.53a75.1,75.1,0,0,1,0-8.08c.12-3.13.06-6.26-.12-9.39a57.27,57.27,0,0,1,.42-9c.11-1.12.35-2.25.41-3.37.06-1.3.47-1.65,1.59-1.94a.55.55,0,0,1,.53,0,1.55,1.55,0,0,0,1.42.23c.41,0,.77.18.89-.47.05-.18.64-.47,1.06-.53A.54.54,0,0,1,286.48,107.22Z"/><path class="cls-7" d="M150.19,569.55h-5l-.34.84a8.44,8.44,0,0,0-.76,2.38,1,1,0,0,0,.4.9,1.67,1.67,0,0,0,1,.31v.45h-3.93V574a2.13,2.13,0,0,0,1.31-.62,7.69,7.69,0,0,0,1-2c0-.1.19-.48.47-1.14l3.85-9.19h.38L153,571.52l.61,1.39a1.92,1.92,0,0,0,.55.74,2.06,2.06,0,0,0,1,.33v.45H150V574a3.73,3.73,0,0,0,1.29-.14.55.55,0,0,0,.34-.56,5.74,5.74,0,0,0-.45-1.28Zm-.16-.44-2.35-5.65-2.33,5.65Z"/><path class="cls-7" d="M160,566.43v.45H158.3v4.81c0,.85,0,1.39,0,1.61a.69.69,0,0,0,.28.51,1.63,1.63,0,0,0,.87.17h.42v.45h-4.33V574a2.31,2.31,0,0,0,.94-.13.62.62,0,0,0,.32-.42,13.32,13.32,0,0,0,.06-1.74v-4.81H155.4v-.45h1.49v-.72a12.78,12.78,0,0,1,.1-1.87,3.5,3.5,0,0,1,.55-1.38,3.1,3.1,0,0,1,1.14-1.08,3.29,3.29,0,0,1,1.64-.39,3.21,3.21,0,0,1,1.85.48,1.3,1.3,0,0,1,.69,1,.63.63,0,0,1-.2.47.65.65,0,0,1-.46.18c-.34,0-.66-.26-.94-.8a1.43,1.43,0,0,0-1.24-.88,1.51,1.51,0,0,0-1.08.45,1.74,1.74,0,0,0-.55,1.11,27.32,27.32,0,0,0-.09,2.85v.6Z"/><path class="cls-7" d="M173,567.93l4-3.64c.94-.84,1.4-1.44,1.4-1.8,0-.54-.46-.82-1.4-.85v-.45h5v.45a3.49,3.49,0,0,0-1.24.26,4.44,4.44,0,0,0-1.13.67c-.35.27-1,.85-1.93,1.72l-2.41,2.23,5,5a17.23,17.23,0,0,0,2.28,2.09A2.76,2.76,0,0,0,184,574v.45h-6.87V574h.26a3.22,3.22,0,0,0,1.39-.18.56.56,0,0,0,.27-.46c0-.28-.47-.88-1.42-1.83l-3.74-3.77-.94.83V571a17.42,17.42,0,0,0,.07,2,1.12,1.12,0,0,0,.4.72,2.28,2.28,0,0,0,1.22.23h.25v.45H169V574h.41a2.35,2.35,0,0,0,1.18-.21,1,1,0,0,0,.42-.67,14.64,14.64,0,0,0,.09-2.12v-6.49a12.5,12.5,0,0,0-.1-2.09.85.85,0,0,0-.41-.61,4,4,0,0,0-1.41-.15v-.45H175v.45h-.25a3.22,3.22,0,0,0-1.28.16.87.87,0,0,0-.4.6,12.34,12.34,0,0,0-.1,2.09Z"/><path class="cls-7" d="M184,570.42a4.16,4.16,0,0,1,1.23-3.07,4.33,4.33,0,0,1,6.07,0,4.19,4.19,0,0,1,1.23,3.07,4.13,4.13,0,0,1-1.25,3.18,4.3,4.3,0,0,1-3,1.15,4.23,4.23,0,0,1-3-1.17A4.16,4.16,0,0,1,184,570.42Zm1.62.05a4.85,4.85,0,0,0,.69,3,2.67,2.67,0,0,0,3.91,0,4.94,4.94,0,0,0,.67-3,5.13,5.13,0,0,0-.67-3,2.3,2.3,0,0,0-2-.9,2.33,2.33,0,0,0-2,.89A5.13,5.13,0,0,0,185.65,570.47Z"/><path class="cls-7" d="M195.76,566.11H196a4.65,4.65,0,0,1,.17,1.32,4.39,4.39,0,0,1,1.34-1,3.78,3.78,0,0,1,4.28.84,4.28,4.28,0,0,1,1.11,3.08,4.56,4.56,0,0,1-1.11,3.13,3.7,3.7,0,0,1-2.92,1.26,3.64,3.64,0,0,1-1.42-.29,4.42,4.42,0,0,1-1.28-.89v3a16.7,16.7,0,0,0,.05,1.69.64.64,0,0,0,.31.45,2.08,2.08,0,0,0,.95.15v.45h-4.18v-.45h.29a1.35,1.35,0,0,0,.9-.2.75.75,0,0,0,.25-.47q0-.29,0-1.62v-7.27c0-.85,0-1.39,0-1.61a.69.69,0,0,0-.28-.51,1.63,1.63,0,0,0-.87-.17h-.29v-.45A17.11,17.11,0,0,0,195.76,566.11Zm.43,6.82a3.85,3.85,0,0,0,1.12,1,2.46,2.46,0,0,0,3.17-.62,4.6,4.6,0,0,0,.82-3,3.9,3.9,0,0,0-.8-2.68,2.4,2.4,0,0,0-1.88-.89,2.53,2.53,0,0,0-1.28.34,4,4,0,0,0-1.15,1Z"/><path class="cls-7" d="M208.57,566.43v.45H206.9v4.81c0,.85,0,1.39,0,1.61a.68.68,0,0,0,.27.51,1.68,1.68,0,0,0,.87.17h.42v.45h-4.32V574a2.22,2.22,0,0,0,.93-.13.62.62,0,0,0,.32-.42,12.49,12.49,0,0,0,.07-1.74v-4.81H204v-.45h1.5v-.72a14.72,14.72,0,0,1,.09-1.87,3.66,3.66,0,0,1,.55-1.38,3.2,3.2,0,0,1,1.15-1.08,3.25,3.25,0,0,1,1.63-.39,3.19,3.19,0,0,1,1.85.48,1.3,1.3,0,0,1,.69,1,.63.63,0,0,1-.19.47.67.67,0,0,1-.46.18c-.35,0-.66-.26-.95-.8a1.42,1.42,0,0,0-1.24-.88,1.51,1.51,0,0,0-1.08.45A1.79,1.79,0,0,0,207,563a27.32,27.32,0,0,0-.09,2.85v.6Z"/><path class="cls-7" d="M214.79,566.43H218v.45a4.48,4.48,0,0,0-2.38,1.33c-.32.27-.81.67-1.48,1.2l2.85,3.34a5.35,5.35,0,0,0,1,1,1.52,1.52,0,0,0,.77.25v.45h-4V574c.67,0,1-.15,1-.43a2.72,2.72,0,0,0-.66-.94l-2-2.39-.42.32v1.15c0,.85,0,1.39,0,1.6a.66.66,0,0,0,.28.51,1.47,1.47,0,0,0,.85.18v.45h-4.06V574h.31a1.38,1.38,0,0,0,.91-.2.74.74,0,0,0,.24-.48c0-.18,0-.72,0-1.61v-8a3.19,3.19,0,0,0-.22-1.48c-.15-.22-.5-.33-1.06-.33v-.45a8.53,8.53,0,0,0,1.38-.13,4.9,4.9,0,0,0,1.1-.28h.2v9l.84-.59c1.36-1,2-1.66,2-2.08s-.25-.43-.75-.45Z"/><path class="cls-7" d="M221.9,566.11v5.58c0,.85,0,1.39,0,1.61a.73.73,0,0,0,.28.51,1.68,1.68,0,0,0,.87.17h.21v.45H219V574h.33a1.36,1.36,0,0,0,.91-.2.74.74,0,0,0,.24-.48c0-.18,0-.72,0-1.61v-2.42a6.16,6.16,0,0,0-.13-1.72.6.6,0,0,0-.35-.39,2.3,2.3,0,0,0-.77-.08H219v-.45a12,12,0,0,0,2.7-.52ZM220,562a1,1,0,0,1,.29-.72,1,1,0,0,1,1.44,0,1.05,1.05,0,0,1,0,1.45,1,1,0,0,1-1.44,0A1,1,0,0,1,220,562Z"/><path class="cls-7" d="M226.43,566.11h.27a5.35,5.35,0,0,1,.25,1.65,5.17,5.17,0,0,1,1.47-1.24,3.48,3.48,0,0,1,1.62-.41,2.84,2.84,0,0,1,1.56.4,1.84,1.84,0,0,1,.79,1,6.13,6.13,0,0,1,.18,1.7v2.5c0,.92,0,1.48,0,1.69a.64.64,0,0,0,.31.45,2.08,2.08,0,0,0,1,.15v.45h-4.09V574H230a1.48,1.48,0,0,0,.92-.2.79.79,0,0,0,.24-.48c0-.18,0-.72,0-1.61v-2.58a7,7,0,0,0-.09-1.35,1.32,1.32,0,0,0-.5-.72,1.62,1.62,0,0,0-1-.31,2.44,2.44,0,0,0-1.36.42,4.33,4.33,0,0,0-1.23,1.28v3.26a16.85,16.85,0,0,0,.05,1.69.62.62,0,0,0,.32.45,2.1,2.1,0,0,0,1,.15v.45h-4V574a2.25,2.25,0,0,0,.93-.13.6.6,0,0,0,.33-.42,13.32,13.32,0,0,0,.06-1.74V569.3a13.87,13.87,0,0,0-.05-1.69.64.64,0,0,0-.31-.45,2.15,2.15,0,0,0-1-.15v-.45A12.93,12.93,0,0,0,226.43,566.11Z"/><path class="cls-7" d="M235.05,570.42a4.16,4.16,0,0,1,1.23-3.07,4.32,4.32,0,0,1,6.06,0,4.19,4.19,0,0,1,1.23,3.07,4.13,4.13,0,0,1-1.25,3.18,4.28,4.28,0,0,1-3,1.15,4.23,4.23,0,0,1-3-1.17A4.15,4.15,0,0,1,235.05,570.42Zm1.62.05a4.85,4.85,0,0,0,.69,3,2.66,2.66,0,0,0,3.9,0,4.93,4.93,0,0,0,.68-3,5.13,5.13,0,0,0-.67-3,2.59,2.59,0,0,0-3.92,0A5.06,5.06,0,0,0,236.67,570.47Z"/></g><g id="Layer_9" data-name="Layer 9"><path class="cls-8" d="M399.59,526.78c-18.19-4.46-36.39-9.74-52.76-18.86s-30.93-22.41-38.63-39.49c-2.59-5.73-4.41-11.86-7.79-17.17-5.38-8.41-14.2-14-20.63-21.63-9.84-11.71-13.71-27.8-24.59-38.54-5-5-11.29-8.49-16.81-12.9a66.34,66.34,0,0,1-24.62-51l7.94-3a36.73,36.73,0,0,1-1.4,15.1c-.59-3.63-1.16-7.45.1-10.91s5-6.31,8.53-5.22c.53,4.88,1,9.9-.36,14.61s-5.15,9.05-10,9.59c-9.47,1-16.14-11.84-25.64-11"/><path class="cls-8" d="M255.12,388.68c-11.66-18.48-13.77-40.87-15-62.17-.53-9.15.08-16.62-4.22-24.59-6.23-11.53-9.9-15.39-2.4-28.42,4.61-8,7.59-18.57,15.8-23.47,7.71-4.61,17.54-3.11,22.76-12.07,2-3.4,2.53-7.44,3.91-11.12,4.36-11.65,16.75-18.61,29-20.57s24.78.08,37.17,1.09c5.37.43,11,.62,15.84-1.84a16.13,16.13,0,0,0,8-18.06,10.89,10.89,0,0,1,7.79,7.89"/><path class="cls-8" d="M380.1,185.91a16.66,16.66,0,0,1-3.56,11.47,8.49,8.49,0,0,1,7.22-3.17c.83.07,1.85.47,1.89,1.31a1.89,1.89,0,0,1-.88,1.39c-2.42,2-13.35,8.13-15.76,3.8S377.53,188.15,380.1,185.91Z"/><path class="cls-8" d="M255.84,379.91c-8.38-16.08-8.35-35.06-8.12-53.18q.14-11.52.29-23.05c.07-5.59.28-11.61,3.7-16,5.17-6.68,15.35-6.91,21.86-12.29,12.73-10.53,5.81-34.78,19.35-44.25a32,32,0,0,1-5,15.8,125,125,0,0,0,7.56-12.9c4,10.79-3.06,24.24-14.19,27.13"/><path class="cls-8" d="M253.07,342.1a17.22,17.22,0,0,1,15.31-14.76c7.35-.55,16,3.41,21.42-1.55,3.84-3.49,3.62-9.44,5-14.44a21.25,21.25,0,0,1,36.65-8.22,14.85,14.85,0,0,0,3.16,3.22c5.42,3.35,11.3-3.83,16.07-5.67,5.52-2.14,11.32-3.64,16.89-5.84-2.7,1.88-5.47,3.67-8.21,5.49a39.51,39.51,0,0,0,14.73-.9c-2.45,2.93-5.28,6.07-9.07,6.47-4.21.45-7.89-2.62-11-5.49"/><path class="cls-8" d="M247.31,244.46l1.89-18.84c.24-2.29.38-4.88-1.14-6.61-1.32-1.5-3.47-1.86-5.28-2.71a13.07,13.07,0,0,1-6.54-8.32,31.45,31.45,0,0,1-.75-10.82l6.89,9.85-.28-10.27a22.6,22.6,0,0,1,6,18.49,2.46,2.46,0,0,1-.44-2"/><path class="cls-8" d="M3.44,550.89C32.33,538,55.59,514.84,73.86,489s32.1-54.43,46.83-82.41c6.19-11.77,12.78-23.72,22.89-32.34,5.9-5,13-9,17-15.62,2.49-4.16,3.51-9,4.37-13.79a311.61,311.61,0,0,0,4.59-40.64c.21-4.46.28-9.11-1.56-13.17-2.73-6-9.05-9.52-13.08-14.76-9.62-12.47-5.38-33.18-17.8-42.86-11.6-9-29-1.64-43-6.2-13-4.23-21.51-18.31-35-20.55-5-.82-10,.1-15.07-.26a30.15,30.15,0,0,1-25.48-19.12,60.3,60.3,0,0,1,11.08,8.59l-1.16-11.15a22.69,22.69,0,0,1,4.57,15"/><path class="cls-8" d="M145.2,366.49l.94-26.34a4.33,4.33,0,0,0-.4-2.45,4.1,4.1,0,0,0-2.37-1.46,35.89,35.89,0,0,0-9.86-1.63c-4.28-.11-9.1.39-12.33-2.41-6.47-5.61-.75-19-8.09-23.37-8.16-4.9-18.77.27-27.13,1.21s-19.29-1.77-25.55-7.42a52,52,0,0,1-4.23-5c-5-5.82-12.49-8.69-19.67-11.33a28,28,0,0,0-8.88-2.2c-3.06-.08-6.32,1-8.07,3.55"/><path class="cls-8" d="M146.1,325.88a52.35,52.35,0,0,1,6.73-23.47c3.67-6.48,8.75-12.25,11.13-19.31,2.17-6.43,2.15-14,6.74-19,3-3.31,7.67-4.94,10.35-8.55a15.47,15.47,0,0,0,2.58-9.51c-.28-15.17-13.53-27.49-15-42.6-.61-6.38.93-13-.93-19.12a18.28,18.28,0,0,0-15.5-12.58l7.69,9.72-6-.08a36.06,36.06,0,0,0,11.64,8.05"/><path class="cls-8" d="M140.44,260.55A24.93,24.93,0,0,1,124,249.61c-1.17-1.82-2.15-3.84-3.86-5.17-3.51-2.75-8.7-1.52-12.59.67s-7.47,5.23-11.87,6C86,252.79,78,243,68.25,241.63c-12.65-1.76-16.46,9.74-26.41,12.77-10.84,3.3-12.4-13.78-23.71-11.14C21,246,19.4,251.14,21.67,254.4s7.32,3,11.37,2.37"/><path class="cls-8" d="M183.21,226.57a18.44,18.44,0,0,1,8.71-17.84A36.16,36.16,0,0,1,188,222.59a45.7,45.7,0,0,1,5.61-8.17,11.59,11.59,0,0,1-11.86,15.89"/><g class="cls-9"><rect x="-1" width="400" height="600"/></g></g></svg>