<svg xmlns="http://www.w3.org/2000/svg" xmlns:xlink="http://www.w3.org/1999/xlink" width="400" height="600" viewBox="0 0 400 600"><defs><style>.cls-1{fill:url(#linear-gradient);}.cls-2,.cls-3,.cls-4,.cls-9{fill:none;stroke-miterlimit:10;}.cls-2{stroke:#a0628a;}.cls-2,.cls-3,.cls-4{stroke-width:3px;}.cls-3{stroke:#824d72;}.cls-4{stroke:#774468;}.cls-5{opacity:0.41;filter:url(#AI_GaussianBlur_4);}.cls-6{fill:#f26c5a;}.cls-7{opacity:0.31;filter:url(#AI_Turbulence_5);}.cls-8{fill:#fff;}.cls-9{stroke:#fff;}</style><linearGradient id="linear-gradient" x1="71.02" y1="276.18" x2="377.92" y2="447.15" gradientUnits="userSpaceOnUse"><stop offset="0" stop-color="#cc81b5"/><stop offset="1" stop-color="#7c456b"/></linearGradient><filter id="AI_GaussianBlur_4" name="AI_GaussianBlur_4"><feGaussianBlur stdDeviation="4"/></filter><filter id="AI_Turbulence_5" x="0" y="0" width="100%" height="100%" name="AI_Turbulence_5"><feTurbulence result="turb" baseFrequency="0.4" numOctaves="4" type="fractalNoise"/><feComposite operator="in" in="turb" in2="SourceAlpha"/></filter></defs><g id="Layer_10" data-name="Layer 10"><rect x="-0.2" y="-0.09" width="400" height="600"/></g><g id="Layer_11" data-name="Layer 11"><path class="cls-1" d="M35.46,380.58c-4.06-5.69-10-4.71-11-9-.87-3.83,3.62-5.71,6-12,2.95-7.78-1.62-11-1-20,.79-11.4,8.34-10.44,14-27,3.57-10.43,2.46-16.34,8-20,3.94-2.61,6.4-.88,11-4,5.59-3.79,4.8-8.25,9-13,4.44-5,8.19-3.29,24-8,12.18-3.63,19.15-5.8,25-12,5.54-5.87,3.22-8.07,8-12,6.09-5,10.4-1.89,32-5,6-.87,24-4,18-3h0s7.67,9.26,11,8c3-1.13-.75-9.4,3-13,5.65-5.42,18.14,9.35,38,7,5.82-.69,10.88-2.68,19-1,2.38.49,3.56,1,11,4,12,4.83,18,7.24,20,8,15.27,5.63,16.88,4.11,21,8s2.83,5.69,9,14a89.12,89.12,0,0,0,11,12c11.26,10.72,14.11,9.57,18,16,4.6,7.59,1.21,10.17,6,16,5.86,7.13,12.85,5.61,15,12,1.59,4.69,0,12,0,12h0c14.13,13.5,15,18,15,18,1.06,5.47-2.36,6.17-6,18-4.24,13.8-.94,17.3-6,27-1.64,3.16-4.1,6.1-9,12-8.83,10.61-11.63,11.36-15,17-5.07,8.49-2.53,13.17-5,21-5.31,16.88-28.16,30.27-48,31-19.56.72-31.58-11-44-3-4.66,3-3.92,5.29-9,8-11.37,6.06-29.93,2.54-37-8-4.94-7.37-.05-11.88-6-23-1.17-2.2-7.33-13.72-16-14-5.46-.18-6,4.31-14,6-6.92,1.46-8.54-1.49-18-1-8.4.43-8.1,2.82-15,3-7.62.2-19.29-2.42-23-10-2.19-4.48.19-7-3-12-2.91-4.54-6.22-4.48-7-8-1-4.7,4.21-7.7,3-11-.82-2.24-4.15-3.38-12-4-16.33-1.29-20,2.23-30,0-4.56-1-12.36-2.77-16-9C36,390.68,39.53,386.27,35.46,380.58Z"/><path class="cls-2" d="M53.17,336.43l12.19-7.92a9.46,9.46,0,0,1,3.88-1.75,3.22,3.22,0,0,1,3.5,1.87c.22.65.13,1.38.35,2,.57,1.71,2.93,2.15,4.58,1.43s2.8-2.2,4.11-3.44,3-2.33,4.8-1.94c1.56.34,2.67,1.74,4.12,2.4,2.13,1,4.63.21,6.74-.79s4.21-2.26,6.55-2.31,4.91,1.75,4.65,4.07c-.06.51-.44,1.11-.94,1s.09-1.1.28-.62"/><path class="cls-2" d="M80.73,297.16a49.42,49.42,0,0,1,15-5.77c2-.41,4.15-.65,5.8.48,3.39,2.33,2.18,8.81,6,10.35a5.45,5.45,0,0,0,2.69.22c3.07-.4,5.83-2.06,8.82-2.89s6.74-.5,8.43,2.1c2.35,3.63-.31,10,3.56,11.94,1.69.85,3.72.17,5.6.32a6.56,6.56,0,0,1,5.77,5.11,9.7,9.7,0,0,0,.76,3.33c1.54,2.49,5.61,1,7.18-1.5"/><path class="cls-2" d="M31.94,358.08c-1.73,2.36-1,5.93,1.17,7.94s5.21,2.7,8.14,2.65a19.84,19.84,0,0,0,13.27-5.55c2.32-2.26,5.06-5.39,8.09-4.24a5.12,5.12,0,0,1,2.33,2c2.29,3.41,2.28,8.1,5,11.16,3.84,4.3,11,3.1,15.86-.07,2.49-1.64,5.7-3.75,8.12-2,1.2.86,1.68,2.41,2.71,3.47,1.64,1.67,4.41,1.73,6.55.79a17.48,17.48,0,0,0,5.4-4.41l5.73-6.12"/><path class="cls-2" d="M95.33,349.94c7.51-4.23,17.07-8.44,24.24-3.64,1.89,1.26,3.41,3.08,5.43,4.13,6.28,3.26,13.73-2.27,17.19-8.45,1.83-3.26,3.35-7,6.6-8.9,3.77-2.17,8.48-1,12.77-.23s9.45.85,12.12-2.59c3.31-4.24.84-11.51,4.93-15,2.8-2.39,7-1.53,10.55-.53"/><path class="cls-2" d="M96.84,273.85c13-.61,22.24,17,35.09,14.83,5.62-.95,9.77-5.52,14-9.32s10-7.24,15.35-5.34c2.81,1,4.92,3.28,7.28,5.11s5.45,3.29,8.24,2.25c2.23-.82,3.61-3,5.2-4.73s4-3.32,6.2-2.44c3.89,1.56,3.76,9.23,7.94,8.85"/><path class="cls-3" d="M190.56,245.18c-.9,2.75,1.92,5.26,4.55,6.47,3.88,1.79,8.15,2.74,11.84,4.9s6.85,6.08,6.33,10.33c-.31,2.54-1.86,4.72-3,7s-1.79,5.18-.39,7.33c1.22,1.88,3.77,2.73,4.61,4.81s-.54,4.59-2.32,6.09-4,2.53-5.48,4.29-2.05,4.75-.29,6.26a8.85,8.85,0,0,0,2.25,1.15c5.2,2.32,7.26,10.38,2.85,14a18.53,18.53,0,0,0-2.59,2.05c-2.54,3,.48,7.56,3.84,9.61"/><path class="cls-2" d="M231.84,290.25c-1.5-3,1.3-6.62,4.54-7.32s6.54.59,9.64,1.78,6.5,2.32,9.66,1.32c5.36-1.69,7.15-8.3,7.58-13.89a7.72,7.72,0,0,1,.51-2.62c1.48-3.18,6.15-2.61,9.38-1.26s7.41,2.82,9.85.31c1.61-1.67,1.55-4.33,2.62-6.39a6.45,6.45,0,0,1,7.54-3.06c1.39.46,2.59,1.4,4,1.88s3.22.28,3.92-1"/><path class="cls-3" d="M243.87,320.26c3.69-7.17,14.48-9.36,20.67-4.18a11.23,11.23,0,0,0,3.31,2.38c3.07,1,6-1.84,7.76-4.56a53.31,53.31,0,0,0,4.81-9.39,11,11,0,0,1,2.33-4.22c1.67-1.57,4.15-1.8,6.44-1.9,3.22-.13,7.21.32,8.44,3.31.33.82.43,1.8,1.09,2.39,1,.88,2.48.43,3.67-.08,6.09-2.6,12.84-7.28,12.32-13.88-.1-1.31-.1-3.18,1.21-3.3a2.45,2.45,0,0,1,1.59.75,14.84,14.84,0,0,0,10,3.17"/><path class="cls-3" d="M161.76,360.32a17,17,0,0,0,27.74-2.19,22,22,0,0,1,2.54-4.06,4,4,0,0,1,4.32-1.29,11.59,11.59,0,0,1,2.18,1.67c2.41,1.84,6,1.33,8.42-.54s3.71-4.79,4.51-7.71c.85-3.12,1.94-7.1,5.15-7.5,1.73-.21,3.72.77,5.1-.29a3.88,3.88,0,0,0,1.17-2.21,23.77,23.77,0,0,0-1-14.69"/><path class="cls-3" d="M110.58,407a19.56,19.56,0,0,0,34.19-3.51,8.18,8.18,0,0,1,1.12-2.18,4.75,4.75,0,0,1,4.36-1.35c4.19.63,7.8,4.79,11.9,3.71,3.92-1,5.28-6.21,8.93-8,3.45-1.7,7.47.2,11.2,1.16s9-.11,9.32-3.94"/><path class="cls-2" d="M124.37,387.45c-.27-1.68,1.49-3,3.1-3.54a15.5,15.5,0,0,1,13.6,1.79,2.46,2.46,0,0,0,4.22-.5A16.37,16.37,0,0,1,166,381.87"/><path class="cls-3" d="M188.3,448.87c4.53-11,18.13-17.2,29.39-13.49,2.09.69,4.15,1.69,6.36,1.72,4.69.07,8.22-4.06,11.09-7.77a4.24,4.24,0,0,1,2.07-1.73c1.31-.35,2.57.58,3.7,1.34a20.05,20.05,0,0,0,22.61-.48c3.75-2.79,6.79-7.06,11.39-7.85,8.15-1.4,14.38,8.91,22.63,8.66,5.48-.16,10-5,15.51-5,5.8,0,12.1,5.25,16.71,1.73"/><path class="cls-4" d="M288.52,395a15.3,15.3,0,0,0,15-2.21c2.69-2.17,4.56-5.21,7.22-7.42a15.93,15.93,0,0,1,15.2-2.7c2.23.8,4.27,2.09,6.55,2.76,6.24,1.83,13.08-1.55,17.16-6.61s6-11.5,7.64-17.79a37.19,37.19,0,0,1,11.79-1.28,15.21,15.21,0,0,0,.7-6.66"/><path class="cls-3" d="M237.56,369.91c6.74,2.87,15.37,4.53,20.71-.49,3.48-3.28,4.93-8.95,9.47-10.47,5.52-1.84,12.51,3.75,16.89-.09,3.07-2.69,2.11-8.21,5.23-10.86,5.51-4.68,15.55,5.11,20.49-.17,2.26-2.4,1.54-6.49,3.54-9.1,1.44-1.87,3.94-2.54,6.28-2.87,4.4-.6,9.05-.43,13-2.41s6.8-7.3,4.25-10.93l5.38-2"/><path class="cls-2" d="M240.44,342.25a24,24,0,0,0,11-7,19,19,0,0,0,5,4.32,6.45,6.45,0,0,0,6.35,0c2.85-1.87,3.11-6.32,6-8.11,2.54-1.57,5.82-.38,8.54.83"/><path class="cls-2" d="M215.5,380v16.25a4.32,4.32,0,0,0,.89,3.22,3.44,3.44,0,0,0,2.07.77c3.54.36,6.93-1.35,10.09-3l1.12,7.82a3,3,0,0,0,3.68,3.35l8.43-.14"/></g><g id="Layer_12" data-name="Layer 12"><g class="cls-5"><path class="cls-6" d="M8.24,79.7C6.1,81,20,118.21,51.82,161.9c36.42,50,54.85,51.5,59.42,79.8,3.56,22.08-6.64,27.47-16,80-5.6,31.43-5.83,51.23-7,65-8.06,94.77-84.78,184.14-85,184s60.87-59.69,89-163c20-73.27,5.25-102.1,36-139,21.54-25.85,41.54-27,123-59,94.71-37.15,149.89-67.79,149-70-1.85-4.59-241.55,126.46-302,62-42.65-45.47,15-176.45,9-178-5-1.3-24.85,95.67-57,97C28.48,121.6,10.57,78.29,8.24,79.7Z"/></g><g class="cls-5"><path class="cls-6" d="M263,390.09c-.68-1.13-20.37,6.21-43.48,23.06-26.43,19.26-27.24,29-42.21,31.43-11.68,1.88-14.53-3.51-42.32-8.47-16.62-3-27.1-3.08-34.38-3.7-50.13-4.26-97.41-44.85-97.33-45s31.57,32.2,86.22,47.08c38.76,10.55,54,2.77,73.53,19,13.67,11.4,14.3,22,31.21,65.06,19.65,50.1,35.86,79.29,37,78.82,2.42-1-66.9-127.77-32.8-159.75,24.05-22.56,93.34,7.92,94.16,4.76.68-2.64-50.61-13.15-51.31-30.15C240.88,400.8,263.79,391.33,263,390.09Z"/></g><g class="cls-5"><path class="cls-6" d="M368.43,105.7c-.73-1.16-21.7,6.34-46.32,23.54-28.16,19.67-29,29.62-45,32.09-12.45,1.93-15.49-3.58-45.09-8.64-17.71-3-28.87-3.15-36.63-3.78C142,144.56,91.65,103.12,91.72,103s33.64,32.88,91.87,48.07c41.29,10.77,57.53,2.83,78.33,19.44C276.49,182.15,277.16,193,295.17,237c20.94,51.15,38.21,80.95,39.45,80.47,2.59-1-71.27-130.46-34.94-163.11,25.63-23,99.44,8.09,100.31,4.86.73-2.7-53.91-13.42-54.66-30.78C344.82,116.63,369.23,107,368.43,105.7Z"/></g><g class="cls-5"><path class="cls-6" d="M390.79,275.63c-.42-.7-12.55,3.83-26.8,14.21-16.29,11.87-16.78,17.88-26,19.37-7.2,1.16-9-2.16-26.08-5.22a177.66,177.66,0,0,0-21.19-2.28c-30.9-2.63-60-27.64-60-27.71s19.46,19.84,53.14,29c23.89,6.51,33.29,1.72,45.32,11.74,8.43,7,8.82,13.54,19.23,40.1,12.11,30.87,22.1,48.86,22.82,48.57,1.5-.6-41.22-78.74-20.21-98.45,14.83-13.9,57.52,4.88,58,2.93.42-1.62-31.19-8.1-31.62-18.58C377.13,282.23,391.25,276.39,390.79,275.63Z"/></g><g class="cls-5"><path class="cls-6" d="M269.44,268.45c-.68-1.14-20.37,6.21-43.48,23.05-26.44,19.26-27.24,29-42.21,31.43-11.68,1.88-14.54-3.51-42.32-8.46-16.62-3-27.1-3.09-34.39-3.71-50.13-4.26-97.4-44.84-97.33-45S41.29,298,95.94,312.88c38.75,10.55,54,2.78,73.52,19,13.68,11.4,14.31,22,31.21,65.07,19.66,50.1,35.87,79.29,37,78.81,2.43-1-66.89-127.77-32.79-159.75,24.05-22.56,93.33,7.92,94.15,4.76.69-2.64-50.6-13.14-51.31-30.15C247.28,279.15,270.19,269.68,269.44,268.45Z"/></g></g><g id="Layer_13" data-name="Layer 13"><g class="cls-7"><rect width="400" height="600"/></g><path class="cls-8" d="M51.45,132.7,48.8,100.07,46.15,132.7H39.32L34.37,94h5.1l2.91,33.5L45.79,94h6.12l3.42,33.5L58.24,94H63l-5,38.75Z"/><path class="cls-8" d="M70.07,111.13h5.15V94h4.89V132.7H75.22V115.42H70.07V132.7h-4.9V94h4.9Z"/><path class="cls-8" d="M88.12,122.71l-1,10H82.26L86.9,94h7l4.74,38.75h-5.1l-1-10ZM90.37,99l-1.89,19.54h3.77Z"/><path class="cls-8" d="M106.58,98V132.7h-4.89V98H97.05V94h14.17V98Z"/><path class="cls-8" d="M194.6,98V132.7h-4.89V98h-4.64V94h14.17V98Z"/><path class="cls-8" d="M215.67,129.64l-3.06,3.06h-8.52L201,129.64V97L204.09,94h8.52L215.67,97ZM207,98.13l-1,1V127.5l1,1h2.8l1-1V99.15l-1-1Z"/><path class="cls-8" d="M218.73,97,221.79,94h8L232.85,97v8.21H228V99.15l-1-1h-2.3l-1,1V127.5l1,1h2.3l1-1V116.89h-2.45v-4.38h7.34v17.13l-3.06,3.06h-8l-3.06-3.06Z"/><path class="cls-8" d="M236,94h12.09v4.18h-7.19V111h6.27v4.18h-6.27v13.36h7.29v4.18H236Z"/><path class="cls-8" d="M259.07,98V132.7h-4.9V98h-4.64V94h14.18V98Z"/><path class="cls-8" d="M270.75,111.13h5.15V94h4.89V132.7H275.9V115.42h-5.15V132.7h-4.9V94h4.9Z"/><path class="cls-8" d="M284.16,94h12.08v4.18h-7.19V111h6.28v4.18h-6.28v13.36h7.3v4.18H284.16Z"/><path class="cls-8" d="M299,94h11.32L313.33,97v16.11l-2.7,2.7,3.06,16.88h-4.75l-3-16.52h-2.09V132.7H299Zm9.48,17.23V99.05l-1-1h-3.57V112.2h3.57Z"/><path class="cls-8" d="M252.26,151.85v34.68h-4.9V151.85h-4.64v-4.08H256.9v4.08Z"/><path class="cls-8" d="M273.32,183.47l-3.06,3.06h-8.51l-3.06-3.06V150.83l3.06-3.06h8.51l3.06,3.06ZM264.6,152l-1,1v28.35l1,1h2.81l1-1V153l-1-1Z"/><path class="cls-8" d="M276.38,150.83l3.06-3.06h8l3.06,3.06V159h-4.9V153l-1-1H282.3l-1,1v28.35l1,1h2.29l1-1v-10.6h-2.45v-4.39h7.35v17.14l-3.06,3.06h-8l-3.06-3.06Z"/><path class="cls-8" d="M293.62,147.77h12.09V152h-7.2V164.8h6.28V169h-6.28v13.36h7.3v4.19H293.62Z"/><path class="cls-8" d="M316.72,151.85v34.68h-4.89V151.85h-4.64v-4.08h14.17v4.08Z"/><path class="cls-8" d="M328.4,165h5.15V147.77h4.9v38.76h-4.9V169.24H328.4v17.29h-4.9V147.77h4.9Z"/><path class="cls-8" d="M341.81,147.77H353.9V152h-7.19V164.8H353V169h-6.27v13.36H354v4.19H341.81Z"/><path class="cls-8" d="M356.6,147.77h11.32l3.06,3.06v16.11l-2.7,2.71,3.06,16.88H366.6l-3-16.53H361.5v16.53h-4.9ZM366.09,165V152.87l-1-1H361.5V166h3.57Z"/><path class="cls-8" d="M141.08,118a2.64,2.64,0,0,1-.18.63,12.15,12.15,0,0,0-.35,1.25,8.5,8.5,0,0,0-.16,1c0,.42-.09.87-.13,1.34s-.08.95-.1,1.42,0,.91-.07,1.3a14.64,14.64,0,0,0,0,1.54,6.38,6.38,0,0,1,0,1.23,1,1,0,0,1-.18.5,1.71,1.71,0,0,1-.36.35,1.91,1.91,0,0,1-.45.23,1.35,1.35,0,0,1-.43.08.49.49,0,0,1-.52-.33,1.07,1.07,0,0,1-.1-.69c0-.38.07-.76.1-1.16s0-.78.1-1.15.09-.83.16-1.49.12-1.35.17-2.08q.06-.75.09-1.47c0-.47.06-.89.1-1.27l-1.52.19-1.94.21c-.53.07-1,.12-1.44.16l-1.27.14-1.27.1-1.43.06c-.44,0-.83,0-1.16,0l-1.05,0c-.09.71-.24,1.63-.43,2.77s-.39,2.35-.56,3.6-.4,2.64-.6,3.88a23.73,23.73,0,0,0-.33,3,1,1,0,0,0,.35.36c.12.07.18.22.18.46a20.14,20.14,0,0,1-.13,2.07c-.09.75-.18,1.34-.27,1.76s-.13.87-.19,1.22a6.21,6.21,0,0,1-.25.93,1.45,1.45,0,0,1-.42.61,1.19,1.19,0,0,1-.69.24,1,1,0,0,1-.76-.26.73.73,0,0,1-.26-.69c.07-.31.13-.65.2-1s.13-.86.19-1.5.09-1,.12-1.49.06-1,.08-1.41,0-.83.07-1.16,0-.56.06-.69l.93-6.21c.2-1.29.38-2.52.56-3.66s.32-2.13.43-3a1.29,1.29,0,0,1-.66.07,1.66,1.66,0,0,0-.56-.07,5,5,0,0,0-.58,0,1.44,1.44,0,0,1-.54,0,1.25,1.25,0,0,1-.7-.43,1,1,0,0,1-.26-.59.77.77,0,0,1,.3-.66,1.42,1.42,0,0,1,.72-.3.77.77,0,0,1,.38,0l.28.1.33.09a1.94,1.94,0,0,0,.53,0h.5a1.9,1.9,0,0,1,.46.07c.06-.29.13-.67.21-1.15s.19-1,.33-1.64a17.82,17.82,0,0,1,.56-1.88,11.22,11.22,0,0,1,.88-1.9,8,8,0,0,1,2.72-3,6.53,6.53,0,0,1,3.48-1,4.86,4.86,0,0,1,2,.4,8.26,8.26,0,0,1,1.76,1,2.33,2.33,0,0,1,.43.48,6.51,6.51,0,0,1,.43.64,6.44,6.44,0,0,1,.33.63,1.2,1.2,0,0,1,.13.46,1.1,1.1,0,0,1-.21.68.79.79,0,0,1-.68.28c-.31,0-.58-.21-.82-.63s-.51-.84-.8-1.28a2.88,2.88,0,0,0-2.54-1,5.1,5.1,0,0,0-2.77.69,5.81,5.81,0,0,0-1.88,2.08,8,8,0,0,0-.89,1.86,14.66,14.66,0,0,0-.5,2,5.67,5.67,0,0,1-.23,1.16,2.4,2.4,0,0,0-.1,1,6.11,6.11,0,0,0,1,.12h1.4l.53,0c.22,0,.52,0,.89-.07l1.78-.1a15.11,15.11,0,0,0,1.78-.2,17.26,17.26,0,0,0,1.85-.41c.6-.16,1.05-.3,1.36-.41s.43-.43.64-.63a.93.93,0,0,1,.64-.3,1.89,1.89,0,0,1,.38,0,.91.91,0,0,1,.4.23,1.7,1.7,0,0,1,.31.52A2.49,2.49,0,0,1,141.08,118Z"/><path class="cls-8" d="M155.14,118.28a1,1,0,0,1-.76.57.78.78,0,0,1-.28,0l-.25-.14a1.83,1.83,0,0,0-.28-.14,1.22,1.22,0,0,0-.41-.1,1.8,1.8,0,0,0-.84.14,9.27,9.27,0,0,0-1,.45,9.51,9.51,0,0,0-1,.59,5.91,5.91,0,0,0-.76.63,5.52,5.52,0,0,0-1.22,1.87c-.24.64-.47,1.39-.69,2.22a6,6,0,0,0-.22,1c0,.27-.06.52-.08.76s0,.46-.08.69a7.54,7.54,0,0,1-.18.77,2.7,2.7,0,0,1-.68,1.21,1.64,1.64,0,0,1-1,.21.39.39,0,0,1-.33-.21,1.75,1.75,0,0,1-.21-.5,2.75,2.75,0,0,1-.12-.61,2.9,2.9,0,0,1,0-.59,9.32,9.32,0,0,1,.15-1c.08-.42.15-.87.21-1.36s.13-1,.19-1.47a13.92,13.92,0,0,0,.08-1.4V120c0-.34,0-.67,0-1s0-.6,0-.84a3.52,3.52,0,0,0-.25-1.22,1,1,0,0,1-.11-.66,2.59,2.59,0,0,1,.26-.63.59.59,0,0,1,.53-.26,1,1,0,0,1,.79.63,5.58,5.58,0,0,1,.47,1.38,12.78,12.78,0,0,1,.21,1.69c0,.55,0,.94,0,1.18a9.16,9.16,0,0,0,1-.92,18.44,18.44,0,0,1,1.45-1.29,8.14,8.14,0,0,1,1.77-1,4,4,0,0,1,1.63-.31,2.46,2.46,0,0,1,.75.13,3.85,3.85,0,0,1,.74.33,1.33,1.33,0,0,1,.49.48A.5.5,0,0,1,155.14,118.28Z"/><path class="cls-8" d="M166.23,119.11a3.54,3.54,0,0,1-.91,1.78,6.26,6.26,0,0,1-2.72,1.72q-.72.26-1.59.48a11.73,11.73,0,0,1-2,.28h-.58l-.57,0a.53.53,0,0,0,0,.31.44.44,0,0,1,0,.28,3.87,3.87,0,0,0,.15,1.11,4.56,4.56,0,0,0,.55,1.34,3.62,3.62,0,0,0,1,1,2.85,2.85,0,0,0,1.27.42,3.62,3.62,0,0,0,1.09-.1c.42-.08.83-.18,1.22-.29l1.09-.3a2,2,0,0,1,.7-.1.44.44,0,0,1,.36.5c0,.19-.15.4-.45.62a4.11,4.11,0,0,1-1.13.58,8.29,8.29,0,0,1-1.56.38,7.33,7.33,0,0,1-1.68.07,4.06,4.06,0,0,1-3.6-2.25,5.86,5.86,0,0,1-.56-1.8,8.59,8.59,0,0,1-.1-1.93,7.87,7.87,0,0,1,.86-3.13,9.12,9.12,0,0,1,1.92-2.44,7.17,7.17,0,0,1,2.22-1.41,5.35,5.35,0,0,1,1.93-.34,3.29,3.29,0,0,1,2.18.84,2.91,2.91,0,0,1,.74,1A2.57,2.57,0,0,1,166.23,119.11Zm-1.68-.26a1.31,1.31,0,0,0-.1-.66,1.33,1.33,0,0,0-.33-.43,1.34,1.34,0,0,0-.43-.25,1.28,1.28,0,0,0-.46-.08,3,3,0,0,0-1.57.29,5.2,5.2,0,0,0-1.4,1,8.49,8.49,0,0,0-.73.82c-.24.31-.47.62-.68.91a6.75,6.75,0,0,0-.51.84,2.52,2.52,0,0,0-.23.6,1.1,1.1,0,0,0,.51,0l.55-.08.77-.06c.23,0,.46,0,.68-.09a6.34,6.34,0,0,0,.68-.14,7.66,7.66,0,0,0,.8-.3,5.41,5.41,0,0,0,1.67-1A2.05,2.05,0,0,0,164.55,118.85Z"/><path class="cls-8" d="M177,125.64a3.13,3.13,0,0,1-.66,1.46,5.17,5.17,0,0,1-2.18,1.51,12.77,12.77,0,0,1-1.93.65,8.61,8.61,0,0,1-2.56.18,6,6,0,0,1-.82-.17,6.83,6.83,0,0,1-1.06-.33,4.34,4.34,0,0,1-.89-.44q-.36-.25-.36-.48a.87.87,0,0,1,.26-.66.67.67,0,0,1,.63-.2,5.24,5.24,0,0,1,1,.31,5,5,0,0,0,1.57.32,7,7,0,0,0,1.57-.07,7.26,7.26,0,0,0,1.86-.49,3.6,3.6,0,0,0,1.3-.76,1.9,1.9,0,0,0,.55-1.22,1.42,1.42,0,0,0-.28-.88,8.77,8.77,0,0,0-.75-1c-.28-.33-.58-.64-.89-.94s-.56-.56-.76-.78l-.72-.79a7.87,7.87,0,0,1-.74-.94,5.42,5.42,0,0,1-.58-1.09,2.57,2.57,0,0,1-.17-1.24,3.11,3.11,0,0,1,.42-1.22,4.54,4.54,0,0,1,1.07-1.28,5.84,5.84,0,0,1,1.65-1,4.42,4.42,0,0,1,2.14-.3,1.84,1.84,0,0,1,1.22.53,1.25,1.25,0,0,1,.4,1,1.8,1.8,0,0,1-.05.37,1,1,0,0,1-.15.34.73.73,0,0,1-.31.25,1,1,0,0,1-.55.07.33.33,0,0,1-.29-.14,1.17,1.17,0,0,1-.17-.29,1.4,1.4,0,0,0-.15-.3.48.48,0,0,0-.24-.2,2.09,2.09,0,0,0-.93.1,3.75,3.75,0,0,0-1,.51,4.34,4.34,0,0,0-.86.79,1.62,1.62,0,0,0-.39.91,1.32,1.32,0,0,0,.14.74,6.25,6.25,0,0,0,.45.78,8.39,8.39,0,0,0,.61.79c.23.27.46.51.68.73a8.79,8.79,0,0,0,.86.82,11.18,11.18,0,0,1,1,1,5.47,5.47,0,0,1,.82,1.31A3.28,3.28,0,0,1,177,125.64Z"/><path class="cls-8" d="M200.46,160.16c0,.14,0,.31-.06.53a.4.4,0,0,1-.3.4.33.33,0,0,1-.41-.1,2.38,2.38,0,0,0-.35-.36,15.72,15.72,0,0,0-1.22,1.37c-.37.47-.7.92-1,1.36a33.81,33.81,0,0,0-1.9,3.26c-.53,1.06-1.06,2.24-1.56,3.54-.44,1.12-.82,2.21-1.14,3.25s-.56,1.9-.71,2.56a10,10,0,0,1-.43,1.47c-.13.32-.25.63-.36.94a2.88,2.88,0,0,1-.53,1,1.22,1.22,0,0,1-1.09.32.74.74,0,0,1-.64-.5,4,4,0,0,1-.32-1.15,11.8,11.8,0,0,1-.1-1.5V175c0-.6,0-1.14,0-1.64s0-1,.06-1.58.05-1.19.09-1.9.07-1.55.11-2.54c0-.61,0-1.32.08-2.13a17.89,17.89,0,0,0,0-2.09,9.79,9.79,0,0,0-.63,1.09c-.24.46-.51,1-.79,1.56s-.57,1.2-.86,1.84-.57,1.26-.86,1.88-.66,1.43-.94,2.06-.53,1.24-.77,1.83-.5,1.21-.76,1.83-.58,1.32-.93,2.06-.59,1.24-.84,1.79-.49,1-.71,1.48c-.06.18-.14.37-.23.58a3.56,3.56,0,0,1-.31.58,2,2,0,0,1-.43.44.73.73,0,0,1-.58.12,1,1,0,0,1-.69-.46,3.06,3.06,0,0,1-.37-.86c-.08-.38-.17-.86-.26-1.45s-.16-1.25-.23-1.95-.13-1.45-.2-2.25-.11-1.57-.13-2.34-.06-1.81,0-2.74.05-1.8.08-2.62.06-1.58.08-2.26,0-1.26,0-1.72c0-.68-.08-1.2-.11-1.55s-.06-.61-.07-.77a2.05,2.05,0,0,0-.05-.37,1.4,1.4,0,0,1,0-.34.77.77,0,0,1,.28-.66.93.93,0,0,1,.74-.27c.29,0,.5.22.63.58a5.3,5.3,0,0,1,.24,1.49c0,.62,0,1.36,0,2.22s0,1.78-.06,2.77c0,1.21-.06,2.41,0,3.6s.06,2.36.1,3.5c0,.4.06.81.1,1.24s.09.84.13,1.25.11.79.18,1.16a9.58,9.58,0,0,0,.25.94,5.44,5.44,0,0,0,.93-1.42c.35-.71.73-1.53,1.13-2.48s.84-1.95,1.29-3,.9-2.08,1.34-3.05l1.4-2.95c.43-.92.82-1.72,1.17-2.43.2-.39.41-.81.64-1.24s.47-.82.71-1.18a6.81,6.81,0,0,1,.68-.88.85.85,0,0,1,.55-.33c.26,0,.47.25.64.69a6.59,6.59,0,0,1,.28,2v1c0,.35,0,.72,0,1.09s0,.74,0,1.11,0,.69,0,1c0,.73-.05,1.55-.1,2.48s-.09,1.84-.13,2.75S190,173.2,190,174a18.49,18.49,0,0,0,0,1.91c.22-.52.49-1.3.81-2.32s.76-2.23,1.31-3.62c.37-.92.79-1.91,1.27-3a26,26,0,0,1,1.56-3c.31-.51.69-1.07,1.13-1.7s.88-1.22,1.33-1.77a14.79,14.79,0,0,1,1.27-1.37q.6-.54.93-.51a.92.92,0,0,1,.72.35A2.51,2.51,0,0,1,200.46,160.16Z"/><path class="cls-8" d="M201.26,169.5a6.61,6.61,0,0,1-.15,1c-.1.5-.21,1.09-.33,1.76s-.24,1.39-.36,2.16a20.1,20.1,0,0,0-.25,2.25,16.21,16.21,0,0,0-.07,1.65c0,.61,0,1.1,0,1.45a1.71,1.71,0,0,1-.28,1,1.3,1.3,0,0,1-.74.37.52.52,0,0,1-.55-.16,1.71,1.71,0,0,1-.28-.59,3.85,3.85,0,0,1-.12-.78c0-.28,0-.51,0-.71,0-.64.1-1.39.16-2.24s.18-1.85.33-3c0-.2.08-.59.17-1.17s.21-1.19.36-1.82a9.44,9.44,0,0,1,.56-1.68c.22-.5.5-.75.83-.75a.62.62,0,0,1,.62.37A1.67,1.67,0,0,1,201.26,169.5Zm1.58-8.51a.66.66,0,0,1-.49.59,1.93,1.93,0,0,1-.93,0,1.16,1.16,0,0,1-.51-.3,5.16,5.16,0,0,1-.53-.6,5.41,5.41,0,0,1-.43-.67,1.34,1.34,0,0,1-.18-.58,2,2,0,0,1,.3-1,.76.76,0,0,1,1.22-.2,2.5,2.5,0,0,1,.26.38,6,6,0,0,1,.42.61c.12.21.24.44.38.68a2.3,2.3,0,0,0,.36.54A.62.62,0,0,1,202.84,161Z"/><path class="cls-8" d="M214.49,170.39a.93.93,0,0,1-.76.56.61.61,0,0,1-.28,0,1.2,1.2,0,0,1-.25-.13l-.28-.15a1.58,1.58,0,0,0-.41-.09,1.8,1.8,0,0,0-.84.14,7.7,7.7,0,0,0-1,.45,8.38,8.38,0,0,0-.95.59,5.91,5.91,0,0,0-.76.63,5.42,5.42,0,0,0-1.22,1.87c-.24.64-.48,1.39-.7,2.22a5.81,5.81,0,0,0-.21,1c0,.27-.06.52-.08.76s-.05.46-.09.69a4.42,4.42,0,0,1-.18.77,2.61,2.61,0,0,1-.67,1.21,1.64,1.64,0,0,1-1,.21.39.39,0,0,1-.33-.21,1.75,1.75,0,0,1-.21-.5,2.75,2.75,0,0,1-.12-.61,2.9,2.9,0,0,1,0-.59,9,9,0,0,1,.15-1c.08-.42.15-.87.21-1.36s.13-1,.19-1.47a13.92,13.92,0,0,0,.08-1.4v-1.8c0-.34,0-.67,0-1s0-.6-.05-.84a3.71,3.71,0,0,0-.25-1.22,1,1,0,0,1-.11-.66,2.25,2.25,0,0,1,.26-.63.59.59,0,0,1,.53-.26,1,1,0,0,1,.79.63,5.45,5.45,0,0,1,.46,1.38,12.63,12.63,0,0,1,.22,1.69c0,.55,0,.94,0,1.18a9.16,9.16,0,0,0,1-.92,18.44,18.44,0,0,1,1.45-1.29,7.34,7.34,0,0,1,1.77-1,4,4,0,0,1,1.63-.31,2.46,2.46,0,0,1,.75.13,3.85,3.85,0,0,1,.74.33,1.33,1.33,0,0,1,.49.48A.5.5,0,0,1,214.49,170.39Z"/><path class="cls-8" d="M225.58,171.22a3.57,3.57,0,0,1-.91,1.78,6.35,6.35,0,0,1-2.72,1.72c-.49.17-1,.33-1.59.47a10.75,10.75,0,0,1-2,.29h-.58l-.57,0a.53.53,0,0,0,0,.31.66.66,0,0,1,0,.28,3.91,3.91,0,0,0,.15,1.11,4.39,4.39,0,0,0,.55,1.33,3.36,3.36,0,0,0,1,1,2.75,2.75,0,0,0,1.27.43,3.64,3.64,0,0,0,1.09-.1c.42-.08.83-.18,1.22-.29l1.09-.3a1.93,1.93,0,0,1,.69-.1.44.44,0,0,1,.37.5c0,.19-.15.4-.45.62a4.18,4.18,0,0,1-1.14.58,8.18,8.18,0,0,1-1.55.38,7.33,7.33,0,0,1-1.68.07,4.06,4.06,0,0,1-3.6-2.25,5.86,5.86,0,0,1-.56-1.8,8.59,8.59,0,0,1-.1-1.93,7.87,7.87,0,0,1,.86-3.13,9.08,9.08,0,0,1,1.91-2.44,7,7,0,0,1,2.23-1.41,5.35,5.35,0,0,1,1.93-.34,3.29,3.29,0,0,1,2.18.84,2.91,2.91,0,0,1,.74,1A2.57,2.57,0,0,1,225.58,171.22Zm-1.69-.27a1.25,1.25,0,0,0-.09-.66,1.4,1.4,0,0,0-.33-.42,1.46,1.46,0,0,0-.43-.25,1.29,1.29,0,0,0-.47-.08,3,3,0,0,0-1.56.29,5.18,5.18,0,0,0-1.41,1,10,10,0,0,0-.72.82c-.24.31-.47.62-.68.91a6.75,6.75,0,0,0-.51.84,2.52,2.52,0,0,0-.23.6,1.1,1.1,0,0,0,.51,0l.55-.08.77-.06c.23,0,.46-.05.68-.09a4.27,4.27,0,0,0,.67-.15,5.8,5.8,0,0,0,.81-.29,5.41,5.41,0,0,0,1.67-1A2,2,0,0,0,223.89,171Z"/><path class="cls-8" d="M236.33,177.75a2.93,2.93,0,0,1-.65,1.45,5.09,5.09,0,0,1-2.18,1.52,13.16,13.16,0,0,1-1.93.65,8.61,8.61,0,0,1-2.56.18,6.42,6.42,0,0,1-.83-.17,10.59,10.59,0,0,1-1.05-.33,4.34,4.34,0,0,1-.89-.44c-.24-.17-.37-.33-.37-.48a.88.88,0,0,1,.27-.66.67.67,0,0,1,.63-.2,4.58,4.58,0,0,1,1,.31,4.9,4.9,0,0,0,1.57.32,6.85,6.85,0,0,0,1.56-.07,7.34,7.34,0,0,0,1.87-.49,3.6,3.6,0,0,0,1.3-.76,1.9,1.9,0,0,0,.55-1.22,1.49,1.49,0,0,0-.28-.88,8.77,8.77,0,0,0-.75-1c-.28-.33-.58-.64-.89-.94s-.56-.56-.76-.78l-.72-.79a7.66,7.66,0,0,1-.74-.94,5,5,0,0,1-.58-1.09,2.57,2.57,0,0,1-.17-1.24,2.91,2.91,0,0,1,.42-1.22,4.54,4.54,0,0,1,1.07-1.28,5.84,5.84,0,0,1,1.65-1,4.42,4.42,0,0,1,2.14-.3,1.84,1.84,0,0,1,1.22.53,1.24,1.24,0,0,1,.4,1.05,1.8,1.8,0,0,1,0,.37,1,1,0,0,1-.15.34.79.79,0,0,1-.31.25,1.06,1.06,0,0,1-.55.07.33.33,0,0,1-.29-.14.92.92,0,0,1-.17-.29,1.4,1.4,0,0,0-.15-.3.53.53,0,0,0-.24-.2,2.09,2.09,0,0,0-.93.1,3.75,3.75,0,0,0-1,.51,4.34,4.34,0,0,0-.86.79,1.71,1.71,0,0,0-.4.91,1.43,1.43,0,0,0,.15.74,5.21,5.21,0,0,0,.45.78,7,7,0,0,0,.61.79c.23.27.46.51.68.73a9.85,9.85,0,0,0,.85.82,10.13,10.13,0,0,1,1,1,5.47,5.47,0,0,1,.82,1.31A3.17,3.17,0,0,1,236.33,177.75Z"/><path class="cls-9" d="M178.49,161.81A29.07,29.07,0,0,0,159,155.33a2,2,0,0,1-1.27-.21,1.71,1.71,0,0,1-.59-1.05c-.68-2.77.52-5.74,2.44-7.87a24.87,24.87,0,0,1,7-4.89c2.48-1.33,5.32-3.15,5.35-6a7.54,7.54,0,0,0-.46-2.34c-.66-2.18-1.64-4.69-3.84-5.29"/><path class="cls-9" d="M142.35,108.72c-.58.06-.82.76-.92,1.33a.58.58,0,0,0,0,.45.63.63,0,0,0,.46.2l.73.08a1,1,0,0,0,.34,0,.69.69,0,0,0,.41-.6,1.2,1.2,0,0,0-.2-1,.67.67,0,0,0-.91-.16"/></g></svg>