<svg xmlns="http://www.w3.org/2000/svg" xmlns:xlink="http://www.w3.org/1999/xlink" width="400" height="600" viewBox="0 0 400 600"><defs><style>.cls-1{fill:#bf9b86;}.cls-2{fill:#dbcfbd;}.cls-3{fill:#b09879;}.cls-4{fill:#d8b4ab;}.cls-5{fill:#755b4e;}.cls-6{fill:#7e7871;}.cls-7{fill:#e5d2cc;}.cls-8{fill:#775447;}.cls-9{fill:#361a15;}.cls-10{fill:#8c4c38;}.cls-11{fill:#3d1f1a;}.cls-12{opacity:0.31;filter:url(#AI_Turbulence_5);}.cls-13{fill:#fff;}</style><filter id="AI_Turbulence_5" x="0" y="0" width="100%" height="100%" name="AI_Turbulence_5"><feTurbulence result="turb" baseFrequency="0.4" numOctaves="4" type="fractalNoise"/><feComposite operator="in" in="turb" in2="SourceAlpha"/></filter></defs><g id="Layer_24" data-name="Layer 24"><rect x="0.08" y="0.89" width="400" height="599"/></g><g id="Layer_25" data-name="Layer 25"><path class="cls-1" d="M146.23,599.89a34.28,34.28,0,0,1-5.59-18.54,29.53,29.53,0,0,1,.45-5.25c.94-5.32,3.25-8.92,6-20.34,4.45-18.53,1.16-20.66,5.36-29.08a33.89,33.89,0,0,0,3.23-12.79c.23-3.62-.34-3.73,0-8.14.42-5.61,1.46-7.19,1.07-11.63-.23-2.63-.65-2.61-1.07-5.82a39.92,39.92,0,0,1,0-10.46c.7-6.34-.17-28.47-5.37-44.2-8.6-26-27.27-29.28-24.7-44.2,1.19-6.89,6.55-14.18,3.22-20.93-.8-1.63-1.65-2.3-4.29-7-2.46-4.37-3.71-6.6-4.3-9.3-1-4.71.34-6.25-1.07-8.14-2.14-2.88-7.93-1.56-9.67-1.17-5.61,1.28-6.51,4.11-9.66,3.49-3-.59-2.66-3.21-7.52-7s-7.35-2.83-8.59-5.81c-1.13-2.75.58-4.53-1.07-8.14-.42-.92-1.45-3.17-3.22-3.49-1-.18-1.15.38-4.3,1.16-1.94.48-2.72.48-3.22,0s-.48-.92-1.07-1.16a1.52,1.52,0,0,0-1.08,0c-1.56.5-1.26,3-3.22,4.65a9.17,9.17,0,0,1-2.14,1.16A22.27,22.27,0,0,1,61.18,329c-2.19.66-5.35,2.78-5.37,4.65,0,2.37,5.1,4.17,6.45,4.65,7.1,2.51,12.18.39,14,3.49a13.63,13.63,0,0,1,1.07,3.49c.29,1.65.48,2.7,0,3.49-.81,1.33-2.81.73-4.29,1.16-4,1.17-5.06,10-5.37,12.79,0,0-1.65,14.49,4.29,33.73a63.53,63.53,0,0,1,2.15,8.14c.52,2.77.49,3.75,1.07,5.82a25.46,25.46,0,0,0,3.22,7c10.69,17,16,25.51,16.11,25.58a6.92,6.92,0,0,1,2.15,3.49c.35,1.59-.12,2.66-1.08,5.82,0,0-1.27,4.21-2.14,8.14-1,4.48-.39,3.88-1.08,5.82-1,2.86-2.42,4.36-3.22,8.14-.33,1.57-.26,2.14,0,2.32.73.5,2.93-2,3.22-2.32,1.87-2.14,2.35-3.79,4.3-8.14,2.06-4.6,2.16-4.2,3.22-7a67.4,67.4,0,0,0,2.15-7c1-3.78,1.11-4.82,1.07-5.82a15.28,15.28,0,0,0-1.07-4.65,44.35,44.35,0,0,0-3.22-7c-.6-1.1-.06-.16-4.3-9.3-4.66-10.05-4.64-9.72-5.37-11.63a60.87,60.87,0,0,1-3.22-11.63c-.32-1.95-.86-5.86,0-18.61.7-10.35,1.09-16.21,2.15-16.28s1.31,6.32,4.29,16.28c4.19,14,8.37,16.75,9.67,27.91.72,6.19-.51,5.86,0,11.63,1.76,20.2,17.14,26.15,15,37.22-1.62,8.49-9.66,5.23-19.33,19.77-3.22,4.85-10,15.09-11.81,27.92a33.6,33.6,0,0,1-3.22,11.63c-2.41,4.75-5,6.61-7.52,9.3-12.64,13.78-12.62,40.13-11.81,45.36a10,10,0,0,1,0,3.49c-.66,3.58-3.11,5.61-4.29,7-1.89,2.18-3.66,6.33-2.6,15H72.77a31.15,31.15,0,0,1-3-11.56,38.26,38.26,0,0,1,2.15-14c1.82-5.85,3.52-8,6.44-14,5.88-11.95,3.69-12.78,8.59-22.09,1.14-2.16.51-.7,11.82-17.45,5.27-7.81,7.9-11.71,8.59-12.79,6.38-10.07,6.22-11.27,8.59-12.8,7.34-4.74,20.58-.72,22.55,5.82,1.41,4.71-3.43,9.43-3.23,19.77,0,.82.07,1.86,0,3.49A43.62,43.62,0,0,1,133.13,536c-1.49,5-1.35,9.91-1.08,19.77.19,6.51.84,10.55,0,17.45A39.32,39.32,0,0,1,131,579c-1,3.63-3.61,8.29-4.3,10.47-.63,2-.69,5.22,2.32,10.4Z"/><path class="cls-2" d="M73,347.57A21.41,21.41,0,0,1,82.66,358c1.37,3.46,1.29,7.78,1.07,16.28-.3,11.86-1.29,12.75,0,16.29.79,2.14,3.4,5.33,8.59,11.63,5.43,6.58,5.78,6.46,6.45,8.14,2.14,5.45-.25,10.09-2.15,18.61-.59,2.63-1.11,8.73-2.15,20.93-1.71,20-.79,24-3.22,33.73a82.27,82.27,0,0,1-5.37,15.12,76.44,76.44,0,0,0,23.62,3.49c8.65-.12,13.63-1.73,32.22-4.65,6.79-1.07,12.39-1.84,16.1-2.33a131,131,0,0,0-1.07-43,175.13,175.13,0,0,0-16.11-46.52C135.23,396,130,389.62,129.91,379c0-5.62,1.36-9.67-1.08-15.12-2.05-4.6-4.87-5.79-9.66-11.63a61.88,61.88,0,0,1-7.52-11.63l-7.52,2.32a32.88,32.88,0,0,1,6.45,10.47,35.21,35.21,0,0,1,2.15,9.3,80.13,80.13,0,0,0-11.82-8.14,76.48,76.48,0,0,0-21.47-8.14Z"/><path class="cls-3" d="M55.82,331.29c-3.1,3.09-4.64,4.63-5.37,5.82-2.22,3.59-1.6,4.63-3.23,5.81s-2.9.34-5.36,1.17c-3.52,1.18-3.23,3.79-6.45,5.81-1.93,1.22-5.59,1.18-12.88,1.16-3.79,0-5.7-.16-6.44,1.17-.95,1.67.53,4.72,1.07,4.65s-.09-2.48,1.07-3.49c1.88-1.63,7.48,1.08,7.52,3.49,0,1.7-2.74,2.14-6,7.45-.12.2-.25.41-.41.69-2.85,5-2.65,10.35-2.15,10.47s.48-3.59,3.22-5.82c1.29-1.05,3.66-2.16,5.37-1.16,2.07,1.21,2.12,4.86,2.15,7,.06,4.59-1.53,7.91-1.08,8.14s1.88-4.78,5.37-5.82c2.41-.71,3.14,1.29,6.44,1.17s3.83-2.22,8.59-3.49c2.05-.55,5.46-1.47,6.45,0,1.41,2.12-2.62,8.59-4.3,8.14-.66-.18-1-1.46-1.07-2.33-.1-1.95,1.34-3.17,1.07-3.49s-2.44.51-3.22,2.33a6.32,6.32,0,0,0,2.15,7c4.55,2.85,15.92-4.8,16.11-11.63,0-2-.83-3.83,0-7,.5-1.94,1.11-2.27,2.14-4.65,1.94-4.47.65-5.24,2.15-8.14,2.22-4.3,7.23-6.84,7.52-7,1.57-.78,2.9-1.11,3.22-2.33.39-1.49-1.25-2.44-1.08-4.65.16-1.91,1.45-2.54,1.08-3.49-.55-1.42-3.88-1.19-4.3-1.16-3.24.22-4.58,1.89-5.37,1.16-1-.88-.12-4.34,1.08-4.65a1.37,1.37,0,0,1,.63,0c1,.22,1.39,1.22,1.52,1.14a2.74,2.74,0,0,0-1.08-2.32,2.83,2.83,0,0,0-3.22,0c-1.55,1.06-1.23,3.35-2.15,3.48s-1.94-1.92-2.14-2.32c-.72-1.39-.54-2.07-1.08-2.33-1-.45-2,1.52-3.22,1.17C59,332.14,59,330.39,58,330.13,57.19,329.94,56.43,330.68,55.82,331.29Z"/></g><g id="Layer_27" data-name="Layer 27"><path class="cls-4" d="M271.08,599.89c-2.26-8.44-2.8-14.9-2.61-16.81a30.84,30.84,0,0,1,.58-3.56c.13-.58.28-1.14.45-1.71,1.58-5.28,4.5-8.66,8.7-19.92,6.81-18.26,3.42-20.79,8.91-28.84A32.38,32.38,0,0,0,292,516.46c.64-3.64,0-3.81.85-8.24,1.05-5.63,2.36-7.11,2.39-11.66,0-2.69-.44-2.72-.57-6a37.59,37.59,0,0,1,1.09-10.6c1.43-6.33,2.77-28.84-1.3-45.36-6.72-27.32-26.86-32.72-22.49-47.54,2-6.85,8.66-13.63,5.71-20.84-.71-1.74-1.57-2.51-4-7.55-2.25-4.7-3.38-7.1-3.74-9.9-.65-4.89,1-6.29-.34-8.37-2-3.15-8.53-2.47-10.47-2.26-6.3.66-7.57,3.42-11,2.44a4.5,4.5,0,0,1-1.34-.62,19.78,19.78,0,0,1-6.18-7.29c-4.5-8.09-6.65-7.47-6.6-10.59.07-3.81,3.26-4.6,2.91-8.75-.25-2.95-2-3.89-1.37-6.17.7-2.74,3.63-3.19,3.49-4.67-.17-1.79-4.53-1.7-8.64-3.9-7-3.73-5.23-9.73-10.82-12.17s-13.41,1.13-17.62,5.22a18.51,18.51,0,0,0-3.5,4.67c-5.08,10-.49,27.2,9.3,31.79,5.48,2.57,13.29,1.71,14.95,5.11a12.84,12.84,0,0,1,.81,3.65c.15,1.7.24,2.79-.36,3.54-1,1.25-3.17.42-4.83.69-4.48.73-6.59,9.58-7.22,12.35,0,0-3.31,14.49,1.2,34.64a62.07,62.07,0,0,1,1.51,8.49s.35,3.11.57,6c.77,10.22.55,17.07.55,17.07a83.44,83.44,0,0,1-4.64,25.66c-2.4,6.72-4.81,10.46-4.83,17.6,0,4.79,1.07,9.23,2.07,9.26,1.81.05,3-14.53,5.51-14.51,1.2,0,1.63,3.35,2.68,3.29,1.44-.08,1.69-6.51,3.62-15.71.82-3.91,1.66-6.85,3.32-12.73,3.6-12.7,3.92-10.51,4.52-14.62.84-5.82.45-12.09-.18-22.34,0-.69,0-.62-.05-.91-.1-2.31,0-6.8,2-17.93,1.84-10.41,2.88-16.29,4.05-16.25s.78,6.55,3,17c3.14,14.62,7.43,17.91,7.69,29.36.15,6.35-1.16,5.87-1.21,11.78-.16,20.65,16.09,28.4,12.62,39.38-2.66,8.41-11.13,4.2-23.26,17.84-4,4.55-12.57,14.15-15.86,26.94a32,32,0,0,1-4.74,11.41c-3.14,4.54-6.22,6.13-9.21,8.58-15.3,12.52-18,39.21-17.67,44.6a9.35,9.35,0,0,1-.37,3.53c-1.19,3.88-4.57,6-5.43,6.59-2.94,2.05-6,7.65-6.52,23.47l20-1A42.62,42.62,0,0,1,190,582.16a45.67,45.67,0,0,1,3.81-13.89c2.6-5.72,4.69-7.71,8.52-13.41,7.68-11.45,5.37-12.53,11.72-21.41,1.47-2.06.62-.64,14.77-16.34,6.59-7.31,9.88-11,10.75-12,8-9.48,8-10.71,10.75-12,8.55-4,22.66,1.59,24.13,8.43,1.06,4.93-4.74,9.16-5.59,19.66-.07.83-.12,1.9-.36,3.53a41.39,41.39,0,0,1-3.57,11.54c-2.15,4.88-2.51,9.89-3.23,19.9-.48,6.61-.18,10.78-1.82,17.67a35.5,35.5,0,0,1-1.78,5.76c-1.5,3.56-4.82,8-5.8,10.12-.9,2-1.31,5.21,1.46,10.79Z"/><path class="cls-5" d="M225.37,289l-8.68,6.15c-4.56-1.92-5.67-1.93-5.86-1.61-.36.59,2.59,2.11,2.57,4.28,0,2.34-3.44,3.05-5.59,5.46-4.38,4.94-3,16.61,2.83,21.4,5,4.06,9.94.53,13.62,4.42,3.9,4.12,3.49,13.52-.94,19-5.21,6.43-11.36,1.8-29.08,9.08-3.33,1.36-8,3.54-9.26,2.06-1.48-1.77,3.72-6.74,2-9.85s-8.17,0-11.73-3.21c-5.33-4.84.7-19.6,2.45-23.88,3.49-8.52,6.45-7.81,12-18.87,3.49-6.95,3.17-8.57,6.31-12.42,2.35-2.89,7.87-9.66,16-9.41C219.47,281.84,224.33,287.69,225.37,289Z"/><path class="cls-6" d="M263.75,336.18c-4.47,1-4.65,5.49-9.88,8-.94.46-3.42,1.52-10.15,1-14.42-1.18-17.47-7.48-25.55-5.64-1.08.24-8.41,2-12,8.82-2.71,5.19,3.18,9.68,1.15,18.21-.86,3.59-2,4-1.61,5.87,1.5,7.36,20.42,11.74,24.46,6.53,1.44-1.85.9-4.82,1.5-4.87s1.26,3.46,2.27,7.27c2.31,8.68,4.4,9.74,5.43,15.64.74,4.19.08,5.9-.13,11-.59,15,3.9,28.65,5.58,33.75,2.82,8.54,4.69,10.48,3.55,14.44-1.71,5.89-7.69,7.91-13.27,11.7-6.14,4.19-13.49,11.68-18.77,26.22A234.39,234.39,0,0,0,301.57,516c5.22-40,1-63-4.17-76.83-6-15.91-6.32-16.74-6.32-16.74-9.92-23.94-16.41-30.35-13.92-40.63,1.6-6.61,5.26-8,4.41-13.62-1.07-7-7.39-8.18-8.41-15.95-.78-5.88,2.43-8.43.23-12A9.64,9.64,0,0,0,263.75,336.18Z"/></g><g id="Layer_26" data-name="Layer 26"><path class="cls-7" d="M240.2,600.48a33,33,0,0,0,6.16-18.88,27.75,27.75,0,0,0-.49-5.34c-1-5.42-3.58-9.08-6.61-20.71-4.91-18.86-1.28-21-5.92-29.59a32.53,32.53,0,0,1-3.55-13c-.26-3.69.36-3.79,0-8.29-.47-5.7-1.62-7.31-1.19-11.84.26-2.67.72-2.66,1.19-5.92a38.23,38.23,0,0,0,0-10.65c-.78-6.45.19-29,5.92-45,9.48-26.5,30.06-29.81,27.23-45-1.31-7-7.22-14.45-3.55-21.31.88-1.66,1.82-2.34,4.73-7.11,2.72-4.44,4.09-6.72,4.74-9.47,1.14-4.8-.37-6.36,1.18-8.29,2.36-2.92,8.74-1.58,10.66-1.18,6.19,1.3,7.18,4.18,10.65,3.55,3.29-.6,2.94-3.27,8.29-7.1s8.11-2.89,9.47-5.92c1.26-2.8-.64-4.61,1.19-8.29.46-.93,1.59-3.22,3.55-3.55,1-.18,1.26.39,4.74,1.18,2.14.49,3,.49,3.55,0s.53-.94,1.18-1.18a1.84,1.84,0,0,1,1.19,0c1.72.51,1.39,3,3.55,4.73a10.83,10.83,0,0,0,2.37,1.19,23.38,23.38,0,0,0,3.55,1.18c2.42.67,5.9,2.84,5.92,4.74,0,2.41-5.62,4.25-7.11,4.73-7.83,2.55-13.43.4-15.39,3.55a12.76,12.76,0,0,0-1.18,3.56c-.32,1.67-.53,2.75,0,3.55.89,1.35,3.1.74,4.73,1.18,4.38,1.19,5.58,10.2,5.92,13,0,0,1.82,14.75-4.73,34.33a61,61,0,0,0-2.37,8.29c-.57,2.82-.55,3.82-1.18,5.92a25,25,0,0,1-3.56,7.1c-11.78,17.32-17.67,26-17.76,26a7,7,0,0,0-2.36,3.55c-.39,1.62.13,2.71,1.18,5.92,0,0,1.41,4.29,2.37,8.29,1.09,4.56.42,3.95,1.18,5.92,1.13,2.91,2.67,4.45,3.55,8.29.37,1.6.3,2.18,0,2.36-.8.51-3.23-2-3.55-2.36-2.06-2.18-2.59-3.86-4.73-8.29-2.27-4.68-2.39-4.27-3.56-7.1a64.82,64.82,0,0,1-2.36-7.11c-1.14-3.85-1.23-4.91-1.19-5.92a14.63,14.63,0,0,1,1.19-4.73,42.49,42.49,0,0,1,3.55-7.11c.66-1.12.06-.17,4.73-9.47,5.15-10.23,5.12-9.9,5.92-11.84a58.21,58.21,0,0,0,3.56-11.84c.35-2,.94-6,0-18.94-.77-10.54-1.21-16.5-2.37-16.58s-1.45,6.44-4.74,16.58c-4.62,14.22-9.22,17.05-10.65,28.41-.8,6.3.55,6,0,11.84-1.95,20.57-18.91,26.62-16.58,37.89,1.78,8.64,10.65,5.32,21.31,20.13,3.56,4.93,11.07,15.36,13,28.41a31.88,31.88,0,0,0,3.55,11.84c2.66,4.84,5.56,6.73,8.29,9.47,13.94,14,13.91,40.85,13,46.18a9.41,9.41,0,0,0,0,3.55c.72,3.65,3.43,5.71,4.74,7.1,2.08,2.22,4,6.45,2.85,15.33h-18a29.65,29.65,0,0,0,3.31-11.77,36.26,36.26,0,0,0-2.37-14.21c-2-6-3.88-8.15-7.11-14.21-6.47-12.17-4.07-13-9.47-22.49-1.25-2.2-.55-.71-13-17.76-5.81-7.95-8.72-11.93-9.47-13-7-10.24-6.87-11.47-9.47-13-8.1-4.83-22.71-.74-24.87,5.92-1.56,4.8,3.78,9.6,3.55,20.13,0,.83-.07,1.89,0,3.55a41.63,41.63,0,0,0,2.37,11.84c1.65,5.07,1.49,10.09,1.19,20.12-.21,6.63-.93,10.74,0,17.76a36.14,36.14,0,0,0,1.18,5.92c1.12,3.7,4,8.44,4.74,10.66.69,2,.76,5.32-2.56,10.59Z"/><path class="cls-8" d="M321,343.62c-4.26,2.25-8.48,5.62-10.65,10.66-1.52,3.52-1.43,7.92-1.19,16.58.34,12.06,1.43,13,0,16.57-.86,2.18-3.74,5.43-9.47,11.84-6,6.7-6.37,6.58-7.1,8.29-2.36,5.55.27,10.27,2.37,18.94.64,2.68,1.22,8.89,2.36,21.31,1.89,20.38.88,24.4,3.56,34.34a79.3,79.3,0,0,0,5.92,15.39,91,91,0,0,1-26.05,3.55c-9.53-.12-15-1.76-35.52-4.73-7.5-1.09-13.67-1.87-17.76-2.37a123.59,123.59,0,0,1,1.18-43.81,170.29,170.29,0,0,1,17.76-47.36c6-9.92,11.74-16.39,11.84-27.23.06-5.72-1.5-9.84,1.19-15.39,2.26-4.68,5.37-5.89,10.65-11.84a62.65,62.65,0,0,0,8.29-11.84l8.29,2.37A32.92,32.92,0,0,0,277.15,359a87.37,87.37,0,0,1,13-8.29,88.6,88.6,0,0,1,23.68-8.29Z"/><path class="cls-9" d="M339.9,327.05c3.41,3.14,5.11,4.71,5.92,5.92,2.44,3.65,1.76,4.72,3.55,5.92,1.95,1.3,3.2.34,5.92,1.18,3.88,1.2,3.55,3.86,7.1,5.92,2.13,1.24,6.17,1.2,14.21,1.19,4.18,0,6.28-.17,7.1,1.18,1,1.71-.58,4.81-1.18,4.74s.1-2.53-1.18-3.56c-2.08-1.65-8.24,1.1-8.29,3.56,0,1.73,3,2.18,6.65,7.58.13.2.27.41.45.7,3.14,5.09,2.92,10.54,2.37,10.66s-.53-3.65-3.55-5.92c-1.43-1.07-4-2.2-5.92-1.18-2.28,1.23-2.34,4.95-2.37,7.1-.07,4.68,1.68,8.06,1.18,8.29s-2.07-4.86-5.92-5.92c-2.65-.73-3.46,1.3-7.1,1.18s-4.22-2.25-9.47-3.55c-2.25-.56-6-1.5-7.1,0-1.57,2.16,2.88,8.75,4.73,8.29.73-.19,1.13-1.49,1.18-2.37.12-2-1.48-3.23-1.18-3.55s2.69.52,3.55,2.37c1.05,2.24-.16,5.83-2.37,7.1-5,2.9-17.55-4.89-17.75-11.84-.06-2,.9-3.9,0-7.1-.56-2-1.23-2.32-2.37-4.74-2.14-4.55-.71-5.33-2.37-8.29-2.45-4.37-8-7-8.29-7.1-1.73-.79-3.2-1.13-3.55-2.37-.43-1.52,1.38-2.48,1.18-4.74-.17-1.94-1.59-2.58-1.18-3.55.61-1.45,4.27-1.21,4.74-1.18,3.57.23,5,1.92,5.92,1.18,1.05-.89.13-4.41-1.19-4.73a1.64,1.64,0,0,0-.69,0c-1.08.23-1.54,1.24-1.68,1.16a2.71,2.71,0,0,1,1.19-2.37,3.39,3.39,0,0,1,3.55,0c1.71,1.09,1.36,3.42,2.37,3.55s2.14-1.95,2.37-2.36c.78-1.42.59-2.11,1.18-2.37,1.06-.46,2.18,1.55,3.55,1.18,1.21-.32,1.19-2.1,2.37-2.37C338.39,325.67,339.22,326.43,339.9,327.05Z"/><path class="cls-7" d="M156.31,402.71c12.09,10.34,18.2,15.62,21.32,21.32,2.56,4.68,3.29,9.43,4.73,19a91.21,91.21,0,0,1,1.19,20.13c-1,15.56-6.29,16.3-8.29,32-1.89,14.8,2.45,16.93-1.19,26.06-4.63,11.61-12.11,9.24-16.57,20.13-3.13,7.63-.6,11.32-1.19,35.52-.19,7.93-.16,11-2.37,14.21-.94,1.36-2.78,3.45-2.37,5.93a6,6,0,0,0,2.37,3.55h17.77A25.86,25.86,0,0,1,167,588.64c-1.08-9.11,3.58-16.52,5.92-20.14,19-29.39,32.68-43.32,40.26-62.76,3.32-8.49,4.18-15.14,5.93-28.42,2.7-20.57,6.38-48.63-5.93-75.79-10.15-22.41-19.34-18-23.68-36.71-3.46-14.88-3.28-41.94-8.29-48.56-.36-.48-2.82-3.58-2.37-7.1.05-.36.31-2.16,1.19-2.37s1.49,1.54,3.55,2.37c1.48.6,3.33.55,3.55,0,.43-1.06-5.14-3.84-4.74-4.74.19-.41,1.51-.24,2.37,0,1.36.39,2.06,1.14,3.56,2.37,2,1.67,3.05,2.5,3.55,2.37,1.69-.45,2.94-6.91,0-10.66-1.34-1.7-3.23-2.46-5.92-3.55a18.3,18.3,0,0,0-4.74-1.19,7.37,7.37,0,0,0-2.37,0,6.28,6.28,0,0,0-3.55,2.37c-1.36,1.84-.95,3.58-1.19,7.11-.24,3.7-.89,4.73-1.18,7.1-1,7.83,4.49,9.75,4.74,17.77.21,6.85-3.53,13.3-4.74,15.39-2.52,4.35-5.21,6.77-4.74,10.66.43,3.43,3,5.24,2.37,5.92-.82.91-6.47-1.3-7.1-4.74-.46-2.46,2-3.81,1.18-5.92-.58-1.52-2-1.11-4.74-3.55-2.18-1.94-1.86-2.68-3.55-3.55-1.31-.68-1.82-.39-4.74-1.19-2.11-.57-2.45-.89-3.55-1.18-3.17-.83-6.08.32-8.29,1.18-3.59,1.42-6.8,2.68-8.29,5.92-2.38,5.21,1.75,11,2.37,11.85a15.16,15.16,0,0,0,5.92,4.73,3,3,0,0,0-1.18,2.37c.15,1.57,2.14,2.47,3.55,2.37,1-.07,1.41-.6,2.37-1.18a11.1,11.1,0,0,1,7.1-1.19,9.56,9.56,0,0,1,5.93,2.37c1.29,1.24,3.08,3.82,2.36,5.92-1,2.83-6,3.33-8.29,3.55-16.63,1.65-32.45-11.25-33.15-11.84-8.7-7.27-12.27-14.76-15.4-21.31-.54-1.13-5.07-10.81-2.37-13,1.14-.93,3.37-.41,3.56-1.18s-2.52-2.05-2.37-2.37,2-.07,3.55,1.18c1.34,1.11,1.56,2.41,2.37,2.37.54,0,1-.64,1.18-1.18.49-1.59-1.38-3.38-1.18-3.56s2.62,2.82,3.55,2.37c.62-.3.58-2.11,0-3.55-.27-.68-1.08-2.33-5.92-4.74-3.59-1.79-5.39-2.69-7.11-2.37-3.12.59-5.17,3.6-5.92,5.92-.55,1.75-.36,3,0,5.93,1,8,.84,8.85,1.19,10.65,2.38,12.53,15.39,26.06,15.39,26.06,11.36,11.8,17.63,11.42,40.27,29.6C152.16,399.16,154,400.69,156.31,402.71Z"/><path class="cls-10" d="M161.05,407.45c1.67.7,7.14,2.57,20.13-3.55,12.58-5.93,19.74-9.31,22.5-16.58,4-10.58-7.08-14.08-8.29-35.53-.57-10.17,1.48-17.32-3.55-26.05a30.36,30.36,0,0,0-7.11-8.29v-7.11l-8.29-1.18c-.66,4.95-1,9-1.18,11.84-.26,4-.44,8.66-1.19,15.4-.5,4.61-1,8-3.55,10.65-1.06,1.14-1.54,1.17-2.37,2.37-2.28,3.33-2.44,8.72,0,10.66,1.41,1.12,2.58.23,4.74,1.18,2.6,1.16,4,3.8,4.74,5.93a87.3,87.3,0,0,1-20.13,3.55c-3.76.2-6.83.13-10.66,0-6.78-.23-10.17-.35-13-1.19-4.42-1.29-7.18-3.42-11.84-7.1a80.17,80.17,0,0,1-13-13q-2.37-4.14-4.73-8.29a6.78,6.78,0,0,1-3.56,4.74,6.53,6.53,0,0,1-7.1-1.18L95.92,353c-2.17,4.56-1.87,7.57-1.19,9.47,1.81,5.05,7.14,4.75,16.58,11.84,1.46,1.09.45.44,10.66,9.48,6,5.33,9.05,8,9.47,8.28,9.12,6.05,13.89,3.1,22.5,9.48C158.37,404.81,157.79,406.09,161.05,407.45Z"/><path class="cls-10" d="M151.57,567.32c.62-15.28,4.66-25.45,8.29-32,2.68-4.8,5.41-8.11,8.29-15.4,2.42-6.12,3.33-11,4.74-20.13,4.11-26.77,2.28-24,4.74-35.53,2-9.2,4.11-15.56,3.55-26.05a67,67,0,0,0-1.18-9.47,76.2,76.2,0,0,1,39.08-11.85,153.79,153.79,0,0,0,4.73,27.24c6.9,25.73,14.44,26.89,17.77,46.19,1.06,6.16.14,5.16,0,46.18,0,8.06,0,14.66,0,19-9.51-2.4-15.32-.85-19,1.18-3.42,1.92-4.79,4.21-9.48,5.92-1.18.44-3.79,1.28-11.84,1.19-12.75-.14-15.64-2.36-21.31,0-3.8,1.57-3.59,3-7.11,4.73C166.48,571.64,158.83,570.29,151.57,567.32Z"/><path class="cls-11" d="M153.94,364.82c-1.71-.74-2.25.24-4.73,0-3.07-.3-3.12-1.87-6.89-2.88-3.16-.84-4.71-.16-5.48-1.37s.65-2.41,0-4.11c-.92-2.4-4.45-1.81-5.49-4.12-.84-1.84.54-4.12,1.37-5.49a14,14,0,0,1,6.86-5.49,18.9,18.9,0,0,1,9.61-1.37,6.25,6.25,0,0,1,0-4.12c1.06-2.74,4.28-3.77,4.11-4.12s-2.16.19-4.11,1.38a12.52,12.52,0,0,0-4.12,4.11,4.32,4.32,0,0,1-2.75-1.37c-1.2-1.46-.33-3.06-1.37-4.12-1.56-1.58-5.48,0-5.49,0a3.72,3.72,0,0,1,2.75,0c.13.06,1.39.64,1.37,1.38,0,.44-.48,1-5.49,2.74-2.38.85-1.91.6-4.12,1.37-3.36,1.18-5,1.95-5.49,1.38-.24-.3.12-.62,0-1.38-.27-1.76-2.68-2.82-2.74-2.74a3.39,3.39,0,0,1,1.37,1.37c.53,1.13-.17,1.75,0,4.12.06.81.16,1,0,1.37-.4.93-1.68,1.08-2.74,1.37-2.13.59-5.14,2.21-5.49,4.12-.29,1.57,1.48,2,1.37,4.12-.08,1.54-1,1.92-1.37,4.11a8.91,8.91,0,0,0,0,2.75c.53,2.59,3.18,3.13,8.23,6.86,3.11,2.29,4.67,3.47,5.49,5.49s.29,2.76,1.37,4.12c1.25,1.54,3.24,2.1,5.49,2.74,2.65.75,3.59.51,4.12,1.37.82,1.33-.19,3.88-1.37,4.12s-2.07-1.69-2.75-1.37-.7,1.84,0,2.74c1.47,1.88,7,1.12,8.24-1.37.81-1.71-1-3.11,0-5.49a5.09,5.09,0,0,1,2.74-2.74c2.12-.74,3.23,1.05,6.86,1.37a9.45,9.45,0,0,0,5.49-1.37c2.57-1.62,3.81-4.4,3.44-4.75s-2.25,1.82-3.55,1.19c-.66-.32-.54-1.06-1.18-2.37A7.68,7.68,0,0,0,153.94,364.82Z"/></g><g id="Layer_28" data-name="Layer 28"><g class="cls-12"><rect x="0.08" y="0.89" width="400" height="600"/></g><path class="cls-13" d="M86.2,43.37h4.17c5.13,0,7.87,2.34,7.87,6.52S95.5,56.5,90.46,56.5H86.2Zm4,11.76c3.9,0,5.84-1.93,5.84-5.24s-1.94-5.15-5.84-5.15H88.32V55.13Z"/><path class="cls-13" d="M103.59,43.37h9.61v1.41h-7.48V48.9H112v1.41h-6.31v4.77h7.74V56.5h-9.87Z"/><path class="cls-13" d="M122.22,44.78h-5V43.37h12.21v1.41h-5V56.5h-2.12Z"/><path class="cls-13" d="M141,43.37h2.12V55.08h7.27V56.5H141Z"/><path class="cls-13" d="M155.11,43.37h9.61v1.41h-7.48V48.9h6.31v1.41h-6.31v4.77H165V56.5h-9.87Z"/><path class="cls-13" d="M168,43.37h2.25l2.69,7.1c.58,1.54,1,2.79,1.6,4.33h.1c.62-1.54,1-2.79,1.61-4.33l2.67-7.1h2.16l-5.3,13.13h-2.45Z"/><path class="cls-13" d="M185,43.37h9.6v1.41h-7.48V48.9h6.31v1.41h-6.31v4.77h7.74V56.5H185Z"/><path class="cls-13" d="M200.19,43.37h2.19l6,8.25,1.8,2.72h.1c-.11-1.32-.27-2.8-.27-4.18V43.37h2V56.5h-2.2l-6-8.26L202,45.53h-.1c.11,1.32.27,2.72.27,4.1V56.5h-2Z"/><path class="cls-13" d="M218.39,43.37h4.17c5.13,0,7.87,2.34,7.87,6.52s-2.74,6.61-7.78,6.61h-4.26Zm4,11.76c3.9,0,5.84-1.93,5.84-5.24s-1.94-5.15-5.84-5.15h-1.89V55.13Z"/><path class="cls-13" d="M235.78,43.37h9.61v1.41h-7.48V48.9h6.31v1.41h-6.31v4.77h7.74V56.5h-9.87Z"/><path class="cls-13" d="M257.8,43.37H263c3.4,0,5.83,1,5.83,3.69S266.42,51,263,51h-3.1V56.5H257.8Zm4.92,6.22c2.59,0,4-.83,4-2.53s-1.43-2.34-4-2.34h-2.8v4.87Zm-.12.9,1.66-.86,5.09,6.87H267Z"/><path class="cls-13" d="M274,51.08V43.37h2.12v7.75c0,3.16,1.69,4.15,3.87,4.15s3.95-1,3.95-4.15V43.37h2v7.71c0,4.21-2.58,5.66-6,5.66S274,55.29,274,51.08Z"/><path class="cls-13" d="M292.18,43.37h2.56l3.19,7c.4.9.78,1.83,1.18,2.74h.11c.4-.91.75-1.84,1.15-2.74l3.16-7h2.55V56.5h-2V49.27c0-1.15.16-2.72.27-3.88h-.1l-1.33,3-3.13,6.79h-1.41l-3.16-6.79-1.32-3h-.1c.11,1.16.27,2.73.27,3.88V56.5h-1.92Z"/></g></svg>