<svg xmlns="http://www.w3.org/2000/svg" xmlns:xlink="http://www.w3.org/1999/xlink" width="400" height="600" viewBox="0 0 400 600"><defs><style>.cls-1{fill:#e2e2e2;}.cls-2{fill:#fff;}.cls-3{opacity:0.31;filter:url(#AI_Turbulence_5);}.cls-4{opacity:0.7;filter:url(#AI_GaussianBlur_4);}.cls-5{fill:#ffac5a;}</style><filter id="AI_Turbulence_5" x="0" y="0" width="100%" height="100%" name="AI_Turbulence_5"><feTurbulence result="turb" baseFrequency="0.4" numOctaves="4" type="fractalNoise"/><feComposite operator="in" in="turb" in2="SourceAlpha"/></filter><filter id="AI_GaussianBlur_4" name="AI_GaussianBlur_4"><feGaussianBlur stdDeviation="4"/></filter></defs><g id="Layer_22" data-name="Layer 22"><rect x="-0.46" y="-3.05" width="400" height="605"/></g><g id="Layer_23" data-name="Layer 23"><path class="cls-1" d="M358.19,224.69,257.54,192.1l.78-5.95c-.28-1.42-.56-2.84-.85-4.26v-2.55a5.7,5.7,0,0,1,0-6l0-2.55-.06-9.36a4.07,4.07,0,0,0,1.38-2.63c.11-1.64-1.12-2.55-.83-4.26a3.83,3.83,0,0,1,.8-1.69c.87-1.24,1.61-3.74,1-9.26l1.59-7.64Q277.53,76.15,293.8,16.3l112.4,35Z"/><rect class="cls-2" x="15.78" y="3.95" width="111.45" height="180.99"/><rect x="20.43" y="12.44" width="101.39" height="127.46"/><path class="cls-2" d="M359.53,224.28l-99.86-31.06.28-8.76a40.56,40.56,0,0,1-.85-5.11,40.09,40.09,0,0,1-.05-7.65,16.65,16.65,0,0,1-.88-7.66c.38-2.77,1.34-3.74.78-5.95-.37-1.5-1.21-2.61-.84-4.25a4.61,4.61,0,0,1,.8-1.7c1.55-2.22,1.48-5.51,1.59-8.49a92,92,0,0,1,1.17-11.34Q277.83,73.91,294,15.53L407.54,50.85Z"/><polygon points="365.96 179.41 262.66 147.28 296.47 25.14 399.77 57.27 365.96 179.41"/><path class="cls-1" d="M55.69,415.85,156.88,383c-.28-2-.55-4.09-.83-6.13.28-1.46.55-2.92.83-4.38V369.9a6,6,0,0,0,.83-2.62,6.15,6.15,0,0,0-.83-3.51V351.51a4.32,4.32,0,0,1-1.41-2.73c-.12-1.68,1.11-2.61.81-4.37a4.11,4.11,0,0,0-.83-1.75c-.88-1.29-1.64-3.86-1-9.54l-1.65-7.88Q136,263.46,119.16,201.69l-113,35.15Z"/><path class="cls-2" d="M54.34,415.42l100.4-31.23-.34-9a41,41,0,0,0,.83-5.26,43,43,0,0,0,0-7.88,17.37,17.37,0,0,0,.82-7.88c-.39-2.86-1.36-3.87-.82-6.13.37-1.55,1.2-2.68.82-4.38a4.72,4.72,0,0,0-.82-1.75c-1.57-2.31-1.53-5.69-1.66-8.76a97.36,97.36,0,0,0-1.25-11.69L119,200.9,4.79,236.41Z"/><polygon points="47.56 369.15 151.42 336.85 116.53 210.78 12.66 243.09 47.56 369.15"/><path class="cls-2" d="M250.89,184.91H139.45V3.92l95.13,0a15.53,15.53,0,0,0,2,1.08,14.55,14.55,0,0,0,4.09,1.09l2,1.08c.35.72.69,1.44,1,2.17h1l1,1.08a.8.8,0,0,0,0,1.08.69.69,0,0,0,1,0c.34.37.69.73,1,1.09h1a12.07,12.07,0,0,0,1,2.17,14.75,14.75,0,0,0,1,1.38Z"/><rect x="144.09" y="12.42" width="101.39" height="127.46"/><rect class="cls-2" x="139.87" y="185.58" width="111.45" height="180.99"/><rect x="144.51" y="194.07" width="101.39" height="127.46"/><path class="cls-2" d="M375.38,372.29H263.93v-181l95.14,0a14.75,14.75,0,0,0,2,1.09,14.16,14.16,0,0,0,4.09,1.08l2.05,1.08,1,2.17h1l1,1.09a.8.8,0,0,0,0,1.08.7.7,0,0,0,1,0l1,1.08h1a12.8,12.8,0,0,0,1,2.17,11.28,11.28,0,0,0,1,1.38Z"/><rect x="268.57" y="199.79" width="101.39" height="127.46"/><rect class="cls-2" x="264.35" y="372.95" width="111.45" height="180.99"/><rect x="268.99" y="381.45" width="101.39" height="127.46"/><path class="cls-1" d="M226.36,582.83,125.71,550.24l.78-6c-.28-1.42-.57-2.84-.85-4.26l0-2.55a5.76,5.76,0,0,1,0-6V529l-.07-9.36a4,4,0,0,0,1.38-2.64c.11-1.63-1.12-2.54-.83-4.25a3.94,3.94,0,0,1,.81-1.69c.87-1.24,1.61-3.74,1-9.26l1.59-7.64q16.26-59.85,32.53-119.7l112.4,35Z"/><path class="cls-2" d="M227.7,582.42l-99.86-31.06.28-8.76a42.35,42.35,0,0,1-.86-5.11,40.93,40.93,0,0,1-.05-7.65,16.62,16.62,0,0,1-.87-7.66c.37-2.77,1.33-3.74.78-5.95-.38-1.5-1.22-2.61-.85-4.25a4.43,4.43,0,0,1,.81-1.7c1.54-2.22,1.47-5.51,1.58-8.49a94,94,0,0,1,1.17-11.34l32.33-116.78L275.71,409Z"/><polygon points="234.12 537.55 130.82 505.42 164.63 383.29 267.93 415.41 234.12 537.55"/><path class="cls-2" d="M118.9,575.75H7.45v-181l95.14,0a13.9,13.9,0,0,0,2,1.08,14.14,14.14,0,0,0,4.09,1.09l2,1.08,1,2.17h1l1,1.08a.81.81,0,0,0,0,1.09.71.71,0,0,0,1,0l1,1.08h1a11.42,11.42,0,0,0,1,2.17,11.29,11.29,0,0,0,1,1.38Z"/><rect x="12.1" y="403.25" width="101.39" height="127.46"/></g><g id="Layer_24" data-name="Layer 24"><g class="cls-3"><rect x="-0.46" y="-0.05" width="400" height="600"/></g><g class="cls-4"><path d="M74.13,307.93l2.74,11.29,2.74-11.29h8.68V331H82.62V315.59L78.85,331h-4l-3.76-15.45V331H65.45V307.93Z"/><path d="M107.6,331h-5.68v-4.86H97.1V331H91.43V315.92c0-4.16.66-8.58,8.08-8.58s8.09,4.42,8.09,8.58Zm-5.68-15.12c0-1.58-.23-2.38-2.41-2.38s-2.41.8-2.41,2.38v4.55h4.82Z"/><path d="M117.4,307.93l5.21,12.64V307.93h5.68V331h-6.67l-5.21-12.74V331h-5.68V307.93Z"/><path d="M139.94,307.93c6.2,0,8.25,2.51,8.25,7.92v7.23c0,5.41-2.05,8-8.25,8h-8.35V307.93Zm.1,17.43c1.58,0,2.37-.27,2.37-2.25v-7.26c0-2-.79-2.24-2.37-2.24h-2.78v11.75Z"/><path d="M166.73,307.93v17.43h9.34V331h-15V307.93Z"/><path d="M183.72,307.93V331h-5.61V307.93Z"/><path d="M197.82,316.58c-.14-2.28-.4-3.56-2.84-3.56s-2.61,1.55-2.61,4.09v4.75c0,2.54.17,4.09,2.61,4.09s2.6-1.55,2.6-3.16h-2.9v-4.63h8.58v5.45c0,2.18-.46,8-8.28,8s-8.29-5.84-8.29-8v-8.25c0-2.18.47-8,8.29-8s8.31,5.84,8.31,8Z"/><path d="M217,316.58c-.13-2.28-.39-3.56-2.83-3.56s-2.61,1.55-2.61,4.09v4.75c0,2.54.16,4.09,2.61,4.09s2.6-1.55,2.6-3.16h-2.9v-4.63h8.58v5.45c0,2.18-.46,8-8.28,8s-8.29-5.84-8.29-8v-8.25c0-2.18.46-8,8.29-8s8.31,5.84,8.31,8Z"/><path d="M241.14,307.93v5.68h-10v3h7.09v5.67h-7.09v3h10V331H225.3V307.93Z"/><path d="M262,331H255.7L252,323.81h-2.54V331h-5.75V307.93h8.25c5.88,0,8.26,2.51,8.26,7.92,0,3.14-.7,5.19-2.74,6.67Zm-12.6-17.4v4.46h2.7c1.59,0,2.38-.2,2.38-2.25s-.79-2.24-2.38-2.21Z"/><path d="M283.58,315.66c-.26-2-1.42-2.58-3-2.58-1.28,0-2.08.76-1.94,1.52.46,2.57,11,2.51,11,10.1,0,1-1.12,6.83-8.94,6.83-7.06,0-8.62-4.45-8.62-7.36l5.62-1.22c.16,2.38,1.38,2.9,3,2.9s2.8-1,2.61-1.84c-.63-2.81-10.73-2.18-10.73-9.77,0-1,.56-6.84,8-6.84,6.94,0,8.62,4.13,8.62,7Z"/><path d="M308.27,323.61c0,2.18-.47,8-8.29,8s-8.28-5.84-8.28-8v-8.25c0-2.18.46-8,8.28-8s8.29,5.84,8.29,8Zm-5.68-6.5c0-2.54-.17-4.09-2.61-4.09s-2.61,1.55-2.61,4.09v4.75c0,2.54.17,4.09,2.61,4.09s2.61-1.55,2.61-4.09Z"/><path d="M319.91,307.93l2.74,11.29,2.74-11.29h8.68V331h-5.68V315.59L324.63,331h-4l-3.76-15.45V331h-5.68V307.93Z"/><path d="M89.4,341.93l2.74,11.29,2.74-11.29h8.68V365H97.88V349.59L94.12,365h-4l-3.77-15.45V365H80.72V341.93Z"/><path d="M122.86,365h-5.68v-4.86h-4.81V365h-5.68V349.92c0-4.16.66-8.58,8.08-8.58s8.09,4.42,8.09,8.58Zm-5.68-15.12c0-1.58-.23-2.38-2.41-2.38s-2.4.8-2.4,2.38v4.55h4.81Z"/><path d="M132.66,341.93l5.21,12.64V341.93h5.68V365h-6.67l-5.21-12.74V365H126V341.93Z"/><path d="M155.2,341.93c6.2,0,8.25,2.51,8.25,7.92v7.23c0,5.41-2,8-8.25,8h-8.35V341.93Zm.1,17.43c1.58,0,2.37-.27,2.37-2.25v-7.26c0-2-.79-2.24-2.37-2.24h-2.77v11.75Z"/><path d="M182,341.93v10.23h5.15V341.93h5.68V365h-5.68v-7.2H182V365h-5.67V341.93Z"/><path d="M212.12,365h-5.67v-4.86h-4.82V365H196V349.92c0-4.16.66-8.58,8.09-8.58s8.08,4.42,8.08,8.58Zm-5.67-15.12c0-1.58-.23-2.38-2.41-2.38s-2.41.8-2.41,2.38v4.55h4.82Z"/><path d="M233.61,365h-6.34l-3.73-7.23H221V365h-5.74V341.93h8.25c5.87,0,8.25,2.51,8.25,7.92,0,3.14-.69,5.19-2.74,6.67ZM221,347.64v4.46h2.7c1.59,0,2.38-.2,2.38-2.25s-.79-2.24-2.38-2.21Z"/><path d="M263.07,365h-6.33L253,357.81h-2.54V365h-5.75V341.93H253c5.88,0,8.26,2.51,8.26,7.92,0,3.14-.7,5.19-2.74,6.67Zm-12.6-17.4v4.46h2.7c1.59,0,2.38-.2,2.38-2.25s-.79-2.24-2.38-2.21Z"/><path d="M280.79,341.93v5.68h-10v3h7.09v5.67h-7.09v3h10V365H265V341.93Z"/><path d="M291.68,341.93c6.21,0,8.25,2.51,8.25,7.92v7.23c0,5.41-2,8-8.25,8h-8.35V341.93Zm.1,17.43c1.59,0,2.38-.27,2.38-2.25v-7.26c0-2-.79-2.24-2.38-2.24H289v11.75Z"/><path d="M307.85,347.61h-6.6v-5.68h18.88v5.68h-6.6V365h-5.68Z"/></g><path class="cls-5" d="M73.56,306.55l2.74,11.29L79,306.55h8.68v23.1H82V314.21l-3.76,15.44h-4l-3.76-15.44v15.44H64.88v-23.1Z"/><path class="cls-5" d="M107,329.65h-5.67V324.8H96.53v4.85H90.85V314.54c0-4.16.66-8.59,8.09-8.59s8.08,4.43,8.08,8.59Zm-5.67-15.11c0-1.59-.23-2.38-2.41-2.38s-2.41.79-2.41,2.38v4.55h4.82Z"/><path class="cls-5" d="M116.82,306.55,122,319.19V306.55h5.68v23.1h-6.67l-5.22-12.74v12.74h-5.67v-23.1Z"/><path class="cls-5" d="M139.36,306.55c6.21,0,8.25,2.51,8.25,7.92v7.23c0,5.41-2,7.95-8.25,7.95H131v-23.1Zm.1,17.42c1.59,0,2.38-.26,2.38-2.24v-7.26c0-2.05-.79-2.25-2.38-2.25h-2.77V324Z"/><path class="cls-5" d="M166.16,306.55V324h9.34v5.68h-15v-23.1Z"/><path class="cls-5" d="M183.15,306.55v23.1h-5.61v-23.1Z"/><path class="cls-5" d="M197.24,315.2c-.13-2.28-.39-3.57-2.84-3.57s-2.6,1.55-2.6,4.09v4.76c0,2.54.16,4.09,2.6,4.09S197,323,197,321.4h-2.9v-4.62h8.58v5.44c0,2.18-.46,8-8.29,8s-8.28-5.85-8.28-8V314c0-2.17.46-8,8.28-8s8.32,5.85,8.32,8Z"/><path class="cls-5" d="M216.38,315.2c-.13-2.28-.39-3.57-2.84-3.57s-2.6,1.55-2.6,4.09v4.76c0,2.54.16,4.09,2.6,4.09s2.61-1.55,2.61-3.17h-2.9v-4.62h8.58v5.44c0,2.18-.46,8-8.29,8s-8.28-5.85-8.28-8V314c0-2.17.46-8,8.28-8s8.32,5.85,8.32,8Z"/><path class="cls-5" d="M240.57,306.55v5.67h-10v3h7.1v5.68h-7.1v3h10v5.68H224.73v-23.1Z"/><path class="cls-5" d="M261.46,329.65h-6.34l-3.73-7.23h-2.54v7.23h-5.74v-23.1h8.25c5.88,0,8.25,2.51,8.25,7.92,0,3.13-.69,5.18-2.74,6.67Zm-12.61-17.39v4.45h2.71c1.58,0,2.38-.19,2.38-2.24s-.8-2.25-2.38-2.21Z"/><path class="cls-5" d="M283,314.27c-.27-2-1.42-2.57-3-2.57-1.29,0-2.08.76-2,1.51.47,2.58,11.06,2.51,11.06,10.1,0,1-1.12,6.84-8.94,6.84-7.07,0-8.62-4.46-8.62-7.36l5.61-1.22c.17,2.37,1.39,2.9,3,2.9s2.8-1,2.6-1.85c-.62-2.8-10.72-2.18-10.72-9.77,0-1,.56-6.83,8-6.83,6.93,0,8.61,4.13,8.61,7Z"/><path class="cls-5" d="M307.69,322.22c0,2.18-.46,8-8.28,8s-8.29-5.85-8.29-8V314c0-2.17.47-8,8.29-8s8.28,5.85,8.28,8Zm-5.67-6.5c0-2.54-.17-4.09-2.61-4.09s-2.61,1.55-2.61,4.09v4.76c0,2.54.17,4.09,2.61,4.09S302,323,302,320.48Z"/><path class="cls-5" d="M319.34,306.55l2.74,11.29,2.74-11.29h8.68v23.1h-5.68V314.21l-3.76,15.44h-4l-3.76-15.44v15.44h-5.68v-23.1Z"/><path class="cls-5" d="M88.82,340.55l2.74,11.29,2.74-11.29H103v23.1H97.31V348.2l-3.77,15.45h-4L85.82,348.2v15.45H80.14v-23.1Z"/><path class="cls-5" d="M122.29,363.65h-5.68V358.8h-4.82v4.85h-5.67V348.53c0-4.15.66-8.58,8.08-8.58s8.09,4.43,8.09,8.58Zm-5.68-15.12c0-1.58-.23-2.37-2.41-2.37s-2.41.79-2.41,2.37v4.56h4.82Z"/><path class="cls-5" d="M132.09,340.55l5.21,12.64V340.55H143v23.1h-6.67l-5.21-12.74v12.74h-5.68v-23.1Z"/><path class="cls-5" d="M154.62,340.55c6.21,0,8.26,2.51,8.26,7.92v7.23c0,5.41-2,7.95-8.26,7.95h-8.34v-23.1Zm.1,17.42c1.59,0,2.38-.26,2.38-2.24v-7.26c0-2.05-.79-2.25-2.38-2.25H152V358Z"/><path class="cls-5" d="M181.42,340.55v10.23h5.15V340.55h5.67v23.1h-5.67v-7.19h-5.15v7.19h-5.68v-23.1Z"/><path class="cls-5" d="M211.55,363.65h-5.68V358.8h-4.82v4.85h-5.67V348.53c0-4.15.66-8.58,8.08-8.58s8.09,4.43,8.09,8.58Zm-5.68-15.12c0-1.58-.23-2.37-2.41-2.37s-2.41.79-2.41,2.37v4.56h4.82Z"/><path class="cls-5" d="M233,363.65H226.7L223,356.42h-2.55v7.23h-5.74v-23.1h8.25c5.88,0,8.25,2.51,8.25,7.92,0,3.13-.69,5.18-2.73,6.66Zm-12.61-17.39v4.45h2.71c1.59,0,2.38-.2,2.38-2.24s-.79-2.25-2.38-2.21Z"/><path class="cls-5" d="M262.5,363.65h-6.34l-3.73-7.23h-2.54v7.23h-5.74v-23.1h8.25c5.88,0,8.25,2.51,8.25,7.92,0,3.13-.69,5.18-2.74,6.66Zm-12.61-17.39v4.45h2.71c1.58,0,2.38-.2,2.38-2.24s-.8-2.25-2.38-2.21Z"/><path class="cls-5" d="M280.22,340.55v5.67h-10v3h7.1v5.68h-7.1v3h10v5.68H264.38v-23.1Z"/><path class="cls-5" d="M291.11,340.55c6.2,0,8.25,2.51,8.25,7.92v7.23c0,5.41-2.05,7.95-8.25,7.95h-8.35v-23.1Zm.1,17.42c1.58,0,2.37-.26,2.37-2.24v-7.26c0-2.05-.79-2.25-2.37-2.25h-2.77V358Z"/><path class="cls-5" d="M307.28,346.22h-6.6v-5.67h18.88v5.67H313v17.43h-5.67Z"/></g></svg>