<svg xmlns="http://www.w3.org/2000/svg" xmlns:xlink="http://www.w3.org/1999/xlink" width="400" height="600" viewBox="0 0 400 600"><defs><style>.cls-1{fill:url(#radial-gradient);}.cls-2{opacity:0.4;}.cls-3{filter:url(#AI_Alpha_4);}.cls-4{fill:url(#linear-gradient);}.cls-5,.cls-6{stroke:#7ae688;stroke-miterlimit:10;}.cls-5{stroke-width:3px;}.cls-7{opacity:0.31;filter:url(#AI_Turbulence_5);}</style><radialGradient id="radial-gradient" cx="176.88" cy="211.92" fx="-116.82420894893875" fy="-49.9243378532438" r="393.48" gradientUnits="userSpaceOnUse"><stop offset="0" stop-color="#d9e021"/><stop offset="0.13" stop-color="#a2c746"/><stop offset="0.33" stop-color="#4ba180"/><stop offset="0.48" stop-color="#1588a4"/><stop offset="0.55" stop-color="#007fb2"/><stop offset="0.56" stop-color="#0079aa"/><stop offset="0.61" stop-color="#006693"/><stop offset="0.66" stop-color="#005781"/><stop offset="0.73" stop-color="#004d74"/><stop offset="0.81" stop-color="#00476d"/><stop offset="1" stop-color="#00456b"/></radialGradient><filter id="AI_Alpha_4" x="0" y="0" width="100%" height="100%" name="AI_Alpha_4"><feTurbulence result="turb" baseFrequency="0.1" numOctaves="4" type="fractalNoise"/><feComposite operator="in" in="SourceGraphic" in2="turb"/></filter><linearGradient id="linear-gradient" x1="27.19" y1="501.08" x2="508.45" y2="505.98" gradientUnits="userSpaceOnUse"><stop offset="0" stop-color="#d9e021"/><stop offset="0.02" stop-color="#cddb29"/><stop offset="0.09" stop-color="#97c34d"/><stop offset="0.17" stop-color="#69ae6c"/><stop offset="0.25" stop-color="#439d85"/><stop offset="0.33" stop-color="#269099"/><stop offset="0.41" stop-color="#1187a7"/><stop offset="0.48" stop-color="#0481af"/><stop offset="0.55" stop-color="#007fb2"/><stop offset="0.56" stop-color="#0079aa"/><stop offset="0.61" stop-color="#006693"/><stop offset="0.66" stop-color="#005781"/><stop offset="0.73" stop-color="#004d74"/><stop offset="0.81" stop-color="#00476d"/><stop offset="1" stop-color="#00456b"/></linearGradient><filter id="AI_Turbulence_5" x="0" y="0" width="100%" height="100%" name="AI_Turbulence_5"><feTurbulence result="turb" baseFrequency="0.4" numOctaves="4" type="fractalNoise"/><feComposite operator="in" in="turb" in2="SourceAlpha"/></filter></defs><g id="Layer_21" data-name="Layer 21"><rect class="cls-1" x="0.27" y="-0.03" width="400" height="605"/><path class="cls-2" d="M.27,605V317c4-3.37,10.52-8.56,18.89-14.26,40.77-27.78,70.92-33.94,145.18-57.77,22.22-7.13,43.89-13.36,53.24-31,10.89-20.58-2.46-42.48-14.52-70.6-30.83-71.9-42-96-30.25-118.74C179.32,12,191,4.37,199.43,0L324.05-1.09c18.94,24,24.76,44.54,26.62,58.83,1.15,8.88,2.49,28.66-21.78,104.83-12.4,38.91-17.42,48.4-10.89,58.84,12.53,20,53.47,21,82.27,19.25V605Z"/><g class="cls-3"><path class="cls-4" d="M28.31,600.81c-5.26-46.09,8.77-73.45,17.26-86.24,10.44-15.72,30-28.45,69.06-53.9,45-29.3,50.54-24.63,80-47.74,5.55-4.34,10.51-8.55,18.83-10.78,20.59-5.51,28.57,9.92,61.21,13.86,18.44,2.22,25.45-1.55,42.38,4.62,9.37,3.42,14.67,7.29,20.4,10.78,12.15,7.4,31,16,59.64,20q1.58,77.77,3.14,155.54Z"/></g><path d="M323.43,360a49.07,49.07,0,0,1-24.3-3.34,51.94,51.94,0,0,1-31.24-36.8c-.88-4.11-5-23.15,6.94-36.8,7.93-9.09,20.33-10.52,45.13-13.38,26.92-3.11,34.86,2.11,38.18,5,4.49,3.94,6.26,8.68,6.94,8.37,1.26-.59-3.72-17.59-13.89-33.46-6.09-9.5-18.45-28.81-43.38-38.47-6.08-2.35-20.29-7.66-38.18-5-22.47,3.33-44.81,18.31-53.8,38.48-7.93,17.75-3.48,35-10.42,60.21a46.89,46.89,0,0,0-1.73,10c-.7,11.77,3.4,21.1,5.2,25.09a62.55,62.55,0,0,0,7,11.71c2.45,15.92-1.26,24-5.21,28.43-3,3.32-6.47,5.09-8.68,10-2.69,6.05-1.44,12.39,0,16.73,2.75-.49,7-1.16,12.15-1.68,11.49-1.14,24.07-2.39,36.45,1.68,7.29,2.39,6.08,3.87,15.62,8.36s30,14.16,45.12,6.69c6.08-3,9.84-9.26,17.35-21.75,5.28-8.75,4.88-10.38,12.15-25.09,8.91-18,14.16-25,12.15-26.76C350.28,345.94,340.81,357.74,323.43,360Z"/><path class="cls-5" d="M60.85,499.77H44.08L34.2,474.36H27.47v25.41H12.27V418.56H34.12c15.55,0,21.84,8.82,21.84,27.84,0,11-1.83,18.22-7.25,23.44ZM27.47,438.63v15.66h7.17c4.19,0,6.29-.69,6.29-7.89s-2.1-7.89-6.29-7.77Z"/><path class="cls-5" d="M107.77,418.56v19.95H81.38v10.68h18.79v19.95H81.38v10.67h26.39v20H65.83V418.56Z"/><path class="cls-5" d="M116.25,451.86h45.26v19.95H116.25Z"/><path class="cls-5" d="M193,418.56c16.43,0,22.72,8.82,22.72,27.84,0,4-.87,11.6-4.45,16.83,3.58,2.2,6.2,8,6.2,15.19,0,14.39-4.8,21.35-21.23,21.35H172V418.56Zm2.1,64.73c4.2,0,6.29-.58,6.29-6s-1.92-6.26-6.11-6.26h-8.3v12.29Zm-.7-29c4.2,0,6.29-.69,6.29-7.89s-2.09-7.89-6.29-7.89H187v15.78Z"/><path class="cls-5" d="M238.05,418.56v81.21H223.2V418.56Z"/><path class="cls-5" d="M295.37,499.77H278.59l-9.87-25.41H262v25.41h-15.2V418.56h21.84c15.56,0,21.85,8.82,21.85,27.84,0,11-1.84,18.22-7.26,23.44ZM262,438.63v15.66h7.17c4.19,0,6.29-.69,6.29-7.89s-2.1-7.89-6.29-7.77Z"/><path class="cls-5" d="M310.84,438.51H293.36V418.56h50v19.95H325.86v61.26h-15Z"/><path class="cls-5" d="M363.61,418.56v36h13.63v-36h15v81.21h-15V474.48H363.61v25.29h-15V418.56Z"/><path class="cls-6" d="M108.71,528.93v21h-5.1v-21Z"/><path class="cls-6" d="M118.91,528.93c5.64,0,7.8,2.28,7.8,7.2a6.85,6.85,0,0,1-1.53,4.35,4.22,4.22,0,0,1,2.13,3.93c0,3.72-1.65,5.52-7.29,5.52h-8.31v-21Zm.72,16.74c1.44,0,2.16-.15,2.16-1.56s-.66-1.62-2.1-1.62h-2.85v3.18Zm-.24-7.5c1.44,0,2.16-.18,2.16-2s-.72-2-2.16-2h-2.52v4.08Z"/><path class="cls-6" d="M143.69,528.93v5.16h-9.06v2.76h6.45V542h-6.45v2.76h9.06v5.16h-14.4v-21Z"/><path class="cls-6" d="M152.06,528.93l4.74,11.49V528.93H162v21H155.9l-4.74-11.58v11.58H146v-21Z"/><path class="cls-6" d="M181.55,528.93c5.64,0,7.5,2.28,7.5,7.2v6.57c0,4.92-1.86,7.23-7.5,7.23H174v-21Zm.09,15.84c1.44,0,2.16-.24,2.16-2v-6.6c0-1.86-.72-2-2.16-2h-2.52v10.68Z"/><path class="cls-6" d="M206.3,549.93h-5.16v-4.41h-4.38v4.41H191.6V536.19c0-3.78.6-7.8,7.35-7.8s7.35,4,7.35,7.8Zm-5.16-13.74c0-1.44-.21-2.16-2.19-2.16s-2.19.72-2.19,2.16v4.14h4.38Z"/><path class="cls-6" d="M217,528.93l2.49,10.26L222,528.93h7.89v21h-5.16v-14l-3.42,14h-3.6l-3.42-14v14h-5.16v-21Z"/><path class="cls-6" d="M250.52,549.93H244l-4.32-6.6-1.56,2.16v4.44h-5.22v-21h5.22v7.53l5.49-7.53h6.48l-7,9.63Z"/><path class="cls-6" d="M265.43,528.93v14.25c0,2-.42,7.29-7.53,7.29s-7.56-5.31-7.56-7.29l5-1.11c.12,2.07.36,3.24,2.58,3.24s2.37-1.41,2.37-3.72V528.93Z"/><path class="cls-6" d="M282.83,549.93h-5.16v-4.41h-4.38v4.41h-5.16V536.19c0-3.78.6-7.8,7.35-7.8s7.35,4,7.35,7.8Zm-5.16-13.74c0-1.44-.21-2.16-2.19-2.16s-2.19.72-2.19,2.16v4.14h4.38Z"/><path class="cls-6" d="M302.36,549.93H296.6l-3.39-6.57H290.9v6.57h-5.22v-21h7.5c5.34,0,7.5,2.28,7.5,7.2,0,2.85-.63,4.71-2.49,6.06ZM290.9,534.12v4h2.46c1.44,0,2.16-.18,2.16-2s-.72-2-2.16-2Z"/><path class="cls-6" d="M118,557.93v5.16H109v2.76h6.45V571H109v2.76H118v5.16h-14.4v-21Z"/><path class="cls-6" d="M128.21,557.93l2.49,10.26,2.49-10.26h7.89v21h-5.16v-14l-3.42,14h-3.6l-3.42-14v14h-5.16v-21Z"/><path class="cls-6" d="M149.18,557.93v21h-5.1v-21Z"/><path class="cls-6" d="M157.34,557.93v15.84h8.49v5.16H152.18v-21Z"/><path class="cls-6" d="M182.75,557.93l4.74,11.49V557.93h5.16v21h-6.06l-4.74-11.58v11.58h-5.16v-21Z"/><path class="cls-6" d="M200.48,557.93l2.7,6.75,2.7-6.75h6.24l-5.94,13.32v7.68h-6v-7.68l-6-13.32Z"/><path class="cls-6" d="M222.59,565.79c-.12-2.07-.36-3.24-2.58-3.24s-2.37,1.41-2.37,3.72v4.32c0,2.31.15,3.72,2.37,3.72s2.37-1.41,2.37-2.88h-2.64v-4.2h7.8v4.95c0,2-.42,7.29-7.53,7.29s-7.53-5.31-7.53-7.29v-7.5c0-2,.42-7.29,7.53-7.29s7.56,5.31,7.56,7.29Z"/><path class="cls-6" d="M244.73,578.93h-5.16v-4.41h-4.38v4.41H230V565.19c0-3.78.6-7.8,7.35-7.8s7.35,4,7.35,7.8Zm-5.16-13.74c0-1.44-.21-2.16-2.19-2.16s-2.19.72-2.19,2.16v4.14h4.38Z"/><path class="cls-6" d="M262.13,578.93H257v-4.41h-4.38v4.41h-5.16V565.19c0-3.78.6-7.8,7.35-7.8s7.35,4,7.35,7.8ZM257,565.19c0-1.44-.21-2.16-2.19-2.16s-2.19.72-2.19,2.16v4.14H257Z"/><path class="cls-6" d="M281.66,578.93H275.9l-3.39-6.57H270.2v6.57H265v-21h7.5c5.34,0,7.5,2.28,7.5,7.2,0,2.85-.63,4.71-2.49,6.06ZM270.2,563.12v4h2.46c1.44,0,2.16-.18,2.16-2s-.72-2-2.16-2Z"/><path class="cls-6" d="M291,557.93c5.64,0,7.5,2.28,7.5,7.2v6.57c0,4.92-1.86,7.23-7.5,7.23h-7.59v-21Zm.09,15.84c1.44,0,2.16-.24,2.16-2v-6.6c0-1.86-.72-2-2.16-2h-2.52v10.68Z"/><path class="cls-6" d="M20.11,26.73h5.46L27.51,41l2.34-14.25h4.32L36.51,41l2-14.25h5.46l-4,21H34l-2-8.91-2,8.91H24.12Z"/><path class="cls-6" d="M50.83,26.73V36H55.5v-9.3h5.16v21H55.5V41.19H50.83v6.54H45.66v-21Z"/><path class="cls-6" d="M78.06,26.73v5.16H69v2.76h6.45v5.16H69v2.76h9.06v5.16H63.66v-21Z"/><path class="cls-6" d="M97.05,47.73H91.29L87.9,41.16H85.59v6.57H80.37v-21h7.5c5.34,0,7.5,2.28,7.5,7.2,0,2.85-.63,4.71-2.49,6.06ZM85.59,31.92v4h2.46c1.44,0,2.16-.18,2.16-2s-.72-2-2.16-2Z"/><path class="cls-6" d="M113.16,26.73v5.16H104.1v2.76h6.45v5.16H104.1v2.76h9.06v5.16H98.76v-21Z"/><path class="cls-6" d="M129.57,26.73v21h-5.1v-21Z"/><path class="cls-6" d="M142.05,33.75a2.4,2.4,0,0,0-2.76-2.34c-1.17,0-1.89.69-1.77,1.38.42,2.34,10,2.28,10,9.18,0,.9-1,6.21-8.13,6.21-6.42,0-7.83-4-7.83-6.69l5.1-1.11c.15,2.16,1.26,2.64,2.73,2.64s2.55-.87,2.37-1.68c-.57-2.55-9.75-2-9.75-8.88,0-.9.51-6.21,7.23-6.21,6.3,0,7.83,3.75,7.83,6.39Z"/><path class="cls-6" d="M163.53,31.89h-6V26.73h17.16v5.16h-6V47.73h-5.16Z"/><path class="cls-6" d="M181.65,26.73V36h4.68v-9.3h5.16v21h-5.16V41.19h-4.68v6.54h-5.16v-21Z"/><path class="cls-6" d="M208.89,26.73v5.16h-9.06v2.76h6.45v5.16h-6.45v2.76h9.06v5.16h-14.4v-21Z"/><path class="cls-6" d="M236.88,47.73h-5.76l-3.39-6.57h-2.31v6.57H220.2v-21h7.5c5.34,0,7.5,2.28,7.5,7.2,0,2.85-.63,4.71-2.49,6.06ZM225.42,31.92v4h2.46c1.44,0,2.16-.18,2.16-2s-.72-2-2.16-2Z"/><path class="cls-6" d="M253.14,47.73H248V43.32H243.6v4.41h-5.16V34c0-3.78.6-7.8,7.35-7.8s7.35,4,7.35,7.8ZM248,34c0-1.44-.21-2.16-2.19-2.16s-2.19.72-2.19,2.16v4.14H248Z"/><path class="cls-6" d="M263.19,26.73c5.64,0,7.8,2.28,7.8,7.2a6.85,6.85,0,0,1-1.53,4.35,4.22,4.22,0,0,1,2.13,3.93c0,3.72-1.65,5.52-7.29,5.52H256v-21Zm.72,16.74c1.44,0,2.16-.15,2.16-1.56s-.66-1.62-2.1-1.62h-2.85v3.18Zm-.24-7.5c1.44,0,2.16-.18,2.16-2s-.72-2-2.16-2h-2.52V36Z"/><path class="cls-6" d="M280.77,26.73c5.64,0,7.8,2.28,7.8,7.2A6.85,6.85,0,0,1,287,38.28a4.22,4.22,0,0,1,2.13,3.93c0,3.72-1.65,5.52-7.29,5.52h-8.31v-21Zm.72,16.74c1.44,0,2.16-.15,2.16-1.56s-.66-1.62-2.1-1.62H278.7v3.18Zm-.24-7.5c1.44,0,2.16-.18,2.16-2s-.72-2-2.16-2h-2.52V36Z"/><path class="cls-6" d="M296.25,26.73v21h-5.1v-21Z"/><path class="cls-6" d="M304.05,31.89h-6V26.73h17.16v5.16h-6V47.73h-5.16Z"/><path class="cls-6" d="M322.17,26.73V36h4.68v-9.3H332v21h-5.16V41.19h-4.68v6.54H317v-21Z"/><path class="cls-6" d="M349.77,41c0,2-.42,7.29-7.53,7.29S334.71,43,334.71,41v-7.5c0-2,.42-7.29,7.53-7.29s7.53,5.31,7.53,7.29Zm-5.16-5.91c0-2.31-.15-3.72-2.37-3.72s-2.37,1.41-2.37,3.72v4.32c0,2.31.15,3.72,2.37,3.72s2.37-1.41,2.37-3.72Z"/><path class="cls-6" d="M357.63,26.73V42.57h8.49v5.16H352.47v-21Z"/><path class="cls-6" d="M382.38,26.73v5.16h-9.06v2.76h6.45v5.16h-6.45v2.76h9.06v5.16H368v-21Z"/><path class="cls-6" d="M150.44,65.44c3.38,0,4.75,1.44,4.75,4.56s-1.37,4.56-4.75,4.56H149v4.18h-3.27V65.44Zm.11,5.85c.91,0,1.37-.11,1.37-1.29s-.46-1.29-1.37-1.29H149v2.58Z"/><path class="cls-6" d="M166.93,78.74h-3.65l-2.15-4.16h-1.46v4.16h-3.3V65.44h4.75c3.38,0,4.75,1.44,4.75,4.56,0,1.8-.4,3-1.58,3.84Zm-7.26-10v2.56h1.56c.91,0,1.37-.11,1.37-1.29s-.46-1.29-1.37-1.27Z"/><path class="cls-6" d="M177.23,78.74H174V76h-2.77v2.79h-3.27V70c0-2.4.38-4.94,4.65-4.94s4.66,2.54,4.66,4.94ZM174,70c0-.91-.13-1.37-1.39-1.37s-1.38.46-1.38,1.37v2.62H174Z"/><path class="cls-6" d="M185.85,65.44v3.27h-5.73v1.75h4.08v3.26h-4.08v1.75h5.73v3.27h-9.12V65.44Z"/><path class="cls-6" d="M190.64,69.89a1.53,1.53,0,0,0-1.75-1.49c-.74,0-1.19.44-1.12.88.27,1.48,6.37,1.44,6.37,5.81,0,.57-.65,3.93-5.15,3.93-4.07,0-5-2.56-5-4.23l3.23-.71c.09,1.37.8,1.68,1.73,1.68s1.61-.55,1.5-1.07c-.36-1.61-6.17-1.25-6.17-5.62,0-.57.32-3.93,4.57-3.93,4,0,5,2.37,5,4Z"/><path class="cls-6" d="M204.62,65.44v3.27h-5.73v1.75H203v3.26h-4.08v1.75h5.73v3.27h-9.11V65.44Z"/><path class="cls-6" d="M209.93,65.44l3,7.28V65.44h3.27v13.3h-3.84l-3-7.33v7.33h-3.27V65.44Z"/><path class="cls-6" d="M221.14,68.71h-3.8V65.44H228.2v3.27h-3.8v10h-3.26Z"/><path class="cls-6" d="M238.46,65.44v3.27h-5.73v1.75h4.08v3.26h-4.08v1.75h5.73v3.27h-9.11V65.44Z"/><path class="cls-6" d="M250.49,78.74h-3.65l-2.14-4.16h-1.47v4.16h-3.3V65.44h4.75c3.38,0,4.75,1.44,4.75,4.56,0,1.8-.4,3-1.58,3.84Zm-7.26-10v2.56h1.56c.91,0,1.37-.11,1.37-1.29s-.46-1.29-1.37-1.27Z"/><path class="cls-6" d="M260.69,65.44v3.27H255v1.75H259v3.26H255v1.75h5.73v3.27h-9.11V65.44Z"/><path class="cls-6" d="M272.72,78.74h-3.65l-2.14-4.16h-1.47v4.16h-3.3V65.44h4.75c3.38,0,4.75,1.44,4.75,4.56,0,1.8-.4,3-1.58,3.84Zm-7.26-10v2.56H267c.91,0,1.37-.11,1.37-1.29s-.46-1.29-1.37-1.27Z"/></g><g id="Layer_22" data-name="Layer 22"><g class="cls-7"><rect x="0.27" y="1.97" width="400" height="600"/></g></g></svg>