<svg xmlns="http://www.w3.org/2000/svg" xmlns:xlink="http://www.w3.org/1999/xlink" width="400" height="600" viewBox="0 0 400 600"><defs><style>.cls-1{fill:#84171a;}.cls-2{fill:#9e2d35;}.cls-3{fill:#6b6b6b;}.cls-4{fill:#353535;}.cls-5{fill:#d29a7c;}.cls-6{fill:#898989;}.cls-7{fill:#e0e0e0;opacity:0.34;}.cls-8{opacity:0.31;filter:url(#AI_Turbulence_5);}</style><filter id="AI_Turbulence_5" x="0" y="0" width="100%" height="100%" name="AI_Turbulence_5"><feTurbulence result="turb" baseFrequency="0.4" numOctaves="4" type="fractalNoise"/><feComposite operator="in" in="turb" in2="SourceAlpha"/></filter></defs><g id="Layer_13" data-name="Layer 13"><rect x="-0.46" y="-0.01" width="400" height="600"/></g><g id="Layer_14" data-name="Layer 14"><path class="cls-1" d="M115.5,190.73l35.29-48.41a53.46,53.46,0,0,1,14.12-11.17c4.72-2.56,11.46-6.22,14.11-3.72,3.59,3.37-2.32,16-3.53,18.61a52.17,52.17,0,0,1-7.05,11.18l-31.77,48.41Z"/><path class="cls-2" d="M147.44,148.94c.13-3.29,3.79-6.47,11.11-12.7,3.55-3,8.26-6.77,15-8.7,2.39-.68,3.24-.63,3.82-.12,2.6,2.29-.79,13.42-7.07,20.82-4.21,5-13.13,12.26-18.85,8.82A9.45,9.45,0,0,1,147.44,148.94Z"/><rect class="cls-3" x="94.5" y="170.23" width="33.97" height="102.99" rx="2.91" transform="translate(141.24 -24.66) rotate(33.58)"/><rect class="cls-4" x="76.9" y="194.6" width="36.66" height="102.99" rx="3.02" transform="matrix(0.83, 0.55, -0.55, 0.83, 152.01, -11.6)"/><path class="cls-1" d="M187.54,104c-2.52-2,4.72-17.12,16.05-27.71,4.95-4.64,9.68-9,15.86-8.7,6.57.29,8.39,5.54,14.15,5,6.79-.57,7.12-8.1,15.46-12a7.36,7.36,0,0,1,.94-.38c8.65-2.85,16.79-.92,22.81.88,7.62,2.28,12.28,5.34,20.73,10.89,7.16,4.7,7.08,5.68,7,6-.72,2.6-12.65-1.13-32.37.6-9.3.81-19,2.3-24.11,2.92l-9.24,1.13h0c-4.57.93-12.25,2.79-14.28,3.35s-4.08,1.34-20,11C189.58,103.63,188.32,104.61,187.54,104Z"/><path class="cls-1" d="M300.54,86c-2.85-1.91-9.55,7.06-23,15-12,7.05-22.61,9.38-30,11-20,4.36-36.11,2.33-46,1-8.43-1.14-14.81-2-22.88-4.89-7.17-2.56-16.52-7.52-46.14-33.48C115.87,60,107.09,50.21,105.08,51.77c-1.45,1.13,1.64,7.38,6,16.06,2.8,5.66,5.17,9.16,8.75,12.22,2,1.71,1.77,1,3.84,2.79,7.47,6.28,6.47,11.58,12.59,15,1.44.81,2.77,1.23,3.85,2.79,1.64,2.4.91,4.88,1.05,6.64.57,7.34,17.22,15.21,33,15.16,6.18,0,7.14-1.12,12.32-.28,8.64,1.41,13.57,5.88,18.09,8.84,13.28,8.68,28.72,8,40.17,7.43,10.25-.47,21.34-1,32.65-8.59,12.69-8.52,17.61-20.57,20.18-26.84C298.53,100.57,303.64,88.06,300.54,86Z"/><path class="cls-5" d="M82.07,274.14c-3.28-.89-4.59-14.78,0-26.92,3-8,10.09-15.18,24.23-29.61,7.8-8,11.7-11.94,13.46-13.46,6.86-5.93,9.53-7,10.77-10.77,2.16-6.61-1.74-16.37-8.08-18.85-2.42-.94-6.7-1.41-26.92,13.47-10.34,7.6-15,11.95-29.61,24.22C46.39,228.58,46.06,228,44.38,231.07c-7.36,13.43,1.87,19.44-2.69,45.76-2.35,13.57-5.95,18.62-2.69,26.93,2.27,5.79,7.42,12,13.46,16.15,6.71,4.63,9.87,3.55,13.46,8.07,4.84,6.09,1.08,10.5,5.38,16.16,3.47,4.56,9.49,5.73,21.54,8.07,12.42,2.42,12.23.5,18.85,2.7,12.08,4,13,10.52,21.53,10.76,7.08.2,7.63-4.27,16.16-5.38,11.23-1.47,14.51,5.73,24.22,5.38,12.39-.44,22.57-12.68,26.93-21.53,3.46-7,2-9.49,2.69-35,.7-27.22,2.56-33.58-2.69-43.07-3.74-6.74-10.87-14.72-16.16-13.46-2.53.6-3.36,3-5.38,2.69-3.82-.62-2.47-9.51-8.08-13.46-5.13-3.63-11,.49-13.46-2.69-2.63-3.42,3.72-8.68,2.69-16.16-1.09-7.94-10.12-15.51-18.84-16.15-8.06-.59-14.33,4.86-24.23,13.46a61.75,61.75,0,0,0-8.08,8.08c-7.27,8.92-7.42,14.76-13.46,26.92C92.87,260.66,85.69,275.12,82.07,274.14Z"/><path class="cls-6" d="M399.54,600H-.46V579L96,412H305.05l94.49,148Z"/></g><g id="Layer_16" data-name="Layer 16"><path class="cls-1" d="M144.06,555.5l25.26,39.71a39.94,39.94,0,0,0,10.1,9.16c3.38,2.1,8.2,5.1,10.1,3,2.57-2.76-1.66-13.16-2.52-15.27a43.43,43.43,0,0,0-5.06-9.16l-22.72-39.71Z"/><path class="cls-2" d="M166.92,589.77c.09,2.7,2.71,5.31,8,10.42,2.54,2.49,5.91,5.56,10.76,7.14,1.71.56,2.31.51,2.73.1,1.86-1.88-.56-11-5.06-17.08-3-4.07-9.39-10.06-13.49-7.24C168,584.37,166.84,587.22,166.92,589.77Z"/><path class="cls-3" d="M112.42,501.27l16.79-12.77a1.92,1.92,0,0,1,2.88.66l38.46,66.41a2.6,2.6,0,0,1-.58,3.31l-16.79,12.77a1.92,1.92,0,0,1-2.88-.67l-38.46-66.4A2.6,2.6,0,0,1,112.42,501.27Z"/><path class="cls-4" d="M100.05,481.84,118.3,468a2,2,0,0,1,3,.69l38.37,66.25a2.71,2.71,0,0,1-.61,3.44l-18.25,13.89a2,2,0,0,1-3-.7L99.45,485.28A2.72,2.72,0,0,1,100.05,481.84Z"/><path class="cls-5" d="M120.14,487.08c-2.35.73-3.28,12.12,0,22.08,2.16,6.53,7.22,12.45,17.34,24.29,5.58,6.53,8.38,9.79,9.63,11,4.91,4.86,6.82,5.72,7.71,8.83,1.54,5.42-1.25,13.43-5.78,15.46-1.73.78-4.8,1.16-19.26-11-7.4-6.24-10.71-9.81-21.19-19.87-14-13.42-14.22-13-15.42-15.46-5.27-11,1.34-15.95-1.92-37.54-1.68-11.13-4.26-15.27-1.93-22.08A30.66,30.66,0,0,1,99,449.54c4.8-3.8,7.06-2.92,9.64-6.63,3.46-5,.77-8.61,3.85-13.25,2.48-3.74,6.79-4.7,15.41-6.62,8.88-2,8.75-.41,13.48-2.21,8.65-3.29,9.33-8.64,15.42-8.83,5.06-.17,5.45,3.5,11.55,4.41,8,1.21,10.39-4.7,17.34-4.41,8.86.36,16.15,10.4,19.27,17.66,2.48,5.78,1.45,7.79,1.92,28.71.5,22.33,1.84,27.55-1.92,35.33-2.67,5.53-7.78,12.07-11.56,11-1.82-.49-2.41-2.47-3.85-2.21-2.74.51-1.77,7.8-5.78,11.05-3.68,3-7.88-.41-9.64,2.2-1.88,2.8,2.67,7.12,1.93,13.25-.78,6.52-7.25,12.73-13.48,13.25-5.77.48-10.26-4-17.34-11a48.17,48.17,0,0,1-5.78-6.62c-5.21-7.32-5.31-12.11-9.63-22.09C127.87,498.13,122.73,486.27,120.14,487.08Z"/><path class="cls-1" d="M198.88,602.08c9.17-9.28,17.83-13,23-14.62,4.55-1.44,25.92-7.44,43.78,8.77a50.29,50.29,0,0,1,5.48,5.85Z"/></g><g id="Layer_17" data-name="Layer 17"><path class="cls-7" d="M328,452.93,304.15,412h-88.7Q155.17,507,94.9,602.08H258.66Q293.34,527.5,328,452.93Z"/></g><g id="Layer_15" data-name="Layer 15"><g class="cls-8"><rect x="-0.46" y="-0.01" width="400" height="600"/></g></g></svg>