<svg width="375" height="198" viewBox="0 0 375 198" fill="none" xmlns="http://www.w3.org/2000/svg">
<path d="M41.5482 72.66C41.5482 88.3102 37.8021 93.1177 25.1837 93.1177H13.1567V69.7959H5.36621L9.21088 60.4876H13.1541V11.0822H25.1811C37.7995 11.0822 41.5456 14.7646 41.5456 28.2667V44.7352C41.5456 53.8389 40.0669 59.2602 35.7293 62.738H41.5456V72.66H41.5482ZM31.9858 26.9369C31.9858 21.8225 30.8028 20.6973 25.578 20.6973H22.9163V60.4876H25.1837C30.1127 60.4876 31.9858 55.3732 31.9858 44.6329V26.9369ZM31.9858 69.7959H22.9163V83.6049H25.578C30.8028 83.6049 31.9858 82.3774 31.9858 77.3653V69.7959Z" fill="#FF4800"/>
<path d="M62.248 25.7095C62.248 13.2302 68.9516 9.957 76.3452 9.957C83.2459 9.957 90.6395 12.6165 90.6395 25.7095V93.1177H80.9785V69.7959H72.0076V93.1177H62.248V25.7095ZM80.9785 24.7889C80.9785 20.2882 79.3026 19.163 76.4438 19.163C73.5849 19.163 72.0076 20.4927 72.0076 24.7889V60.4876H80.9785V24.7889Z" fill="#FF4800"/>
<path d="M135.592 93.1204H112.13V11.0822H121.889V84.0167H135.592V93.1204Z" fill="#FF4800"/>
<path d="M153.041 11.0822H165.068C177.686 11.0822 181.432 15.992 181.432 31.5399V72.66C181.432 88.3102 177.686 93.1177 165.068 93.1177H153.041V11.0822ZM171.87 26.9369C171.87 21.8225 170.786 20.6973 165.462 20.6973H162.801V83.6049H165.462C170.786 83.6049 171.87 82.3774 171.87 77.3653V26.9369Z" fill="#FF4800"/>
<path d="M215.046 11.0822C227.665 11.0822 231.411 14.7646 231.411 28.2667V44.7352C231.411 53.8389 229.932 59.2602 225.595 62.738H231.411V79.5133C231.411 90.3559 235.157 93.1177 235.157 93.1177H225.595C225.595 93.1177 221.849 91.788 221.849 79.5133V69.7959H212.779V93.1177H203.02V11.0822H215.046ZM212.779 20.6973V60.4876H215.046C219.976 60.4876 221.849 55.3732 221.849 44.6329V26.9369C221.849 21.8225 220.666 20.6973 215.441 20.6973H212.779Z" fill="#FF4800"/>
<path d="M262.266 93.1204H252.704V11.0822H262.266V93.1204Z" fill="#FF4800"/>
<path d="M283.954 25.7095C283.954 13.2302 290.658 9.957 298.051 9.957C304.952 9.957 312.346 12.6165 312.346 25.7095V93.1177H302.685V69.7959H293.714V93.1177H283.954V25.7095ZM302.685 24.7889C302.685 20.2882 301.009 19.163 298.15 19.163C295.291 19.163 293.714 20.4927 293.714 24.7889V60.4876H302.685V24.7889Z" fill="#FF4800"/>
<path d="M362.225 79.5133C362.225 90.3559 365.972 93.1177 365.972 93.1177H356.409C356.409 93.1177 352.663 91.788 352.663 79.5133V24.9934C352.663 21.7202 350.987 19.6744 348.128 19.6744C345.269 19.6744 343.594 21.7202 343.594 24.9934V93.1177H333.834V11.0822H343.594V14.56C343.594 14.56 345.171 10.5707 351.677 10.5707C358.184 10.5707 362.225 13.4348 362.225 27.0392V79.5133Z" fill="#FF4800"/>
<path d="M139.045 171.366C139.045 184.459 136.679 193.256 113.118 188.346V178.628C127.412 181.902 129.286 178.628 129.286 172.389V165.229H113.118V123.904C113.118 110.811 115.583 102.014 139.045 106.924V116.641C124.849 113.368 122.878 116.641 122.878 122.881V156.125H139.045V171.366Z" fill="#FF4800"/>
<path d="M168.423 172.491C168.423 178.731 170.296 182.004 184.59 178.731V188.448C161.128 193.358 158.663 184.561 158.663 171.468V123.802C158.663 110.709 161.128 102.014 184.59 106.822V116.539C170.296 113.266 168.423 116.539 168.423 122.779V156.023H182.618V165.331H168.423V172.491Z" fill="#FF4800"/>
<path d="M203.616 123.802C203.616 110.709 206.081 102.014 229.543 106.822V116.539C215.249 113.266 213.376 116.539 213.376 122.779V172.491C213.376 178.731 215.249 182.004 229.543 178.731V188.448C206.081 193.358 203.616 184.561 203.616 171.468V123.802Z" fill="#FF4800"/>
<path d="M270.158 116.232H262.074V188.653H252.512V116.232H241.964L245.71 106.617H270.158V116.232Z" fill="#FF4800"/>
<path d="M300.521 190.187C293.127 190.187 286.424 186.914 286.424 174.435V121.142C286.424 108.663 293.127 105.39 300.521 105.39C307.224 105.39 314.815 108.254 314.815 121.142V174.435C314.815 187.323 307.224 190.187 300.521 190.187ZM296.183 175.253C296.183 179.549 297.662 180.879 300.62 180.879C303.577 180.879 305.056 179.651 305.056 175.253V120.324C305.056 115.823 303.478 114.698 300.62 114.698C297.761 114.698 296.183 116.028 296.183 120.324V175.253Z" fill="#FF4800"/>
<path d="M348.331 106.617C360.949 106.617 364.695 110.3 364.695 123.802V140.27C364.695 149.374 363.216 154.795 358.879 158.273H364.695V175.048C364.695 185.891 368.441 188.653 368.441 188.653H358.879C358.879 188.653 355.133 187.323 355.133 175.048V165.331H346.063V188.653H336.304V106.617H348.331ZM346.063 116.232V156.023H348.331C353.26 156.023 355.133 150.908 355.133 140.168V122.472C355.133 117.357 353.95 116.232 348.725 116.232H346.063Z" fill="#FF4800"/>
<path d="M262.257 150.857H252.694V68.8215H262.257V150.857Z" fill="#FF4800"/>
</svg>
