<svg width="411" height="251" viewBox="0 0 411 251" fill="none" xmlns="http://www.w3.org/2000/svg">
<path d="M33.312 8.50507H41.5513V34.7714C41.5513 44.986 40.2772 48.9346 36.5398 51.853H41.5513V65.9304C41.5513 75.0292 44.7791 77.3468 44.7791 77.3468H36.5398C36.5398 77.3468 33.312 76.2309 33.312 65.9304V57.7758H25.4974V77.3468H17.0883V57.7758H10.3779L13.6906 49.9646H17.0883V8.50507H25.4974V49.9646H27.4511C31.6981 49.9646 33.312 45.6727 33.312 36.6598V8.50507Z" fill="#FF4800"/>
<path d="M68.1377 77.3468H59.8984V8.50507H68.1377V77.3468Z" fill="#FF4800"/>
<path d="M97.9497 8.50507C108.822 8.50507 112.05 11.5952 112.05 22.9258V36.7456C112.05 44.3852 110.776 48.9346 107.038 51.853H112.05V65.9304C112.05 75.0292 115.278 77.3468 115.278 77.3468H107.038C107.038 77.3468 103.811 76.2309 103.811 65.9304V57.7758H95.9961V77.3468H87.5869V8.50507H97.9497ZM95.9961 16.5738V49.9646H97.9497C102.197 49.9646 103.811 45.6727 103.811 36.6598V21.8099C103.811 17.518 102.791 16.5738 98.2895 16.5738H95.9961Z" fill="#FF4800"/>
<path d="M151.802 62.8403C151.802 73.8275 149.764 81.2095 129.463 77.0893V68.9347C141.779 71.6815 143.393 68.9347 143.393 63.6986V57.69H129.463V23.0116C129.463 12.0244 131.586 4.64241 151.802 8.76261V16.9172C139.486 14.1704 137.872 16.9172 137.872 22.1533V50.0505H151.802V62.8403Z" fill="#FF4800"/>
<path d="M187.818 16.5738H180.852V77.3468H172.613V16.5738H163.524L166.752 8.50507H187.818V16.5738Z" fill="#FF4800"/>
<path d="M254.581 65.9305C254.581 75.0292 257.809 77.3468 257.809 77.3468H249.57C249.57 77.3468 246.342 76.231 246.342 65.9305V20.179C246.342 17.4322 244.898 15.7155 242.435 15.7155C239.971 15.7155 238.527 17.4322 238.527 20.179V77.3468H230.118V8.50512H238.527V11.4236C238.527 11.4236 239.886 8.07593 245.493 8.07593C251.099 8.07593 254.581 10.4794 254.581 21.8958V65.9305Z" fill="#FF4800"/>
<path d="M280.826 63.7845C280.826 69.0206 282.44 71.7674 294.757 69.0206V77.1751C274.541 81.2954 272.417 73.9133 272.417 62.9261V22.9258C272.417 11.9386 274.541 4.6424 294.757 8.67677V16.8313C282.44 14.0845 280.826 16.8313 280.826 22.0674V49.9646H293.058V57.7759H280.826V63.7845Z" fill="#FF4800"/>
<path d="M32.3635 132.168H35.8461V102.983C35.8461 92.5108 41.707 89.764 47.9927 89.764C53.9385 89.764 60.2242 91.9958 60.2242 102.983V159.55H52.0698V139.979H44.2553V159.55H35.8461V139.979H29.1357L32.3635 132.168ZM52.0698 102.21C52.0698 98.4336 50.5409 97.4894 48.1625 97.4894C45.5294 97.4894 44.2553 98.6053 44.2553 102.21V132.168H52.0698V102.21Z" fill="#FF4800"/>
<path d="M78.1465 102.983C78.1465 92.5107 83.9225 89.7639 90.2931 89.7639C96.2389 89.7639 102.61 91.9957 102.61 102.983V159.55H94.2853V139.979H86.5557V159.55H78.1465V102.983ZM94.2853 102.21C94.2853 98.4335 92.8413 97.4893 90.378 97.4893C87.9147 97.4893 86.5557 98.6052 86.5557 102.21V132.168H94.2853V102.21Z" fill="#FF4800"/>
<path d="M131.49 90.7081C142.362 90.7081 145.59 93.7983 145.59 105.129V118.949C145.59 126.588 144.316 131.138 140.578 134.056H145.59V142.382C145.59 155.516 142.362 159.55 131.575 159.55H121.127V90.7081H131.49ZM129.536 132.168H131.49C135.737 132.168 137.351 127.876 137.351 118.863V104.013C137.351 99.7211 136.416 98.7769 131.83 98.7769H129.536V132.168ZM137.436 139.979H129.621V151.567H131.914C136.416 151.567 137.436 150.537 137.436 146.331V139.979Z" fill="#FF4800"/>
<path d="M171.922 145.988C171.922 151.224 173.536 153.97 185.852 151.224V159.378C165.636 163.498 163.513 156.116 163.513 145.129V105.129C163.513 94.1417 165.636 86.8455 185.852 90.8798V99.0344C173.536 96.2876 171.922 99.0344 171.922 104.27V132.168H184.153V139.979H171.922V145.988Z" fill="#FF4800"/>
<path d="M223.226 159.552H203.01V90.7081H211.419V151.91H223.226V159.55V159.552Z" fill="#FF4800"/>
<path d="M172.765 226.935C172.765 232.171 174.379 234.918 186.695 232.171V240.325C166.394 244.445 164.356 237.063 164.356 226.076V220.926H157.646L160.873 213.115H164.356V186.076C164.356 175.089 166.394 167.793 186.695 171.827V179.981C174.379 177.235 172.765 179.981 172.765 185.218V213.115H185.081V220.926H172.765V226.935Z" fill="#FF4800"/>
<path d="M211.751 240.497H203.512V171.655H211.751V240.497Z" fill="#FF4800"/>
<path d="M230.438 186.076C230.438 175.089 232.561 167.707 252.777 171.741V179.981C240.461 177.235 238.847 179.981 238.847 185.218V229.252C238.847 232.857 240.121 233.973 242.669 233.973C245.217 233.973 246.491 232.943 246.491 229.252V220.926H240.97L244.198 213.115H254.901V228.566C254.901 239.381 248.36 241.785 242.584 241.785C236.214 241.785 230.438 239.038 230.438 228.566V186.076Z" fill="#FF4800"/>
<path d="M290.067 179.724H283.101V240.497H274.862V179.724H265.773L269.001 171.655H290.067V179.724Z" fill="#FF4800"/>
<path d="M327.696 171.655L317.673 240.497H309.518L300.005 171.655H308.924L313.765 219.724L318.947 171.655H327.696Z" fill="#FF4800"/>
<path d="M349.354 226.935C349.354 232.171 350.967 234.918 363.284 232.171V240.325C343.068 244.445 340.944 237.063 340.944 226.076V186.076C340.944 175.089 343.068 167.793 363.284 171.827V179.981C350.967 177.235 349.354 179.981 349.354 185.218V213.115H361.585V220.926H349.354V226.935Z" fill="#FF4800"/>
<path d="M380.441 171.655H390.804C401.677 171.655 404.904 175.775 404.904 188.823V223.329C404.904 236.463 401.677 240.497 390.804 240.497H380.441V171.655ZM396.665 184.96C396.665 180.668 395.731 179.724 391.144 179.724H388.851V232.514H391.144C395.731 232.514 396.665 231.484 396.665 227.278V184.96Z" fill="#FF4800"/>
<path d="M211.788 240.635H202.409V8.72198H211.788V240.635Z" fill="#FF4800"/>
</svg>
