<svg width="388" height="270" viewBox="0 0 388 270" fill="none" xmlns="http://www.w3.org/2000/svg">
<path d="M32.017 86.9303H9.94238V10.2558H19.0863V78.4215H32.017V86.9303Z" fill="#FF4800"/>
<path d="M59.7254 88.0775C52.7982 88.0775 46.5176 85.0182 46.5176 73.3545V23.8316C46.5176 12.1679 52.7982 9.10855 59.7254 9.10855C66.0061 9.10855 73.118 11.7855 73.118 23.8316V73.3545C73.118 85.4006 66.0061 88.0775 59.7254 88.0775ZM55.6615 74.1193C55.6615 78.1347 57.0469 79.3776 59.8178 79.3776C62.5886 79.3776 63.9741 78.2303 63.9741 74.1193V23.0667C63.9741 18.8602 62.4963 17.8085 59.8178 17.8085C57.1393 17.8085 55.6615 19.0514 55.6615 23.0667V74.1193Z" fill="#FF4800"/>
<path d="M119.022 10.3514V73.3545C119.022 85.4006 111.91 88.0775 105.63 88.0775C98.7025 88.0775 92.4219 85.0182 92.4219 73.3545V10.3514H101.566V74.1193C101.566 78.1347 102.951 79.3776 105.722 79.3776C108.493 79.3776 109.878 78.2303 109.878 74.1193V10.3514H119.022Z" fill="#FF4800"/>
<path d="M148.116 86.9303H139.157V10.2558H148.116V86.9303Z" fill="#FF4800"/>
<path d="M192.173 70.7732C192.173 83.0105 189.956 91.2325 167.882 86.6435V77.5611C181.274 80.6204 183.029 77.5611 183.029 71.7292V65.0369H167.882V26.4129C167.882 14.1756 170.191 5.95361 192.173 10.5426V19.625C178.873 16.5657 177.026 19.625 177.026 25.4568V56.5282H192.173V70.7732Z" fill="#FF4800"/>
<path d="M221.266 71.8248C221.266 77.6567 223.021 80.716 236.413 77.6567V86.7391C214.339 91.3281 212.122 83.1061 212.122 70.8688V65.1325H204.825L208.335 56.4326H212.122V26.3173C212.122 14.08 214.339 5.95361 236.413 10.447V19.5294C223.021 16.4701 221.266 19.5294 221.266 25.3612V56.4326H234.658V65.1325H221.266V71.8248Z" fill="#FF4800"/>
<path d="M161.218 171.716H139.144V95.0415H148.287V163.207H161.218V171.716Z" fill="#FF4800"/>
<path d="M186.433 156.611C186.433 162.442 188.188 165.502 201.58 162.442V171.525C179.506 176.114 177.289 167.892 177.289 155.655V149.918H169.992L173.502 141.218H177.289V111.103C177.289 98.8657 179.506 90.7393 201.58 95.2327V104.315C188.188 101.256 186.433 104.315 186.433 110.147V141.218H199.825V149.918H186.433V156.611Z" fill="#FF4800"/>
<path d="M240.004 104.028H232.43V171.716H223.471V104.028H213.588L217.098 95.0415H240.004V104.028Z" fill="#FF4800"/>
<path d="M253.855 141.218H257.55V95.0415H266.693V141.218H275.191V95.0415H284.15V171.716H275.191V149.918H266.693V171.716H257.55V149.918H250.253L253.855 141.218Z" fill="#FF4800"/>
<path d="M64.6456 228.339H78.0382V237.039H64.6456V258.836H55.5017V237.039H48.2051L51.7149 228.339H55.5017V198.224C55.5017 185.986 55.9635 177.86 78.0382 182.353V191.436C64.6456 188.376 64.6456 191.436 64.6456 197.267V228.339Z" fill="#FF4800"/>
<path d="M105.654 243.731C105.654 249.563 107.409 252.622 120.802 249.563V258.645C98.7272 263.234 96.5105 255.012 96.5105 242.775V237.039H89.2139L92.7236 228.339H96.5105V198.224C96.5105 185.986 98.7272 177.86 120.802 182.353V191.436C107.409 188.376 105.654 191.436 105.654 197.267V228.339H119.047V237.039H105.654V243.731Z" fill="#FF4800"/>
<path d="M161.069 258.839H139.087V182.165H148.231V250.33H161.069V258.839Z" fill="#FF4800"/>
<path d="M177.418 182.162H188.686C200.509 182.162 204.018 186.751 204.018 201.283V239.716C204.018 254.343 200.509 258.837 188.686 258.837H177.418V182.162ZM195.059 196.981C195.059 192.2 194.043 191.149 189.056 191.149H186.562V249.945H189.056C194.043 249.945 195.059 248.798 195.059 244.113V196.981Z" fill="#FF4800"/>
<path d="M244.196 191.149H236.622V258.837H227.663V191.149H217.78L221.29 182.162H244.196V191.149Z" fill="#FF4800"/>
<path d="M260.267 182.162H269.41V228.339H277.908V182.162H286.867V258.837H277.908V237.039H269.41V258.837H260.267V182.162Z" fill="#FF4800"/>
<path d="M333.692 182.258V245.261C333.692 257.307 326.58 259.984 320.3 259.984C313.372 259.984 307.092 256.924 307.092 245.261V182.258H316.236V246.026C316.236 250.041 317.621 251.284 320.392 251.284C323.163 251.284 324.548 250.137 324.548 246.026V182.258H333.692Z" fill="#FF4800"/>
<path d="M377.103 242.679C377.103 254.917 374.886 263.139 352.812 258.55V249.467C366.204 252.527 367.959 249.467 367.959 243.635V236.943H352.812V198.319C352.812 186.082 355.121 177.86 377.103 182.449V191.531C363.71 188.472 361.955 191.531 361.955 197.363V228.434H377.103V242.679Z" fill="#FF4800"/>
<path d="M148.163 198.488H139.204V71.7896H148.163V198.488Z" fill="#FF4800"/>
</svg>
