<svg width="428" height="224" viewBox="0 0 428 224" fill="none" xmlns="http://www.w3.org/2000/svg">
<path d="M48.6023 97.9432C48.6023 107.764 52.0657 110.266 52.0657 110.266H43.2249C43.2249 110.266 39.7616 109.061 39.7616 97.9432V48.5583C39.7616 45.5935 38.2121 43.7405 35.569 43.7405C32.9259 43.7405 31.3765 45.5935 31.3765 48.5583V110.263H22.3535V35.9579H31.3765V39.108C31.3765 39.108 32.8348 35.4947 38.8501 35.4947C44.8655 35.4947 48.6023 38.0889 48.6023 50.4113V97.9407V97.9432Z" fill="#FF4800"/>
<path d="M78.2235 110.266H69.3828V35.9579H78.2235V110.266Z" fill="#FF4800"/>
<path d="M118.053 35.9579H126.893V64.3088C126.893 75.3342 125.526 79.5961 121.516 82.7462H126.893V97.9408C126.893 107.762 130.357 110.263 130.357 110.263H121.516C121.516 110.263 118.053 109.059 118.053 97.9408V89.139H109.668V110.263H100.645V89.139H93.4443L96.9989 80.7079H100.645V35.9579H109.668V80.7079H111.764C116.321 80.7079 118.053 76.0754 118.053 66.3471V35.9579Z" fill="#FF4800"/>
<path d="M195.976 44.667H188.502V110.266H179.661V44.667H169.909L173.373 35.9579H195.976V44.667Z" fill="#FF4800"/>
<path d="M208.736 80.7078H212.473V49.2069C212.473 37.9036 218.761 34.9388 225.506 34.9388C231.886 34.9388 238.63 37.3477 238.63 49.2069V110.263H229.881V89.139H221.496V110.263H212.473V89.139H205.272L208.736 80.7078ZM229.881 48.373C229.881 44.2964 228.24 43.2773 225.688 43.2773C222.863 43.2773 221.496 44.4817 221.496 48.373V80.7078H229.881V48.373Z" fill="#FF4800"/>
<path d="M72.0162 164.832H85.1406V173.263H72.0162V194.387H62.9932V135.647C62.9932 123.788 63.54 115.82 85.1406 120.174V129.069C72.0162 126.104 72.0162 129.069 72.0162 134.72V164.832Z" fill="#FF4800"/>
<path d="M110.933 179.748C110.933 185.4 112.665 188.365 125.88 185.4V194.202C104.189 198.649 101.91 190.681 101.91 178.822V135.647C101.91 123.788 104.189 115.912 125.88 120.267V129.069C112.665 126.104 110.933 129.069 110.933 134.72V164.832H124.058V173.263H110.933V179.748Z" fill="#FF4800"/>
<path d="M155.408 120.082C167.074 120.082 170.538 123.417 170.538 135.647V150.563C170.538 158.809 169.171 163.72 165.16 166.87H170.538V182.064C170.538 191.885 174.001 194.387 174.001 194.387H165.16C165.16 194.387 161.697 193.182 161.697 182.064V173.263H153.312V194.387H144.289V120.082H155.408ZM153.312 128.791V164.832H155.408C159.965 164.832 161.697 160.199 161.697 150.471V134.442C161.697 129.81 160.603 128.791 155.773 128.791H153.312Z" fill="#FF4800"/>
<path d="M216.473 182.064C216.473 191.885 219.937 194.387 219.937 194.387H211.096C211.096 194.387 207.633 193.182 207.633 182.064V132.682C207.633 129.717 206.083 127.864 203.44 127.864C200.797 127.864 199.248 129.717 199.248 132.682V194.387H190.225V120.082H199.248V123.232C199.248 123.232 200.706 119.618 206.721 119.618C212.737 119.618 216.473 122.213 216.473 134.535V182.064Z" fill="#FF4800"/>
<path d="M235.613 133.331C235.613 122.027 241.811 119.062 248.647 119.062C255.026 119.062 261.862 121.471 261.862 133.331V194.387H252.93V173.263H244.636V194.387H235.613V133.331ZM252.93 132.497C252.93 128.42 251.381 127.401 248.738 127.401C246.095 127.401 244.636 128.605 244.636 132.497V164.832H252.93V132.497Z" fill="#FF4800"/>
<path d="M307.979 182.064C307.979 191.885 311.443 194.387 311.443 194.387H302.602C302.602 194.387 299.138 193.182 299.138 182.064V132.682C299.138 129.717 297.589 127.864 294.946 127.864C292.303 127.864 290.753 129.717 290.753 132.682V194.387H281.73V120.082H290.753V123.232C290.753 123.232 292.212 119.618 298.227 119.618C304.242 119.618 307.979 122.213 307.979 134.535V182.064Z" fill="#FF4800"/>
<path d="M327.937 120.082H339.056C350.722 120.082 354.185 124.529 354.185 138.612V175.857C354.185 190.032 350.722 194.387 339.056 194.387H327.937V120.082ZM345.345 134.442C345.345 129.81 344.342 128.791 339.42 128.791H336.96V185.77H339.42C344.342 185.77 345.345 184.659 345.345 180.119V134.442Z" fill="#FF4800"/>
<path d="M386.358 195.777C379.523 195.777 373.325 192.812 373.325 181.508V133.238C373.325 121.935 379.523 118.97 386.358 118.97C392.556 118.97 399.574 121.564 399.574 133.238V181.508C399.574 193.182 392.556 195.777 386.358 195.777ZM382.348 182.25C382.348 186.141 383.715 187.345 386.45 187.345C389.184 187.345 390.551 186.234 390.551 182.25V132.497C390.551 128.42 389.093 127.401 386.45 127.401C383.806 127.401 382.348 128.605 382.348 132.497V182.25Z" fill="#FF4800"/>
<path d="M152.775 152.565H144.068V35.4264H152.775V152.568V152.565Z" fill="#FF4800"/>
</svg>
