<svg width="433" height="296" viewBox="0 0 433 296" fill="none" xmlns="http://www.w3.org/2000/svg">
<path d="M243.337 65.7761C243.337 78.8496 240.842 87.6333 216 82.7308V73.0278C231.072 76.2961 233.046 73.0278 233.046 66.7974V59.6479H216V18.3846C216 5.31112 218.599 -3.47264 243.337 1.42992V11.1329C228.369 7.86453 226.29 11.1329 226.29 17.3633V50.5577H243.337V65.7761Z" fill="#FF4800"/>
<path d="M287.616 10.7244H279.093V83.0371H269.01V10.7244H257.889L261.838 1.1235H287.616V10.7244Z" fill="#FF4800"/>
<path d="M316.716 83.0371H306.634V1.1235H316.716V83.0371Z" fill="#FF4800"/>
<path d="M370.455 69.453C370.455 80.2795 374.404 83.0371 374.404 83.0371H364.322C364.322 83.0371 360.372 81.7094 360.372 69.453V15.0141C360.372 11.7457 358.605 9.70299 355.591 9.70299C352.577 9.70299 350.81 11.7457 350.81 15.0141V83.0371H340.52V1.12351H350.81V4.59616C350.81 4.59616 352.473 0.612823 359.333 0.612823C366.193 0.612823 370.455 3.47265 370.455 17.0568V69.453Z" fill="#FF4800"/>
<path d="M390.723 50.4555H394.985V15.7291C394.985 3.26838 402.157 0 409.848 0C417.124 0 424.816 2.65556 424.816 15.7291V83.0372H414.838V59.75H405.275V83.0372H394.985V59.75H386.773L390.723 50.4555ZM414.838 14.8098C414.838 10.3158 412.967 9.19231 410.056 9.19231C406.834 9.19231 405.275 10.5201 405.275 14.8098V50.4555H414.838V14.8098Z" fill="#FF4800"/>
<path d="M12.668 145.266H16.8256V95.9337H27.1158V145.266H36.6784V95.9337H46.7608V177.847H36.6784V154.56H27.1158V177.847H16.8256V154.56H8.61426L12.668 145.266Z" fill="#FF4800"/>
<path d="M88.9607 154.56H69.2118V95.9337H79.502V145.266H88.9607V95.9337H99.1469V160.586C99.1469 173.66 95.6129 182.239 69.0039 177.541V167.838C86.8818 171.311 88.9607 167.838 88.9607 161.608V154.56Z" fill="#FF4800"/>
<path d="M146.545 177.847H121.807V95.931H132.097V168.755H146.545V177.845V177.847Z" fill="#FF4800"/>
<path d="M189.68 177.847H164.942V95.931H175.233V168.755H189.68V177.845V177.847Z" fill="#FF4800"/>
<path d="M217.433 161.71C217.433 167.94 219.408 171.208 234.479 167.94V177.643C209.741 182.546 207.143 173.762 207.143 160.688V113.093C207.143 100.019 209.741 91.3376 234.479 96.138V105.841C219.408 102.573 217.433 105.841 217.433 112.071V145.266H232.4V154.56H217.433V161.71Z" fill="#FF4800"/>
<path d="M281.669 160.586C281.669 173.66 279.174 182.444 254.332 177.541V167.838C269.404 171.106 271.378 167.838 271.378 161.608V154.458H254.332V113.195C254.332 100.121 256.931 91.3376 281.669 96.2401V105.943C266.597 102.675 264.622 105.943 264.622 112.173V145.368H281.669V160.586Z" fill="#FF4800"/>
<path d="M325.737 105.532H317.214V177.845H307.132V105.532H296.01L299.96 95.931H325.737V105.532Z" fill="#FF4800"/>
<path d="M353.177 161.71C353.177 167.94 355.152 171.208 370.223 167.94V177.643C345.485 182.546 342.887 173.762 342.887 160.688V113.093C342.887 100.019 345.485 91.3376 370.223 96.138V105.841C355.152 102.573 353.177 105.841 353.177 112.071V145.266H368.145V154.56H353.177V161.71Z" fill="#FF4800"/>
<path d="M391.22 95.931H403.901C417.205 95.931 421.155 100.834 421.155 116.358V157.417C421.155 173.044 417.205 177.845 403.901 177.845H391.22V95.931ZM411.073 111.762C411.073 106.655 409.929 105.532 404.316 105.532H401.51V168.346H404.316C409.929 168.346 411.073 167.12 411.073 162.116V111.762Z" fill="#FF4800"/>
<path d="M237.685 192.514L225.42 274.428H215.441L203.8 192.514H214.714L220.638 249.711L226.979 192.514H237.685Z" fill="#FF4800"/>
<path d="M269.384 275.656C261.589 275.656 254.521 272.388 254.521 259.927V207.02C254.521 194.559 261.589 191.291 269.384 191.291C276.452 191.291 284.456 194.151 284.456 207.02V259.927C284.456 272.796 276.452 275.656 269.384 275.656ZM264.811 260.744C264.811 265.034 266.37 266.362 269.488 266.362C272.606 266.362 274.165 265.136 274.165 260.744V206.203C274.165 201.709 272.502 200.585 269.488 200.585C266.474 200.585 264.811 201.913 264.811 206.203V260.744Z" fill="#FF4800"/>
<path d="M331.749 274.43H306.907V192.517H317.197V265.34H331.749V274.43Z" fill="#FF4800"/>
<path d="M360.125 241.849H375.196V251.143H360.125V274.43H349.834V251.143H341.623L345.573 241.849H349.834V209.676C349.834 196.602 350.354 187.921 375.196 192.721V202.424C360.125 199.156 360.125 202.424 360.125 208.654V241.849Z" fill="#FF4800"/>
<path d="M316.632 105H306.55V77.9311H316.632V105Z" fill="#FF4800"/>
<path d="M317.082 202.069H307V175H317.082V202.069Z" fill="#FF4800"/>
</svg>
