<svg width="422" height="184" viewBox="0 0 422 184" fill="none" xmlns="http://www.w3.org/2000/svg">
<g clip-path="url(#clip0_161_741)">
<path d="M45.7106 17.044L34.0546 93.7717H24.5718L13.5059 17.044H23.8777L29.5082 70.6195L35.5363 17.044H45.7106Z" fill="#FF4800"/>
<path d="M72.1812 93.7717H62.5996V17.044H72.1812V93.7717Z" fill="#FF4800"/>
<path d="M106.853 17.044C119.497 17.044 123.25 20.4882 123.25 33.1167V48.5196C123.25 57.0343 121.769 62.1048 117.422 65.3576H123.25V74.6376C123.25 89.2752 119.497 93.7717 106.952 93.7717H94.8018V17.044H106.853ZM104.581 63.2529H106.853C111.792 63.2529 113.669 58.4693 113.669 48.4239V31.8729C113.669 27.0894 112.582 26.037 107.248 26.037H104.581V63.2529ZM113.767 71.9589H104.68V84.8744H107.347C112.582 84.8744 113.767 83.7263 113.767 79.0385V71.9589Z" fill="#FF4800"/>
<path d="M195.85 17.044H205.432V46.3192C205.432 57.704 203.95 62.1048 199.604 65.3576H205.432V81.0476C205.432 91.1886 209.186 93.7717 209.186 93.7717H199.604C199.604 93.7717 195.85 92.528 195.85 81.0476V71.9589H186.763V93.7717H176.983V17.044H186.763V63.2529H189.035C193.973 63.2529 195.85 58.4693 195.85 48.4239V17.044Z" fill="#FF4800"/>
<path d="M235.559 78.6558C235.559 84.4917 237.436 87.5531 251.759 84.4917V93.5804C228.25 98.1726 225.78 89.9449 225.78 77.6991V33.1167C225.78 20.8708 228.25 12.7389 251.759 17.2354V26.3241C237.436 23.2626 235.559 26.3241 235.559 32.16V63.2528H249.784V71.9589H235.559V78.6558Z" fill="#FF4800"/>
<path d="M81.5334 162.526C81.5334 177.163 77.7797 181.66 65.136 181.66H53.0848V159.847H45.2812L49.1337 151.141H53.0848V104.932H65.136C77.7797 104.932 81.5334 108.376 81.5334 121.005V136.408C81.5334 144.922 80.0517 149.993 75.7054 153.246H81.5334V162.526ZM71.9517 119.761C71.9517 114.978 70.7664 113.925 65.5311 113.925H62.864V151.141H65.136C70.0749 151.141 71.9517 146.357 71.9517 136.312V119.761ZM71.9517 159.847H62.864V172.763H65.5311C70.7664 172.763 71.9517 171.614 71.9517 166.927V159.847Z" fill="#FF4800"/>
<path d="M126.673 181.66H103.163V104.932H112.942V173.145H126.673V181.66Z" fill="#FF4800"/>
<path d="M153.739 181.66H144.157V104.932H153.739V181.66Z" fill="#FF4800"/>
<path d="M204.805 168.936C204.805 179.077 208.559 181.66 208.559 181.66H198.977C198.977 181.66 195.223 180.416 195.223 168.936V117.943C195.223 114.882 193.544 112.968 190.679 112.968C187.815 112.968 186.136 114.882 186.136 117.943V181.66H176.356V104.932H186.136V108.185C186.136 108.185 187.716 104.454 194.236 104.454C200.755 104.454 204.805 107.133 204.805 119.857V168.936Z" fill="#FF4800"/>
<path d="M226.438 104.932H238.489C251.132 104.932 254.886 109.524 254.886 124.066V162.526C254.886 177.163 251.132 181.66 238.489 181.66H226.438V104.932ZM245.304 119.761C245.304 114.978 244.218 113.925 238.884 113.925H236.217V172.763H238.884C244.218 172.763 245.304 171.614 245.304 166.927V119.761Z" fill="#FF4800"/>
<path d="M288.568 104.932C301.212 104.932 304.965 108.376 304.965 121.005V136.408C304.965 144.922 303.483 149.993 299.137 153.246H304.965V162.526C304.965 177.163 301.212 181.66 288.666 181.66H276.517V104.932H288.568ZM286.296 151.141H288.568C293.507 151.141 295.384 146.357 295.384 136.312V119.761C295.384 114.978 294.297 113.925 288.963 113.925H286.296V151.141ZM295.482 159.847H286.395V172.763H289.062C294.297 172.763 295.482 171.614 295.482 166.927V159.847Z" fill="#FF4800"/>
<path d="M354.355 166.544C354.355 172.38 356.232 175.441 370.555 172.38V181.469C347.045 186.061 344.576 177.833 344.576 165.587V159.751H335.587V181.66H325.808V118.613C325.808 106.941 332.525 103.88 339.933 103.88C343.094 103.88 346.354 104.358 348.922 106.176C352.478 103.497 359.096 102.54 370.555 104.741V113.83C356.232 110.768 354.355 113.83 354.355 119.665V151.045H368.678V159.751H354.355V166.544ZM335.587 151.045H344.576V117.082C344.576 112.968 342.896 111.82 340.032 111.82C337.167 111.82 335.587 113.064 335.587 117.082V151.045Z" fill="#FF4800"/>
<path d="M409.079 104.932H418.66V134.207C418.66 145.592 417.179 149.993 412.832 153.246H418.66V168.936C418.66 179.077 422.414 181.66 422.414 181.66H412.832C412.832 181.66 409.079 180.416 409.079 168.936V159.847H399.991V181.66H390.212V104.932H399.991V151.141H402.263C407.202 151.141 409.079 146.357 409.079 136.312V104.932Z" fill="#FF4800"/>
<path d="M153.698 106.04H144.184V17.117H153.698V106.04Z" fill="#FF4800"/>
</g>
<defs>
<clipPath id="clip0_161_741">
<rect width="421.373" height="183.788" fill="white"/>
</clipPath>
</defs>
</svg>
