<svg id="Layer_1" data-name="Layer 1" xmlns="http://www.w3.org/2000/svg" width="544" height="740" viewBox="0 0 544 740"><defs><style>.cls-1{fill:#f8ae90;}.cls-2{fill:#ffd4c3;}</style></defs><path class="cls-1" d="M423.15,304c-12.61,5.2-26.4,7.82-40,5.81-14.36-2.12-27.12-9.48-38.79-17.74-12.12-8.57-23.4-18.3-36-26.21-7.39-4.65-15.15-8.64-22.76-12.9-7-3.9-14-7.92-19.88-13.34a95.61,95.61,0,0,1-14-16.33c-1.45-2.11-2.84-4.27-4.09-6.5-.39-.69-.77-1.39-1.11-2.11a2.56,2.56,0,0,1-.11-.24c-.12-.28.16.2-.06-.13-.35-.56.22,0-.24.68l-1.69.69.06,0c1.41,1,3.08-1.21,1.82-2.35-2-1.82-4.76-3.14-7.11-4.39a57.84,57.84,0,0,0-12.49-5,28.31,28.31,0,0,0-14.13-.38c-3.49.91-6.45,2.82-9.47,4.71a21.11,21.11,0,0,1-10.86,3.6c-3.37.09-7-.08-10-1.89a8.09,8.09,0,0,1-3.61-5.16,21.05,21.05,0,0,0-2-6c-2-3.34-6.05-6.44-10-6.93a4,4,0,0,0-4.4,2.36c-1.15,2.46-.54,5.32-.13,7.88a120.56,120.56,0,0,0,4.65,18.91l1.05-1.85c-5.45,1-10.1-2.9-13.53-6.66-3.89-4.26-7.14-9.17-10.47-13.86-7-9.81-13.57-20.11-17.71-31.46a64.93,64.93,0,0,1-3.33-33.18,67.77,67.77,0,0,1,12.73-29.44c13.47-17.84,35.89-27.11,58-25.93a63.91,63.91,0,0,1,32.29,10.44c9.42,6.39,15.76,16,19.53,26.57,8.16,23.08,5,48.15,11.27,71.62a85.51,85.51,0,0,0,3,9l1.45-1.9a60.72,60.72,0,0,1-34.76-8.22c-10.5-6.19-18.59-16-29.89-20.89-6.07-2.62-12.74-3.82-19.21-2a1.51,1.51,0,0,0,.4,2.95c10.54.59,21.09,2.59,31.67,1.61a36.9,36.9,0,0,0,20.59-8.33c5.58-4.63,9.85-11.29,9.84-18.73,0-7.13-3.43-14.71-9.77-18.36a17.86,17.86,0,0,0-20.16,1.9c-5.11,4.13-8.81,11.13-7.36,17.81,1,4.73,4.65,8.45,8.29,11.39,6,4.83,12.77,8.64,19.42,12.45l6.69,3.8a16.72,16.72,0,0,0,5.08,2.19,14.76,14.76,0,0,0,10.6-2.23c2.61-1.73,4.66-4.53,3.8-7.79-.81-3.1-3.61-5.42-6.43-6.67a17.26,17.26,0,0,0-6-1.41,1.47,1.47,0,0,0-1.3.74c-3.28,7.74-5.57,16.25-5.17,24.72.32,6.81,1.7,13.6,2.63,20.35.84,6,1.55,12,2.17,18.05.75,7.33,1.8,15,.11,22.23-1.35,5.86-4.7,11-7,16.48a88.53,88.53,0,0,0-4.69,15A93.1,93.1,0,0,1,214,306.63l2.79.76c.36-12.73.76-25.47,1.72-38.17.39-5.16.51-10.65,2.06-15.61.08-.25.16-.5.26-.75-.2.5.06-.12.17-.27s-.25.13-.08.09c-.05,0,.87-.32-.14.1.28-.12-.38.11-.2.07s-.46,0-.3,0c-.66-.06-.45-.26-.48-.12s1.06,1.53,1.27,1.84a32.57,32.57,0,0,0,2.78,3.52,37.35,37.35,0,0,0,6.43,5.36c.08.06.14.15.22.22s-.25-.33,0,0a2.91,2.91,0,0,1,.17.3c.15.33-.09-.32,0,.1s.15.55.21.84,0-.29,0,.19a5.88,5.88,0,0,1,0,.6,21.61,21.61,0,0,1-1.24,6.58,102.44,102.44,0,0,1-5.32,13.3c-3.31,7.13-7,14.07-10.77,20.95a1.52,1.52,0,0,0,.9,2.2A637.35,637.35,0,0,1,286.4,341.9q13.34,7.22,26.26,15.17c4.18,2.58,8.26,5.32,12.51,7.8a153.13,153.13,0,0,0,18.39,9c13.65,5.65,27.86,9.74,41.66,15,1.81.69,2.59-2.21.8-2.89-12.29-4.67-24.91-8.42-37.17-13.19a166.35,166.35,0,0,1-18.59-8.46c-4.79-2.59-9.32-5.6-13.94-8.48a565.9,565.9,0,0,0-57.6-31.27q-21.36-10.1-43.41-18.65l.89,2.2c5.9-10.73,12-21.74,15.89-33.39,1.17-3.5,3.26-9.19.86-12.66-.91-1.31-2.55-2-3.76-3a33.76,33.76,0,0,1-6.48-7.33c-.7-1-1.62-2.15-3-1.73a2.56,2.56,0,0,0-1.4,1.23,13.36,13.36,0,0,0-1.3,4.38c-.54,3-.86,6-1.14,9.08-1.32,14.19-1.7,28.48-2.1,42.72,0,1.62,2,1.85,2.8.75a93.14,93.14,0,0,0,15.92-31.81c1.23-4.65,2.09-9.37,3.67-13.93,2-5.93,5.29-11.26,7.61-17,2.56-6.37,2.69-13.29,2.16-20s-1.32-13.58-2.18-20.34c-1-7.67-2.41-15.3-3.14-23-.85-8.88,1.09-17.71,4.56-25.89l-1.29.74c3.24.22,6.86,1.49,8.76,4.3,1.59,2.35.54,4.5-1.67,6a11.45,11.45,0,0,1-9.46,1.64,23.56,23.56,0,0,1-4.23-2.19l-5.89-3.34a160,160,0,0,1-17.54-11c-3.19-2.43-6.64-5.4-8.09-9.26-1.94-5.17.53-10.91,4.15-14.7,4.59-4.8,11.59-6.72,17.72-3.66,5.63,2.81,8.76,9.18,9,15.29.3,6.45-3.06,12.15-7.68,16.41a33.45,33.45,0,0,1-20,8.58c-10.48.91-20.93-1.06-31.37-1.64l.4,2.94c12.24-3.36,23.55,4.75,32.52,12,4.66,3.79,9.29,7.68,14.49,10.73a63.42,63.42,0,0,0,36.05,8.49c.87-.06,1.83-.93,1.44-1.9-9.54-24.25-5.54-51.12-12.73-75.93-3.22-11.13-8.73-21.79-17.65-29.4-9.12-7.79-20.79-12.3-32.6-13.9-22.79-3.09-47,4.79-62.56,22-15.41,17-21.67,41.33-15.64,63.58,3.26,12.06,9.53,23.07,16.48,33.35,3.53,5.21,7.2,10.34,11,15.33,3.29,4.31,7.13,8.72,12.27,10.82a13.65,13.65,0,0,0,7.61.78,1.51,1.51,0,0,0,1-1.85,122,122,0,0,1-4-15.41c-.48-2.48-1.22-5.22-1-7.76,0-.7.27-1.92.86-2.19a3.22,3.22,0,0,1,2,.25,12.07,12.07,0,0,1,7.91,8.86c.92,4,2.57,7.31,6.46,9.16,6,2.82,14.09,2.28,19.88-.64,2.88-1.45,5.43-3.49,8.35-4.88a21.57,21.57,0,0,1,12.44-1.52,46.82,46.82,0,0,1,13.37,4.47,67.56,67.56,0,0,1,6,3.35c.6.37,1.2.75,1.78,1.15.19.13,1.08.86.51.34l1.82-2.36a2,2,0,0,0-.78-.35,1.62,1.62,0,0,0-1.7.69c-.65.91.2,2.3.6,3.13.84,1.68,1.83,3.3,2.83,4.89a107.88,107.88,0,0,0,11.24,14.81,79,79,0,0,0,17.06,14.07c7.73,4.81,15.85,8.94,23.77,13.43,13.8,7.84,26,17.76,38.73,27.19,12,8.86,24.84,17.3,39.53,20.75,15.63,3.66,31.94,1.21,46.64-4.85,1.76-.72,1-3.63-.8-2.89Z"/><path class="cls-1" d="M221.57,251.63c-3.85-6.5-7.73-13.54-14.64-17.23a12.58,12.58,0,0,0-8.19-1.74c-3.61.52-7.18,1.39-10.76,2.08-6.42,1.23-12.95,2.52-19.5,2.76s-14.23-.13-18.62-5.78a20.89,20.89,0,0,1-3.11-6.27,51.67,51.67,0,0,1-2.08-8.23,43.31,43.31,0,0,1,.6-15.64c.41-1.88-2.48-2.69-2.89-.8A46.84,46.84,0,0,0,144.91,229a17.44,17.44,0,0,0,8.7,9.36c4,1.79,8.38,2.13,12.71,2.14a87.68,87.68,0,0,0,13.7-1.34c4.85-.77,9.66-1.72,14.47-2.69,2.35-.48,4.71-1.19,7-1,.08,0,.3,0,0,0,.23,0,.45.09.67.15a14.41,14.41,0,0,1,1.8.67,19.81,19.81,0,0,1,3.25,1.79,22.87,22.87,0,0,1,4.69,4.26c2.77,3.24,4.89,7.14,7.06,10.8a1.5,1.5,0,0,0,2.59-1.51Z"/><path class="cls-2" d="M139.1,513.08c-3.75,0-7.15-1.6-7.15-7.7v-25.9c0-6.1,3.4-7.7,7.15-7.7,3.4,0,7.25,1.4,7.25,7.7v25.9C146.35,511.68,142.5,513.08,139.1,513.08Zm-2.2-7.3c0,2.1.75,2.75,2.25,2.75s2.25-.6,2.25-2.75v-26.7c0-2.2-.8-2.75-2.25-2.75s-2.25.65-2.25,2.75Z"/><path class="cls-2" d="M162.2,501.08v11.4h-4.95v-40.1h6.1c6.4,0,8.3,2.4,8.3,10v8.7c0,7.65-1.9,10-8.3,10Zm0-4.6h1.35c2.7,0,3.25-.6,3.25-3.05v-13.3c0-2.5-.55-3.05-3.25-3.05H162.2Z"/><path class="cls-2" d="M193.55,512.48h-11.9v-40.1h4.95V508h7Z"/><path class="cls-2" d="M206.9,504.58c0,3.05.95,4.65,8.2,3.05v4.75c-11.9,2.4-13.15-1.9-13.15-8.3v-23.3c0-6.4,1.25-10.65,13.15-8.3v4.75c-7.25-1.6-8.2,0-8.2,3v16.25h7.2v4.55h-7.2Z"/><path class="cls-2" d="M238.65,472.38l-5.9,40.1H228l-5.6-40.1h5.25l2.85,28,3.05-28Z"/><path class="cls-2" d="M251.4,504.58c0,3.05.95,4.65,8.2,3.05v4.75c-11.9,2.4-13.15-1.9-13.15-8.3v-23.3c0-6.4,1.25-10.65,13.15-8.3v4.75c-7.25-1.6-8.2,0-8.2,3v16.25h7.2v4.55h-7.2Z"/><path class="cls-2" d="M281.6,512.48H269.7v-40.1h4.95V508h7Z"/><path class="cls-2" d="M302.05,504c0,6.4-1.2,10.7-13.15,8.3v-4.75c7.25,1.6,8.2,0,8.2-3.05V501h-8.2v-20.2c0-6.4,1.25-10.7,13.15-8.3v4.75c-7.25-1.6-8.2,0-8.2,3.05v16.25h8.2Z"/><path class="cls-2" d="M317,504.58c0,3.05.95,4.65,8.2,3.05v4.75c-11.9,2.4-13.15-1.9-13.15-8.3v-23.3c0-6.4,1.25-10.65,13.15-8.3v4.75c-7.25-1.6-8.2,0-8.2,3v16.25h7.2v4.55H317Z"/><path class="cls-2" d="M349.65,505.83c0,5.3,1.9,6.65,1.9,6.65H346.7s-1.9-.65-1.9-6.65V479.18c0-1.6-.85-2.6-2.3-2.6s-2.3,1-2.3,2.6v33.3h-4.95v-40.1h4.95v1.7s.8-1.95,4.1-1.95,5.35,1.4,5.35,8.05Z"/><path class="cls-2" d="M376.35,479.53c0-6.1,3.4-7.7,7.15-7.7,3.5,0,7.25,1.3,7.25,7.7v33h-4.9v-11.4H381.3v11.4h-4.95Zm9.5-.45c0-2.2-.85-2.75-2.3-2.75s-2.25.65-2.25,2.75v17.45h4.55Z"/><path class="cls-2" d="M406.15,496.53h7.2v4.55h-7.2v11.4H401.2v-31.7c0-6.4.3-10.7,12.15-8.35v4.8c-7.2-1.6-7.2,0-7.2,3Z"/><path class="cls-2" d="M173.15,564c0,6.4-1.2,10.7-13.15,8.3v-4.75c7.25,1.6,8.2,0,8.2-3.05V561H160v-20.2c0-6.4,1.25-10.7,13.15-8.3v4.75c-7.25-1.6-8.2,0-8.2,3.05v16.25h8.2Z"/><path class="cls-2" d="M183.1,540.78c0-6.4,1.25-10.65,13.15-8.3v4.75c-7.25-1.6-8.2,0-8.2,3v24.3c0,3,.95,4.65,8.2,3v4.75c-11.9,2.4-13.15-1.9-13.15-8.3Z"/><path class="cls-2" d="M210.55,564.58c0,3,.95,4.65,8.2,3v4.75c-11.9,2.4-13.15-1.9-13.15-8.3v-23.3c0-6.4,1.25-10.65,13.15-8.3v4.75c-7.25-1.6-8.2,0-8.2,3v16.25h7.2v4.55h-7.2Z"/><path class="cls-2" d="M243.25,565.83c0,5.3,1.9,6.65,1.9,6.65H240.3s-1.9-.65-1.9-6.65V539.18c0-1.6-.85-2.6-2.3-2.6s-2.3,1-2.3,2.6v33.3h-5v-40.1h5v1.7s.8-2,4.1-2,5.35,1.4,5.35,8Z"/><path class="cls-2" d="M258.7,564.58c0,3,.95,4.65,8.2,3v4.75c-11.9,2.4-13.15-1.9-13.15-8.3v-23.3c0-6.4,1.25-10.65,13.15-8.3v4.75c-7.25-1.6-8.2,0-8.2,3v16.25h7.2v4.55h-7.2Z"/><path class="cls-2" d="M286.55,532.38h4.85v15.3c0,6-.75,8.25-2.95,10h2.95v8.2c0,5.3,1.9,6.65,1.9,6.65h-4.85s-1.9-.65-1.9-6.65v-4.75H282v11.4H277v-40.1H282v24.15h1.15c2.5,0,3.45-2.5,3.45-7.75Z"/><path class="cls-2" d="M316.1,532.43v33c0,6.3-3.85,7.7-7.25,7.7-3.75,0-7.15-1.6-7.15-7.7v-33h4.95v33.35c0,2.1.75,2.75,2.25,2.75s2.25-.6,2.25-2.75V532.43Z"/><path class="cls-2" d="M341.4,565.83c0,5.3,1.9,6.65,1.9,6.65h-4.85s-1.9-.65-1.9-6.65V539.18c0-1.6-.85-2.6-2.3-2.6s-2.3,1-2.3,2.6v33.3H327v-40.1H332v1.7s.8-2,4.1-2,5.35,1.4,5.35,8Z"/><path class="cls-2" d="M365,564c0,6.4-1.2,10.7-13.15,8.3v-4.75c7.25,1.6,8.2,0,8.2-3.05V561h-8.2v-20.2c0-6.4,1.25-10.7,13.15-8.3v4.75c-7.25-1.6-8.2,0-8.2,3.05v16.25H365Z"/><path class="cls-2" d="M386.15,537.08h-4.1v35.4H377.2v-35.4h-5.35l1.9-4.7h12.4Z"/></svg>