<svg id="Layer_1" data-name="Layer 1" xmlns="http://www.w3.org/2000/svg" width="544" height="740" viewBox="0 0 544 740"><defs><style>.cls-1{fill:none;stroke:#f8ae90;stroke-miterlimit:10;stroke-width:3px;}.cls-2{fill:#ffd4c3;}</style></defs><path class="cls-1" d="M16.45,324.5c29.71-10.28,53.57-9.6,67.1-8.06,19.71,2.23,28.6,7.55,33,10.63,14.35,10.06,26.16,29.25,21.27,35.92-5.7,7.78-36.29,1.64-41.8-13.2-1.58-4.27-.63-8,22-44.73,0,0,26.28-42.66,32.63-58.3a1.91,1.91,0,0,1,.1-.23c1.54-3.8,3-6.68,3.89-8.42,2.85-5.5,4.28-8.25,5.17-8.58,3.24-1.19,6.06,3.2,11.73,6.23,10,5.34,21.16,2.35,23.1,1.84,9.44-2.53,14.66-9.14,21.64-18a101.09,101.09,0,0,0,16.49-30.8c-4.87-1.56-12.55-4-22-7-18-5.65-22.55-7-30.06-9.53-7-2.39-17.26-6.09-29.7-11.36-13.13,14.88-17,35.51-9.9,53.16,7,17.4,24.65,31.16,42.53,30.79,16.4-.33,27.65-11.32,34.46-18,3.8-3.71,1.83-2.67,18.7-29.34,10.49-16.57,16.1-24.66,16.49-37.4a31.12,31.12,0,0,0-.73-9.53c-4.88-19.18-29.27-27.42-42.53-31.9-4.68-1.58-20.85-7.05-22.37-4-1.65,3.29,14.26,16.44,32.63,23.46,14.89,5.71,34.15,8.43,35.92,4,1.9-4.71-16.57-16.71-27.86-22.73a134.3,134.3,0,0,0-44-14.3C166,129.93,152.62,148.75,147,156.55A73.94,73.94,0,0,0,136.21,177c-.11.32-.19.57-.25.79A70,70,0,0,0,133,199.46c0,7.58.07,16,4.4,25.66.62,1.38,2.38,5.14,7.7,12.1a136.92,136.92,0,0,0,20.17,21.27c24.73,21.18,33.58,64.18,49.13,72.6a43.31,43.31,0,0,0,21.27,5.5c8.47-.08,23.72-6,32.26-16.5,17-20.83,6.57-58.6-2.93-60.12-5.47-.89-12.49,9.94-14.67,19.06-5.16,21.57,14.41,43.12,31.53,52.06,3.88,2,17,8.66,33.37,5.87a41.3,41.3,0,0,0,19.79-8.43c8.91-7.23,12.09-16.69,13.21-20.17,6.32-19.7,0-44.77,6.6-52.06.74-.82,3.9-4.49,12.1-8.8a80.55,80.55,0,0,0,17.23-12.11c13.08-11.74,14.08-35,9.91-50.59a60.78,60.78,0,0,0-8.8-18.7c-14.05-21.07-28.9-43-44.74-66a115.29,115.29,0,0,0-40.32,11.73c-15.46,7.85-35.63,22.64-33,29.34,2,5.1,16.53,3.69,20.53,3.3,16-1.55,26.89-10,31.9-13.93,9.47-7.5,21.15-20.43,18.69-23.84-2.73-3.79-22.66,4.66-37.4,15-13.5,9.5-26,18.42-29.33,33s8.44,30.42,31.9,62.32c6.67,9.08,15.53,20.12,30.06,26.4,10,4.31,16.42,3.69,19.07,3.3,7.67-1.13,12.83-5.13,17.59-8.8,3.55-2.72,8.42-6.49,12.11-13.2s4.36-13.06,4.76-18a58.72,58.72,0,0,0-2.93-23.46,129.34,129.34,0,0,0-29.7-.37c-8.87.92-13.93,2.38-26,4.77-7.87,1.55-19.4,3.64-33.73,5.5,5.47,10.62,15.2,25.9,30.8,36.66,9.09,6.27,14.15,6.83,16.14,7,12.28.87,15.91-7.94,23.83-5.5,4.89,1.51,7.1,5.54,15,19.79,4.71,8.47,9.6,16.83,14.3,25.3,18.35,33.12,27.53,49.67,34.46,57.56,2.15,2.45,4.15,5,4.4,8.43.76,10.69-38.31,26.71-41.79,21.27-3.3-5.16,28.06-41.27,70.76-48,30.55-4.84,55.31,7.15,64.9,12.47"/><path class="cls-2" d="M143.08,513.58h-11.9v-40.1h4.95v35.65h7Z"/><path class="cls-2" d="M156.78,513.58h-4.85v-40.1h4.85Z"/><path class="cls-2" d="M168.23,473.48h6.1c6.4,0,8.3,2.4,8.3,10v20.1c0,7.65-1.9,10-8.3,10h-6.1Zm9.55,7.75c0-2.5-.55-3.05-3.25-3.05h-1.35v30.75h1.35c2.7,0,3.25-.6,3.25-3.05Z"/><path class="cls-2" d="M204.38,478.18h-4.1v35.4h-4.85v-35.4h-5.35l1.9-4.7h12.4Z"/><path class="cls-2" d="M240.08,478.18H236v35.4h-4.85v-35.4h-5.35l1.9-4.7h12.4Z"/><path class="cls-2" d="M253.63,513.58h-4.85v-40.1h4.85Z"/><path class="cls-2" d="M277,513.58h-11.9v-40.1H270v35.65h7Z"/><path class="cls-2" d="M301.58,481.88c0-6.4,1.25-10.7,13.15-8.35v4.8c-7.25-1.6-8.2,0-8.2,3.05V507c0,2.1.75,2.75,2.25,2.75s2.25-.6,2.25-2.75v-4.85h-3.25l1.9-4.55H316v9c0,6.3-3.86,7.7-7.25,7.7-3.76,0-7.15-1.6-7.15-7.7Z"/><path class="cls-2" d="M325.42,480.63c0-6.1,3.4-7.7,7.16-7.7,3.5,0,7.25,1.3,7.25,7.7v33h-4.9v-11.4h-4.55v11.4h-5Zm9.51-.45c0-2.2-.85-2.75-2.31-2.75s-2.24.65-2.24,2.75v17.45h4.55Z"/><path class="cls-2" d="M365.12,506.93c0,5.3,1.91,6.65,1.91,6.65h-4.86s-1.89-.65-1.89-6.65V480.28c0-1.6-.86-2.6-2.31-2.6s-2.3,1-2.3,2.6v33.3h-4.95v-40.1h4.95v1.7s.8-1.95,4.11-1.95,5.34,1.4,5.34,8Z"/><path class="cls-2" d="M380.57,505.68c0,3.05.95,4.65,8.21,3.05v4.75c-11.91,2.4-13.16-1.9-13.16-8.3v-23.3c0-6.4,1.25-10.65,13.16-8.3v4.75c-7.26-1.6-8.21,0-8.21,3.05v16.25h7.2v4.55h-7.2Z"/><path class="cls-2" d="M413.27,506.93c0,5.3,1.9,6.65,1.9,6.65h-4.85s-1.9-.65-1.9-6.65V480.28c0-1.6-.85-2.6-2.3-2.6s-2.3,1-2.3,2.6v33.3h-4.95v-40.1h4.95v1.7s.8-1.95,4.1-1.95,5.35,1.4,5.35,8Z"/><path class="cls-2" d="M60.6,574.33c-3.75,0-7.15-1.6-7.15-7.7v-26c0-6.1,3.4-7.7,7.15-7.7,3.4,0,7.26,1.4,7.26,7.7v26C67.86,572.93,64,574.33,60.6,574.33ZM58.4,567c0,2.1.75,2.75,2.25,2.75s2.25-.6,2.25-2.75V540.18c0-2.2-.8-2.75-2.25-2.75s-2.25.65-2.25,2.75Z"/><path class="cls-2" d="M78.3,541.88c0-6.4,1.25-10.7,13.16-8.35v4.8c-7.26-1.6-8.21,0-8.21,3V567c0,2.1.75,2.75,2.25,2.75s2.25-.6,2.25-2.75v-4.85H84.5l1.9-4.55h6.31v9c0,6.3-3.86,7.7-7.26,7.7-3.75,0-7.15-1.6-7.15-7.7Z"/><path class="cls-2" d="M133.2,566.93c0,5.3,1.9,6.65,1.9,6.65h-4.85s-1.9-.65-1.9-6.65V540.28c0-1.6-.85-2.6-2.3-2.6s-2.3,1-2.3,2.6v33.3h-5v-40.1h5v1.7s.8-1.95,4.1-1.95,5.35,1.4,5.35,8Z"/><path class="cls-2" d="M153.45,562.18H144v-28.7h5v24.15h4.55V533.48h4.9v31.65c0,6.4-1.7,10.6-14.5,8.3v-4.75c8.6,1.7,9.6,0,9.6-3Z"/><path class="cls-2" d="M173.75,565.68c0,3.05.95,4.65,8.2,3.05v4.75c-11.9,2.4-13.15-1.9-13.15-8.3v-23.3c0-6.4,1.25-10.65,13.15-8.3v4.75c-7.25-1.6-8.2,0-8.2,3v16.25H181v4.55h-7.2Z"/><path class="cls-2" d="M214.35,533.48c6.4,0,8.3,1.8,8.3,8.4v8c0,4.45-.75,7.1-3,8.8h3v4.85c0,7.65-1.9,10-8.25,10h-6.15v-40.1Zm-1.15,24.15h1.15c2.5,0,3.45-2.5,3.45-7.75v-8.65c0-2.5-.55-3.05-3.25-3.05H213.2Zm4.65,4.55h-4.6v6.75h1.35c2.65,0,3.25-.6,3.25-3Z"/><path class="cls-2" d="M238.15,565.68c0,3.05.95,4.65,8.2,3.05v4.75c-11.9,2.4-13.15-1.9-13.15-8.3v-23.3c0-6.4,1.25-10.65,13.15-8.3v4.75c-7.25-1.6-8.2,0-8.2,3v16.25h7.2v4.55h-7.2Z"/><path class="cls-2" d="M266,533.48h4.85v15.3c0,6-.75,8.25-3,10h3v8.2c0,5.3,1.9,6.65,1.9,6.65H267.9s-1.9-.65-1.9-6.65v-4.75h-4.6v11.4h-4.95v-40.1h4.95v24.15h1.15c2.5,0,3.45-2.5,3.45-7.75Z"/><path class="cls-2" d="M286.1,565.68c0,3.05.95,4.65,8.2,3.05v4.75c-11.9,2.4-13.15-1.9-13.15-8.3v-23.3c0-6.4,1.25-10.65,13.15-8.3v4.75c-7.25-1.6-8.2,0-8.2,3v16.25h7.2v4.55h-7.2Z"/><path class="cls-2" d="M318.8,566.93c0,5.3,1.9,6.65,1.9,6.65h-4.85s-1.9-.65-1.9-6.65V540.28c0-1.6-.85-2.6-2.3-2.6s-2.3,1-2.3,2.6v33.3h-5v-40.1h5v1.7s.8-1.95,4.1-1.95,5.35,1.4,5.35,8Z"/><path class="cls-2" d="M329.75,533.48h6.1c6.4,0,8.3,2.4,8.3,10v20.1c0,7.65-1.9,10-8.3,10h-6.1Zm9.55,7.75c0-2.5-.55-3.05-3.25-3.05H334.7v30.75h1.35c2.7,0,3.25-.6,3.25-3Z"/><path class="cls-2" d="M367.7,565.13c0,6.4-1.2,10.7-13.15,8.3v-4.75c7.25,1.6,8.2,0,8.2-3v-3.5h-8.2v-20.2c0-6.4,1.25-10.7,13.15-8.3v4.75c-7.25-1.6-8.2,0-8.2,3v16.25h8.2Z"/><path class="cls-2" d="M387.65,533.48h4.85v15.3c0,6-.75,8.25-2.95,10h2.95v8.2c0,5.3,1.9,6.65,1.9,6.65h-4.85s-1.9-.65-1.9-6.65v-4.75h-4.6v11.4H378.1v-40.1h4.95v24.15h1.15c2.5,0,3.45-2.5,3.45-7.75Z"/><path class="cls-2" d="M402.8,540.63c0-6.1,3.4-7.7,7.15-7.7,3.5,0,7.25,1.3,7.25,7.7v33h-4.9v-11.4h-4.55v11.4H402.8Zm9.5-.45c0-2.2-.85-2.75-2.3-2.75s-2.25.65-2.25,2.75v17.45h4.55Z"/><path class="cls-2" d="M434.2,533.48c6.4,0,8.3,1.8,8.3,8.4v8c0,4.45-.75,7.1-2.95,8.8h2.95v4.85c0,7.65-1.9,10-8.25,10H428.1v-40.1Zm-1.15,24.15h1.15c2.5,0,3.45-2.5,3.45-7.75v-8.65c0-2.5-.55-3.05-3.25-3.05h-1.35Zm4.65,4.55h-4.6v6.75h1.35c2.65,0,3.25-.6,3.25-3Z"/><path class="cls-2" d="M458,565.68c0,3.05.95,4.65,8.2,3.05v4.75c-11.9,2.4-13.15-1.9-13.15-8.3v-23.3c0-6.4,1.25-10.65,13.15-8.3v4.75c-7.25-1.6-8.2,0-8.2,3v16.25h7.2v4.55H458Z"/><path class="cls-2" d="M482.4,533.48c6.4,0,8.3,1.8,8.3,8.4v8c0,4.45-.75,7.1-2.95,8.8h2.95v8.2c0,5.3,1.9,6.65,1.9,6.65h-4.85s-1.9-.65-1.9-6.65v-4.75h-4.6v11.4H476.3v-40.1Zm-1.15,4.7v19.45h1.15c2.5,0,3.45-2.5,3.45-7.75v-8.65c0-2.5-.6-3.05-3.25-3.05Z"/></svg>