<svg id="Layer_1" data-name="Layer 1" xmlns="http://www.w3.org/2000/svg" width="544" height="740" viewBox="0 0 544 740"><defs><style>.cls-1{fill:#f8ae90;}.cls-2{fill:#ffd4c3;}</style></defs><path class="cls-1" d="M190.16,329.77a194.64,194.64,0,0,0,11.76-48.08c2.22-18.39,1.18-37.43-4.6-55.11a123.87,123.87,0,0,0-8.42-19.22c-2.69-5.08-5.59-10.1-7.57-15.51-5.21-14.22-3-30.24,3.22-43.78a74.56,74.56,0,0,1,22.73-28.75c11.4-8.54,25.07-13.38,39.05-15.58a131.92,131.92,0,0,1,32.62-.87,138.47,138.47,0,0,1,31.92,7c13.19,4.52,26.32,11,36.33,20.87a47,47,0,0,1,11.17,16.51,74.08,74.08,0,0,1,3.93,17.38,84.21,84.21,0,0,1-1.1,28.76c-.75,3.32-1.88,6.53-2.77,9.81a68.48,68.48,0,0,0-2.13,11.55,65.68,65.68,0,0,0,.36,14.56,26.83,26.83,0,0,0,12.88,21c1.44,1,4.33,2.26,4.3,4.31,0,2.87-3.21,5.29-5.4,6.6-2.57,1.54-6.05,2.9-9.07,2.06a5.21,5.21,0,0,1-2.1-1.21c-.22-.19-.67-.94-.89-1s.28-.65-.32.19c-.43.63-.14.34-.13.34a7,7,0,0,0,1.33-.1,8.83,8.83,0,0,1,2.17.39,6.07,6.07,0,0,1,3.63,2.42,4.23,4.23,0,0,1,.15,2.79,48.77,48.77,0,0,0-.59,11.82c.22,2.32.56,3.82-1.78,5.07-2.95,1.59-7,1.13-10.1.07-.81-.28-1.53-.75-2.31-1.05-.09,0-.25-.23-.32-.23-.43,0-.05,1.41-.15,1.39a3.65,3.65,0,0,0,.76-.21,7.23,7.23,0,0,1,5.41,1.13,8.7,8.7,0,0,1,2.84,9.42c-.71,1.89-2.7,2.33-4.12,3.54a8.19,8.19,0,0,0-2.7,4.69c-1.1,5.88,4.69,13.67-1.28,18.09a20.28,20.28,0,0,1-8,3.1A58.34,58.34,0,0,1,330.56,325a93.6,93.6,0,0,1-20.66-1.73A95,95,0,0,1,297.72,320a38.23,38.23,0,0,1-9.53-4.47c-1.79-1.24-3.73-3-2.29-5.23a5.37,5.37,0,0,1,1.86-1.75,3.74,3.74,0,0,1,1.53-.4s0,0,.19.14.06,0,.08.07a2.65,2.65,0,0,1,.24.4,7.61,7.61,0,0,1,.51,1.79,16.66,16.66,0,0,1,.18,2.45,50.54,50.54,0,0,1-.47,7.06,157.59,157.59,0,0,1-3.4,17.34q-1.94,8-4.35,15.81c-.53,1.69-1.07,3.39-1.69,5.06a13.5,13.5,0,0,1-1.48,3,6.69,6.69,0,0,1-5.86,2.89,134.71,134.71,0,0,1-15.54-1.15c-5.47-.57-10.92-1.25-16.37-1.93-10.67-1.33-21.35-2.67-32.09-3.15a136.55,136.55,0,0,0-30.56,1.79,1.54,1.54,0,0,0-1.05,1.84,6.35,6.35,0,0,0,4.79,5A8.66,8.66,0,0,0,190,365a16.66,16.66,0,0,0,4.95-6.09c1.61-3.27,3-6.69,4.4-10,4-9.32,7.84-18.73,11.11-28.33a84.76,84.76,0,0,0,3-10.13c.84-4,1.41-8.14,2.11-12.2q1.54-9,3.12-17.93c1.27-7.22,2.57-14.44,3.83-21.66.52-3,1.13-6,1.39-9a11.49,11.49,0,0,0-.24-3.51,52,52,0,0,0-6.07-15.48,88.35,88.35,0,0,0-8.49-11.36A70.67,70.67,0,0,1,201.05,208a48.26,48.26,0,0,1-5.13-15.42,69.8,69.8,0,0,1,.42-24.28A55.79,55.79,0,0,1,213.75,137c7.45-6.6,16.68-10.86,26.26-13.35,13.68-3.55,28.12-3.73,42.09-2l.94.12.23,0,.78.11c1.25.19,2.49.41,3.72.65a107.15,107.15,0,0,1,10.74,2.64c8.91,2.68,17.94,6.58,24.85,13A29.35,29.35,0,0,1,332,151.51c.92,3.29,1.11,7-.58,10a15.36,15.36,0,0,1-6.66,5.9,70.26,70.26,0,0,1-9.27,3.76q-5.5,1.94-11.1,3.53a190,190,0,0,1-22.48,4.91,66.43,66.43,0,0,1-11.51,1.15,80.8,80.8,0,0,1-8.22-1c-6.5-.82-13-1.44-19.43-2.83-5.2-1.12-10.36-2.75-14.8-5.75a29.18,29.18,0,0,1-10.08-12.61c-4.86-11.06-3.6-25,6.79-32.46,7.79-5.57,18.33-6.93,27.65-5.68,10.63,1.41,19.57,7.56,26.21,15.75a72.74,72.74,0,0,1,6,8.92c2.66,4.53,5.45,9,7.18,14,2.25,6.51,2.25,13.17-1,19.33-3.05,5.69-7.9,10.2-13.12,13.89a104.18,104.18,0,0,1-18.17,10.26c-6.74,3-14.05,5.09-21.46,4.95-11.67-.21-24.28-7.92-26.26-20.19-1-6,1.64-11.86,5.87-16.06,4.79-4.74,11.12-7.26,17.65-8.51,7.49-1.43,15.23-1.39,22.82-1.66l24.31-.88c7-.25,14.07-.71,21,.39,6,1,12.29,3.13,16.26,7.93a19,19,0,0,1,4.28,13.65c-.57,5.56-4.43,9.1-9.78,10.23-3.56.75-7.3.7-10.93.87l-12.2.55c-8.09.37-16.18.76-24.27,1.1-5.8.24-12.84.47-17.51-3.61s-4.78-10.63-2.81-15.95c2.28-6.2,7.87-10.63,13.21-14.14,6.19-4.06,12.71-7.69,19.26-11.14a279.74,279.74,0,0,1,41.75-17.91c14.27-4.75,29.66-8.23,44.75-5.91,12.23,1.89,23.83,8.12,31.23,18.22a34.85,34.85,0,0,1,6.61,15.57c.76,5.38.2,12-4.53,15.54-2.09,1.57-4.87,1.53-6.53-.67s-1.65-5.42-.95-8c1.51-5.51,6.08-9.46,11.1-11.81a33.47,33.47,0,0,1,17.38-2.59c5.3.5,10.42,2.14,15.7,2.81,12.85,1.62,25.4-1.56,36.51-8a1.5,1.5,0,0,0-1.52-2.59,59.54,59.54,0,0,1-18.07,7.1,53.62,53.62,0,0,1-21.34-.24c-5.74-1.16-11.3-2.46-17.21-2.18a32.14,32.14,0,0,0-17.2,5.59c-4.7,3.35-8.38,8.38-8.77,14.29-.37,5.47,3.58,12,9.87,10.17,5.61-1.67,8.53-8.43,8.79-13.8a34.44,34.44,0,0,0-4-17.4c-5.67-11-16.38-19.23-28.06-23-14.89-4.76-31.17-2.71-46,1.37a254.14,254.14,0,0,0-44.34,17.4q-10.71,5.28-20.95,11.44c-5.94,3.56-12,7.36-16.25,12.94-3.78,5-5.7,11.44-4.2,17.61s6.57,10.08,12.61,11.31c7,1.45,14.59.43,21.7.11l25.58-1.16c6.69-.3,14.65.15,19.94-4.71,3.78-3.48,4.89-8.85,4.23-13.77a22,22,0,0,0-7.29-13.69c-5.17-4.36-12-6.16-18.59-6.84-7.51-.78-15.12-.2-22.64.07l-25.77.93c-14,.5-30,1.44-39.31,13.44A21,21,0,0,0,208.91,189c1.22,5.91,5,11.15,9.72,14.85a31.31,31.31,0,0,0,17.73,6.69c7.61.45,15.21-1.44,22.21-4.31a106.79,106.79,0,0,0,19.34-10.45c5.48-3.74,10.63-8.17,14.2-13.82a25.81,25.81,0,0,0,3.61-19.58c-1.3-6.14-4.41-11.65-7.57-17-4.4-7.47-9.31-14.51-16.28-19.84a42.85,42.85,0,0,0-30.42-8.23c-10.76,1-21.76,5.8-26.69,16-5.61,11.62-2.14,26.43,6.26,35.83,8,9,20.59,11.05,31.93,12.55,3.34.44,6.72.72,10.05,1.24a48.6,48.6,0,0,0,9.4.82,99.57,99.57,0,0,0,11.92-1.51q6-1,12-2.37a186.17,186.17,0,0,0,23.35-7c5.82-2.19,12.36-4.93,14.93-11.06s.17-13.58-3.32-19A39.37,39.37,0,0,0,320.6,132.1c-11.86-8.33-26.84-12.28-41.12-13.78-16.37-1.72-33.69-.78-49.13,5.29a59.82,59.82,0,0,0-25.73,18.78c-8,10.33-11.92,23.16-12.46,36.11-.37,8.66.6,17.69,3.83,25.78a53.75,53.75,0,0,0,7.92,13.29c3,3.78,6.25,7.33,9,11.29a49.58,49.58,0,0,1,7.27,15.61c.26.95.48,1.92.7,2.88,0,.11,0,.21.06.32.07.33,0-.51,0,0a14.9,14.9,0,0,1,0,1.89l-.06.6c0,.19-.14,1.08-.06.53-.09.65-.19,1.3-.29,1.95-2.69,17-6,34-8.9,51a89.55,89.55,0,0,1-2.49,11.3c-2.5,8.16-5.64,16.13-8.87,24q-1.91,4.67-3.9,9.3c-1.38,3.21-2.62,6.56-4.26,9.64-1.25,2.33-3.19,4.82-5.79,5.7-2.3.79-5.41-.2-5.78-2.83l-1,1.84c22.86-4.17,46.11-.41,68.9,2.34,5.73.69,11.47,1.33,17.22,1.78,4.88.38,10.88,1.59,14.73-2.25,3.21-3.2,4.33-8.73,5.58-12.94,1.78-6,3.36-12,4.7-18.07a110.36,110.36,0,0,0,2.83-18c.16-3,.49-8.27-2.72-10s-6.91,1.69-8,4.41.32,5.22,2.38,7a31.87,31.87,0,0,0,9.46,5.11,84.59,84.59,0,0,0,12.78,3.72A97.88,97.88,0,0,0,330,328c6.56-.12,14.42-.57,20.06-4.35a9.7,9.7,0,0,0,4.55-7.18c.38-4-1.6-7.73-1.63-11.7a5.58,5.58,0,0,1,2.68-5.06c1.81-1.1,3.28-2,4.08-4.09a11.74,11.74,0,0,0-1.7-10.77,10,10,0,0,0-10.56-3.68c-1.39.41-2.76,1.56-2,3.13s3,2.16,4.41,2.65c5,1.74,15.91,1.76,15.87-5.77,0-1.33-.24-2.65-.31-4a40.52,40.52,0,0,1,.3-7.22c.37-3.06,1.27-5.88-1.07-8.39a10.82,10.82,0,0,0-9-3c-1.21.2-2.39.86-2.46,2.22-.1,1.85,1.79,3.53,3.18,4.44,2.9,1.89,6.76,1.44,9.85.31a18.69,18.69,0,0,0,8.83-6.34c1.59-2.2,2.44-5.24.72-7.62s-4.77-3.67-7.06-5.44a23.2,23.2,0,0,1-8.16-12,51.33,51.33,0,0,1-1.58-15.42A61.09,61.09,0,0,1,361,205.34c.85-3.39,2-6.68,2.87-10.07a86.11,86.11,0,0,0,1.44-30.86c-.78-6.33-1.92-12.85-4.34-18.79a51.48,51.48,0,0,0-12.39-17.76c-10.95-10.45-25.19-17.16-39.47-21.75a141.1,141.1,0,0,0-33.17-6.49,129.91,129.91,0,0,0-37.27,2.53c-15.29,3.42-29.87,10.4-41,21.6a78.39,78.39,0,0,0-20.11,35.12,61,61,0,0,0-1.34,25.54,61,61,0,0,0,6.37,17.43c3.13,6.09,6.54,12,9.18,18.35A108,108,0,0,1,199,248c2.35,18.46.31,37.33-3.81,55.4A177,177,0,0,1,187.27,329c-.71,1.8,2.19,2.58,2.89.8Z"/><path class="cls-2" d="M94,472.53v33c0,6.3-3.85,7.7-7.25,7.7-3.75,0-7.15-1.6-7.15-7.7v-33h5v33.35c0,2.1.75,2.75,2.25,2.75s2.25-.6,2.25-2.75V472.53Z"/><path class="cls-2" d="M104.45,479.63c0-6.1,3.4-7.7,7.15-7.7,3.5,0,7.25,1.3,7.25,7.7v33H114v-11.4H109.4v11.4h-5Zm9.5-.45c0-2.2-.85-2.75-2.3-2.75s-2.25.65-2.25,2.75v17.45H114Z"/><path class="cls-2" d="M134.25,496.63h7.2v4.55h-7.2v11.4H129.3v-31.7c0-6.4.3-10.7,12.15-8.35v4.8c-7.2-1.6-7.2,0-7.2,3.05Z"/><path class="cls-2" d="M151.1,472.48h5v24.15h4.6V472.48h4.85v40.1h-4.85v-11.4h-4.6v11.4h-5Z"/><path class="cls-2" d="M190.9,504.68c0,3.05.95,4.65,8.2,3.05v4.75c-11.9,2.4-13.15-1.9-13.15-8.3v-3.05H181.4v11.45h-5v-33c0-6.1,3.4-7.7,7.15-7.7a7.6,7.6,0,0,1,4.55,1.2c1.8-1.4,5.15-1.9,10.95-.75v4.75c-7.25-1.6-8.2,0-8.2,3.05v16.4h7.25v4.55H190.9Zm-9.5-8.1H186V478.83c0-2.15-.85-2.75-2.3-2.75s-2.25.65-2.25,2.75Z"/><path class="cls-2" d="M223.45,505.93c0,5.3,1.9,6.65,1.9,6.65H220.5s-1.9-.65-1.9-6.65V479.28c0-1.6-.85-2.6-2.3-2.6s-2.3,1-2.3,2.6v33.3h-4.95v-40.1H214v1.7s.8-1.95,4.1-1.95,5.35,1.4,5.35,8Z"/><path class="cls-2" d="M234,480.88c0-6.4,1.25-10.7,13.15-8.35v4.8c-7.25-1.6-8.2,0-8.2,3.05V506c0,2.1.75,2.75,2.25,2.75s2.25-.6,2.25-2.75v-4.85h-3.25l1.9-4.55h6.3v9c0,6.3-3.85,7.7-7.25,7.7-3.75,0-7.15-1.6-7.15-7.7Z"/><path class="cls-2" d="M263.1,512.58h-4.85v-40.1h4.85Z"/><path class="cls-2" d="M274.1,480.88c0-6.4,1.25-10.7,13.15-8.35v4.8c-7.25-1.6-8.2,0-8.2,3.05V506c0,2.1.75,2.75,2.25,2.75s2.25-.6,2.25-2.75v-4.85H280.3l1.9-4.55h6.3v9c0,6.3-3.85,7.7-7.25,7.7-3.75,0-7.15-1.6-7.15-7.7Z"/><path class="cls-2" d="M302.9,504.68c0,3.05,1,4.65,8.2,3.05v4.75c-11.9,2.4-13.15-1.9-13.15-8.3v-23.3c0-6.4,1.25-10.65,13.15-8.3v4.75c-7.25-1.6-8.2,0-8.2,3.05v16.25h7.2v4.55h-7.2Z"/><path class="cls-2" d="M344.1,513.33c-3.75,0-7.15-1.6-7.15-7.7V479.58c0-6.1,3.4-7.7,7.15-7.7,3.4,0,7.25,1.4,7.25,7.7v26.05C351.35,511.93,347.5,513.33,344.1,513.33Zm-2.2-7.3c0,2.1.75,2.75,2.25,2.75s2.25-.6,2.25-2.75V479.18c0-2.2-.8-2.75-2.25-2.75s-2.25.65-2.25,2.75Z"/><path class="cls-2" d="M361.8,480.88c0-6.4,1.25-10.7,13.15-8.35v4.8c-7.25-1.6-8.2,0-8.2,3.05V506c0,2.1.75,2.75,2.25,2.75s2.25-.6,2.25-2.75v-4.85H368l1.9-4.55h6.3v9c0,6.3-3.85,7.7-7.25,7.7-3.75,0-7.15-1.6-7.15-7.7Z"/><path class="cls-2" d="M416.7,505.93c0,5.3,1.9,6.65,1.9,6.65h-4.85s-1.9-.65-1.9-6.65V479.28c0-1.6-.85-2.6-2.3-2.6s-2.3,1-2.3,2.6v33.3H402.3v-40.1h4.95v1.7s.8-1.95,4.1-1.95,5.35,1.4,5.35,8Z"/><path class="cls-2" d="M436.5,501.18H427v-28.7H432v24.15h4.55V472.48h4.9v31.65c0,6.4-1.7,10.6-14.5,8.3v-4.75c8.6,1.7,9.6,0,9.6-3.05Z"/><path class="cls-2" d="M464.9,501H451.45v-4.1H464.9Z"/><path class="cls-2" d="M74.18,537.18h-4.1v35.4H65.23v-35.4H59.88l1.9-4.7h12.4Z"/><path class="cls-2" d="M96.88,564.68c0,3.05,1,4.65,8.2,3.05v4.75c-11.9,2.4-13.15-1.9-13.15-8.3v-3H87.38v11.45H82.43v-33c0-6.1,3.4-7.7,7.15-7.7a7.6,7.6,0,0,1,4.55,1.2c1.8-1.4,5.15-1.9,11-.75v4.75c-7.25-1.6-8.2,0-8.2,3v16.4h7.25v4.55H96.88Zm-9.5-8.1h4.55V538.83c0-2.15-.85-2.75-2.3-2.75s-2.25.65-2.25,2.75Z"/><path class="cls-2" d="M129.43,565.93c0,5.3,1.9,6.65,1.9,6.65h-4.85s-1.9-.65-1.9-6.65V539.28c0-1.6-.85-2.6-2.3-2.6s-2.3,1-2.3,2.6v33.3h-5v-40.1h5v1.7s.8-1.95,4.1-1.95,5.35,1.4,5.35,8Z"/><path class="cls-2" d="M149.93,532.48h4.85v15.3c0,6-.75,8.25-2.95,10h2.95v8.2c0,5.3,1.9,6.65,1.9,6.65h-4.85s-1.9-.65-1.9-6.65v-4.75h-4.6v11.4h-5v-40.1h5v24.15h1.15c2.5,0,3.45-2.5,3.45-7.75Z"/><path class="cls-2" d="M170,564.68c0,3.05.95,4.65,8.2,3.05v4.75c-11.9,2.4-13.15-1.9-13.15-8.3v-23.3c0-6.4,1.25-10.65,13.15-8.3v4.75c-7.25-1.6-8.2,0-8.2,3v16.25h7.2v4.55H170Z"/><path class="cls-2" d="M202.73,565.93c0,5.3,1.9,6.65,1.9,6.65h-4.85s-1.9-.65-1.9-6.65V539.28c0-1.6-.85-2.6-2.3-2.6s-2.3,1-2.3,2.6v33.3h-4.95v-40.1h4.95v1.7s.8-1.95,4.1-1.95,5.35,1.4,5.35,8Z"/><path class="cls-2" d="M213.68,532.48h6.1c6.4,0,8.3,2.4,8.3,10v20.1c0,7.65-1.9,10-8.3,10h-6.1Zm9.55,7.75c0-2.5-.55-3.05-3.25-3.05h-1.35v30.75H220c2.7,0,3.25-.6,3.25-3Z"/><path class="cls-2" d="M243.53,564.68c0,3.05.95,4.65,8.2,3.05v4.75c-11.9,2.4-13.15-1.9-13.15-8.3v-23.3c0-6.4,1.25-10.65,13.15-8.3v4.75c-7.25-1.6-8.2,0-8.2,3v16.25h7.2v4.55h-7.2Z"/><path class="cls-2" d="M287.58,532.48h4.85v15.3c0,6-.75,8.25-2.95,10h2.95v8.2c0,5.3,1.9,6.65,1.9,6.65h-4.85s-1.9-.65-1.9-6.65v-4.75H283v11.4h-5v-40.1h5v24.15h1.15c2.5,0,3.45-2.5,3.45-7.75Z"/><path class="cls-2" d="M317.13,532.53v33c0,6.3-3.85,7.7-7.25,7.7-3.76,0-7.16-1.6-7.16-7.7v-33h5v33.35c0,2.1.75,2.75,2.25,2.75s2.25-.6,2.25-2.75V532.53Z"/><path class="cls-2" d="M342.43,565.93c0,5.3,1.9,6.65,1.9,6.65h-4.86s-1.89-.65-1.89-6.65V539.28c0-1.6-.86-2.6-2.3-2.6s-2.31,1-2.31,2.6v33.3h-5v-40.1h5v1.7s.81-1.95,4.11-1.95,5.35,1.4,5.35,8Z"/><path class="cls-2" d="M366,564.13c0,6.4-1.19,10.7-13.15,8.3v-4.75c7.25,1.6,8.2,0,8.2-3v-3.5h-8.2v-20.2c0-6.4,1.25-10.7,13.15-8.3v4.75c-7.25-1.6-8.2,0-8.2,3v16.25H366Z"/><path class="cls-2" d="M387.17,537.18h-4.1v35.4h-4.85v-35.4h-5.35l1.9-4.7h12.4Z"/><path class="cls-2" d="M410.27,565.93c0,5.3,1.9,6.65,1.9,6.65h-4.85s-1.9-.65-1.9-6.65V539.28c0-1.6-.85-2.6-2.3-2.6s-2.3,1-2.3,2.6v33.3h-4.95v-40.1h4.95v1.7s.8-1.95,4.1-1.95,5.35,1.4,5.35,8Z"/><path class="cls-2" d="M425.72,564.68c0,3.05.95,4.65,8.2,3.05v4.75c-11.9,2.4-13.15-1.9-13.15-8.3v-23.3c0-6.4,1.25-10.65,13.15-8.3v4.75c-7.25-1.6-8.2,0-8.2,3v16.25h7.2v4.55h-7.2Z"/><path class="cls-2" d="M450.12,532.48c6.4,0,8.3,1.8,8.3,8.4v8c0,4.45-.75,7.1-2.95,8.8h2.95v8.2c0,5.3,1.9,6.65,1.9,6.65h-4.85s-1.9-.65-1.9-6.65v-4.75H449v11.4h-5v-40.1Zm-1.15,4.7v19.45h1.15c2.5,0,3.45-2.5,3.45-7.75v-8.65c0-2.5-.6-3.05-3.25-3.05Z"/><path class="cls-2" d="M473.72,564.68c0,3.05.95,4.65,8.2,3.05v4.75c-11.9,2.4-13.15-1.9-13.15-8.3v-23.3c0-6.4,1.25-10.65,13.15-8.3v4.75c-7.25-1.6-8.2,0-8.2,3v16.25h7.2v4.55h-7.2Z"/></svg>