<svg id="Layer_1" data-name="Layer 1" xmlns="http://www.w3.org/2000/svg" width="510" height="300" viewBox="0 0 510 300"><defs><style>.cls-1{fill:#ff4800;}</style></defs><g id="Layer_2" data-name="Layer 2"><path class="cls-1" d="M5.65,138.36c2.86,4.19,8,5.48,12.81,5.92,7.84.72,15.91-.6,23.6-2.06,26.4-5,52.13-14,77.51-22.64,37.24-12.71,74.17-26.3,111.2-39.59q42.5-15.24,85.11-30.14Q371.38,30.47,427,11.64l15.36-5.18-1.84-1q12.57,31,25.16,61.9l1.44-1.9c-13.31-1-26.76,13.07-21.41,26.39,4.6,11.48,20.5,16.08,30.84,9.79l-2.2-.9a263.92,263.92,0,0,0,29.43,67.4l.89-2.2-143,49.76-143,49.76-80.91,28.16,1.85,1.05a254.91,254.91,0,0,0-34.72-76.76l-1.7,2.2c13,2.83,27.14-8.68,26.69-22.15-.43-12.92-14.16-19-25.52-17.27C98,181.69,92,185.05,89,190.85l2.75.36L75,149.51l-1,1.85,122.14-42.19L318.26,67l68.59-23.67L385,41.47a126.9,126.9,0,0,0,6.09,60.79,134.78,134.78,0,0,0,27.59,45,146.1,146.1,0,0,0,13.83,13.2l.66-2.5A871.08,871.08,0,0,0,331.4,186.31a853.84,853.84,0,0,0-111.14,47.44q-27.06,13.92-53.07,29.72l2.26,1.3A160.46,160.46,0,0,0,161.21,199,177.5,177.5,0,0,0,129,143.45C106.8,117.24,73.14,91.7,36.78,96.74c-10,1.38-19.9,5.34-26.1,13.61-5.3,7.07-10.26,19.66-5,28,1,1.63,3.62.13,2.59-1.51-4.61-7.37.37-18.86,5-25,5.54-7.26,14.48-10.71,23.28-12.06,14.89-2.28,29.72,1.16,43.14,7.68,17.16,8.36,32.11,21,44.69,35.24a175.88,175.88,0,0,1,32.22,52.47,158.06,158.06,0,0,1,9.85,69.6,1.52,1.52,0,0,0,1.55,1.49,1.45,1.45,0,0,0,.71-.19,846.48,846.48,0,0,1,210.82-91.71q27-7.62,54.43-13.49A1.51,1.51,0,0,0,435,159a1.53,1.53,0,0,0-.38-.65C409.1,137,391.11,106.82,387.42,73.44a126.68,126.68,0,0,1,.47-31.19c.15-1-.64-2.27-1.84-1.85L263.91,82.59,141.77,124.78,73.18,148.47a1.52,1.52,0,0,0-1,1.84L88.89,192c.44,1.1,2.09,1.61,2.74.36,4.62-8.77,16.52-10.83,25.19-7.52,4.61,1.76,8.5,5.34,9.74,10.22,1.45,5.65-1,11.63-4.77,15.8-4.48,4.9-11.07,7.79-17.71,6.35a1.51,1.51,0,0,0-1.69,2.2,252.28,252.28,0,0,1,34.41,76,1.51,1.51,0,0,0,1.85,1l143-49.76,143-49.76,80.81-28.07a1.52,1.52,0,0,0,1-1.88,1.83,1.83,0,0,0-.14-.32,261,261,0,0,1-29.13-66.69,1.51,1.51,0,0,0-1.88-1A1.79,1.79,0,0,0,475,99c-8.68,5.29-22.22,1.64-26.4-7.9-5-11.55,7.16-23.56,18.48-22.68a1.51,1.51,0,0,0,1.51-1.5,1.32,1.32,0,0,0-.06-.39q-12.54-31-25.1-61.9a1.54,1.54,0,0,0-1.85-1q-56.69,19-113.15,38.69-43.09,15-86.07,30.35C206.69,85.42,171.09,98.48,135.3,111c-27.33,9.55-54.85,19.24-83,26-8.79,2.1-17.77,4-26.83,4.44-5,.23-11.27.35-15.47-2.8a8.45,8.45,0,0,1-1.69-1.74C7.16,135.31,4.56,136.76,5.65,138.36Z"/></g></svg>