<svg xmlns="http://www.w3.org/2000/svg" width="497" height="407" xmlns:v="https://vecta.io/nano"><path d="M-.13-.2h496v407h-496z" fill="#fcebe6"/><path d="M2.37,157.3l44-99,69,48-74,114-39-29Z" fill="#cfe6d3"/><path d="M396.87 65.8l33-66h-123l-14 22zm-397 277.01l29.63-32.38 48.51 4.07 31.43-15.57 15.71 76.77V407l-125.28-.2v-63.99zm497-62.01l-98.55-48.34-87.15 26.64L240 220.5l45.61-83.88L496.87 83.8z" fill="#f2deda"/><path d="M334.07,245.76a1.5,1.5,0,0,0,0-3,1.5,1.5,0,0,0,0,3Z" fill="#fed4c2"/><path d="M48.82 340.44v-8.59h3.65a6.34 6.34 0 0 1 2 .23 2 2 0 0 1 1 .83 2.45 2.45 0 0 1 .38 1.35 2.31 2.31 0 0 1-.57 1.6 2.75 2.75 0 0 1-1.7.79 4.16 4.16 0 0 1 .93.72 10.54 10.54 0 0 1 1 1.4l1 1.67h-2.04l-1.25-1.87a10.94 10.94 0 0 0-.92-1.26 1.44 1.44 0 0 0-.52-.36 2.93 2.93 0 0 0-.87-.1h-.35v3.59zm1.74-5h1.28a6.82 6.82 0 0 0 1.56-.1.88.88 0 0 0 .48-.36 1.13 1.13 0 0 0 .18-.65 1.05 1.05 0 0 0-.23-.7 1.08 1.08 0 0 0-.65-.34h-1.27-1.35zm8.14.68l-1.49-.27a2.35 2.35 0 0 1 .86-1.34 3.17 3.17 0 0 1 1.83-.43 3.82 3.82 0 0 1 1.64.26 1.57 1.57 0 0 1 .76.66 3.34 3.34 0 0 1 .22 1.47v1.93a7 7 0 0 0 .08 1.21 3.66 3.66 0 0 0 .3.83h-1.65c0-.11-.1-.27-.16-.49a1.47 1.47 0 0 0-.06-.19 3.09 3.09 0 0 1-.9.62 2.69 2.69 0 0 1-1 .2 2.11 2.11 0 0 1-1.52-.52 1.74 1.74 0 0 1-.55-1.32 1.76 1.76 0 0 1 .25-.94 1.61 1.61 0 0 1 .71-.63 5.22 5.22 0 0 1 1.3-.39 8.13 8.13 0 0 0 1.6-.4v-.16a.84.84 0 0 0-.23-.68 1.37 1.37 0 0 0-.88-.2 1.21 1.21 0 0 0-.69.17 1.25 1.25 0 0 0-.42.61zm2.2 1.33a8.32 8.32 0 0 1-1 .25 3.2 3.2 0 0 0-.9.3.69.69 0 0 0-.33.58.83.83 0 0 0 .26.6.89.89 0 0 0 .66.25 1.48 1.48 0 0 0 .85-.29 1 1 0 0 0 .39-.55 3.42 3.42 0 0 0 .06-.8zm.2-4.87a1.14 1.14 0 0 1-1.1 1.15 1.15 1.15 0 0 1-.82-.34 1.13 1.13 0 0 1-.33-.81 1.14 1.14 0 0 1 1.15-1.15 1.13 1.13 0 0 1 1.14 1.15zm-.62 0a.47.47 0 0 0-.16-.37.49.49 0 0 0-.36-.15.5.5 0 0 0-.37.15.47.47 0 0 0-.16.37.49.49 0 0 0 .16.37.5.5 0 0 0 .37.15.49.49 0 0 0 .52-.52zm9.37 7.86h-1.53v-.91a2.41 2.41 0 0 1-.9.79 2.32 2.32 0 0 1-1 .26 2.38 2.38 0 0 1-1.84-.86 3.52 3.52 0 0 1-.76-2.41 3.46 3.46 0 0 1 .74-2.41 2.42 2.42 0 0 1 1.88-.82 2.35 2.35 0 0 1 1.81.86v-3.09h1.64zm-4.39-3.25a2.93 2.93 0 0 0 .27 1.45 1.25 1.25 0 0 0 1.12.64 1.21 1.21 0 0 0 1-.48 2.22 2.22 0 0 0 .4-1.45 2.41 2.41 0 0 0-.39-1.54 1.19 1.19 0 0 0-1-.47 1.24 1.24 0 0 0-1 .46 2.13 2.13 0 0 0-.4 1.39zm7.66-5.34V335a2.42 2.42 0 0 1 1.9-.93 2.46 2.46 0 0 1 1 .21 1.64 1.64 0 0 1 .68.54 1.94 1.94 0 0 1 .32.72 6.37 6.37 0 0 1 .08 1.24v3.65h-1.61v-3.29a4.45 4.45 0 0 0-.1-1.24.84.84 0 0 0-.33-.42 1.05 1.05 0 0 0-.59-.15 1.29 1.29 0 0 0-.73.2 1.12 1.12 0 0 0-.48.6 3.85 3.85 0 0 0-.14 1.18v3.12h-1.65v-8.59zm9.78 8.59v-.93a2.53 2.53 0 0 1-2.06 1.07 2.36 2.36 0 0 1-1.13-.27 1.7 1.7 0 0 1-.72-.78 3.4 3.4 0 0 1-.22-1.37v-3.94h1.65v2.86a8.08 8.08 0 0 0 .09 1.61.86.86 0 0 0 .33.46 1 1 0 0 0 .61.18 1.3 1.3 0 0 0 .75-.23 1.16 1.16 0 0 0 .46-.58 6.85 6.85 0 0 0 .12-1.68v-2.62h1.65v6.22zm2.65-1.77l1.66-.26a1.21 1.21 0 0 0 .42.73 1.45 1.45 0 0 0 .91.25 1.7 1.7 0 0 0 1-.23.54.54 0 0 0 .21-.44.41.41 0 0 0-.11-.31 1.34 1.34 0 0 0-.55-.22 9 9 0 0 1-2.53-.8 1.61 1.61 0 0 1-.74-1.4 1.75 1.75 0 0 1 .64-1.36 3 3 0 0 1 2-.55 3.53 3.53 0 0 1 1.9.41 2.19 2.19 0 0 1 .86 1.23l-1.62.28a1 1 0 0 0-.37-.56 1.48 1.48 0 0 0-.8-.19 1.81 1.81 0 0 0-.93.18.42.42 0 0 0-.19.34.39.39 0 0 0 .17.3 6.26 6.26 0 0 0 1.53.46 4.59 4.59 0 0 1 1.84.73 1.5 1.5 0 0 1 .52 1.23 1.87 1.87 0 0 1-.72 1.47 3.14 3.14 0 0 1-2.11.61 3.53 3.53 0 0 1-2-.51 2.45 2.45 0 0 1-.99-1.39zm7.21-4.45h1.54v.91a2.37 2.37 0 0 1 .81-.76 2.26 2.26 0 0 1 1.13-.29 2.37 2.37 0 0 1 1.84.85 3.43 3.43 0 0 1 .75 2.36 3.56 3.56 0 0 1-.76 2.43 2.39 2.39 0 0 1-1.85.86 2.18 2.18 0 0 1-.93-.2 3.11 3.11 0 0 1-.88-.71v3.14h-1.65zm1.63 3a2.37 2.37 0 0 0 .42 1.55 1.24 1.24 0 0 0 1 .5 1.2 1.2 0 0 0 1-.46 2.35 2.35 0 0 0 .38-1.5 2.21 2.21 0 0 0-.4-1.46 1.22 1.22 0 0 0-1-.47 1.25 1.25 0 0 0-1 .46 2 2 0 0 0-.4 1.38zm5.75 3.22v-8.59h1.65v8.59zm4.56-4.32l-1.49-.27a2.36 2.36 0 0 1 .87-1.34 3.16 3.16 0 0 1 1.82-.43 3.88 3.88 0 0 1 1.65.26 1.59 1.59 0 0 1 .75.66 3.34 3.34 0 0 1 .22 1.47v1.93a6.09 6.09 0 0 0 .08 1.21 3.59 3.59 0 0 0 .29.83h-1.63c0-.11-.09-.27-.16-.49s0-.16 0-.19a3.27 3.27 0 0 1-.91.62 2.69 2.69 0 0 1-1 .2 2.13 2.13 0 0 1-1.52-.52 1.74 1.74 0 0 1-.55-1.32 1.76 1.76 0 0 1 .25-.94 1.61 1.61 0 0 1 .71-.63 5.32 5.32 0 0 1 1.31-.39 8.34 8.34 0 0 0 1.6-.4v-.16a.84.84 0 0 0-.24-.68 1.35 1.35 0 0 0-.88-.2 1.23 1.23 0 0 0-.69.17 1.25 1.25 0 0 0-.48.61zm2.21 1.33a8.6 8.6 0 0 1-1 .25 3.2 3.2 0 0 0-.89.29.67.67 0 0 0-.32.58.82.82 0 0 0 .25.6.91.91 0 0 0 .66.25 1.45 1.45 0 0 0 .85-.29 1 1 0 0 0 .39-.55 3.26 3.26 0 0 0 .07-.8zm8.94 2.99h-1.53v-.91a2.41 2.41 0 0 1-.9.79 2.32 2.32 0 0 1-1 .26 2.38 2.38 0 0 1-1.84-.86 4.25 4.25 0 0 1 0-4.82 2.42 2.42 0 0 1 1.88-.82 2.35 2.35 0 0 1 1.81.86v-3.09h1.64zm-4.39-3.25a2.93 2.93 0 0 0 .27 1.45 1.25 1.25 0 0 0 1.12.64 1.19 1.19 0 0 0 1-.48 2.22 2.22 0 0 0 .4-1.45 2.48 2.48 0 0 0-.38-1.54 1.21 1.21 0 0 0-1-.47 1.26 1.26 0 0 0-1 .46 2.13 2.13 0 0 0-.41 1.39zm5.44 1.48l1.65-.26a1.17 1.17 0 0 0 .43.73 1.4 1.4 0 0 0 .9.25 1.68 1.68 0 0 0 1-.23.54.54 0 0 0 .22-.44.41.41 0 0 0-.12-.31 1.34 1.34 0 0 0-.55-.22 9 9 0 0 1-2.53-.8 1.6 1.6 0 0 1-.73-1.4 1.74 1.74 0 0 1 .63-1.36 3 3 0 0 1 2-.55 3.5 3.5 0 0 1 1.9.41 2.14 2.14 0 0 1 .86 1.23L121 336a1 1 0 0 0-.38-.56 1.48 1.48 0 0 0-.8-.19 1.81 1.81 0 0 0-.93.18.42.42 0 0 0-.19.34.39.39 0 0 0 .17.3 6.24 6.24 0 0 0 1.54.46 4.54 4.54 0 0 1 1.83.73 1.5 1.5 0 0 1 .52 1.23A1.87 1.87 0 0 1 122 340a3.14 3.14 0 0 1-2.11.61 3.48 3.48 0 0 1-2-.51 2.36 2.36 0 0 1-.99-1.43zm10.85-.21l1.64.28a2.68 2.68 0 0 1-1 1.37 3 3 0 0 1-1.71.47 2.76 2.76 0 0 1-2.4-1.06 3.57 3.57 0 0 1-.62-2.14 3.46 3.46 0 0 1 .81-2.43 2.67 2.67 0 0 1 2-.87 2.75 2.75 0 0 1 2.19.91 4 4 0 0 1 .77 2.81h-4.12a1.62 1.62 0 0 0 .4 1.14 1.21 1.21 0 0 0 .95.41 1 1 0 0 0 .65-.21 1.35 1.35 0 0 0 .44-.68zm.1-1.66a1.6 1.6 0 0 0-.37-1.09 1.14 1.14 0 0 0-.86-.37 1.15 1.15 0 0 0-.89.39 1.51 1.51 0 0 0-.34 1.07zm8.63 3.64h-1.64v-3.17a4.88 4.88 0 0 0-.11-1.31.89.89 0 0 0-.34-.46 1 1 0 0 0-.57-.16 1.37 1.37 0 0 0-.77.23 1.17 1.17 0 0 0-.46.62 5.12 5.12 0 0 0-.13 1.43v2.82h-1.65v-6.22h1.53v.91a2.58 2.58 0 0 1 3-.86 1.65 1.65 0 0 1 .68.5 1.79 1.79 0 0 1 .32.7 5.06 5.06 0 0 1 .09 1.1zm219-156.61v-10h2v10zm3.97 0v-10h2l4.1 6.69v-6.69h1.88v10h-2l-4-6.53v6.53zm10.09-10.02h3.7a7.49 7.49 0 0 1 1.9.19 3.35 3.35 0 0 1 1.51.93 4.36 4.36 0 0 1 1 1.62 7.36 7.36 0 0 1 .33 2.37 6.47 6.47 0 0 1-.31 2.13 4.44 4.44 0 0 1-1.07 1.77 3.6 3.6 0 0 1-1.42.8 6.25 6.25 0 0 1-1.8.21h-3.8zm2 1.7v6.64h1.51a5.79 5.79 0 0 0 1.23-.1 1.79 1.79 0 0 0 .81-.42 2.11 2.11 0 0 0 .53-1 6.45 6.45 0 0 0 .21-1.84 5.82 5.82 0 0 0-.21-1.78 2.33 2.33 0 0 0-.57-1 2 2 0 0 0-.94-.48 9.67 9.67 0 0 0-1.66-.09zm8.12 8.32v-10h4.26a7.24 7.24 0 0 1 2.33.27 2.29 2.29 0 0 1 1.17 1 2.91 2.91 0 0 1 .44 1.58 2.62 2.62 0 0 1-.67 1.86 3.19 3.19 0 0 1-2 .93 5.13 5.13 0 0 1 1.09.84 12.89 12.89 0 0 1 1.15 1.63l1.22 2h-2.42l-1.46-2.18a13.7 13.7 0 0 0-1.07-1.47 1.6 1.6 0 0 0-.61-.42 3.5 3.5 0 0 0-1-.11h-.41v4.18zm2-5.78h1.5a7.94 7.94 0 0 0 1.82-.12 1.12 1.12 0 0 0 .57-.43 1.35 1.35 0 0 0 .2-.75 1.17 1.17 0 0 0-.27-.81 1.25 1.25 0 0 0-.76-.4h-1.48-1.58zm8.1 5.78v-10h7.44v1.7h-5.41v2.22h5v1.69h-5v2.73h5.6v1.68zM403 173.81h4a12.42 12.42 0 0 1 1.78.1 2.7 2.7 0 0 1 1.05.42 2.44 2.44 0 0 1 .76.83 2.23 2.23 0 0 1 .31 1.17 2.4 2.4 0 0 1-.38 1.3 2.33 2.33 0 0 1-1 .88 2.66 2.66 0 0 1 1.41.91 2.4 2.4 0 0 1 .49 1.51 3 3 0 0 1-.31 1.33 2.84 2.84 0 0 1-.87 1 2.87 2.87 0 0 1-1.36.48l-2.44.06H403zm2 1.67v2.32h1.33a14.12 14.12 0 0 0 1.47 0 1.33 1.33 0 0 0 .82-.36 1.06 1.06 0 0 0 .29-.78 1.08 1.08 0 0 0-.25-.75 1.22 1.22 0 0 0-.77-.36h-1.73zm0 4v2.68h1.88a8.67 8.67 0 0 0 1.38-.07 1.17 1.17 0 0 0 1-1.25 1.26 1.26 0 0 0-.22-.76 1.21 1.21 0 0 0-.63-.46 6.72 6.72 0 0 0-1.79-.14zm10.73 4.35v-4.21l-3.67-5.81h2.38l2.35 4 2.31-4h2.34l-3.69 5.82v4.2zM319.84 17.24v-10h2v4.45L326 7.22h2.72l-3.77 3.9 4 6.12h-2.62l-2.75-4.71-1.64 1.68v3zM337.38 8l1.08-1.21 1 .83-1.14 1.29a4.7 4.7 0 0 1 .71 1.51 7 7 0 0 1 .25 1.91 5.21 5.21 0 0 1-1.37 3.67 4.63 4.63 0 0 1-3.49 1.37 4.84 4.84 0 0 1-3-.86l-1.11 1.25-1-.85 1.17-1.31a5.63 5.63 0 0 1-1-3.48 5.16 5.16 0 0 1 1.32-3.74A4.64 4.64 0 0 1 334.35 7a4.91 4.91 0 0 1 3.03 1zm-1.26 1.4a2.6 2.6 0 0 0-1.75-.58 2.56 2.56 0 0 0-2 .85 3.82 3.82 0 0 0-.77 2.59 4.88 4.88 0 0 0 .32 1.86zm.74 1.08l-4.2 4.72a2.49 2.49 0 0 0 1.7.62 2.56 2.56 0 0 0 2-.88 3.84 3.84 0 0 0 .79-2.64 5 5 0 0 0-.29-1.87zm3.96-3.26h4a12.7 12.7 0 0 1 1.77.09 2.7 2.7 0 0 1 1 .42 2.6 2.6 0 0 1 .77.84 2.26 2.26 0 0 1 .3 1.17 2.34 2.34 0 0 1-.37 1.29 2.38 2.38 0 0 1-1 .88 2.59 2.59 0 0 1 1.4.91 2.41 2.41 0 0 1 .5 1.51 3 3 0 0 1-.32 1.33 2.59 2.59 0 0 1-.87 1 2.87 2.87 0 0 1-1.36.48l-2.44.07h-3.41zm2 1.66v2.32h1.32q1.18 0 1.47 0a1.33 1.33 0 0 0 .82-.36 1.06 1.06 0 0 0 .3-.79 1.09 1.09 0 0 0-.26-.75 1.18 1.18 0 0 0-.76-.35h-1.73zm0 4v2.68h1.87a9.45 9.45 0 0 0 1.39-.06 1.29 1.29 0 0 0 .73-.4 1.25 1.25 0 0 0 .29-.85 1.37 1.37 0 0 0-.22-.77 1.28 1.28 0 0 0-.64-.46 7.13 7.13 0 0 0-1.79-.14zm8.11 4.36v-10h7.43v1.67H353v2.22h5v1.69h-5v2.73h5.6v1.69zm9.35 0v-10h2l4.1 6.69V7.22h1.88v10h-2l-4-6.54v6.54zm10.1 0v-10h2v3.94h4V7.22h2v10h-2v-4.37h-4v4.39zm19.14 0h-2.2l-.87-2.24h-4l-.83 2.28h-2.14l3.9-10h2.14zm-3.72-4l-1.38-3.72-1.36 3.72zm6.31 4l-3.58-10h2.19l2.54 7.41 2.45-7.41h2.15l-3.59 10zm6.8 0v-10h2l4.1 6.69V7.22h1.88v10h-2l-4-6.54v6.54zm14.01 0v-10h2v4.45L419 7.22h2.72l-3.72 3.9 4 6.12h-2.62l-2.75-4.71-1.65 1.68v3z" fill="#cc7b62"/><path d="M38.89 140.9l.77-.87.68.6-.82.92a3.19 3.19 0 0 1 .51 1.08 5 5 0 0 1 .18 1.36 3.76 3.76 0 0 1-.94 2.69 3.31 3.31 0 0 1-2.49 1 3.45 3.45 0 0 1-2.15-.61l-.79.89-.7-.6.84-.94a4 4 0 0 1-.71-2.48 3.71 3.71 0 0 1 .94-2.68 3.33 3.33 0 0 1 2.51-1 3.54 3.54 0 0 1 2.17.64zm-.9 1a1.87 1.87 0 0 0-1.25-.42 1.84 1.84 0 0 0-1.44.62 2.7 2.7 0 0 0-.55 1.84 3.52 3.52 0 0 0 .23 1.33zm.53.77l-3 3.37a1.74 1.74 0 0 0 1.21.44 1.84 1.84 0 0 0 1.43-.63 2.76 2.76 0 0 0 .55-1.88 3.72 3.72 0 0 0-.19-1.3zm4.13 4.86h-1.38v-5.18h1.28v.73a2.2 2.2 0 0 1 .59-.68 1 1 0 0 1 .59-.17 1.76 1.76 0 0 1 .9.26l-.42 1.19a1.2 1.2 0 0 0-.65-.22.71.71 0 0 0-.48.16 1.06 1.06 0 0 0-.32.57 8.07 8.07 0 0 0-.11 1.74zm5.58-1.65l1.36.23a2.25 2.25 0 0 1-.83 1.15 2.45 2.45 0 0 1-1.42.39 2.34 2.34 0 0 1-2-.88 2.94 2.94 0 0 1-.52-1.79 2.87 2.87 0 0 1 .68-2 2.2 2.2 0 0 1 1.7-.73 2.31 2.31 0 0 1 1.8.75 3.41 3.41 0 0 1 .64 2.34h-3.41a1.38 1.38 0 0 0 .33.95 1 1 0 0 0 .79.34.8.8 0 0 0 .54-.17 1.13 1.13 0 0 0 .34-.58zm.07-1.38a1.31 1.31 0 0 0-.3-.91 1 1 0 0 0-1.46 0 1.29 1.29 0 0 0-.29.89zm2 1.55l1.38-.21a1 1 0 0 0 .36.61 1.16 1.16 0 0 0 .75.21 1.37 1.37 0 0 0 .8-.2.43.43 0 0 0 .18-.36.34.34 0 0 0-.1-.26 1 1 0 0 0-.46-.18 7.61 7.61 0 0 1-2.1-.67 1.34 1.34 0 0 1-.62-1.17 1.44 1.44 0 0 1 .53-1.13 2.48 2.48 0 0 1 1.65-.46 2.93 2.93 0 0 1 1.59.35 1.78 1.78 0 0 1 .71 1l-1.29.24a.78.78 0 0 0-.32-.46 1.11 1.11 0 0 0-.66-.16 1.53 1.53 0 0 0-.78.15.32.32 0 0 0-.15.28.28.28 0 0 0 .13.24 4.94 4.94 0 0 0 1.28.39 3.88 3.88 0 0 1 1.54.61 1.29 1.29 0 0 1 .43 1 1.58 1.58 0 0 1-.6 1.23 2.64 2.64 0 0 1-1.76.51 2.86 2.86 0 0 1-1.68-.43 2 2 0 0 1-.81-1.13zm8.42-3.7v1.09h-.93v2.09.74a.27.27 0 0 0 .13.17.35.35 0 0 0 .23.07 1.67 1.67 0 0 0 .55-.13l.12 1.06a2.68 2.68 0 0 1-1.09.21 1.63 1.63 0 0 1-.67-.13 1 1 0 0 1-.43-.32 1.22 1.22 0 0 1-.2-.53 6.76 6.76 0 0 1 0-1v-2.26h-.63v-1.09h.63v-1l1.38-.8v1.83zm3.96 3.53l1.37.23a2.33 2.33 0 0 1-.84 1.15 2.43 2.43 0 0 1-1.42.39 2.34 2.34 0 0 1-2-.88 3 3 0 0 1-.51-1.79 2.87 2.87 0 0 1 .67-2 2.21 2.21 0 0 1 1.7-.73 2.3 2.3 0 0 1 1.83.76 3.36 3.36 0 0 1 .64 2.34h-3.44a1.38 1.38 0 0 0 .33.95 1.05 1.05 0 0 0 .8.34.83.83 0 0 0 .54-.17 1.2 1.2 0 0 0 .33-.59zm.08-1.38a1.31 1.31 0 0 0-.31-.91 1 1 0 0 0-1.45 0 1.2 1.2 0 0 0-.29.89zm7.24 3.03h-1.28v-.76a2 2 0 0 1-.75.66 1.87 1.87 0 0 1-.87.22 2 2 0 0 1-1.53-.72 3.51 3.51 0 0 1 0-4 2 2 0 0 1 1.57-.69 1.93 1.93 0 0 1 1.5.72v-2.58H70zm-3.66-2.7a2.42 2.42 0 0 0 .23 1.2 1 1 0 0 0 1.74.13 1.87 1.87 0 0 0 .33-1.2 2 2 0 0 0-.33-1.29 1 1 0 0 0-.82-.39 1 1 0 0 0-.82.39 1.75 1.75 0 0 0-.34 1.16zm4.52 1.22l1.38-.21a1 1 0 0 0 .36.61 1.19 1.19 0 0 0 .75.21 1.37 1.37 0 0 0 .8-.2.43.43 0 0 0 .18-.36.34.34 0 0 0-.1-.26 1 1 0 0 0-.46-.18 7.61 7.61 0 0 1-2.1-.67 1.34 1.34 0 0 1-.62-1.17 1.42 1.42 0 0 1 .54-1.13 2.45 2.45 0 0 1 1.65-.46 2.89 2.89 0 0 1 1.58.35 1.78 1.78 0 0 1 .71 1l-1.29.24a.78.78 0 0 0-.32-.46 1.11 1.11 0 0 0-.66-.16 1.53 1.53 0 0 0-.78.15.32.32 0 0 0-.15.28.28.28 0 0 0 .13.24 5.08 5.08 0 0 0 1.29.39 3.89 3.89 0 0 1 1.53.61 1.29 1.29 0 0 1 .43 1 1.58 1.58 0 0 1-.6 1.23 2.64 2.64 0 0 1-1.76.51 2.86 2.86 0 0 1-1.68-.43 2 2 0 0 1-.81-1.13zm6.01-3.7h1.28v.76a2 2 0 0 1 .67-.64 1.91 1.91 0 0 1 .94-.24 2 2 0 0 1 1.54.71 2.86 2.86 0 0 1 .63 2 2.92 2.92 0 0 1-.64 2 2 2 0 0 1-1.54.72 1.77 1.77 0 0 1-.77-.17 2.65 2.65 0 0 1-.74-.59v2.61h-1.37zm1.36 2.5a2 2 0 0 0 .34 1.29 1.07 1.07 0 0 0 .85.42 1 1 0 0 0 .79-.38 1.94 1.94 0 0 0 .32-1.26 1.86 1.86 0 0 0-.33-1.21 1 1 0 0 0-.81-.4 1 1 0 0 0-.83.39 1.73 1.73 0 0 0-.33 1.15zm5.77-.92l-1.24-.23a1.94 1.94 0 0 1 .72-1.11 2.64 2.64 0 0 1 1.52-.36 3.19 3.19 0 0 1 1.37.22 1.33 1.33 0 0 1 .63.55 2.82 2.82 0 0 1 .19 1.23v1.6a5.06 5.06 0 0 0 .07 1 2.85 2.85 0 0 0 .24.69h-1.33c0-.09-.08-.22-.14-.4s0-.14 0-.16a2.82 2.82 0 0 1-.76.51 2.19 2.19 0 0 1-.85.17 1.74 1.74 0 0 1-1.26-.44 1.41 1.41 0 0 1-.46-1.09 1.48 1.48 0 0 1 .21-.79 1.28 1.28 0 0 1 .58-.52 4.33 4.33 0 0 1 1.1-.32 8.9 8.9 0 0 0 1.33-.34V144a.7.7 0 0 0-.2-.56 1.16 1.16 0 0 0-.73-.17 1.06 1.06 0 0 0-.58.14 1.13 1.13 0 0 0-.41.52zm1.88 1.07a8.34 8.34 0 0 1-.84.21 2.29 2.29 0 0 0-.74.24.58.58 0 0 0-.3.55.67.67 0 0 0 .21.5.77.77 0 0 0 .55.21 1.21 1.21 0 0 0 .71-.24.9.9 0 0 0 .32-.46 2.37 2.37 0 0 0 .06-.66zm4.01 2.53h-1.37v-5.18h1.27v.73a2.34 2.34 0 0 1 .59-.68 1 1 0 0 1 .6-.17 1.76 1.76 0 0 1 .9.26l-.43 1.19a1.17 1.17 0 0 0-.64-.22.76.76 0 0 0-.49.16 1.05 1.05 0 0 0-.31.57 7.86 7.86 0 0 0-.12 1.74zm2.53 0v-7.16h1.37v3.8l1.61-1.82h1.69l-1.77 1.89 1.9 3.29h-1.48l-1.31-2.33-.64.67v1.66zm8.58-1.65l1.37.23a2.25 2.25 0 0 1-.83 1.15 2.47 2.47 0 0 1-1.42.39 2.36 2.36 0 0 1-2-.88 3 3 0 0 1-.51-1.79 2.91 2.91 0 0 1 .67-2 2.22 2.22 0 0 1 1.71-.73 2.31 2.31 0 0 1 1.83.76 3.41 3.41 0 0 1 .63 2.34H99a1.38 1.38 0 0 0 .33.95 1 1 0 0 0 .79.34.8.8 0 0 0 .54-.17 1.06 1.06 0 0 0 .34-.59zm.08-1.38a1.31 1.31 0 0 0-.31-.91.92.92 0 0 0-.71-.31 1 1 0 0 0-.74.33 1.24 1.24 0 0 0-.29.89zm7.23 3.03h-1.37v-2.64a4 4 0 0 0-.09-1.09.7.7 0 0 0-.29-.38.75.75 0 0 0-.47-.14 1.1 1.1 0 0 0-.64.19 1 1 0 0 0-.39.52 4.55 4.55 0 0 0-.1 1.19v2.35h-1.38v-5.18h1.28v.76a2.14 2.14 0 0 1 2.54-.72 1.31 1.31 0 0 1 .56.42 1.47 1.47 0 0 1 .27.58 4.21 4.21 0 0 1 .08.92z"/><g fill="#cc7b62"><path d="M273.2 237.29l1.41-.14a1.74 1.74 0 0 0 .52 1 1.53 1.53 0 0 0 1 .33 1.67 1.67 0 0 0 1.06-.29.9.9 0 0 0 .35-.69.67.67 0 0 0-.15-.44 1.29 1.29 0 0 0-.52-.31c-.17 0-.55-.16-1.16-.31a3.91 3.91 0 0 1-1.63-.71 1.85 1.85 0 0 1-.66-1.44 1.87 1.87 0 0 1 1.21-1.74 3.52 3.52 0 0 1 1.41-.25 3 3 0 0 1 2 .59 2.05 2.05 0 0 1 .72 1.57l-1.45.07a1.27 1.27 0 0 0-.39-.8 1.49 1.49 0 0 0-.92-.24 1.69 1.69 0 0 0-1 .26.53.53 0 0 0-.23.45.55.55 0 0 0 .22.43 3.87 3.87 0 0 0 1.33.48 7.85 7.85 0 0 1 1.56.51 2.06 2.06 0 0 1 .79.73 2.14 2.14 0 0 1 .28 1.14 2.06 2.06 0 0 1-.34 1.15 2 2 0 0 1-1 .8 4 4 0 0 1-1.56.26 3.11 3.11 0 0 1-2.09-.62 2.79 2.79 0 0 1-.76-1.79zm8.65 2.33v-6h-2.12v-1.21h5.69v1.21h-2.12v6zm4.5 0v-7.16h3a5.12 5.12 0 0 1 1.66.19 1.66 1.66 0 0 1 .84.69 2.13 2.13 0 0 1 .31 1.13 1.91 1.91 0 0 1-.48 1.33 2.23 2.23 0 0 1-1.41.66 3.21 3.21 0 0 1 .77.6 7.81 7.81 0 0 1 .83 1.16l.87 1.4h-1.73l-1-1.56a9.53 9.53 0 0 0-.77-1.05 1 1 0 0 0-.43-.3 2.53 2.53 0 0 0-.73-.08h-.29v3zm1.45-4.13h1.07a5.47 5.47 0 0 0 1.3-.09.81.81 0 0 0 .4-.3 1 1 0 0 0 .15-.54.88.88 0 0 0-.19-.58.89.89 0 0 0-.55-.29h-1.05-1.13zm11.09-2.49l.77-.86.68.59-.81.92a3.19 3.19 0 0 1 .51 1.08 5.09 5.09 0 0 1 .18 1.37 3.7 3.7 0 0 1-1 2.68 3.28 3.28 0 0 1-2.49 1 3.47 3.47 0 0 1-2.15-.61l-.79.89-.69-.61.84-.94a4 4 0 0 1-.72-2.48 3.71 3.71 0 0 1 .94-2.67 3.31 3.31 0 0 1 2.52-1 3.48 3.48 0 0 1 2.21.64zm-.9 1a1.84 1.84 0 0 0-1.25-.42 1.81 1.81 0 0 0-1.43.61 2.67 2.67 0 0 0-.55 1.85 3.52 3.52 0 0 0 .23 1.33zm.54.76l-3 3.38a1.8 1.8 0 0 0 1.21.44 1.82 1.82 0 0 0 1.43-.63 2.73 2.73 0 0 0 .56-1.88 3.78 3.78 0 0 0-.2-1.32zm6.15 2.24v-1.21h3.11v2.85a3.9 3.9 0 0 1-1.31.77 4.69 4.69 0 0 1-1.75.34 4 4 0 0 1-2-.47 3.08 3.08 0 0 1-1.25-1.35 4.35 4.35 0 0 1-.42-1.91 4.14 4.14 0 0 1 .47-2 3.17 3.17 0 0 1 1.37-1.34 3.8 3.8 0 0 1 1.71-.35 3.39 3.39 0 0 1 2.09.56 2.48 2.48 0 0 1 1 1.54l-1.43.27a1.54 1.54 0 0 0-.57-.83 1.7 1.7 0 0 0-1.05-.31 1.94 1.94 0 0 0-1.5.6 2.56 2.56 0 0 0-.56 1.79 2.81 2.81 0 0 0 .57 1.91 1.88 1.88 0 0 0 1.48.63 2.66 2.66 0 0 0 .91-.17 3.06 3.06 0 0 0 .78-.44V237zm4.45 2.62v-7.16h5.3v1.21h-3.86v1.59h3.6v1.2h-3.6v1.95h4v1.21zm8.28 0v-6h-2.13v-1.21H321v1.21h-2.12v6zM97.48 57v-7.12h1.41l2.93 4.78v-4.78h1.34V57h-1.45l-2.88-4.67V57zM110 50.41l.77-.87.68.6-.81.92a3.19 3.19 0 0 1 .51 1.08 5 5 0 0 1 .18 1.36 3.73 3.73 0 0 1-1 2.69 3.28 3.28 0 0 1-2.49 1 3.47 3.47 0 0 1-2.15-.61l-.79.89-.69-.6.84-.94a4 4 0 0 1-.72-2.48 3.72 3.72 0 0 1 1-2.68 3.31 3.31 0 0 1 2.51-1 3.49 3.49 0 0 1 2.16.64zm-.9 1a2 2 0 0 0-2.68.19 2.69 2.69 0 0 0-.55 1.85 3.52 3.52 0 0 0 .23 1.33zm.54.77l-3 3.37a1.75 1.75 0 0 0 1.21.44 1.82 1.82 0 0 0 1.43-.63 2.71 2.71 0 0 0 .56-1.88 3.72 3.72 0 0 0-.19-1.3zm2.83 4.82v-7.12h3a5.06 5.06 0 0 1 1.66.2 1.64 1.64 0 0 1 .84.68 2.15 2.15 0 0 1 .31 1.13 1.89 1.89 0 0 1-.48 1.33 2.23 2.23 0 0 1-1.41.66 3.49 3.49 0 0 1 .77.6 8 8 0 0 1 .83 1.17l.87 1.39h-1.73l-1-1.56a12.21 12.21 0 0 0-.77-1 1.2 1.2 0 0 0-.43-.3 2.53 2.53 0 0 0-.73-.08h-.29v3zm1.45-4.13H115a5.47 5.47 0 0 0 1.3-.09.81.81 0 0 0 .4-.3.91.91 0 0 0 .15-.54.9.9 0 0 0-.19-.58.88.88 0 0 0-.55-.28 9.92 9.92 0 0 0-1 0h-1.13zM119.7 57v-7.12h3a5.06 5.06 0 0 1 1.66.2 1.64 1.64 0 0 1 .84.68 2.06 2.06 0 0 1 .31 1.13 1.93 1.93 0 0 1-.47 1.33 2.29 2.29 0 0 1-1.42.66 3.49 3.49 0 0 1 .77.6 8 8 0 0 1 .83 1.17l.87 1.39h-1.69l-1-1.56a13 13 0 0 0-.76-1 1.33 1.33 0 0 0-.44-.3 2.48 2.48 0 0 0-.73-.08h-.29v3zm1.44-4.13h1.07a5.41 5.41 0 0 0 1.3-.09.76.76 0 0 0 .4-.3.91.91 0 0 0 .15-.54.85.85 0 0 0-.19-.58.88.88 0 0 0-.55-.28 9.78 9.78 0 0 0-1 0h-1.13zm5.77 4.13v-7.12h5.31v1.21h-3.86v1.59H132v1.21h-3.59v2h4V57zm6.67 0v-7.12h2.32a8.5 8.5 0 0 1 1.72.11 1.9 1.9 0 0 1 1 .7 2.22 2.22 0 0 1 .42 1.4 2.27 2.27 0 0 1-.24 1.1 2 2 0 0 1-.61.71 2.27 2.27 0 0 1-.75.34 8.23 8.23 0 0 1-1.5.1H135V57zm1.42-5.91v2h.79A3.48 3.48 0 0 0 137 53a.92.92 0 0 0 .45-.35.94.94 0 0 0 .17-.55 1 1 0 0 0-.23-.65 1.08 1.08 0 0 0-.58-.32 7.35 7.35 0 0 0-1 0zm5 2.42a4.55 4.55 0 0 1 .33-1.84 3.38 3.38 0 0 1 .66-1 2.9 2.9 0 0 1 .93-.65 4.07 4.07 0 0 1 1.54-.28 3.36 3.36 0 0 1 2.53 1 4.4 4.4 0 0 1 0 5.45 3.78 3.78 0 0 1-5.06 0 3.68 3.68 0 0 1-.93-2.68zm1.49 0a2.7 2.7 0 0 0 .51 1.79 1.93 1.93 0 0 0 2.84 0 2.75 2.75 0 0 0 .56-1.87 2.71 2.71 0 0 0-.54-1.84 2 2 0 0 0-2.87 0 2.67 2.67 0 0 0-.54 1.87zM148 57v-7.12h3a5.06 5.06 0 0 1 1.66.2 1.64 1.64 0 0 1 .84.68 2.06 2.06 0 0 1 .31 1.13 1.93 1.93 0 0 1-.47 1.33 2.29 2.29 0 0 1-1.42.66 3.49 3.49 0 0 1 .77.6 8 8 0 0 1 .83 1.17l.87 1.39h-1.73l-1-1.56a13 13 0 0 0-.76-1 1.33 1.33 0 0 0-.44-.3 2.48 2.48 0 0 0-.73-.08h-.29v3zm1.44-4.13h1.07a5.41 5.41 0 0 0 1.3-.09.76.76 0 0 0 .4-.3.91.91 0 0 0 .15-.54.85.85 0 0 0-.19-.58.88.88 0 0 0-.55-.28 9.78 9.78 0 0 0-1 0h-1.13zm7.42 4.13v-5.91h-2.12v-1.21h5.69v1.21h-2.12V57zm6.91-2.29l1.41-.13a1.68 1.68 0 0 0 .51 1 1.91 1.91 0 0 0 2.1 0 .85.85 0 0 0 .36-.69.64.64 0 0 0-.15-.43 1.19 1.19 0 0 0-.52-.31c-.17-.06-.56-.16-1.16-.31a3.91 3.91 0 0 1-1.63-.71 1.85 1.85 0 0 1-.66-1.44 1.78 1.78 0 0 1 .31-1 2 2 0 0 1 .9-.73 3.44 3.44 0 0 1 1.4-.25 3 3 0 0 1 2 .59 2.07 2.07 0 0 1 .72 1.58l-1.45.06a1.2 1.2 0 0 0-.4-.79 1.43 1.43 0 0 0-.91-.24 1.62 1.62 0 0 0-1 .26.53.53 0 0 0-.23.44.54.54 0 0 0 .22.44 3.72 3.72 0 0 0 1.33.47 7.16 7.16 0 0 1 1.56.52 2.06 2.06 0 0 1 .79.73 2.16 2.16 0 0 1-1 3.09 4.08 4.08 0 0 1-1.55.26 3.11 3.11 0 0 1-2.09-.63 2.79 2.79 0 0 1-.86-1.78zm8.65 2.29v-5.91h-2.12v-1.21h5.7v1.21h-2.11V57zm152.96 209.6v-1.21h3.12v2.85a4.07 4.07 0 0 1-1.32.78 4.89 4.89 0 0 1-1.75.33 3.91 3.91 0 0 1-1.95-.47 3 3 0 0 1-1.26-1.35 4.33 4.33 0 0 1-.42-1.9 4.15 4.15 0 0 1 .47-2 3.09 3.09 0 0 1 1.37-1.33 3.68 3.68 0 0 1 1.72-.36 3.45 3.45 0 0 1 2.08.56 2.5 2.5 0 0 1 1 1.54l-1.43.27a1.49 1.49 0 0 0-.57-.83 1.75 1.75 0 0 0-1-.3 2 2 0 0 0-1.51.6 2.53 2.53 0 0 0-.56 1.78 2.79 2.79 0 0 0 .57 1.91 1.89 1.89 0 0 0 1.48.64 2.46 2.46 0 0 0 .91-.18 3.11 3.11 0 0 0 .79-.43v-.91zm10.9 2.63h-1.57l-.62-1.63h-2.87l-.59 1.63h-1.53l2.79-7.16h1.53zm-2.66-2.83l-1-2.66-1 2.66zm3.38 2.83v-7.16h2.16l1.3 4.88 1.29-4.88h2.16v7.16h-1.31v-5.63l-1.42 5.63h-1.39l-1.42-5.63v5.63zm8.36 0v-7.16h2.16l1.3 4.88 1.29-4.88h2.16v7.16h-1.34v-5.63l-1.42 5.63h-1.39l-1.42-5.63v5.63zm8.35 0v-7.16H359v1.21h-3.86v1.59h3.59v1.21h-3.59V268h4v1.21zm6.71 0v-7.1h1.44V268h3.6v1.21zm8.3-2.33l1.41-.14a1.66 1.66 0 0 0 .51 1 1.58 1.58 0 0 0 1.05.34 1.6 1.6 0 0 0 1.05-.3.87.87 0 0 0 .35-.69.64.64 0 0 0-.14-.43 1.25 1.25 0 0 0-.52-.31c-.17-.06-.56-.17-1.16-.31a4 4 0 0 1-1.63-.71A1.88 1.88 0 0 1 369 264a1.83 1.83 0 0 1 .31-1 1.94 1.94 0 0 1 .89-.72 3.52 3.52 0 0 1 1.41-.25 3 3 0 0 1 2 .59 2.12 2.12 0 0 1 .72 1.58l-1.45.06a1.17 1.17 0 0 0-.4-.79 1.45 1.45 0 0 0-.91-.24 1.69 1.69 0 0 0-1 .25.55.55 0 0 0-.23.45.53.53 0 0 0 .22.43 3.49 3.49 0 0 0 1.32.48 6.79 6.79 0 0 1 1.56.52 2 2 0 0 1 .79.72 2.16 2.16 0 0 1 .29 1.15 2.09 2.09 0 0 1-.34 1.15 2.14 2.14 0 0 1-1 .8 4.13 4.13 0 0 1-1.56.26 3.08 3.08 0 0 1-2.08-.63 2.7 2.7 0 0 1-.82-1.91zm8.65 2.33v-6h-2.13v-1.21h5.69v1.21h-2.12v6zm4.5 0v-7.16h3a5.5 5.5 0 0 1 1.67.19 1.64 1.64 0 0 1 .83.69 2 2 0 0 1 .31 1.13 1.88 1.88 0 0 1-.47 1.33 2.29 2.29 0 0 1-1.42.66 3.28 3.28 0 0 1 .78.6 8.54 8.54 0 0 1 .82 1.16l.87 1.4h-1.72l-1.05-1.56a10.81 10.81 0 0 0-.76-1.05 1.29 1.29 0 0 0-.43-.3 2.58 2.58 0 0 0-.73-.08h-.3v3zm1.44-4.13h1.07a5.35 5.35 0 0 0 1.3-.09.79.79 0 0 0 .41-.3.93.93 0 0 0 .14-.54.85.85 0 0 0-.19-.58.88.88 0 0 0-.54-.28 10 10 0 0 0-1.06 0h-1.13zm12.23 4.13H394l-.63-1.63h-2.86l-.59 1.63h-1.53l2.79-7.16h1.52zm-2.66-2.83l-1-2.66-1 2.66zm3.44 2.83v-7.16h1.41l2.93 4.78v-4.78H402v7.16h-1.45l-2.88-4.67v4.67zm7.2-7.16h2.65a5.18 5.18 0 0 1 1.36.14 2.33 2.33 0 0 1 1.08.66 3.1 3.1 0 0 1 .68 1.16 5.13 5.13 0 0 1 .24 1.69 4.83 4.83 0 0 1-.22 1.52 3.21 3.21 0 0 1-.77 1.27 2.62 2.62 0 0 1-1 .57 4.39 4.39 0 0 1-1.28.15h-2.72zm1.45 1.21V268h1.08a4.46 4.46 0 0 0 .87-.06 1.38 1.38 0 0 0 .59-.3 1.48 1.48 0 0 0 .37-.69 4.57 4.57 0 0 0 .15-1.31 4.21 4.21 0 0 0-.15-1.28 1.46 1.46 0 0 0-.41-.69 1.3 1.3 0 0 0-.66-.34 7.19 7.19 0 0 0-1.19-.07zm-56.64 17.95v-7.16h2.16l1.3 4.88 1.28-4.88h2.17v7.16h-1.34v-5.63l-1.42 5.63h-1.39l-1.42-5.63v5.63zm8.35 0v-7.16H362v1.21h-3.86v1.59h3.59v1.21h-3.59V280h4v1.21zm8.32 0v-6h-2.13v-1.21h5.69v1.21h-2.16v6zm4.46 0v-7.16h3a5.5 5.5 0 0 1 1.67.19 1.64 1.64 0 0 1 .83.69 2 2 0 0 1 .31 1.13 1.88 1.88 0 0 1-.47 1.33 2.29 2.29 0 0 1-1.42.66 3.28 3.28 0 0 1 .78.6 8.54 8.54 0 0 1 .82 1.16l.87 1.4h-1.72l-1.05-1.56a10.81 10.81 0 0 0-.76-1.05 1.23 1.23 0 0 0-.44-.3 2.45 2.45 0 0 0-.72-.08h-.3v3zm1.44-4.13h1.1a5.35 5.35 0 0 0 1.3-.09.79.79 0 0 0 .41-.3.93.93 0 0 0 .14-.54.85.85 0 0 0-.19-.58.88.88 0 0 0-.54-.28 10 10 0 0 0-1.06 0h-1.16zm5.48.59a4.5 4.5 0 0 1 .33-1.83 3.11 3.11 0 0 1 .67-1 2.82 2.82 0 0 1 .92-.65 3.92 3.92 0 0 1 1.54-.28 3.4 3.4 0 0 1 2.54 1 3.78 3.78 0 0 1 .95 2.73 3.73 3.73 0 0 1-.95 2.71 3.28 3.28 0 0 1-2.52 1 3.34 3.34 0 0 1-2.53-1 3.71 3.71 0 0 1-.95-2.68zm1.49 0a2.7 2.7 0 0 0 .56 1.84 1.84 1.84 0 0 0 1.43.63 1.8 1.8 0 0 0 1.42-.63 3.41 3.41 0 0 0 0-3.7 2 2 0 0 0-2.87 0 2.67 2.67 0 0 0-.54 1.82zM238.93 137.8h-21.06q1.35-17 2.72-34h16.3z"/><path d="M218.55 105.37v-3.58h20.38v3.58z"/></g><path d="M498.87,129.8l-182-1q11.5,75,23,150l-45-149h-24V95.38l-106-23.58,106,6.29V43.8h228Z"/><rect x="339.87" y="282.89" width="13.03" height="14.33" rx="3.16"/><rect x="341.03" y="295.91" width="2.18" height="3.97" rx=".68"/><rect x="349.28" y="296.3" width="2.18" height="3.52" rx=".64"/><path d="M343.25 284.19h6.38a2 2 0 0 1 2 2v4.55a0 0 0 0 1 0 0h-10.46a0 0 0 0 1 0 0v-4.44a2.08 2.08 0 0 1 2.08-2.11zm-2.08 9.12h2.61v1.3h-2.61zm7.82 0h2.61v1.3h-2.61z" fill="#fed4c2"/><rect x="141.3" y="61.8" width="13.03" height="14.33" rx="3.16"/><rect x="142.47" y="74.82" width="2.18" height="3.97" rx=".68"/><rect x="150.71" y="75.21" width="2.18" height="3.52" rx=".64"/><path d="M144.68 63.1h6.38a2 2 0 0 1 2 2v4.55a0 0 0 0 1 0 0h-10.45a0 0 0 0 1 0 0v-4.48a2.08 2.08 0 0 1 2.07-2.07zm-2.07 9.12h2.61v1.3h-2.61zm7.81 0h2.61v1.3h-2.61zm176.45-.15c0 1.81.64 2.27.64 2.27h-1.66s-.65-.23-.65-2.27V63c0-.54-.25-.88-.76-.88s-.79.34-.79.88v11.34H322V63a.77.77 0 0 0-.79-.88c-.51 0-.78.34-.78.88v11.34h-1.68V60.7h1.68v.58c0-.08.34-.66 1.4-.66a1.47 1.47 0 0 1 1.29.66 1.81 1.81 0 0 1 1.46-.66c1.21 0 2.29.44 2.29 2.58zm5.4-.42c0 1 .33 1.58 2.79 1v1.65c-4 .82-4.47-.64-4.47-2.82v-7.92c0-2.18.43-3.62 4.47-2.82v1.61c-2.46-.54-2.79 0-2.79 1v5.52h2.45v1.55h-2.45zm9.9-9.35h-1.4v12h-1.65v-12h-1.81l.64-1.6h4.22zm5.03-1.6c2.17 0 2.82.61 2.82 2.86v2.74c0 1.51-.25 2.41-1 3h1v2.78c0 1.81.65 2.27.65 2.27H349s-.65-.23-.65-2.27v-1.62h-1.56v3.88h-1.69V60.7zm-.39 1.6v6.61h.39c.85 0 1.17-.85 1.17-2.63v-2.94c0-.85-.2-1-1.1-1zM356 74.59c-1.27 0-2.43-.54-2.43-2.62v-8.85c0-2.08 1.16-2.62 2.43-2.62s2.47.47 2.47 2.62V72c-.03 2.11-1.34 2.59-2.47 2.59zm-.75-2.48c0 .71.26.93.77.93s.76-.2.76-.93V63c0-.75-.27-.93-.76-.93s-.77.22-.77.93zm14.68 2.48c-1.28 0-2.43-.54-2.43-2.62v-8.85c0-2.08 1.15-2.62 2.43-2.62s2.46.47 2.46 2.62V72c0 2.11-1.31 2.59-2.46 2.59zm-.75-2.48c0 .71.26.93.77.93s.76-.2.76-.93V63c0-.75-.27-.93-.76-.93s-.77.22-.77.93zm6.82-8.55c0-2.18.42-3.64 4.47-2.84v1.63c-2.47-.54-2.79 0-2.79 1v8.72c0 .71.25.93.76.93s.77-.2.77-.93v-1.61h-1.11l.65-1.55h2.14V72c0 2.14-1.31 2.62-2.46 2.62S376 74.05 376 72zm17.39-1.26H392v12h-1.64v-12h-1.82l.64-1.6h4.22zm5.23 12.29c-1.27 0-2.43-.54-2.43-2.62v-8.85c0-2.08 1.16-2.62 2.43-2.62s2.47.47 2.47 2.62V72c0 2.11-1.31 2.59-2.47 2.59zm-.74-2.48c0 .71.25.93.76.93s.77-.2.77-.93V63c0-.75-.28-.93-.77-.93s-.76.22-.76.93zm6.76-8.55c0-2.18.43-3.64 4.47-2.84v1.63c-2.46-.54-2.78 0-2.78 1v8.72c0 .71.25.93.76.93s.77-.2.77-.93v-1.61h-1.11l.65-1.55h2.14V72c0 2.14-1.31 2.62-2.47 2.62s-2.43-.54-2.43-2.62zm17.44-1.26h-1.39v12H419v-12h-1.82l.65-1.6h4.21zm7.72 9.35c0 1 .32 1.58 2.79 1v1.65c-4 .82-4.47-.64-4.47-2.82v-1h-1.55v3.9h-1.68V63.13c0-2.07 1.15-2.61 2.43-2.61a2.63 2.63 0 0 1 1.55.4c.61-.47 1.75-.64 3.72-.25v1.61c-2.47-.54-2.79 0-2.79 1v5.62h2.47v1.54h-2.47zm-3.23-2.75h1.55v-6c0-.73-.29-.93-.78-.93s-.77.22-.77.93zm13.07-6.6h-1.39v12h-1.65v-12h-1.82l.65-1.6h4.21zm10.15 8.16v3.88h-1.68V60.7h2.07c2.18 0 2.83.82 2.83 3.4v3c0 2.6-.65 3.4-2.83 3.4zm0-1.56h.46c.92 0 1.11-.21 1.11-1v-4.56c0-.85-.19-1-1.11-1h-.46zm6.46-5.77c0-2.07 1.16-2.61 2.43-2.61s2.47.44 2.47 2.61v11.21h-1.67v-3.88h-1.54v3.88h-1.69zm2.47-8.13a2.17 2.17 0 1 1-2.18 2.16 2.11 2.11 0 0 1 2.18-2.16zm0 3.27a1.08 1.08 0 0 0 0-2.15 1.08 1.08 0 0 0 0 2.15zm.76 4.67c0-.75-.29-.93-.78-.93s-.76.22-.76.93v5.93h1.54z" fill="#fed4c2"/><path d="M292.9 98.34v-10h1.37l5.26 7.87v-7.9h1.27v10h-1.36l-5.26-7.88v7.88zm15.33-6.83l.68-.88.65.48-.73.94a3.75 3.75 0 0 1 .59 1.07 5.42 5.42 0 0 1 .21 1.59 3.72 3.72 0 0 1-1.15 3 3.48 3.48 0 0 1-2.26.77 3.4 3.4 0 0 1-1.92-.48l-.72.93-.64-.49.74-1a3.16 3.16 0 0 1-.58-.93 5 5 0 0 1-.27-1.69 3.87 3.87 0 0 1 1-3 3.38 3.38 0 0 1 2.35-.92 3.79 3.79 0 0 1 1 .14 5.1 5.1 0 0 1 1.05.47zm-.69.9a2.12 2.12 0 0 0-1.31-.48 1.94 1.94 0 0 0-1.52.7 3 3 0 0 0-.61 2.08 3.67 3.67 0 0 0 .35 1.71zm.51.66l-3.07 4a1.92 1.92 0 0 0 1.21.43 2 2 0 0 0 1.57-.7 3.07 3.07 0 0 0 .61-2.09 4.1 4.1 0 0 0-.08-.91 3 3 0 0 0-.24-.73zm3.36 5.27v-7.26h1.11v1.1a2.88 2.88 0 0 1 .78-1 1.33 1.33 0 0 1 .79-.25 2.33 2.33 0 0 1 1.26.4l-.42 1.14a1.74 1.74 0 0 0-.9-.27 1.15 1.15 0 0 0-.73.25 1.29 1.29 0 0 0-.45.67 4.66 4.66 0 0 0-.21 1.43v3.81zm4.66 0v-7.26h1.11v1.1a2.88 2.88 0 0 1 .78-1 1.33 1.33 0 0 1 .79-.25 2.36 2.36 0 0 1 1.27.4l-.43 1.14a1.74 1.74 0 0 0-.9-.27 1.15 1.15 0 0 0-.73.25 1.29 1.29 0 0 0-.45.67 4.66 4.66 0 0 0-.21 1.43v3.81zm9.65-2.34l1.27.15a3 3 0 0 1-1.12 1.73 3.76 3.76 0 0 1-4.6-.36 3.85 3.85 0 0 1-.93-2.75 4 4 0 0 1 .94-2.85 3.2 3.2 0 0 1 2.45-1 3.12 3.12 0 0 1 2.38 1 4 4 0 0 1 .92 2.79v.33h-5.41a2.72 2.72 0 0 0 .68 1.83 2 2 0 0 0 1.51.64 1.88 1.88 0 0 0 1.16-.36 2.32 2.32 0 0 0 .75-1.15zm-4-2h4.05a2.5 2.5 0 0 0-.46-1.38 1.91 1.91 0 0 0-1.53-.71 1.94 1.94 0 0 0-1.42.57 2.22 2.22 0 0 0-.68 1.52zm6.81 7.12v-10h1.12V92a2.8 2.8 0 0 1 .9-.83 2.41 2.41 0 0 1 1.21-.28 2.85 2.85 0 0 1 1.64.48 3 3 0 0 1 1.07 1.35 5.18 5.18 0 0 1 0 3.92 3.05 3.05 0 0 1-1.19 1.36 3 3 0 0 1-1.61.48 2.32 2.32 0 0 1-1.1-.26 2.4 2.4 0 0 1-.81-.66v3.54zm1.12-6.37a3.22 3.22 0 0 0 .56 2.07 1.77 1.77 0 0 0 1.38.67 1.74 1.74 0 0 0 1.4-.7 3.29 3.29 0 0 0 .59-2.15 3.19 3.19 0 0 0-.57-2.07 1.73 1.73 0 0 0-1.37-.69 1.78 1.78 0 0 0-1.39.73 3.31 3.31 0 0 0-.6 2.14zm6.21-.04a3.75 3.75 0 0 1 1.12-3 3.39 3.39 0 0 1 2.29-.81 3.26 3.26 0 0 1 2.44 1 3.72 3.72 0 0 1 1 2.71 4.83 4.83 0 0 1-.42 2.21 3 3 0 0 1-1.29 1.23 3.54 3.54 0 0 1-1.75.45 3.28 3.28 0 0 1-2.47-1 3.92 3.92 0 0 1-.92-2.79zm1.27 0a3.11 3.11 0 0 0 .6 2.08 2 2 0 0 0 3.06 0 3.13 3.13 0 0 0 .61-2.13 3 3 0 0 0-.61-2 2 2 0 0 0-3.06 0 3.12 3.12 0 0 0-.6 2.05zm6.96 3.63v-7.26h1.11v1.1a2.88 2.88 0 0 1 .78-1 1.33 1.33 0 0 1 .79-.25 2.36 2.36 0 0 1 1.27.4l-.43 1.14a1.74 1.74 0 0 0-.9-.27 1.11 1.11 0 0 0-.72.25 1.25 1.25 0 0 0-.46.67 4.66 4.66 0 0 0-.21 1.43v3.81zm7.36-1.11l.18 1.09a4.68 4.68 0 0 1-.93.11 2.15 2.15 0 0 1-1-.21 1.22 1.22 0 0 1-.52-.56 4.39 4.39 0 0 1-.15-1.45V92h-.9v-1h.9v-1.8l1.23-.74V91h1.23v1h-1.23v4.25a2.26 2.26 0 0 0 .06.67.61.61 0 0 0 .21.24.82.82 0 0 0 .42.09 3 3 0 0 0 .5-.02zm4.6-1.06l1.22-.19a1.73 1.73 0 0 0 .57 1.12 2 2 0 0 0 1.31.39 1.91 1.91 0 0 0 1.26-.35 1 1 0 0 0 .41-.81.74.74 0 0 0-.36-.65 5.38 5.38 0 0 0-1.26-.42 12.67 12.67 0 0 1-1.88-.59 1.79 1.79 0 0 1-1.06-1.67 1.87 1.87 0 0 1 .22-.9 2 2 0 0 1 .61-.68 2.58 2.58 0 0 1 .78-.36 3.62 3.62 0 0 1 1.06-.15 4.07 4.07 0 0 1 1.5.25 2 2 0 0 1 1 .66 2.73 2.73 0 0 1 .42 1.13l-1.2.16a1.35 1.35 0 0 0-.48-.87 1.73 1.73 0 0 0-1.11-.32 2.07 2.07 0 0 0-1.21.28.83.83 0 0 0-.36.66.68.68 0 0 0 .15.43 1.16 1.16 0 0 0 .47.33c.13 0 .49.15 1.09.31a18.41 18.41 0 0 1 1.82.57 1.94 1.94 0 0 1 .81.65 1.76 1.76 0 0 1 .29 1 2.13 2.13 0 0 1-.35 1.16 2.37 2.37 0 0 1-1 .84 3.73 3.73 0 0 1-1.53.3 3.43 3.43 0 0 1-2.16-.59 2.76 2.76 0 0 1-1.03-1.69zm10.18 1.06l.18 1.09a4.76 4.76 0 0 1-.93.11 2.15 2.15 0 0 1-1-.21 1.22 1.22 0 0 1-.52-.56 4.39 4.39 0 0 1-.15-1.45V92h-.9v-1h.9v-1.8l1.23-.74V91h1.23v1H365v4.25a2.26 2.26 0 0 0 .06.67.61.61 0 0 0 .21.24.82.82 0 0 0 .42.09 3 3 0 0 0 .54-.02zm4.64-2.52a3.72 3.72 0 0 1 1.12-3 3.35 3.35 0 0 1 2.28-.81 3.27 3.27 0 0 1 2.45 1 3.76 3.76 0 0 1 .95 2.71 4.83 4.83 0 0 1-.42 2.21 3 3 0 0 1-1.25 1.23 3.55 3.55 0 0 1-1.76.45 3.28 3.28 0 0 1-2.46-1 3.88 3.88 0 0 1-.91-2.79zm1.26 0a3.11 3.11 0 0 0 .61 2.08 1.94 1.94 0 0 0 1.53.7 2 2 0 0 0 1.53-.7 3.19 3.19 0 0 0 .61-2.13 3 3 0 0 0-.62-2 1.93 1.93 0 0 0-1.52-.69 2 2 0 0 0-1.53.69 3.12 3.12 0 0 0-.61 2.05zm6.76 4.23l1.19.17a1.14 1.14 0 0 0 .42.81 2 2 0 0 0 1.25.34 2.18 2.18 0 0 0 1.32-.34 1.7 1.7 0 0 0 .63-1 8.49 8.49 0 0 0 .09-1.58 2.53 2.53 0 0 1-2 1 2.73 2.73 0 0 1-2.32-1.09 4.13 4.13 0 0 1-.82-2.59 4.79 4.79 0 0 1 .38-1.91 3 3 0 0 1 1.09-1.36 2.91 2.91 0 0 1 1.68-.48 2.6 2.6 0 0 1 2.11 1v-.87H385v6.27a5.92 5.92 0 0 1-.35 2.4 2.46 2.46 0 0 1-1.09 1.12 3.82 3.82 0 0 1-1.84.41 3.46 3.46 0 0 1-2.1-.58 2 2 0 0 1-.73-1.72zm1-4.36a3.19 3.19 0 0 0 .56 2.08 1.81 1.81 0 0 0 1.42.66 1.83 1.83 0 0 0 1.43-.66 3 3 0 0 0 .57-2 3 3 0 0 0-.59-2 1.83 1.83 0 0 0-1.43-.68 1.76 1.76 0 0 0-1.39.67 3 3 0 0 0-.55 1.93zm15.74-.18v-1.17h4.25v3.72a7.31 7.31 0 0 1-2 1.17 5.79 5.79 0 0 1-2.13.4 5.58 5.58 0 0 1-2.68-.64 4.16 4.16 0 0 1-1.82-1.82 5.78 5.78 0 0 1-.62-2.68 6.2 6.2 0 0 1 .61-2.73 4.13 4.13 0 0 1 1.76-1.89 5.54 5.54 0 0 1 2.65-.62 5.3 5.3 0 0 1 2 .35 3.28 3.28 0 0 1 1.38 1 4.31 4.31 0 0 1 .76 1.64l-1.2.32a3.53 3.53 0 0 0-.56-1.2 2.34 2.34 0 0 0-1-.7 3.66 3.66 0 0 0-1.39-.26 4.2 4.2 0 0 0-1.57.27 3 3 0 0 0-1.07.73 3.46 3.46 0 0 0-.63 1 5.38 5.38 0 0 0-.38 2 4.86 4.86 0 0 0 .46 2.24 3 3 0 0 0 1.34 1.34 4.19 4.19 0 0 0 1.88.44 4.49 4.49 0 0 0 1.68-.33 4.36 4.36 0 0 0 1.24-.71V94.4zm10.79 3.04a4.63 4.63 0 0 1-1.32.82 3.78 3.78 0 0 1-1.36.24 2.66 2.66 0 0 1-1.84-.59 1.89 1.89 0 0 1-.64-1.49 2 2 0 0 1 .24-1 2.1 2.1 0 0 1 .64-.71 2.88 2.88 0 0 1 .89-.4 7.53 7.53 0 0 1 1.09-.19 11.76 11.76 0 0 0 2.19-.42v-.32a1.35 1.35 0 0 0-.35-1.06 2 2 0 0 0-1.4-.42 2.18 2.18 0 0 0-1.28.3 1.87 1.87 0 0 0-.61 1.08l-1.21-.16a3 3 0 0 1 .54-1.22 2.36 2.36 0 0 1 1.09-.73 4.84 4.84 0 0 1 1.65-.26 4.27 4.27 0 0 1 1.51.22 2 2 0 0 1 .85.55 2 2 0 0 1 .39.84 7.09 7.09 0 0 1 .06 1.13v1.64a15.77 15.77 0 0 0 .08 2.17 2.57 2.57 0 0 0 .31.88h-1.29a2.48 2.48 0 0 1-.23-.9zm-.11-2.75a9.05 9.05 0 0 1-2 .47 4.67 4.67 0 0 0-1.07.24 1.14 1.14 0 0 0-.49.4 1.1 1.1 0 0 0-.17.59 1.06 1.06 0 0 0 .38.82 1.6 1.6 0 0 0 1.09.33 2.51 2.51 0 0 0 1.26-.32 1.92 1.92 0 0 0 .82-.85 3 3 0 0 0 .19-1.23zm3.15 3.65v-7.26h1.1v1a2.65 2.65 0 0 1 .91-.85 2.54 2.54 0 0 1 1.3-.33 2.36 2.36 0 0 1 1.32.34 1.79 1.79 0 0 1 .73.93 2.61 2.61 0 0 1 2.24-1.27 2.21 2.21 0 0 1 1.66.6 2.54 2.54 0 0 1 .58 1.84v5h-1.22v-4.58a3.36 3.36 0 0 0-.08-1.06 1 1 0 0 0-.44-.52 1.27 1.27 0 0 0-.73-.2 1.74 1.74 0 0 0-1.28.51 2.27 2.27 0 0 0-.5 1.63v4.22h-1.23v-4.72a2.06 2.06 0 0 0-.3-1.23 1.13 1.13 0 0 0-1-.41 1.84 1.84 0 0 0-1 .27 1.61 1.61 0 0 0-.64.8 4.61 4.61 0 0 0-.19 1.52v3.77zm11.67 0v-7.26h1.1v1a2.6 2.6 0 0 1 2.2-1.18 2.31 2.31 0 0 1 1.32.34 1.74 1.74 0 0 1 .73.93 2.61 2.61 0 0 1 2.24-1.27 2.21 2.21 0 0 1 1.66.6 2.54 2.54 0 0 1 .58 1.84v5h-1.22v-4.58a3.36 3.36 0 0 0-.12-1.06 1 1 0 0 0-.43-.52 1.3 1.3 0 0 0-.74-.2 1.7 1.7 0 0 0-1.27.51 2.23 2.23 0 0 0-.51 1.63v4.22h-1.23v-4.72a2.06 2.06 0 0 0-.3-1.23 1.13 1.13 0 0 0-1-.41 1.84 1.84 0 0 0-1 .27 1.61 1.61 0 0 0-.64.8 4.61 4.61 0 0 0-.19 1.52v3.77zM437.76 96l1.27.15a3.08 3.08 0 0 1-1.11 1.73 3.38 3.38 0 0 1-2.08.62 3.34 3.34 0 0 1-2.53-1 3.85 3.85 0 0 1-.93-2.75 4 4 0 0 1 .94-2.85 3.22 3.22 0 0 1 2.45-1 3.12 3.12 0 0 1 2.38 1 4 4 0 0 1 .92 2.79v.33h-5.41a2.77 2.77 0 0 0 .68 1.83 2 2 0 0 0 1.51.64 1.88 1.88 0 0 0 1.16-.36 2.32 2.32 0 0 0 .75-1.13zm-4-2h4a2.5 2.5 0 0 0-.46-1.38 1.9 1.9 0 0 0-1.53-.71 1.94 1.94 0 0 0-1.42.57 2.22 2.22 0 0 0-.63 1.52zm6.79 4.34v-10h1.23v10zm6.73-3.22l1.25-.11a2.71 2.71 0 0 0 .42 1.23 2.25 2.25 0 0 0 1 .78 3.81 3.81 0 0 0 1.54.3 3.69 3.69 0 0 0 1.34-.23 1.88 1.88 0 0 0 .87-.62 1.5 1.5 0 0 0 .28-.86 1.32 1.32 0 0 0-.27-.82 2.14 2.14 0 0 0-.91-.59 15.25 15.25 0 0 0-1.78-.49 9.24 9.24 0 0 1-1.93-.62 2.77 2.77 0 0 1-1.07-.94 2.25 2.25 0 0 1-.36-1.25 2.59 2.59 0 0 1 .43-1.41 2.72 2.72 0 0 1 1.26-1 4.94 4.94 0 0 1 1.84-.34 5.05 5.05 0 0 1 2 .36 2.8 2.8 0 0 1 1.3 1.06 3 3 0 0 1 .5 1.58l-1.27.09a2 2 0 0 0-.7-1.43 2.64 2.64 0 0 0-1.74-.49 2.84 2.84 0 0 0-1.76.44 1.33 1.33 0 0 0-.55 1.07 1.12 1.12 0 0 0 .39.88 5.25 5.25 0 0 0 2 .72 13 13 0 0 1 2.22.64 3.09 3.09 0 0 1 1.29 1 2.47 2.47 0 0 1 .42 1.42 2.68 2.68 0 0 1-.49 1.51 3 3 0 0 1-1.32 1.1 4.44 4.44 0 0 1-1.93.4 5.89 5.89 0 0 1-2.28-.4 3.18 3.18 0 0 1-1.44-1.19 3.38 3.38 0 0 1-.55-1.79zm12.32 2.11l.18 1.09a4.85 4.85 0 0 1-.93.11 2.1 2.1 0 0 1-1-.21 1.17 1.17 0 0 1-.52-.56 4.39 4.39 0 0 1-.15-1.45V92h-.9v-1h.9v-1.8l1.22-.74V91h1.24v1h-1.24v4.25a1.87 1.87 0 0 0 .07.67.49.49 0 0 0 .21.24.82.82 0 0 0 .42.09 3.06 3.06 0 0 0 .5-.02zm1.19 1.11v-7.26h1.11v1.1a2.88 2.88 0 0 1 .78-1 1.33 1.33 0 0 1 .79-.25 2.36 2.36 0 0 1 1.26.4l-.42 1.14a1.74 1.74 0 0 0-.9-.27 1.15 1.15 0 0 0-.73.25 1.31 1.31 0 0 0-.46.67 5 5 0 0 0-.2 1.43v3.81zm9.41-.9a4.37 4.37 0 0 1-1.32.82 3.76 3.76 0 0 1-1.35.24 2.64 2.64 0 0 1-1.84-.59 1.89 1.89 0 0 1-.64-1.49 2 2 0 0 1 .24-1 1.91 1.91 0 0 1 .64-.71 2.83 2.83 0 0 1 .88-.4 7.8 7.8 0 0 1 1.09-.19 11.73 11.73 0 0 0 2.2-.42v-.32a1.35 1.35 0 0 0-.35-1.06 2.05 2.05 0 0 0-1.4-.42 2.23 2.23 0 0 0-1.29.3 1.93 1.93 0 0 0-.61 1.08l-1.2-.16a3 3 0 0 1 .54-1.25 2.31 2.31 0 0 1 1.09-.73 4.82 4.82 0 0 1 1.64-.26 4.23 4.23 0 0 1 1.51.22 2 2 0 0 1 .86.55 1.92 1.92 0 0 1 .38.84 7.09 7.09 0 0 1 .06 1.13v1.64a17.7 17.7 0 0 0 .08 2.17 2.8 2.8 0 0 0 .31.88h-1.28a2.71 2.71 0 0 1-.24-.87zm-.1-2.75a9.35 9.35 0 0 1-2 .47 4.54 4.54 0 0 0-1.07.24 1 1 0 0 0-.66 1 1.05 1.05 0 0 0 .37.82 1.6 1.6 0 0 0 1.09.33 2.52 2.52 0 0 0 1.27-.32 1.85 1.85 0 0 0 .81-.85 3 3 0 0 0 .2-1.23zm3.15 3.65v-7.26h1.11v1a2.6 2.6 0 0 1 2.31-1.2 2.92 2.92 0 0 1 1.2.24 1.8 1.8 0 0 1 .83.62 2.29 2.29 0 0 1 .38.9 6.62 6.62 0 0 1 .07 1.2v4.47h-1.23v-4.39a3.54 3.54 0 0 0-.14-1.13 1.26 1.26 0 0 0-.51-.59 1.62 1.62 0 0 0-.86-.22 2 2 0 0 0-1.36.5 2.45 2.45 0 0 0-.57 1.89v4zm12.5 0v-.92a2.26 2.26 0 0 1-2 1.08 2.86 2.86 0 0 1-1.6-.48 3.11 3.11 0 0 1-1.15-1.34 4.56 4.56 0 0 1-.4-2 5.2 5.2 0 0 1 .36-2 2.84 2.84 0 0 1 2.71-1.83 2.36 2.36 0 0 1 1.17.28 2.32 2.32 0 0 1 .83.72v-3.6h1.23v10zm-3.89-3.63a3.12 3.12 0 0 0 .59 2.09 1.76 1.76 0 0 0 1.38.69 1.73 1.73 0 0 0 1.37-.66 3 3 0 0 0 .57-2 3.34 3.34 0 0 0-.58-2.18 1.74 1.74 0 0 0-1.41-.7 1.68 1.68 0 0 0-1.37.67 3.29 3.29 0 0 0-.55 2.09z" fill="#fcebe6"/><path d="M304.92 82.36h171.2" fill="none" stroke-miterlimit="10" stroke="#fed4c2"/><path d="M242.3 370.34a22.91 22.91 0 0 0-4.53-10.56c-3.36-4.22-6-4.09-7.54-7.55-2-4.54-.57-11.75 4.52-15.09a12.17 12.17 0 0 1 9.06-1.51c.37.08 6.64 1.53 9.05 7.55s-1 11.35-1.51 12.07c-2 3-3.77 2.9-6 6a17.17 17.17 0 0 0-3.05 9.09z" fill="#bc5e48"/><circle cx="242.3" cy="347.7" r="4.53" fill="#964535"/><path d="M167.62 346.34h2.91a5.69 5.69 0 0 1 1.5.16 2.54 2.54 0 0 1 1.18.72 3.39 3.39 0 0 1 .75 1.28 5.56 5.56 0 0 1 .26 1.86A5.21 5.21 0 0 1 174 352a3.47 3.47 0 0 1-.84 1.39 2.81 2.81 0 0 1-1.12.63 4.83 4.83 0 0 1-1.41.17h-3zm1.59 1.34v5.21h1.19a4.45 4.45 0 0 0 1-.07 1.56 1.56 0 0 0 .64-.33 1.69 1.69 0 0 0 .42-.76 5 5 0 0 0 .16-1.44 4.58 4.58 0 0 0-.16-1.4 1.92 1.92 0 0 0-.45-.77 1.62 1.62 0 0 0-.74-.37 7.36 7.36 0 0 0-1.3-.07zm6 3.61a3 3 0 0 1 .37-1.46 2.52 2.52 0 0 1 1-1.07 3.08 3.08 0 0 1 1.52-.37 2.85 2.85 0 0 1 2.12.84 2.89 2.89 0 0 1 .83 2.12 3 3 0 0 1-.84 2.15 2.86 2.86 0 0 1-2.1.85 3.31 3.31 0 0 1-1.5-.36 2.41 2.41 0 0 1-1.08-1 3.39 3.39 0 0 1-.32-1.7zm1.55.08a1.89 1.89 0 0 0 .4 1.3 1.28 1.28 0 0 0 1 .45 1.25 1.25 0 0 0 1-.45 1.9 1.9 0 0 0 .4-1.31 1.86 1.86 0 0 0-.4-1.29 1.25 1.25 0 0 0-1-.45 1.28 1.28 0 0 0-1 .45 1.87 1.87 0 0 0-.4 1.3zm6.58 2.85l-1.8-5.71H183l1.07 3.74 1-3.74h1.46l1 3.74 1.09-3.74H190l-1.83 5.71h-1.45l-1-3.67-1 3.67zm12.66 0h-1.51v-2.91a4.84 4.84 0 0 0-.09-1.2.85.85 0 0 0-.32-.42.89.89 0 0 0-.52-.15 1.19 1.19 0 0 0-.71.22 1.12 1.12 0 0 0-.42.56 4.83 4.83 0 0 0-.12 1.32v2.58h-1.51v-5.71h1.41v.84a2.34 2.34 0 0 1 2.79-.78 1.51 1.51 0 0 1 .62.46 1.54 1.54 0 0 1 .3.63 4.45 4.45 0 0 1 .08 1zm5.31 0v-.86a2.11 2.11 0 0 1-.82.72 2.27 2.27 0 0 1-1.07.27 2.15 2.15 0 0 1-1-.25 1.53 1.53 0 0 1-.67-.71 3.34 3.34 0 0 1-.2-1.27v-3.61H199v2.63a7.81 7.81 0 0 0 .08 1.47.84.84 0 0 0 .31.43.89.89 0 0 0 .56.16 1.22 1.22 0 0 0 .69-.21 1.18 1.18 0 0 0 .42-.53 6.44 6.44 0 0 0 .11-1.54v-2.41h1.51v5.71zm8.15 0H208v-2.91a4.24 4.24 0 0 0-.1-1.2.78.78 0 0 0-.31-.42.89.89 0 0 0-.52-.15 1.17 1.17 0 0 0-.71.22 1.06 1.06 0 0 0-.42.56 4.83 4.83 0 0 0-.12 1.32v2.58h-1.51v-5.71h1.4v.84a2.35 2.35 0 0 1 2.8-.78 1.51 1.51 0 0 1 .62.46 1.67 1.67 0 0 1 .3.63 5.12 5.12 0 0 1 .08 1zm6.76 0h-1.4v-.84a2.26 2.26 0 0 1-.82.73 2.13 2.13 0 0 1-1 .24 2.21 2.21 0 0 1-1.69-.79 3.27 3.27 0 0 1-.7-2.21 3.21 3.21 0 0 1 .68-2.21 2.24 2.24 0 0 1 1.73-.75 2.11 2.11 0 0 1 1.65.79v-2.84h1.51zm-4-3a2.57 2.57 0 0 0 .26 1.32 1.13 1.13 0 0 0 1 .6 1.1 1.1 0 0 0 .88-.45 2 2 0 0 0 .37-1.32 2.22 2.22 0 0 0-.36-1.42 1.09 1.09 0 0 0-.9-.43 1.12 1.12 0 0 0-.9.43 1.87 1.87 0 0 0-.38 1.29zm8.78 1.18l1.51.26a2.51 2.51 0 0 1-.92 1.26 2.75 2.75 0 0 1-1.56.43 2.58 2.58 0 0 1-2.21-1 3.32 3.32 0 0 1-.56-2 3.15 3.15 0 0 1 .74-2.22 2.42 2.42 0 0 1 1.87-.8 2.53 2.53 0 0 1 2 .84 3.72 3.72 0 0 1 .71 2.57h-3.78a1.55 1.55 0 0 0 .36 1.05 1.13 1.13 0 0 0 .87.37.92.92 0 0 0 .6-.19 1.2 1.2 0 0 0 .37-.57zm.09-1.52a1.48 1.48 0 0 0-.34-1 1.09 1.09 0 0 0-1.6 0 1.44 1.44 0 0 0-.32 1zm4.18 3.34h-1.51v-5.71h1.4v.82a2.38 2.38 0 0 1 .65-.76 1.2 1.2 0 0 1 .65-.18 1.92 1.92 0 0 1 1 .28L227 350a1.28 1.28 0 0 0-.71-.25.89.89 0 0 0-.54.17 1.23 1.23 0 0 0-.34.64 8.45 8.45 0 0 0-.13 1.91z"/><ellipse cx="244.68" cy="346.09" rx="54.75" ry="55.25" fill="none" stroke="#bc5e48"/><path d="M169.1 368.36l-2.77-7.16h1l1.86 5.2.37 1.17q.16-.58.39-1.17l1.93-5.2h1l-2.8 7.16zm7.16-.64a3.44 3.44 0 0 1-.94.59 2.83 2.83 0 0 1-1 .17 1.86 1.86 0 0 1-1.31-.42 1.38 1.38 0 0 1-.46-1.07 1.36 1.36 0 0 1 .17-.69 1.59 1.59 0 0 1 .45-.51 2.2 2.2 0 0 1 .64-.29 6.85 6.85 0 0 1 .78-.13 7.37 7.37 0 0 0 1.56-.3v-.23a1 1 0 0 0-.25-.76 1.46 1.46 0 0 0-1-.3 1.62 1.62 0 0 0-.92.22 1.35 1.35 0 0 0-.43.77l-.86-.12a2.2 2.2 0 0 1 .38-.89 1.73 1.73 0 0 1 .78-.52 3.53 3.53 0 0 1 1.18-.18 3.26 3.26 0 0 1 1.08.15 1.51 1.51 0 0 1 .61.4 1.29 1.29 0 0 1 .27.59 5 5 0 0 1 0 .81v1.18a11.75 11.75 0 0 0 .06 1.55 2.09 2.09 0 0 0 .22.62h-.92a1.77 1.77 0 0 1-.09-.64zm-.08-2a6.2 6.2 0 0 1-1.43.33 3.64 3.64 0 0 0-.77.17.75.75 0 0 0-.34.29.7.7 0 0 0-.13.42.73.73 0 0 0 .27.58 1.14 1.14 0 0 0 .78.24 1.87 1.87 0 0 0 .9-.22 1.36 1.36 0 0 0 .54-.53 2 2 0 0 0 .14-.88zm2.26 2.64v-5.19h.79v.74a1.86 1.86 0 0 1 1.65-.85 2.2 2.2 0 0 1 .86.16 1.38 1.38 0 0 1 .59.45 1.66 1.66 0 0 1 .27.65 5.17 5.17 0 0 1 .05.85v3.19h-.88v-3.16a2.36 2.36 0 0 0-.1-.8.8.8 0 0 0-.37-.42 1.09 1.09 0 0 0-.61-.16 1.46 1.46 0 0 0-1 .35 1.78 1.78 0 0 0-.41 1.36v2.83zm8.92 0v-.66a1.61 1.61 0 0 1-1.45.78 2 2 0 0 1-1.14-.35 2.23 2.23 0 0 1-.81-.95 3.48 3.48 0 0 1-.28-1.41 3.73 3.73 0 0 1 .26-1.41 2.08 2.08 0 0 1 .77-1 2.14 2.14 0 0 1 1.16-.33 1.79 1.79 0 0 1 .84.19 1.86 1.86 0 0 1 .59.52v-2.54h.88v7.16zm-2.78-2.59a2.25 2.25 0 0 0 .42 1.49 1.26 1.26 0 0 0 1 .49 1.22 1.22 0 0 0 1-.47 2.15 2.15 0 0 0 .41-1.44 2.45 2.45 0 0 0-.41-1.56 1.28 1.28 0 0 0-1-.5 1.2 1.2 0 0 0-1 .48 2.31 2.31 0 0 0-.42 1.51zm4.98 2.59v-7.16h.88v4.08l2.08-2.11h1.14l-2 1.93 2.18 3.26h-1.08l-1.72-2.65-.62.59v2.06zm8.44 0v-.76a1.93 1.93 0 0 1-1.65.88 2.11 2.11 0 0 1-.86-.18 1.45 1.45 0 0 1-.59-.44 1.82 1.82 0 0 1-.27-.65 5.27 5.27 0 0 1-.05-.82v-3.22h.88v2.88a5.93 5.93 0 0 0 .05.93.92.92 0 0 0 .35.54 1.11 1.11 0 0 0 .67.2 1.49 1.49 0 0 0 .74-.2 1.16 1.16 0 0 0 .49-.56 2.68 2.68 0 0 0 .14-1v-2.78h.88v5.19zm2.12 0v-5.19h.79v.74a1.86 1.86 0 0 1 1.65-.85 2.2 2.2 0 0 1 .86.16 1.33 1.33 0 0 1 .59.45 1.83 1.83 0 0 1 .28.65 5.52 5.52 0 0 1 0 .85v3.19h-.88v-3.16a2.36 2.36 0 0 0-.1-.8.82.82 0 0 0-.31-.4 1.13 1.13 0 0 0-.61-.16 1.44 1.44 0 0 0-1 .35 1.74 1.74 0 0 0-.41 1.36v2.83zm5.21-1.55l.87-.14a1.22 1.22 0 0 0 .41.81 1.43 1.43 0 0 0 .93.27 1.38 1.38 0 0 0 .9-.24.73.73 0 0 0 .29-.58.52.52 0 0 0-.26-.47 3.69 3.69 0 0 0-.89-.3 7.73 7.73 0 0 1-1.34-.42 1.26 1.26 0 0 1-.76-1.19 1.29 1.29 0 0 1 .16-.64 1.27 1.27 0 0 1 .43-.49 1.72 1.72 0 0 1 .56-.26 2.64 2.64 0 0 1 .76-.1 3 3 0 0 1 1.07.17 1.54 1.54 0 0 1 .68.48 1.76 1.76 0 0 1 .3.8l-.86.12a.94.94 0 0 0-.34-.63 1.22 1.22 0 0 0-.79-.22 1.51 1.51 0 0 0-.87.2.58.58 0 0 0-.25.47.52.52 0 0 0 .1.31.81.81 0 0 0 .34.23c.09 0 .35.11.78.22a13.33 13.33 0 0 1 1.3.41 1.4 1.4 0 0 1 .58.46 1.33 1.33 0 0 1 .21.76 1.47 1.47 0 0 1-.26.82 1.65 1.65 0 0 1-.74.6 2.56 2.56 0 0 1-1.09.22 2.42 2.42 0 0 1-1.54-.42 2 2 0 0 1-.68-1.25zm7.27.76l.13.78a3.47 3.47 0 0 1-.67.08 1.51 1.51 0 0 1-.74-.15.94.94 0 0 1-.37-.4 3.2 3.2 0 0 1-.11-1v-3h-.64v-.69h.64v-1.28l.88-.53v1.81h.88v.69h-.88v3a1.6 1.6 0 0 0 0 .48.35.35 0 0 0 .15.17.51.51 0 0 0 .3.07 2.13 2.13 0 0 0 .43-.03zm4.4-.88l.91.11a2.28 2.28 0 0 1-.8 1.24 2.7 2.7 0 0 1-3.29-.26 2.78 2.78 0 0 1-.66-2 2.86 2.86 0 0 1 .67-2 2.28 2.28 0 0 1 1.75-.72 2.23 2.23 0 0 1 1.7.7 2.84 2.84 0 0 1 .66 2 2.2 2.2 0 0 1 0 .23h-3.86a2 2 0 0 0 .48 1.31 1.44 1.44 0 0 0 1.08.45 1.36 1.36 0 0 0 .83-.25 1.65 1.65 0 0 0 .53-.81zm-2.89-1.42H217a1.74 1.74 0 0 0-.33-1 1.36 1.36 0 0 0-1.09-.51 1.41 1.41 0 0 0-1 .4 1.65 1.65 0 0 0-.46 1.11zm4.89 3.09v-5.19h.79v.74a1.86 1.86 0 0 1 1.65-.85 2.25 2.25 0 0 1 .87.16 1.35 1.35 0 0 1 .58.45 1.83 1.83 0 0 1 .28.65 5.17 5.17 0 0 1 .05.85v3.19h-.88v-3.16a2.32 2.32 0 0 0-.11-.8.78.78 0 0 0-.36-.42 1.11 1.11 0 0 0-.61-.16 1.44 1.44 0 0 0-1 .35 1.78 1.78 0 0 0-.41 1.36v2.83zm8.12-1.88l.92-.07a1.66 1.66 0 0 0 .48 1 1.26 1.26 0 0 0 .9.34 1.39 1.39 0 0 0 1.07-.48 1.82 1.82 0 0 0 .44-1.27 1.65 1.65 0 0 0-.42-1.19 1.63 1.63 0 0 0-1.87-.24 1.53 1.53 0 0 0-.54.5l-.83-.1.7-3.68h3.56v.84h-2.86l-.39 1.92a2.33 2.33 0 0 1 1.36-.45 2.16 2.16 0 0 1 1.58.65 2.28 2.28 0 0 1 .64 1.67 2.64 2.64 0 0 1-.56 1.68 2.28 2.28 0 0 1-1.88.87 2.31 2.31 0 0 1-1.6-.55 2.12 2.12 0 0 1-.7-1.44zm6.03 1.88v-1h1v1a1.78 1.78 0 0 1-.19.89 1.31 1.31 0 0 1-.62.53l-.25-.38a.77.77 0 0 0 .41-.36 1.49 1.49 0 0 0 .15-.68zm-63.15 12h-.88v-5.6a4.58 4.58 0 0 1-.83.6 5.24 5.24 0 0 1-.92.46V375a5.07 5.07 0 0 0 1.28-.84 3.45 3.45 0 0 0 .79-1h.56zm5.08 0v-1.71H172v-.81l3.26-4.64h.74v4.64h1v.81h-1v1.71zm0-2.52v-3.23l-2.24 3.23zm7.31-2.84l-.88.07a1.75 1.75 0 0 0-.33-.75 1.17 1.17 0 0 0-.88-.38 1.21 1.21 0 0 0-.74.24 2.07 2.07 0 0 0-.65.88 4.71 4.71 0 0 0-.25 1.66 2.06 2.06 0 0 1 .78-.72 2.08 2.08 0 0 1 2.45.41 2.29 2.29 0 0 1 .62 1.67 2.71 2.71 0 0 1-.29 1.26 2.07 2.07 0 0 1-.8.88 2.13 2.13 0 0 1-1.15.31 2.25 2.25 0 0 1-1.79-.81 4.08 4.08 0 0 1-.69-2.66 4.8 4.8 0 0 1 .76-3 2.2 2.2 0 0 1 1.8-.82 2 2 0 0 1 2.04 1.76zm-3.59 3a2 2 0 0 0 .19.87 1.4 1.4 0 0 0 .54.63 1.3 1.3 0 0 0 .73.22 1.22 1.22 0 0 0 1-.45 1.76 1.76 0 0 0 .4-1.22 1.65 1.65 0 0 0-.39-1.17 1.3 1.3 0 0 0-1-.43 1.35 1.35 0 0 0-1 .43 1.56 1.56 0 0 0-.47 1.12zm4.65-3.86v-.85h4.63v.71a9.63 9.63 0 0 0-1.36 1.93 11.83 11.83 0 0 0-1 2.48 9.09 9.09 0 0 0-.34 2h-.9a8.89 8.89 0 0 1 .33-2 10.37 10.37 0 0 1 .91-2.31 9.51 9.51 0 0 1 1.26-1.87zm8.55 6.22v-7.16h1v3.55l3.56-3.55h1.28l-3 2.9 3.13 4.26h-1.25l-2.55-3.62-1.17 1.14v2.48zm7.45 0h-.81v-7.16h.87v2.55a1.77 1.77 0 0 1 1.43-.69 2.14 2.14 0 0 1 .9.19 1.81 1.81 0 0 1 .7.54 2.57 2.57 0 0 1 .44.84 3.62 3.62 0 0 1 .15 1.06 3 3 0 0 1-.66 2.06 2.07 2.07 0 0 1-1.58.73 1.66 1.66 0 0 1-1.44-.77zm0-2.63a2.63 2.63 0 0 0 .26 1.34 1.25 1.25 0 0 0 2.11.18 2.26 2.26 0 0 0 .42-1.49 2.3 2.3 0 0 0-.4-1.5 1.23 1.23 0 0 0-1-.48 1.27 1.27 0 0 0-1 .5 2.2 2.2 0 0 0-.4 1.45zm4.75 2.63v-7.16h.88v2.57a2 2 0 0 1 1.55-.71 2.08 2.08 0 0 1 1 .22 1.28 1.28 0 0 1 .61.63 2.77 2.77 0 0 1 .19 1.16v3.29h-.88v-3.29a1.36 1.36 0 0 0-.29-1 1.06 1.06 0 0 0-.81-.3 1.37 1.37 0 0 0-.73.21 1.09 1.09 0 0 0-.49.55 2.45 2.45 0 0 0-.15.95v2.84z"/><path d="M356.07 346.1h102v60h-102z" fill="#f2deda"/><path d="M377.44 368.68l1.4.45a3.17 3.17 0 0 1-1.07 1.74 3.37 3.37 0 0 1-4.25-.41 3.74 3.74 0 0 1-.92-2.66 3.91 3.91 0 0 1 .93-2.78 3.14 3.14 0 0 1 2.42-1 3 3 0 0 1 2.14.78 2.89 2.89 0 0 1 .73 1.32l-1.43.34a1.47 1.47 0 0 0-1.51-1.2 1.63 1.63 0 0 0-1.29.57 2.8 2.8 0 0 0-.5 1.85 3 3 0 0 0 .49 1.93 1.58 1.58 0 0 0 1.27.58 1.42 1.42 0 0 0 1-.37 2.06 2.06 0 0 0 .59-1.14zm4-4.52v2.63a2 2 0 0 1 2.44-.6 1.3 1.3 0 0 1 .57.45 1.47 1.47 0 0 1 .26.6 5.06 5.06 0 0 1 .08 1v3h-1.38v-2.74a4.31 4.31 0 0 0-.07-1 .74.74 0 0 0-.28-.35.87.87 0 0 0-.5-.13 1.17 1.17 0 0 0-.61.17 1 1 0 0 0-.39.5 3.07 3.07 0 0 0-.12 1v2.59h-1.38v-7.15zm6.05 7.15h-1.37v-5.18h1.27v.74a2.28 2.28 0 0 1 .59-.69 1.1 1.1 0 0 1 .59-.17 1.77 1.77 0 0 1 .91.26l-.43 1.2a1.19 1.19 0 0 0-.64-.23.74.74 0 0 0-.49.16 1.09 1.09 0 0 0-.31.57 7.86 7.86 0 0 0-.12 1.74zm2.58-5.89v-1.26h1.37v1.26zm0 5.89v-5.18h1.37v5.18zm2.29-1.48l1.38-.21a1 1 0 0 0 .36.61 1.19 1.19 0 0 0 .75.21 1.37 1.37 0 0 0 .8-.2.43.43 0 0 0 .18-.36.34.34 0 0 0-.1-.26 1 1 0 0 0-.46-.18 7.75 7.75 0 0 1-2.1-.67 1.34 1.34 0 0 1-.62-1.17 1.43 1.43 0 0 1 .54-1.13 2.45 2.45 0 0 1 1.65-.46 2.89 2.89 0 0 1 1.58.35 1.78 1.78 0 0 1 .71 1l-1.29.24a.81.81 0 0 0-.32-.46 1.11 1.11 0 0 0-.66-.16 1.46 1.46 0 0 0-.77.15.31.31 0 0 0-.16.28.3.3 0 0 0 .14.25 5 5 0 0 0 1.28.38 3.89 3.89 0 0 1 1.53.61 1.31 1.31 0 0 1 .43 1 1.56 1.56 0 0 1-.6 1.23 2.64 2.64 0 0 1-1.76.51 2.86 2.86 0 0 1-1.68-.43 2 2 0 0 1-.81-1.13zm8.43-3.7v1.09h-.94v2.09a4.6 4.6 0 0 0 0 .74.26.26 0 0 0 .12.17.35.35 0 0 0 .23.07 1.67 1.67 0 0 0 .55-.13l.12 1.07a2.85 2.85 0 0 1-1.08.2 1.74 1.74 0 0 1-.67-.12 1 1 0 0 1-.44-.33 1.22 1.22 0 0 1-.19-.53 6.28 6.28 0 0 1 0-1v-2.26h-.63v-1.09h.63v-1l1.38-.8v1.83zm.95-.71v-1.26h1.37v1.26zm0 5.89v-5.18h1.37v5.18zm3.8-3.6l-1.24-.22a1.93 1.93 0 0 1 .72-1.12 2.64 2.64 0 0 1 1.52-.36 3.19 3.19 0 0 1 1.37.22 1.33 1.33 0 0 1 .63.55 2.82 2.82 0 0 1 .19 1.23v1.6a5 5 0 0 0 .07 1 2.71 2.71 0 0 0 .24.69h-1.35c0-.09-.08-.22-.14-.4s0-.14 0-.16a2.42 2.42 0 0 1-.76.51 2.19 2.19 0 0 1-.85.17 1.75 1.75 0 0 1-1.26-.43 1.44 1.44 0 0 1-.46-1.1 1.48 1.48 0 0 1 .21-.79 1.33 1.33 0 0 1 .58-.52 4.33 4.33 0 0 1 1.1-.32 7.8 7.8 0 0 0 1.33-.34v-.14a.7.7 0 0 0-.2-.56 1.16 1.16 0 0 0-.73-.17 1.06 1.06 0 0 0-.58.14 1.13 1.13 0 0 0-.39.52zm1.84 1.11a8.34 8.34 0 0 1-.84.21 2.58 2.58 0 0 0-.74.24.58.58 0 0 0-.27.49.67.67 0 0 0 .21.49.77.77 0 0 0 .55.21 1.21 1.21 0 0 0 .71-.24.84.84 0 0 0 .32-.45 2.45 2.45 0 0 0 .06-.67zm7.42 2.49h-1.38v-2.64a4.74 4.74 0 0 0-.08-1.09.79.79 0 0 0-.29-.38.83.83 0 0 0-.48-.14 1.13 1.13 0 0 0-.64.2 1 1 0 0 0-.38.51 4.48 4.48 0 0 0-.11 1.19v2.35h-1.37v-5.18h1.27v.76a2.09 2.09 0 0 1 1.71-.88 2.19 2.19 0 0 1 .83.16 1.42 1.42 0 0 1 .57.42 1.47 1.47 0 0 1 .27.58 4.21 4.21 0 0 1 .08.92zm.9-1.48l1.38-.21a1 1 0 0 0 .36.61 1.19 1.19 0 0 0 .75.21 1.37 1.37 0 0 0 .8-.2.43.43 0 0 0 .18-.36.34.34 0 0 0-.1-.26 1 1 0 0 0-.46-.18 7.75 7.75 0 0 1-2.1-.67 1.34 1.34 0 0 1-.62-1.17 1.43 1.43 0 0 1 .54-1.13 2.45 2.45 0 0 1 1.65-.46 2.89 2.89 0 0 1 1.58.35 1.78 1.78 0 0 1 .71 1l-1.29.24a.81.81 0 0 0-.32-.46 1.11 1.11 0 0 0-.66-.16 1.53 1.53 0 0 0-.78.15.32.32 0 0 0-.15.28.3.3 0 0 0 .14.25 5 5 0 0 0 1.28.38 3.89 3.89 0 0 1 1.53.61 1.31 1.31 0 0 1 .43 1 1.56 1.56 0 0 1-.6 1.23 2.64 2.64 0 0 1-1.76.51 2.86 2.86 0 0 1-1.68-.43 2 2 0 0 1-.81-1.13zm5.99 1.48v-7.15h1.37v2.57a2 2 0 0 1 1.51-.72 2 2 0 0 1 1.56.69 2.79 2.79 0 0 1 .62 2 3 3 0 0 1-.63 2 2 2 0 0 1-1.53.72 1.88 1.88 0 0 1-.88-.22 2.13 2.13 0 0 1-.75-.66v.76zm1.36-2.7a2.19 2.19 0 0 0 .26 1.19 1.08 1.08 0 0 0 .94.55 1 1 0 0 0 .75-.35 1.94 1.94 0 0 0 .32-1.22 2.09 2.09 0 0 0-.32-1.29 1.08 1.08 0 0 0-1.65 0 1.78 1.78 0 0 0-.3 1.12zm4.49.04a2.77 2.77 0 0 1 .34-1.33 2.28 2.28 0 0 1 .95-1 2.77 2.77 0 0 1 1.38-.34 2.6 2.6 0 0 1 2.68 2.7 2.67 2.67 0 0 1-.76 2 2.57 2.57 0 0 1-1.91.77 3.05 3.05 0 0 1-1.36-.32 2.2 2.2 0 0 1-1-.95 3.06 3.06 0 0 1-.32-1.53zm1.41.07a1.72 1.72 0 0 0 .36 1.18 1.2 1.2 0 0 0 1.81 0 1.75 1.75 0 0 0 .36-1.19 1.71 1.71 0 0 0-.36-1.17 1.2 1.2 0 0 0-1.81 0 1.73 1.73 0 0 0-.31 1.18zm6.33 2.59h-1.37v-5.18h1.27v.74a2.28 2.28 0 0 1 .59-.69 1.07 1.07 0 0 1 .59-.17 1.77 1.77 0 0 1 .91.26l-.43 1.2a1.19 1.19 0 0 0-.64-.23.72.72 0 0 0-.49.16 1.1 1.1 0 0 0-.32.57 8.81 8.81 0 0 0-.11 1.74zm2.45.35l1.57.19a.49.49 0 0 0 .18.37 1 1 0 0 0 .61.15 1.7 1.7 0 0 0 .81-.16.65.65 0 0 0 .27-.35 2.06 2.06 0 0 0 .07-.63v-.76a1.86 1.86 0 0 1-1.56.84 1.91 1.91 0 0 1-1.65-.88 3 3 0 0 1-.48-1.74 2.85 2.85 0 0 1 .63-2 2 2 0 0 1 1.56-.69 1.87 1.87 0 0 1 1.58.85v-.73h1.29v4.65a4.66 4.66 0 0 1-.15 1.37 1.75 1.75 0 0 1-.43.72 1.88 1.88 0 0 1-.73.4 3.73 3.73 0 0 1-1.15.15 3 3 0 0 1-1.87-.45 1.43 1.43 0 0 1-.55-1.15zm1.23-3.05a1.83 1.83 0 0 0 .32 1.21 1 1 0 0 0 .78.38 1.09 1.09 0 0 0 .85-.39 1.66 1.66 0 0 0 .35-1.16 1.83 1.83 0 0 0-.33-1.2 1.05 1.05 0 0 0-.84-.39 1 1 0 0 0-.81.38 1.78 1.78 0 0 0-.28 1.17zM398.61 381l1.4-.13a1.74 1.74 0 0 0 .52 1 1.56 1.56 0 0 0 1 .33 1.61 1.61 0 0 0 1.06-.3.87.87 0 0 0 .35-.69.64.64 0 0 0-.15-.43 1.19 1.19 0 0 0-.52-.31c-.17-.06-.55-.16-1.15-.31a4 4 0 0 1-1.64-.71 1.84 1.84 0 0 1-.65-1.44 1.89 1.89 0 0 1 .3-1 2 2 0 0 1 .9-.73 3.7 3.7 0 0 1 1.41-.25 3.05 3.05 0 0 1 2 .59 2.1 2.1 0 0 1 .71 1.58l-1.44.06a1.29 1.29 0 0 0-.4-.79 1.49 1.49 0 0 0-.92-.24 1.63 1.63 0 0 0-1 .26.5.5 0 0 0-.23.44.56.56 0 0 0 .21.44 4 4 0 0 0 1.33.48 6.72 6.72 0 0 1 1.56.51 2 2 0 0 1 .79.73 2.14 2.14 0 0 1 .29 1.14 2.1 2.1 0 0 1-.35 1.15 2.05 2.05 0 0 1-1 .8 4.17 4.17 0 0 1-1.56.26 3.08 3.08 0 0 1-2.08-.63 2.68 2.68 0 0 1-.74-1.81zm7.02 2.31v-7.15H407v7.15zm2.46-2.66a2.89 2.89 0 0 1 .34-1.33 2.34 2.34 0 0 1 .95-1 2.82 2.82 0 0 1 1.38-.34 2.58 2.58 0 0 1 1.93.77 2.63 2.63 0 0 1 .76 1.93 2.71 2.71 0 0 1-.76 2 2.61 2.61 0 0 1-1.92.77 3.12 3.12 0 0 1-1.36-.32 2.25 2.25 0 0 1-1-.95 3.18 3.18 0 0 1-.32-1.53zm1.41.07a1.67 1.67 0 0 0 .37 1.18 1.19 1.19 0 0 0 1.8 0 1.75 1.75 0 0 0 .36-1.19 1.71 1.71 0 0 0-.36-1.17 1.19 1.19 0 0 0-1.8 0 1.69 1.69 0 0 0-.37 1.18zm7.4-2.59v1.09h-.9v2.09a4.6 4.6 0 0 0 0 .74.26.26 0 0 0 .12.17.35.35 0 0 0 .23.07 1.67 1.67 0 0 0 .55-.13l.12 1.07a2.85 2.85 0 0 1-1.08.2 1.74 1.74 0 0 1-.67-.12 1 1 0 0 1-.44-.33 1.22 1.22 0 0 1-.19-.53 6.28 6.28 0 0 1-.05-1v-2.26H414v-1.09h.63v-1l1.38-.8v1.83z"/></svg>