<svg id="Group_3" data-name="Group 3" xmlns="http://www.w3.org/2000/svg" width="161" height="151.946" viewBox="0 0 161 151.946">
  <path id="Path_19" data-name="Path 19" d="M316.358,127.19v59.976A55.664,55.664,0,0,1,294.328,231.6a34.986,34.986,0,0,1-42.24,0,55.808,55.808,0,0,1-22.027-44.438V121.59a79.038,79.038,0,0,0,21.031,9.786,77.452,77.452,0,0,0,21.559,3.223,78.664,78.664,0,0,0,39.03-10.151,3.141,3.141,0,0,1,4.679,2.742Z" transform="translate(-157.717 -89.111)" fill="#ffd4c3"/>
  <path id="Path_20" data-name="Path 20" d="M241.657,131.376a77.453,77.453,0,0,0,21.559,3.223c1.8.013,3.55-.04,5.261-.144a77.634,77.634,0,0,1-17.386-3.079,79.038,79.038,0,0,1-21.031-9.786v5.327A79.628,79.628,0,0,0,241.657,131.376Zm70.022-6.927q-2.344,1.318-4.772,2.474c.007.089.018.176.018.268v59.976A55.664,55.664,0,0,1,284.894,231.6a35.007,35.007,0,0,1-16.4,6.768,34.981,34.981,0,0,0,25.837-6.768,55.664,55.664,0,0,0,22.031-44.438V127.19a3.141,3.141,0,0,0-4.679-2.742Z" transform="translate(-157.717 -89.111)" fill="#ffd4c3"/>
  <path id="Path_21" data-name="Path 21" d="M342.7,359.849a20.881,20.881,0,0,0-41.647,0,43.586,43.586,0,0,1,41.647,0Z" transform="translate(-206.389 -239.198)"/>
  <path id="Path_22" data-name="Path 22" d="M367.654,355.881a43.9,43.9,0,0,1,10.173,3.968,21.148,21.148,0,0,0-21.078-19.328,20.314,20.314,0,0,0-4.458.556A21.257,21.257,0,0,1,367.654,355.881Z" transform="translate(-241.512 -239.198)"/>
  <path id="Path_23" data-name="Path 23" d="M405,231.229a12.215,12.215,0,0,0-10.922,6.8,12.167,12.167,0,0,0,21.843,0A12.215,12.215,0,0,0,405,231.229Z" transform="translate(-270.156 -164.274)"/>
  <path id="Path_24" data-name="Path 24" d="M423.665,231.229a12.124,12.124,0,0,0-2.358.236,12.265,12.265,0,0,1,8.563,6.568,12.265,12.265,0,0,1-8.563,6.568,12.127,12.127,0,0,0,13.28-6.568A12.215,12.215,0,0,0,423.665,231.229Z" transform="translate(-288.825 -164.274)"/>
  <path id="Path_25" data-name="Path 25" d="M281.941,231.229a12.215,12.215,0,0,0-10.922,6.8,12.167,12.167,0,0,0,21.843,0A12.215,12.215,0,0,0,281.941,231.229Z" transform="translate(-185.796 -164.274)"/>
  <path id="Path_26" data-name="Path 26" d="M279.139,232.27a55.7,55.7,0,0,1-1.792,12.377,12.342,12.342,0,0,1-6.327-5.9A12.265,12.265,0,0,1,279.139,232.27Z" transform="translate(-185.797 -164.988)" fill="#fbfbfb"/>
  <path id="Path_27" data-name="Path 27" d="M300.61,231.229a12.124,12.124,0,0,0-2.358.236,12.265,12.265,0,0,1,8.563,6.568,12.265,12.265,0,0,1-8.563,6.568,12.126,12.126,0,0,0,13.28-6.568A12.215,12.215,0,0,0,300.61,231.229Z" transform="translate(-204.466 -164.274)"/>
  <path id="Path_28" data-name="Path 28" d="M251.091,131.376v23.213c0,.6-.009,1.2-.031,1.8a55.767,55.767,0,0,1-20.04,41.09,55.7,55.7,0,0,1-.959-10.317V121.59a79.038,79.038,0,0,0,21.031,9.786Z" transform="translate(-157.717 -89.111)" fill="#ffd4c3"/>
  <path id="Path_29" data-name="Path 29" d="M279.139,232.27a55.7,55.7,0,0,1-1.792,12.377,12.342,12.342,0,0,1-6.327-5.9A12.265,12.265,0,0,1,279.139,232.27Z" transform="translate(-185.797 -164.988)"/>
  <path id="Path_30" data-name="Path 30" d="M71.77,133.362a34.988,34.988,0,0,1-42.24,0A55.667,55.667,0,0,1,7.5,88.924V28.949a3.144,3.144,0,0,1,4.689-2.738,78.6,78.6,0,0,0,37.9,10.146A78.643,78.643,0,0,0,89.12,26.2,3.143,3.143,0,0,1,93.8,28.948V88.924A55.667,55.667,0,0,1,71.77,133.362Z" transform="translate(-5.141 -23.444)" fill="#fcbea6"/>
  <path id="Path_31" data-name="Path 31" d="M172.908,26.2q-2.343,1.318-4.772,2.474c.007.09.018.178.018.27V88.924a55.667,55.667,0,0,1-22.029,44.438,35.009,35.009,0,0,1-16.4,6.768,34.982,34.982,0,0,0,25.837-6.768,55.667,55.667,0,0,0,22.029-44.439V28.948a3.143,3.143,0,0,0-4.679-2.744Z" transform="translate(-88.93 -23.444)" fill="#fcbea6"/>
  <path id="Path_32" data-name="Path 32" d="M120.147,236.923a20.881,20.881,0,0,1-41.647,0,43.586,43.586,0,0,0,41.647,0Z" transform="translate(-53.815 -168.177)"/>
  <path id="Path_33" data-name="Path 33" d="M145.1,240.891a21.258,21.258,0,0,1-15.363,14.8,20.316,20.316,0,0,0,4.458.556,21.148,21.148,0,0,0,21.078-19.328,43.909,43.909,0,0,1-10.173,3.968Z" transform="translate(-88.938 -168.177)"/>
  <path id="Path_34" data-name="Path 34" d="M182.438,127.632a12.215,12.215,0,0,0-10.922,6.8,12.167,12.167,0,0,0,21.843,0A12.215,12.215,0,0,0,182.438,127.632Z" transform="translate(-117.582 -93.253)"/>
  <path id="Path_35" data-name="Path 35" d="M201.107,127.632a12.123,12.123,0,0,0-2.358.236,12.265,12.265,0,0,1,8.563,6.568,12.265,12.265,0,0,1-8.563,6.568,12.127,12.127,0,0,0,13.28-6.568,12.215,12.215,0,0,0-10.922-6.8Z" transform="translate(-136.252 -93.253)"/>
  <path id="Path_36" data-name="Path 36" d="M59.384,127.632a12.215,12.215,0,0,0-10.922,6.8,12.167,12.167,0,0,0,21.843,0A12.215,12.215,0,0,0,59.384,127.632Z" transform="translate(-33.223 -93.253)"/>
  <path id="Path_37" data-name="Path 37" d="M78.052,127.632a12.124,12.124,0,0,0-2.358.236,12.265,12.265,0,0,1,8.563,6.568,12.265,12.265,0,0,1-8.563,6.568,12.127,12.127,0,0,0,13.28-6.568A12.215,12.215,0,0,0,78.052,127.632Z" transform="translate(-51.892 -93.253)"/>
  <path id="Path_38" data-name="Path 38" d="M39.192,60.54a2.357,2.357,0,0,0,0-2.107,14.525,14.525,0,0,0-26.063,0,2.357,2.357,0,0,0,0,2.107,14.525,14.525,0,0,0,26.063,0ZM17.955,59.487a9.795,9.795,0,0,1,16.411,0,9.795,9.795,0,0,1-16.411,0Zm46.9-9.163a14.511,14.511,0,0,0-13.032,8.11,2.358,2.358,0,0,0,0,2.107,14.526,14.526,0,0,0,26.063,0,2.357,2.357,0,0,0,0-2.107A14.51,14.51,0,0,0,64.856,50.324Zm0,13.61a9.787,9.787,0,0,1-8.206-4.446,9.795,9.795,0,0,1,16.411,0,9.787,9.787,0,0,1-8.205,4.446Zm2.772,21.145a2.359,2.359,0,0,0-2.421-.1,41.451,41.451,0,0,1-19.7,5.01h-.075a41.464,41.464,0,0,1-19.623-5.01,2.358,2.358,0,0,0-3.474,2.284,23.7,23.7,0,0,0,7.4,15.179,23.03,23.03,0,0,0,15.486,6.3l.28,0A23.535,23.535,0,0,0,68.68,87.261,2.359,2.359,0,0,0,67.627,85.079Zm-22.345,18.94a18.814,18.814,0,0,1-17.318-12.8A46.026,46.026,0,0,0,45.424,94.7h.083a46.019,46.019,0,0,0,17.553-3.492,18.691,18.691,0,0,1-17.779,12.808ZM158.273,51.63a5.441,5.441,0,0,0-5.467-.046,76.293,76.293,0,0,1-37.855,9.849,75.279,75.279,0,0,1-23.934-4.094V23.807a5.5,5.5,0,0,0-8.195-4.8,76.369,76.369,0,0,1-37.316,9.851l-.539,0A76.384,76.384,0,0,1,8.205,19.014,5.5,5.5,0,0,0,0,23.808V83.783A58.289,58.289,0,0,0,22.967,130.1a37.346,37.346,0,0,0,45.082,0q1.56-1.181,3.036-2.469A58.161,58.161,0,0,0,92.951,162.68a37.346,37.346,0,0,0,45.082,0A58.29,58.29,0,0,0,161,116.358V56.383a5.454,5.454,0,0,0-2.727-4.753ZM90.751,89.252a9.687,9.687,0,0,1,5.393-1.635,9.788,9.788,0,0,1,8.206,4.446,9.776,9.776,0,0,1-14.316,2.294Q90.5,91.829,90.751,89.252ZM65.207,126.339a32.63,32.63,0,0,1-39.4,0A53.548,53.548,0,0,1,4.717,83.782V23.808A.759.759,0,0,1,5.1,23.13a.8.8,0,0,1,.4-.112.78.78,0,0,1,.387.107A81.116,81.116,0,0,0,44.933,33.574l.573,0A81.1,81.1,0,0,0,85.135,23.118a.753.753,0,0,1,.774.008.764.764,0,0,1,.391.681V83.782A53.548,53.548,0,0,1,65.207,126.339Zm91.076-9.981a53.547,53.547,0,0,1-21.092,42.557,32.63,32.63,0,0,1-39.4,0A53.441,53.441,0,0,1,75.2,123.672,58.439,58.439,0,0,0,88.9,99.28a14.51,14.51,0,0,0,20.279-6.164,2.358,2.358,0,0,0,0-2.107,14.52,14.52,0,0,0-18.161-7.173V62.307a79.912,79.912,0,0,0,23.9,3.843l.573,0a81.1,81.1,0,0,0,39.63-10.458.755.755,0,0,1,.773.008.765.765,0,0,1,.391.681ZM134.84,82.9a14.51,14.51,0,0,0-13.032,8.11,2.357,2.357,0,0,0,0,2.107,14.525,14.525,0,0,0,26.063,0,2.357,2.357,0,0,0,0-2.107A14.509,14.509,0,0,0,134.84,82.9Zm0,13.61a9.788,9.788,0,0,1-8.206-4.446,9.795,9.795,0,0,1,16.411,0A9.787,9.787,0,0,1,134.84,96.51Zm-19.351,20.757-.28,0a23.03,23.03,0,0,0-15.486,6.3,23.7,23.7,0,0,0-7.4,15.179,2.358,2.358,0,0,0,3.474,2.284,41.462,41.462,0,0,1,19.623-5.01h.075a41.454,41.454,0,0,1,19.7,5.01,2.358,2.358,0,0,0,3.474-2.285,23.533,23.533,0,0,0-23.176-21.476Zm0,14.033h-.083a46.026,46.026,0,0,0-17.46,3.489,18.426,18.426,0,0,1,35.1,0,46.015,46.015,0,0,0-17.554-3.492Z" transform="translate(0 -18.303)" fill="none"/>
</svg>
