<svg xmlns="http://www.w3.org/2000/svg" width="454" height="318" viewBox="0 0 454 318"><defs><style>.cls-1{fill:#f8ae90;}</style></defs><g id="Layer_17" data-name="Layer 17"><rect class="cls-1" x="42" y="33" width="371" height="253" transform="translate(-22.34 37.94) rotate(-9.09)"/><path d="M194.82,109.23c-3,0-5.73-1.32-5.69-6.2l.17-20.72c0-4.88,2.78-6.13,5.79-6.11,2.73,0,5.81,1.17,5.77,6.21l-.17,20.71C200.65,108.16,197.55,109.26,194.82,109.23Zm-1.72-5.85c0,1.68.58,2.21,1.79,2.22s1.81-.47,1.82-2.19l.18-21.35c0-1.76-.63-2.21-1.79-2.22s-1.81.51-1.83,2.19Z"/><path d="M222.11,101c-.05,6.12-1.6,8-6.73,7.94l-4.9,0,.07-9.12-3.17,0,1.6-3.63h1.6l.16-19.31,4.9,0c5.14,0,6.65,1.49,6.61,6.77l-.05,6.44c0,3.56-.65,5.67-2.43,7l2.37,0Zm-3.75-17.91c0-2-.46-2.44-2.59-2.46h-1.09l-.12,15.56h.92c2,0,2.79-2,2.82-6.17Zm-.14,16.76-1.6,0h-2.09l-.05,5.4h1.09c2.13,0,2.61-.45,2.63-2.41Z"/><path d="M241.25,102.37c-.05,5.12-1,8.55-10.62,6.56l0-3.8c5.81,1.32,6.59.05,6.61-2.39l0-2.8-6.58,0,.13-16.16c0-5.12,1.07-8.55,10.61-6.55l0,3.8c-5.77-1.33-6.58-.06-6.6,2.38l-.11,13,6.58.06Z"/><path d="M250.15,103.41a3,3,0,0,1,3.19,3.14,3.22,3.22,0,1,1-3.19-3.14ZM260.68,77.9l-7.17,22.69-2.81-.78,5.69-23.07Z"/><path d="M126.81,155.44l5.82.05,0,3.64-5.82,0-.08,9.12-4,0,.08-9.12-3.18,0,1.56-3.62h1.64l.11-12.6c0-5.12.27-8.51,9.85-6.56l0,3.8c-5.81-1.32-5.83,0-5.84,2.4Z"/><path d="M140.49,142c0-4.88,2.78-6.14,5.79-6.12,2.81,0,5.81,1.09,5.77,6.21l-.21,26.36-3.94,0,.08-9.12-3.66,0-.07,9.11-4,0Zm6-19a5.1,5.1,0,1,1-5.18,5A5,5,0,0,1,146.47,123Zm-.07,7.68a2.52,2.52,0,1,0-2.51-2.54A2.51,2.51,0,0,0,146.4,130.65Zm1.72,11c0-1.76-.66-2.21-1.83-2.22s-1.81.51-1.82,2.19l-.12,14,3.66,0Z"/><path d="M179.56,136.56c5.14,0,6.65,1.49,6.61,6.77l0,6.44c0,3.56-.65,5.67-2.43,7l2.37,0,0,3.88c-.05,6.11-1.59,8-6.69,7.94l-4.94,0,.26-32.07Zm-1.08,19.3h.92c2,0,2.79-2,2.82-6.17l.06-6.92c0-2-.42-2.45-2.59-2.46H178.6Zm3.7,3.67h-1.64l-2,0-.05,5.4h1.09c2.13,0,2.61-.46,2.63-2.42Z"/><path d="M199.09,168.79l-3.9,0,.27-32.07,3.89,0Z"/><path d="M218.24,169l-9.56-.08L209,136.8l4,0-.23,28.51,5.58,0Z"/><path d="M235.3,169.09l-9.55-.08.26-32.07,4,0-.23,28.51,5.58.05Z"/><path d="M246.47,162.86c0,2.44.73,3.72,6.57,2.49l0,3.8c-9.58,1.84-10.55-1.6-10.51-6.72l.15-18.64c0-5.12,1.08-8.51,10.62-6.55l0,3.8c-5.81-1.33-6.58-.06-6.6,2.38l-.1,13,5.78.05,0,3.64-5.78-.05Z"/><path d="M270.42,141.06l-3.29,0-.24,28.31-3.89,0,.23-28.31-4.29,0,1.55-3.74,10,.08Z"/><path d="M286.48,141.19l-3.3,0L283,169.48l-3.89,0,.23-28.31-4.29,0,1.55-3.74,10,.08Z"/><path d="M297.3,163.27c0,2.44.73,3.73,6.56,2.5l0,3.8c-9.57,1.84-10.55-1.61-10.5-6.73l.15-18.63c0-5.12,1.07-8.51,10.61-6.56l0,3.8c-5.81-1.33-6.58,0-6.6,2.39l-.11,13,5.78,0,0,3.64-5.78-.05Z"/><path d="M317.5,137.68c5.14,0,6.65,1.5,6.61,6.78l-.05,6.43c0,3.56-.65,5.68-2.43,7l2.37,0-.05,6.56c0,4.24,1.48,5.33,1.48,5.33l-3.9,0s-1.52-.53-1.48-5.33l0-3.8h-1.6l-2.09,0-.07,9.12-4,0,.26-32.08Zm-.95,3.75L316.42,157h.92c2,0,2.79-2,2.82-6.18l.06-6.92c0-2-.46-2.44-2.59-2.46Z"/><path d="M173.1,200.26l-3.3,0-.23,28.31-3.89,0,.23-28.31-4.3,0,1.56-3.75,10,.09Z"/><path d="M184.15,228.67l-3.9,0,.26-32.07,3.9,0Z"/><path d="M203.3,228.83l-9.56-.08.26-32.07,4,0-.24,28.51,5.58.05Z"/><path d="M216,196.86c5.14,0,6.66,1.49,6.61,6.77l0,6.44c0,3.56-.65,5.67-2.43,7l2.37,0,0,3.88c-.05,6.11-1.59,8-6.69,7.94l-4.94,0,.27-32.07Zm-1.08,19.3h.93c2,0,2.78-2,2.82-6.17l.05-6.92c0-2-.42-2.45-2.59-2.46H215Zm3.71,3.67h-1.65l-2.05,0,0,5.4h1.08c2.13,0,2.62-.46,2.63-2.42Z"/><path d="M231.45,202.7c0-4.88,2.78-6.14,5.79-6.11,2.81,0,5.82,1.09,5.77,6.21l-.21,26.35-3.93,0,.07-9.12-3.65,0-.08,9.12-4,0Zm7.63-.3c0-1.76-.66-2.2-1.83-2.21s-1.81.5-1.82,2.18l-.11,14,3.65,0Z"/><path d="M251.8,203.87c0-5.12,1.07-8.55,10.61-6.6l0,3.84c-5.81-1.32-6.58-.05-6.6,2.39L255.61,224c0,1.67.58,2.2,1.79,2.21s1.81-.47,1.82-2.19l0-3.87-2.61,0,1.56-3.62,5.06,0-.06,7.2c0,5-3.14,6.13-5.87,6.11-3,0-5.73-1.33-5.69-6.21Z"/><path d="M275.17,223.1c0,2.43.73,3.72,6.56,2.49l0,3.8c-9.57,1.84-10.54-1.61-10.5-6.73l.15-18.63c0-5.12,1.07-8.51,10.61-6.56l0,3.8c-5.81-1.32-6.58-.05-6.6,2.39l-.11,13,5.78,0,0,3.64-5.78,0Z"/></g></svg>