<svg id="Layer_1" data-name="Layer 1" xmlns="http://www.w3.org/2000/svg" width="430" height="330" viewBox="0 0 430 330"><defs><style>.cls-1{fill:#ff4800;}</style></defs><g id="Layer_2" data-name="Layer 2"><path class="cls-1" d="M10.69,164.47a242.37,242.37,0,0,1,61-11,225.7,225.7,0,0,1,44.76,2.18,219.6,219.6,0,0,1,24.46,5.15c3.85,1,7.63,2.32,11.47,3.42a163.49,163.49,0,0,1,23.88,9.15,214.73,214.73,0,0,1,95.09,87.68c7.48,13.05,16.09,29.24,11.45,44.69a26.39,26.39,0,0,1-11.45,15.18c-5.77,3.4-13.64,3.71-19-.7-5.69-4.68-5.41-12.93-2.26-19,3.48-6.68,10.24-10.88,16.66-14.35,12-6.47,24.2-12.45,36.09-19.08,23-12.79,45.76-27.51,62.76-47.87,8.38-10,15.68-21.64,19.68-34.17,2.41-7.54,2.41-15-.78-22.27-2.83-6.47-7.05-12.43-11.12-18.16A230.28,230.28,0,0,0,319,91.49c-21.21-15.11-44.69-26.93-69.11-35.93A385.13,385.13,0,0,0,172.48,36q-19.64-2.9-39.47-4c-14.36-.89-30.44-2.46-42.66,6.59C84.35,43.1,79.53,49,74.76,54.76q-7.53,9.06-14.57,18.5a449,449,0,0,0-48.64,82.06c-3.2,7.1-6.9,14.41-7.87,22.24-.93,7.46,1.59,14.13,6.6,19.62,4.75,5.19,10.86,9.34,16.91,12.87a104.88,104.88,0,0,0,19.45,8.76,129.7,129.7,0,0,0,42.47,6.47c32.09-.27,63-11.31,91.63-24.93,30.33-14.4,59.31-31.57,87.53-49.72q41.12-26.46,81-55c22.21-15.84,44.25-33.13,60.2-55.56a114.39,114.39,0,0,0,17-34.68,1.52,1.52,0,0,0-1.92-1.83A232.31,232.31,0,0,0,343,39.36a240.72,240.72,0,0,0-62.52,63,225.73,225.73,0,0,0-23.35,44.52,1.51,1.51,0,0,0,1,1.85c4.38,1.4,10.12.26,13.15-3.38,2.65-3.2,1.94-8.46-1.94-10.37-4.09-2-9.21.65-12.5,3.07-5.18,3.81-8.22,9.62-11.7,14.89l-15.52,23.5c-1,1.51,1.12,2.83,2.36,1.82l29.59-24.44c1.49-1.23-.64-3.34-2.12-2.12q-14.79,12.23-29.6,24.43l2.36,1.82L246,157.22q3.44-5.17,6.85-10.36a23.67,23.67,0,0,1,5.55-6.17c2.63-2,9.73-6.07,11.42-.88,1.82,5.58-7.23,7.16-10.8,6l1,1.85a226.9,226.9,0,0,1,47.22-73.79,238.49,238.49,0,0,1,71.13-51.31,224.67,224.67,0,0,1,47-16l-1.84-1.93c-7.64,26.62-26,48.07-46.59,65.85-10.57,9.08-21.8,17.39-33.19,25.41-13.07,9.2-26.26,18.24-39.46,27.24-27.85,19-56.08,37.4-85.44,54-28.64,16.15-58.58,31.65-90.62,39.82-29.14,7.43-60.93,8-89-4.11a96.85,96.85,0,0,1-18.77-10.71c-5.87-4.29-12-9.66-13.63-17.1C5.1,176.77,9,168.34,12.3,161S19,146.51,22.59,139.42A446.87,446.87,0,0,1,74.74,59.48c4.83-5.92,9.61-12.08,15.51-17,6.37-5.34,14-7.58,22.17-8a195.49,195.49,0,0,1,21.51.53q9.8.57,19.54,1.58a401.27,401.27,0,0,1,78.29,15.9,313.94,313.94,0,0,1,71.91,32.37,236.74,236.74,0,0,1,57.95,50q6.27,7.59,11.79,15.74c4.14,6.11,8.78,12.61,10.3,20,1.68,8.16-1.63,16.44-5.07,23.71A107.57,107.57,0,0,1,368.79,211c-15.44,21.56-37.83,37.13-60.52,50.28-11.61,6.73-23.52,12.91-35.44,19.06-11.73,6.06-26.37,13-27.88,27.85A16.06,16.06,0,0,0,252.56,324a19.9,19.9,0,0,0,17.8.81c12.17-5.24,17.65-19.26,16.42-31.77-1.47-15-9.8-28.95-17.67-41.44a218.25,218.25,0,0,0-73.22-71.11,198.68,198.68,0,0,0-36.15-17,240.5,240.5,0,0,0-47.39-11.39,236.53,236.53,0,0,0-78.67,3.27q-12,2.52-23.8,6.23c-1.84.58-1,3.47.8,2.89Z"/></g></svg>