<svg xmlns="http://www.w3.org/2000/svg" width="454" height="318" viewBox="0 0 454 318"><defs><style>.cls-1{fill:#f8ae90;}</style></defs><g id="Layer_17" data-name="Layer 17"><rect class="cls-1" x="42" y="33" width="371" height="253" transform="translate(426.95 352.93) rotate(-170.91)"/><path d="M148.68,107.64l1.39,27.12c.27,5.18-2.85,6.5-5.66,6.64-3.1.16-6-1-6.23-6l-1.39-27.12,4.08-.21,1.41,27.45c.09,1.73.74,2.23,2,2.17s1.83-.59,1.74-2.36l-1.41-27.45Z"/><path d="M158,113c-.26-5,2.48-6.48,5.58-6.64,2.89-.15,6,.77,6.31,6l1.39,27.12-4,.21-.49-9.39-3.75.2.48,9.38-4.09.21Zm7.83-.77c-.1-1.81-.82-2.23-2-2.17s-1.83.63-1.74,2.36l.73,14.36,3.76-.19Z"/><path d="M183.77,125.73l5.95-.31.19,3.75-5.94.3.48,9.38-4.09.21L179,113c-.27-5.27-.2-8.82,9.68-7.39l.21,4c-6-1-5.95.31-5.82,2.82Z"/><path d="M197.09,105.12l4.09-.21,1,19.87,3.8-.19-1-19.88,4-.2,1.7,33-4,.2-.48-9.38-3.8.2.48,9.38-4.09.21Z"/><path d="M231.74,129.91c.13,2.51,1,3.79,6.9,2.16l.2,3.91c-9.73,2.48-10.94-1-11.21-6.27l-.13-2.51-3.76.19.48,9.42-4.08.21-1.4-27.11c-.25-5,2.49-6.48,5.59-6.64a6.3,6.3,0,0,1,3.8.79c1.43-1.23,4.18-1.78,9-1.08l.2,3.91c-6.06-1-6.78.35-6.65,2.86l.7,13.49,6-.3.2,3.74-6,.31Zm-8.19-6.26,3.76-.2-.75-14.6c-.09-1.77-.82-2.23-2-2.17s-1.83.63-1.74,2.36Z"/><path d="M259.09,129.54c.23,4.36,1.85,5.39,1.85,5.39l-4,.2s-1.6-.45-1.85-5.39L254,107.81c-.07-1.31-.81-2.1-2-2s-1.86.92-1.79,2.24l1.41,27.4-4.09.21-1.69-33,4.08-.21.08,1.4s.57-1.64,3.3-1.78,4.48.93,4.76,6.4Z"/><path d="M267.12,108.46c-.27-5.27.58-8.86,10.51-7.43l.2,4c-6.05-1-6.77.35-6.64,2.86l1.08,21.1c.09,1.73.74,2.23,2,2.17s1.83-.59,1.74-2.36l-.2-4-2.69.14,1.38-3.83,5.2-.26.38,7.4c.27,5.19-2.85,6.5-5.66,6.65-3.1.16-6-1-6.23-6Z"/><path d="M293,133.29l-4,.2-1.69-33,4-.2Z"/><path d="M301.12,106.71c-.27-5.26.58-8.86,10.51-7.43l.2,4c-6.06-1-6.77.35-6.65,2.86l1.09,21.11c.09,1.73.73,2.23,2,2.17s1.83-.59,1.74-2.36l-.2-4-2.69.14,1.38-3.83,5.21-.27.38,7.41c.26,5.18-2.86,6.5-5.67,6.64-3.1.16-6-1-6.23-6Z"/><path d="M145.09,195.79c.27,5.27-.54,8.86-10.52,7.39l-.2-3.91c6.06,1,6.78-.35,6.65-2.86l-.15-2.88-6.77.35-.86-16.62c-.27-5.27.58-8.86,10.52-7.39l.2,3.91c-6.06-1-6.78.35-6.65,2.86L138,190l6.77-.35Z"/><path d="M152.74,176.22c-.27-5.27.58-8.82,10.51-7.39l.2,3.91c-6.06-1-6.77.35-6.65,2.86l1,20c.13,2.51,1,3.79,6.9,2.16l.2,3.91c-9.73,2.48-10.94-1-11.21-6.27Z"/><path d="M176.83,194.62c.13,2.51,1,3.78,6.9,2.16l.2,3.91c-9.73,2.48-10.94-1-11.21-6.27l-1-19.18c-.27-5.26.58-8.82,10.51-7.39l.2,3.91c-6.06-1-6.77.35-6.65,2.86l.69,13.37,5.95-.3.19,3.74-5.95.31Z"/><path d="M204.31,194.24c.22,4.36,1.85,5.39,1.85,5.39l-4,.21s-1.59-.46-1.85-5.4l-1.12-21.93c-.07-1.31-.81-2.1-2-2s-1.86.92-1.79,2.24l1.4,27.4-4.09.21-1.69-33,4.09-.21.07,1.4s.58-1.64,3.31-1.78,4.48.93,4.76,6.4Z"/><path d="M217.43,192.53c.13,2.51,1,3.79,6.9,2.17l.21,3.91c-9.73,2.48-10.95-1-11.22-6.28l-1-19.17c-.27-5.27.58-8.82,10.51-7.39l.2,3.91c-6.06-1-6.77.35-6.64,2.86l.68,13.37,5.95-.3.19,3.74-5.95.3Z"/><path d="M239.49,164.84l4-.21.64,12.59c.26,4.9-.27,6.82-2,8.31l2.43-.12.35,6.75c.22,4.36,1.85,5.39,1.85,5.39l-4,.2s-1.59-.45-1.85-5.39l-.2-3.91-1.65.09-2.15.11.49,9.38-4.09.21-1.7-33,4.09-.21,1,19.87.95,0c2.07-.11,2.75-2.21,2.52-6.53Z"/><path d="M264.32,163.6l1.39,27.12c.26,5.18-2.86,6.5-5.67,6.64-3.09.16-6-1-6.23-6l-1.39-27.12,4.09-.21,1.41,27.45c.09,1.73.74,2.23,2,2.17s1.84-.59,1.75-2.36l-1.41-27.45Z"/><path d="M287,190c.23,4.37,1.85,5.4,1.85,5.4l-4,.2s-1.6-.45-1.85-5.39l-1.13-21.93c-.07-1.32-.81-2.1-2-2s-1.86.92-1.79,2.23l1.41,27.41-4.09.21-1.7-33,4.09-.21.08,1.4s.57-1.64,3.3-1.78,4.48.92,4.76,6.4Z"/><path d="M307.2,187.48c.28,5.26-.53,8.85-10.51,7.38l-.2-3.91c6.06,1,6.78-.34,6.65-2.85l-.15-2.88-6.77.34-.86-16.62c-.27-5.27.58-8.86,10.52-7.39l.2,3.91c-6.06-1-6.78.35-6.65,2.86l.69,13.37,6.77-.35Z"/><path d="M324,164.38l-3.38.17,1.49,29.13-4,.21-1.49-29.13-4.42.22,1.37-3.94,10.24-.53Z"/></g></svg>