<svg xmlns="http://www.w3.org/2000/svg" xmlns:xlink="http://www.w3.org/1999/xlink" width="2496" height="3698" viewBox="0 0 2496 3698">
  <defs>
    <clipPath id="clip-Web_1920_2">
      <rect width="2496" height="3698"/>
    </clipPath>
  </defs>
  <g id="Web_1920_2" data-name="Web 1920 – 2" clip-path="url(#clip-Web_1920_2)">
    <rect width="2496" height="3698"/>
    <g id="Group_1" data-name="Group 1" transform="translate(2047.06 83.703)">
      <path id="Path_1" data-name="Path 1" d="M54.532,4C29.944,4,10,23.374,10,47.258,10,79.7,54.532,127.6,54.532,127.6S99.064,79.7,99.064,47.258C99.064,23.374,79.12,4,54.532,4Zm0,58.708a15.688,15.688,0,0,1-15.9-15.449,15.911,15.911,0,0,1,31.809,0A15.688,15.688,0,0,1,54.532,62.708Z" transform="translate(1.37 0.548)" fill="#ffd4c3"/>
      <path id="Path_2" data-name="Path 2" d="M0,0H111.8V132.692H0Z" fill="none"/>
    </g>
    <path id="Path_39" data-name="Path 39" d="M67.346,1a66.346,66.346,0,1,0,66.346,66.346A66.346,66.346,0,0,0,67.346,1ZM91.472,73.377H67.346a6.031,6.031,0,0,1-6.031-6.031V31.157a6.031,6.031,0,1,1,12.063,0V61.314H91.472a6.031,6.031,0,0,1,0,12.063Z" transform="translate(1192.943 82.703)" fill="#ffd4c3"/>
    <text id="What_fires_TOGETHER_wires_TOGETHER" data-name="What fires TOGETHER
wires TOGETHER" transform="translate(254.5 620.875)" fill="#ffd4c3" font-size="45" font-family="Arial-BoldMT, Arial" font-weight="700"><tspan x="0" y="41">What fires TOGETHER</tspan><tspan x="0" y="101">wires TOGETHER</tspan></text>
    <text id="VILD_MED_MIG" data-name="VILD MED MIG" transform="translate(254.5 463.3)" fill="#ffd4c3" font-size="45" font-family="Arial-BoldMT, Arial" font-weight="700"><tspan x="0" y="41">VILD MED MIG</tspan></text>
    <text id="VOX_Teaterhuset" data-name="VOX,  Teaterhuset" transform="translate(1968.06 466.933)" fill="#ffd4c3" font-size="45" font-family="Arial-BoldMT, Arial" font-weight="700"><tspan x="0" y="41" xml:space="preserve">VOX,  </tspan><tspan x="0" y="101">Teaterhuset</tspan></text>
    <text id="_18:30" data-name="18:30" transform="translate(1116.969 453.075)" fill="#ffd4c3" font-size="45" font-family="Nunito-Regular, Nunito"><tspan x="0" y="45">18:30</tspan></text>
    <g id="Rectangle_5" data-name="Rectangle 5" transform="translate(223.5 307)" fill="#fed4c2" stroke="#707070" stroke-width="1">
      <rect width="2044" height="116" stroke="none"/>
      <rect x="0.5" y="0.5" width="2043" height="115" fill="none"/>
    </g>
    <text id="Tirs._2_august" data-name="Tirs. 2 august" transform="translate(254.5 323)" font-size="60" font-family="Arial-BoldMT, Arial" font-weight="700"><tspan x="0" y="54">Tirs. 2 august</tspan></text>
    <g id="Group_3" data-name="Group 3" transform="translate(259.5 82.404)">
      <path id="Path_19" data-name="Path 19" d="M316.358,127.19v59.976A55.664,55.664,0,0,1,294.328,231.6a34.986,34.986,0,0,1-42.24,0,55.808,55.808,0,0,1-22.027-44.438V121.59a79.038,79.038,0,0,0,21.031,9.786,77.452,77.452,0,0,0,21.559,3.223,78.664,78.664,0,0,0,39.03-10.151,3.141,3.141,0,0,1,4.679,2.742Z" transform="translate(-157.717 -89.111)" fill="#ffd4c3"/>
      <path id="Path_20" data-name="Path 20" d="M241.657,131.376a77.453,77.453,0,0,0,21.559,3.223c1.8.013,3.55-.04,5.261-.144a77.634,77.634,0,0,1-17.386-3.079,79.038,79.038,0,0,1-21.031-9.786v5.327A79.628,79.628,0,0,0,241.657,131.376Zm70.022-6.927q-2.344,1.318-4.772,2.474c.007.089.018.176.018.268v59.976A55.664,55.664,0,0,1,284.894,231.6a35.007,35.007,0,0,1-16.4,6.768,34.981,34.981,0,0,0,25.837-6.768,55.664,55.664,0,0,0,22.031-44.438V127.19a3.141,3.141,0,0,0-4.679-2.742Z" transform="translate(-157.717 -89.111)" fill="#ffd4c3"/>
      <path id="Path_21" data-name="Path 21" d="M342.7,359.849a20.881,20.881,0,0,0-41.647,0,43.586,43.586,0,0,1,41.647,0Z" transform="translate(-206.389 -239.198)"/>
      <path id="Path_22" data-name="Path 22" d="M367.654,355.881a43.9,43.9,0,0,1,10.173,3.968,21.148,21.148,0,0,0-21.078-19.328,20.314,20.314,0,0,0-4.458.556A21.257,21.257,0,0,1,367.654,355.881Z" transform="translate(-241.512 -239.198)"/>
      <path id="Path_23" data-name="Path 23" d="M405,231.229a12.215,12.215,0,0,0-10.922,6.8,12.167,12.167,0,0,0,21.843,0A12.215,12.215,0,0,0,405,231.229Z" transform="translate(-270.156 -164.274)"/>
      <path id="Path_24" data-name="Path 24" d="M423.665,231.229a12.124,12.124,0,0,0-2.358.236,12.265,12.265,0,0,1,8.563,6.568,12.265,12.265,0,0,1-8.563,6.568,12.127,12.127,0,0,0,13.28-6.568A12.215,12.215,0,0,0,423.665,231.229Z" transform="translate(-288.825 -164.274)"/>
      <path id="Path_25" data-name="Path 25" d="M281.941,231.229a12.215,12.215,0,0,0-10.922,6.8,12.167,12.167,0,0,0,21.843,0A12.215,12.215,0,0,0,281.941,231.229Z" transform="translate(-185.796 -164.274)"/>
      <path id="Path_26" data-name="Path 26" d="M279.139,232.27a55.7,55.7,0,0,1-1.792,12.377,12.342,12.342,0,0,1-6.327-5.9A12.265,12.265,0,0,1,279.139,232.27Z" transform="translate(-185.797 -164.988)" fill="#fbfbfb"/>
      <path id="Path_27" data-name="Path 27" d="M300.61,231.229a12.124,12.124,0,0,0-2.358.236,12.265,12.265,0,0,1,8.563,6.568,12.265,12.265,0,0,1-8.563,6.568,12.126,12.126,0,0,0,13.28-6.568A12.215,12.215,0,0,0,300.61,231.229Z" transform="translate(-204.466 -164.274)"/>
      <path id="Path_28" data-name="Path 28" d="M251.091,131.376v23.213c0,.6-.009,1.2-.031,1.8a55.767,55.767,0,0,1-20.04,41.09,55.7,55.7,0,0,1-.959-10.317V121.59a79.038,79.038,0,0,0,21.031,9.786Z" transform="translate(-157.717 -89.111)" fill="#ffd4c3"/>
      <path id="Path_29" data-name="Path 29" d="M279.139,232.27a55.7,55.7,0,0,1-1.792,12.377,12.342,12.342,0,0,1-6.327-5.9A12.265,12.265,0,0,1,279.139,232.27Z" transform="translate(-185.797 -164.988)"/>
      <path id="Path_30" data-name="Path 30" d="M71.77,133.362a34.988,34.988,0,0,1-42.24,0A55.667,55.667,0,0,1,7.5,88.924V28.949a3.144,3.144,0,0,1,4.689-2.738,78.6,78.6,0,0,0,37.9,10.146A78.643,78.643,0,0,0,89.12,26.2,3.143,3.143,0,0,1,93.8,28.948V88.924A55.667,55.667,0,0,1,71.77,133.362Z" transform="translate(-5.141 -23.444)" fill="#fcbea6"/>
      <path id="Path_31" data-name="Path 31" d="M172.908,26.2q-2.343,1.318-4.772,2.474c.007.09.018.178.018.27V88.924a55.667,55.667,0,0,1-22.029,44.438,35.009,35.009,0,0,1-16.4,6.768,34.982,34.982,0,0,0,25.837-6.768,55.667,55.667,0,0,0,22.029-44.439V28.948a3.143,3.143,0,0,0-4.679-2.744Z" transform="translate(-88.93 -23.444)" fill="#fcbea6"/>
      <path id="Path_32" data-name="Path 32" d="M120.147,236.923a20.881,20.881,0,0,1-41.647,0,43.586,43.586,0,0,0,41.647,0Z" transform="translate(-53.815 -168.177)"/>
      <path id="Path_33" data-name="Path 33" d="M145.1,240.891a21.258,21.258,0,0,1-15.363,14.8,20.316,20.316,0,0,0,4.458.556,21.148,21.148,0,0,0,21.078-19.328,43.909,43.909,0,0,1-10.173,3.968Z" transform="translate(-88.938 -168.177)"/>
      <path id="Path_34" data-name="Path 34" d="M182.438,127.632a12.215,12.215,0,0,0-10.922,6.8,12.167,12.167,0,0,0,21.843,0A12.215,12.215,0,0,0,182.438,127.632Z" transform="translate(-117.582 -93.253)"/>
      <path id="Path_35" data-name="Path 35" d="M201.107,127.632a12.123,12.123,0,0,0-2.358.236,12.265,12.265,0,0,1,8.563,6.568,12.265,12.265,0,0,1-8.563,6.568,12.127,12.127,0,0,0,13.28-6.568,12.215,12.215,0,0,0-10.922-6.8Z" transform="translate(-136.252 -93.253)"/>
      <path id="Path_36" data-name="Path 36" d="M59.384,127.632a12.215,12.215,0,0,0-10.922,6.8,12.167,12.167,0,0,0,21.843,0A12.215,12.215,0,0,0,59.384,127.632Z" transform="translate(-33.223 -93.253)"/>
      <path id="Path_37" data-name="Path 37" d="M78.052,127.632a12.124,12.124,0,0,0-2.358.236,12.265,12.265,0,0,1,8.563,6.568,12.265,12.265,0,0,1-8.563,6.568,12.127,12.127,0,0,0,13.28-6.568A12.215,12.215,0,0,0,78.052,127.632Z" transform="translate(-51.892 -93.253)"/>
      <path id="Path_38" data-name="Path 38" d="M39.192,60.54a2.357,2.357,0,0,0,0-2.107,14.525,14.525,0,0,0-26.063,0,2.357,2.357,0,0,0,0,2.107,14.525,14.525,0,0,0,26.063,0ZM17.955,59.487a9.795,9.795,0,0,1,16.411,0,9.795,9.795,0,0,1-16.411,0Zm46.9-9.163a14.511,14.511,0,0,0-13.032,8.11,2.358,2.358,0,0,0,0,2.107,14.526,14.526,0,0,0,26.063,0,2.357,2.357,0,0,0,0-2.107A14.51,14.51,0,0,0,64.856,50.324Zm0,13.61a9.787,9.787,0,0,1-8.206-4.446,9.795,9.795,0,0,1,16.411,0,9.787,9.787,0,0,1-8.205,4.446Zm2.772,21.145a2.359,2.359,0,0,0-2.421-.1,41.451,41.451,0,0,1-19.7,5.01h-.075a41.464,41.464,0,0,1-19.623-5.01,2.358,2.358,0,0,0-3.474,2.284,23.7,23.7,0,0,0,7.4,15.179,23.03,23.03,0,0,0,15.486,6.3l.28,0A23.535,23.535,0,0,0,68.68,87.261,2.359,2.359,0,0,0,67.627,85.079Zm-22.345,18.94a18.814,18.814,0,0,1-17.318-12.8A46.026,46.026,0,0,0,45.424,94.7h.083a46.019,46.019,0,0,0,17.553-3.492,18.691,18.691,0,0,1-17.779,12.808ZM158.273,51.63a5.441,5.441,0,0,0-5.467-.046,76.293,76.293,0,0,1-37.855,9.849,75.279,75.279,0,0,1-23.934-4.094V23.807a5.5,5.5,0,0,0-8.195-4.8,76.369,76.369,0,0,1-37.316,9.851l-.539,0A76.384,76.384,0,0,1,8.205,19.014,5.5,5.5,0,0,0,0,23.808V83.783A58.289,58.289,0,0,0,22.967,130.1a37.346,37.346,0,0,0,45.082,0q1.56-1.181,3.036-2.469A58.161,58.161,0,0,0,92.951,162.68a37.346,37.346,0,0,0,45.082,0A58.29,58.29,0,0,0,161,116.358V56.383a5.454,5.454,0,0,0-2.727-4.753ZM90.751,89.252a9.687,9.687,0,0,1,5.393-1.635,9.788,9.788,0,0,1,8.206,4.446,9.776,9.776,0,0,1-14.316,2.294Q90.5,91.829,90.751,89.252ZM65.207,126.339a32.63,32.63,0,0,1-39.4,0A53.548,53.548,0,0,1,4.717,83.782V23.808A.759.759,0,0,1,5.1,23.13a.8.8,0,0,1,.4-.112.78.78,0,0,1,.387.107A81.116,81.116,0,0,0,44.933,33.574l.573,0A81.1,81.1,0,0,0,85.135,23.118a.753.753,0,0,1,.774.008.764.764,0,0,1,.391.681V83.782A53.548,53.548,0,0,1,65.207,126.339Zm91.076-9.981a53.547,53.547,0,0,1-21.092,42.557,32.63,32.63,0,0,1-39.4,0A53.441,53.441,0,0,1,75.2,123.672,58.439,58.439,0,0,0,88.9,99.28a14.51,14.51,0,0,0,20.279-6.164,2.358,2.358,0,0,0,0-2.107,14.52,14.52,0,0,0-18.161-7.173V62.307a79.912,79.912,0,0,0,23.9,3.843l.573,0a81.1,81.1,0,0,0,39.63-10.458.755.755,0,0,1,.773.008.765.765,0,0,1,.391.681ZM134.84,82.9a14.51,14.51,0,0,0-13.032,8.11,2.357,2.357,0,0,0,0,2.107,14.525,14.525,0,0,0,26.063,0,2.357,2.357,0,0,0,0-2.107A14.509,14.509,0,0,0,134.84,82.9Zm0,13.61a9.788,9.788,0,0,1-8.206-4.446,9.795,9.795,0,0,1,16.411,0A9.787,9.787,0,0,1,134.84,96.51Zm-19.351,20.757-.28,0a23.03,23.03,0,0,0-15.486,6.3,23.7,23.7,0,0,0-7.4,15.179,2.358,2.358,0,0,0,3.474,2.284,41.462,41.462,0,0,1,19.623-5.01h.075a41.454,41.454,0,0,1,19.7,5.01,2.358,2.358,0,0,0,3.474-2.285,23.533,23.533,0,0,0-23.176-21.476Zm0,14.033h-.083a46.026,46.026,0,0,0-17.46,3.489,18.426,18.426,0,0,1,35.1,0,46.015,46.015,0,0,0-17.554-3.492Z" transform="translate(0 -18.303)" fill="none"/>
    </g>
    <g id="Rectangle_6" data-name="Rectangle 6" transform="translate(223.5 797)" fill="#fed4c2" stroke="#707070" stroke-width="1">
      <rect width="2044" height="116" stroke="none"/>
      <rect x="0.5" y="0.5" width="2043" height="115" fill="none"/>
    </g>
    <text id="Ons._3_august" data-name="Ons. 3 august" transform="translate(254.5 813)" font-size="60" font-family="Arial-BoldMT, Arial" font-weight="700"><tspan x="0" y="54">Ons. 3 august</tspan></text>
    <g id="Rectangle_7" data-name="Rectangle 7" transform="translate(223.5 1295)" fill="#fed4c2" stroke="#707070" stroke-width="1">
      <rect width="2044" height="116" stroke="none"/>
      <rect x="0.5" y="0.5" width="2043" height="115" fill="none"/>
    </g>
    <text id="_16:00" data-name="16:00" transform="translate(1116.969 617.725)" fill="#ffd4c3" font-size="45" font-family="Nunito-Regular, Nunito"><tspan x="0" y="45">16:00</tspan></text>
    <text id="Zebu" transform="translate(1968.06 618.866)" fill="#ffd4c3" font-size="45" font-family="Arial-BoldMT, Arial" font-weight="700"><tspan x="-53.745" y="41">Zebu</tspan></text>
    <text id="VILD_MED_MIG-2" data-name="VILD MED MIG" transform="translate(254.5 947.125)" fill="#ffd4c3" font-size="45" font-family="Arial-BoldMT, Arial" font-weight="700"><tspan x="0" y="41">VILD MED MIG</tspan></text>
    <text id="_16:15_20:00" data-name="16:15 / 20:00" transform="translate(1123.072 951.075)" fill="#ffd4c3" font-size="45" font-family="ArialMT, Arial"><tspan x="0" y="41">16:15 / 20:00</tspan></text>
    <text id="VOX_Teaterhuset-2" data-name="VOX,  Teaterhuset" transform="translate(1968.06 953.933)" fill="#ffd4c3" font-size="45" font-family="Arial-BoldMT, Arial" font-weight="700"><tspan x="0" y="41" xml:space="preserve">VOX,  </tspan><tspan x="0" y="101">Teaterhuset</tspan></text>
    <text id="What_fires_TOGETHER_wires_TOGETHER-2" data-name="What fires TOGETHER
wires TOGETHER" transform="translate(254.5 1118)" fill="#ffd4c3" font-size="45" font-family="Arial-BoldMT, Arial" font-weight="700"><tspan x="0" y="41">What fires TOGETHER</tspan><tspan x="0" y="101">wires TOGETHER</tspan></text>
    <text id="Zebu-2" data-name="Zebu" transform="translate(1968.06 1116.866)" fill="#ffd4c3" font-size="45" font-family="Arial-BoldMT, Arial" font-weight="700"><tspan x="-53.745" y="41">Zebu</tspan></text>
    <text id="_17:00" data-name="17:00" transform="translate(1116.969 1115.725)" fill="#ffd4c3" font-size="45" font-family="Nunito-Regular, Nunito"><tspan x="0" y="45">17:00</tspan></text>
    <text id="Tors._4_august" data-name="Tors. 4 august" transform="translate(254.5 1315)" font-size="60" font-family="Arial-BoldMT, Arial" font-weight="700"><tspan x="0" y="54">Tors. 4 august</tspan></text>
    <text id="Re-birth" transform="translate(254.5 1455)" fill="#fed4c2" font-size="45" font-family="Arial-BoldMT, Arial" font-weight="700"><tspan x="0" y="41">Re-birth</tspan></text>
    <text id="_15:00_18:15_20:15" data-name="15:00 / 18:15 / 20:15" transform="translate(1132.194 1449.075)" fill="#ffd4c3" font-size="45" font-family="ArialMT, Arial"><tspan x="0" y="41">15:00 / 18:15 / 20:15</tspan></text>
    <text id="Downunder" transform="translate(1968.06 1451.933)" fill="#ffd4c3" font-size="45" font-family="Arial-BoldMT, Arial" font-weight="700"><tspan x="-123.739" y="41">Downunder</tspan></text>
    <text id="Go_Go_Yo-Yoku" data-name="Go Go Yo-Yoku" transform="translate(254.5 1598)" fill="#fed4c2" font-size="45" font-family="Arial-BoldMT, Arial" font-weight="700"><tspan x="0" y="41">Go Go Yo-Yoku</tspan></text>
    <text id="Xenon_Teaterhuset" data-name="Xenon,  Teaterhuset" transform="translate(1968.06 1567.5)" fill="#ffd4c3" font-size="45" font-family="Arial-BoldMT, Arial" font-weight="700"><tspan x="0" y="41" xml:space="preserve">Xenon,  </tspan><tspan x="0" y="101">Teaterhuset</tspan></text>
    <text id="_16:45_20:15" data-name="16:45 / 20:15" transform="translate(1123.5 1598)" fill="#ffd4c3" font-size="45" font-family="ArialMT, Arial"><tspan x="0" y="41">16:45 / 20:15</tspan></text>
    <text id="Det_levende_rum" data-name="Det levende rum" transform="translate(254.5 1742)" fill="#fed4c2" font-size="45" font-family="Arial-BoldMT, Arial" font-weight="700"><tspan x="0" y="41">Det levende </tspan><tspan x="0" y="101">rum</tspan></text>
    <text id="_18:30-2" data-name="18:30" transform="translate(1116.969 1746.925)" fill="#ffd4c3" font-size="45" font-family="Nunito-Regular, Nunito"><tspan x="0" y="45">18:30</tspan></text>
    <text id="Zebu-3" data-name="Zebu" transform="translate(1968.06 1744.067)" fill="#ffd4c3" font-size="45" font-family="Arial-BoldMT, Arial" font-weight="700"><tspan x="-53.745" y="41">Zebu</tspan></text>
    <g id="Rectangle_8" data-name="Rectangle 8" transform="translate(228.5 1911)" fill="#fed4c2" stroke="#707070" stroke-width="1">
      <rect width="2044" height="116" stroke="none"/>
      <rect x="0.5" y="0.5" width="2043" height="115" fill="none"/>
    </g>
    <text id="Fre._5_august" data-name="Fre. 5 august" transform="translate(254.5 1927)" font-size="60" font-family="Arial-BoldMT, Arial" font-weight="700"><tspan x="0" y="54">Fre. 5 august</tspan></text>
    <text id="Mand_ligger_som_mand_har_redt_" data-name="Mand ligger som mand har redt " transform="translate(254.5 2067)" fill="#fed4c2" font-size="45" font-family="Arial-BoldMT, Arial" font-weight="700"><tspan x="0" y="41">Mand ligger som </tspan><tspan x="0" y="101">mand har redt </tspan></text>
    <text id="_19:15" data-name="19:15" transform="translate(1116.969 2072.567)" fill="#ffd4c3" font-size="45" font-family="Nunito-Regular, Nunito"><tspan x="0" y="45">19:15</tspan></text>
    <text id="VOX_Teaterhuset-3" data-name="VOX,  Teaterhuset" transform="translate(1968.06 2067.933)" fill="#ffd4c3" font-size="45" font-family="Arial-BoldMT, Arial" font-weight="700"><tspan x="0" y="41" xml:space="preserve">VOX,  </tspan><tspan x="0" y="101">Teaterhuset</tspan></text>
    <text id="Re-birth-2" data-name="Re-birth" transform="translate(254.5 2270)" fill="#fed4c2" font-size="45" font-family="Arial-BoldMT, Arial" font-weight="700"><tspan x="0" y="41">Re-birth</tspan></text>
    <text id="_15:00_18:15_20:00" data-name="15:00 / 18:15 / 20:00" transform="translate(1132.5 2270)" fill="#ffd4c3" font-size="45" font-family="ArialMT, Arial"><tspan x="0" y="41">15:00 / 18:15 / 20:00</tspan></text>
    <text id="Downunder-2" data-name="Downunder" transform="translate(1968.5 2270)" fill="#ffd4c3" font-size="45" font-family="Arial-BoldMT, Arial" font-weight="700"><tspan x="-123.739" y="41">Downunder</tspan></text>
    <text id="Go_Go_Yo-Yoku-2" data-name="Go Go Yo-Yoku" transform="translate(254.5 2415)" fill="#fed4c2" font-size="45" font-family="Arial-BoldMT, Arial" font-weight="700"><tspan x="0" y="41">Go Go Yo-Yoku</tspan></text>
    <text id="_16:30" data-name="16:30" transform="translate(1116.5 2419)" fill="#ffd4c3" font-size="45" font-family="Nunito-Regular, Nunito"><tspan x="0" y="45">16:30</tspan></text>
    <text id="Xenon_Teaterhuset-2" data-name="Xenon,  Teaterhuset" transform="translate(1968.5 2411)" fill="#ffd4c3" font-size="45" font-family="Arial-BoldMT, Arial" font-weight="700"><tspan x="0" y="41" xml:space="preserve">Xenon,  </tspan><tspan x="0" y="101">Teaterhuset</tspan></text>
    <text id="Frygten_for_ikke_at_leve" data-name="Frygten for ikke at leve" transform="translate(254.5 2612.433)" fill="#fed4c2" font-size="45" font-family="Arial-BoldMT, Arial" font-weight="700"><tspan x="0" y="41">Frygten for ikke at </tspan><tspan x="0" y="101">leve</tspan></text>
    <text id="_20:30" data-name="20:30" transform="translate(1116.03 2616.433)" fill="#ffd4c3" font-size="45" font-family="Nunito-Regular, Nunito"><tspan x="0" y="45">20:30</tspan></text>
    <text id="Xenon_Teaterhuset-3" data-name="Xenon,  Teaterhuset" transform="translate(1968.06 2612.433)" fill="#ffd4c3" font-size="45" font-family="Arial-BoldMT, Arial" font-weight="700"><tspan x="0" y="41" xml:space="preserve">Xenon,  </tspan><tspan x="0" y="101">Teaterhuset</tspan></text>
    <text id="Det_levende_rum-2" data-name="Det levende rum" transform="translate(254.5 2775.8)" fill="#fed4c2" font-size="45" font-family="Arial-BoldMT, Arial" font-weight="700"><tspan x="0" y="41">Det levende rum</tspan></text>
    <text id="_18:00" data-name="18:00" transform="translate(1116.03 2785.725)" fill="#ffd4c3" font-size="45" font-family="Nunito-Regular, Nunito"><tspan x="0" y="45">18:00</tspan></text>
    <text id="Zebu-4" data-name="Zebu" transform="translate(1968.06 2775.366)" fill="#ffd4c3" font-size="45" font-family="Arial-BoldMT, Arial" font-weight="700"><tspan x="-53.745" y="41">Zebu</tspan></text>
    <g id="Rectangle_9" data-name="Rectangle 9" transform="translate(223.968 2945.433)" fill="#fed4c2" stroke="#707070" stroke-width="1">
      <rect width="2042.904" height="116" stroke="none"/>
      <rect x="0.5" y="0.5" width="2041.904" height="115" fill="none"/>
    </g>
    <text id="Lør._6_august" data-name="Lør. 6 august" transform="translate(254.5 2961.433)" font-size="60" font-family="Arial-BoldMT, Arial" font-weight="700"><tspan x="0" y="54">Lør. 6 august</tspan></text>
    <text id="Mand_ligger_som_mand_har_redt_2" data-name="Mand ligger som mand har redt " transform="translate(254.5 3101.433)" fill="#fed4c2" font-size="45" font-family="Arial-BoldMT, Arial" font-weight="700"><tspan x="0" y="41">Mand ligger som </tspan><tspan x="0" y="101">mand har redt </tspan></text>
    <text id="_13:00_17:30" data-name="13:00 / 17:30" transform="translate(1124.207 3100.933)" fill="#ffd4c3" font-size="45" font-family="ArialMT, Arial"><tspan x="0" y="41">13:00 / 17:30</tspan></text>
    <text id="VOX_Teaterhuset-4" data-name="VOX,  Teaterhuset" transform="translate(1968.06 3101.433)" fill="#ffd4c3" font-size="45" font-family="Arial-BoldMT, Arial" font-weight="700"><tspan x="0" y="41" xml:space="preserve">VOX,  </tspan><tspan x="0" y="101">Teaterhuset</tspan></text>
    <text id="Frygten_for_ikke_at_leve-2" data-name="Frygten for ikke at leve" transform="translate(254.5 3306.433)" fill="#fed4c2" font-size="45" font-family="Arial-BoldMT, Arial" font-weight="700"><tspan x="0" y="41">Frygten for ikke at </tspan><tspan x="0" y="101">leve</tspan></text>
    <text id="Xenon_Teaterhuset-4" data-name="Xenon,  Teaterhuset" transform="translate(1968.06 3306.433)" fill="#ffd4c3" font-size="45" font-family="Arial-BoldMT, Arial" font-weight="700"><tspan x="0" y="41" xml:space="preserve">Xenon,  </tspan><tspan x="0" y="101">Teaterhuset</tspan></text>
    <text id="_12:30_14:45" data-name="12:30 / 14:45" transform="translate(1123.463 3306.433)" fill="#ffd4c3" font-size="45" font-family="ArialMT, Arial"><tspan x="0" y="41">12:30 / 14:45</tspan></text>
    <text id="Det_levende_rum-3" data-name="Det levende rum" transform="translate(254.5 3469.8)" fill="#fed4c2" font-size="45" font-family="Arial-BoldMT, Arial" font-weight="700"><tspan x="0" y="41">Det levende rum</tspan></text>
    <text id="_12:45_16:15" data-name="12:45 / 16:15" transform="translate(1123.463 3469.8)" fill="#ffd4c3" font-size="45" font-family="ArialMT, Arial"><tspan x="0" y="41">12:45 / 16:15</tspan></text>
    <text id="Zebu-5" data-name="Zebu" transform="translate(1968.06 3469.366)" fill="#ffd4c3" font-size="45" font-family="Arial-BoldMT, Arial" font-weight="700"><tspan x="-53.745" y="41">Zebu</tspan></text>
  </g>
</svg>
