<svg xmlns="http://www.w3.org/2000/svg" width="400.49" height="331.01" viewBox="0 0 400.49 331.01"><defs><style>.cls-1{fill:#ea5729;}</style></defs><g id="Layer_17" data-name="Layer 17"><path class="cls-1" d="M117.85,136.83a622.71,622.71,0,0,1,16.86,62.81A608.93,608.93,0,0,1,145.79,274q1.8,21,2.17,42l2.79-.76a963.62,963.62,0,0,1-54.17-80.85q-7.12-11.88-13.9-24c-.59-1-2.52-.94-2.74.36q-4.53,26.43-11,52.47c-2.08,8.28-4.24,16.55-6.71,24.72a98.81,98.81,0,0,1-7.53,18.93C51,313.46,46.18,319.28,39.58,323l2.26,1.29a395.34,395.34,0,0,1,5.53-132.67q3.9-18.18,9.5-35.93c.44-1.37-1.53-2.62-2.51-1.46L19,196.52l2.5.66c-9.36-30.1-2.63-64,16-89.2A94.53,94.53,0,0,1,53.5,91C60.72,85.09,69,80.66,76.82,75.64c13.39-8.56,29-22.69,25.6-40.49-1.37-7.07-6.09-13.91-12.77-16.89-8.31-3.71-16.35.33-23.43,4.8-6.66,4.2-14,8.92-17.53,16.24-3.64,7.48-2.07,15.87,2.58,22.53,11.18,16,31.56,16.36,48,23.56,15.57,6.83,27.74,19.38,37.14,33.28,10.39,15.36,18.19,32.59,24.55,50a292.76,292.76,0,0,1,14.7,58c.71,4.87,1.28,9.75,1.75,14.64l2.79-.76c-7.16-9.74-14.07-19.64-20.88-29.62-6-8.8-12.09-17.57-17.69-26.64a187.57,187.57,0,0,1-19.49-42.07c-2.93-9.35-5-19.28-4.19-29.13a34.61,34.61,0,0,1,13.62-24.81c8.75-6.86,19.68-10.34,30.26-13.21s21-5.1,30.94-9.45c9.19-4,18.08-9.76,23.62-18.33,5.87-9.1,8.06-22.84-1.52-30.32C198,3.77,174.62,21,174.21,40c-.11,4.85,1.3,10.28,4.85,13.79,3.25,3.22,7.58,5.48,11.49,7.76,9.69,5.65,19.53,11,29.26,16.63,3.62,2.08,7.26,4.15,10.79,6.39a29.92,29.92,0,0,1,4,2.83c13.82,12.49,15,33.82,14.11,51.17-1.11,21.12-9.24,41.3-21.39,58.45q-2.73,3.84-5.72,7.47l2.57,1.06q-1.37-17.78-1.52-35.62c-.11-12.14-.28-24.34.48-36.46.53-8.45,1.71-16.86,4.59-24.85a93.79,93.79,0,0,1,9.37-19,63.43,63.43,0,0,1,23.56-22.13c10.65-5.58,22.84-8.57,34.58-10.94,4.61-.93,9.26-1.54,13.91-2.25,2.6-.39,5.39-.82,7.62-2.33,5.49-3.71,6.33-11.73,5.79-17.76a38.89,38.89,0,0,0-9.8-22.86,24,24,0,0,0-25.06-6.7,42.93,42.93,0,0,0-18.2,12c-5.08,5.54-10.41,13-10.41,20.78C259,45.1,265,49.2,271.68,51c9,2.4,18.54,2.5,27.72,3.53,11.46,1.29,23,3.47,33.46,8.58a68.42,68.42,0,0,1,21.2,16.46c11.33,12.86,18.57,29.05,23.08,45.45,3.61,13.14,6,27.27,4.95,40.93a36.54,36.54,0,0,1-.95,6.26,17.74,17.74,0,0,1-.76,2.34c.06-.15-.26.53-.36.71s-.55.83-.33.56c-.52.63-.39.51-.91.77.26-.13-.21,0-.08,0a1.22,1.22,0,0,1-.33,0c-.15,0,.27.08-.15,0a9,9,0,0,1-3.31-2c-3.79-3.34-6.82-7.59-9.72-11.69-4.07-5.75-7.85-11.7-11.57-17.67-7.47-12-14.49-24.28-22.47-35.93-2.33-3.41-4.75-7.21-8-9.86-1.94-1.61-5.05-2.35-5.86.83-.86,3.33.71,7.57,1.58,10.74,1.86,6.72,4.12,13.33,6.3,20,7.3,22.09,14.41,44.23,20.54,66.68,3.13,11.45,6,23,8.8,34.5,3.62,15.08,7,30.23,9.83,45.48,1.34,7.23,2.56,14.5,3.42,21.81a93.28,93.28,0,0,1,.87,16.62,17.2,17.2,0,0,1-.86,5,1.81,1.81,0,0,1-.27.61c-.15.28-.43.67-.33.54-.38.5-.41.47-.76.5.08,0-.51,0-.58,0a4.17,4.17,0,0,1-1.24-.49,14.65,14.65,0,0,1-2.94-2.2A58.91,58.91,0,0,1,354,311a211.45,211.45,0,0,1-17.45-29.47,281.42,281.42,0,0,1-15.83-37.89,311.5,311.5,0,0,1-9.62-36.68c-1.51-7.53-2.58-15.15-4.17-22.66-.28-1.31-.51-3.28-1.57-4.24-1.34-1.22-2.8-.09-3.18,1.34a20.44,20.44,0,0,0-.4,4.81c-.06,2.67,0,5.35,0,8,.15,20.79-.32,41.55-2.49,62.25-1.42,13.51-3.6,26.9-6.19,40.24-1.08,5.54-2.22,11.09-3.75,16.53a57.21,57.21,0,0,1-2.19,6.51,10.91,10.91,0,0,1-2.25,3.82,7,7,0,0,1-.64.48c-.1.06-.26,0-.37,0,.26,0,.29.06,0,0a1.23,1.23,0,0,1-.52-.36,4,4,0,0,1-.88-1.09,16.28,16.28,0,0,1-1-1.88,61.9,61.9,0,0,1-3.74-11.93c-3.06-12.84-4.9-26-6.72-39.06-2-14.51-3.78-29.06-5.73-43.59C264,216,263,205.55,260.22,195.71c-.49-1.75-1.23-5.11-3.46-5.42-2.47-.34-3.16,3.1-3.53,4.85a95.83,95.83,0,0,0-1.46,12.29c-.46,6-.75,12.12-1,18.18-.63,14.69-1,29.4-1.71,44.09-.58,12.67-1.07,25.48-3,38-.32,2.1-.7,4.19-1.21,6.25-.2.82-.43,1.64-.7,2.45a8.66,8.66,0,0,1-.64,1.61c-.13.25-.27.49-.41.73-.29.48,0,0-.25.35-.13.15-.53.48-.18.19-.41.34.11-.05-.2.11-.06,0,0-.08.09,0-.19-.23-.14,0-.55-.29.11.09-.39-.36-.56-.55a6.2,6.2,0,0,1-.73-.91c-3.7-5.25-5.68-11.95-7.68-18-3.13-9.4-5.76-19-8.22-28.57-4.89-19.11-8.59-38.42-12.56-57.74a96.79,96.79,0,0,0-2.65-11.13c-.3-.88-.63-2.06-1.5-2.55a1.71,1.71,0,0,0-2.33.68,9,9,0,0,0-.86,3.44c-.35,2.37-.57,4.75-.78,7.14-1.48,17.14-2.14,34.35-3,51.53-.52,10.29-1,20.59-1.62,30.89q-.41,7.19-.86,14.37c-.28,4.36-.23,9-1.15,13.23a5.89,5.89,0,0,1-1.09,2.85c-.36.36-.47.27-.68.2a7.39,7.39,0,0,1-2.48-1.89,47.76,47.76,0,0,1-6.55-9.72,198.33,198.33,0,0,1-13.64-31.24,193.92,193.92,0,0,1-10.43-64.83,1.5,1.5,0,0,0-3,0,196.66,196.66,0,0,0,11,66.89,200,200,0,0,0,13.62,30.89,51.78,51.78,0,0,0,6.71,9.92c1.48,1.61,3.71,3.61,6.09,2.86,3.9-1.23,3.84-7.8,4.07-11q.48-6.73.88-13.46c.61-10.1,1.14-20.2,1.66-30.31,1-18.5,1.72-37,3.06-55.5.33-4.62.45-9.52,1.44-13.9q.08-.34.18-.69a1.13,1.13,0,0,0,.08-.24c0,.67-.16.08,0,.07-.42,0-.2.44-1.21.35-1.22-.11-.75-.34-.78,0a10.83,10.83,0,0,0,.5,1.42c1.16,3.8,1.9,7.75,2.69,11.64,3.93,19.37,7.71,38.73,12.66,57.88,2.46,9.51,5.08,19,8.22,28.31,2,6,4,12.6,7.71,17.8,1.66,2.34,4.53,4.54,6.93,1.81,2-2.31,2.63-6,3.2-8.86,2.32-11.76,2.81-24,3.43-35.89.77-14.82,1.2-29.65,1.78-44.48.43-11,.58-22.5,2.16-33.28a31,31,0,0,1,.85-4.27c.07-.23.15-.47.23-.7.16-.42-.09.16.16-.33s0-.15,0-.13a.66.66,0,0,1,.14-.15c-.09,0-.35.21-.12.12a1.57,1.57,0,0,1-1,0c.13,0,.25.33.09.08.12.18.21.37.32.56s.29.66.17.36c.11.27.21.55.3.82.23.65.42,1.31.6,2,2.69,9.95,3.73,20.46,5.08,30.66,1.95,14.6,3.73,29.24,5.77,43.83,1.82,13,3.66,26.12,6.77,38.9A60.53,60.53,0,0,0,279,322.31c1,2.07,2.66,4.82,5.31,4.7,2.94-.13,4.57-3.66,5.55-5.95A81.62,81.62,0,0,0,294,307c2.86-12.56,5.07-25.33,6.79-38.1a494,494,0,0,0,4-68c0-5.64-.29-11.34.05-17a13,13,0,0,1,.17-1.61c0-.11.06-.22.08-.32.05-.38.13.05,0,.05s.38-.31,0,0a1.42,1.42,0,0,1-1.29.41c-.34-.08-.45-.42-.63-.47a.68.68,0,0,1,.14.23c0,.23-.07-.18,0,.1s.12.35.18.54a28.19,28.19,0,0,1,.65,2.75c1.58,7.76,2.72,15.6,4.31,23.36a309.62,309.62,0,0,0,10,37.4,288.69,288.69,0,0,0,15.76,37.2,208.24,208.24,0,0,0,17.43,29.27,64.15,64.15,0,0,0,7.54,8.91c1.7,1.6,3.76,3.38,6.13,3.81,3.64.66,5.28-2.78,5.85-5.77.9-4.76.56-9.75.16-14.54-.57-6.91-1.59-13.79-2.73-20.63-2.61-15.55-6-31-9.56-46.33q-3.46-14.84-7.3-29.6c-6.09-23.53-13.21-46.76-20.81-69.85-2.53-7.68-5.14-15.35-7.53-23.08-1.3-4.2-3-9.07-3.27-13.17,0-.31,0-.61,0-.91,0-.14,0-.28,0-.42,0-.36,0,.3,0-.11,0-.21.09-.72.05-.27,0-.29,0-.08,0,0s-.36,0-.1.1a5.8,5.8,0,0,0,.82.47c3.16,2.44,5.5,6.24,7.71,9.48,8,11.68,15,24,22.5,36,3.71,6,7.49,11.9,11.55,17.64,3,4.19,6.07,8.54,9.91,12,2,1.84,5.22,4.25,8,2.52s3.48-5.79,3.95-8.67c2-12.54.08-26-2.61-38.25-3.59-16.4-9.76-32.64-19.41-46.47a81.64,81.64,0,0,0-17.45-18.47c-8.64-6.54-18.79-10.62-29.31-13s-21.11-3-31.73-4.14a71.74,71.74,0,0,1-12.26-2.09c-2.87-.83-5.92-2.06-7.83-4.46-5.57-7,1.39-17.29,6-22.82A44.45,44.45,0,0,1,284.32,9.2c4.55-2.23,9.78-3.45,14.81-2.41a21.59,21.59,0,0,1,11.18,6.39,35.48,35.48,0,0,1,9.31,22.91c.19,5.33-.88,12.57-6.77,14.39-3.19,1-6.63,1.21-9.91,1.7-5.65.83-11.22,2-16.77,3.35-11.54,2.82-23.36,6.24-33.23,13.09A70.68,70.68,0,0,0,232.55,91.2a95.47,95.47,0,0,0-8.54,19c-2.64,8.22-3.6,16.87-4,25.46-.62,11.89-.49,23.85-.35,35.75q.19,17.14,1.51,34.23c.08,1.16,1.66,2.16,2.56,1.06,11.2-13.62,19.95-29.39,24.54-46.48a114.92,114.92,0,0,0,3.6-31.5c-.12-9.45-1.25-19.09-4.87-27.9-2.6-6.33-6.48-12.79-12.1-16.91-6.72-4.92-14.4-8.73-21.62-12.83-8.25-4.67-16.6-9.21-24.71-14.12a61.34,61.34,0,0,1-5.65-3.73,17.45,17.45,0,0,1-1.66-1.42c-.21-.21-.41-.43-.61-.64s-.46-.56-.43-.52c-4-5.48-3.59-13.31-1-19.28,3.63-8.33,11.87-15.51,21.23-16a18.53,18.53,0,0,1,14.66,5.88c4.13,4.77,4,11.72,2.11,17.41-3.29,9.9-11.49,16.91-20.45,21.68-19.1,10.16-41.79,10.5-60.63,21.26-8.65,4.94-16.15,12.29-19.33,21.91-3,9-2.33,18.76-.54,27.88,3.11,15.87,9.91,31.22,17.56,45.41,4,7.38,8.59,14.41,13.25,21.37,7.15,10.69,14.39,21.33,21.83,31.81q4.31,6.06,8.7,12.05c.78,1,2.95.89,2.8-.76-3.6-38.09-14.48-75.95-32.7-109.66-7.79-14.4-17.45-28.29-30.33-38.6A75,75,0,0,0,96.22,81c-8.88-3.26-18.32-4.91-27-8.71-7.6-3.33-14.67-8.84-18-16.64a18,18,0,0,1-.92-12.22,22.37,22.37,0,0,1,6.5-9.77,64.66,64.66,0,0,1,9.77-7.24c3.81-2.43,7.72-5,12.15-6.15,8-2,15.16,2.8,18.76,9.75C106,46.51,90.75,62.72,78,71.29c-7.73,5.2-16.06,9.51-23.5,15.15a96.13,96.13,0,0,0-16.13,15.49c-19.25,23.37-28,55.23-22.51,85.1A93.61,93.61,0,0,0,18.57,198a1.51,1.51,0,0,0,2.51.66L56.49,156.4,54,154.94A397.54,397.54,0,0,0,35.84,286.62q.58,18.92,3,37.71a1.52,1.52,0,0,0,2.26,1.3c12.16-6.92,18.46-20,22.68-32.82,5.46-16.51,9.43-33.65,13.11-50.63q3.31-15.26,5.94-30.63l-2.74.36a965.63,965.63,0,0,0,51.82,82.37q8,11.34,16.25,22.45c.83,1.11,2.82.87,2.8-.75a616.68,616.68,0,0,0-6.05-76,616.31,616.31,0,0,0-14.07-69.66q-4.56-17.31-10.1-34.34c-.59-1.82-3.49-1-2.89.8Z"/></g></svg>