<svg xmlns="http://www.w3.org/2000/svg" width="497" height="407" viewBox="0 0 497 407"><defs><style>.cls-1{fill:#fcebe6;}.cls-2{fill:#f2deda;}.cls-3{fill:#d3e9d8;}.cls-4{fill:#fed4c2;}.cls-5{fill:#cc7b62;}.cls-6{fill:#bc5e48;}.cls-7{fill:#964535;}.cls-8,.cls-9{fill:none;stroke-miterlimit:10;}.cls-8{stroke:#bc5e48;}.cls-9{stroke:#fed4c2;}</style></defs><g id="Layer_46" data-name="Layer 46"><rect class="cls-1" x="-2.13" y="0.8" width="496" height="407"/></g><g id="Layer_49" data-name="Layer 49"><polygon class="cls-2" points="477.38 101.27 383.38 177.27 421.38 227.27 477.38 300.37 430.38 347.45 446.38 377.27 497 342.14 497 131.25 477.38 101.27"/><polygon class="cls-2" points="0 231.39 27.38 219.27 34.41 199.27 55.64 202.77 74.38 196.27 100.07 173.45 119.3 173.45 180.98 139.37 216.38 132.27 216.38 156.45 80.84 228.02 68.24 248.45 47.38 254.27 33.38 276.27 25.38 255.27 0 268.53 0 231.39"/><polygon class="cls-2" points="241.38 94.27 253.26 139.37 297.7 116.82 307.38 120.27 318.92 116.82 318.92 107.38 332.18 101.27 338.38 110.27 357.38 97.27 350.38 85.27 404.38 58.27 432.99 58.27 450.38 34.27 471.38 38.27 497 30.97 493.87 0.8 312.92 1.27 331.51 23.2 372.98 15.37 388.77 42.77 344.39 57.49 297.38 80.94 241.38 94.27"/><polygon class="cls-3" points="120.89 1.27 129.38 86.27 144.99 86.27 139.74 1.27 120.89 1.27"/><polygon class="cls-3" points="202.31 1.27 205.38 26.27 216.71 26.27 205.38 36.27 192.47 36.27 192.47 47.62 161.39 47.62 164.18 86.27 202.31 86.27 202.31 75.51 212.82 75.51 212.82 97.19 261.42 89.5 258.32 66.47 245.87 1.27 202.31 1.27"/><polygon class="cls-3" points="73.4 405.86 99.24 406.6 216.38 317.12 253.56 289.81 314.38 234.27 392.38 163.27 440.19 128.62 433.38 115.27 305.93 228.02 252.38 272.27 216.38 307.37 167.38 344.27 104.38 389.27 73.4 405.86"/><polygon class="cls-3" points="174.38 235.27 174.38 266.17 208.87 266.17 206.07 235.27 174.38 235.27"/></g><g id="Layer_48" data-name="Layer 48"><path class="cls-4" d="M-4.95,264.81,85.69,215.3l90.87-49.63L267.7,115.9l91-49.7,91-49.7,11.43-6.24c5.08-2.78.55-10.55-4.54-7.77l-91,49.7-91,49.69-91.13,49.77L92.55,201.3,1.88,250.83-9.49,257c-5.08,2.78-.55,10.56,4.54,7.78Z"/><path class="cls-4" d="M15.16,408.29a368,368,0,0,0-6-79.79Q7,317.15,4.22,305.94l-1.45,1.9a526.71,526.71,0,0,1,71.07,11.21c23.51,5.27,46.72,11.79,69.74,18.85s46.11,14.73,69.1,22.27l71.64,23.49,71.3,23.39,8.91,2.92c1.84.6,2.63-2.29.8-2.89l-71.64-23.5-71.64-23.5c-23.33-7.65-46.62-15.4-70.06-22.71-23-7.18-46.16-13.89-69.62-19.43a556.47,556.47,0,0,0-70.66-12.27q-4.47-.45-8.94-.83a1.52,1.52,0,0,0-1.45,1.9,363.94,363.94,0,0,1,10.92,78.81q.31,11.37-.08,22.74c-.06,1.93,2.94,1.92,3,0Z"/><path class="cls-4" d="M71.75,409.42a1005.69,1005.69,0,0,0,86.29-60c27.72-21.31,54.65-43.64,81.38-66.19q42.3-35.68,84.46-71.55c28.19-23.89,56.47-47.68,84.51-71.74,27.39-23.5,54.47-47.4,80.35-72.57q4.83-4.69,9.61-9.45a1.5,1.5,0,0,0-2.12-2.13c-25.48,25.38-52.24,49.43-79.43,73-27.8,24.05-56,47.69-84,71.46q-42.43,36-84.87,71.92c-26.7,22.6-53.5,45.08-81,66.65s-56,42.31-85.54,61.13q-5.53,3.51-11.11,6.94c-1.64,1-.14,3.61,1.51,2.59Z"/><path class="cls-4" d="M98.94,409.76c29-8.37,50.66-30.55,72.36-50.26,25.15-22.85,53.28-41.88,80-62.73a513.33,513.33,0,0,0,39.23-34c12.65-12.12,24.89-24.65,37.45-36.86,25.29-24.57,51.82-47.84,79-70.36s54.9-44.34,82.71-66.06l10.17-7.93c1.52-1.19-.61-3.3-2.12-2.12C470,101.07,442.29,122.7,415.09,145c-27,22.11-53.44,44.86-78.79,68.84s-49.08,49.87-76.13,72.07c-26.24,21.53-54.71,40.2-80.54,62.24-22.64,19.33-43.14,43.12-71.07,55a88.82,88.82,0,0,1-10.42,3.68,1.51,1.51,0,0,0,.8,2.9Z"/><path class="cls-4" d="M420,404.84a174.07,174.07,0,0,0-9.62-18.16c-3.51-5.95-7-11.88-10.49-17.87q-10.5-18.17-20.5-36.61c-13.3-24.43-26.06-49.16-38.62-74q-10.63-21-21.13-42.06c-.87-1.72-3.46-.21-2.6,1.52,12.53,25,25.06,50.05,37.94,74.89s25.95,49.21,39.78,73.34q5.78,10.08,11.7,20a190.39,190.39,0,0,1,11,20.4c.77,1.76,3.36.24,2.59-1.52Z"/><path class="cls-4" d="M398.81,368.3q31.35-22.56,60.95-47.41,8.4-7.06,16.66-14.31a1.53,1.53,0,0,0,0-2.12C463.48,288.24,451,271.67,438.68,255s-24.59-33.68-36.85-50.55l-21.16-29.09c-1.12-1.55-3.72-.06-2.59,1.51l37.59,51.71c12.23,16.82,24.48,33.62,37,50.21q10.64,14,21.6,27.83v-2.12Q445.37,329.83,414.6,353q-8.58,6.45-17.3,12.73c-1.56,1.11-.06,3.72,1.51,2.59Z"/><path class="cls-4" d="M469.24,308.44a432.47,432.47,0,0,1-45.34-57.78c-1.66-2.55-3.31-5.11-4.92-7.69-1.34-2.16-2.14-4.27-.78-6.63a15.4,15.4,0,0,1,5.36-4.94c2.45-1.55,5-2.93,7.53-4.4q15.89-9.39,31-20,16.95-11.9,32.83-25.26c1.48-1.24-.65-3.35-2.12-2.12a469.73,469.73,0,0,1-62,44.09c-2.68,1.6-5.42,3.11-8.09,4.73a22.54,22.54,0,0,0-5.85,4.7,9,9,0,0,0-2.36,6.38c.23,2.94,2.22,5.45,3.75,7.86q10.08,15.83,21.49,30.75,12.93,16.88,27.42,32.45c1.32,1.41,3.44-.71,2.12-2.13Z"/><path class="cls-4" d="M10.61,3.7,21.28,83.35c3.49,26.07,7.16,52.13,10,78.28a693.48,693.48,0,0,1,4.41,79.55c-.22,26.45-1.18,52.76,1.77,79.12,3.25,29,9,58.07,6.85,87.42-.14,1.93,2.86,1.92,3,0,2-26.18-2.45-52.17-5.73-78.05a388.7,388.7,0,0,1-3.22-39.44c-.33-13.13,0-26.27.21-39.4a702.16,702.16,0,0,0-3.31-79.69C32.67,145,29,118.9,25.55,92.84L13.61,3.7c-.25-1.88-3.25-1.91-3,0Z"/><path class="cls-4" d="M2.93,99.2c31.1-2.86,62.19-6,93.33-8.3s62.22-3.65,93.34-2.07c3,.16,6,.33,8,3a16.86,16.86,0,0,1,2.6,7.68,109.21,109.21,0,0,1,.48,21.39c-.87,14.58-3.55,29-4.8,43.5a138.55,138.55,0,0,0-.37,21.46c.51,7.25,2,14.32,3.44,21.43a105.92,105.92,0,0,1,1.73,11.2c.15,1.71.23,3.43.22,5.14a6.13,6.13,0,0,1-.2,2.18c-.29.75-.91.94-1.63,1.11-3.78.92-7.71,1.43-11.54,2.13l-11.29,2.07c-15.31,2.8-30.62,5.69-45.95,8.39-15.12,2.65-30.42,4.87-45.82,4.57-3.74-.08-7.48-.31-11.2-.71-1.92-.2-1.91,2.8,0,3,15.74,1.67,31.57.2,47.15-2.2s31.22-5.51,46.81-8.36l23.55-4.32,5.64-1c1.7-.31,3.7-.42,5.22-1.31,2.92-1.72,2.33-6,2.17-8.79-.43-7.51-2.23-14.83-3.63-22.19A109,109,0,0,1,198.25,176c.24-14.91,2.91-29.62,4.5-44.41a168.15,168.15,0,0,0,1.14-22.65A86.07,86.07,0,0,0,203,98.37a19.4,19.4,0,0,0-2.68-7.79,10,10,0,0,0-7.13-4.47,109,109,0,0,0-11.57-.62q-11.92-.42-23.84-.34c-15.9.09-31.79.77-47.66,1.78-31.82,2-63.55,5.26-95.29,8.18L2.93,96.2c-1.9.18-1.92,3.18,0,3Z"/><path class="cls-4" d="M66.43-.73,70,157.43c1.18,52.32,2.09,104.65,3.58,157,.83,29,2.37,58.12,7,86.84.31,1.9,3.2,1.09,2.9-.8-4.11-25.58-5.73-51.48-6.61-77.36C76,297,75.54,271,75,244.94L71.41,87.58l-2-88.31c-.05-1.93-3.05-1.94-3,0Z"/><path class="cls-4" d="M135.27,363.87l-2.43-17.22-.58-4.13c-.14-1-.67-2.72,0-3.67s1.68-1.31,2.22-2.35a9.74,9.74,0,0,0,.78-3.53c1.12-11-.66-22.07-2.25-33-.8-5.43-1.57-10.88-1.93-16.37-.18-2.79-.26-5.6-.18-8.4,0-.76-.19-2.34.38-2.95.33-.35,1.05-.33,1.48-.37l2.48-.22q17.43-1.51,34.91-2.32,19.83-.9,39.68-.91l-1.5-1.5,1.07,38.79c.06,1.93,3.06,1.93,3,0L211.31,267a1.52,1.52,0,0,0-1.5-1.5q-36.48,0-72.86,3.08c-1.49.13-3,.24-4.45.39a5.21,5.21,0,0,0-3.22,1.11c-1.79,1.68-1.42,4.84-1.43,7.06a127.81,127.81,0,0,0,1.33,17.25c1.5,11.26,3.74,22.53,3.37,33.95-.05,1.63-.16,3.26-.33,4.88a5.2,5.2,0,0,1-.45,1.95c-.32.58-.93.88-1.4,1.33-2.16,2.06-1.23,5.22-.86,7.81q1.43,10.18,2.87,20.38c.26,1.9,3.15,1.09,2.89-.8Z"/><path class="cls-4" d="M237.92,95.73c2.84,20.64,8.78,40.64,13.84,60.79,2.53,10.08,4.78,20.22,6.44,30.48.84,5.24,1.61,10.5,2.6,15.72s2.35,10.49,3.84,15.66c3.38,11.67,6.94,23.29,10.42,34.94.55,1.84,3.44,1.06,2.89-.8q-4.65-15.59-9.3-31.17c-1.54-5.17-3-10.37-4.19-15.65-1.1-5.11-1.91-10.28-2.73-15.44-1.62-10.3-3.63-20.49-6.11-30.62s-5.24-20.22-7.79-30.35a321.34,321.34,0,0,1-7-34.36,1.5,1.5,0,0,0-1.84-1,1.53,1.53,0,0,0-1.05,1.84Z"/></g><g id="Layer_50" data-name="Layer 50"><path class="cls-5" d="M384.81,221.29v-10h2v4.45l4.08-4.45h2.73l-3.78,3.9,4,6.12h-2.62l-2.75-4.7-1.64,1.67v3Z"/><path class="cls-5" d="M402.35,212l1.08-1.21.95.84-1.14,1.28a4.76,4.76,0,0,1,.71,1.52,6.89,6.89,0,0,1,.25,1.91,5.17,5.17,0,0,1-1.32,3.75,4.59,4.59,0,0,1-3.49,1.37,4.83,4.83,0,0,1-3-.85l-1.11,1.24-1-.84,1.17-1.32a5.6,5.6,0,0,1-1-3.47,5.2,5.2,0,0,1,1.32-3.75,4.67,4.67,0,0,1,3.52-1.37A4.91,4.91,0,0,1,402.35,212Zm-1.26,1.41a2.61,2.61,0,0,0-1.75-.59,2.57,2.57,0,0,0-2,.86,3.8,3.8,0,0,0-.77,2.59,5,5,0,0,0,.32,1.86Zm.74,1.07-4.2,4.73a2.48,2.48,0,0,0,1.7.61,2.53,2.53,0,0,0,2-.88,3.81,3.81,0,0,0,.79-2.63A5,5,0,0,0,401.83,214.48Z"/><path class="cls-5" d="M405.78,211.27h3.7a7.05,7.05,0,0,1,1.9.19,3.38,3.38,0,0,1,1.52.93,4.48,4.48,0,0,1,1,1.62,7.36,7.36,0,0,1,.33,2.37,6.47,6.47,0,0,1-.31,2.13,4.44,4.44,0,0,1-1.07,1.77,3.6,3.6,0,0,1-1.42.8,6.22,6.22,0,0,1-1.79.21h-3.81Zm2,1.7v6.63h1.51a5.89,5.89,0,0,0,1.23-.09,1.79,1.79,0,0,0,.81-.42,2,2,0,0,0,.53-1,6.33,6.33,0,0,0,.21-1.83,5.9,5.9,0,0,0-.21-1.79,2.25,2.25,0,0,0-.57-1,2,2,0,0,0-.94-.47,9.67,9.67,0,0,0-1.66-.09Z"/><path class="cls-5" d="M415.9,211.27h4a11,11,0,0,1,1.77.1,2.68,2.68,0,0,1,1.05.41,2.6,2.6,0,0,1,.77.84,2.32,2.32,0,0,1,.31,1.17,2.4,2.4,0,0,1-.38,1.3,2.45,2.45,0,0,1-1,.88,2.6,2.6,0,0,1,1.41.91,2.44,2.44,0,0,1,.49,1.51,3,3,0,0,1-.32,1.33,2.66,2.66,0,0,1-.87,1,2.86,2.86,0,0,1-1.36.47c-.33,0-1.15.06-2.44.07H415.9Zm2,1.67v2.32h1.32a14.12,14.12,0,0,0,1.47,0,1.33,1.33,0,0,0,.82-.36,1.06,1.06,0,0,0,.3-.78,1.09,1.09,0,0,0-.26-.75,1.14,1.14,0,0,0-.76-.36c-.2,0-.78,0-1.73,0Zm0,4v2.68h1.87a9.45,9.45,0,0,0,1.39-.06,1.23,1.23,0,0,0,.73-.4,1.22,1.22,0,0,0,.29-.85,1.34,1.34,0,0,0-.22-.76,1.23,1.23,0,0,0-.64-.46,6.52,6.52,0,0,0-1.79-.15Z"/><path class="cls-5" d="M428.64,221.29v-4.22l-3.67-5.8h2.37l2.36,4,2.31-4h2.33l-3.69,5.82v4.2Z"/><path class="cls-5" d="M435.34,221.29v-10h7.43V213h-5.4v2.22h5v1.69h-5v2.72H443v1.69Z"/><path class="cls-5" d="M444.7,221.29v-10h2l4.1,6.69v-6.69h1.88v10h-2l-4-6.53v6.53Z"/><path class="cls-5" d="M50.78,163.29l-3.58-10h2.2l2.53,7.42,2.46-7.42h2.14l-3.59,10Z"/><path class="cls-5" d="M57.56,163.29v-10H65V155H59.59v2.22h5v1.69h-5v2.72h5.6v1.69Z"/><path class="cls-5" d="M66.39,160l2-.19a2.44,2.44,0,0,0,.72,1.46,2.18,2.18,0,0,0,1.47.46,2.28,2.28,0,0,0,1.47-.41,1.25,1.25,0,0,0,.5-1,.88.88,0,0,0-.21-.6,1.6,1.6,0,0,0-.73-.44c-.24-.08-.78-.23-1.62-.44a5.44,5.44,0,0,1-2.28-1,2.59,2.59,0,0,1-.93-2,2.62,2.62,0,0,1,.44-1.44,2.69,2.69,0,0,1,1.25-1,5,5,0,0,1,2-.35,4.24,4.24,0,0,1,2.84.83,2.88,2.88,0,0,1,1,2.21l-2,.08a1.73,1.73,0,0,0-.56-1.11,2.06,2.06,0,0,0-1.28-.33,2.31,2.31,0,0,0-1.38.36.71.71,0,0,0-.32.62.77.77,0,0,0,.3.61,5.27,5.27,0,0,0,1.86.67,9.61,9.61,0,0,1,2.18.72,2.88,2.88,0,0,1,1.11,1,3.15,3.15,0,0,1-.08,3.21,2.85,2.85,0,0,1-1.35,1.11,5.58,5.58,0,0,1-2.18.37,4.32,4.32,0,0,1-2.92-.88A3.8,3.8,0,0,1,66.39,160Z"/><path class="cls-5" d="M78.5,163.29V155h-3v-1.7h8V155h-3v8.32Z"/><path class="cls-5" d="M84.79,163.29v-10h7.43V155h-5.4v2.22h5v1.69h-5v2.72h5.59v1.69Z"/><path class="cls-5" d="M94.14,163.29v-10H98.4a7.28,7.28,0,0,1,2.33.27,2.33,2.33,0,0,1,1.17,1,2.9,2.9,0,0,1,.43,1.58,2.68,2.68,0,0,1-.66,1.86,3.19,3.19,0,0,1-2,.93,4.55,4.55,0,0,1,1.08.84,11.09,11.09,0,0,1,1.15,1.63l1.23,1.95h-2.42l-1.47-2.18a14.16,14.16,0,0,0-1.06-1.47,1.68,1.68,0,0,0-.61-.42,3.5,3.5,0,0,0-1-.11h-.41v4.18Zm2-5.78h1.5a8,8,0,0,0,1.82-.12A1.11,1.11,0,0,0,100,157a1.28,1.28,0,0,0,.21-.75,1.21,1.21,0,0,0-.27-.82,1.32,1.32,0,0,0-.76-.39c-.17,0-.66,0-1.48,0H96.16Z"/><path class="cls-5" d="M104.25,153.27h4a11.09,11.09,0,0,1,1.78.1,2.58,2.58,0,0,1,1,.41,2.5,2.5,0,0,1,.77.84,2.23,2.23,0,0,1,.31,1.17,2.37,2.37,0,0,1-1.41,2.18,2.66,2.66,0,0,1,1.41.91,2.38,2.38,0,0,1,.49,1.51,2.89,2.89,0,0,1-.32,1.33,2.72,2.72,0,0,1-.86,1,2.86,2.86,0,0,1-1.36.47c-.34,0-1.15.06-2.44.07h-3.41Zm2,1.67v2.32h1.33a14.12,14.12,0,0,0,1.47,0,1.3,1.3,0,0,0,.81-.36,1.06,1.06,0,0,0,.3-.78,1.08,1.08,0,0,0-.25-.75,1.17,1.17,0,0,0-.77-.36c-.2,0-.77,0-1.73,0Zm0,4v2.68h1.87a9.36,9.36,0,0,0,1.39-.06,1.26,1.26,0,0,0,.74-.4,1.21,1.21,0,0,0,.28-.85,1.26,1.26,0,0,0-.22-.76,1.16,1.16,0,0,0-.63-.46,6.61,6.61,0,0,0-1.8-.15Z"/><path class="cls-5" d="M114.36,163.29v-10h4.26a7.24,7.24,0,0,1,2.33.27,2.33,2.33,0,0,1,1.17,1,2.9,2.9,0,0,1,.43,1.58,2.68,2.68,0,0,1-.66,1.86,3.19,3.19,0,0,1-2,.93,4.55,4.55,0,0,1,1.08.84,11.09,11.09,0,0,1,1.15,1.63l1.23,1.95H121l-1.47-2.18a12.74,12.74,0,0,0-1.06-1.47,1.68,1.68,0,0,0-.61-.42,3.5,3.5,0,0,0-1-.11h-.41v4.18Zm2-5.78h1.5a7.94,7.94,0,0,0,1.82-.12,1.11,1.11,0,0,0,.56-.43,1.28,1.28,0,0,0,.21-.75,1.21,1.21,0,0,0-.27-.82,1.29,1.29,0,0,0-.76-.39c-.17,0-.66,0-1.48,0h-1.58Z"/><path class="cls-5" d="M124.05,158.34a6.32,6.32,0,0,1,.46-2.57,4.74,4.74,0,0,1,.93-1.37,3.81,3.81,0,0,1,1.3-.9,5.37,5.37,0,0,1,2.16-.4,4.72,4.72,0,0,1,3.54,1.37,6.14,6.14,0,0,1,0,7.62,4.63,4.63,0,0,1-3.52,1.37,4.72,4.72,0,0,1-3.56-1.36A5.18,5.18,0,0,1,124.05,158.34Zm2.09-.06a3.79,3.79,0,0,0,.78,2.58,2.58,2.58,0,0,0,2,.87,2.51,2.51,0,0,0,2-.87,4.77,4.77,0,0,0,0-5.18,2.8,2.8,0,0,0-4,0A3.78,3.78,0,0,0,126.14,158.28Z"/><path d="M207.68,46.59l1.4-.14a1.71,1.71,0,0,0,.52,1,1.53,1.53,0,0,0,1.05.34,1.6,1.6,0,0,0,1-.3.9.9,0,0,0,.35-.69.64.64,0,0,0-.15-.43,1.19,1.19,0,0,0-.52-.31c-.17-.06-.55-.16-1.15-.31a4,4,0,0,1-1.63-.71,1.88,1.88,0,0,1-.66-1.44,1.83,1.83,0,0,1,.31-1,2,2,0,0,1,.89-.72,3.52,3.52,0,0,1,1.41-.25,3.05,3.05,0,0,1,2,.59,2.08,2.08,0,0,1,.71,1.58l-1.44.06a1.27,1.27,0,0,0-.4-.79,1.47,1.47,0,0,0-.92-.24,1.57,1.57,0,0,0-1,.26.49.49,0,0,0-.23.44.54.54,0,0,0,.21.43,3.56,3.56,0,0,0,1.33.48,7.16,7.16,0,0,1,1.56.52,1.92,1.92,0,0,1,.79.73,2.1,2.1,0,0,1,.29,1.14,2.17,2.17,0,0,1-.34,1.15,2.08,2.08,0,0,1-1,.8,4.17,4.17,0,0,1-1.56.26,3.08,3.08,0,0,1-2.08-.63A2.7,2.7,0,0,1,207.68,46.59Z"/><path d="M214.65,48.92V41.76H216v3.8l1.6-1.83h1.69l-1.77,1.9,1.9,3.29H218l-1.3-2.33-.64.67v1.66Z"/><path d="M219.61,43.73h1.47l1.24,3.69,1.21-3.69H225l-1.83,5-.33.9a3.62,3.62,0,0,1-.35.69,1.38,1.38,0,0,1-.37.39,1.55,1.55,0,0,1-.52.23,2.54,2.54,0,0,1-.7.08,3.33,3.33,0,0,1-.78-.08L220,49.87a3.17,3.17,0,0,0,.58.06.86.86,0,0,0,.71-.28,2,2,0,0,0,.35-.72Z"/><path d="M230.58,48.92h-1.27v-.76a2,2,0,0,1-.75.66,1.87,1.87,0,0,1-.87.22,2,2,0,0,1-1.53-.72,3.52,3.52,0,0,1,0-4,2,2,0,0,1,1.57-.68,2,2,0,0,1,1.5.72V41.76h1.37Zm-3.66-2.7a2.42,2.42,0,0,0,.23,1.2,1,1,0,0,0,.93.53,1,1,0,0,0,.8-.4,1.81,1.81,0,0,0,.33-1.2,2,2,0,0,0-.32-1.29,1,1,0,0,0-.82-.39,1,1,0,0,0-.82.39A1.73,1.73,0,0,0,226.92,46.22Z"/><path d="M234.94,47.27l1.36.23a2.19,2.19,0,0,1-.83,1.14,2.38,2.38,0,0,1-1.42.4,2.32,2.32,0,0,1-2-.89,2.89,2.89,0,0,1-.52-1.78,2.85,2.85,0,0,1,.68-2,2.21,2.21,0,0,1,1.7-.73,2.31,2.31,0,0,1,1.83.76,3.36,3.36,0,0,1,.64,2.34h-3.44a1.38,1.38,0,0,0,.33,1,1,1,0,0,0,.79.34.9.9,0,0,0,.55-.17A1.2,1.2,0,0,0,234.94,47.27Zm.08-1.39a1.33,1.33,0,0,0-.31-.9,1,1,0,0,0-.71-.31,1,1,0,0,0-.75.32,1.32,1.32,0,0,0-.29.89Z"/><path d="M237.44,48.92V41.76h1.37v2.58a1.93,1.93,0,0,1,1.5-.72,2,2,0,0,1,1.57.68,2.87,2.87,0,0,1,.62,2,3,3,0,0,1-.63,2,2,2,0,0,1-1.54.72,2,2,0,0,1-.87-.22,2.13,2.13,0,0,1-.75-.66v.76Zm1.36-2.7a2.22,2.22,0,0,0,.25,1.19A1.1,1.1,0,0,0,240,48a1,1,0,0,0,.77-.38,1.88,1.88,0,0,0,.33-1.23,2,2,0,0,0-.33-1.28,1,1,0,0,0-.82-.39,1,1,0,0,0-.82.38A1.76,1.76,0,0,0,238.8,46.22Z"/><path d="M244.63,45.32l-1.25-.23a2,2,0,0,1,.73-1.11,2.64,2.64,0,0,1,1.52-.36,3.41,3.41,0,0,1,1.37.21,1.35,1.35,0,0,1,.63.56,2.84,2.84,0,0,1,.18,1.22v1.61a6,6,0,0,0,.06,1,3.3,3.3,0,0,0,.25.7h-1.36c0-.09-.08-.23-.13-.4a1.34,1.34,0,0,0-.05-.17,2.47,2.47,0,0,1-.75.52A2.22,2.22,0,0,1,245,49a1.78,1.78,0,0,1-1.27-.44,1.55,1.55,0,0,1-.25-1.88,1.45,1.45,0,0,1,.59-.53,4.67,4.67,0,0,1,1.09-.32,8.24,8.24,0,0,0,1.34-.33V45.4a.7.7,0,0,0-.2-.56,1.13,1.13,0,0,0-.74-.17.81.81,0,0,0-.9.65Zm1.84,1.11a8.34,8.34,0,0,1-.84.21,2.48,2.48,0,0,0-.75.24.58.58,0,0,0-.27.48.7.7,0,0,0,.22.5.75.75,0,0,0,.55.21,1.24,1.24,0,0,0,.71-.24.9.9,0,0,0,.32-.46,2.4,2.4,0,0,0,.06-.67Z"/><path d="M253.88,48.92h-1.37V46.27a3.92,3.92,0,0,0-.09-1.08.8.8,0,0,0-.28-.39.82.82,0,0,0-.48-.13,1.1,1.1,0,0,0-.64.19,1,1,0,0,0-.39.52,4.55,4.55,0,0,0-.1,1.19v2.35h-1.37V43.73h1.27v.77a2.14,2.14,0,0,1,2.54-.72,1.42,1.42,0,0,1,.57.42,1.5,1.5,0,0,1,.27.57,4.5,4.5,0,0,1,.07.93Z"/><path d="M258.28,47.27l1.36.23a2.19,2.19,0,0,1-.83,1.14,2.38,2.38,0,0,1-1.42.4,2.32,2.32,0,0,1-2-.89,2.89,2.89,0,0,1-.52-1.78,2.85,2.85,0,0,1,.68-2,2.21,2.21,0,0,1,1.7-.73,2.31,2.31,0,0,1,1.83.76,3.41,3.41,0,0,1,.64,2.34h-3.44a1.38,1.38,0,0,0,.33,1,1,1,0,0,0,.79.34.85.85,0,0,0,.54-.17A1.13,1.13,0,0,0,258.28,47.27Zm.08-1.39a1.33,1.33,0,0,0-.31-.9,1,1,0,0,0-.71-.31,1,1,0,0,0-.75.32,1.32,1.32,0,0,0-.29.89Z"/><path d="M221.35,53.76v2.63a2,2,0,0,1,1.59-.77,2.11,2.11,0,0,1,.85.17,1.33,1.33,0,0,1,.57.45,1.68,1.68,0,0,1,.27.61,5.16,5.16,0,0,1,.07,1v3h-1.37V58.18a4.06,4.06,0,0,0-.08-1,.61.61,0,0,0-.28-.35.83.83,0,0,0-.49-.13,1.13,1.13,0,0,0-.61.16,1,1,0,0,0-.4.5,3.16,3.16,0,0,0-.12,1v2.6H220V53.76Z"/><path d="M227.12,57.32l-1.25-.23A1.9,1.9,0,0,1,226.6,56a2.62,2.62,0,0,1,1.52-.36,3.41,3.41,0,0,1,1.37.21,1.4,1.4,0,0,1,.63.56,2.84,2.84,0,0,1,.18,1.22v1.61a6,6,0,0,0,.06,1,3.3,3.3,0,0,0,.25.7h-1.36a3.8,3.8,0,0,1-.13-.4,1.34,1.34,0,0,0-.05-.17,2.47,2.47,0,0,1-.75.52,2.24,2.24,0,0,1-.86.17,1.77,1.77,0,0,1-1.26-.44,1.43,1.43,0,0,1-.46-1.1,1.47,1.47,0,0,1,.21-.78,1.45,1.45,0,0,1,.59-.53,4.53,4.53,0,0,1,1.09-.32,7.78,7.78,0,0,0,1.33-.33V57.4a.7.7,0,0,0-.19-.56,1.13,1.13,0,0,0-.74-.17,1,1,0,0,0-.57.14A1,1,0,0,0,227.12,57.32ZM229,58.43a7.36,7.36,0,0,1-.83.21,2.48,2.48,0,0,0-.75.24.58.58,0,0,0-.27.48.66.66,0,0,0,.22.5.73.73,0,0,0,.54.21,1.19,1.19,0,0,0,.71-.24.87.87,0,0,0,.33-.46,2.53,2.53,0,0,0,0-.67Z"/><path d="M233.08,60.92,231,55.73h1.44l1,2.65.28.89c.08-.23.12-.38.14-.45l.15-.44,1-2.65h1.41l-2.06,5.19Z"/><path d="M240.22,59.27l1.37.23a2.26,2.26,0,0,1-.84,1.14,2.38,2.38,0,0,1-1.42.4,2.32,2.32,0,0,1-2-.89,3,3,0,0,1-.52-1.78,2.85,2.85,0,0,1,.68-2,2.21,2.21,0,0,1,1.7-.73,2.31,2.31,0,0,1,1.83.76,3.41,3.41,0,0,1,.64,2.34h-3.44a1.38,1.38,0,0,0,.33,1,1,1,0,0,0,.79.34.9.9,0,0,0,.55-.17A1.2,1.2,0,0,0,240.22,59.27Zm.08-1.39A1.33,1.33,0,0,0,240,57a.94.94,0,0,0-.72-.31,1,1,0,0,0-.74.32,1.27,1.27,0,0,0-.28.89Z"/><path d="M247.49,60.92h-1.37V58.27a3.92,3.92,0,0,0-.09-1.08.8.8,0,0,0-.28-.39.84.84,0,0,0-.48-.13,1.1,1.1,0,0,0-.64.19,1,1,0,0,0-.39.52,4.55,4.55,0,0,0-.1,1.19v2.35h-1.37V55.73H244v.77a2.14,2.14,0,0,1,2.54-.72,1.42,1.42,0,0,1,.57.42,1.5,1.5,0,0,1,.27.57,4.5,4.5,0,0,1,.07.93Z"/><path d="M103.78,22.64l1.4-.14a1.74,1.74,0,0,0,.52,1,1.57,1.57,0,0,0,1,.33,1.66,1.66,0,0,0,1-.29.9.9,0,0,0,.35-.7.66.66,0,0,0-.15-.43,1.19,1.19,0,0,0-.52-.31c-.17-.06-.55-.16-1.15-.31a4,4,0,0,1-1.64-.71,1.87,1.87,0,0,1-.65-1.44,1.82,1.82,0,0,1,.31-1,1.91,1.91,0,0,1,.89-.73,3.7,3.7,0,0,1,1.41-.25,3,3,0,0,1,2,.6,2.06,2.06,0,0,1,.71,1.57l-1.44.07a1.25,1.25,0,0,0-.4-.8,1.47,1.47,0,0,0-.92-.24,1.63,1.63,0,0,0-1,.26.5.5,0,0,0-.23.44.56.56,0,0,0,.21.44,4,4,0,0,0,1.33.48,6.72,6.72,0,0,1,1.56.51,2,2,0,0,1,.79.73,2.14,2.14,0,0,1,.29,1.14,2.17,2.17,0,0,1-.34,1.15,2,2,0,0,1-1,.8,4.17,4.17,0,0,1-1.56.26,3.08,3.08,0,0,1-2.08-.63A2.65,2.65,0,0,1,103.78,22.64Z"/><path d="M111.83,21.36l-1.25-.22a1.93,1.93,0,0,1,.73-1.12,2.64,2.64,0,0,1,1.52-.36,3.22,3.22,0,0,1,1.37.22,1.33,1.33,0,0,1,.63.55,2.86,2.86,0,0,1,.18,1.23v1.6a6.12,6.12,0,0,0,.06,1,3,3,0,0,0,.25.69H114c0-.09-.08-.22-.13-.4a1,1,0,0,0,0-.16,2.27,2.27,0,0,1-.75.51,2.22,2.22,0,0,1-.85.17,1.78,1.78,0,0,1-1.27-.43,1.48,1.48,0,0,1-.46-1.1,1.45,1.45,0,0,1,.21-.78,1.38,1.38,0,0,1,.59-.53,4.67,4.67,0,0,1,1.09-.32,7.54,7.54,0,0,0,1.33-.34v-.14a.7.7,0,0,0-.19-.56,1.2,1.2,0,0,0-.74-.17,1,1,0,0,0-.57.15A.92.92,0,0,0,111.83,21.36Zm1.83,1.11a7.36,7.36,0,0,1-.83.21,3.25,3.25,0,0,0-.75.24.58.58,0,0,0-.27.49.7.7,0,0,0,.22.5.74.74,0,0,0,.55.21,1.2,1.2,0,0,0,.7-.25.81.81,0,0,0,.33-.45,2.58,2.58,0,0,0,0-.67Z"/><path d="M115.71,25l1.87-2.67-1.8-2.51h1.68l.92,1.42,1-1.42H121l-1.75,2.46L121.12,25h-1.69l-1.05-1.6L117.31,25Z"/><path d="M121.61,22.3A2.7,2.7,0,0,1,122,21a2.25,2.25,0,0,1,1-1,2.77,2.77,0,0,1,1.38-.34,2.6,2.6,0,0,1,1.93.77,2.64,2.64,0,0,1,.75,1.93,2.67,2.67,0,0,1-.76,1.95,2.59,2.59,0,0,1-1.91.77,3.05,3.05,0,0,1-1.36-.32,2.2,2.2,0,0,1-1-1A3.06,3.06,0,0,1,121.61,22.3Zm1.41.07a1.72,1.72,0,0,0,.36,1.18,1.2,1.2,0,0,0,1.81,0,1.75,1.75,0,0,0,.36-1.19,1.71,1.71,0,0,0-.36-1.17,1.2,1.2,0,0,0-1.81,0A1.73,1.73,0,0,0,123,22.37Z"/><path d="M128,19.78h1.27v.76a2,2,0,0,1,.68-.63,1.79,1.79,0,0,1,.94-.25,2,2,0,0,1,1.53.71,2.86,2.86,0,0,1,.63,2,3,3,0,0,1-.63,2,2,2,0,0,1-1.54.72,1.85,1.85,0,0,1-.78-.17,2.57,2.57,0,0,1-.73-.58v2.61H128Zm1.35,2.5a2,2,0,0,0,.35,1.3,1.07,1.07,0,0,0,.84.41,1,1,0,0,0,.8-.38,2,2,0,0,0,.32-1.26,1.88,1.88,0,0,0-.33-1.21,1,1,0,0,0-.81-.39,1.07,1.07,0,0,0-.83.38A1.7,1.7,0,0,0,129.35,22.28Z"/><path d="M135.17,21.36l-1.25-.22a1.93,1.93,0,0,1,.73-1.12,2.64,2.64,0,0,1,1.52-.36,3.22,3.22,0,0,1,1.37.22,1.33,1.33,0,0,1,.63.55,2.86,2.86,0,0,1,.18,1.23v1.6a6.12,6.12,0,0,0,.06,1,3,3,0,0,0,.25.69h-1.36c0-.09-.08-.22-.13-.4a1,1,0,0,0,0-.16,2.27,2.27,0,0,1-.75.51,2.22,2.22,0,0,1-.85.17,1.78,1.78,0,0,1-1.27-.43,1.48,1.48,0,0,1-.46-1.1,1.45,1.45,0,0,1,.21-.78,1.38,1.38,0,0,1,.59-.53,4.67,4.67,0,0,1,1.09-.32,7.54,7.54,0,0,0,1.33-.34v-.14a.7.7,0,0,0-.19-.56,1.2,1.2,0,0,0-.74-.17,1,1,0,0,0-.57.15A.92.92,0,0,0,135.17,21.36ZM137,22.47a7.36,7.36,0,0,1-.83.21,3.25,3.25,0,0,0-.75.24.58.58,0,0,0-.27.49.7.7,0,0,0,.22.5.74.74,0,0,0,.55.21,1.2,1.2,0,0,0,.7-.25.81.81,0,0,0,.33-.45,2.58,2.58,0,0,0,.05-.67Z"/><path d="M141,25h-1.37V19.78h1.27v.74a2.15,2.15,0,0,1,.59-.69,1.07,1.07,0,0,1,.59-.17,1.8,1.8,0,0,1,.91.26l-.43,1.2a1.22,1.22,0,0,0-.64-.23.78.78,0,0,0-.49.16,1.1,1.1,0,0,0-.32.57,8.81,8.81,0,0,0-.11,1.74Z"/><path d="M143.55,25V17.81h1.37v3.8l1.61-1.83h1.69l-1.78,1.89,1.9,3.29h-1.48l-1.3-2.32-.64.66V25Z"/><path d="M210.59,305.34l.49-.52a1.55,1.55,0,0,0,.65.37,1.3,1.3,0,0,0,.72-.05,2.13,2.13,0,0,0,.77-.46,2.06,2.06,0,0,0,.49-.6,1.06,1.06,0,0,0,.13-.6.8.8,0,0,0-.2-.47.76.76,0,0,0-.43-.25,1.18,1.18,0,0,0-.61.09c-.16.06-.47.22-.95.47a5.3,5.3,0,0,1-1.06.47,1.49,1.49,0,0,1-.81,0,1.33,1.33,0,0,1-.63-.4,1.51,1.51,0,0,1-.2-1.67,2.76,2.76,0,0,1,.66-.85,2.88,2.88,0,0,1,1-.59,1.59,1.59,0,0,1,1-.05,1.71,1.71,0,0,1,.81.49l-.5.52a1.2,1.2,0,0,0-.84-.35,2,2,0,0,0-1.51,1.31.77.77,0,0,0,.16.67.68.68,0,0,0,.51.23,3,3,0,0,0,1.12-.46,9.2,9.2,0,0,1,1.19-.57,1.81,1.81,0,0,1,.94-.05,1.38,1.38,0,0,1,.72.45,1.6,1.6,0,0,1,.38.81,1.74,1.74,0,0,1-.14,1,2.75,2.75,0,0,1-.68.91,3.37,3.37,0,0,1-1.12.69,1.78,1.78,0,0,1-1.07,0A1.89,1.89,0,0,1,210.59,305.34Z"/><path d="M215.61,298.11l0-.64.46,0,.05.68a2.65,2.65,0,0,1,.66.23,3.08,3.08,0,0,1,.69.6,2.1,2.1,0,0,1,.65,1.73,2.11,2.11,0,0,1-1.69,1.68l0,.67-.46,0-.05-.69a1.76,1.76,0,0,1-.6-.18,2.62,2.62,0,0,1-.75-.61,2.21,2.21,0,0,1-.71-1.66,1.93,1.93,0,0,1,.66-1.28,1.88,1.88,0,0,1,.49-.34A3.25,3.25,0,0,1,215.61,298.11Zm0,.64a1.23,1.23,0,0,0-.74.29,1.17,1.17,0,0,0-.38.88,1.72,1.72,0,0,0,.53,1.12,2.16,2.16,0,0,0,.8.6Zm.47.09.21,2.87a1.07,1.07,0,0,0,.68-.28,1.13,1.13,0,0,0,.4-.89,1.79,1.79,0,0,0-.53-1.13,3,3,0,0,0-.38-.35A2,2,0,0,0,216.13,298.84Z"/><path d="M219.57,299.81l-2.76-3.1.48-.42.39.44a1.48,1.48,0,0,1,.53-1.39,1.72,1.72,0,0,1,.6-.36,1.12,1.12,0,0,1,.59-.05,1.39,1.39,0,0,1,.51.24,3.72,3.72,0,0,1,.48.49l1.7,1.9-.53.47-1.67-1.88a1.9,1.9,0,0,0-.49-.43.69.69,0,0,0-.45-.06,1,1,0,0,0-.45.23,1.2,1.2,0,0,0-.39.73,1.46,1.46,0,0,0,.48,1l1.51,1.69Z"/><path d="M224.9,295.06l-.34-.39a1.31,1.31,0,0,1-.46,1.23,1.63,1.63,0,0,1-.86.4,1.81,1.81,0,0,1-1-.14,2.56,2.56,0,0,1-.92-.69,3.09,3.09,0,0,1-.6-1,1.61,1.61,0,0,1,0-1,1.73,1.73,0,0,1,.51-.82,1.44,1.44,0,0,1,.61-.32,1.22,1.22,0,0,1,.63,0l-1.37-1.54.52-.46,3.81,4.27Zm-3-.07a1.8,1.8,0,0,0,1,.67,1,1,0,0,0,.86-.24,1,1,0,0,0,.33-.8,1.74,1.74,0,0,0-.52-1.07,1.93,1.93,0,0,0-1.08-.72,1,1,0,0,0-.87.24,1,1,0,0,0-.33.81A1.85,1.85,0,0,0,221.87,295Z"/><path d="M227.45,291l.6-.41a1.72,1.72,0,0,1,.18,1.16,1.87,1.87,0,0,1-.65,1.05,1.92,1.92,0,0,1-1.45.54,2.18,2.18,0,0,1-1.44-.82A2.27,2.27,0,0,1,224,291a1.8,1.8,0,0,1,.66-1.36,1.76,1.76,0,0,1,1.39-.48,2.17,2.17,0,0,1,1.45.84l.13.14-2.31,2.06a1.61,1.61,0,0,0,1,.52,1.19,1.19,0,0,0,1.25-.9A1.38,1.38,0,0,0,227.45,291Zm-2.48.69,1.73-1.54a1.42,1.42,0,0,0-.72-.41,1.07,1.07,0,0,0-.92.27,1.14,1.14,0,0,0-.39.79A1.3,1.3,0,0,0,225,291.69Z"/><path d="M229.53,290.93l-2.75-3.09.47-.42.42.47a1.7,1.7,0,0,1-.06-.74.74.74,0,0,1,.25-.4,1.3,1.3,0,0,1,.69-.31l.25.64a1.06,1.06,0,0,0-.49.23.72.72,0,0,0-.21.38.74.74,0,0,0,.06.46,2.63,2.63,0,0,0,.45.69l1.45,1.63Z"/><path d="M233.67,287.25l-.48.43-3.81-4.27.52-.47,1.36,1.52a1.4,1.4,0,0,1,.48-1.17,1.79,1.79,0,0,1,.64-.37,1.57,1.57,0,0,1,.71-.05,2,2,0,0,1,.71.28,3,3,0,0,1,.65.54,2.35,2.35,0,0,1,.7,1.58,1.66,1.66,0,0,1-.55,1.28,1.32,1.32,0,0,1-1.27.31Zm-1.4-1.57a2.11,2.11,0,0,0,.87.67,1,1,0,0,0,1.36-1,1.81,1.81,0,0,0-.55-1.12,1.86,1.86,0,0,0-1-.68,1,1,0,0,0-.84.23,1,1,0,0,0-.33.83A1.74,1.74,0,0,0,232.27,285.68Z"/><path d="M236.5,284.73l-3.81-4.28.53-.46,3.81,4.27Z"/><path d="M238.7,282.77l-3.94-2,.56-.49,2.31,1.26c.25.14.51.29.76.45-.1-.21-.21-.46-.33-.76l-1-2.51.54-.48,1.59,4.14Z"/><path d="M242.84,279.09l-.35-.39a1.29,1.29,0,0,1-.46,1.23,1.63,1.63,0,0,1-.86.4,1.81,1.81,0,0,1-1-.14,2.56,2.56,0,0,1-.92-.69,3.09,3.09,0,0,1-.6-1,1.68,1.68,0,0,1,0-1,1.73,1.73,0,0,1,.51-.82,1.44,1.44,0,0,1,.61-.32,1.22,1.22,0,0,1,.63,0L239,274.84l.52-.46,3.81,4.27Zm-3-.07a1.8,1.8,0,0,0,1,.67,1,1,0,0,0,.86-.24,1,1,0,0,0,.33-.8,1.74,1.74,0,0,0-.52-1.07,1.93,1.93,0,0,0-1.08-.72,1,1,0,0,0-.87.24,1,1,0,0,0-.33.81A1.85,1.85,0,0,0,239.8,279Z"/><path d="M244.3,277.79l-.54-.6.6-.53.54.59Z"/><path d="M136.06,183.1,133.43,178l.67-.35,2.63,5.09Z"/><path d="M137,181.21l.57-.42a1,1,0,0,0,.58.42,1.18,1.18,0,0,0,.77-.14,1.15,1.15,0,0,0,.55-.51.63.63,0,0,0,0-.52.43.43,0,0,0-.35-.24,3.11,3.11,0,0,0-.75.12,6,6,0,0,1-1.11.19,1,1,0,0,1-.58-.14,1.08,1.08,0,0,1-.4-.42,1.2,1.2,0,0,1-.12-.52,1.14,1.14,0,0,1,.13-.51,1.38,1.38,0,0,1,.3-.38,2.06,2.06,0,0,1,.5-.36,2.21,2.21,0,0,1,.83-.26,1.26,1.26,0,0,1,.66.08,1.55,1.55,0,0,1,.51.46l-.57.4a.76.76,0,0,0-.47-.32,1,1,0,0,0-.65.13,1.29,1.29,0,0,0-.54.46.5.5,0,0,0,0,.43.41.41,0,0,0,.19.18.57.57,0,0,0,.33,0l.63-.12a9.94,9.94,0,0,1,1.07-.19,1.16,1.16,0,0,1,.59.12,1,1,0,0,1,.42.46,1.11,1.11,0,0,1,.12.68,1.44,1.44,0,0,1-.3.7,2.44,2.44,0,0,1-.7.55,1.93,1.93,0,0,1-1.25.26A1.56,1.56,0,0,1,137,181.21Z"/><path d="M142.47,179.08l.37.51a2.15,2.15,0,0,1-.44.3,1.24,1.24,0,0,1-.58.16.67.67,0,0,1-.41-.14,2.48,2.48,0,0,1-.46-.7l-1.09-2.12-.46.23-.25-.48.45-.24-.47-.91.43-.7.67,1.29.62-.33.26.49-.63.32,1.11,2.16a1.15,1.15,0,0,0,.21.33.25.25,0,0,0,.17.06.42.42,0,0,0,.24-.06Z"/><path d="M145.28,176.84l.69-.26a1.81,1.81,0,0,1-.12,1.18,1.85,1.85,0,0,1-.89.85,1.93,1.93,0,0,1-1.54.17,2.21,2.21,0,0,1-1.2-1.16,2.29,2.29,0,0,1-.26-1.69,1.8,1.8,0,0,1,1-1.15,1.72,1.72,0,0,1,1.46-.12,2.19,2.19,0,0,1,1.2,1.17l.09.17-2.75,1.42a1.58,1.58,0,0,0,.82.75,1.15,1.15,0,0,0,.94-.07,1.06,1.06,0,0,0,.49-.49A1.34,1.34,0,0,0,145.28,176.84Zm-2.57,0,2-1.07a1.38,1.38,0,0,0-.59-.57,1.05,1.05,0,0,0-1,0,1.08,1.08,0,0,0-.58.66A1.3,1.3,0,0,0,142.71,176.89Z"/><path d="M149.71,176.05l-.24-.46a1.27,1.27,0,0,1-.74,1.08,1.62,1.62,0,0,1-.94.17,1.73,1.73,0,0,1-.92-.38,2.52,2.52,0,0,1-.72-.9,3.06,3.06,0,0,1-.34-1.09,1.69,1.69,0,0,1,.2-1,1.72,1.72,0,0,1,.7-.66,1.48,1.48,0,0,1,.67-.17,1.57,1.57,0,0,1,.61.15l-.94-1.82.62-.32,2.62,5.09Zm-2.92-.82a1.76,1.76,0,0,0,.84.91,1.06,1.06,0,0,0,.89,0,1,1,0,0,0,.52-.7,1.69,1.69,0,0,0-.24-1.17,2,2,0,0,0-.86-1,1,1,0,0,0-.9,0,1,1,0,0,0-.52.7A1.88,1.88,0,0,0,146.79,175.23Z"/><path d="M151.32,175.61l.65-.22a.69.69,0,0,0,.43.3,1.12,1.12,0,0,0,.72-.15,1.31,1.31,0,0,0,.58-.52,1,1,0,0,0,.07-.65,4.41,4.41,0,0,0-.37-.83,1.45,1.45,0,0,1-.77,1,1.58,1.58,0,0,1-1.46.06,2.33,2.33,0,0,1-1.09-1.1,2.69,2.69,0,0,1-.32-1.07,1.77,1.77,0,0,1,.2-1,1.67,1.67,0,0,1,.73-.68,1.46,1.46,0,0,1,1.35,0l-.23-.44.57-.3L154,173.2a3.34,3.34,0,0,1,.45,1.31,1.42,1.42,0,0,1-.26.85,2.15,2.15,0,0,1-.83.69,2,2,0,0,1-1.22.26A1.12,1.12,0,0,1,151.32,175.61Zm-.63-2.48a1.76,1.76,0,0,0,.84.91,1,1,0,0,0,.89,0,1,1,0,0,0,.55-.7,1.76,1.76,0,0,0-.24-1.19,1.72,1.72,0,0,0-.83-.87,1.08,1.08,0,0,0-.9,0,1,1,0,0,0-.53.71A1.65,1.65,0,0,0,150.69,173.13Z"/><path d="M157.4,171.51a2.79,2.79,0,0,1-.45.77,2,2,0,0,1-.63.47,1.54,1.54,0,0,1-1.09.19,1.13,1.13,0,0,1-.71-.59,1,1,0,0,1-.13-.56,1.19,1.19,0,0,1,.13-.53,1.58,1.58,0,0,1,.35-.43,3.31,3.31,0,0,1,.5-.38,6.83,6.83,0,0,0,1-.79l-.08-.17a.83.83,0,0,0-.46-.45,1.25,1.25,0,0,0-.82.16,1.24,1.24,0,0,0-.57.49,1,1,0,0,0,0,.71l-.65.23a1.63,1.63,0,0,1-.05-.78,1.29,1.29,0,0,1,.36-.65,2.6,2.6,0,0,1,.77-.56,2.32,2.32,0,0,1,.82-.29,1.06,1.06,0,0,1,.58.06,1,1,0,0,1,.41.32,3.39,3.39,0,0,1,.33.56l.43.84a9.24,9.24,0,0,0,.61,1.08,1.45,1.45,0,0,0,.38.36l-.65.33A1.37,1.37,0,0,1,157.4,171.51Zm-.77-1.36a5.77,5.77,0,0,1-.9.76,2.58,2.58,0,0,0-.48.4.67.67,0,0,0-.14.33.7.7,0,0,0,.06.35.62.62,0,0,0,.41.31.91.91,0,0,0,.64-.11,1.5,1.5,0,0,0,.56-.49,1.12,1.12,0,0,0,.19-.65,1.87,1.87,0,0,0-.22-.68Z"/><path d="M161.58,169.94l-.24-.47a1.3,1.3,0,0,1-.75,1.08,1.71,1.71,0,0,1-.94.18,1.87,1.87,0,0,1-.92-.39,2.57,2.57,0,0,1-.72-.89,3,3,0,0,1-.33-1.1,1.65,1.65,0,0,1,.19-1,1.74,1.74,0,0,1,.7-.67,1.4,1.4,0,0,1,.67-.16,1.25,1.25,0,0,1,.61.15l-.94-1.83.62-.32,2.63,5.09Zm-2.93-.82a1.83,1.83,0,0,0,.85.9,1,1,0,0,0,.88,0,1,1,0,0,0,.53-.7,1.81,1.81,0,0,0-.24-1.17,2,2,0,0,0-.87-1,1,1,0,0,0-.9,0,1,1,0,0,0-.52.7A1.9,1.9,0,0,0,158.65,169.12Z"/><path d="M165.05,166.64l.69-.25a1.84,1.84,0,0,1-.11,1.17,2.16,2.16,0,0,1-2.44,1,2.17,2.17,0,0,1-1.19-1.15,2.31,2.31,0,0,1-.27-1.69,1.95,1.95,0,0,1,2.45-1.28,2.32,2.32,0,0,1,1.2,1.18,1.14,1.14,0,0,0,.08.16l-2.75,1.42a1.64,1.64,0,0,0,.82.76,1.19,1.19,0,0,0,.94-.08,1.08,1.08,0,0,0,.49-.48A1.37,1.37,0,0,0,165.05,166.64Zm-2.57.05,2.06-1.06a1.42,1.42,0,0,0-.6-.58,1.15,1.15,0,0,0-1.53.7A1.24,1.24,0,0,0,162.48,166.69Z"/><path d="M332.82,220.81l.5-.52a1.52,1.52,0,0,0,.64.37,1.33,1.33,0,0,0,.73,0,2.22,2.22,0,0,0,.77-.46,2,2,0,0,0,.48-.6,1.07,1.07,0,0,0,.14-.6.81.81,0,0,0-.21-.47.76.76,0,0,0-.43-.25,1.19,1.19,0,0,0-.61.09c-.15.06-.47.22-.94.47a5.31,5.31,0,0,1-1.07.47,1.49,1.49,0,0,1-.81,0,1.26,1.26,0,0,1-.62-.4,1.45,1.45,0,0,1-.36-.77,1.52,1.52,0,0,1,.16-.9,2.72,2.72,0,0,1,.65-.85,2.82,2.82,0,0,1,1-.59,1.59,1.59,0,0,1,1,0,1.71,1.71,0,0,1,.81.49l-.51.52a1.2,1.2,0,0,0-.84-.35,2,2,0,0,0-1.51,1.31.75.75,0,0,0,.17.67.66.66,0,0,0,.5.23,3.06,3.06,0,0,0,1.13-.46,8.6,8.6,0,0,1,1.19-.57,1.8,1.8,0,0,1,.94-.05,1.51,1.51,0,0,1,1.09,1.26,1.66,1.66,0,0,1-.14,1,2.71,2.71,0,0,1-.67.91,3.41,3.41,0,0,1-1.13.69,1.78,1.78,0,0,1-1.07,0A1.93,1.93,0,0,1,332.82,220.81Z"/><path d="M337.85,213.58l0-.64.46,0,0,.68a2.51,2.51,0,0,1,.66.23,3.11,3.11,0,0,1,.7.6,2.13,2.13,0,0,1,.65,1.73,1.93,1.93,0,0,1-.67,1.18,2,2,0,0,1-1,.5l.05.67-.46,0,0-.69a1.69,1.69,0,0,1-.6-.18,2.83,2.83,0,0,1-.76-.61,2.2,2.2,0,0,1-.7-1.66,2.06,2.06,0,0,1,1.15-1.62A2.84,2.84,0,0,1,337.85,213.58Zm0,.64a1.2,1.2,0,0,0-.74.29,1.15,1.15,0,0,0-.39.88,1.78,1.78,0,0,0,.53,1.12,2.24,2.24,0,0,0,.8.6Zm.47.09.2,2.87a1.07,1.07,0,0,0,.68-.28,1.14,1.14,0,0,0,.41-.89,1.81,1.81,0,0,0-.54-1.13,2.42,2.42,0,0,0-.38-.35A1.89,1.89,0,0,0,338.37,214.31Z"/><path d="M341.81,215.28l-2.76-3.1.47-.42.39.44a1.5,1.5,0,0,1,.53-1.39,1.67,1.67,0,0,1,.61-.36,1.12,1.12,0,0,1,.59,0,1.35,1.35,0,0,1,.5.24,4.34,4.34,0,0,1,.49.49l1.69,1.9-.52.47-1.68-1.88a1.75,1.75,0,0,0-.49-.43.66.66,0,0,0-.44-.06,1,1,0,0,0-.45.23,1.13,1.13,0,0,0-.39.73,1.38,1.38,0,0,0,.48,1l1.5,1.69Z"/><path d="M347.14,210.53l-.35-.39a1.28,1.28,0,0,1-.45,1.23,1.66,1.66,0,0,1-.87.4,1.81,1.81,0,0,1-1-.14,2.65,2.65,0,0,1-.92-.69,3.05,3.05,0,0,1-.59-1,1.61,1.61,0,0,1-.05-1,1.59,1.59,0,0,1,.51-.82,1.47,1.47,0,0,1,.6-.32,1.23,1.23,0,0,1,.63,0l-1.36-1.54.52-.46,3.81,4.27Zm-3-.07a1.82,1.82,0,0,0,1,.67,1,1,0,0,0,.85-.24,1,1,0,0,0,.33-.8,1.69,1.69,0,0,0-.52-1.07,1.93,1.93,0,0,0-1.08-.72,1,1,0,0,0-.86.24,1,1,0,0,0-.34.81A2,2,0,0,0,344.1,210.46Z"/><path d="M349.68,206.47l.61-.41a1.84,1.84,0,0,1,.18,1.16,2.15,2.15,0,0,1-2.11,1.59,2.2,2.2,0,0,1-1.44-.82,2.31,2.31,0,0,1-.68-1.57,1.83,1.83,0,0,1,.66-1.36,1.77,1.77,0,0,1,1.39-.48,2.19,2.19,0,0,1,1.46.84,1,1,0,0,1,.12.14l-2.31,2.06a1.61,1.61,0,0,0,1,.52,1.09,1.09,0,0,0,.89-.31,1,1,0,0,0,.36-.59A1.29,1.29,0,0,0,349.68,206.47Zm-2.48.69,1.73-1.54a1.34,1.34,0,0,0-.72-.41,1.08,1.08,0,0,0-.92.27,1.14,1.14,0,0,0-.39.79A1.3,1.3,0,0,0,347.2,207.16Z"/><path d="M351.77,206.4,349,203.31l.47-.42.42.46a1.77,1.77,0,0,1,0-.73.79.79,0,0,1,.24-.4,1.37,1.37,0,0,1,.69-.31l.25.64a1.08,1.08,0,0,0-.48.23.67.67,0,0,0-.22.38.74.74,0,0,0,.06.46,2.68,2.68,0,0,0,.46.69l1.44,1.63Z"/><path d="M355.91,202.72l-.49.43-3.81-4.28.53-.46,1.36,1.52a1.39,1.39,0,0,1,.47-1.17,1.83,1.83,0,0,1,.65-.37,1.56,1.56,0,0,1,.71,0,1.87,1.87,0,0,1,.7.28,2.79,2.79,0,0,1,.66.54,2.4,2.4,0,0,1,.7,1.58,1.66,1.66,0,0,1-.56,1.28,1.31,1.31,0,0,1-1.27.31Zm-1.41-1.57a2.11,2.11,0,0,0,.87.67,1,1,0,0,0,1.36-1,1.84,1.84,0,0,0-.54-1.12,1.88,1.88,0,0,0-1-.68,1,1,0,0,0-.84.23,1,1,0,0,0-.33.83A1.8,1.8,0,0,0,354.5,201.15Z"/><path d="M358.73,200.2l-3.8-4.28.52-.46,3.81,4.27Z"/><path d="M360.93,198.24,357,196.19l.55-.49,2.32,1.26q.38.21.75.45c-.1-.21-.21-.46-.33-.76l-1-2.51.54-.48,1.58,4.14Z"/><path d="M365.07,194.56l-.35-.39a1.28,1.28,0,0,1-.45,1.23,1.66,1.66,0,0,1-.87.4,1.83,1.83,0,0,1-1-.14,2.65,2.65,0,0,1-.92-.69,3.05,3.05,0,0,1-.59-1,1.61,1.61,0,0,1,0-1,1.66,1.66,0,0,1,.51-.82,1.47,1.47,0,0,1,.6-.32,1.23,1.23,0,0,1,.63,0l-1.36-1.54.52-.46,3.81,4.27Zm-3-.07a1.85,1.85,0,0,0,1.05.67,1,1,0,0,0,1.19-1,1.77,1.77,0,0,0-.53-1.07,1.91,1.91,0,0,0-1.07-.72,1,1,0,0,0-.87.24.94.94,0,0,0-.33.81A1.88,1.88,0,0,0,362,194.49Z"/><path d="M366.53,193.26l-.53-.6.6-.54.53.6Z"/><path d="M109.94,245.24l-.77-5.67,4.1-.56.09.66-3.35.46.24,1.74,3.14-.43.09.67-3.14.43.26,1.93,3.49-.48.09.67Z"/><path d="M114.68,243.34l.67-.2a1,1,0,0,0,.41.59,1.18,1.18,0,0,0,.77.12,1.08,1.08,0,0,0,.69-.29.6.6,0,0,0,.17-.49.45.45,0,0,0-.26-.35,3.46,3.46,0,0,0-.74-.13,7.5,7.5,0,0,1-1.11-.19,1,1,0,0,1-.5-.33,1.15,1.15,0,0,1-.23-.53,1.05,1.05,0,0,1,.06-.53,1.17,1.17,0,0,1,.29-.44,1.38,1.38,0,0,1,.41-.26,2.24,2.24,0,0,1,.59-.17,2.48,2.48,0,0,1,.87,0,1.14,1.14,0,0,1,.59.3,1.47,1.47,0,0,1,.33.61l-.67.18a.74.74,0,0,0-.34-.46,1,1,0,0,0-.65-.09,1.14,1.14,0,0,0-.66.25.49.49,0,0,0-.16.4.46.46,0,0,0,.12.23.62.62,0,0,0,.29.15l.64.1a7.78,7.78,0,0,1,1.08.18,1.08,1.08,0,0,1,.51.3,1.14,1.14,0,0,1,.25.58,1.16,1.16,0,0,1-.12.68,1.39,1.39,0,0,1-.52.56,2.19,2.19,0,0,1-.84.28,1.94,1.94,0,0,1-1.27-.16A1.6,1.6,0,0,1,114.68,243.34Z"/><path d="M120.53,243.16l.18.6a3.13,3.13,0,0,1-.52.14,1.25,1.25,0,0,1-.6,0,.74.74,0,0,1-.34-.28,2.67,2.67,0,0,1-.2-.81l-.32-2.37-.51.07-.08-.54.52-.07-.14-1,.63-.52.2,1.44.7-.1.07.54-.7.1.33,2.4a1.36,1.36,0,0,0,.09.38.24.24,0,0,0,.14.12.45.45,0,0,0,.24,0A1.82,1.82,0,0,0,120.53,243.16Z"/><path d="M121.28,243.69,120.5,238l.7-.1.77,5.68Z"/><path d="M125.67,242.58a2.61,2.61,0,0,1-.69.56,1.84,1.84,0,0,1-.75.24,1.49,1.49,0,0,1-1.08-.19,1.07,1.07,0,0,1-.48-.79,1.14,1.14,0,0,1,.37-1,1.72,1.72,0,0,1,.47-.3,5.54,5.54,0,0,1,.6-.19,6.11,6.11,0,0,0,1.21-.41c0-.09,0-.15,0-.18a.78.78,0,0,0-.28-.57,1.13,1.13,0,0,0-.83-.13,1.27,1.27,0,0,0-.7.27,1.06,1.06,0,0,0-.26.66h-.69a1.79,1.79,0,0,1,.2-.75,1.45,1.45,0,0,1,.56-.5,2.93,2.93,0,0,1,.92-.27,2.26,2.26,0,0,1,.87,0,1.1,1.1,0,0,1,.52.24,1,1,0,0,1,.29.45,3.48,3.48,0,0,1,.12.63l.13.93a7.82,7.82,0,0,0,.21,1.23,1.61,1.61,0,0,0,.24.47l-.73.09A1.31,1.31,0,0,1,125.67,242.58Zm-.28-1.55a4.69,4.69,0,0,1-1.1.42,2.75,2.75,0,0,0-.59.22.66.66,0,0,0-.24.26.6.6,0,0,0,0,.35.59.59,0,0,0,.27.43.89.89,0,0,0,.65.1,1.39,1.39,0,0,0,.69-.27,1.14,1.14,0,0,0,.39-.54,1.65,1.65,0,0,0,0-.72Z"/><path d="M127.46,242.85l-.56-4.11.63-.09.08.59a1.48,1.48,0,0,1,1.21-.86,1.81,1.81,0,0,1,.7,0,1.14,1.14,0,0,1,.52.29,1.27,1.27,0,0,1,.28.48,3.86,3.86,0,0,1,.14.67l.34,2.53-.7.1-.34-2.5a1.73,1.73,0,0,0-.17-.63.69.69,0,0,0-.33-.3,1,1,0,0,0-.5-.06,1.17,1.17,0,0,0-.73.39,1.42,1.42,0,0,0-.18,1.12l.31,2.24Z"/><path d="M134.54,241.88l-.08-.52a1.27,1.27,0,0,1-1.06.77,1.53,1.53,0,0,1-.94-.15,1.74,1.74,0,0,1-.74-.66,2.53,2.53,0,0,1-.38-1.09,2.93,2.93,0,0,1,0-1.15,1.64,1.64,0,0,1,.51-.85,1.72,1.72,0,0,1,.88-.39,1.38,1.38,0,0,1,.68.07,1.28,1.28,0,0,1,.53.34l-.28-2,.7-.09.77,5.67Zm-2.49-1.75a1.84,1.84,0,0,0,.5,1.14,1,1,0,0,0,.84.28,1,1,0,0,0,.72-.48,1.78,1.78,0,0,0,.17-1.18,2,2,0,0,0-.5-1.2,1,1,0,0,0-1.58.2A2,2,0,0,0,132.05,240.13Z"/><path d="M135.83,240.46l.68-.21a.93.93,0,0,0,.41.59,1.05,1.05,0,0,0,.77.12,1.08,1.08,0,0,0,.68-.29.56.56,0,0,0,.17-.49.42.42,0,0,0-.25-.34,3,3,0,0,0-.75-.14,6.35,6.35,0,0,1-1.11-.19,1,1,0,0,1-.73-.86,1.18,1.18,0,0,1,.06-.53,1.06,1.06,0,0,1,.29-.43,1.33,1.33,0,0,1,.41-.27,2.23,2.23,0,0,1,.59-.16,2.27,2.27,0,0,1,.87,0,1.14,1.14,0,0,1,.59.3,1.54,1.54,0,0,1,.33.61l-.67.18a.74.74,0,0,0-.33-.45,1.05,1.05,0,0,0-.66-.1,1.13,1.13,0,0,0-.66.26.45.45,0,0,0-.15.39.41.41,0,0,0,.11.24.84.84,0,0,0,.3.15l.64.09a9,9,0,0,1,1.07.18,1,1,0,0,1,.51.31,1,1,0,0,1,.25.57,1.16,1.16,0,0,1-.12.68,1.27,1.27,0,0,1-.52.56,2.2,2.2,0,0,1-.84.29,2,2,0,0,1-1.27-.17A1.57,1.57,0,0,1,135.83,240.46Z"/><path d="M140.16,241.46h.69a.63.63,0,0,0,.3.42,1.13,1.13,0,0,0,.73.1,1.2,1.2,0,0,0,.72-.29,1,1,0,0,0,.29-.59,5,5,0,0,0-.08-.91,1.44,1.44,0,0,1-1.06.7,1.61,1.61,0,0,1-1.4-.43,2.45,2.45,0,0,1-.66-1.41,2.93,2.93,0,0,1,.06-1.11,1.76,1.76,0,0,1,.52-.86,1.73,1.73,0,0,1,.91-.4,1.51,1.51,0,0,1,1.28.43l-.07-.5.65-.08.48,3.55a3.44,3.44,0,0,1,0,1.39,1.41,1.41,0,0,1-.53.71,2.14,2.14,0,0,1-1,.38,2,2,0,0,1-1.24-.17A1.13,1.13,0,0,1,140.16,241.46Zm.24-2.55a1.78,1.78,0,0,0,.48,1.14,1.07,1.07,0,0,0,1.61-.22,1.75,1.75,0,0,0,.17-1.2,1.69,1.69,0,0,0-.49-1.09,1,1,0,0,0-1.6.21A1.68,1.68,0,0,0,140.4,238.91Z"/><path d="M147.26,239.63a2.86,2.86,0,0,1-.68.57,2.35,2.35,0,0,1-.75.24,1.58,1.58,0,0,1-1.09-.19,1.14,1.14,0,0,1-.48-.8,1.22,1.22,0,0,1,.07-.57,1.19,1.19,0,0,1,.3-.45,1.89,1.89,0,0,1,.47-.3l.61-.19a7.32,7.32,0,0,0,1.21-.4c0-.1,0-.16,0-.19a.81.81,0,0,0-.28-.57,1.2,1.2,0,0,0-.83-.13,1.31,1.31,0,0,0-.7.27,1.06,1.06,0,0,0-.26.66h-.7a1.66,1.66,0,0,1,.21-.75,1.45,1.45,0,0,1,.56-.5,2.87,2.87,0,0,1,.91-.27,2.55,2.55,0,0,1,.88,0,1.1,1.1,0,0,1,.52.24,1.08,1.08,0,0,1,.28.45,4.5,4.5,0,0,1,.13.64l.12.93a11.65,11.65,0,0,0,.21,1.22,1.77,1.77,0,0,0,.25.47l-.73.1A1.69,1.69,0,0,1,147.26,239.63Zm-.27-1.55a4.88,4.88,0,0,1-1.1.42,2.55,2.55,0,0,0-.59.22.62.62,0,0,0-.24.27.56.56,0,0,0-.05.34.58.58,0,0,0,.27.44,1,1,0,0,0,.64.1,1.42,1.42,0,0,0,.69-.28,1,1,0,0,0,.4-.54,1.78,1.78,0,0,0,0-.71Z"/><path d="M151.72,239.54l-.07-.52a1.29,1.29,0,0,1-1.06.77,1.69,1.69,0,0,1-.94-.15,1.85,1.85,0,0,1-.75-.67,2.61,2.61,0,0,1-.37-1.09,2.87,2.87,0,0,1,.05-1.14,1.6,1.6,0,0,1,.51-.85,1.66,1.66,0,0,1,.88-.4,1.42,1.42,0,0,1,1.21.41l-.28-2,.7-.1.77,5.68Zm-2.48-1.75a1.78,1.78,0,0,0,.5,1.13,1,1,0,0,0,.83.28,1,1,0,0,0,.73-.48,1.71,1.71,0,0,0,.16-1.18,1.91,1.91,0,0,0-.49-1.19,1,1,0,0,0-.86-.29,1,1,0,0,0-.72.49A1.93,1.93,0,0,0,149.24,237.79Z"/><path d="M156.1,237.59h.73a1.79,1.79,0,0,1-.5,1.07,2,2,0,0,1-1.13.51,1.9,1.9,0,0,1-1.5-.36,2.22,2.22,0,0,1-.74-1.49,2.28,2.28,0,0,1,.31-1.68,1.81,1.81,0,0,1,1.31-.76,1.77,1.77,0,0,1,1.42.37,2.25,2.25,0,0,1,.74,1.51s0,.1,0,.19l-3.06.41a1.58,1.58,0,0,0,.52,1,1.14,1.14,0,0,0,.91.24,1.06,1.06,0,0,0,.63-.29A1.39,1.39,0,0,0,156.1,237.59Zm-2.44-.81,2.29-.32a1.39,1.39,0,0,0-.37-.74,1,1,0,0,0-.91-.28,1.1,1.1,0,0,0-.77.43A1.26,1.26,0,0,0,153.66,236.78Z"/><path d="M133,272.07l-.62-5.69.75-.09.55,5,2.81-.3.07.67Z"/><path d="M140,270h.73a1.82,1.82,0,0,1-.53,1.06,1.92,1.92,0,0,1-1.14.47,1.88,1.88,0,0,1-1.5-.4,2.22,2.22,0,0,1-.7-1.5,2.34,2.34,0,0,1,.36-1.67,2,2,0,0,1,2.74-.32,2.25,2.25,0,0,1,.7,1.53s0,.1,0,.19l-3.08.33a1.59,1.59,0,0,0,.5,1,1.21,1.21,0,0,0,1.54,0A1.49,1.49,0,0,0,140,270Zm-2.42-.88,2.3-.25a1.46,1.46,0,0,0-.35-.75,1.09,1.09,0,0,0-.91-.31,1.11,1.11,0,0,0-.77.41A1.24,1.24,0,0,0,137.61,269.07Z"/><path d="M143.23,270.31l.17.61a3.41,3.41,0,0,1-.52.12,1.14,1.14,0,0,1-.61-.06.66.66,0,0,1-.33-.28,2.44,2.44,0,0,1-.17-.82l-.26-2.37-.52.06-.06-.55.52,0-.11-1,.64-.5.16,1.44.71-.07.05.54-.7.08.27,2.41a1,1,0,0,0,.08.38.3.3,0,0,0,.13.12.37.37,0,0,0,.24,0A1.1,1.1,0,0,0,143.23,270.31Z"/><path d="M144,270.87l-.62-5.7.7-.07.62,5.69Z"/><path d="M148.38,269.87a2.56,2.56,0,0,1-.69.55,2.39,2.39,0,0,1-.76.22,1.53,1.53,0,0,1-1.08-.22,1.13,1.13,0,0,1-.46-.81,1.1,1.1,0,0,1,.08-.57,1.09,1.09,0,0,1,.32-.44,1.47,1.47,0,0,1,.47-.28,4.85,4.85,0,0,1,.61-.18,6.55,6.55,0,0,0,1.22-.37c0-.1,0-.16,0-.19a.76.76,0,0,0-.27-.58,1.15,1.15,0,0,0-.82-.15,1.23,1.23,0,0,0-.71.26,1,1,0,0,0-.28.65l-.69,0a1.66,1.66,0,0,1,.23-.75,1.38,1.38,0,0,1,.57-.48,2.69,2.69,0,0,1,.92-.25,2.42,2.42,0,0,1,.87,0,1.21,1.21,0,0,1,.52.26,1.1,1.1,0,0,1,.27.46,3.94,3.94,0,0,1,.11.64l.1.93a9.51,9.51,0,0,0,.18,1.23,1.58,1.58,0,0,0,.23.47l-.73.08A1.44,1.44,0,0,1,148.38,269.87Zm-.23-1.56a5.24,5.24,0,0,1-1.11.39,2.65,2.65,0,0,0-.59.21.53.53,0,0,0-.25.26.57.57,0,0,0-.07.34.58.58,0,0,0,.27.44.91.91,0,0,0,.64.12,1.38,1.38,0,0,0,.7-.26,1.13,1.13,0,0,0,.41-.53,1.74,1.74,0,0,0,0-.71Z"/><path d="M150.17,270.19l-.45-4.13.63-.07.06.59a1.49,1.49,0,0,1,1.24-.82,1.63,1.63,0,0,1,.7.06,1,1,0,0,1,.51.3,1.22,1.22,0,0,1,.27.49,3.63,3.63,0,0,1,.11.67l.28,2.54-.7.08-.27-2.51a1.8,1.8,0,0,0-.15-.63.67.67,0,0,0-.33-.31.93.93,0,0,0-.5-.07,1.08,1.08,0,0,0-.74.37,1.37,1.37,0,0,0-.21,1.11l.25,2.25Z"/><path d="M157.27,269.41l-.06-.52a1.3,1.3,0,0,1-1.08.74,1.6,1.6,0,0,1-.94-.17,1.79,1.79,0,0,1-.73-.69,2.85,2.85,0,0,1-.35-1.1,3,3,0,0,1,.09-1.14,1.67,1.67,0,0,1,.53-.84,1.69,1.69,0,0,1,.89-.37,1.38,1.38,0,0,1,.68.09,1.28,1.28,0,0,1,.52.36l-.22-2,.69-.07.63,5.69Zm-2.44-1.82a1.83,1.83,0,0,0,.47,1.15,1,1,0,0,0,.83.31,1,1,0,0,0,.74-.46,1.77,1.77,0,0,0,.19-1.18,1.91,1.91,0,0,0-.46-1.21,1,1,0,0,0-.85-.31,1,1,0,0,0-.74.47A1.89,1.89,0,0,0,154.83,267.59Z"/><path d="M158.6,268l.68-.19a1,1,0,0,0,.39.61,1.23,1.23,0,0,0,.77.14,1.16,1.16,0,0,0,.7-.28.59.59,0,0,0,.18-.48.42.42,0,0,0-.25-.35,2.5,2.5,0,0,0-.74-.16,7.58,7.58,0,0,1-1.1-.22,1.13,1.13,0,0,1-.5-.35,1,1,0,0,1-.21-.53,1.05,1.05,0,0,1,.07-.53,1.15,1.15,0,0,1,.3-.42,1.38,1.38,0,0,1,.42-.26,2.77,2.77,0,0,1,.6-.15,2.47,2.47,0,0,1,.87,0,1.16,1.16,0,0,1,.58.32,1.52,1.52,0,0,1,.31.61L161,266a.78.78,0,0,0-.33-.47,1,1,0,0,0-.65-.11,1.21,1.21,0,0,0-.67.24.46.46,0,0,0-.16.39.38.38,0,0,0,.11.24.57.57,0,0,0,.29.15l.64.12a6.84,6.84,0,0,1,1.07.21,1,1,0,0,1,.5.31,1.13,1.13,0,0,1,.23.58,1.24,1.24,0,0,1-.13.68,1.49,1.49,0,0,1-.54.55,2.23,2.23,0,0,1-.85.26,1.94,1.94,0,0,1-1.26-.2A1.55,1.55,0,0,1,158.6,268Z"/><path d="M162.9,269.14l.69,0a.66.66,0,0,0,.29.43,1.13,1.13,0,0,0,.73.11,1.22,1.22,0,0,0,.73-.27,1,1,0,0,0,.3-.58,4.9,4.9,0,0,0,0-.91,1.45,1.45,0,0,1-1.08.67,1.6,1.6,0,0,1-1.39-.47,2.4,2.4,0,0,1-.62-1.42,2.54,2.54,0,0,1,.09-1.11,1.64,1.64,0,0,1,1.46-1.22,1.51,1.51,0,0,1,1.27.46l-.06-.5.65-.07.39,3.57a3.38,3.38,0,0,1-.05,1.38,1.45,1.45,0,0,1-.55.71,2.2,2.2,0,0,1-1,.34,1.94,1.94,0,0,1-1.23-.2A1.12,1.12,0,0,1,162.9,269.14Zm.31-2.54a1.83,1.83,0,0,0,.45,1.15,1.08,1.08,0,0,0,1.62-.18,1.74,1.74,0,0,0,.19-1.2,1.63,1.63,0,0,0-.46-1.1,1.06,1.06,0,0,0-.85-.3,1,1,0,0,0-.75.47A1.66,1.66,0,0,0,163.21,266.6Z"/><path d="M170.05,267.5a2.69,2.69,0,0,1-.7.54,2.1,2.1,0,0,1-.75.22,1.51,1.51,0,0,1-1.08-.21,1.13,1.13,0,0,1-.46-.81,1.1,1.1,0,0,1,.08-.57,1.17,1.17,0,0,1,.31-.44,1.92,1.92,0,0,1,.48-.29c.13-.05.34-.1.61-.17a6,6,0,0,0,1.22-.38,1.55,1.55,0,0,0,0-.18.76.76,0,0,0-.26-.58,1.16,1.16,0,0,0-.82-.15,1.28,1.28,0,0,0-.71.25,1.09,1.09,0,0,0-.28.65H167a1.79,1.79,0,0,1,.22-.75,1.48,1.48,0,0,1,.58-.48,2.63,2.63,0,0,1,.92-.25,2.42,2.42,0,0,1,.87,0,1.21,1.21,0,0,1,.52.26,1.26,1.26,0,0,1,.27.45,4.55,4.55,0,0,1,.1.64l.1.94c.08.65.14,1.06.18,1.22a1.54,1.54,0,0,0,.24.48l-.73.08A1.44,1.44,0,0,1,170.05,267.5Zm-.23-1.56a5.24,5.24,0,0,1-1.11.39,2.48,2.48,0,0,0-.6.21.67.67,0,0,0-.25.25.7.7,0,0,0-.06.35.62.62,0,0,0,.26.44.92.92,0,0,0,.64.12,1.44,1.44,0,0,0,.7-.26,1.05,1.05,0,0,0,.41-.53,1.71,1.71,0,0,0,0-.71Z"/><path d="M174.51,267.52l0-.52a1.28,1.28,0,0,1-1.09.74,1.62,1.62,0,0,1-.94-.17,1.83,1.83,0,0,1-.72-.69,2.64,2.64,0,0,1-.35-1.09,2.89,2.89,0,0,1,.08-1.15,1.62,1.62,0,0,1,.54-.84,1.64,1.64,0,0,1,.89-.36,1.39,1.39,0,0,1,.68.08,1.35,1.35,0,0,1,.52.36l-.23-2,.7-.08.62,5.69Zm-2.43-1.81a1.8,1.8,0,0,0,.46,1.14,1,1,0,0,0,.83.31,1,1,0,0,0,.74-.46,1.75,1.75,0,0,0,.2-1.18,2,2,0,0,0-.47-1.21,1,1,0,0,0-1.58.16A1.91,1.91,0,0,0,172.08,265.71Z"/><path d="M178.94,265.69h.73a1.77,1.77,0,0,1-.53,1.06,2,2,0,0,1-1.14.48,1.88,1.88,0,0,1-1.49-.41,2.13,2.13,0,0,1-.7-1.5,2.29,2.29,0,0,1,.35-1.67,2,2,0,0,1,2.74-.32,2.21,2.21,0,0,1,.7,1.53s0,.1,0,.19l-3.08.33a1.64,1.64,0,0,0,.5,1,1.21,1.21,0,0,0,1.54,0A1.49,1.49,0,0,0,178.94,265.69Zm-2.42-.87,2.3-.26a1.39,1.39,0,0,0-.35-.75,1.08,1.08,0,0,0-.91-.31,1.11,1.11,0,0,0-.77.41A1.26,1.26,0,0,0,176.52,264.82Z"/><path d="M200.29,217.86l5.7-.59.2,2a4.6,4.6,0,0,1,0,1,1.94,1.94,0,0,1-.32.88,2.39,2.39,0,0,1-.91.78,3.77,3.77,0,0,1-1.33.36,3.68,3.68,0,0,1-1.16,0,3,3,0,0,1-.87-.3,2,2,0,0,1-.93-1.12,3.75,3.75,0,0,1-.19-.9Zm.75.69.13,1.21a2.8,2.8,0,0,0,.2.88,1.36,1.36,0,0,0,.35.48,1.78,1.78,0,0,0,.76.34,3.34,3.34,0,0,0,1.11,0,2.65,2.65,0,0,0,1.35-.43,1.47,1.47,0,0,0,.56-.78,2.78,2.78,0,0,0,0-1l-.13-1.2Z"/><path d="M201.67,226.16a2.49,2.49,0,0,1-.54-.7,2.1,2.1,0,0,1-.22-.76,1.53,1.53,0,0,1,.22-1.08,1.15,1.15,0,0,1,.81-.45,1.07,1.07,0,0,1,.57.08,1,1,0,0,1,.44.32,1.64,1.64,0,0,1,.28.48,4.66,4.66,0,0,1,.17.61,6.8,6.8,0,0,0,.37,1.22H204a.79.79,0,0,0,.58-.26,1.18,1.18,0,0,0,.15-.83,1.17,1.17,0,0,0-.25-.71,1,1,0,0,0-.64-.28l0-.69a1.75,1.75,0,0,1,.74.23,1.38,1.38,0,0,1,.48.57,2.76,2.76,0,0,1,.24.92,2.47,2.47,0,0,1,0,.88,1,1,0,0,1-.72.78,3.26,3.26,0,0,1-.64.1l-.93.1c-.65.07-1.06.13-1.23.17a1.77,1.77,0,0,0-.48.23l-.07-.73A1.36,1.36,0,0,1,201.67,226.16Zm1.56-.22a5.37,5.37,0,0,1-.39-1.12,2.77,2.77,0,0,0-.2-.59.53.53,0,0,0-.26-.25.57.57,0,0,0-.34-.07.62.62,0,0,0-.44.26.92.92,0,0,0-.12.64,1.34,1.34,0,0,0,.25.7,1,1,0,0,0,.53.41,1.54,1.54,0,0,0,.71,0Z"/><path d="M201.34,227.94l4.13-.42.06.62-.58.07a1.49,1.49,0,0,1,.81,1.24,1.63,1.63,0,0,1-.06.7,1.12,1.12,0,0,1-.3.5,1.34,1.34,0,0,1-.5.27,3.47,3.47,0,0,1-.67.11l-2.54.27-.07-.7,2.51-.26a1.93,1.93,0,0,0,.63-.15.71.71,0,0,0,.31-.33.9.9,0,0,0,.07-.5,1.16,1.16,0,0,0-.36-.74,1.41,1.41,0,0,0-1.11-.21l-2.25.23Z"/><path d="M201.8,232.37l4.13-.43.06.63-.58.06a1.48,1.48,0,0,1,.81,1.24,1.61,1.61,0,0,1-.06.7,1.15,1.15,0,0,1-.3.51,1.34,1.34,0,0,1-.5.27,3.47,3.47,0,0,1-.67.11l-2.54.26-.07-.7,2.51-.26a1.93,1.93,0,0,0,.63-.15.61.61,0,0,0,.31-.32.91.91,0,0,0,.07-.5,1.11,1.11,0,0,0-.36-.74,1.41,1.41,0,0,0-1.11-.22l-2.25.24Z"/><path d="M203.89,239.48l0,.73a1.77,1.77,0,0,1-1.05-.53,2.16,2.16,0,0,1-.06-2.64,2.19,2.19,0,0,1,1.51-.69,2.29,2.29,0,0,1,1.67.37,1.83,1.83,0,0,1,.72,1.33,1.76,1.76,0,0,1-.42,1.41,2.24,2.24,0,0,1-1.53.69l-.19,0-.32-3.08a1.58,1.58,0,0,0-1,.49,1.13,1.13,0,0,0-.27.9,1,1,0,0,0,.27.64A1.26,1.26,0,0,0,203.89,239.48Zm.89-2.41.24,2.3a1.46,1.46,0,0,0,.75-.34,1.1,1.1,0,0,0,.32-.91,1.16,1.16,0,0,0-.41-.78A1.29,1.29,0,0,0,204.78,237.07Z"/><path d="M202.79,241.87l-.07-.65,5.7-.6.07.7-2,.21a1.39,1.39,0,0,1,.67,1.08,1.79,1.79,0,0,1-.07.73,1.54,1.54,0,0,1-.38.61,2.21,2.21,0,0,1-.63.41,2.81,2.81,0,0,1-.83.21,2.32,2.32,0,0,1-1.69-.35,1.66,1.66,0,0,1-.71-1.2,1.32,1.32,0,0,1,.49-1.21Zm2.09-.23a2.25,2.25,0,0,0-1,.31,1,1,0,0,0-.44,1,1,1,0,0,0,.48.75,1.81,1.81,0,0,0,1.22.22,1.89,1.89,0,0,0,1.16-.45,1,1,0,0,0,.3-.81,1,1,0,0,0-.48-.76A1.8,1.8,0,0,0,204.88,241.64Z"/><path d="M203.18,245.64l4.13-.43.07.63-.63.06a1.71,1.71,0,0,1,.63.39.75.75,0,0,1,.18.43,1.27,1.27,0,0,1-.15.74l-.67-.17a1.13,1.13,0,0,0,.1-.53.77.77,0,0,0-.18-.4.86.86,0,0,0-.41-.22,2.85,2.85,0,0,0-.83,0l-2.16.23Z"/><path d="M205.5,247.82a2.12,2.12,0,0,1,1.76.46,1.92,1.92,0,0,1,.59,1.25,1.84,1.84,0,0,1-.41,1.45,2.13,2.13,0,0,1-1.48.7,2.66,2.66,0,0,1-1.28-.11,1.69,1.69,0,0,1-.78-.62,2.08,2.08,0,0,1-.36-1,1.89,1.89,0,0,1,.41-1.46A2.26,2.26,0,0,1,205.5,247.82Zm.07.72a1.73,1.73,0,0,0-1.15.47,1.1,1.1,0,0,0-.3.91,1.12,1.12,0,0,0,.48.83,1.88,1.88,0,0,0,1.25.22,1.74,1.74,0,0,0,1.12-.47,1.14,1.14,0,0,0,.31-.91,1.12,1.12,0,0,0-.49-.83A1.74,1.74,0,0,0,205.57,248.54Z"/><path d="M205.12,252.31l.18.68a1,1,0,0,0-.6.39,1.42,1.42,0,0,0,.13,1.47.58.58,0,0,0,.48.18.43.43,0,0,0,.35-.24,2.86,2.86,0,0,0,.17-.74,6.19,6.19,0,0,1,.22-1.1,1.08,1.08,0,0,1,.35-.5,1,1,0,0,1,.54-.21,1,1,0,0,1,.52.08,1.05,1.05,0,0,1,.43.3,1.6,1.6,0,0,1,.25.42,2.2,2.2,0,0,1,.14.6,2.25,2.25,0,0,1-.05.87,1.21,1.21,0,0,1-.32.58,1.5,1.5,0,0,1-.62.3l-.16-.67a.73.73,0,0,0,.47-.32,1,1,0,0,0,.11-.65,1.11,1.11,0,0,0-.23-.67.47.47,0,0,0-.39-.17.44.44,0,0,0-.24.11.67.67,0,0,0-.16.29c0,.07-.05.28-.11.63a7.23,7.23,0,0,1-.22,1.07,1,1,0,0,1-.32.5,1,1,0,0,1-.58.23,1.17,1.17,0,0,1-.68-.13,1.4,1.4,0,0,1-.54-.54,2.28,2.28,0,0,1-.26-.86,2,2,0,0,1,.21-1.26A1.58,1.58,0,0,1,205.12,252.31Z"/><path d="M204,256.61l0,.69a.62.62,0,0,0-.43.28,1.06,1.06,0,0,0-.12.73,1.2,1.2,0,0,0,.27.73.89.89,0,0,0,.58.3,4.49,4.49,0,0,0,.9,0,1.46,1.46,0,0,1-.66-1.09,1.57,1.57,0,0,1,.48-1.38,2.4,2.4,0,0,1,1.42-.62,3,3,0,0,1,1.12.1,1.77,1.77,0,0,1,.83.54,1.64,1.64,0,0,1,.37.93,1.5,1.5,0,0,1-.46,1.27l.5-.06.06.65-3.56.37a3.42,3.42,0,0,1-1.39-.05,1.46,1.46,0,0,1-.7-.56,2.09,2.09,0,0,1-.34-1,2,2,0,0,1,.21-1.23A1.09,1.09,0,0,1,204,256.61Zm2.54.32a1.75,1.75,0,0,0-1.15.44,1,1,0,0,0-.29.85,1,1,0,0,0,.45.77,1.78,1.78,0,0,0,1.2.21,1.73,1.73,0,0,0,1.11-.46,1.06,1.06,0,0,0,.3-.85,1,1,0,0,0-.46-.75A1.71,1.71,0,0,0,206.52,256.93Z"/><path d="M205.59,263.76a2.56,2.56,0,0,1-.55-.69,2.21,2.21,0,0,1-.21-.76,1.47,1.47,0,0,1,.22-1.08,1.11,1.11,0,0,1,.81-.46,1.22,1.22,0,0,1,.57.08,1.43,1.43,0,0,1,.44.32,1.89,1.89,0,0,1,.28.48,5.17,5.17,0,0,1,.17.61,6.2,6.2,0,0,0,.37,1.23l.18,0a.77.77,0,0,0,.58-.26,1.2,1.2,0,0,0,.16-.82,1.28,1.28,0,0,0-.25-.71,1.07,1.07,0,0,0-.65-.29l0-.69a1.7,1.7,0,0,1,.74.23,1.33,1.33,0,0,1,.48.58,2.76,2.76,0,0,1,.25.92,2.64,2.64,0,0,1,0,.87,1.11,1.11,0,0,1-.26.52,1.06,1.06,0,0,1-.45.27,4.55,4.55,0,0,1-.64.1l-.94.1a8.46,8.46,0,0,0-1.23.17,1.47,1.47,0,0,0-.47.23l-.08-.73A1.63,1.63,0,0,1,205.59,263.76Zm1.55-.22a4.8,4.8,0,0,1-.38-1.11,2.48,2.48,0,0,0-.21-.6.6.6,0,0,0-.25-.25.66.66,0,0,0-.34-.06.62.62,0,0,0-.45.26.91.91,0,0,0-.12.64,1.47,1.47,0,0,0,.25.7,1.11,1.11,0,0,0,.53.41,1.76,1.76,0,0,0,.72,0Z"/><path d="M205.54,268.23l.52-.06a1.3,1.3,0,0,1-.74-1.09,1.66,1.66,0,0,1,.18-.93,1.71,1.71,0,0,1,.69-.72,2.69,2.69,0,0,1,1.1-.35,3,3,0,0,1,1.14.09,1.62,1.62,0,0,1,.84.54,1.6,1.6,0,0,1,.36.89,1.4,1.4,0,0,1-.45,1.2l2-.21.07.69-5.7.6Zm1.82-2.43a1.85,1.85,0,0,0-1.15.46,1.05,1.05,0,0,0-.31.83,1,1,0,0,0,.46.74,1.75,1.75,0,0,0,1.18.2,1.94,1.94,0,0,0,1.21-.46,1,1,0,0,0,.31-.84,1,1,0,0,0-.46-.74A2,2,0,0,0,207.36,265.8Z"/><path d="M207.34,272.66v.73a1.71,1.71,0,0,1-1.05-.53,1.87,1.87,0,0,1-.48-1.14,1.94,1.94,0,0,1,.41-1.5,2.21,2.21,0,0,1,1.51-.69,2.28,2.28,0,0,1,1.67.37,1.83,1.83,0,0,1,.72,1.33,1.76,1.76,0,0,1-.42,1.41,2.24,2.24,0,0,1-1.53.69l-.19,0-.32-3.08a1.61,1.61,0,0,0-1,.49,1.21,1.21,0,0,0,0,1.54A1.26,1.26,0,0,0,207.34,272.66Zm.89-2.41.24,2.3a1.46,1.46,0,0,0,.76-.34,1.09,1.09,0,0,0,.31-.91,1.12,1.12,0,0,0-.41-.78A1.29,1.29,0,0,0,208.23,270.25Z"/><path d="M192.75,354.14l1.75-5.45,1.88.6a4,4,0,0,1,.94.39,1.91,1.91,0,0,1,.68.64,2.46,2.46,0,0,1,.35,1.14,3.82,3.82,0,0,1-.21,1.37,3.93,3.93,0,0,1-.49,1.05,2.79,2.79,0,0,1-.63.68,2,2,0,0,1-.66.33,1.89,1.89,0,0,1-.73.07,3.7,3.7,0,0,1-.91-.19Zm.93-.41,1.16.37a2.9,2.9,0,0,0,.88.17,1.16,1.16,0,0,0,.58-.13,1.63,1.63,0,0,0,.62-.56,3.45,3.45,0,0,0,.48-1,2.6,2.6,0,0,0,.14-1.41,1.46,1.46,0,0,0-.48-.83,2.73,2.73,0,0,0-.9-.41l-1.15-.37Z"/><path d="M197.65,357.39l.13-.66a1.58,1.58,0,0,0,.36.19.89.89,0,0,0,.38,0,.78.78,0,0,0,.29-.14,3.46,3.46,0,0,0,.36-.44l.12-.14-.24-4.44.73.23.09,2.55c0,.33,0,.66,0,1a9,9,0,0,1,.56-.81l1.58-2,.67.21-2.79,3.54a7.93,7.93,0,0,1-.66.77,1.43,1.43,0,0,1-.56.36,1.12,1.12,0,0,1-.6,0A1.84,1.84,0,0,1,197.65,357.39Z"/><path d="M202.6,357.29l-.63-.2,1.75-5.45.67.21-.62,1.95a1.4,1.4,0,0,1,1.25-.19,1.85,1.85,0,0,1,.64.37,1.5,1.5,0,0,1,.41.59,2.17,2.17,0,0,1,.12.74,2.85,2.85,0,0,1-.14.85,2.34,2.34,0,0,1-1,1.4,1.64,1.64,0,0,1-1.39.17,1.33,1.33,0,0,1-.91-.93Zm.63-2a2.22,2.22,0,0,0-.14,1.09,1,1,0,0,0,.69.79,1,1,0,0,0,.89-.13,2.37,2.37,0,0,0,.74-2.28,1,1,0,0,0-.63-.6,1,1,0,0,0-.88.13A1.77,1.77,0,0,0,203.23,355.28Z"/><path d="M206.83,358.65l-.62-.2L208,353l.67.21-.63,2a1.39,1.39,0,0,1,1.26-.19,1.71,1.71,0,0,1,.64.37,1.41,1.41,0,0,1,.4.58,2,2,0,0,1,.13.75,2.74,2.74,0,0,1-.14.84,2.35,2.35,0,0,1-1,1.41,1.65,1.65,0,0,1-1.38.17,1.33,1.33,0,0,1-.91-.94Zm.64-2a2.22,2.22,0,0,0-.14,1.09,1,1,0,0,0,.69.79,1,1,0,0,0,.88-.14,1.77,1.77,0,0,0,.69-1,1.92,1.92,0,0,0,.06-1.24,1,1,0,0,0-.63-.61,1,1,0,0,0-.88.14A1.77,1.77,0,0,0,207.47,356.64Z"/><path d="M214.56,357l.52-.36.27.37-.56.39a2.49,2.49,0,0,1,.14.68,3.28,3.28,0,0,1-.17.91,2.14,2.14,0,0,1-1.15,1.44,1.93,1.93,0,0,1-1.36,0,1.86,1.86,0,0,1-.95-.63l-.56.38-.26-.38.57-.4a1.76,1.76,0,0,1-.15-.6,3.12,3.12,0,0,1,.14-1,2.21,2.21,0,0,1,1.07-1.44,1.89,1.89,0,0,1,1.44-.09,1.7,1.7,0,0,1,.54.26A2.22,2.22,0,0,1,214.56,357Zm-.53.37a1.19,1.19,0,0,0-.63-.49,1.1,1.1,0,0,0-1,.11,1.74,1.74,0,0,0-.7,1,2.07,2.07,0,0,0-.1,1Zm.16.45-2.37,1.63a1.11,1.11,0,0,0,.58.45,1.16,1.16,0,0,0,1-.11,1.75,1.75,0,0,0,.7-1,2.24,2.24,0,0,0,.11-.51A1.53,1.53,0,0,0,214.19,357.85Z"/><path d="M215.09,361.3l1.75-5.46.67.22-1.75,5.45Z"/><path d="M216.91,360.58l.69.11a1,1,0,0,0,.12.7,1.07,1.07,0,0,0,.64.44,1.16,1.16,0,0,0,.75,0,.57.57,0,0,0,.36-.37.43.43,0,0,0-.08-.42,3.07,3.07,0,0,0-.61-.45,6.63,6.63,0,0,1-.92-.65,1.06,1.06,0,0,1-.31-.51,1.08,1.08,0,0,1,.3-1,1.29,1.29,0,0,1,.45-.27,1.68,1.68,0,0,1,.49-.06,2.18,2.18,0,0,1,.6.11,2.42,2.42,0,0,1,.77.39,1.23,1.23,0,0,1,.41.53,1.55,1.55,0,0,1,0,.69l-.68-.12a.77.77,0,0,0-.11-.56,1,1,0,0,0-.55-.37,1.17,1.17,0,0,0-.7,0,.47.47,0,0,0-.32.29.46.46,0,0,0,0,.26.59.59,0,0,0,.2.26l.54.36a9.1,9.1,0,0,1,.89.63,1.07,1.07,0,0,1,.33.49,1.06,1.06,0,0,1,0,.63,1.15,1.15,0,0,1-.39.56,1.32,1.32,0,0,1-.71.28,2.15,2.15,0,0,1-.89-.1,2,2,0,0,1-1.07-.7A1.56,1.56,0,0,1,216.91,360.58Z"/><path d="M220.38,363.35l.62.31a.61.61,0,0,0,.09.51,1.16,1.16,0,0,0,.62.4,1.26,1.26,0,0,0,.78.05,1,1,0,0,0,.5-.42,4.14,4.14,0,0,0,.33-.84,1.46,1.46,0,0,1-1.26.17,1.59,1.59,0,0,1-1.07-1,2.38,2.38,0,0,1,0-1.56,2.84,2.84,0,0,1,.54-1,1.67,1.67,0,0,1,1.83-.51,1.5,1.5,0,0,1,1,.93l.15-.47.62.19-1.1,3.42a3.27,3.27,0,0,1-.6,1.25,1.47,1.47,0,0,1-.79.41,2.17,2.17,0,0,1-1.08-.09,2,2,0,0,1-1-.69A1.12,1.12,0,0,1,220.38,363.35Zm1.31-2.2a1.85,1.85,0,0,0-.05,1.24,1.08,1.08,0,0,0,1.55.5,1.8,1.8,0,0,0,.67-1,1.77,1.77,0,0,0,0-1.2,1,1,0,0,0-.66-.61,1,1,0,0,0-.88.12A1.74,1.74,0,0,0,221.69,361.15Z"/><path d="M227.58,364.76a2.87,2.87,0,0,1-.86.22,2.34,2.34,0,0,1-.78-.11,1.53,1.53,0,0,1-.9-.64,1.13,1.13,0,0,1-.09-.92,1.07,1.07,0,0,1,.3-.49,1.2,1.2,0,0,1,.47-.28,1.72,1.72,0,0,1,.56-.06,6.1,6.1,0,0,1,.62.09,6.15,6.15,0,0,0,1.27.15l.06-.17a.78.78,0,0,0,0-.64,1.22,1.22,0,0,0-.69-.47,1.3,1.3,0,0,0-.76-.06,1.1,1.1,0,0,0-.52.48l-.62-.3a1.64,1.64,0,0,1,.51-.58,1.33,1.33,0,0,1,.72-.21,3,3,0,0,1,.94.14,2.36,2.36,0,0,1,.78.39,1,1,0,0,1,.37.45,1.08,1.08,0,0,1,.06.52,3.12,3.12,0,0,1-.16.63l-.29.89a10.69,10.69,0,0,0-.33,1.19,1.35,1.35,0,0,0,0,.53l-.7-.22A1.37,1.37,0,0,1,227.58,364.76Zm.42-1.52a4.92,4.92,0,0,1-1.17-.09,2.89,2.89,0,0,0-.63-.06.62.62,0,0,0-.33.14.55.55,0,0,0-.2.29.62.62,0,0,0,.06.51,1,1,0,0,0,.54.37,1.45,1.45,0,0,0,.74.05,1.14,1.14,0,0,0,.59-.32,1.64,1.64,0,0,0,.32-.64Z"/><path d="M231.65,366.6l.16-.5a1.3,1.3,0,0,1-1.3.23,1.63,1.63,0,0,1-.78-.54,1.69,1.69,0,0,1-.38-.92,2.53,2.53,0,0,1,.12-1.14,3,3,0,0,1,.54-1,1.64,1.64,0,0,1,1.79-.53,1.4,1.4,0,0,1,.59.36,1.28,1.28,0,0,1,.33.54l.63-2,.66.21-1.74,5.46ZM230.16,364a1.78,1.78,0,0,0,0,1.24,1,1,0,0,0,.63.61,1,1,0,0,0,.86-.12,1.73,1.73,0,0,0,.66-1,2,2,0,0,0,.07-1.29,1,1,0,0,0-.65-.63,1,1,0,0,0-.86.12A1.93,1.93,0,0,0,230.16,364Z"/><path d="M236.43,366.73l.67.31a1.85,1.85,0,0,1-.91.74,2,2,0,0,1-1.24,0,1.88,1.88,0,0,1-1.2-1,2.14,2.14,0,0,1,0-1.66,2.3,2.3,0,0,1,1-1.38,1.84,1.84,0,0,1,1.51-.13,1.79,1.79,0,0,1,1.12,1,2.25,2.25,0,0,1,0,1.68,1.2,1.2,0,0,1-.06.17l-2.94-.94a1.62,1.62,0,0,0,0,1.12,1.18,1.18,0,0,0,.72.61,1.08,1.08,0,0,0,.69,0A1.28,1.28,0,0,0,236.43,366.73Zm-1.85-1.79,2.21.71a1.42,1.42,0,0,0,0-.83,1.06,1.06,0,0,0-.7-.65,1.12,1.12,0,0,0-.88.06A1.28,1.28,0,0,0,234.58,364.94Z"/><path d="M359.86,62.71l-2.62-5.09.67-.34,2.63,5.09Z"/><path d="M360.83,60.82l.56-.41a1,1,0,0,0,.59.42,1.11,1.11,0,0,0,.76-.15,1.09,1.09,0,0,0,.55-.5.59.59,0,0,0,0-.52.43.43,0,0,0-.36-.24,3.25,3.25,0,0,0-.75.12,6.75,6.75,0,0,1-1.1.19,1.06,1.06,0,0,1-.59-.14,1.15,1.15,0,0,1-.39-.43,1.13,1.13,0,0,1-.12-.51,1,1,0,0,1,.13-.51,1.57,1.57,0,0,1,.3-.39,2.34,2.34,0,0,1,.5-.35,2.43,2.43,0,0,1,.83-.27,1.16,1.16,0,0,1,.66.09,1.63,1.63,0,0,1,.51.46l-.57.4a.77.77,0,0,0-.47-.32,1,1,0,0,0-.65.13,1.11,1.11,0,0,0-.54.46.47.47,0,0,0,0,.43.37.37,0,0,0,.19.18.63.63,0,0,0,.32,0l.64-.12a7.89,7.89,0,0,1,1.07-.19,1,1,0,0,1,.58.11,1.07,1.07,0,0,1,.43.46,1.31,1.31,0,0,1,.12.68,1.34,1.34,0,0,1-.31.7,2,2,0,0,1-.7.55,1.93,1.93,0,0,1-1.25.27A1.54,1.54,0,0,1,360.83,60.82Z"/><path d="M366.27,58.7l.38.5a2.88,2.88,0,0,1-.44.3,1.19,1.19,0,0,1-.59.17.7.7,0,0,1-.41-.15,2.42,2.42,0,0,1-.45-.7l-1.1-2.12-.46.24-.25-.49.46-.23-.47-.92.43-.69L364,55.9l.63-.33.25.49-.63.32,1.12,2.16a1.05,1.05,0,0,0,.21.32.24.24,0,0,0,.17.07.6.6,0,0,0,.23-.06Z"/><path d="M369.09,56.45l.68-.25a1.72,1.72,0,0,1-.11,1.17,2,2,0,0,1-.89.86,1.89,1.89,0,0,1-1.54.16,2.19,2.19,0,0,1-1.2-1.15,2.25,2.25,0,0,1-.26-1.69,1.93,1.93,0,0,1,2.44-1.28,2.25,2.25,0,0,1,1.2,1.18.93.93,0,0,1,.08.17L366.74,57a1.61,1.61,0,0,0,.83.76,1.13,1.13,0,0,0,.93-.08,1.11,1.11,0,0,0,.5-.48A1.36,1.36,0,0,0,369.09,56.45Zm-2.58,0,2.06-1.06a1.46,1.46,0,0,0-.59-.58,1.11,1.11,0,0,0-1,0,1.14,1.14,0,0,0-.58.66A1.29,1.29,0,0,0,366.51,56.5Z"/><path d="M373.52,55.67l-.24-.46a1.29,1.29,0,0,1-.75,1.08,1.57,1.57,0,0,1-.93.17,1.8,1.8,0,0,1-.93-.38,2.75,2.75,0,0,1-.72-.9,2.89,2.89,0,0,1-.33-1.1,1.6,1.6,0,0,1,.2-1,1.55,1.55,0,0,1,.7-.66,1.35,1.35,0,0,1,.66-.17,1.42,1.42,0,0,1,.62.15l-.95-1.83.63-.32,2.62,5.09Zm-2.92-.82a1.77,1.77,0,0,0,.84.9,1,1,0,0,0,.89,0,1,1,0,0,0,.52-.69,1.69,1.69,0,0,0-.24-1.17,1.89,1.89,0,0,0-.87-1,1,1,0,0,0-1.42.71A1.85,1.85,0,0,0,370.6,54.85Z"/><path d="M375.13,55.23l.65-.22a.67.67,0,0,0,.42.3,1.22,1.22,0,0,0,.73-.16,1.25,1.25,0,0,0,.58-.52,1,1,0,0,0,.07-.65,5.26,5.26,0,0,0-.37-.82,1.48,1.48,0,0,1-.77,1,1.58,1.58,0,0,1-1.46.06,2.41,2.41,0,0,1-1.1-1.11,2.79,2.79,0,0,1-.31-1.07,1.65,1.65,0,0,1,.2-1,1.69,1.69,0,0,1,.73-.69,1.47,1.47,0,0,1,1.34,0l-.22-.45.57-.29,1.65,3.18a3.58,3.58,0,0,1,.45,1.31A1.45,1.45,0,0,1,378,55a2.22,2.22,0,0,1-.83.69,2,2,0,0,1-1.22.25A1.13,1.13,0,0,1,375.13,55.23Zm-.63-2.48a1.8,1.8,0,0,0,.84.91,1.07,1.07,0,0,0,1.44-.74,1.75,1.75,0,0,0-.24-1.19,1.72,1.72,0,0,0-.83-.87,1,1,0,0,0-1.44.73A1.75,1.75,0,0,0,374.5,52.75Z"/><path d="M381.21,51.13a2.59,2.59,0,0,1-.45.76,2.5,2.5,0,0,1-.63.48,1.49,1.49,0,0,1-1.09.18,1.09,1.09,0,0,1-.72-.59,1.21,1.21,0,0,1-.13-.56,1.15,1.15,0,0,1,.14-.52,1.79,1.79,0,0,1,.34-.44c.11-.09.28-.22.51-.38a6,6,0,0,0,1-.79,1.11,1.11,0,0,0-.08-.16.75.75,0,0,0-.45-.45,1.55,1.55,0,0,0-1.39.65,1,1,0,0,0,0,.7l-.66.23a1.73,1.73,0,0,1-.05-.77,1.44,1.44,0,0,1,.36-.66,3.12,3.12,0,0,1,.77-.56,2.38,2.38,0,0,1,.83-.28,1.14,1.14,0,0,1,.57.05,1.18,1.18,0,0,1,.42.33,4.84,4.84,0,0,1,.33.56l.43.83a12,12,0,0,0,.6,1.08,1.67,1.67,0,0,0,.39.36l-.65.34A1.7,1.7,0,0,1,381.21,51.13Zm-.77-1.37a4.84,4.84,0,0,1-.9.76,2.53,2.53,0,0,0-.48.41.54.54,0,0,0-.14.33.61.61,0,0,0,.47.66.88.88,0,0,0,.64-.12,1.41,1.41,0,0,0,.56-.49,1.14,1.14,0,0,0,.19-.64,1.81,1.81,0,0,0-.22-.68Z"/><path d="M385.38,49.55l-.24-.46a1.29,1.29,0,0,1-.74,1.08,1.62,1.62,0,0,1-.94.17,1.73,1.73,0,0,1-.92-.38,2.52,2.52,0,0,1-.72-.9,3.06,3.06,0,0,1-.34-1.09,1.69,1.69,0,0,1,.2-1,1.72,1.72,0,0,1,.7-.66,1.36,1.36,0,0,1,.67-.17,1.57,1.57,0,0,1,.61.15l-.94-1.82.62-.33L386,49.25Zm-2.92-.82a1.8,1.8,0,0,0,.84.91,1,1,0,0,0,.89,0,1,1,0,0,0,.52-.69,1.69,1.69,0,0,0-.24-1.17,2,2,0,0,0-.86-1,1,1,0,0,0-.9,0,1,1,0,0,0-.52.7A1.88,1.88,0,0,0,382.46,48.73Z"/><path d="M388.86,46.26l.68-.25a1.72,1.72,0,0,1-.11,1.17,2.17,2.17,0,0,1-2.43,1A2.21,2.21,0,0,1,385.8,47a2.25,2.25,0,0,1-.26-1.69,1.8,1.8,0,0,1,1-1.15,1.72,1.72,0,0,1,1.46-.12,2.19,2.19,0,0,1,1.2,1.17l.09.17-2.75,1.42a1.58,1.58,0,0,0,.82.75,1.15,1.15,0,0,0,.94-.07,1.06,1.06,0,0,0,.49-.49A1.34,1.34,0,0,0,388.86,46.26Zm-2.57.05,2-1.06a1.35,1.35,0,0,0-.59-.58,1.05,1.05,0,0,0-1,0,1.14,1.14,0,0,0-.58.66A1.3,1.3,0,0,0,386.29,46.31Z"/><path class="cls-5" d="M388.64,29.3v-10h2v4.45l4.08-4.45h2.73l-3.78,3.91,4,6.12h-2.62l-2.75-4.71-1.64,1.68v3Z"/><path class="cls-5" d="M406.18,20l1.08-1.21.95.83-1.14,1.28a4.76,4.76,0,0,1,.71,1.52,6.94,6.94,0,0,1,.25,1.91,5.21,5.21,0,0,1-1.32,3.76,4.63,4.63,0,0,1-3.49,1.37,4.84,4.84,0,0,1-3-.86l-1.11,1.25-1-.85,1.17-1.31a5.63,5.63,0,0,1-1-3.48,5.16,5.16,0,0,1,1.32-3.74,4.64,4.64,0,0,1,3.52-1.38A4.85,4.85,0,0,1,406.18,20Zm-1.26,1.4a2.6,2.6,0,0,0-1.75-.58,2.56,2.56,0,0,0-2,.85,3.82,3.82,0,0,0-.77,2.59,4.88,4.88,0,0,0,.32,1.86Zm.74,1.08-4.2,4.72a2.49,2.49,0,0,0,1.7.62,2.53,2.53,0,0,0,2-.89,3.79,3.79,0,0,0,.79-2.63A5,5,0,0,0,405.66,22.49Z"/><path class="cls-5" d="M409.62,19.27h4a12.36,12.36,0,0,1,1.77.1,2.7,2.7,0,0,1,1.05.42,2.67,2.67,0,0,1,.77.83,2.45,2.45,0,0,1-.07,2.47,2.45,2.45,0,0,1-1,.88,2.59,2.59,0,0,1,1.4.91,2.41,2.41,0,0,1,.5,1.51,3,3,0,0,1-.32,1.33,2.66,2.66,0,0,1-.87,1,2.87,2.87,0,0,1-1.36.48c-.33,0-1.15.06-2.44.07h-3.41Zm2,1.67v2.32H413q1.18,0,1.47,0a1.45,1.45,0,0,0,.82-.36,1.06,1.06,0,0,0,.3-.79,1.09,1.09,0,0,0-.26-.75,1.13,1.13,0,0,0-.76-.35c-.2,0-.78,0-1.73,0Zm0,4v2.68h1.87a9.45,9.45,0,0,0,1.39-.06,1.29,1.29,0,0,0,.73-.4,1.26,1.26,0,0,0,.29-.86,1.34,1.34,0,0,0-.22-.76,1.28,1.28,0,0,0-.64-.46,7.13,7.13,0,0,0-1.79-.14Z"/><path class="cls-5" d="M419.73,29.3v-10h7.43V21h-5.41v2.22h5v1.69h-5v2.73h5.6V29.3Z"/><path class="cls-5" d="M429.08,29.3v-10h2l4.1,6.7v-6.7H437v10h-2l-4-6.54V29.3Z"/><path class="cls-5" d="M439.18,29.3v-10h2v3.95h4V19.27h2v10h-2V24.91h-4V29.3Z"/><path class="cls-5" d="M458.32,29.3h-2.2L455.25,27h-4l-.83,2.28h-2.14l3.9-10h2.14Zm-3.72-4-1.38-3.72-1.36,3.72Z"/><path class="cls-5" d="M460.91,29.3l-3.58-10h2.19l2.54,7.42,2.46-7.42h2.14l-3.59,10Z"/><path class="cls-5" d="M467.71,29.3v-10h2l4.1,6.7v-6.7h1.88v10h-2l-4-6.54V29.3Z"/><path class="cls-5" d="M481.72,29.3v-10h2v4.45l4.09-4.45h2.72l-3.77,3.91,4,6.12h-2.62l-2.75-4.71-1.65,1.68v3Z"/></g><g id="Layer_51" data-name="Layer 51"><path class="cls-6" d="M224.24,236.16a22.91,22.91,0,0,0-4.53-10.56c-3.36-4.22-6-4.09-7.55-7.55-2-4.54-.56-11.75,4.53-15.09a12.16,12.16,0,0,1,9.06-1.51c.36.08,6.64,1.53,9.05,7.54s-1,11.35-1.51,12.08c-2,3-3.78,2.9-6,6A17.13,17.13,0,0,0,224.24,236.16Z"/><circle class="cls-7" cx="224.24" cy="213.52" r="4.53"/><path d="M248.31,218v-.86a2.11,2.11,0,0,1-.82.72,2.25,2.25,0,0,1-1.07.26,2,2,0,0,1-1-.25,1.42,1.42,0,0,1-.66-.71,3,3,0,0,1-.21-1.26v-3.61H246V215a7.87,7.87,0,0,0,.08,1.48.84.84,0,0,0,.31.43,1,1,0,0,0,.56.16,1.2,1.2,0,0,0,.69-.22,1.11,1.11,0,0,0,.42-.52,6.5,6.5,0,0,0,.11-1.54v-2.41h1.51V218Z"/><path d="M251.31,218v-7.88h1.59v3.5l3.21-3.5h2.13l-3,3.07L258.4,218h-2l-2.17-3.7-1.28,1.32V218Z"/><path d="M259.22,211.56v-1.4h1.51v1.4Zm0,6.48v-5.71h1.51V218Z"/><path d="M263.72,218h-1.51v-5.71h1.4v.81a2.43,2.43,0,0,1,.65-.75,1.13,1.13,0,0,1,.65-.19,1.92,1.92,0,0,1,1,.29l-.46,1.31a1.36,1.36,0,0,0-.71-.24.83.83,0,0,0-.54.17,1.24,1.24,0,0,0-.35.63,9.44,9.44,0,0,0-.12,1.91Z"/><path d="M266.5,218v-7.88H268v4.18l1.77-2h1.86l-1.95,2.09,2.08,3.62h-1.62l-1.44-2.57-.7.74V218Z"/><path d="M276,216.22l1.51.25a2.51,2.51,0,0,1-.92,1.26,2.66,2.66,0,0,1-1.56.43,2.56,2.56,0,0,1-2.21-1,3.29,3.29,0,0,1-.56-2A3.15,3.15,0,0,1,273,213a2.44,2.44,0,0,1,1.88-.81,2.56,2.56,0,0,1,2,.84,3.74,3.74,0,0,1,.7,2.58h-3.78a1.52,1.52,0,0,0,.36,1,1.17,1.17,0,0,0,.87.38.92.92,0,0,0,.6-.2A1.16,1.16,0,0,0,276,216.22Zm.09-1.52a1.43,1.43,0,0,0-.34-1,1,1,0,0,0-.78-.34,1.06,1.06,0,0,0-.82.36,1.43,1.43,0,0,0-.32,1Z"/><ellipse class="cls-8" cx="226.62" cy="211.91" rx="54.75" ry="55.25"/><path d="M244,232.18V225h2.46a6,6,0,0,1,1.28.1,2.46,2.46,0,0,1,1,.51,2.91,2.91,0,0,1,.84,1.23,4.7,4.7,0,0,1,.28,1.7,4.88,4.88,0,0,1-.19,1.44,3.41,3.41,0,0,1-.49,1.05,2.51,2.51,0,0,1-.65.65,2.75,2.75,0,0,1-.85.35,4.44,4.44,0,0,1-1.15.13Zm.94-.85h1.53a3.66,3.66,0,0,0,1.11-.13,1.59,1.59,0,0,0,.64-.37,2.31,2.31,0,0,0,.53-.91,4.6,4.6,0,0,0,.19-1.38,3.36,3.36,0,0,0-.37-1.72,1.92,1.92,0,0,0-.9-.81,3.58,3.58,0,0,0-1.22-.15h-1.51Z"/><path d="M254.49,231.54a3.38,3.38,0,0,1-.94.58,2.61,2.61,0,0,1-1,.17,1.9,1.9,0,0,1-1.31-.41,1.38,1.38,0,0,1-.46-1.07,1.4,1.4,0,0,1,.17-.7,1.46,1.46,0,0,1,.45-.5,2,2,0,0,1,.64-.29,5.14,5.14,0,0,1,.78-.13,9.3,9.3,0,0,0,1.57-.3v-.23a1,1,0,0,0-.25-.76,1.46,1.46,0,0,0-1-.3,1.54,1.54,0,0,0-.92.22,1.32,1.32,0,0,0-.43.77l-.86-.12a2.28,2.28,0,0,1,.38-.89,1.65,1.65,0,0,1,.78-.52,3.28,3.28,0,0,1,1.18-.19,3.24,3.24,0,0,1,1.08.16,1.5,1.5,0,0,1,.61.39,1.38,1.38,0,0,1,.27.6,5,5,0,0,1,0,.81V230a11.54,11.54,0,0,0,.06,1.55,2.06,2.06,0,0,0,.22.63h-.92A2.07,2.07,0,0,1,254.49,231.54Zm-.07-2a7,7,0,0,1-1.44.34,3.64,3.64,0,0,0-.77.17.75.75,0,0,0-.34.29.74.74,0,0,0-.13.41.75.75,0,0,0,.27.59,1.14,1.14,0,0,0,.78.23,1.77,1.77,0,0,0,.9-.22,1.31,1.31,0,0,0,.58-.61,2,2,0,0,0,.15-.87Z"/><path d="M256.67,232.18V227h.79v.74a1.87,1.87,0,0,1,1.65-.86,2.2,2.2,0,0,1,.86.17,1.37,1.37,0,0,1,.59.44,1.72,1.72,0,0,1,.27.65,5.4,5.4,0,0,1,.05.86v3.19H260V229a2.32,2.32,0,0,0-.1-.8.85.85,0,0,0-.37-.43,1.17,1.17,0,0,0-.61-.15,1.43,1.43,0,0,0-1,.35,1.77,1.77,0,0,0-.4,1.35v2.84Z"/><path d="M262.23,232.18V227H263v.74a1.87,1.87,0,0,1,1.65-.86,2.2,2.2,0,0,1,.86.17,1.37,1.37,0,0,1,.59.44,1.72,1.72,0,0,1,.27.65,4.41,4.41,0,0,1,.05.86v3.19h-.88V229a2.32,2.32,0,0,0-.1-.8.88.88,0,0,0-.36-.43,1.24,1.24,0,0,0-.62-.15,1.43,1.43,0,0,0-1,.35,1.77,1.77,0,0,0-.4,1.35v2.84Z"/><path d="M271.34,230.51l.91.11a2.22,2.22,0,0,1-.8,1.23,2.35,2.35,0,0,1-1.48.44,2.38,2.38,0,0,1-1.81-.7,2.73,2.73,0,0,1-.66-2,2.84,2.84,0,0,1,.67-2,2.26,2.26,0,0,1,1.75-.73,2.23,2.23,0,0,1,1.7.71,2.81,2.81,0,0,1,.66,2c0,.06,0,.13,0,.24H268.4a2.05,2.05,0,0,0,.49,1.31,1.44,1.44,0,0,0,1.08.45,1.36,1.36,0,0,0,.83-.25A1.72,1.72,0,0,0,271.34,230.51Zm-2.89-1.42h2.9a1.81,1.81,0,0,0-.33-1,1.38,1.38,0,0,0-1.09-.5,1.39,1.39,0,0,0-1,.4A1.63,1.63,0,0,0,268.45,229.09Z"/><path d="M274.16,232.18h-.81V225h.88v2.55a1.75,1.75,0,0,1,1.42-.7,2.12,2.12,0,0,1,.9.2,1.72,1.72,0,0,1,.7.54,2.57,2.57,0,0,1,.44.84,3.62,3.62,0,0,1,.15,1.06,3,3,0,0,1-.66,2.06,2.06,2.06,0,0,1-1.58.72,1.65,1.65,0,0,1-1.44-.76Zm0-2.64a2.65,2.65,0,0,0,.26,1.35,1.25,1.25,0,0,0,2.11.18,2.21,2.21,0,0,0,.42-1.49,2.3,2.3,0,0,0-.4-1.5,1.23,1.23,0,0,0-1-.48,1.24,1.24,0,0,0-1,.5A2.17,2.17,0,0,0,274.15,229.54Z"/><path d="M278.9,232.18V227h.79v.79a2.29,2.29,0,0,1,.56-.73,1,1,0,0,1,.57-.18,1.73,1.73,0,0,1,.9.29l-.3.81a1.35,1.35,0,0,0-.65-.19.85.85,0,0,0-.51.17.9.9,0,0,0-.33.49,3.31,3.31,0,0,0-.15,1v2.72Z"/><path d="M281.92,229.58a2.64,2.64,0,0,1,.8-2.13,2.43,2.43,0,0,1,1.63-.58,2.37,2.37,0,0,1,1.75.7,2.69,2.69,0,0,1,.67,1.94,3.4,3.4,0,0,1-.3,1.57,2.16,2.16,0,0,1-.87.9,2.55,2.55,0,0,1-1.25.31,2.33,2.33,0,0,1-1.76-.69A2.8,2.8,0,0,1,281.92,229.58Zm.9,0a2.24,2.24,0,0,0,.43,1.5,1.46,1.46,0,0,0,2.19,0,2.26,2.26,0,0,0,.43-1.52,2.08,2.08,0,0,0-.44-1.45,1.38,1.38,0,0,0-1.08-.5,1.43,1.43,0,0,0-1.1.49A2.21,2.21,0,0,0,282.82,229.58Z"/><path d="M287.64,232.61l.86.12a.77.77,0,0,0,.3.58,1.45,1.45,0,0,0,.89.24,1.57,1.57,0,0,0,.94-.24,1.21,1.21,0,0,0,.45-.68,5,5,0,0,0,.06-1.13,1.8,1.8,0,0,1-1.43.68,2,2,0,0,1-1.66-.78,3,3,0,0,1-.58-1.85,3.45,3.45,0,0,1,.27-1.37,2.05,2.05,0,0,1,.77-1,2.12,2.12,0,0,1,1.2-.35,1.86,1.86,0,0,1,1.52.75V227H292v4.48a4.16,4.16,0,0,1-.25,1.72,1.77,1.77,0,0,1-.78.8,2.8,2.8,0,0,1-1.32.29,2.51,2.51,0,0,1-1.5-.42A1.41,1.41,0,0,1,287.64,232.61Zm.73-3.12a2.25,2.25,0,0,0,.41,1.49,1.28,1.28,0,0,0,1,.47,1.33,1.33,0,0,0,1-.47,2.19,2.19,0,0,0,.41-1.46,2.17,2.17,0,0,0-.42-1.44,1.34,1.34,0,0,0-1-.48,1.27,1.27,0,0,0-1,.48A2.12,2.12,0,0,0,288.37,229.49Z"/><path d="M293,230.63l.87-.14a1.22,1.22,0,0,0,.41.8,1.41,1.41,0,0,0,.94.28,1.31,1.31,0,0,0,.89-.25.71.71,0,0,0,.3-.57.54.54,0,0,0-.26-.47,3.66,3.66,0,0,0-.9-.3,8,8,0,0,1-1.34-.42,1.33,1.33,0,0,1-.57-.5,1.38,1.38,0,0,1-.19-.69,1.27,1.27,0,0,1,.16-.64,1.59,1.59,0,0,1,.43-.5,1.84,1.84,0,0,1,.56-.25,2.68,2.68,0,0,1,.76-.11,2.93,2.93,0,0,1,1.07.18,1.43,1.43,0,0,1,.68.48,1.84,1.84,0,0,1,.31.8l-.86.12a1,1,0,0,0-.34-.63,1.25,1.25,0,0,0-.8-.22,1.38,1.38,0,0,0-.86.2.59.59,0,0,0-.26.47.48.48,0,0,0,.11.3.71.71,0,0,0,.33.24l.78.22a10.39,10.39,0,0,1,1.3.41,1.34,1.34,0,0,1,.58.46,1.28,1.28,0,0,1,.21.75,1.41,1.41,0,0,1-.26.83,1.59,1.59,0,0,1-.74.6,2.68,2.68,0,0,1-1.09.21,2.44,2.44,0,0,1-1.54-.42A2,2,0,0,1,293,230.63Z"/><path d="M298.2,232.61l.86.12a.8.8,0,0,0,.3.58,1.45,1.45,0,0,0,.89.24,1.57,1.57,0,0,0,.94-.24,1.21,1.21,0,0,0,.45-.68,5.41,5.41,0,0,0,.07-1.13,1.84,1.84,0,0,1-1.44.68,2,2,0,0,1-1.66-.78,3,3,0,0,1-.58-1.85,3.45,3.45,0,0,1,.27-1.37,2.13,2.13,0,0,1,.78-1,2.08,2.08,0,0,1,1.19-.35,1.86,1.86,0,0,1,1.52.75V227h.81v4.48a4.16,4.16,0,0,1-.25,1.72,1.77,1.77,0,0,1-.78.8,2.76,2.76,0,0,1-1.31.29,2.47,2.47,0,0,1-1.5-.42A1.41,1.41,0,0,1,298.2,232.61Zm.73-3.12a2.25,2.25,0,0,0,.41,1.49,1.33,1.33,0,0,0,2,0,2.19,2.19,0,0,0,.41-1.46,2.17,2.17,0,0,0-.42-1.44,1.32,1.32,0,0,0-1-.48,1.28,1.28,0,0,0-1,.48A2.12,2.12,0,0,0,298.93,229.49Z"/><path d="M307.31,231.54a3.24,3.24,0,0,1-.94.58,2.57,2.57,0,0,1-1,.17,1.9,1.9,0,0,1-1.31-.41,1.38,1.38,0,0,1-.46-1.07,1.51,1.51,0,0,1,.17-.7,1.39,1.39,0,0,1,.46-.5,1.82,1.82,0,0,1,.63-.29,5.14,5.14,0,0,1,.78-.13,9.3,9.3,0,0,0,1.57-.3v-.23a1,1,0,0,0-.25-.76,1.44,1.44,0,0,0-1-.3,1.49,1.49,0,0,0-.91.22,1.27,1.27,0,0,0-.44.77l-.86-.12a2.15,2.15,0,0,1,.39-.89,1.62,1.62,0,0,1,.77-.52,3.28,3.28,0,0,1,1.18-.19,3.24,3.24,0,0,1,1.08.16,1.43,1.43,0,0,1,.61.39,1.38,1.38,0,0,1,.27.6,4.68,4.68,0,0,1,.05.81V230a14.76,14.76,0,0,0,.05,1.55,2.06,2.06,0,0,0,.22.63h-.91A2.08,2.08,0,0,1,307.31,231.54Zm-.07-2a7,7,0,0,1-1.44.34,3.51,3.51,0,0,0-.76.17.77.77,0,0,0-.35.29.73.73,0,0,0-.12.41.77.77,0,0,0,.26.59,1.14,1.14,0,0,0,.78.23,1.83,1.83,0,0,0,.91-.22,1.42,1.42,0,0,0,.58-.61,2.15,2.15,0,0,0,.14-.87Z"/><path d="M312.85,232.18v-.66a1.6,1.6,0,0,1-1.45.77,2,2,0,0,1-1.14-.34,2.27,2.27,0,0,1-.8-.95,3.32,3.32,0,0,1-.29-1.41,3.73,3.73,0,0,1,.26-1.41,2,2,0,0,1,.78-1,2.1,2.1,0,0,1,1.15-.34,1.77,1.77,0,0,1,.84.2,1.65,1.65,0,0,1,.59.52V225h.88v7.16Zm-2.78-2.59a2.26,2.26,0,0,0,.42,1.49,1.28,1.28,0,0,0,1,.49,1.23,1.23,0,0,0,1-.47,2.15,2.15,0,0,0,.41-1.44,2.45,2.45,0,0,0-.41-1.56,1.28,1.28,0,0,0-1-.5,1.22,1.22,0,0,0-1,.48A2.37,2.37,0,0,0,310.07,229.59Z"/><path d="M318.6,230.51l.91.11a2.22,2.22,0,0,1-.8,1.23,2.35,2.35,0,0,1-1.48.44,2.38,2.38,0,0,1-1.81-.7,2.73,2.73,0,0,1-.66-2,2.84,2.84,0,0,1,.67-2,2.26,2.26,0,0,1,1.75-.73,2.23,2.23,0,0,1,1.7.71,2.81,2.81,0,0,1,.66,2,2.37,2.37,0,0,1,0,.24h-3.86a2,2,0,0,0,.48,1.31,1.44,1.44,0,0,0,1.08.45,1.34,1.34,0,0,0,.83-.25A1.65,1.65,0,0,0,318.6,230.51Zm-2.89-1.42h2.9a1.81,1.81,0,0,0-.33-1,1.36,1.36,0,0,0-1.09-.5,1.41,1.41,0,0,0-1,.4A1.63,1.63,0,0,0,315.71,229.09Z"/><path d="M243.64,242.3l.92-.08a1.69,1.69,0,0,0,.48,1,1.32,1.32,0,0,0,.9.34,1.39,1.39,0,0,0,1.07-.48,1.79,1.79,0,0,0,.44-1.27,1.65,1.65,0,0,0-.42-1.19,1.47,1.47,0,0,0-1.11-.43,1.51,1.51,0,0,0-.76.19,1.45,1.45,0,0,0-.54.5l-.82-.11.69-3.67h3.56V238h-2.86l-.38,1.92a2.32,2.32,0,0,1,1.35-.45,2.16,2.16,0,0,1,1.58.65,2.27,2.27,0,0,1,.65,1.67,2.59,2.59,0,0,1-.57,1.68,2.51,2.51,0,0,1-3.47.32A2.11,2.11,0,0,1,243.64,242.3Z"/><path d="M249.21,242.29l.87-.12a2,2,0,0,0,.52,1.08,1.27,1.27,0,0,0,.89.33,1.43,1.43,0,0,0,1-.43,1.46,1.46,0,0,0,.43-1.07,1.35,1.35,0,0,0-1.4-1.39,2.32,2.32,0,0,0-.62.1l.1-.77h.14a1.79,1.79,0,0,0,1-.3,1,1,0,0,0,.45-.9,1.06,1.06,0,0,0-.33-.8,1.17,1.17,0,0,0-.84-.32,1.22,1.22,0,0,0-.86.32,1.66,1.66,0,0,0-.44,1l-.88-.16a2.3,2.3,0,0,1,.74-1.37,2.12,2.12,0,0,1,1.42-.48,2.32,2.32,0,0,1,1.08.25,1.81,1.81,0,0,1,1,1.61,1.46,1.46,0,0,1-.25.84,1.65,1.65,0,0,1-.73.61,1.64,1.64,0,0,1,1,.61,1.79,1.79,0,0,1,.35,1.15,2.08,2.08,0,0,1-.68,1.59,2.39,2.39,0,0,1-1.73.65,2.2,2.2,0,0,1-1.56-.56A2.11,2.11,0,0,1,249.21,242.29Z"/><path d="M255.24,244.18v-1h1v1a1.8,1.8,0,0,1-.2.89,1.29,1.29,0,0,1-.62.52l-.24-.37a.91.91,0,0,0,.41-.36,1.53,1.53,0,0,0,.14-.68Z"/><path d="M263.63,244.18h-.88v-5.6a4.58,4.58,0,0,1-.83.6,7.2,7.2,0,0,1-.93.46v-.85a6,6,0,0,0,1.29-.84,3.23,3.23,0,0,0,.78-1h.57Z"/><path d="M270.44,238.77l-.87.07a1.54,1.54,0,0,0-.34-.75,1.15,1.15,0,0,0-.87-.38,1.19,1.19,0,0,0-.74.24,2,2,0,0,0-.66.88,4.72,4.72,0,0,0-.24,1.65,2,2,0,0,1,.77-.71,2.07,2.07,0,0,1,1-.24,2,2,0,0,1,1.5.65,2.33,2.33,0,0,1,.62,1.67,2.77,2.77,0,0,1-.29,1.25,2.11,2.11,0,0,1-.8.89,2.13,2.13,0,0,1-1.15.31,2.27,2.27,0,0,1-1.8-.81,4.1,4.1,0,0,1-.69-2.66,4.78,4.78,0,0,1,.77-3,2.18,2.18,0,0,1,1.8-.82,2,2,0,0,1,1.38.47A2,2,0,0,1,270.44,238.77Zm-3.59,3.09a2,2,0,0,0,.2.87,1.39,1.39,0,0,0,1.26.85,1.25,1.25,0,0,0,1-.45,1.76,1.76,0,0,0,.4-1.22,1.61,1.61,0,0,0-.4-1.17,1.27,1.27,0,0,0-1-.43,1.32,1.32,0,0,0-1,.43A1.51,1.51,0,0,0,266.85,241.86Z"/><path d="M276,238.77l-.87.07a1.64,1.64,0,0,0-.33-.75,1.17,1.17,0,0,0-.88-.38,1.19,1.19,0,0,0-.74.24,1.94,1.94,0,0,0-.65.88,4.47,4.47,0,0,0-.25,1.65,2,2,0,0,1,.77-.71,2.08,2.08,0,0,1,1-.24,2,2,0,0,1,1.49.65,2.33,2.33,0,0,1,.62,1.67,2.77,2.77,0,0,1-.29,1.25,2,2,0,0,1-.8.89,2.13,2.13,0,0,1-1.15.31,2.25,2.25,0,0,1-1.79-.81,4,4,0,0,1-.7-2.66,4.78,4.78,0,0,1,.77-3A2.2,2.2,0,0,1,274,237a2.07,2.07,0,0,1,1.39.47A2,2,0,0,1,276,238.77Zm-3.59,3.09a2,2,0,0,0,.2.87,1.42,1.42,0,0,0,1.26.85,1.25,1.25,0,0,0,1-.45,1.76,1.76,0,0,0,.4-1.22,1.65,1.65,0,0,0-.39-1.17,1.3,1.3,0,0,0-1-.43,1.34,1.34,0,0,0-1,.43A1.51,1.51,0,0,0,272.41,241.86Z"/><path d="M277,240.65a6.73,6.73,0,0,1,.26-2.05,2.64,2.64,0,0,1,.78-1.19,2,2,0,0,1,1.3-.42,2.18,2.18,0,0,1,1,.23,2,2,0,0,1,.72.67,4,4,0,0,1,.44,1.06,7,7,0,0,1,.16,1.7,6.34,6.34,0,0,1-.26,2,2.58,2.58,0,0,1-.77,1.2,2.19,2.19,0,0,1-2.93-.32A4.75,4.75,0,0,1,277,240.65Zm.91,0a4.43,4.43,0,0,0,.41,2.34,1.21,1.21,0,0,0,1,.59,1.23,1.23,0,0,0,1-.59,6.91,6.91,0,0,0,0-4.69,1.23,1.23,0,0,0-1-.58,1.12,1.12,0,0,0-1,.51A4.56,4.56,0,0,0,277.91,240.65Z"/><path d="M285.66,244.18V237h.95v3.55l3.55-3.55h1.29l-3,2.9,3.14,4.26h-1.25l-2.55-3.63-1.17,1.15v2.48Z"/><path d="M293.07,244.18h-.82V237h.88v2.55a1.76,1.76,0,0,1,1.42-.7,2.19,2.19,0,0,1,.91.2,1.79,1.79,0,0,1,.7.54,2.38,2.38,0,0,1,.43.84,3.32,3.32,0,0,1,.16,1.06,3,3,0,0,1-.66,2.06,2.08,2.08,0,0,1-1.58.72,1.65,1.65,0,0,1-1.44-.76Zm0-2.64a2.66,2.66,0,0,0,.25,1.35,1.26,1.26,0,0,0,2.12.18,2.26,2.26,0,0,0,.42-1.49,2.3,2.3,0,0,0-.4-1.5,1.24,1.24,0,0,0-2,0A2.17,2.17,0,0,0,293.06,241.54Z"/><path d="M297.82,244.18V237h.88v2.57a2,2,0,0,1,1.55-.72,2.11,2.11,0,0,1,1,.23,1.33,1.33,0,0,1,.61.63,2.93,2.93,0,0,1,.18,1.16v3.29h-.88v-3.29a1.36,1.36,0,0,0-.28-1,1.06,1.06,0,0,0-.81-.3,1.43,1.43,0,0,0-.73.2,1.2,1.2,0,0,0-.5.55,2.71,2.71,0,0,0-.14,1v2.84Z"/><rect x="173.1" y="140.73" width="13.03" height="14.33" rx="3.16"/><rect x="174.26" y="153.76" width="2.18" height="3.97" rx="0.68"/><rect x="182.51" y="154.14" width="2.18" height="3.52" rx="0.64"/><path class="cls-4" d="M176.48,142h6.38a2,2,0,0,1,2,2v4.55a0,0,0,0,1,0,0H174.4a0,0,0,0,1,0,0v-4.44A2.08,2.08,0,0,1,176.48,142Z"/><rect class="cls-4" x="174.4" y="151.15" width="2.61" height="1.3"/><rect class="cls-4" x="182.22" y="151.15" width="2.61" height="1.3"/><path d="M484.38,155.27h-225V130.78l-68,3.49,68-29.48V78.27h225Z"/><path class="cls-4" d="M297.41,113.31c0,3.06-.76,4-3.32,4h-2.45v-4.56h-1.58l.78-1.82h.8v-9.67h2.45c2.56,0,3.32.72,3.32,3.37v3.22c0,1.78-.3,2.84-1.18,3.52h1.18Zm-1.94-8.94c0-1-.24-1.23-1.31-1.23h-.54v7.79h.47c1,0,1.38-1,1.38-3.1Zm0,8.38h-1.85v2.7h.54c1.07,0,1.31-.24,1.31-1.22Z"/><path class="cls-4" d="M307.36,101.28v13.19c0,2.52-1.54,3.08-2.9,3.08s-2.86-.64-2.86-3.08V101.28h2v13.35c0,.84.3,1.1.9,1.1s.9-.24.9-1.1V101.28Z"/><path class="cls-4" d="M316.76,113.93c0,2.56-.48,4.28-5.26,3.32v-1.9c2.9.64,3.28,0,3.28-1.22v-1.4H311.5v-8.08c0-2.57.5-4.29,5.26-3.33v1.91c-2.9-.65-3.28,0-3.28,1.22V111h3.28Z"/><path class="cls-4" d="M326,113.93c0,2.56-.48,4.28-5.26,3.32v-1.9c2.9.64,3.28,0,3.28-1.22v-1.4H320.7v-8.08c0-2.57.5-4.29,5.26-3.33v1.91c-2.9-.65-3.28,0-3.28,1.22V111H326Z"/><path class="cls-4" d="M331.92,114.15c0,1.22.38,1.86,3.28,1.22v1.9c-4.76,1-5.26-.76-5.26-3.32v-9.32c0-2.57.5-4.27,5.26-3.33v1.9c-2.9-.64-3.28,0-3.28,1.23v6.5h2.89v1.82h-2.89Z"/><path class="cls-4" d="M341.68,101.26c2.56,0,3.33.72,3.33,3.37v3.22c0,1.78-.31,2.84-1.19,3.52H345v3.28c0,2.12.76,2.66.76,2.66h-1.95s-.76-.26-.76-2.66v-1.9h-1.84v4.56h-2v-16Zm-.46,1.88v7.79h.46c1,0,1.38-1,1.38-3.1v-3.46c0-1-.24-1.23-1.3-1.23Z"/><path class="cls-4" d="M357.74,117.31H355.8v-16h1.94Z"/><path class="cls-4" d="M374.56,114.65c0,2.12.76,2.66.76,2.66h-1.94s-.76-.26-.76-2.66V104c0-.64-.34-1-.92-1s-.92.41-.92,1v13.32h-2v-16h2v.68s.32-.78,1.64-.78,2.14.56,2.14,3.23Z"/><path class="cls-4" d="M384.54,114.15c0,1.22.38,1.86,3.28,1.22v1.9c-4.76,1-5.26-.76-5.26-3.32v-1.22h-1.82v4.58h-2V104.13c0-2.45,1.36-3.09,2.86-3.09a3,3,0,0,1,1.82.48c.72-.56,2.06-.76,4.38-.3v1.9c-2.9-.64-3.28,0-3.28,1.23v6.56h2.9v1.82h-2.9Zm-3.8-3.24h1.82v-7.1c0-.87-.34-1.11-.92-1.11s-.9.26-.9,1.11Z"/><path class="cls-4" d="M394.24,101.26c2.56,0,3.32.72,3.32,3.37v3.22c0,1.78-.3,2.84-1.18,3.52h1.18v3.28c0,2.12.76,2.66.76,2.66h-1.94s-.76-.26-.76-2.66v-1.9h-1.84v4.56h-2v-16Zm-.46,1.88v7.79h.46c1,0,1.38-1,1.38-3.1v-3.46c0-1-.24-1.23-1.3-1.23Z"/><path class="cls-4" d="M401.88,101.26h2v9.67h1.84v-9.67h1.94v16H405.7v-4.56h-1.84v4.56h-2Z"/><path class="cls-4" d="M414,114.15c0,1.22.38,1.86,3.28,1.22v1.9c-4.76,1-5.26-.76-5.26-3.32v-9.32c0-2.57.5-4.27,5.26-3.33v1.9c-2.9-.64-3.28,0-3.28,1.23v6.5h2.88v1.82H414Z"/><path class="cls-4" d="M421.32,101.26h2.44c2.56,0,3.32,1,3.32,4v8c0,3.06-.76,4-3.32,4h-2.44Zm3.82,3.11c0-1-.22-1.23-1.3-1.23h-.54v12.31h.54c1.08,0,1.3-.24,1.3-1.22Z"/><path class="cls-4" d="M433.26,114.15c0,1.22.38,1.86,3.28,1.22v1.9c-4.76,1-5.26-.76-5.26-3.32v-9.32c0-2.57.5-4.27,5.26-3.33v1.9c-2.9-.64-3.28,0-3.28,1.23v6.5h2.88v1.82h-2.88Z"/><path class="cls-4" d="M446.34,114.65c0,2.12.76,2.66.76,2.66h-1.94s-.76-.26-.76-2.66V104c0-.64-.34-1-.92-1s-.92.41-.92,1v13.32h-2v-16h2v.68s.32-.78,1.64-.78,2.14.56,2.14,3.23Z"/><path class="cls-1" d="M367.68,139.62v1.69h-9.46a3,3,0,0,1,.2-1.22,6.48,6.48,0,0,1,1.16-1.91,18,18,0,0,1,2.3-2.16,19.76,19.76,0,0,0,3.15-3,3.59,3.59,0,0,0,.82-2.11,2.35,2.35,0,0,0-.74-1.76,3,3,0,0,0-4,0,2.89,2.89,0,0,0-.78,2.11l-1.8-.19a4.48,4.48,0,0,1,1.39-3.08,4.82,4.82,0,0,1,3.26-1.06,4.51,4.51,0,0,1,3.26,1.15,3.74,3.74,0,0,1,1.2,2.83,4.41,4.41,0,0,1-.35,1.69,7,7,0,0,1-1.17,1.75,27.8,27.8,0,0,1-2.71,2.51c-1.05.89-1.73,1.49-2,1.81a5.21,5.21,0,0,0-.74,1Z"/><path class="cls-1" d="M369.57,137.53l1.76-.24a3.9,3.9,0,0,0,1,2.16,2.56,2.56,0,0,0,1.77.66,2.86,2.86,0,0,0,2.1-.86,2.92,2.92,0,0,0,.85-2.13,2.7,2.7,0,0,0-.79-2,2.75,2.75,0,0,0-2-.78,5,5,0,0,0-1.24.19l.19-1.54.29,0a3.62,3.62,0,0,0,2-.59,2,2,0,0,0,.9-1.81,2.14,2.14,0,0,0-.66-1.6,2.33,2.33,0,0,0-1.69-.63,2.36,2.36,0,0,0-1.7.64,3.23,3.23,0,0,0-.88,1.94l-1.76-.32a4.53,4.53,0,0,1,1.46-2.74,4.3,4.3,0,0,1,2.85-1,4.58,4.58,0,0,1,2.15.51,3.59,3.59,0,0,1,1.51,1.37,3.49,3.49,0,0,1,.52,1.84,3,3,0,0,1-.49,1.69,3.46,3.46,0,0,1-1.48,1.21,3.28,3.28,0,0,1,2,1.22,3.72,3.72,0,0,1,.71,2.31,4.24,4.24,0,0,1-1.37,3.18,4.8,4.8,0,0,1-3.46,1.3,4.5,4.5,0,0,1-3.13-1.12A4.36,4.36,0,0,1,369.57,137.53Z"/><line class="cls-9" x1="281.51" y1="123.33" x2="452.71" y2="123.33"/></g></svg>