<svg xmlns="http://www.w3.org/2000/svg" xmlns:xlink="http://www.w3.org/1999/xlink" width="497" height="407" xmlns:v="https://vecta.io/nano"><path d="M.38.27h496v407H.38z" fill="#fcebe6"/><path d="M477.38 101.27l-94 76 38 50 56 73.1-47 47.08 16 29.82L497 342.14V131.25l-19.62-29.98zM0 231.39l27.38-12.12 7.03-20 21.23 3.5 18.74-6.5 25.69-22.82h19.23l61.68-34.08 35.4-7.1v24.18L80.84 228.02l-12.6 20.43-20.86 5.82-14 22-8-21L0 268.53v-37.14zM241.38 94.27l11.88 45.1 44.44-22.55 9.68 3.45 11.54-3.45v-9.44l13.26-6.11 6.2 9 19-13-7-12 54-27h28.61l17.39-24 21 4 25.62-7.3L493.87.8l-180.95.47 18.59 21.93 41.47-7.83 15.79 27.4-44.38 14.72-47.01 23.45-56 13.33z" fill="#f2deda"/><path d="M120.89 1.27l8.49 85h15.61l-5.25-85h-18.85zm81.42 0l3.07 25h11.33l-11.33 10h-12.91v11.35h-31.08l2.79 38.65h38.13V75.51h10.51v21.68l48.6-7.69-3.1-23.03-12.45-65.2h-43.56zM73.4 405.86l25.84.74 117.14-89.48 37.18-27.31 60.82-55.54 78-71 47.81-34.65-6.81-13.35-127.45 112.75-53.55 44.25-36 35.1-49 36.9-63 45-30.98 16.59zm100.98-170.59v30.9h34.49l-2.8-30.9h-31.69z" fill="#d3e9d8"/><path d="M384.81 221.29v-10h2v4.45l4.08-4.45h2.73l-3.78 3.9 4 6.12h-2.62l-2.75-4.7-1.64 1.67v3zm17.54-9.29l1.08-1.21.95.84-1.14 1.28a4.76 4.76 0 0 1 .71 1.52 6.89 6.89 0 0 1 .25 1.91 5.17 5.17 0 0 1-1.32 3.75 4.59 4.59 0 0 1-3.49 1.37 4.83 4.83 0 0 1-3-.85l-1.11 1.24-1-.84 1.17-1.32a5.6 5.6 0 0 1-1-3.47 5.2 5.2 0 0 1 1.32-3.75 4.67 4.67 0 0 1 3.52-1.37 4.91 4.91 0 0 1 3.06.9zm-1.26 1.41a2.61 2.61 0 0 0-1.75-.59 2.57 2.57 0 0 0-2 .86 3.8 3.8 0 0 0-.77 2.59 5 5 0 0 0 .32 1.86zm.74 1.07l-4.2 4.73a2.48 2.48 0 0 0 1.7.61 2.53 2.53 0 0 0 2-.88 3.81 3.81 0 0 0 .79-2.63 5 5 0 0 0-.29-1.83zm3.95-3.21h3.7a7.05 7.05 0 0 1 1.9.19 3.38 3.38 0 0 1 1.52.93 4.48 4.48 0 0 1 1 1.62 7.36 7.36 0 0 1 .33 2.37 6.47 6.47 0 0 1-.31 2.13 4.44 4.44 0 0 1-1.07 1.77 3.6 3.6 0 0 1-1.42.8 6.22 6.22 0 0 1-1.79.21h-3.81zm2 1.7v6.63h1.51a5.89 5.89 0 0 0 1.23-.09 1.79 1.79 0 0 0 .81-.42 2 2 0 0 0 .53-1 6.33 6.33 0 0 0 .21-1.83 5.9 5.9 0 0 0-.21-1.79 2.25 2.25 0 0 0-.57-1 2 2 0 0 0-.94-.47 9.67 9.67 0 0 0-1.66-.09zm8.12-1.7h4a11 11 0 0 1 1.77.1 2.68 2.68 0 0 1 1.05.41 2.6 2.6 0 0 1 .77.84 2.32 2.32 0 0 1 .31 1.17 2.4 2.4 0 0 1-.38 1.3 2.45 2.45 0 0 1-1 .88 2.6 2.6 0 0 1 1.41.91 2.44 2.44 0 0 1 .49 1.51 3 3 0 0 1-.32 1.33 2.66 2.66 0 0 1-.87 1 2.86 2.86 0 0 1-1.36.47l-2.44.07h-3.43zm2 1.67v2.32h1.32a14.12 14.12 0 0 0 1.47 0 1.33 1.33 0 0 0 .82-.36 1.06 1.06 0 0 0 .3-.78 1.09 1.09 0 0 0-.26-.75 1.14 1.14 0 0 0-.76-.36h-1.73zm0 4v2.68h1.87a9.45 9.45 0 0 0 1.39-.06 1.23 1.23 0 0 0 .73-.4 1.22 1.22 0 0 0 .29-.85 1.34 1.34 0 0 0-.22-.76 1.23 1.23 0 0 0-.64-.46 6.52 6.52 0 0 0-1.79-.15zm10.74 4.35v-4.22l-3.67-5.8h2.37l2.36 4 2.31-4h2.33l-3.69 5.82v4.2zm6.7 0v-10h7.43V213h-5.4v2.22h5v1.69h-5v2.72H443v1.69zm9.36 0v-10h2l4.1 6.69v-6.69h1.88v10h-2l-4-6.53v6.53zm-393.92-58l-3.58-10h2.2l2.53 7.42 2.46-7.42h2.14l-3.59 10zm6.78 0v-10H65V155h-5.41v2.22h5v1.69h-5v2.72h5.6v1.69zm8.83-3.29l2-.19a2.44 2.44 0 0 0 .72 1.46 2.18 2.18 0 0 0 1.47.46 2.28 2.28 0 0 0 1.47-.41 1.25 1.25 0 0 0 .5-1 .88.88 0 0 0-.21-.6 1.6 1.6 0 0 0-.73-.44 27.32 27.32 0 0 0-1.62-.44 5.44 5.44 0 0 1-2.28-1 2.59 2.59 0 0 1-.93-2 2.62 2.62 0 0 1 .44-1.44 2.69 2.69 0 0 1 1.25-1 5 5 0 0 1 2-.35 4.24 4.24 0 0 1 2.84.83 2.88 2.88 0 0 1 1 2.21l-2 .08a1.73 1.73 0 0 0-.56-1.11 2.06 2.06 0 0 0-1.28-.33 2.31 2.31 0 0 0-1.38.36.71.71 0 0 0-.32.62.77.77 0 0 0 .3.61 5.27 5.27 0 0 0 1.86.67 9.61 9.61 0 0 1 2.18.72 2.88 2.88 0 0 1 1.11 1 3.15 3.15 0 0 1-.08 3.21 2.85 2.85 0 0 1-1.35 1.11 5.58 5.58 0 0 1-2.18.37 4.32 4.32 0 0 1-2.92-.88 3.8 3.8 0 0 1-1.3-2.52zm12.11 3.29V155h-3v-1.7h8v1.7h-3v8.32zm6.29 0v-10h7.43V155h-5.4v2.22h5v1.69h-5v2.72h5.59v1.69zm9.35 0v-10h4.26a7.28 7.28 0 0 1 2.33.27 2.33 2.33 0 0 1 1.17 1 2.9 2.9 0 0 1 .43 1.58 2.68 2.68 0 0 1-.66 1.86 3.19 3.19 0 0 1-2 .93 4.55 4.55 0 0 1 1.08.84 11.09 11.09 0 0 1 1.15 1.63l1.23 1.95h-2.42l-1.47-2.18a14.16 14.16 0 0 0-1.06-1.47 1.68 1.68 0 0 0-.61-.42 3.5 3.5 0 0 0-1-.11h-.41v4.18zm2-5.78h1.5a8 8 0 0 0 1.82-.12 1.11 1.11 0 0 0 .54-.39 1.28 1.28 0 0 0 .21-.75 1.21 1.21 0 0 0-.27-.82 1.32 1.32 0 0 0-.76-.39H97.7h-1.54zm8.11-4.24h4a11.09 11.09 0 0 1 1.78.1 2.58 2.58 0 0 1 1 .41 2.5 2.5 0 0 1 .77.84 2.23 2.23 0 0 1 .31 1.17 2.37 2.37 0 0 1-1.41 2.18 2.66 2.66 0 0 1 1.41.91 2.38 2.38 0 0 1 .49 1.51 2.89 2.89 0 0 1-.32 1.33 2.72 2.72 0 0 1-.86 1 2.86 2.86 0 0 1-1.36.47l-2.44.07h-3.41zm2 1.67v2.32h1.33a14.12 14.12 0 0 0 1.47 0 1.3 1.3 0 0 0 .81-.36 1.06 1.06 0 0 0 .3-.78 1.08 1.08 0 0 0-.25-.75 1.17 1.17 0 0 0-.77-.36h-1.73zm0 4v2.68h1.87a9.36 9.36 0 0 0 1.39-.06 1.26 1.26 0 0 0 .74-.4 1.21 1.21 0 0 0 .28-.85 1.26 1.26 0 0 0-.22-.76 1.16 1.16 0 0 0-.63-.46 6.61 6.61 0 0 0-1.8-.15zm8.11 4.35v-10h4.26a7.24 7.24 0 0 1 2.33.27 2.33 2.33 0 0 1 1.17 1 2.9 2.9 0 0 1 .43 1.58 2.68 2.68 0 0 1-.66 1.86 3.19 3.19 0 0 1-2 .93 4.55 4.55 0 0 1 1.08.84 11.09 11.09 0 0 1 1.15 1.63l1.23 1.95H121l-1.47-2.18a12.74 12.74 0 0 0-1.06-1.47 1.68 1.68 0 0 0-.61-.42 3.5 3.5 0 0 0-1-.11h-.41v4.18zm2-5.78h1.5a7.94 7.94 0 0 0 1.82-.12 1.11 1.11 0 0 0 .56-.43 1.28 1.28 0 0 0 .21-.75 1.21 1.21 0 0 0-.27-.82 1.29 1.29 0 0 0-.76-.39h-1.48-1.58zm7.69.83a6.32 6.32 0 0 1 .46-2.57 4.74 4.74 0 0 1 .93-1.37 3.81 3.81 0 0 1 1.3-.9 5.37 5.37 0 0 1 2.16-.4 4.72 4.72 0 0 1 3.54 1.37 6.14 6.14 0 0 1 0 7.62 4.63 4.63 0 0 1-3.52 1.37 4.72 4.72 0 0 1-3.56-1.36 5.18 5.18 0 0 1-1.31-3.76zm2.09-.06a3.79 3.79 0 0 0 .78 2.58 2.58 2.58 0 0 0 2 .87 2.51 2.51 0 0 0 2-.87 4.77 4.77 0 0 0 0-5.18 2.8 2.8 0 0 0-4 0 3.78 3.78 0 0 0-.78 2.6z" fill="#cc7b62"/><path d="M207.68 46.59l1.4-.14a1.71 1.71 0 0 0 .52 1 1.53 1.53 0 0 0 1.05.34 1.6 1.6 0 0 0 1-.3.9.9 0 0 0 .35-.69.64.64 0 0 0-.15-.43 1.19 1.19 0 0 0-.52-.31c-.17-.06-.55-.16-1.15-.31a4 4 0 0 1-1.63-.71 1.88 1.88 0 0 1-.66-1.44 1.83 1.83 0 0 1 .31-1 2 2 0 0 1 .89-.72 3.52 3.52 0 0 1 1.41-.25 3.05 3.05 0 0 1 2 .59 2.08 2.08 0 0 1 .71 1.58l-1.44.06a1.27 1.27 0 0 0-.4-.79 1.47 1.47 0 0 0-.92-.24 1.57 1.57 0 0 0-1 .26.49.49 0 0 0-.23.44.54.54 0 0 0 .21.43 3.56 3.56 0 0 0 1.33.48 7.16 7.16 0 0 1 1.56.52 1.92 1.92 0 0 1 .79.73 2.1 2.1 0 0 1 .29 1.14 2.17 2.17 0 0 1-.34 1.15 2.08 2.08 0 0 1-1 .8 4.17 4.17 0 0 1-1.56.26 3.08 3.08 0 0 1-2.08-.63 2.7 2.7 0 0 1-.74-1.82zm6.97 2.33v-7.16H216v3.8l1.6-1.83h1.69l-1.77 1.9 1.9 3.29H218l-1.3-2.33-.64.67v1.66zm4.96-5.19h1.47l1.24 3.69 1.21-3.69H225l-1.83 5-.33.9a3.62 3.62 0 0 1-.35.69 1.38 1.38 0 0 1-.37.39 1.55 1.55 0 0 1-.52.23 2.54 2.54 0 0 1-.7.08 3.33 3.33 0 0 1-.78-.08l-.12-1.07a3.17 3.17 0 0 0 .58.06.86.86 0 0 0 .71-.28 2 2 0 0 0 .35-.72zm10.97 5.19h-1.27v-.76a2 2 0 0 1-.75.66 1.87 1.87 0 0 1-.87.22 2 2 0 0 1-1.53-.72 3.52 3.52 0 0 1 0-4 2 2 0 0 1 1.57-.68 2 2 0 0 1 1.5.72v-2.6h1.37zm-3.66-2.7a2.42 2.42 0 0 0 .23 1.2 1 1 0 0 0 .93.53 1 1 0 0 0 .8-.4 1.81 1.81 0 0 0 .33-1.2 2 2 0 0 0-.32-1.29 1 1 0 0 0-.82-.39 1 1 0 0 0-.82.39 1.73 1.73 0 0 0-.33 1.16zm8.02 1.05l1.36.23a2.19 2.19 0 0 1-.83 1.14 2.38 2.38 0 0 1-1.42.4 2.32 2.32 0 0 1-2-.89 2.89 2.89 0 0 1-.52-1.78 2.85 2.85 0 0 1 .68-2 2.21 2.21 0 0 1 1.7-.73 2.31 2.31 0 0 1 1.83.76 3.36 3.36 0 0 1 .64 2.34h-3.44a1.38 1.38 0 0 0 .33 1 1 1 0 0 0 .79.34.9.9 0 0 0 .55-.17 1.2 1.2 0 0 0 .33-.64zm.08-1.39a1.33 1.33 0 0 0-.31-.9 1 1 0 0 0-1.46.01 1.32 1.32 0 0 0-.29.89zm2.42 3.04v-7.16h1.37v2.58a1.93 1.93 0 0 1 1.5-.72 2 2 0 0 1 1.57.68 2.87 2.87 0 0 1 .62 2 3 3 0 0 1-.63 2 2 2 0 0 1-1.54.72 2 2 0 0 1-.87-.22 2.13 2.13 0 0 1-.75-.66v.76zm1.36-2.7a2.22 2.22 0 0 0 .25 1.19 1.1 1.1 0 0 0 .95.59 1 1 0 0 0 .77-.38 1.88 1.88 0 0 0 .33-1.23 2 2 0 0 0-.33-1.28 1 1 0 0 0-.82-.39 1 1 0 0 0-.82.38 1.76 1.76 0 0 0-.33 1.12zm5.83-.9l-1.25-.23a2 2 0 0 1 .73-1.11 2.64 2.64 0 0 1 1.52-.36 3.41 3.41 0 0 1 1.37.21 1.35 1.35 0 0 1 .63.56 2.84 2.84 0 0 1 .18 1.22v1.61a6 6 0 0 0 .06 1 3.3 3.3 0 0 0 .25.7h-1.36c0-.09-.08-.23-.13-.4a1.34 1.34 0 0 0-.05-.17 2.47 2.47 0 0 1-.75.52 2.22 2.22 0 0 1-.83.13 1.78 1.78 0 0 1-1.27-.44 1.55 1.55 0 0 1-.25-1.88 1.45 1.45 0 0 1 .59-.53 4.67 4.67 0 0 1 1.09-.32 8.24 8.24 0 0 0 1.34-.33v-.1a.7.7 0 0 0-.2-.56 1.13 1.13 0 0 0-.74-.17.81.81 0 0 0-.9.65zm1.84 1.11a8.34 8.34 0 0 1-.84.21 2.48 2.48 0 0 0-.75.24.58.58 0 0 0-.27.48.7.7 0 0 0 .22.5.75.75 0 0 0 .55.21 1.24 1.24 0 0 0 .71-.24.9.9 0 0 0 .32-.46 2.4 2.4 0 0 0 .06-.67zm7.41 2.49h-1.37v-2.65a3.92 3.92 0 0 0-.09-1.08.8.8 0 0 0-.28-.39.82.82 0 0 0-.48-.13 1.1 1.1 0 0 0-.64.19 1 1 0 0 0-.39.52 4.55 4.55 0 0 0-.1 1.19v2.35h-1.37v-5.19h1.27v.77a2.14 2.14 0 0 1 2.54-.72 1.42 1.42 0 0 1 .57.42 1.5 1.5 0 0 1 .27.57 4.5 4.5 0 0 1 .07.93zm4.4-1.65l1.36.23a2.19 2.19 0 0 1-.83 1.14 2.38 2.38 0 0 1-1.42.4 2.32 2.32 0 0 1-2-.89 2.89 2.89 0 0 1-.52-1.78 2.85 2.85 0 0 1 .68-2 2.21 2.21 0 0 1 1.7-.73 2.31 2.31 0 0 1 1.83.76 3.41 3.41 0 0 1 .64 2.34h-3.44a1.38 1.38 0 0 0 .33 1 1 1 0 0 0 .79.34.85.85 0 0 0 .54-.17 1.13 1.13 0 0 0 .34-.64zm.08-1.39a1.33 1.33 0 0 0-.31-.9 1 1 0 0 0-1.46.01 1.32 1.32 0 0 0-.29.89zm-37.01 7.88v2.63a2 2 0 0 1 1.59-.77 2.11 2.11 0 0 1 .85.17 1.33 1.33 0 0 1 .57.45 1.68 1.68 0 0 1 .27.61 5.16 5.16 0 0 1 .07 1v3h-1.37v-2.67a4.06 4.06 0 0 0-.08-1 .61.61 0 0 0-.28-.35.83.83 0 0 0-.49-.13 1.13 1.13 0 0 0-.61.16 1 1 0 0 0-.4.5 3.16 3.16 0 0 0-.12 1v2.6H220v-7.2zm5.77 3.56l-1.25-.23a1.9 1.9 0 0 1 .73-1.09 2.62 2.62 0 0 1 1.52-.36 3.41 3.41 0 0 1 1.37.21 1.4 1.4 0 0 1 .63.56 2.84 2.84 0 0 1 .18 1.22v1.61a6 6 0 0 0 .06 1 3.3 3.3 0 0 0 .25.7h-1.36a3.8 3.8 0 0 1-.13-.4 1.34 1.34 0 0 0-.05-.17 2.47 2.47 0 0 1-.75.52 2.24 2.24 0 0 1-.86.17 1.77 1.77 0 0 1-1.26-.44 1.43 1.43 0 0 1-.46-1.1 1.47 1.47 0 0 1 .21-.78 1.45 1.45 0 0 1 .59-.53 4.53 4.53 0 0 1 1.09-.32 7.78 7.78 0 0 0 1.33-.33v-.16a.7.7 0 0 0-.19-.56 1.13 1.13 0 0 0-.74-.17 1 1 0 0 0-.57.14 1 1 0 0 0-.34.51zm1.88 1.11a7.36 7.36 0 0 1-.83.21 2.48 2.48 0 0 0-.75.24.58.58 0 0 0-.27.48.66.66 0 0 0 .22.5.73.73 0 0 0 .54.21 1.19 1.19 0 0 0 .71-.24.87.87 0 0 0 .33-.46 2.53 2.53 0 0 0 0-.67zm4.08 2.49L231 55.73h1.44l1 2.65.28.89.14-.45.15-.44 1-2.65h1.41l-2.06 5.19zm7.14-1.65l1.37.23a2.26 2.26 0 0 1-.84 1.14 2.38 2.38 0 0 1-1.42.4 2.32 2.32 0 0 1-2-.89 3 3 0 0 1-.52-1.78 2.85 2.85 0 0 1 .68-2 2.21 2.21 0 0 1 1.7-.73 2.31 2.31 0 0 1 1.83.76 3.41 3.41 0 0 1 .64 2.34h-3.44a1.38 1.38 0 0 0 .33 1 1 1 0 0 0 .79.34.9.9 0 0 0 .55-.17 1.2 1.2 0 0 0 .33-.64zm.08-1.39a1.33 1.33 0 0 0-.3-.88.94.94 0 0 0-.72-.31 1 1 0 0 0-.74.32 1.27 1.27 0 0 0-.28.89zm7.19 3.04h-1.37v-2.65a3.92 3.92 0 0 0-.09-1.08.8.8 0 0 0-.28-.39.84.84 0 0 0-.48-.13 1.1 1.1 0 0 0-.64.19 1 1 0 0 0-.39.52 4.55 4.55 0 0 0-.1 1.19v2.35h-1.37v-5.19H244v.77a2.14 2.14 0 0 1 2.54-.72 1.42 1.42 0 0 1 .57.42 1.5 1.5 0 0 1 .27.57 4.5 4.5 0 0 1 .07.93zM103.78 22.64l1.4-.14a1.74 1.74 0 0 0 .52 1 1.57 1.57 0 0 0 1 .33 1.66 1.66 0 0 0 1-.29.9.9 0 0 0 .35-.7.66.66 0 0 0-.15-.43 1.19 1.19 0 0 0-.52-.31c-.17-.06-.55-.16-1.15-.31a4 4 0 0 1-1.64-.71 1.87 1.87 0 0 1-.65-1.44 1.82 1.82 0 0 1 .31-1 1.91 1.91 0 0 1 .89-.73 3.7 3.7 0 0 1 1.41-.25 3 3 0 0 1 2 .6 2.06 2.06 0 0 1 .71 1.57l-1.44.07a1.25 1.25 0 0 0-.4-.8 1.47 1.47 0 0 0-.92-.24 1.63 1.63 0 0 0-1 .26.5.5 0 0 0-.23.44.56.56 0 0 0 .21.44 4 4 0 0 0 1.33.48 6.72 6.72 0 0 1 1.56.51 2 2 0 0 1 .79.73 2.14 2.14 0 0 1 .29 1.14 2.17 2.17 0 0 1-.34 1.15 2 2 0 0 1-1 .8 4.17 4.17 0 0 1-1.56.26 3.08 3.08 0 0 1-2.08-.63 2.65 2.65 0 0 1-.69-1.8zm8.05-1.28l-1.25-.22a1.93 1.93 0 0 1 .73-1.12 2.64 2.64 0 0 1 1.52-.36 3.22 3.22 0 0 1 1.37.22 1.33 1.33 0 0 1 .63.55 2.86 2.86 0 0 1 .18 1.23v1.6a6.12 6.12 0 0 0 .06 1 3 3 0 0 0 .25.69H114c0-.09-.08-.22-.13-.4a1 1 0 0 0 0-.16 2.27 2.27 0 0 1-.75.51 2.22 2.22 0 0 1-.85.17 1.78 1.78 0 0 1-1.27-.43 1.48 1.48 0 0 1-.46-1.1 1.45 1.45 0 0 1 .21-.78 1.38 1.38 0 0 1 .59-.53 4.67 4.67 0 0 1 1.09-.32 7.54 7.54 0 0 0 1.33-.34v-.14a.7.7 0 0 0-.19-.56 1.2 1.2 0 0 0-.74-.17 1 1 0 0 0-.57.15.92.92 0 0 0-.43.51zm1.83 1.11a7.36 7.36 0 0 1-.83.21 3.25 3.25 0 0 0-.75.24.58.58 0 0 0-.27.49.7.7 0 0 0 .22.5.74.74 0 0 0 .55.21 1.2 1.2 0 0 0 .7-.25.81.81 0 0 0 .33-.45 2.58 2.58 0 0 0 0-.67zm2.05 2.53l1.87-2.67-1.8-2.51h1.68l.92 1.42 1-1.42H121l-1.75 2.46 1.87 2.72h-1.69l-1.05-1.6-1.07 1.6zm5.9-2.7A2.7 2.7 0 0 1 122 21a2.25 2.25 0 0 1 1-1 2.77 2.77 0 0 1 1.38-.34 2.6 2.6 0 0 1 1.93.77 2.64 2.64 0 0 1 .75 1.93 2.67 2.67 0 0 1-.76 1.95 2.59 2.59 0 0 1-1.91.77 3.05 3.05 0 0 1-1.36-.32 2.2 2.2 0 0 1-1-1 3.06 3.06 0 0 1-.42-1.46zm1.41.07a1.72 1.72 0 0 0 .36 1.18 1.2 1.2 0 0 0 1.81 0 1.75 1.75 0 0 0 .36-1.19 1.71 1.71 0 0 0-.36-1.17 1.2 1.2 0 0 0-1.81 0 1.73 1.73 0 0 0-.38 1.18zm4.98-2.59h1.27v.76a2 2 0 0 1 .68-.63 1.79 1.79 0 0 1 .94-.25 2 2 0 0 1 1.53.71 2.86 2.86 0 0 1 .63 2 3 3 0 0 1-.63 2 2 2 0 0 1-1.54.72 1.85 1.85 0 0 1-.78-.17 2.57 2.57 0 0 1-.73-.58v2.61H128zm1.35 2.5a2 2 0 0 0 .35 1.3 1.07 1.07 0 0 0 .84.41 1 1 0 0 0 .8-.38 2 2 0 0 0 .32-1.26 1.88 1.88 0 0 0-.33-1.21 1 1 0 0 0-.81-.39 1.07 1.07 0 0 0-.83.38 1.7 1.7 0 0 0-.34 1.15zm5.82-.92l-1.25-.22a1.93 1.93 0 0 1 .73-1.12 2.64 2.64 0 0 1 1.52-.36 3.22 3.22 0 0 1 1.37.22 1.33 1.33 0 0 1 .63.55 2.86 2.86 0 0 1 .18 1.23v1.6a6.12 6.12 0 0 0 .06 1 3 3 0 0 0 .25.69h-1.36c0-.09-.08-.22-.13-.4a1 1 0 0 0 0-.16 2.27 2.27 0 0 1-.75.51 2.22 2.22 0 0 1-.85.17 1.78 1.78 0 0 1-1.27-.43 1.48 1.48 0 0 1-.46-1.1 1.45 1.45 0 0 1 .21-.78 1.38 1.38 0 0 1 .59-.53 4.67 4.67 0 0 1 1.09-.32 7.54 7.54 0 0 0 1.33-.34v-.14a.7.7 0 0 0-.19-.56 1.2 1.2 0 0 0-.74-.17 1 1 0 0 0-.57.15.92.92 0 0 0-.39.51zm1.83 1.11a7.36 7.36 0 0 1-.83.21 3.25 3.25 0 0 0-.75.24.58.58 0 0 0-.27.49.7.7 0 0 0 .22.5.74.74 0 0 0 .55.21 1.2 1.2 0 0 0 .7-.25.81.81 0 0 0 .33-.45 2.58 2.58 0 0 0 .05-.67zm4 2.53h-1.37v-5.22h1.27v.74a2.15 2.15 0 0 1 .59-.69 1.07 1.07 0 0 1 .59-.17 1.8 1.8 0 0 1 .91.26l-.43 1.2a1.22 1.22 0 0 0-.64-.23.78.78 0 0 0-.49.16 1.1 1.1 0 0 0-.32.57 8.81 8.81 0 0 0-.11 1.74zm2.55 0v-7.19h1.37v3.8l1.61-1.83h1.69l-1.78 1.89 1.9 3.29h-1.48l-1.3-2.32-.64.66V25zm216.31 37.71l-2.62-5.09.67-.34 2.63 5.09zm.97-1.89l.56-.41a1 1 0 0 0 .59.42 1.11 1.11 0 0 0 .76-.15 1.09 1.09 0 0 0 .55-.5.59.59 0 0 0 0-.52.43.43 0 0 0-.36-.24 3.25 3.25 0 0 0-.75.12 6.75 6.75 0 0 1-1.1.19 1.06 1.06 0 0 1-.59-.14 1.15 1.15 0 0 1-.39-.43 1.13 1.13 0 0 1-.12-.51 1 1 0 0 1 .13-.51 1.57 1.57 0 0 1 .3-.39 2.34 2.34 0 0 1 .5-.35 2.43 2.43 0 0 1 .83-.27 1.16 1.16 0 0 1 .66.09 1.63 1.63 0 0 1 .51.46l-.57.4a.77.77 0 0 0-.47-.32 1 1 0 0 0-.65.13 1.11 1.11 0 0 0-.54.46.47.47 0 0 0 0 .43.37.37 0 0 0 .19.18.63.63 0 0 0 .32 0l.64-.12a7.89 7.89 0 0 1 1.07-.19 1 1 0 0 1 .58.11 1.07 1.07 0 0 1 .43.46 1.31 1.31 0 0 1 .12.68 1.34 1.34 0 0 1-.31.7 2 2 0 0 1-.7.55 1.93 1.93 0 0 1-1.25.27 1.54 1.54 0 0 1-.94-.6zm5.44-2.12l.38.5a2.88 2.88 0 0 1-.44.3 1.19 1.19 0 0 1-.59.17.7.7 0 0 1-.41-.15 2.42 2.42 0 0 1-.45-.7l-1.1-2.12-.46.24-.25-.49.46-.23-.47-.92.43-.69.63 1.29.63-.33.25.49-.63.32 1.12 2.16a1.05 1.05 0 0 0 .21.32.24.24 0 0 0 .17.07.6.6 0 0 0 .23-.06zm2.82-2.25l.68-.25a1.72 1.72 0 0 1-.11 1.17 2 2 0 0 1-.89.86 1.89 1.89 0 0 1-1.54.16 2.19 2.19 0 0 1-1.2-1.15 2.25 2.25 0 0 1-.26-1.69 1.93 1.93 0 0 1 2.44-1.28 2.25 2.25 0 0 1 1.2 1.18.93.93 0 0 1 .08.17L366.74 57a1.61 1.61 0 0 0 .83.76 1.13 1.13 0 0 0 .93-.08 1.11 1.11 0 0 0 .5-.48 1.36 1.36 0 0 0 .09-.75zm-2.58 0l2.06-1.06a1.46 1.46 0 0 0-.59-.58 1.11 1.11 0 0 0-1 0 1.14 1.14 0 0 0-.58.66 1.29 1.29 0 0 0 .11 1.03zm7.01-.78l-.24-.46a1.29 1.29 0 0 1-.75 1.08 1.57 1.57 0 0 1-.93.17 1.8 1.8 0 0 1-.93-.38 2.75 2.75 0 0 1-.72-.9 2.89 2.89 0 0 1-.33-1.1 1.6 1.6 0 0 1 .2-1 1.55 1.55 0 0 1 .7-.66 1.35 1.35 0 0 1 .66-.17 1.42 1.42 0 0 1 .62.15l-.95-1.83.63-.32 2.62 5.09zm-2.92-.82a1.77 1.77 0 0 0 .84.9 1 1 0 0 0 1.41-.69 1.69 1.69 0 0 0-.24-1.17 1.89 1.89 0 0 0-.87-1 1 1 0 0 0-1.42.71 1.85 1.85 0 0 0 .28 1.25zm4.53.38l.65-.22a.67.67 0 0 0 .42.3 1.22 1.22 0 0 0 .73-.16 1.25 1.25 0 0 0 .58-.52 1 1 0 0 0 .07-.65 5.26 5.26 0 0 0-.37-.82 1.48 1.48 0 0 1-.77 1 1.58 1.58 0 0 1-1.46.06 2.41 2.41 0 0 1-1.1-1.11 2.79 2.79 0 0 1-.31-1.07 1.65 1.65 0 0 1 .2-1 1.69 1.69 0 0 1 .73-.69 1.47 1.47 0 0 1 1.34 0l-.22-.45.57-.29 1.65 3.18a3.58 3.58 0 0 1 .45 1.31 1.45 1.45 0 0 1-.29.9 2.22 2.22 0 0 1-.83.69 2 2 0 0 1-1.22.25 1.13 1.13 0 0 1-.82-.71zm-.63-2.48a1.8 1.8 0 0 0 .84.91 1.07 1.07 0 0 0 1.44-.74 1.75 1.75 0 0 0-.24-1.19 1.72 1.72 0 0 0-.83-.87 1 1 0 0 0-1.44.73 1.75 1.75 0 0 0 .23 1.16zm6.71-1.62a2.59 2.59 0 0 1-.45.76 2.5 2.5 0 0 1-.63.48 1.49 1.49 0 0 1-1.09.18 1.09 1.09 0 0 1-.72-.59 1.21 1.21 0 0 1-.13-.56 1.15 1.15 0 0 1 .14-.52 1.79 1.79 0 0 1 .34-.44l.51-.38a6 6 0 0 0 1-.79 1.11 1.11 0 0 0-.08-.16.75.75 0 0 0-.45-.45 1.55 1.55 0 0 0-1.39.65 1 1 0 0 0 0 .7l-.66.23a1.73 1.73 0 0 1-.05-.77 1.44 1.44 0 0 1 .36-.66 3.12 3.12 0 0 1 .77-.56 2.38 2.38 0 0 1 .83-.28 1.14 1.14 0 0 1 .57.05 1.18 1.18 0 0 1 .42.33 4.84 4.84 0 0 1 .33.56l.43.83a12 12 0 0 0 .6 1.08 1.67 1.67 0 0 0 .39.36l-.65.34a1.7 1.7 0 0 1-.39-.39zm-.77-1.37a4.84 4.84 0 0 1-.9.76 2.53 2.53 0 0 0-.48.41.54.54 0 0 0-.14.33.61.61 0 0 0 .47.66.88.88 0 0 0 .64-.12 1.41 1.41 0 0 0 .56-.49 1.14 1.14 0 0 0 .19-.64 1.81 1.81 0 0 0-.22-.68zm4.94-.21l-.24-.46a1.29 1.29 0 0 1-.74 1.08 1.62 1.62 0 0 1-.94.17 1.73 1.73 0 0 1-.92-.38 2.52 2.52 0 0 1-.72-.9 3.06 3.06 0 0 1-.34-1.09 1.69 1.69 0 0 1 .2-1 1.72 1.72 0 0 1 .7-.66 1.36 1.36 0 0 1 .67-.17 1.57 1.57 0 0 1 .61.15l-.94-1.82.62-.33 2.66 5.11zm-2.92-.82a1.8 1.8 0 0 0 .84.91 1 1 0 0 0 1.41-.69 1.69 1.69 0 0 0-.24-1.17 2 2 0 0 0-.86-1 1 1 0 0 0-1.42.7 1.88 1.88 0 0 0 .27 1.25zm6.4-2.47l.68-.25a1.72 1.72 0 0 1-.11 1.17 2.17 2.17 0 0 1-2.43 1 2.21 2.21 0 0 1-1.2-1.18 2.25 2.25 0 0 1-.26-1.69 1.8 1.8 0 0 1 1-1.15 1.72 1.72 0 0 1 1.46-.12 2.19 2.19 0 0 1 1.2 1.17l.09.17-2.75 1.42a1.58 1.58 0 0 0 .82.75 1.15 1.15 0 0 0 .94-.07 1.06 1.06 0 0 0 .49-.49 1.34 1.34 0 0 0 .07-.73zm-2.57.05l2-1.06a1.35 1.35 0 0 0-.59-.58 1.05 1.05 0 0 0-1 0 1.14 1.14 0 0 0-.58.66 1.3 1.3 0 0 0 .17.98z"/><path d="M388.64 29.3v-10h2v4.45l4.08-4.45h2.73l-3.78 3.91 4 6.12h-2.62l-2.75-4.71-1.64 1.68v3zm17.54-9.3l1.08-1.21.95.83-1.14 1.28a4.76 4.76 0 0 1 .71 1.52 6.94 6.94 0 0 1 .25 1.91 5.21 5.21 0 0 1-1.32 3.76 4.63 4.63 0 0 1-3.49 1.37 4.84 4.84 0 0 1-3-.86l-1.11 1.25-1-.85 1.17-1.31a5.63 5.63 0 0 1-1-3.48 5.16 5.16 0 0 1 1.32-3.74 4.64 4.64 0 0 1 3.52-1.38 4.85 4.85 0 0 1 3.06.91zm-1.26 1.4a2.6 2.6 0 0 0-1.75-.58 2.56 2.56 0 0 0-2 .85 3.82 3.82 0 0 0-.77 2.59 4.88 4.88 0 0 0 .32 1.86zm.74 1.08l-4.2 4.72a2.49 2.49 0 0 0 1.7.62 2.53 2.53 0 0 0 2-.89 3.79 3.79 0 0 0 .79-2.63 5 5 0 0 0-.29-1.81zm3.96-3.21h4a12.36 12.36 0 0 1 1.77.1 2.7 2.7 0 0 1 1.05.42 2.67 2.67 0 0 1 .77.83 2.45 2.45 0 0 1-.07 2.47 2.45 2.45 0 0 1-1 .88 2.59 2.59 0 0 1 1.4.91 2.41 2.41 0 0 1 .5 1.51 3 3 0 0 1-.32 1.33 2.66 2.66 0 0 1-.87 1 2.87 2.87 0 0 1-1.36.48l-2.44.07h-3.41zm2 1.67v2.32H413q1.18 0 1.47 0a1.45 1.45 0 0 0 .82-.36 1.06 1.06 0 0 0 .3-.79 1.09 1.09 0 0 0-.26-.75 1.13 1.13 0 0 0-.76-.35h-1.73zm0 4v2.68h1.87a9.45 9.45 0 0 0 1.39-.06 1.29 1.29 0 0 0 .73-.4 1.26 1.26 0 0 0 .29-.86 1.34 1.34 0 0 0-.22-.76 1.28 1.28 0 0 0-.64-.46 7.13 7.13 0 0 0-1.79-.14zm8.11 4.36v-10h7.43V21h-5.41v2.22h5v1.69h-5v2.73h5.6v1.66zm9.35 0v-10h2l4.1 6.7v-6.7H437v10h-2l-4-6.54v6.54zm10.1 0v-10h2v3.95h4v-3.98h2v10h-2v-4.36h-4v4.39zm19.14 0h-2.2l-.87-2.3h-4l-.83 2.28h-2.14l3.9-10h2.14zm-3.72-4l-1.38-3.72-1.36 3.72zm6.31 4l-3.58-10h2.19l2.54 7.42 2.46-7.42h2.14l-3.59 10zm6.8 0v-10h2l4.1 6.7v-6.7h1.88v10h-2l-4-6.54v6.54zm14.01 0v-10h2v4.45l4.09-4.45h2.72l-3.77 3.91 4 6.12h-2.62l-2.75-4.71-1.65 1.68v3z" fill="#cc7b62"/><path d="M224.24 236.16a22.91 22.91 0 0 0-4.53-10.56c-3.36-4.22-6-4.09-7.55-7.55-2-4.54-.56-11.75 4.53-15.09a12.16 12.16 0 0 1 9.06-1.51c.36.08 6.64 1.53 9.05 7.54s-1 11.35-1.51 12.08c-2 3-3.78 2.9-6 6a17.13 17.13 0 0 0-3.05 9.09z" fill="#bc5e48"/><circle cx="224.24" cy="213.52" r="4.53" fill="#964535"/><path d="M248.31 218v-.86a2.11 2.11 0 0 1-.82.72 2.25 2.25 0 0 1-1.07.26 2 2 0 0 1-1-.25 1.42 1.42 0 0 1-.66-.71 3 3 0 0 1-.21-1.26v-3.61H246V215a7.87 7.87 0 0 0 .08 1.48.84.84 0 0 0 .31.43 1 1 0 0 0 .56.16 1.2 1.2 0 0 0 .69-.22 1.11 1.11 0 0 0 .42-.52 6.5 6.5 0 0 0 .11-1.54v-2.41h1.51V218zm3 0v-7.88h1.59v3.5l3.21-3.5h2.13l-3 3.07 3.16 4.81h-2l-2.17-3.7-1.28 1.32V218zm7.91-6.44v-1.4h1.51v1.4zm0 6.48v-5.71h1.51V218zm4.5-.04h-1.51v-5.71h1.4v.81a2.43 2.43 0 0 1 .65-.75 1.13 1.13 0 0 1 .65-.19 1.92 1.92 0 0 1 1 .29l-.46 1.31a1.36 1.36 0 0 0-.71-.24.83.83 0 0 0-.54.17 1.24 1.24 0 0 0-.35.63 9.44 9.44 0 0 0-.12 1.91zm2.78 0v-7.88h1.5v4.18l1.77-2h1.86l-1.95 2.09 2.08 3.62h-1.62l-1.44-2.57-.7.74V218zm9.5-1.78l1.51.25a2.51 2.51 0 0 1-.92 1.26 2.66 2.66 0 0 1-1.56.43 2.56 2.56 0 0 1-2.21-1 3.29 3.29 0 0 1-.56-2A3.15 3.15 0 0 1 273 213a2.44 2.44 0 0 1 1.88-.81 2.56 2.56 0 0 1 2 .84 3.74 3.74 0 0 1 .7 2.58h-3.78a1.52 1.52 0 0 0 .36 1 1.17 1.17 0 0 0 .87.38.92.92 0 0 0 .6-.2 1.16 1.16 0 0 0 .37-.57zm.09-1.52a1.43 1.43 0 0 0-.34-1 1 1 0 0 0-.78-.34 1.06 1.06 0 0 0-.82.36 1.43 1.43 0 0 0-.32 1z"/><ellipse cx="226.62" cy="211.91" rx="54.75" ry="55.25" fill="none" stroke="#bc5e48"/><path d="M244 232.18V225h2.46a6 6 0 0 1 1.28.1 2.46 2.46 0 0 1 1 .51 2.91 2.91 0 0 1 .84 1.23 4.7 4.7 0 0 1 .28 1.7 4.88 4.88 0 0 1-.19 1.44 3.41 3.41 0 0 1-.49 1.05 2.51 2.51 0 0 1-.65.65 2.75 2.75 0 0 1-.85.35 4.44 4.44 0 0 1-1.15.13zm.94-.85h1.53a3.66 3.66 0 0 0 1.11-.13 1.59 1.59 0 0 0 .64-.37 2.31 2.31 0 0 0 .53-.91 4.6 4.6 0 0 0 .19-1.38 3.36 3.36 0 0 0-.37-1.72 1.92 1.92 0 0 0-.9-.81 3.58 3.58 0 0 0-1.22-.15h-1.51zm9.55.21a3.38 3.38 0 0 1-.94.58 2.61 2.61 0 0 1-1 .17 1.9 1.9 0 0 1-1.31-.41 1.38 1.38 0 0 1-.46-1.07 1.4 1.4 0 0 1 .17-.7 1.46 1.46 0 0 1 .45-.5 2 2 0 0 1 .64-.29 5.14 5.14 0 0 1 .78-.13 9.3 9.3 0 0 0 1.57-.3v-.23a1 1 0 0 0-.25-.76 1.46 1.46 0 0 0-1-.3 1.54 1.54 0 0 0-.92.22 1.32 1.32 0 0 0-.43.77l-.86-.12a2.28 2.28 0 0 1 .38-.89 1.65 1.65 0 0 1 .78-.52 3.28 3.28 0 0 1 1.18-.19 3.24 3.24 0 0 1 1.08.16 1.5 1.5 0 0 1 .61.39 1.38 1.38 0 0 1 .27.6 5 5 0 0 1 0 .81V230a11.54 11.54 0 0 0 .06 1.55 2.06 2.06 0 0 0 .22.63h-.92a2.07 2.07 0 0 1-.1-.64zm-.07-2a7 7 0 0 1-1.44.34 3.64 3.64 0 0 0-.77.17.75.75 0 0 0-.34.29.74.74 0 0 0-.13.41.75.75 0 0 0 .27.59 1.14 1.14 0 0 0 .78.23 1.77 1.77 0 0 0 .9-.22 1.31 1.31 0 0 0 .58-.61 2 2 0 0 0 .15-.87zm2.25 2.64V227h.79v.74a1.87 1.87 0 0 1 1.65-.86 2.2 2.2 0 0 1 .86.17 1.37 1.37 0 0 1 .59.44 1.72 1.72 0 0 1 .27.65 5.4 5.4 0 0 1 .05.86v3.19H260V229a2.32 2.32 0 0 0-.1-.8.85.85 0 0 0-.37-.43 1.17 1.17 0 0 0-.61-.15 1.43 1.43 0 0 0-1 .35 1.77 1.77 0 0 0-.4 1.35v2.84zm5.56 0V227h.77v.74a1.87 1.87 0 0 1 1.65-.86 2.2 2.2 0 0 1 .86.17 1.37 1.37 0 0 1 .59.44 1.72 1.72 0 0 1 .27.65 4.41 4.41 0 0 1 .05.86v3.19h-.88V229a2.32 2.32 0 0 0-.1-.8.88.88 0 0 0-.36-.43 1.24 1.24 0 0 0-.62-.15 1.43 1.43 0 0 0-1 .35 1.77 1.77 0 0 0-.4 1.35v2.84zm9.11-1.67l.91.11a2.22 2.22 0 0 1-.8 1.23 2.35 2.35 0 0 1-1.48.44 2.38 2.38 0 0 1-1.81-.7 2.73 2.73 0 0 1-.66-2 2.84 2.84 0 0 1 .67-2 2.26 2.26 0 0 1 1.75-.73 2.23 2.23 0 0 1 1.7.71 2.81 2.81 0 0 1 .66 2v.24h-3.88a2.05 2.05 0 0 0 .49 1.31 1.44 1.44 0 0 0 1.08.45 1.36 1.36 0 0 0 .83-.25 1.72 1.72 0 0 0 .54-.81zm-2.89-1.42h2.9a1.81 1.81 0 0 0-.33-1 1.38 1.38 0 0 0-1.09-.5 1.39 1.39 0 0 0-1 .4 1.63 1.63 0 0 0-.48 1.1zm5.71 3.09h-.81V225h.88v2.55a1.75 1.75 0 0 1 1.42-.7 2.12 2.12 0 0 1 .9.2 1.72 1.72 0 0 1 .7.54 2.57 2.57 0 0 1 .44.84 3.62 3.62 0 0 1 .15 1.06 3 3 0 0 1-.66 2.06 2.06 2.06 0 0 1-1.58.72 1.65 1.65 0 0 1-1.44-.76zm0-2.64a2.65 2.65 0 0 0 .26 1.35 1.25 1.25 0 0 0 2.11.18 2.21 2.21 0 0 0 .42-1.49 2.3 2.3 0 0 0-.4-1.5 1.23 1.23 0 0 0-1-.48 1.24 1.24 0 0 0-1 .5 2.17 2.17 0 0 0-.4 1.44zm4.74 2.64V227h.79v.79a2.29 2.29 0 0 1 .56-.73 1 1 0 0 1 .57-.18 1.73 1.73 0 0 1 .9.29l-.3.81a1.35 1.35 0 0 0-.65-.19.85.85 0 0 0-.51.17.9.9 0 0 0-.33.49 3.31 3.31 0 0 0-.15 1v2.72zm3.02-2.6a2.64 2.64 0 0 1 .8-2.13 2.43 2.43 0 0 1 1.63-.58 2.37 2.37 0 0 1 1.75.7 2.69 2.69 0 0 1 .67 1.94 3.4 3.4 0 0 1-.3 1.57 2.16 2.16 0 0 1-.87.9 2.55 2.55 0 0 1-1.25.31 2.33 2.33 0 0 1-1.76-.69 2.8 2.8 0 0 1-.67-2.02zm.9 0a2.24 2.24 0 0 0 .43 1.5 1.46 1.46 0 0 0 2.19 0 2.26 2.26 0 0 0 .43-1.52 2.08 2.08 0 0 0-.44-1.45 1.38 1.38 0 0 0-1.08-.5 1.43 1.43 0 0 0-1.1.49 2.21 2.21 0 0 0-.43 1.48zm4.82 3.03l.86.12a.77.77 0 0 0 .3.58 1.45 1.45 0 0 0 .89.24 1.57 1.57 0 0 0 .94-.24 1.21 1.21 0 0 0 .45-.68 5 5 0 0 0 .06-1.13 1.8 1.8 0 0 1-1.43.68 2 2 0 0 1-1.66-.78 3 3 0 0 1-.58-1.85 3.45 3.45 0 0 1 .27-1.37 2.05 2.05 0 0 1 .77-1 2.12 2.12 0 0 1 1.2-.35 1.86 1.86 0 0 1 1.52.75V227h.77v4.48a4.16 4.16 0 0 1-.25 1.72 1.77 1.77 0 0 1-.78.8 2.8 2.8 0 0 1-1.32.29 2.51 2.51 0 0 1-1.5-.42 1.41 1.41 0 0 1-.51-1.26zm.73-3.12a2.25 2.25 0 0 0 .41 1.49 1.28 1.28 0 0 0 1 .47 1.33 1.33 0 0 0 1-.47 2.19 2.19 0 0 0 .41-1.46 2.17 2.17 0 0 0-.42-1.44 1.34 1.34 0 0 0-1-.48 1.27 1.27 0 0 0-1 .48 2.12 2.12 0 0 0-.4 1.41zm4.63 1.14l.87-.14a1.22 1.22 0 0 0 .41.8 1.41 1.41 0 0 0 .94.28 1.31 1.31 0 0 0 .89-.25.71.71 0 0 0 .3-.57.54.54 0 0 0-.26-.47 3.66 3.66 0 0 0-.9-.3 8 8 0 0 1-1.34-.42 1.33 1.33 0 0 1-.57-.5 1.38 1.38 0 0 1-.19-.69 1.27 1.27 0 0 1 .16-.64 1.59 1.59 0 0 1 .43-.5 1.84 1.84 0 0 1 .56-.25 2.68 2.68 0 0 1 .76-.11 2.93 2.93 0 0 1 1.07.18 1.43 1.43 0 0 1 .68.48 1.84 1.84 0 0 1 .31.8l-.86.12a1 1 0 0 0-.34-.63 1.25 1.25 0 0 0-.8-.22 1.38 1.38 0 0 0-.86.2.59.59 0 0 0-.26.47.48.48 0 0 0 .11.3.71.71 0 0 0 .33.24l.78.22a10.39 10.39 0 0 1 1.3.41 1.34 1.34 0 0 1 .58.46 1.28 1.28 0 0 1 .21.75 1.41 1.41 0 0 1-.26.83 1.59 1.59 0 0 1-.74.6 2.68 2.68 0 0 1-1.09.21 2.44 2.44 0 0 1-1.54-.42 2 2 0 0 1-.68-1.24zm5.2 1.98l.86.12a.8.8 0 0 0 .3.58 1.45 1.45 0 0 0 .89.24 1.57 1.57 0 0 0 .94-.24 1.21 1.21 0 0 0 .45-.68 5.41 5.41 0 0 0 .07-1.13 1.84 1.84 0 0 1-1.44.68 2 2 0 0 1-1.66-.78 3 3 0 0 1-.58-1.85 3.45 3.45 0 0 1 .27-1.37 2.13 2.13 0 0 1 .78-1 2.08 2.08 0 0 1 1.19-.35 1.86 1.86 0 0 1 1.52.75V227h.81v4.48a4.16 4.16 0 0 1-.25 1.72 1.77 1.77 0 0 1-.78.8 2.76 2.76 0 0 1-1.31.29 2.47 2.47 0 0 1-1.5-.42 1.41 1.41 0 0 1-.56-1.26zm.73-3.12a2.25 2.25 0 0 0 .41 1.49 1.33 1.33 0 0 0 2 0 2.19 2.19 0 0 0 .41-1.46 2.17 2.17 0 0 0-.42-1.44 1.32 1.32 0 0 0-1-.48 1.28 1.28 0 0 0-1 .48 2.12 2.12 0 0 0-.4 1.41zm8.38 2.05a3.24 3.24 0 0 1-.94.58 2.57 2.57 0 0 1-1 .17 1.9 1.9 0 0 1-1.31-.41 1.38 1.38 0 0 1-.46-1.07 1.51 1.51 0 0 1 .17-.7 1.39 1.39 0 0 1 .46-.5 1.82 1.82 0 0 1 .63-.29 5.14 5.14 0 0 1 .78-.13 9.3 9.3 0 0 0 1.57-.3v-.23a1 1 0 0 0-.25-.76 1.44 1.44 0 0 0-1-.3 1.49 1.49 0 0 0-.91.22 1.27 1.27 0 0 0-.44.77l-.86-.12a2.15 2.15 0 0 1 .39-.89 1.62 1.62 0 0 1 .77-.52 3.28 3.28 0 0 1 1.18-.19 3.24 3.24 0 0 1 1.08.16 1.43 1.43 0 0 1 .61.39 1.38 1.38 0 0 1 .27.6 4.68 4.68 0 0 1 .05.81V230a14.76 14.76 0 0 0 .05 1.55 2.06 2.06 0 0 0 .22.63h-.91a2.08 2.08 0 0 1-.15-.64zm-.07-2a7 7 0 0 1-1.44.34 3.51 3.51 0 0 0-.76.17.77.77 0 0 0-.35.29.73.73 0 0 0-.12.41.77.77 0 0 0 .26.59 1.14 1.14 0 0 0 .78.23 1.83 1.83 0 0 0 .91-.22 1.42 1.42 0 0 0 .58-.61 2.15 2.15 0 0 0 .14-.87zm5.61 2.64v-.66a1.6 1.6 0 0 1-1.45.77 2 2 0 0 1-1.14-.34 2.27 2.27 0 0 1-.8-.95 3.32 3.32 0 0 1-.29-1.41 3.73 3.73 0 0 1 .26-1.41 2 2 0 0 1 .78-1 2.1 2.1 0 0 1 1.15-.34 1.77 1.77 0 0 1 .84.2 1.65 1.65 0 0 1 .59.52V225h.88v7.16zm-2.78-2.59a2.26 2.26 0 0 0 .42 1.49 1.28 1.28 0 0 0 1 .49 1.23 1.23 0 0 0 1-.47 2.15 2.15 0 0 0 .41-1.44 2.45 2.45 0 0 0-.41-1.56 1.28 1.28 0 0 0-1-.5 1.22 1.22 0 0 0-1 .48 2.37 2.37 0 0 0-.42 1.51zm8.53.92l.91.11a2.22 2.22 0 0 1-.8 1.23 2.35 2.35 0 0 1-1.48.44 2.38 2.38 0 0 1-1.81-.7 2.73 2.73 0 0 1-.66-2 2.84 2.84 0 0 1 .67-2 2.26 2.26 0 0 1 1.75-.73 2.23 2.23 0 0 1 1.7.71 2.81 2.81 0 0 1 .66 2 2.37 2.37 0 0 1 0 .24h-3.86a2 2 0 0 0 .48 1.31 1.44 1.44 0 0 0 1.08.45 1.34 1.34 0 0 0 .83-.25 1.65 1.65 0 0 0 .53-.81zm-2.89-1.42h2.9a1.81 1.81 0 0 0-.33-1 1.36 1.36 0 0 0-1.09-.5 1.41 1.41 0 0 0-1 .4 1.63 1.63 0 0 0-.48 1.1zm-72.07 13.21l.92-.08a1.69 1.69 0 0 0 .48 1 1.32 1.32 0 0 0 .9.34 1.39 1.39 0 0 0 1.07-.48 1.79 1.79 0 0 0 .44-1.27 1.65 1.65 0 0 0-.42-1.19 1.47 1.47 0 0 0-1.11-.43 1.51 1.51 0 0 0-.76.19 1.45 1.45 0 0 0-.54.5l-.82-.11.69-3.67h3.56v.9h-2.86l-.38 1.92a2.32 2.32 0 0 1 1.35-.45 2.16 2.16 0 0 1 1.58.65 2.27 2.27 0 0 1 .65 1.67 2.59 2.59 0 0 1-.57 1.68 2.51 2.51 0 0 1-3.47.32 2.11 2.11 0 0 1-.71-1.49zm5.57-.01l.87-.12a2 2 0 0 0 .52 1.08 1.27 1.27 0 0 0 .89.33 1.43 1.43 0 0 0 1-.43 1.46 1.46 0 0 0 .43-1.07 1.35 1.35 0 0 0-1.4-1.39 2.32 2.32 0 0 0-.62.1l.1-.77h.14a1.79 1.79 0 0 0 1-.3 1 1 0 0 0 .45-.9 1.06 1.06 0 0 0-.33-.8 1.17 1.17 0 0 0-.84-.32 1.22 1.22 0 0 0-.86.32 1.66 1.66 0 0 0-.44 1l-.88-.16a2.3 2.3 0 0 1 .74-1.37 2.12 2.12 0 0 1 1.42-.48 2.32 2.32 0 0 1 1.08.25 1.81 1.81 0 0 1 1 1.61 1.46 1.46 0 0 1-.25.84 1.65 1.65 0 0 1-.73.61 1.64 1.64 0 0 1 1 .61 1.79 1.79 0 0 1 .35 1.15 2.08 2.08 0 0 1-.68 1.59 2.39 2.39 0 0 1-1.73.65 2.2 2.2 0 0 1-1.56-.56 2.11 2.11 0 0 1-.67-1.47zm6.03 1.89v-1h1v1a1.8 1.8 0 0 1-.2.89 1.29 1.29 0 0 1-.62.52l-.24-.37a.91.91 0 0 0 .41-.36 1.53 1.53 0 0 0 .14-.68zm8.39 0h-.88v-5.6a4.58 4.58 0 0 1-.83.6 7.2 7.2 0 0 1-.93.46v-.85a6 6 0 0 0 1.29-.84 3.23 3.23 0 0 0 .78-1h.57zm6.81-5.41l-.87.07a1.54 1.54 0 0 0-.34-.75 1.15 1.15 0 0 0-.87-.38 1.19 1.19 0 0 0-.74.24 2 2 0 0 0-.66.88 4.72 4.72 0 0 0-.24 1.65 2 2 0 0 1 .77-.71 2.07 2.07 0 0 1 1-.24 2 2 0 0 1 1.5.65 2.33 2.33 0 0 1 .62 1.67 2.77 2.77 0 0 1-.29 1.25 2.11 2.11 0 0 1-.8.89 2.13 2.13 0 0 1-1.15.31 2.27 2.27 0 0 1-1.8-.81 4.1 4.1 0 0 1-.69-2.66 4.78 4.78 0 0 1 .77-3 2.18 2.18 0 0 1 1.8-.82 2 2 0 0 1 1.99 1.76zm-3.59 3.09a2 2 0 0 0 .2.87 1.39 1.39 0 0 0 1.26.85 1.25 1.25 0 0 0 1-.45 1.76 1.76 0 0 0 .4-1.22 1.61 1.61 0 0 0-.4-1.17 1.27 1.27 0 0 0-1-.43 1.32 1.32 0 0 0-1 .43 1.51 1.51 0 0 0-.46 1.12zm9.15-3.09l-.87.07a1.64 1.64 0 0 0-.33-.75 1.17 1.17 0 0 0-.88-.38 1.19 1.19 0 0 0-.74.24 1.94 1.94 0 0 0-.65.88 4.47 4.47 0 0 0-.25 1.65 2 2 0 0 1 .77-.71 2.08 2.08 0 0 1 1-.24 2 2 0 0 1 1.49.65 2.33 2.33 0 0 1 .62 1.67 2.77 2.77 0 0 1-.29 1.25 2 2 0 0 1-.8.89 2.13 2.13 0 0 1-1.15.31 2.25 2.25 0 0 1-1.79-.81 4 4 0 0 1-.7-2.66 4.78 4.78 0 0 1 .77-3 2.2 2.2 0 0 1 1.8-.83 2.07 2.07 0 0 1 1.39.47 2 2 0 0 1 .61 1.3zm-3.59 3.09a2 2 0 0 0 .2.87 1.42 1.42 0 0 0 1.26.85 1.25 1.25 0 0 0 1-.45 1.76 1.76 0 0 0 .4-1.22 1.65 1.65 0 0 0-.39-1.17 1.3 1.3 0 0 0-1-.43 1.34 1.34 0 0 0-1 .43 1.51 1.51 0 0 0-.47 1.12zm4.59-1.21a6.73 6.73 0 0 1 .26-2.05 2.64 2.64 0 0 1 .78-1.19 2 2 0 0 1 1.3-.42 2.18 2.18 0 0 1 1 .23 2 2 0 0 1 .72.67 4 4 0 0 1 .44 1.06 7 7 0 0 1 .16 1.7 6.34 6.34 0 0 1-.26 2 2.58 2.58 0 0 1-.77 1.2 2.19 2.19 0 0 1-2.93-.32 4.75 4.75 0 0 1-.7-2.88zm.91 0a4.43 4.43 0 0 0 .41 2.34 1.21 1.21 0 0 0 1 .59 1.23 1.23 0 0 0 1-.59 6.91 6.91 0 0 0 0-4.69 1.23 1.23 0 0 0-1-.58 1.12 1.12 0 0 0-1 .51 4.56 4.56 0 0 0-.41 2.42zm7.75 3.53V237h.95v3.55l3.55-3.55h1.29l-3 2.9 3.14 4.26h-1.25l-2.55-3.63-1.17 1.15v2.48zm7.41 0h-.82V237h.88v2.55a1.76 1.76 0 0 1 1.42-.7 2.19 2.19 0 0 1 .91.2 1.79 1.79 0 0 1 .7.54 2.38 2.38 0 0 1 .43.84 3.32 3.32 0 0 1 .16 1.06 3 3 0 0 1-.66 2.06 2.08 2.08 0 0 1-1.58.72 1.65 1.65 0 0 1-1.44-.76zm0-2.64a2.66 2.66 0 0 0 .25 1.35 1.26 1.26 0 0 0 2.12.18 2.26 2.26 0 0 0 .42-1.49 2.3 2.3 0 0 0-.4-1.5 1.24 1.24 0 0 0-2 0 2.17 2.17 0 0 0-.4 1.46zm4.75 2.64V237h.88v2.57a2 2 0 0 1 1.55-.72 2.11 2.11 0 0 1 1 .23 1.33 1.33 0 0 1 .61.63 2.93 2.93 0 0 1 .18 1.16v3.29h-.88v-3.29a1.36 1.36 0 0 0-.28-1 1.06 1.06 0 0 0-.81-.3 1.43 1.43 0 0 0-.73.2 1.2 1.2 0 0 0-.5.55 2.71 2.71 0 0 0-.14 1v2.84z"/><rect x="173.1" y="140.73" width="13.03" height="14.33" rx="3.16"/><rect x="174.26" y="153.76" width="2.18" height="3.97" rx=".68"/><rect x="182.51" y="154.14" width="2.18" height="3.52" rx=".64"/><path d="M176.48 142h6.38a2 2 0 0 1 2 2v4.55a0 0 0 0 1 0 0H174.4a0 0 0 0 1 0 0v-4.44a2.08 2.08 0 0 1 2.08-2.11zm-2.08 9.15h2.61v1.3h-2.61zm7.82 0h2.61v1.3h-2.61z" fill="#fed4c2"/><path d="M484.38,155.27h-225V130.78l-68,3.49,68-29.48V78.27h225Z"/><g fill="#fed4c2"><path d="M297.41 113.31c0 3.06-.76 4-3.32 4h-2.45v-4.56h-1.58l.78-1.82h.8v-9.67h2.45c2.56 0 3.32.72 3.32 3.37v3.22c0 1.78-.3 2.84-1.18 3.52h1.18zm-1.94-8.94c0-1-.24-1.23-1.31-1.23h-.54v7.79h.47c1 0 1.38-1 1.38-3.1zm0 8.38h-1.85v2.7h.54c1.07 0 1.31-.24 1.31-1.22zm11.89-11.47v13.19c0 2.52-1.54 3.08-2.9 3.08s-2.86-.64-2.86-3.08v-13.19h2v13.35c0 .84.3 1.1.9 1.1s.9-.24.9-1.1v-13.35zm9.4 12.65c0 2.56-.48 4.28-5.26 3.32v-1.9c2.9.64 3.28 0 3.28-1.22v-1.4h-3.28v-8.08c0-2.57.5-4.29 5.26-3.33v1.91c-2.9-.65-3.28 0-3.28 1.22V111h3.28zm9.24 0c0 2.56-.48 4.28-5.26 3.32v-1.9c2.9.64 3.28 0 3.28-1.22v-1.4h-3.32v-8.08c0-2.57.5-4.29 5.26-3.33v1.91c-2.9-.65-3.28 0-3.28 1.22V111H326zm5.92.22c0 1.22.38 1.86 3.28 1.22v1.9c-4.76 1-5.26-.76-5.26-3.32v-9.32c0-2.57.5-4.27 5.26-3.33v1.9c-2.9-.64-3.28 0-3.28 1.23v6.5h2.89v1.82h-2.89zm9.76-12.89c2.56 0 3.33.72 3.33 3.37v3.22c0 1.78-.31 2.84-1.19 3.52H345v3.28c0 2.12.76 2.66.76 2.66h-1.95s-.76-.26-.76-2.66v-1.9h-1.84v4.56h-2v-16zm-.46 1.88v7.79h.46c1 0 1.38-1 1.38-3.1v-3.46c0-1-.24-1.23-1.3-1.23zm16.52 14.17h-1.94v-16h1.94z"/><use xlink:href="#B"/><path d="M384.54 114.15c0 1.22.38 1.86 3.28 1.22v1.9c-4.76 1-5.26-.76-5.26-3.32v-1.22h-1.82v4.58h-2v-13.18c0-2.45 1.36-3.09 2.86-3.09a3 3 0 0 1 1.82.48c.72-.56 2.06-.76 4.38-.3v1.9c-2.9-.64-3.28 0-3.28 1.23v6.56h2.9v1.82h-2.9zm-3.8-3.24h1.82v-7.1c0-.87-.34-1.11-.92-1.11s-.9.26-.9 1.11zm13.5-9.65c2.56 0 3.32.72 3.32 3.37v3.22c0 1.78-.3 2.84-1.18 3.52h1.18v3.28c0 2.12.76 2.66.76 2.66h-1.94s-.76-.26-.76-2.66v-1.9h-1.84v4.56h-2v-16zm-.46 1.88v7.79h.46c1 0 1.38-1 1.38-3.1v-3.46c0-1-.24-1.23-1.3-1.23zm8.1-1.88h2v9.67h1.84v-9.67h1.94v16h-1.96v-4.56h-1.84v4.56h-2zM414 114.15c0 1.22.38 1.86 3.28 1.22v1.9c-4.76 1-5.26-.76-5.26-3.32v-9.32c0-2.57.5-4.27 5.26-3.33v1.9c-2.9-.64-3.28 0-3.28 1.23v6.5h2.88v1.82H414zm7.32-12.89h2.44c2.56 0 3.32 1 3.32 4v8c0 3.06-.76 4-3.32 4h-2.44zm3.82 3.11c0-1-.22-1.23-1.3-1.23h-.54v12.31h.54c1.08 0 1.3-.24 1.3-1.22zm8.12 9.78c0 1.22.38 1.86 3.28 1.22v1.9c-4.76 1-5.26-.76-5.26-3.32v-9.32c0-2.57.5-4.27 5.26-3.33v1.9c-2.9-.64-3.28 0-3.28 1.23v6.5h2.88v1.82h-2.88z"/><use xlink:href="#B" x="71.78"/></g><path d="M367.68 139.62v1.69h-9.46a3 3 0 0 1 .2-1.22 6.48 6.48 0 0 1 1.16-1.91 18 18 0 0 1 2.3-2.16 19.76 19.76 0 0 0 3.15-3 3.59 3.59 0 0 0 .82-2.11 2.35 2.35 0 0 0-.74-1.76 3 3 0 0 0-4 0 2.89 2.89 0 0 0-.78 2.11l-1.8-.19a4.48 4.48 0 0 1 1.39-3.08 4.82 4.82 0 0 1 3.26-1.06 4.51 4.51 0 0 1 3.26 1.15 3.74 3.74 0 0 1 1.2 2.83 4.41 4.41 0 0 1-.35 1.69 7 7 0 0 1-1.17 1.75 27.8 27.8 0 0 1-2.71 2.51l-2 1.81a5.21 5.21 0 0 0-.74 1zm1.89-2.09l1.76-.24a3.9 3.9 0 0 0 1 2.16 2.56 2.56 0 0 0 1.77.66 2.86 2.86 0 0 0 2.1-.86 2.92 2.92 0 0 0 .85-2.13 2.7 2.7 0 0 0-.79-2 2.75 2.75 0 0 0-2-.78 5 5 0 0 0-1.24.19l.19-1.54h.29a3.62 3.62 0 0 0 2-.59 2 2 0 0 0 .9-1.81 2.14 2.14 0 0 0-.66-1.6 2.33 2.33 0 0 0-1.69-.63 2.36 2.36 0 0 0-1.7.64 3.23 3.23 0 0 0-.88 1.94l-1.76-.32a4.53 4.53 0 0 1 1.46-2.74 4.3 4.3 0 0 1 2.85-1 4.58 4.58 0 0 1 2.15.51 3.59 3.59 0 0 1 1.51 1.37 3.49 3.49 0 0 1 .52 1.84 3 3 0 0 1-.49 1.69 3.46 3.46 0 0 1-1.48 1.21 3.28 3.28 0 0 1 2 1.22 3.72 3.72 0 0 1 .71 2.31 4.24 4.24 0 0 1-1.37 3.18 4.8 4.8 0 0 1-3.46 1.3 4.5 4.5 0 0 1-3.13-1.12 4.36 4.36 0 0 1-1.41-2.86z" fill="#fcebe6"/><path d="M281.51 123.33h171.2" fill="none" stroke-miterlimit="10" stroke="#fed4c2"/><defs ><path id="B" d="M374.56,114.65c0,2.12.76,2.66.76,2.66h-1.94s-.76-.26-.76-2.66V104c0-.64-.34-1-.92-1s-.92.41-.92,1v13.32h-2v-16h2v.68s.32-.78,1.64-.78,2.14.56,2.14,3.23Z"/></defs></svg>