<svg xmlns="http://www.w3.org/2000/svg" width="497" height="407" viewBox="0 0 497 407"><defs><style>.cls-1{fill:#fcebe6;}.cls-2{fill:#f2deda;}.cls-3{fill:#fed4c2;}.cls-4{fill:#d1e7d6;}.cls-5{fill:#bc5e48;}.cls-6{fill:#964535;}.cls-7,.cls-8{fill:none;stroke-miterlimit:10;}.cls-7{stroke:#bc5e48;}.cls-8{stroke:#fed4c2;}.cls-9{fill:#cc7b62;}</style></defs><g id="Layer_33" data-name="Layer 33"><rect class="cls-1" x="1" width="496" height="407"/></g><g id="Layer_35" data-name="Layer 35"><rect class="cls-2" x="74.55" y="93.51" width="63.81" height="91.18" rx="11.18" transform="matrix(0.87, -0.5, 0.5, 0.87, -55.29, 71.86)"/></g><g id="Layer_30" data-name="Layer 30"><path class="cls-3" d="M-1.41,22.07c15.59,24.57,26.29,51.75,40,77.33,14.3,26.69,32.29,51.21,49.88,75.79,18.23,25.47,36.69,50.78,55.16,76.09,17.38,23.81,35.16,47.39,51.68,71.82,15.6,23.07,30,47.28,39.73,73.47,1.19,3.19,2.3,6.42,3.35,9.66a4.6,4.6,0,0,0,5.54,3.14,4.53,4.53,0,0,0,3.14-5.53c-8.75-27-22.32-52.12-37.74-75.86-15.85-24.4-33.42-47.66-50.57-71.15Q131,218.76,103.37,180.58c-17.85-24.82-36.25-49.49-51.58-76C37.19,79.38,26.58,52.11,12,26.87q-2.73-4.73-5.66-9.34c-3.09-4.88-10.88-.37-7.77,4.54Z"/><path class="cls-3" d="M150.91,409.61a119.17,119.17,0,0,1,58.32-48.11c12.73-4.88,26.43-8.49,37.53-16.74,10.23-7.62,17-18.31,22.95-29.38,5.67-10.48,11-21.53,19.16-29.86,8.78-8.92,20.41-13.5,32.27-17.08,13.06-3.93,26.26-7,38.8-12.47,6.79-3,13.38-6.38,20.2-9.27a152.14,152.14,0,0,1,20.68-6.93c28.16-7.45,57.68-8.8,85.39-18.1q5.09-1.71,10-3.78c2.24-.94,3.85-3,3.14-5.54-.58-2.11-3.28-4.09-5.53-3.14-27.22,11.44-57,13.26-85.58,19.52A198.49,198.49,0,0,0,387,234.52a205.47,205.47,0,0,0-21.56,9,183.16,183.16,0,0,1-19.86,8.4c-6.21,2.08-12.54,3.76-18.85,5.51-12.64,3.51-25.72,7.35-36.49,15.13-10.4,7.51-17.36,18-23.41,29.15-3,5.42-5.76,10.92-8.9,16.24a73.29,73.29,0,0,1-10.32,14.13c-9.14,9.49-21.6,13.77-33.72,18.1-12.94,4.63-25.27,10.18-36.47,18.25a130.24,130.24,0,0,0-28.69,28.33c-2,2.67-3.83,5.43-5.58,8.25-3.06,4.94,4.72,9.46,7.77,4.55Z"/><path class="cls-3" d="M445.61,404.32c-9.61-20.18-18.67-40.67-26.91-60.84Q406,312.25,395,280.34q-6.17-17.93-11.75-36a4.5,4.5,0,1,0-8.68,2.39q10,32.34,21.79,64.09,11.93,32,25.66,63.38,7.65,17.47,15.85,34.69a4.51,4.51,0,0,0,6.15,1.61,4.62,4.62,0,0,0,1.62-6.15Z"/><path class="cls-3" d="M105.28,183.87a189.71,189.71,0,0,0,29.59-15.15c9.34-5.89,17.78-12.73,26.19-19.84,3.92-3.31,8.4-6.67,13.67-7.2,6.07-.61,12.3,2,18,3.62l36.61,10.58L302.6,177l36.61,10.58c11.88,3.43,23.73,7.1,35.79,9.9,21.31,5,44.71,6.65,64.83-3.56a58.15,58.15,0,0,0,6.78-4.06c1.58-1.1.08-3.7-1.51-2.59-18.64,12.93-42.48,12.85-63.89,8.5-12-2.45-23.84-6.07-35.65-9.48l-36.28-10.48-73.23-21.15-36.28-10.48c-6-1.72-11.92-3.82-18-5a21.91,21.91,0,0,0-15.2,2.09c-4.49,2.44-8.22,6-12.08,9.32-4.3,3.67-8.78,7.14-13.4,10.39a187.23,187.23,0,0,1-28.73,16.57c-2.59,1.2-5.22,2.34-7.87,3.42-1.76.72-1,3.62.8,2.89Z"/><path class="cls-3" d="M328,378.69c-21.29,1.78-40,12.65-59.35,20.74a146.27,146.27,0,0,1-16.86,6,1.51,1.51,0,0,0,.8,2.9c20.23-5.68,38.19-17.19,58.28-23.25A84.09,84.09,0,0,1,328,381.69c1.91-.16,1.93-3.16,0-3Z"/><path class="cls-3" d="M278.38,396.74c.22-4.54-3.17-8.61-5.25-12.38q-1.71-3.12-3.29-6.31c-.27-.53-3.1-6.14-2.22-6.23,1.9-.18,1.92-3.19,0-3-2.58.26-3.66,2.7-3,5.05a26.48,26.48,0,0,0,1.67,3.78c.65,1.35,1.32,2.7,2,4,1.29,2.53,2.66,5,4.09,7.49s3.11,4.74,3,7.57c-.09,1.93,2.91,1.93,3,0Z"/><path class="cls-3" d="M251.57,332.69c.62,6.73,4.26,12.38,7.42,18.17a119.09,119.09,0,0,1,8.38,19.33c.6,1.82,3.5,1,2.89-.8a123.37,123.37,0,0,0-8-18.82c-3-5.68-7.06-11.3-7.66-17.88-.17-1.9-3.17-1.92-3,0Z"/><path class="cls-3" d="M240.15,343.47a97,97,0,0,0,9.95,22c1,1.64,3.61.14,2.59-1.51a94,94,0,0,1-9.65-21.3c-.56-1.84-3.46-1.05-2.89.8Z"/><path class="cls-3" d="M182.45,247c1.61,7.91,6,14.51,12,19.76,3,2.6,6.19,4.93,9.2,7.5a49.89,49.89,0,0,1,8,8.59A81.87,81.87,0,0,1,218,293.24c1.86,3.58,3.76,7.24,5.29,11a16.81,16.81,0,0,1,1.33,6.63c0,2.23-.37,4.43-.53,6.64a26.18,26.18,0,0,0,1.58,11.13c3,8.06,9.08,14.51,15,20.55,1.36,1.38,3.48-.74,2.12-2.12-5.21-5.32-10.55-10.91-13.64-17.79A23.68,23.68,0,0,1,227,318.67c.16-4.39,1.17-8.73-.07-13.07-1.12-3.89-3.22-7.59-5-11.21a102.53,102.53,0,0,0-5.8-10.4,53.34,53.34,0,0,0-7.23-9,114.1,114.1,0,0,0-8.91-7.51,49.07,49.07,0,0,1-9.37-9.12,31.28,31.28,0,0,1-5.26-12.1c-.39-1.89-3.28-1.09-2.89.8Z"/><path class="cls-3" d="M406.17,319.14q36-15.52,72.67-29.33,10.29-3.88,20.65-7.62c1.8-.65,1-3.55-.8-2.89q-37,13.38-73.41,28.51-10.33,4.31-20.62,8.74c-1.77.77-.25,3.35,1.51,2.59Z"/><path class="cls-3" d="M394.64,200.08c8.61,28,23.68,53.37,35.23,80.19a231.54,231.54,0,0,1,8.59,22.93c.58,1.84,3.47,1.06,2.9-.8-8.73-28-23.83-53.31-35.32-80.16a230.62,230.62,0,0,1-8.51-23c-.56-1.84-3.46-1.05-2.89.8Z"/><path class="cls-3" d="M471.07,289.78l-20.7-48L444.45,228c-.76-1.77-3.34-.24-2.59,1.51l20.71,48.06,5.91,13.73c.76,1.76,3.35.24,2.59-1.52Z"/><path class="cls-3" d="M247.52,160a371.68,371.68,0,0,1-45.22,45.94c-8.25,7-16.87,13.57-25.56,20S159.25,239,151.23,246.44A222.64,222.64,0,0,0,129,270.8c-6.75,8.39-13.66,16.82-19.65,25.78a82.13,82.13,0,0,0-7.55,13.72,115.25,115.25,0,0,0-5,15.86A109.1,109.1,0,0,1,92,341.68a80.69,80.69,0,0,1-7,12.68c-5.4,8.14-11.82,15.53-17.74,23.29-2.93,3.86-5.67,7.82-8.25,11.92-2.2,3.49-4.5,7.22-7.84,9.75a12.34,12.34,0,0,1-5.29,2.35c-1.9.35-1.09,3.24.8,2.89,8.85-1.65,13.11-10.95,17.63-17.69,5.48-8.19,12-15.64,17.92-23.49s11.31-16.28,14.48-25.73c3.53-10.5,5.12-21.49,10.35-31.39,5-9.4,11.79-17.7,18.32-26A311.85,311.85,0,0,1,147,254.72c15.37-15.81,34.13-27.59,51.14-41.46a369.54,369.54,0,0,0,46.22-44.93q2.65-3.08,5.24-6.21c1.23-1.48-.88-3.61-2.12-2.12Z"/><path class="cls-3" d="M127.69,168.15c-10.26-8.84-16.09-21.26-22.92-32.69-6.34-10.61-14.29-21.48-26-26.52a8,8,0,0,0-5.8-.6,28.49,28.49,0,0,0-5.21,2.81l-11.7,6.92a1.5,1.5,0,0,0,1.51,2.59l10-5.93c1.52-.9,3-1.82,4.56-2.69a5.24,5.24,0,0,1,5-.53c5.56,2.19,10.38,6.28,14.36,10.64,8.54,9.35,13.77,21,20.46,31.63a71.93,71.93,0,0,0,13.55,16.49c1.46,1.26,3.59-.86,2.12-2.12Z"/><path class="cls-3" d="M58.29,121.28a1.5,1.5,0,0,0,0-3,1.5,1.5,0,0,0,0,3Z"/><path class="cls-3" d="M96.69,127.29a53.61,53.61,0,0,0-25,13.12c-1.41,1.32.71,3.44,2.13,2.13a50.47,50.47,0,0,1,23.67-12.36c1.89-.41,1.09-3.31-.8-2.89Z"/><path class="cls-3" d="M72.76,143a1.5,1.5,0,0,0,0-3,1.5,1.5,0,0,0,0,3Z"/><path class="cls-3" d="M108.5,146.65A80.72,80.72,0,0,0,83,163.59c-1.38,1.36.74,3.48,2.12,2.13a76.89,76.89,0,0,1,24.19-16.18,1.57,1.57,0,0,0,1-1.85,1.51,1.51,0,0,0-1.85-1Z"/><path class="cls-3" d="M2.42,166.34a416.92,416.92,0,0,0,48-22q6.6-3.54,13.07-7.33A1.5,1.5,0,0,0,62,134.44a414.81,414.81,0,0,1-46.63,23.45q-6.84,2.91-13.76,5.55c-1.79.69-1,3.59.8,2.9Z"/><path class="cls-3" d="M113.85,210.23q-20.16,21.39-41.76,41.35T27.57,290q-13,10.41-26.35,20.31c-1.53,1.14,0,3.74,1.52,2.59q23.78-17.6,46.3-36.8t43.53-39.83q11.94-11.7,23.4-23.86c1.32-1.41-.79-3.53-2.12-2.13Z"/><path class="cls-3" d="M3,116.18C17,103.17,34.19,94.55,51.51,87c19-8.28,38.2-16.17,57.38-24.05,19-7.8,38.16-15.29,57.65-21.8s39.28-12.23,59-17.94,39.52-11.43,59-18c2.4-.8,4.78-1.62,7.17-2.45,1.81-.63,1-3.53-.8-2.89-19.52,6.79-39.34,12.66-59.18,18.41s-39.91,11.44-59.66,17.86S133,49.92,113.83,57.73,75.54,73.56,56.47,81.64C38.84,89.1,21.18,97.18,6.25,109.38Q3.51,111.63.9,114.05c-1.41,1.32.72,3.44,2.13,2.13Z"/><path class="cls-4" d="M320,258c-14.5-30.09-22-42-26-46-.85-.85-4.19-4-4-8a9.7,9.7,0,0,1,3-6c4.78-5.18,14.61-8.66,20-5,3.22,2.18,2.54,5.33,5,21a188.88,188.88,0,0,0,5,24,115.92,115.92,0,0,0,6,16Z"/><path class="cls-4" d="M476,216l-47-53a226.81,226.81,0,0,0,53-18c5.32-2.58,10.31-5.27,15-8v72a91.11,91.11,0,0,1-13,5C481.19,214.84,478.51,215.49,476,216Z"/><path class="cls-4" d="M340,407l-12-32,37-12q-3.5-10.5-7-21l43-14,36,79Z"/><path d="M182.28,225.29l-3.64-4.43,3-2.45.43.52-2.39,2,1.12,1.37,2.08-1.7.43.52-2.08,1.7,1.65,2Z"/><path d="M186,222.27l-2.64-3.21.49-.4.4.49a1.7,1.7,0,0,1,0-.74.74.74,0,0,1,.25-.39,1.43,1.43,0,0,1,.71-.29l.22.66a1,1,0,0,0-.49.21.63.63,0,0,0-.23.37.77.77,0,0,0,0,.47,2.76,2.76,0,0,0,.43.7l1.38,1.68Z"/><path d="M189.78,218.45a2.75,2.75,0,0,1-.29.84,2.09,2.09,0,0,1-.51.6,1.48,1.48,0,0,1-1,.41,1.11,1.11,0,0,1-.83-.42,1.2,1.2,0,0,1-.25-.52,1.22,1.22,0,0,1,0-.54,1.65,1.65,0,0,1,.24-.5,4.4,4.4,0,0,1,.42-.48,6.81,6.81,0,0,0,.81-1l-.11-.14a.75.75,0,0,0-.54-.34,1.18,1.18,0,0,0-.77.32,1.21,1.21,0,0,0-.45.6,1.05,1.05,0,0,0,.12.7l-.59.36a1.73,1.73,0,0,1-.22-.74,1.39,1.39,0,0,1,.22-.72,2.56,2.56,0,0,1,.63-.71,2.19,2.19,0,0,1,.75-.45,1.09,1.09,0,0,1,.57-.07,1.18,1.18,0,0,1,.48.23,4.09,4.09,0,0,1,.43.48l.6.72a9.94,9.94,0,0,0,.82.93,1.43,1.43,0,0,0,.46.27l-.57.47A1.5,1.5,0,0,1,189.78,218.45Zm-1.05-1.17a5.11,5.11,0,0,1-.72.93,3.43,3.43,0,0,0-.38.5.65.65,0,0,0-.07.35.55.55,0,0,0,.14.32.59.59,0,0,0,.46.23.91.91,0,0,0,.6-.25,1.44,1.44,0,0,0,.45-.6,1.18,1.18,0,0,0,0-.67,2,2,0,0,0-.36-.61Z"/><path d="M191.45,217.74l-2.64-3.2.49-.4.37.45a1.48,1.48,0,0,1,.59-1.36,1.8,1.8,0,0,1,.62-.34,1.09,1.09,0,0,1,.59,0,1.23,1.23,0,0,1,.49.26,3.45,3.45,0,0,1,.47.5l1.62,2-.54.45-1.61-2a2.08,2.08,0,0,0-.47-.45.66.66,0,0,0-.44-.07.91.91,0,0,0-.46.21,1.17,1.17,0,0,0-.42.71,1.44,1.44,0,0,0,.44,1.05L192,217.3Z"/><path d="M194.88,214.91l-3.63-4.42.54-.45,2.07,2.53.22-2.36.7-.58-.25,2.19,3,.91-.67.55-2.41-.77-.08.69,1.05,1.27Z"/><path d="M198,212.38l-2.63-3.2.49-.41.4.49a1.69,1.69,0,0,1,0-.73.85.85,0,0,1,.26-.4,1.42,1.42,0,0,1,.7-.28l.23.65a1,1,0,0,0-.49.21.75.75,0,0,0-.24.37.77.77,0,0,0,0,.47,2.81,2.81,0,0,0,.43.71l1.38,1.67Z"/><path d="M196.91,206.88l-.52-.62.55-.45.51.62Zm3.12,3.8-2.63-3.2.54-.45,2.63,3.2Z"/><path d="M201.52,209.9l.59-.36a.65.65,0,0,0,.48.21,1.14,1.14,0,0,0,.67-.3,1.21,1.21,0,0,0,.46-.63,1,1,0,0,0-.07-.66,4.54,4.54,0,0,0-.53-.72,1.45,1.45,0,0,1-.54,1.14,1.55,1.55,0,0,1-1.42.37,2.38,2.38,0,0,1-1.3-.85,2.69,2.69,0,0,1-.53-1,1.67,1.67,0,0,1,0-1,1.62,1.62,0,0,1,.56-.82,1.49,1.49,0,0,1,1.32-.31l-.32-.39.5-.41,2.28,2.77a3.43,3.43,0,0,1,.72,1.18,1.45,1.45,0,0,1-.08.89,2.14,2.14,0,0,1-.66.85,2,2,0,0,1-1.14.51A1.14,1.14,0,0,1,201.52,209.9Zm-1.13-2.29a1.8,1.8,0,0,0,1,.71,1.07,1.07,0,0,0,1.26-1,1.73,1.73,0,0,0-.49-1.11,1.69,1.69,0,0,0-1-.68,1.09,1.09,0,0,0-.88.22,1,1,0,0,0-.37.8A1.69,1.69,0,0,0,200.39,207.61Z"/><path d="M203.83,206l.47-.53a1,1,0,0,0,.66.29,1.17,1.17,0,0,0,.72-.3,1.13,1.13,0,0,0,.43-.61.6.6,0,0,0-.12-.51.44.44,0,0,0-.39-.16,3.5,3.5,0,0,0-.71.28,8.5,8.5,0,0,1-1,.42,1.1,1.1,0,0,1-.6,0,1.15,1.15,0,0,1-.48-.33,1.11,1.11,0,0,1-.22-.48,1.14,1.14,0,0,1,0-.52,1.84,1.84,0,0,1,.22-.45,2.35,2.35,0,0,1,1.17-.88,1.1,1.1,0,0,1,.66-.05,1.34,1.34,0,0,1,.59.34l-.47.51a.74.74,0,0,0-.53-.22,1,1,0,0,0-.6.27,1.12,1.12,0,0,0-.43.56.46.46,0,0,0,.08.42.37.37,0,0,0,.22.14.66.66,0,0,0,.33,0l.59-.25a6.76,6.76,0,0,1,1-.41,1,1,0,0,1,.59,0,1.07,1.07,0,0,1,.52.35,1.34,1.34,0,0,1,.26.65,1.43,1.43,0,0,1-.15.74,2.28,2.28,0,0,1-.57.69,1.94,1.94,0,0,1-1.17.52A1.54,1.54,0,0,1,203.83,206Z"/><path d="M208,204.53l.6-.35a.64.64,0,0,0,.47.2,1.17,1.17,0,0,0,.68-.3,1.34,1.34,0,0,0,.46-.63,1,1,0,0,0-.07-.65,4.3,4.3,0,0,0-.54-.73,1.41,1.41,0,0,1-.54,1.15,1.56,1.56,0,0,1-1.41.36,2.4,2.4,0,0,1-1.31-.84,3,3,0,0,1-.53-1,1.76,1.76,0,0,1,0-1,1.71,1.71,0,0,1,.57-.82,1.47,1.47,0,0,1,1.31-.31l-.32-.39.5-.41,2.28,2.77a3.43,3.43,0,0,1,.72,1.18,1.44,1.44,0,0,1-.07.89,2.11,2.11,0,0,1-.67.85A1.94,1.94,0,0,1,209,205,1.16,1.16,0,0,1,208,204.53Zm-1.13-2.29a1.77,1.77,0,0,0,1,.71,1,1,0,0,0,.86-.23,1,1,0,0,0,.39-.8,1.73,1.73,0,0,0-.49-1.11,1.66,1.66,0,0,0-1-.67,1,1,0,0,0-.87.22,1,1,0,0,0-.38.8A1.74,1.74,0,0,0,206.91,202.24Z"/><path d="M213.13,199.24a2.5,2.5,0,0,1-.29.84,2.07,2.07,0,0,1-.51.6,1.48,1.48,0,0,1-1,.41,1.12,1.12,0,0,1-.83-.43,1,1,0,0,1-.24-.51,1.13,1.13,0,0,1,0-.55,1.77,1.77,0,0,1,.24-.5c.09-.11.23-.27.42-.47a6.67,6.67,0,0,0,.81-1l-.11-.14a.75.75,0,0,0-.54-.34,1.5,1.5,0,0,0-1.22.92,1.05,1.05,0,0,0,.12.7l-.59.36a1.73,1.73,0,0,1-.22-.74,1.37,1.37,0,0,1,.22-.72A2.43,2.43,0,0,1,210,197a2.19,2.19,0,0,1,.75-.45,1.09,1.09,0,0,1,.57-.07,1.18,1.18,0,0,1,.48.23,4.09,4.09,0,0,1,.43.48l.6.72a9.94,9.94,0,0,0,.82.93,1.64,1.64,0,0,0,.46.27l-.57.47A1.5,1.5,0,0,1,213.13,199.24Zm-1-1.17a5.45,5.45,0,0,1-.71.93,2.65,2.65,0,0,0-.39.5.63.63,0,0,0-.07.35.55.55,0,0,0,.14.32.59.59,0,0,0,.46.23.91.91,0,0,0,.6-.25,1.44,1.44,0,0,0,.45-.6,1.18,1.18,0,0,0,.05-.67,2,2,0,0,0-.36-.61Z"/><path d="M216.88,196.82l-.34-.4a1.29,1.29,0,0,1-.5,1.21,1.69,1.69,0,0,1-.88.37,1.88,1.88,0,0,1-1-.18,2.54,2.54,0,0,1-.89-.73,2.86,2.86,0,0,1-.56-1,1.6,1.6,0,0,1,0-1,1.68,1.68,0,0,1,.54-.8,1.33,1.33,0,0,1,.62-.3,1.49,1.49,0,0,1,.63,0l-1.31-1.58.54-.45,3.64,4.43Zm-3-.19a1.82,1.82,0,0,0,1,.71,1,1,0,0,0,.86-.2,1,1,0,0,0,.37-.79,1.81,1.81,0,0,0-.48-1.09,2,2,0,0,0-1.05-.76,1,1,0,0,0-.88.21,1,1,0,0,0-.36.79A1.86,1.86,0,0,0,213.84,196.63Z"/><path d="M219.58,192.87l.61-.39a1.71,1.71,0,0,1,.14,1.16,1.93,1.93,0,0,1-.69,1,1.89,1.89,0,0,1-1.47.48,2.13,2.13,0,0,1-1.41-.87,2.28,2.28,0,0,1-.62-1.6,1.8,1.8,0,0,1,.71-1.33,1.75,1.75,0,0,1,1.41-.43,2.25,2.25,0,0,1,1.42.9l.12.14-2.39,2a1.62,1.62,0,0,0,1,.56,1.13,1.13,0,0,0,.9-.27,1,1,0,0,0,.38-.58A1.32,1.32,0,0,0,219.58,192.87Zm-2.51.59,1.79-1.47a1.42,1.42,0,0,0-.7-.44,1,1,0,0,0-.93.24,1.1,1.1,0,0,0-.43.77A1.32,1.32,0,0,0,217.07,193.46Z"/><path class="cls-3" d="M201.88,325.7l30.17-19.33,14.87-9.53,7.54-4.84a16.08,16.08,0,0,0,5-4.25,5.45,5.45,0,0,0-.08-6.23,47.11,47.11,0,0,0-5.21-6.08c-3.75-4-7.77-7.68-11.45-11.72a50.46,50.46,0,0,1-8.45-12,29,29,0,0,1-2.33-7c-.5-2.61-.64-5.31-1.46-7.85a21.89,21.89,0,0,0-4.38-7.21c-2.08-2.46-4.21-4.88-6.31-7.33l-13.09-15.18c-1.26-1.47-3.38.66-2.12,2.12l11.15,12.94,5.65,6.56a51.62,51.62,0,0,1,4.8,5.95c2.7,4.31,2.25,9.68,3.81,14.4a41.84,41.84,0,0,0,6.86,12.35,116.48,116.48,0,0,0,10.09,11c1.88,1.87,3.76,3.74,5.58,5.68q1.32,1.41,2.58,2.88a10.8,10.8,0,0,1,2.19,3c.72,2-1.63,3.65-3,4.59-2.3,1.53-4.66,3-7,4.49l-14.45,9.26-32.47,20.81c-1.62,1-.12,3.64,1.51,2.59Z"/></g><g id="Layer_34" data-name="Layer 34"><path class="cls-5" d="M250.37,369a22.91,22.91,0,0,0-4.53-10.56c-3.36-4.22-6-4.09-7.54-7.55-2-4.54-.57-11.75,4.52-15.09a12.17,12.17,0,0,1,9.06-1.51c.37.08,6.64,1.53,9.05,7.54s-1,11.35-1.51,12.08c-2,3-3.77,2.9-6,6A17.22,17.22,0,0,0,250.37,369Z"/><circle class="cls-6" cx="250.37" cy="346.36" r="4.53"/></g><g id="Layer_29" data-name="Layer 29"><path d="M270,350.88v-1.44l4.14-5.11h-3.67V343h5.77v1.24l-4.32,5.31h4.48v1.33Z"/><path d="M280.71,349.06l1.5.25a2.49,2.49,0,0,1-.91,1.26,2.69,2.69,0,0,1-1.57.43,2.54,2.54,0,0,1-2.2-1,3.23,3.23,0,0,1-.57-2,3.11,3.11,0,0,1,.75-2.22,2.41,2.41,0,0,1,1.87-.81,2.53,2.53,0,0,1,2,.84,3.74,3.74,0,0,1,.7,2.58h-3.78a1.48,1.48,0,0,0,.37,1,1.14,1.14,0,0,0,.87.38.92.92,0,0,0,.59-.2A1.17,1.17,0,0,0,280.71,349.06Zm.08-1.52a1.48,1.48,0,0,0-.33-1,1,1,0,0,0-.79-.34,1,1,0,0,0-.81.36,1.34,1.34,0,0,0-.32,1Z"/><path d="M283.54,343h3.15a9.29,9.29,0,0,1,1.39.08,2,2,0,0,1,.82.32,2.28,2.28,0,0,1,.61.66,1.8,1.8,0,0,1,.24.92,1.84,1.84,0,0,1-.3,1,1.82,1.82,0,0,1-.81.69,2.08,2.08,0,0,1,1.11.72,1.92,1.92,0,0,1,.38,1.18,2.32,2.32,0,0,1-.25,1.05,2,2,0,0,1-.68.81,2.2,2.2,0,0,1-1.06.37q-.4,0-1.92.06h-2.68Zm1.59,1.31v1.82h1c.62,0,1,0,1.15,0a1.09,1.09,0,0,0,.65-.29.84.84,0,0,0,.23-.61.82.82,0,0,0-.8-.87c-.16,0-.61,0-1.36,0Zm0,3.13v2.11h1.47a7.41,7.41,0,0,0,1.09-.05,1,1,0,0,0,.58-.31,1,1,0,0,0,.22-.67,1,1,0,0,0-.17-.6.93.93,0,0,0-.5-.36,5.12,5.12,0,0,0-1.41-.12Z"/><path d="M295.22,350.88V350a2.11,2.11,0,0,1-.82.72,2.23,2.23,0,0,1-1.07.26,2.07,2.07,0,0,1-1-.25,1.42,1.42,0,0,1-.66-.71,3,3,0,0,1-.21-1.26v-3.61h1.51v2.62a6.74,6.74,0,0,0,.09,1.48.77.77,0,0,0,.3.43,1,1,0,0,0,.56.16,1.18,1.18,0,0,0,.69-.22,1.05,1.05,0,0,0,.42-.52,6.5,6.5,0,0,0,.11-1.54v-2.41h1.51v5.71Z"/><path d="M285.3,273.38l.38-1,.54.18-.4,1.09a4.3,4.3,0,0,1,.84.73,4.07,4.07,0,0,1,.61,1.09,3.68,3.68,0,0,1,.28,1.79,2.78,2.78,0,0,1-.61,1.5,3.22,3.22,0,0,1-1.29.93,3.15,3.15,0,0,1-1.08.24,3.45,3.45,0,0,1-1-.14l-.38,1-.54-.19.4-1.09a4.91,4.91,0,0,1-1-.82,4,4,0,0,1-.54-1,3.68,3.68,0,0,1-.28-1.79,2.67,2.67,0,0,1,.6-1.5,3.09,3.09,0,0,1,1.33-1,2.9,2.9,0,0,1,1-.24A3.54,3.54,0,0,1,285.3,273.38Zm-.28.74a2.6,2.6,0,0,0-.83-.14,2,2,0,0,0-.72.15,2.14,2.14,0,0,0-1.24,1.19,2.71,2.71,0,0,0,.13,2.05,4.57,4.57,0,0,0,.42.8,3.42,3.42,0,0,0,.54.57Zm.51.29-1.7,4.6a2.4,2.4,0,0,0,.73.13,2.11,2.11,0,0,0,.8-.16,2.05,2.05,0,0,0,1.22-1.21,2.71,2.71,0,0,0-.12-2A3.36,3.36,0,0,0,285.53,274.41Z"/><path d="M289.39,278.05l-1.71-4.34.66-.26.26.66a1.91,1.91,0,0,1,.23-.8.89.89,0,0,1,.41-.33,1.5,1.5,0,0,1,.85-.06l0,.78a1.22,1.22,0,0,0-.61.06.75.75,0,0,0-.37.31.88.88,0,0,0-.12.51,3.45,3.45,0,0,0,.22.91l.9,2.27Z"/><path d="M294.61,274.38l.79-.21a2,2,0,0,1-.25,1.3,2.21,2.21,0,0,1-1.1.86,2.15,2.15,0,0,1-1.74,0,2.48,2.48,0,0,1-1.21-1.43A2.55,2.55,0,0,1,291,273a2.05,2.05,0,0,1,1.23-1.18,2,2,0,0,1,1.65,0,2.49,2.49,0,0,1,1.21,1.45s0,.11.08.19l-3.24,1.28a1.75,1.75,0,0,0,.84.94,1.28,1.28,0,0,0,1.05,0,1.21,1.21,0,0,0,.61-.49A1.45,1.45,0,0,0,294.61,274.38Zm-2.89-.24,2.43-1a1.57,1.57,0,0,0-.61-.71,1.21,1.21,0,0,0-1.08-.06,1.28,1.28,0,0,0-.72.67A1.48,1.48,0,0,0,291.72,274.14Z"/><path d="M296,273.93l.68-.4a1.13,1.13,0,0,0,.6.53,1.31,1.31,0,0,0,.88-.07,1.23,1.23,0,0,0,.67-.51.63.63,0,0,0,.05-.58.46.46,0,0,0-.37-.3,3.43,3.43,0,0,0-.85,0,6.76,6.76,0,0,1-1.26.09,1.15,1.15,0,0,1-.64-.22,1.26,1.26,0,0,1-.39-.52,1.2,1.2,0,0,1-.08-.59,1.18,1.18,0,0,1,.2-.55,1.56,1.56,0,0,1,.38-.4,2.4,2.4,0,0,1,.61-.34,2.48,2.48,0,0,1,1-.21,1.34,1.34,0,0,1,.73.17,1.66,1.66,0,0,1,.52.58L298,271a.88.88,0,0,0-.49-.41,1.09,1.09,0,0,0-.74.07,1.32,1.32,0,0,0-.66.45.53.53,0,0,0-.06.48.41.41,0,0,0,.19.22.64.64,0,0,0,.36.09l.72-.07a8.83,8.83,0,0,1,1.23-.09,1.14,1.14,0,0,1,1.06.76,1.26,1.26,0,0,1,.06.77,1.49,1.49,0,0,1-.42.75,2.3,2.3,0,0,1-.85.54,2.2,2.2,0,0,1-1.43.16A1.76,1.76,0,0,1,296,273.93Z"/><path d="M303.87,272.33l-.25-.64a1.7,1.7,0,0,1-1.09,1.28,1.73,1.73,0,0,1-.77.14,1.31,1.31,0,0,1-.64-.17,1.39,1.39,0,0,1-.44-.46,3.53,3.53,0,0,1-.32-.67l-1.06-2.69.73-.29,1,2.41a6.1,6.1,0,0,0,.35.76.89.89,0,0,0,.48.34,1,1,0,0,0,.62-.06,1.18,1.18,0,0,0,.55-.41,1,1,0,0,0,.23-.63,2.47,2.47,0,0,0-.21-.89l-.92-2.33.74-.29,1.71,4.34Z"/><path d="M305.68,271.62,304,267.28l.66-.27.24.62a1.71,1.71,0,0,1,1.1-1.26,2,2,0,0,1,.78-.14,1.15,1.15,0,0,1,.64.17,1.46,1.46,0,0,1,.44.45,5.42,5.42,0,0,1,.33.7l1,2.67-.74.29-1-2.64a2.14,2.14,0,0,0-.35-.64.78.78,0,0,0-.45-.23,1,1,0,0,0-.56.07,1.27,1.27,0,0,0-.69.62,1.55,1.55,0,0,0,.1,1.26l.94,2.38Z"/><path d="M313.15,268.66l-.21-.54a1.46,1.46,0,0,1-1,1.12,1.78,1.78,0,0,1-1.07.09,2,2,0,0,1-1-.53,3,3,0,0,1-.7-1.08,3.3,3.3,0,0,1-.25-1.27,1.77,1.77,0,0,1,.33-1.07,1.84,1.84,0,0,1,.86-.66,1.46,1.46,0,0,1,.76-.11,1.67,1.67,0,0,1,.67.23l-.85-2.15.73-.29,2.37,6ZM310,267.42a2,2,0,0,0,.85,1.1,1.1,1.1,0,0,0,1,.09,1.13,1.13,0,0,0,.66-.72,1.92,1.92,0,0,0-.13-1.34,2.29,2.29,0,0,0-.86-1.17,1.15,1.15,0,0,0-1-.08,1.13,1.13,0,0,0-.66.72A2.22,2.22,0,0,0,310,267.42Z"/><path d="M314.19,266.76l.68-.4a1.11,1.11,0,0,0,.61.53,1.52,1.52,0,0,0,1.54-.58.67.67,0,0,0,.06-.58.49.49,0,0,0-.38-.31,3.65,3.65,0,0,0-.85.05,6.76,6.76,0,0,1-1.26.09,1.23,1.23,0,0,1-.64-.22,1.24,1.24,0,0,1-.47-1.11,1.4,1.4,0,0,1,.2-.56,1.61,1.61,0,0,1,.39-.4,2.16,2.16,0,0,1,.6-.33,2.52,2.52,0,0,1,.95-.21,1.26,1.26,0,0,1,.73.17,1.71,1.71,0,0,1,.52.57l-.68.39a.91.91,0,0,0-.49-.42,1.17,1.17,0,0,0-.74.08,1.26,1.26,0,0,0-.66.45.53.53,0,0,0-.06.48.41.41,0,0,0,.19.22.64.64,0,0,0,.36.09l.73-.07a8.62,8.62,0,0,1,1.22-.09,1.26,1.26,0,0,1,.64.19,1.22,1.22,0,0,1,.42.56,1.3,1.3,0,0,1,.06.78,1.58,1.58,0,0,1-.42.75,2.58,2.58,0,0,1-.85.54,2.24,2.24,0,0,1-1.42.16A1.75,1.75,0,0,1,314.19,266.76Z"/><path d="M320.39,265.81,317,262.12l.78-.31,1.95,2.23c.22.24.42.5.63.77,0-.26,0-.57-.05-.94l-.09-3,.76-.29.07,5Z"/><path d="M325.78,262.06l.8-.21a2,2,0,0,1-.26,1.3,2.14,2.14,0,0,1-1.09.86,2.17,2.17,0,0,1-1.75,0,2.5,2.5,0,0,1-1.2-1.43,2.55,2.55,0,0,1-.11-1.92,2,2,0,0,1,1.22-1.18,2,2,0,0,1,1.66,0,2.52,2.52,0,0,1,1.21,1.45,2,2,0,0,1,.07.2l-3.23,1.27a1.78,1.78,0,0,0,.83.94,1.3,1.3,0,0,0,1.06,0,1.29,1.29,0,0,0,.61-.48A1.59,1.59,0,0,0,325.78,262.06Zm-2.88-.24,2.42-.95a1.59,1.59,0,0,0-.6-.72,1.21,1.21,0,0,0-1.08-.06,1.25,1.25,0,0,0-.72.67A1.43,1.43,0,0,0,322.9,261.82Z"/><path d="M327.75,264.84l-.11-.68a1.29,1.29,0,0,0,.37-.08.43.43,0,0,0,.28-.28,1.69,1.69,0,0,0-.19-.79l-1.8-4.56.74-.29,1.81,4.58a2.37,2.37,0,0,1,.23,1.2,1,1,0,0,1-.72.75A2.18,2.18,0,0,1,327.75,264.84ZM326,257.65l-.34-.85.73-.29.34.85Z"/><path d="M428.78,174.18v-6.39h1.3v5.31h3.24v1.08Z"/><path d="M436.94,172.7l1.23.21a2.06,2.06,0,0,1-.75,1,2.24,2.24,0,0,1-1.28.35,2.09,2.09,0,0,1-1.8-.8,2.63,2.63,0,0,1-.46-1.6,2.59,2.59,0,0,1,.6-1.82,2,2,0,0,1,1.54-.66,2.07,2.07,0,0,1,1.64.69,3.09,3.09,0,0,1,.58,2.11h-3.1a1.25,1.25,0,0,0,.3.85.92.92,0,0,0,.71.31.78.78,0,0,0,.49-.16A1,1,0,0,0,436.94,172.7Zm.07-1.25a1.15,1.15,0,0,0-.28-.81.83.83,0,0,0-.64-.28.88.88,0,0,0-.67.29,1.18,1.18,0,0,0-.26.8Z"/><path d="M440.43,174.18h-1.24v-4.66h1.15v.66a1.92,1.92,0,0,1,.53-.62.94.94,0,0,1,.53-.15,1.52,1.52,0,0,1,.81.24l-.38,1.07a1.12,1.12,0,0,0-.58-.2.72.72,0,0,0-.44.14,1,1,0,0,0-.28.52,7.31,7.31,0,0,0-.1,1.56Z"/><path d="M442.63,174.49l1.41.17a.44.44,0,0,0,.17.34.89.89,0,0,0,.55.13,1.39,1.39,0,0,0,.72-.14.65.65,0,0,0,.25-.31,1.83,1.83,0,0,0,.06-.57v-.68a1.68,1.68,0,0,1-1.4.75,1.72,1.72,0,0,1-1.49-.79,2.69,2.69,0,0,1-.43-1.57A2.59,2.59,0,0,1,443,170a1.85,1.85,0,0,1,1.41-.62,1.75,1.75,0,0,1,1.43.76v-.65H447v4.19a4.13,4.13,0,0,1-.14,1.23,1.44,1.44,0,0,1-.38.64,1.63,1.63,0,0,1-.65.37,3.82,3.82,0,0,1-1,.13,2.72,2.72,0,0,1-1.69-.41,1.26,1.26,0,0,1-.49-1Zm1.1-2.74a1.69,1.69,0,0,0,.29,1.09.89.89,0,0,0,.71.35,1,1,0,0,0,.77-.36,1.56,1.56,0,0,0,.31-1,1.62,1.62,0,0,0-.3-1.08.93.93,0,0,0-.76-.35.91.91,0,0,0-.73.34A1.62,1.62,0,0,0,443.73,171.75Z"/><path d="M449.43,174.18h-1.24v-4.66h1.15v.66a1.92,1.92,0,0,1,.53-.62.94.94,0,0,1,.53-.15,1.52,1.52,0,0,1,.81.24l-.38,1.07a1.12,1.12,0,0,0-.58-.2.72.72,0,0,0-.44.14,1,1,0,0,0-.28.52,7.31,7.31,0,0,0-.1,1.56Z"/><path d="M452.67,170.94l-1.12-.2a1.68,1.68,0,0,1,.65-1,2.35,2.35,0,0,1,1.37-.33,3,3,0,0,1,1.23.2,1.22,1.22,0,0,1,.57.49,2.6,2.6,0,0,1,.16,1.11v1.44a5,5,0,0,0,.06.91,2.58,2.58,0,0,0,.22.62h-1.22l-.12-.36,0-.15a2.31,2.31,0,0,1-.68.47,2,2,0,0,1-.77.15,1.57,1.57,0,0,1-1.13-.39,1.29,1.29,0,0,1-.42-1,1.27,1.27,0,0,1,.19-.7,1.18,1.18,0,0,1,.53-.48,4,4,0,0,1,1-.29,7.18,7.18,0,0,0,1.2-.3V171a.63.63,0,0,0-.18-.51,1,1,0,0,0-.66-.15.84.84,0,0,0-.51.13A.78.78,0,0,0,452.67,170.94Zm1.65,1a5.62,5.62,0,0,1-.75.19,2.4,2.4,0,0,0-.67.22.5.5,0,0,0-.25.43.61.61,0,0,0,.2.45.66.66,0,0,0,.49.19,1.06,1.06,0,0,0,.64-.22.78.78,0,0,0,.29-.41,2.45,2.45,0,0,0,.05-.6Z"/><path d="M458,174.18l-1.89-4.66h1.3l.88,2.38.25.79c.07-.2.11-.33.13-.4s.08-.26.13-.39l.89-2.38H461l-1.85,4.66Z"/><path d="M461.32,172.85l1.24-.19a.89.89,0,0,0,.32.55,1.06,1.06,0,0,0,.68.19,1.19,1.19,0,0,0,.72-.18.38.38,0,0,0,.16-.33.32.32,0,0,0-.09-.23,1,1,0,0,0-.41-.16,6.7,6.7,0,0,1-1.89-.6,1.23,1.23,0,0,1-.56-1.06,1.27,1.27,0,0,1,.48-1,2.23,2.23,0,0,1,1.49-.42,2.65,2.65,0,0,1,1.42.31,1.58,1.58,0,0,1,.64.93l-1.16.21a.75.75,0,0,0-.29-.42,1,1,0,0,0-.59-.14,1.34,1.34,0,0,0-.7.14.29.29,0,0,0-.14.25.28.28,0,0,0,.12.22,4.91,4.91,0,0,0,1.16.35,3.4,3.4,0,0,1,1.37.55,1.13,1.13,0,0,1,.39.92,1.41,1.41,0,0,1-.54,1.1,2.33,2.33,0,0,1-1.58.46,2.58,2.58,0,0,1-1.51-.39A1.77,1.77,0,0,1,461.32,172.85Z"/><path d="M466.73,169.52h1.15v.68a1.76,1.76,0,0,1,.61-.57,1.7,1.7,0,0,1,.84-.22,1.74,1.74,0,0,1,1.38.64,2.56,2.56,0,0,1,.57,1.77,2.66,2.66,0,0,1-.57,1.82,1.79,1.79,0,0,1-1.39.65,1.63,1.63,0,0,1-.7-.15,2.47,2.47,0,0,1-.66-.53V176h-1.23Zm1.22,2.25a1.77,1.77,0,0,0,.31,1.16,1,1,0,0,0,.76.38.87.87,0,0,0,.72-.35,1.75,1.75,0,0,0,.28-1.13,1.67,1.67,0,0,0-.29-1.09,1,1,0,0,0-1.48,0A1.53,1.53,0,0,0,468,171.77Z"/><path d="M473.18,170.94l-1.12-.2a1.78,1.78,0,0,1,.65-1,2.37,2.37,0,0,1,1.37-.33,3,3,0,0,1,1.23.2,1.22,1.22,0,0,1,.57.49,2.57,2.57,0,0,1,.17,1.11v1.44a4.24,4.24,0,0,0,.06.91,2.21,2.21,0,0,0,.22.62H475.1a1.86,1.86,0,0,1-.12-.36l-.05-.15a2.27,2.27,0,0,1-.67.47,2,2,0,0,1-.77.15,1.61,1.61,0,0,1-1.14-.39,1.28,1.28,0,0,1-.41-1,1.35,1.35,0,0,1,.18-.7,1.29,1.29,0,0,1,.53-.48,4.11,4.11,0,0,1,1-.29,7.77,7.77,0,0,0,1.2-.3V171a.63.63,0,0,0-.18-.51,1.07,1.07,0,0,0-.66-.15.75.75,0,0,0-.82.58Zm1.66,1a5.45,5.45,0,0,1-.76.19,2.53,2.53,0,0,0-.67.22.51.51,0,0,0-.24.43.6.6,0,0,0,.19.45.68.68,0,0,0,.5.19,1,1,0,0,0,.63-.22.8.8,0,0,0,.3-.41,2.45,2.45,0,0,0,0-.6Z"/><path d="M478.45,174.18h-1.24v-4.66h1.15v.66a2.05,2.05,0,0,1,.53-.62,1,1,0,0,1,.53-.15,1.53,1.53,0,0,1,.82.24l-.38,1.07a1.15,1.15,0,0,0-.58-.2.7.7,0,0,0-.44.14,1,1,0,0,0-.29.52,7.31,7.31,0,0,0-.1,1.56Z"/><path d="M480.72,174.18v-6.44H482v3.42l1.45-1.64h1.52l-1.6,1.7,1.71,3h-1.33l-1.17-2.09-.58.6v1.49Z"/><path d="M488.48,172.7l1.23.21a2.06,2.06,0,0,1-.75,1,2.24,2.24,0,0,1-1.28.35,2.09,2.09,0,0,1-1.8-.8,2.64,2.64,0,0,1-.47-1.6,2.6,2.6,0,0,1,.61-1.82,2,2,0,0,1,1.53-.66,2.07,2.07,0,0,1,1.65.69,3,3,0,0,1,.57,2.11h-3.09a1.25,1.25,0,0,0,.3.85.92.92,0,0,0,.71.31.8.8,0,0,0,.49-.16A1,1,0,0,0,488.48,172.7Zm.07-1.25a1.15,1.15,0,0,0-.28-.81.83.83,0,0,0-.64-.28.88.88,0,0,0-.67.29,1.18,1.18,0,0,0-.26.8Z"/><path d="M495,174.18h-1.24V171.8a3.7,3.7,0,0,0-.08-1,.7.7,0,0,0-.25-.35.77.77,0,0,0-.43-.12,1,1,0,0,0-.58.17.9.9,0,0,0-.35.47,4.19,4.19,0,0,0-.09,1.07v2.11h-1.24v-4.66h1.15v.68a1.89,1.89,0,0,1,1.54-.79,1.78,1.78,0,0,1,.74.15,1.14,1.14,0,0,1,.51.38,1.35,1.35,0,0,1,.25.51,4.26,4.26,0,0,1,.07.83Z"/><path d="M382.68,265.13,388,263l.29.7-2.63,1.08,3.71,1.55.39.95-3.06-1.34-2.2,3.61-.38-.92,1.91-3-1.2-.52-1.84.76Z"/><path d="M386.19,272.33a2.48,2.48,0,0,1-.72-.52,2,2,0,0,1-.42-.67,1.42,1.42,0,0,1-.09-1.09,1.08,1.08,0,0,1,.65-.67,1.18,1.18,0,0,1,1.08.1,1.79,1.79,0,0,1,.4.38,6.14,6.14,0,0,1,.34.54,6.36,6.36,0,0,0,.7,1.07l.17-.07c.26-.11.43-.24.48-.41a1.19,1.19,0,0,0-.08-.83,1.22,1.22,0,0,0-.44-.61,1,1,0,0,0-.7-.09l-.17-.68a1.64,1.64,0,0,1,.77,0,1.28,1.28,0,0,1,.62.42,3,3,0,0,1,.71,1.66,1.1,1.1,0,0,1-.11.57,1,1,0,0,1-.36.38,3.5,3.5,0,0,1-.58.28l-.87.36a7.64,7.64,0,0,0-1.13.51,1.44,1.44,0,0,0-.39.35l-.28-.68A1.29,1.29,0,0,1,386.19,272.33Zm1.43-.65a5,5,0,0,1-.68-1,2.27,2.27,0,0,0-.37-.52.58.58,0,0,0-.66-.13.59.59,0,0,0-.35.37,1,1,0,0,0,.06.65,1.42,1.42,0,0,0,.44.6,1.15,1.15,0,0,0,.63.25,1.84,1.84,0,0,0,.69-.16Z"/><path d="M387.41,273.4l.37.61a1,1,0,0,0-.47.54,1.16,1.16,0,0,0,.08.78,1.1,1.1,0,0,0,.45.59.6.6,0,0,0,.52,0,.42.42,0,0,0,.27-.34,3.39,3.39,0,0,0-.05-.75,6.5,6.5,0,0,1-.1-1.12,1.08,1.08,0,0,1,.19-.57,1,1,0,0,1,.46-.35,1.05,1.05,0,0,1,.52-.08,1.1,1.1,0,0,1,.5.17,1.39,1.39,0,0,1,.36.34,2.46,2.46,0,0,1,.31.53,2.3,2.3,0,0,1,.19.84,1.16,1.16,0,0,1-.14.65,1.56,1.56,0,0,1-.51.47l-.34-.6a.81.81,0,0,0,.36-.44,1.07,1.07,0,0,0-.08-.66,1.15,1.15,0,0,0-.41-.58.51.51,0,0,0-.43-.05.47.47,0,0,0-.19.18.61.61,0,0,0-.07.32,6.39,6.39,0,0,0,.07.64,10.65,10.65,0,0,1,.09,1.09,1.11,1.11,0,0,1-.16.57,1.09,1.09,0,0,1-.5.38,1.14,1.14,0,0,1-.69.06,1.43,1.43,0,0,1-.67-.36,2.38,2.38,0,0,1-.49-.75,2,2,0,0,1-.15-1.27A1.61,1.61,0,0,1,387.41,273.4Z"/><path d="M389.06,279l-.54.33a3.28,3.28,0,0,1-.26-.47,1.2,1.2,0,0,1-.11-.6.65.65,0,0,1,.18-.39,2.29,2.29,0,0,1,.73-.4l2.21-.9-.19-.48.5-.21.2.48,1-.39.66.49L392,277l.27.65-.5.21-.27-.66-2.25.92a1.13,1.13,0,0,0-.34.19.3.3,0,0,0-.08.16.46.46,0,0,0,0,.24A2,2,0,0,0,389.06,279Z"/><path d="M388.73,279.88l3.84-1.57.24.59-.58.23a1.79,1.79,0,0,1,.71.2.75.75,0,0,1,.3.36,1.36,1.36,0,0,1,.06.76l-.69,0a1,1,0,0,0-.06-.54.69.69,0,0,0-.28-.33.78.78,0,0,0-.46-.09,2.68,2.68,0,0,0-.8.2l-2,.82Z"/><path d="M390.78,284.87l.56-.23a1.51,1.51,0,0,1-1.15-.95,1.69,1.69,0,0,1-.13-.69,1.2,1.2,0,0,1,.15-.57,1.27,1.27,0,0,1,.4-.4,4,4,0,0,1,.59-.29l2.38-1,.26.65-2.12.87a4.29,4.29,0,0,0-.67.32.71.71,0,0,0-.3.43.89.89,0,0,0,.05.55,1.21,1.21,0,0,0,.38.49.9.9,0,0,0,.56.19,2.11,2.11,0,0,0,.79-.2l2.06-.84.26.65L391,285.45Z"/><path d="M390,287.08l5.31-2.18.25.59-.5.21a1.53,1.53,0,0,1,.63.29,1.41,1.41,0,0,1,.41.58,1.63,1.63,0,0,1-.38,1.83,3,3,0,0,1-.93.61,2.83,2.83,0,0,1-1.15.22,1.68,1.68,0,0,1-1-.32,1.7,1.7,0,0,1-.6-.74,1.22,1.22,0,0,1-.1-.64,1.35,1.35,0,0,1,.17-.57l-1.87.77Zm3.61-.8a1.91,1.91,0,0,0-1,.75,1,1,0,0,0-.06.87,1.05,1.05,0,0,0,.68.6,1.92,1.92,0,0,0,1.26-.16,1.81,1.81,0,0,0,1-.75.94.94,0,0,0,.07-.87,1,1,0,0,0-.69-.58A1.88,1.88,0,0,0,393.57,286.28Z"/><path d="M393.56,291.66l3.24-3,.28.69-2,1.76c-.21.2-.44.38-.67.57a8.21,8.21,0,0,1,.83-.06l2.69-.11.27.67-4.43.12Z"/><path d="M397,296.41l.2.71a1.79,1.79,0,0,1-1.16-.22,2,2,0,0,1-.78-1,1.91,1.91,0,0,1,0-1.55,2.23,2.23,0,0,1,1.26-1.09,2.35,2.35,0,0,1,1.71-.12,1.85,1.85,0,0,1,1.06,1.08,1.75,1.75,0,0,1,0,1.47,2.22,2.22,0,0,1-1.27,1.09l-.18.07L396.58,294a1.56,1.56,0,0,0-.82.75,1.14,1.14,0,0,0,0,.94,1.08,1.08,0,0,0,.44.54A1.34,1.34,0,0,0,397,296.41Zm.18-2.57L398,296a1.37,1.37,0,0,0,.62-.55,1.08,1.08,0,0,0,.05-1,1.11,1.11,0,0,0-.61-.63A1.32,1.32,0,0,0,397.13,293.84Z"/><path d="M394.5,298.19l.6-.1a1.33,1.33,0,0,0,.08.32.37.37,0,0,0,.25.25,1.4,1.4,0,0,0,.7-.18l4-1.65.27.65-4.05,1.66a2,2,0,0,1-1.06.22,1,1,0,0,1-.68-.63A2.15,2.15,0,0,1,394.5,298.19Zm6.37-1.65.75-.31.27.65-.75.31Z"/><ellipse class="cls-7" cx="252.75" cy="344.75" rx="54.75" ry="55.25"/><path d="M124.68,55.28l-1.9-5.4.71-.25.78,2.22,2.81-1-.78-2.22.71-.25,1.91,5.4-.72.25-.89-2.55-2.81,1,.9,2.55Z"/><path d="M129.09,51.53a2.14,2.14,0,0,1,0-1.83,2.05,2.05,0,0,1,1.08-.87,1.85,1.85,0,0,1,1.5.07,2.12,2.12,0,0,1,1,1.28,2.82,2.82,0,0,1,.2,1.26,1.65,1.65,0,0,1-.43.91,2,2,0,0,1-.86.57,1.84,1.84,0,0,1-1.51-.05A2.25,2.25,0,0,1,129.09,51.53Zm.68-.24a1.84,1.84,0,0,0,.72,1,1.15,1.15,0,0,0,1,.08,1.12,1.12,0,0,0,.69-.67,1.82,1.82,0,0,0-.08-1.26,1.7,1.7,0,0,0-.72-1,1.13,1.13,0,0,0-1-.09,1.12,1.12,0,0,0-.69.67A1.75,1.75,0,0,0,129.77,51.29Z"/><path d="M134.21,51.92,132.83,48l.6-.21.21.6a1.79,1.79,0,0,1,.22-.7.75.75,0,0,1,.38-.28,1.38,1.38,0,0,1,.76,0v.69a1.2,1.2,0,0,0-.54,0,.65.65,0,0,0-.34.27.7.7,0,0,0-.12.45,2.7,2.7,0,0,0,.16.81l.73,2Z"/><path d="M136.73,51l-1.38-3.92.6-.21.19.56a1.5,1.5,0,0,1,1-1.08,1.74,1.74,0,0,1,.7-.11,1.2,1.2,0,0,1,.56.18,1.42,1.42,0,0,1,.38.42,4.89,4.89,0,0,1,.26.63l.85,2.4-.66.24-.84-2.38a2.36,2.36,0,0,0-.29-.58.64.64,0,0,0-.39-.22.91.91,0,0,0-.51,0,1.1,1.1,0,0,0-.63.53,1.4,1.4,0,0,0,0,1.13l.75,2.13Z"/><path d="M141.54,49.33l-.62.22-1.9-5.4.66-.24.68,1.93a1.4,1.4,0,0,1,.88-.91,1.88,1.88,0,0,1,.74-.09,1.4,1.4,0,0,1,.67.22,1.8,1.8,0,0,1,.55.52,2.69,2.69,0,0,1,.4.75,2.37,2.37,0,0,1,.06,1.73,1.65,1.65,0,0,1-1,1,1.3,1.3,0,0,1-1.29-.19Zm-.71-2a2.2,2.2,0,0,0,.55.94,1,1,0,0,0,1,.22,1.05,1.05,0,0,0,.62-.65,1.85,1.85,0,0,0-.08-1.23,1.9,1.9,0,0,0-.71-1,1,1,0,0,0-.86-.1,1,1,0,0,0-.62.64A1.78,1.78,0,0,0,140.83,47.35Z"/><path d="M145.11,48.07l-1.91-5.4.66-.24,1.91,5.4Z"/><path d="M149.18,46.09a2.87,2.87,0,0,1-.55.69,2.58,2.58,0,0,1-.69.39,1.5,1.5,0,0,1-1.1,0,1.09,1.09,0,0,1-.63-.68,1.12,1.12,0,0,1-.06-.57,1.28,1.28,0,0,1,.21-.51,1.82,1.82,0,0,1,.4-.38c.12-.08.31-.18.56-.31a6.85,6.85,0,0,0,1.1-.64l-.06-.18a.72.72,0,0,0-.39-.5,1.15,1.15,0,0,0-.83,0,1.18,1.18,0,0,0-.64.41,1,1,0,0,0-.12.69l-.68.14a1.75,1.75,0,0,1,.05-.77,1.4,1.4,0,0,1,.45-.6,2.57,2.57,0,0,1,.84-.45,2.32,2.32,0,0,1,.85-.17,1.14,1.14,0,0,1,.57.13,1,1,0,0,1,.36.38,2.72,2.72,0,0,1,.25.6l.32.88a10.49,10.49,0,0,0,.45,1.16,1.65,1.65,0,0,0,.34.41l-.7.24A1.56,1.56,0,0,1,149.18,46.09Zm-.58-1.47a4.85,4.85,0,0,1-1,.64,2.64,2.64,0,0,0-.53.33.64.64,0,0,0-.19.31.6.6,0,0,0,0,.35.58.58,0,0,0,.36.37.93.93,0,0,0,.65,0,1.5,1.5,0,0,0,.62-.41,1,1,0,0,0,.27-.61,1.67,1.67,0,0,0-.12-.7Z"/><path d="M153.53,45.09l-.17-.49a1.3,1.3,0,0,1-.89,1,1.62,1.62,0,0,1-.95,0,1.87,1.87,0,0,1-.87-.5,2.83,2.83,0,0,1-.59-1,3.29,3.29,0,0,1-.18-1.13,1.63,1.63,0,0,1,1.11-1.5,1.39,1.39,0,0,1,.69-.07,1.29,1.29,0,0,1,.58.23l-.68-1.94.66-.24,1.91,5.4Zm-2.78-1.21a1.75,1.75,0,0,0,.71,1,1,1,0,0,0,1.49-.51,1.74,1.74,0,0,0-.08-1.19,2,2,0,0,0-.72-1.07,1,1,0,0,0-.9-.1,1,1,0,0,0-.61.62A1.86,1.86,0,0,0,150.75,43.88Z"/><path d="M154.51,43.43l.62-.33a1,1,0,0,0,.52.49,1.12,1.12,0,0,0,.78,0,1.08,1.08,0,0,0,.61-.42.58.58,0,0,0,.07-.52.42.42,0,0,0-.32-.28,3.17,3.17,0,0,0-.76,0,5.83,5.83,0,0,1-1.12,0,1,1,0,0,1-.56-.22,1.06,1.06,0,0,1-.33-.47,1.07,1.07,0,0,1-.05-.53,1,1,0,0,1,.19-.48,1.51,1.51,0,0,1,.36-.35,2.12,2.12,0,0,1,.54-.28,2.3,2.3,0,0,1,.86-.15,1.15,1.15,0,0,1,.64.18,1.46,1.46,0,0,1,.44.52l-.62.32a.74.74,0,0,0-.42-.38,1,1,0,0,0-.66,0,1.19,1.19,0,0,0-.6.38.47.47,0,0,0-.07.42.39.39,0,0,0,.17.21.54.54,0,0,0,.31.08c.08,0,.29,0,.65,0a7.73,7.73,0,0,1,1.09,0,1,1,0,0,1,.92.7,1.27,1.27,0,0,1,0,.7,1.33,1.33,0,0,1-.4.65,2.19,2.19,0,0,1-.76.45,1.94,1.94,0,0,1-1.28.09A1.57,1.57,0,0,1,154.51,43.43Z"/><path d="M159,43.54l.68-.13a.61.61,0,0,0,.38.35,1.14,1.14,0,0,0,.74,0,1.27,1.27,0,0,0,.64-.43,1,1,0,0,0,.16-.64,4.47,4.47,0,0,0-.25-.87,1.46,1.46,0,0,1-.9.9,1.59,1.59,0,0,1-1.46-.14,2.4,2.4,0,0,1-.93-1.24,2.92,2.92,0,0,1-.17-1.11,1.83,1.83,0,0,1,.33-.94,1.69,1.69,0,0,1,.82-.57,1.46,1.46,0,0,1,1.34.15l-.17-.47.61-.22,1.2,3.39a3.53,3.53,0,0,1,.27,1.36,1.51,1.51,0,0,1-.38.81,2.22,2.22,0,0,1-.91.57,2,2,0,0,1-1.25.08A1.12,1.12,0,0,1,159,43.54ZM158.67,41a1.81,1.81,0,0,0,.7,1,1,1,0,0,0,.89.09,1.07,1.07,0,0,0,.65-.63,1.8,1.8,0,0,0-.08-1.21,1.74,1.74,0,0,0-.7-1,1,1,0,0,0-.9-.09,1,1,0,0,0-.63.62A1.7,1.7,0,0,0,158.67,41Z"/><path d="M165.54,40.31A2.89,2.89,0,0,1,165,41a2,2,0,0,1-.68.39,1.5,1.5,0,0,1-1.1,0,1.07,1.07,0,0,1-.63-.68,1.12,1.12,0,0,1-.06-.57,1.07,1.07,0,0,1,.21-.5,1.65,1.65,0,0,1,.4-.39c.12-.08.3-.18.55-.31a6.33,6.33,0,0,0,1.11-.64l-.06-.18a.78.78,0,0,0-.39-.5,1.18,1.18,0,0,0-.84,0,1.25,1.25,0,0,0-.63.41,1,1,0,0,0-.12.69l-.68.15a1.79,1.79,0,0,1,.05-.78,1.32,1.32,0,0,1,.45-.6,2.77,2.77,0,0,1,.84-.45,2.28,2.28,0,0,1,.85-.17,1.14,1.14,0,0,1,.57.13,1.1,1.1,0,0,1,.36.38,4.17,4.17,0,0,1,.25.6l.31.88a9.07,9.07,0,0,0,.46,1.16,1.86,1.86,0,0,0,.33.41l-.69.24A1.27,1.27,0,0,1,165.54,40.31ZM165,38.85a5.53,5.53,0,0,1-1,.63,3.29,3.29,0,0,0-.53.34.67.67,0,0,0-.18.3.59.59,0,0,0,0,.35.59.59,0,0,0,.35.37.92.92,0,0,0,.65,0,1.39,1.39,0,0,0,.63-.41,1.09,1.09,0,0,0,.27-.61,1.58,1.58,0,0,0-.13-.7Z"/><path d="M169.89,39.31l-.18-.49a1.28,1.28,0,0,1-.88,1,1.65,1.65,0,0,1-1,0,1.76,1.76,0,0,1-.86-.5,2.69,2.69,0,0,1-.59-1,2.87,2.87,0,0,1-.18-1.13,1.67,1.67,0,0,1,.33-.94,1.64,1.64,0,0,1,.78-.56,1.35,1.35,0,0,1,.68-.07,1.33,1.33,0,0,1,.59.23l-.68-1.94.66-.23,1.9,5.4ZM167.1,38.1a1.8,1.8,0,0,0,.72,1,1,1,0,0,0,1.49-.51,1.74,1.74,0,0,0-.08-1.19,2,2,0,0,0-.73-1.07,1,1,0,0,0-.89-.1.94.94,0,0,0-.61.62A1.85,1.85,0,0,0,167.1,38.1Z"/><path d="M173.78,36.52l.71-.15a1.69,1.69,0,0,1-.27,1.14,2.14,2.14,0,0,1-2.55.68,2.18,2.18,0,0,1-1-1.31,2.26,2.26,0,0,1,0-1.71,1.84,1.84,0,0,1,1.13-1,1.79,1.79,0,0,1,1.47.08,2.25,2.25,0,0,1,1,1.33,1.84,1.84,0,0,0,.06.18l-2.92,1a1.6,1.6,0,0,0,.71.86,1.22,1.22,0,0,0,1.5-.36A1.4,1.4,0,0,0,173.78,36.52Zm-2.56-.3,2.19-.77a1.37,1.37,0,0,0-.52-.65,1.07,1.07,0,0,0-.95-.1,1.09,1.09,0,0,0-.66.58A1.26,1.26,0,0,0,171.22,36.22Z"/><path d="M206.18,148.81l1.57-5.51,3.71,1.06-.18.65-3-.85-.49,1.71,2.59.73-.19.65-2.58-.73-.72,2.5Z"/><path d="M210.74,150.11l1.14-4,.61.18-.17.6a1.56,1.56,0,0,1,.59-.43.75.75,0,0,1,.47,0,1.4,1.4,0,0,1,.63.42l-.41.56a1.12,1.12,0,0,0-.45-.29.73.73,0,0,0-.44,0,.86.86,0,0,0-.36.3,2.77,2.77,0,0,0-.33.76l-.6,2.09Z"/><path d="M216.06,151.1a2.63,2.63,0,0,1-.85.24,2.15,2.15,0,0,1-.79-.08,1.55,1.55,0,0,1-.92-.61,1.17,1.17,0,0,1,.17-1.42,1.32,1.32,0,0,1,.46-.29,2,2,0,0,1,.55-.08,5.36,5.36,0,0,1,.63.07,6.17,6.17,0,0,0,1.27.11l.06-.18a.78.78,0,0,0,0-.63,1.19,1.19,0,0,0-.7-.45,1.25,1.25,0,0,0-.76,0,1,1,0,0,0-.5.49L214,148a1.78,1.78,0,0,1,.5-.6,1.36,1.36,0,0,1,.71-.23,2.7,2.7,0,0,1,.94.12,2.4,2.4,0,0,1,.8.35,1.15,1.15,0,0,1,.38.44,1.08,1.08,0,0,1,.08.52,4.51,4.51,0,0,1-.14.63l-.26.91a10.16,10.16,0,0,0-.3,1.2,1.9,1.9,0,0,0,0,.53l-.71-.2A1.36,1.36,0,0,1,216.06,151.1Zm.37-1.53a5.2,5.2,0,0,1-1.18-.06,2.38,2.38,0,0,0-.62,0,.62.62,0,0,0-.33.14.6.6,0,0,0-.19.3.58.58,0,0,0,.08.51,1,1,0,0,0,.54.35,1.47,1.47,0,0,0,.75,0,1.07,1.07,0,0,0,.58-.34,1.66,1.66,0,0,0,.3-.64Z"/><path d="M217.59,152.07l1.14-4,.61.17-.16.57a1.46,1.46,0,0,1,1.45-.3,1.87,1.87,0,0,1,.63.32,1.12,1.12,0,0,1,.36.47,1.28,1.28,0,0,1,.06.56,4.09,4.09,0,0,1-.15.67l-.7,2.45-.67-.19.69-2.43a2,2,0,0,0,.1-.64.74.74,0,0,0-.19-.41.91.91,0,0,0-.44-.25,1.11,1.11,0,0,0-.82.06,1.38,1.38,0,0,0-.61,1l-.62,2.18Z"/><path d="M221.87,153.29l1.57-5.51.68.19-.89,3.14,2.06-1.16.87.25-1.94,1,1,3-.83-.24-.74-2.41-.61.32-.45,1.58Z"/><path d="M225.71,154.38l1.14-4,.61.17-.18.61a1.79,1.79,0,0,1,.59-.44.79.79,0,0,1,.48,0,1.35,1.35,0,0,1,.63.42l-.41.56a1,1,0,0,0-.46-.29.64.64,0,0,0-.43,0,.66.66,0,0,0-.36.3,2.86,2.86,0,0,0-.34.75l-.59,2.09Z"/><path d="M229.63,150.38l.22-.77.68.19-.22.78Zm-1.35,4.73,1.14-4,.68.2-1.14,4Z"/><path d="M229.77,155.89l.63.29a.65.65,0,0,0,.1.51,1.51,1.51,0,0,0,1.42.4,1,1,0,0,0,.49-.43,4.26,4.26,0,0,0,.3-.85,1.5,1.5,0,0,1-1.26.21,1.6,1.6,0,0,1-1.1-1,2.41,2.41,0,0,1,0-1.55,2.87,2.87,0,0,1,.51-1,1.73,1.73,0,0,1,.81-.57,1.7,1.7,0,0,1,1,0,1.45,1.45,0,0,1,1,.9l.14-.48.62.18-1,3.45a3.39,3.39,0,0,1-.57,1.26,1.43,1.43,0,0,1-.77.45,2.14,2.14,0,0,1-1.08-.07,2,2,0,0,1-1.06-.65A1.15,1.15,0,0,1,229.77,155.89Zm1.24-2.23a1.77,1.77,0,0,0,0,1.23,1,1,0,0,0,.68.58,1,1,0,0,0,.88-.13,1.78,1.78,0,0,0,.64-1,1.71,1.71,0,0,0,0-1.19,1.06,1.06,0,0,0-.68-.6,1,1,0,0,0-.87.15A1.7,1.7,0,0,0,231,153.66Z"/><path d="M234.34,155.55l.7.09a1,1,0,0,0,.13.7,1.15,1.15,0,0,0,.66.42,1.13,1.13,0,0,0,.75,0,.62.62,0,0,0,.35-.38.43.43,0,0,0-.1-.42,2.76,2.76,0,0,0-.62-.43,5.53,5.53,0,0,1-.94-.62,1,1,0,0,1-.33-.5,1,1,0,0,1,0-.58,1.06,1.06,0,0,1,.26-.46,1.18,1.18,0,0,1,.44-.28,1.35,1.35,0,0,1,.48-.07,1.86,1.86,0,0,1,.61.08,2.41,2.41,0,0,1,.79.37,1.18,1.18,0,0,1,.42.52,1.34,1.34,0,0,1,.05.68l-.68-.1a.74.74,0,0,0-.13-.55,1,1,0,0,0-.56-.35,1.1,1.1,0,0,0-.71,0,.45.45,0,0,0-.3.3.39.39,0,0,0,0,.26.57.57,0,0,0,.2.25c.06,0,.25.16.55.35a7,7,0,0,1,.91.6,1,1,0,0,1,.35.48,1,1,0,0,1,0,.62,1.16,1.16,0,0,1-.37.58,1.24,1.24,0,0,1-.7.3,2.11,2.11,0,0,1-.89-.07,2,2,0,0,1-1.1-.66A1.56,1.56,0,0,1,234.34,155.55Z"/><path d="M238.11,157.91l1.57-5.5.68.19-.56,2a1.55,1.55,0,0,1,1.35-.21,1.67,1.67,0,0,1,.72.39,1.15,1.15,0,0,1,.33.62,2.26,2.26,0,0,1-.12.93l-.72,2.53-.67-.19.72-2.53a1.08,1.08,0,0,0,0-.8.85.85,0,0,0-.56-.41,1.06,1.06,0,0,0-.61,0,.85.85,0,0,0-.49.31,2,2,0,0,0-.33.7l-.62,2.19Z"/><path d="M245,159.88l.17-.59a1.51,1.51,0,0,1-1.46.32,1.74,1.74,0,0,1-.62-.32,1.16,1.16,0,0,1-.36-.47,1.46,1.46,0,0,1-.07-.56,3.68,3.68,0,0,1,.14-.65l.71-2.47.67.19-.63,2.22a4.27,4.27,0,0,0-.16.72.73.73,0,0,0,.15.5.81.81,0,0,0,.47.29,1.15,1.15,0,0,0,.61,0,.86.86,0,0,0,.5-.32,1.9,1.9,0,0,0,.33-.74l.61-2.14.68.19-1.14,4Z"/><path d="M246.74,159.09l.7.08a1,1,0,0,0,.14.71,1.15,1.15,0,0,0,.66.42,1.09,1.09,0,0,0,.74,0,.55.55,0,0,0,.35-.38.41.41,0,0,0-.09-.42,4,4,0,0,0-.63-.42,6.82,6.82,0,0,1-.94-.62,1,1,0,0,1-.32-.5,1,1,0,0,1,0-.58,1.1,1.1,0,0,1,.26-.46,1.14,1.14,0,0,1,.44-.28,1.36,1.36,0,0,1,.49-.08,2.2,2.2,0,0,1,.61.09,2.35,2.35,0,0,1,.78.37,1.22,1.22,0,0,1,.42.51,1.51,1.51,0,0,1,.06.69l-.69-.1a.77.77,0,0,0-.12-.56,1,1,0,0,0-.56-.34,1.19,1.19,0,0,0-.71,0,.48.48,0,0,0-.3.31.39.39,0,0,0,0,.26.78.78,0,0,0,.21.25c.06,0,.24.16.55.34s.74.47.91.6a1.12,1.12,0,0,1,.34.48,1,1,0,0,1,0,.63,1.16,1.16,0,0,1-.38.58,1.35,1.35,0,0,1-.7.3,2.12,2.12,0,0,1-.89-.08,2,2,0,0,1-1.09-.66A1.58,1.58,0,0,1,246.74,159.09Z"/><path d="M253.62,160.94l.67.29a1.76,1.76,0,0,1-.88.77,1.87,1.87,0,0,1-1.24,0,1.93,1.93,0,0,1-1.24-.94,2.64,2.64,0,0,1,.89-3.07,1.81,1.81,0,0,1,1.5-.17,1.75,1.75,0,0,1,1.15.91,2.22,2.22,0,0,1,.07,1.68l0,.18-3-.85a1.59,1.59,0,0,0,.09,1.12,1.13,1.13,0,0,0,.73.58,1.08,1.08,0,0,0,.69,0A1.39,1.39,0,0,0,253.62,160.94Zm-1.91-1.72,2.23.63a1.49,1.49,0,0,0,0-.83,1.08,1.08,0,0,0-.73-.62,1.14,1.14,0,0,0-.87.08A1.31,1.31,0,0,0,251.71,159.22Z"/><path d="M254.8,162.67l1.14-4,.6.17-.16.57a1.53,1.53,0,0,1,1.46-.3,1.87,1.87,0,0,1,.63.32,1.16,1.16,0,0,1,.35.47,1.46,1.46,0,0,1,.07.56,3.88,3.88,0,0,1-.15.67l-.7,2.45-.68-.19.7-2.43a1.89,1.89,0,0,0,.09-.64.64.64,0,0,0-.18-.4,1,1,0,0,0-.44-.26,1.16,1.16,0,0,0-.82.06,1.35,1.35,0,0,0-.61,1l-.63,2.18Z"/><path d="M262.17,163.38l.68.29a1.81,1.81,0,0,1-.88.77,1.93,1.93,0,0,1-1.24,0,1.9,1.9,0,0,1-1.24-.94,2.21,2.21,0,0,1-.08-1.66,2.27,2.27,0,0,1,1-1.41,1.84,1.84,0,0,1,1.51-.17,1.75,1.75,0,0,1,1.15.91,2.27,2.27,0,0,1,.07,1.68l-.06.18-3-.85a1.62,1.62,0,0,0,.08,1.11,1.16,1.16,0,0,0,.74.59,1.08,1.08,0,0,0,.69,0A1.32,1.32,0,0,0,262.17,163.38Zm-1.9-1.72,2.22.63a1.33,1.33,0,0,0,0-.83,1.08,1.08,0,0,0-.72-.63,1.17,1.17,0,0,0-.88.09A1.26,1.26,0,0,0,260.27,161.66Z"/><path d="M289,201.57v-5.72h2.54a3.46,3.46,0,0,1,1.16.15,1.27,1.27,0,0,1,.64.55,1.62,1.62,0,0,1,.24.86,1.46,1.46,0,0,1-.4,1A2,2,0,0,1,292,199a2.05,2.05,0,0,1,.46.28,4.19,4.19,0,0,1,.63.77l1,1.55h-1l-.76-1.19c-.22-.34-.4-.6-.54-.79a1.91,1.91,0,0,0-.39-.38,1.26,1.26,0,0,0-.34-.15,2.17,2.17,0,0,0-.43,0h-.88v2.54Zm.75-3.19h1.63a2.53,2.53,0,0,0,.82-.11.86.86,0,0,0,.44-.35.9.9,0,0,0,.15-.51.85.85,0,0,0-.29-.67,1.41,1.41,0,0,0-.93-.26h-1.82Z"/><path d="M297.74,197.67l.38-.5.38.28-.42.53a2.57,2.57,0,0,1,.34.61,3.14,3.14,0,0,1,.12.91,2.13,2.13,0,0,1-.66,1.73,2,2,0,0,1-1.29.44,2,2,0,0,1-1.1-.31l-.41.52-.37-.27.42-.56a1.57,1.57,0,0,1-.32-.53,2.61,2.61,0,0,1-.16-1,2.21,2.21,0,0,1,.57-1.7,2,2,0,0,1,1.35-.53,2.16,2.16,0,0,1,.59.08A3.17,3.17,0,0,1,297.74,197.67Zm-.4.52a1.23,1.23,0,0,0-.75-.28,1.15,1.15,0,0,0-.87.4,1.78,1.78,0,0,0-.35,1.19,2.06,2.06,0,0,0,.21,1Zm.29.38-1.75,2.27a1,1,0,0,0,.69.25,1.12,1.12,0,0,0,.89-.4,1.71,1.71,0,0,0,.36-1.19,2.54,2.54,0,0,0-.05-.52A2,2,0,0,0,297.63,198.57Z"/><path d="M302.25,201.57v-.52a1.29,1.29,0,0,1-1.16.62,1.58,1.58,0,0,1-.91-.28,1.8,1.8,0,0,1-.65-.76,2.68,2.68,0,0,1-.22-1.13,3.06,3.06,0,0,1,.2-1.12,1.62,1.62,0,0,1,1.55-1,1.35,1.35,0,0,1,.67.16,1.44,1.44,0,0,1,.47.41v-2.05h.7v5.72ZM300,199.5a1.85,1.85,0,0,0,.33,1.2,1,1,0,0,0,.8.39,1,1,0,0,0,.78-.38,1.7,1.7,0,0,0,.32-1.15,2,2,0,0,0-.33-1.25,1,1,0,0,0-.8-.4,1,1,0,0,0-.79.39A1.86,1.86,0,0,0,300,199.5Z"/><path d="M306.85,200.24l.73.09a1.85,1.85,0,0,1-.64,1,2,2,0,0,1-1.19.35,1.89,1.89,0,0,1-1.44-.56,2.19,2.19,0,0,1-.54-1.57,2.31,2.31,0,0,1,.54-1.63,1.82,1.82,0,0,1,1.4-.58,1.76,1.76,0,0,1,1.36.57,2.26,2.26,0,0,1,.53,1.59,1.49,1.49,0,0,1,0,.19H304.5a1.64,1.64,0,0,0,.39,1,1.21,1.21,0,0,0,1.53.16A1.4,1.4,0,0,0,306.85,200.24Zm-2.31-1.14h2.32a1.33,1.33,0,0,0-.27-.78,1.07,1.07,0,0,0-.87-.41,1.12,1.12,0,0,0-.81.32A1.29,1.29,0,0,0,304.54,199.1Z"/><path d="M308.33,201.92l.68.1a.67.67,0,0,0,.24.46,1.18,1.18,0,0,0,.72.2,1.26,1.26,0,0,0,.75-.2.93.93,0,0,0,.36-.55,4.38,4.38,0,0,0,.05-.9,1.45,1.45,0,0,1-1.15.54,1.55,1.55,0,0,1-1.32-.61,2.34,2.34,0,0,1-.47-1.48,2.84,2.84,0,0,1,.21-1.1,1.72,1.72,0,0,1,.63-.77,1.62,1.62,0,0,1,1-.28,1.5,1.5,0,0,1,1.21.6v-.5h.64V201a3.39,3.39,0,0,1-.19,1.37,1.39,1.39,0,0,1-.63.64,2.09,2.09,0,0,1-1,.24,1.94,1.94,0,0,1-1.2-.34A1.12,1.12,0,0,1,308.33,201.92Zm.58-2.49a1.78,1.78,0,0,0,.33,1.19,1,1,0,0,0,.81.37,1,1,0,0,0,.81-.37,1.74,1.74,0,0,0,.33-1.17,1.68,1.68,0,0,0-.34-1.15,1.05,1.05,0,0,0-.81-.39,1,1,0,0,0-.8.38A1.72,1.72,0,0,0,308.91,199.43Z"/><path d="M315.61,201.06a2.63,2.63,0,0,1-.75.47,2.19,2.19,0,0,1-.77.14,1.46,1.46,0,0,1-1-.34,1.07,1.07,0,0,1-.37-.85,1.08,1.08,0,0,1,.14-.56,1.16,1.16,0,0,1,.36-.4,1.69,1.69,0,0,1,.51-.23,4.89,4.89,0,0,1,.62-.11,5.6,5.6,0,0,0,1.26-.24v-.18a.8.8,0,0,0-.2-.61,1.51,1.51,0,0,0-1.53-.06,1,1,0,0,0-.35.61l-.69-.09a1.66,1.66,0,0,1,.31-.71,1.36,1.36,0,0,1,.62-.42,2.69,2.69,0,0,1,.94-.15,2.29,2.29,0,0,1,.86.13,1.09,1.09,0,0,1,.49.31,1.06,1.06,0,0,1,.22.48,4.27,4.27,0,0,1,0,.65v.94a10.46,10.46,0,0,0,0,1.24,1.45,1.45,0,0,0,.18.49h-.74A1.46,1.46,0,0,1,315.61,201.06Zm-.05-1.57a4.75,4.75,0,0,1-1.15.27,2.76,2.76,0,0,0-.62.14.62.62,0,0,0-.37.56.61.61,0,0,0,.21.47.94.94,0,0,0,.62.19,1.44,1.44,0,0,0,.73-.18,1.09,1.09,0,0,0,.46-.49,1.6,1.6,0,0,0,.12-.7Zm-1.68-3.14a.68.68,0,0,1,.2-.49.7.7,0,0,1,1,0,.74.74,0,0,1,0,1,.7.7,0,0,1-1,0A.73.73,0,0,1,313.88,196.35Zm.29,0a.4.4,0,0,0,.13.31.39.39,0,0,0,.29.13.43.43,0,0,0,0-.86.36.36,0,0,0-.29.13A.37.37,0,0,0,314.17,196.35Z"/><path d="M317.35,201.57v-4.14H318v.62a1.76,1.76,0,0,1,.45-.58.82.82,0,0,1,.45-.14,1.36,1.36,0,0,1,.72.23l-.24.65a1,1,0,0,0-.52-.15.62.62,0,0,0-.41.14.74.74,0,0,0-.26.38,2.71,2.71,0,0,0-.12.82v2.17Z"/><path d="M322.71,201.57v-.52a1.29,1.29,0,0,1-1.16.62,1.58,1.58,0,0,1-.91-.28,1.71,1.71,0,0,1-.64-.76,2.54,2.54,0,0,1-.23-1.13,3.06,3.06,0,0,1,.2-1.12,1.62,1.62,0,0,1,1.55-1,1.35,1.35,0,0,1,.67.16,1.59,1.59,0,0,1,.48.41v-2.05h.69v5.72Zm-2.22-2.07a1.79,1.79,0,0,0,.34,1.2,1,1,0,0,0,.79.39,1,1,0,0,0,.78-.38,1.7,1.7,0,0,0,.32-1.15,2,2,0,0,0-.32-1.25,1,1,0,0,0-.81-.4,1,1,0,0,0-.79.39A1.86,1.86,0,0,0,320.49,199.5Z"/><path d="M358.06,380.37l1.27-.12a1.55,1.55,0,0,0,.46.94,1.76,1.76,0,0,0,1.89,0,.81.81,0,0,0,.32-.62.61.61,0,0,0-.13-.39,1.08,1.08,0,0,0-.47-.28c-.16-.05-.5-.15-1-.28a3.64,3.64,0,0,1-1.47-.64,1.67,1.67,0,0,1-.6-1.3,1.74,1.74,0,0,1,.28-.92,1.82,1.82,0,0,1,.81-.65,3.21,3.21,0,0,1,1.27-.22,2.69,2.69,0,0,1,1.82.53,1.91,1.91,0,0,1,.65,1.42l-1.31.05a1.07,1.07,0,0,0-.35-.71,1.3,1.3,0,0,0-.83-.22,1.47,1.47,0,0,0-.89.24.48.48,0,0,0-.2.4.49.49,0,0,0,.19.39,3.64,3.64,0,0,0,1.2.43,6.3,6.3,0,0,1,1.4.46,1.81,1.81,0,0,1,.71.66,1.88,1.88,0,0,1,.26,1,1.86,1.86,0,0,1-.31,1,1.83,1.83,0,0,1-.87.72,3.76,3.76,0,0,1-1.4.23,2.85,2.85,0,0,1-1.88-.56A2.53,2.53,0,0,1,358.06,380.37Z"/><path d="M367.46,382.47v-.7a1.91,1.91,0,0,1-.67.59,1.93,1.93,0,0,1-.88.21,1.8,1.8,0,0,1-.84-.2,1.21,1.21,0,0,1-.54-.58,2.48,2.48,0,0,1-.17-1V377.8h1.23V380a6.32,6.32,0,0,0,.07,1.2.65.65,0,0,0,.25.35.74.74,0,0,0,.46.13.91.91,0,0,0,.56-.17.9.9,0,0,0,.35-.43,5.11,5.11,0,0,0,.09-1.26v-2h1.23v4.67Z"/><path d="M374.13,382.47h-1.24v-2.38a3.37,3.37,0,0,0-.08-1,.75.75,0,0,0-.25-.35.77.77,0,0,0-.43-.12,1,1,0,0,0-.58.18.89.89,0,0,0-.35.46,4.24,4.24,0,0,0-.09,1.07v2.12h-1.24V377.8H371v.69a1.87,1.87,0,0,1,1.54-.79,2,2,0,0,1,.75.14,1.36,1.36,0,0,1,.51.38,1.46,1.46,0,0,1,.24.52,4.19,4.19,0,0,1,.07.83Z"/><path d="M379.66,382.47h-1.15v-.69a1.81,1.81,0,0,1-.67.6,1.73,1.73,0,0,1-.79.19,1.77,1.77,0,0,1-1.37-.64,3.16,3.16,0,0,1,0-3.62,1.81,1.81,0,0,1,1.41-.61,1.75,1.75,0,0,1,1.36.65V376h1.23ZM376.37,380a2.11,2.11,0,0,0,.2,1.08.93.93,0,0,0,.84.49.91.91,0,0,0,.72-.36,1.71,1.71,0,0,0,.3-1.09,1.88,1.88,0,0,0-.29-1.16.92.92,0,0,0-.74-.35.94.94,0,0,0-.74.35A1.56,1.56,0,0,0,376.37,380Z"/><path d="M380.83,382.47V376h1.23v2.32a1.72,1.72,0,0,1,1.35-.65,1.81,1.81,0,0,1,1.41.61,2.55,2.55,0,0,1,.56,1.78,2.7,2.7,0,0,1-.57,1.84,1.77,1.77,0,0,1-1.38.64,1.65,1.65,0,0,1-.79-.2,1.87,1.87,0,0,1-.67-.59v.69Zm1.22-2.44a2,2,0,0,0,.23,1.08,1,1,0,0,0,.85.49.88.88,0,0,0,.7-.35,1.72,1.72,0,0,0,.29-1.1,1.86,1.86,0,0,0-.29-1.16.94.94,0,0,0-.75-.35.92.92,0,0,0-.73.35A1.54,1.54,0,0,0,382.05,380Z"/><path d="M385.79,377.8h1.32l1.11,3.31,1.09-3.31h1.28l-1.65,4.49-.29.82a3.21,3.21,0,0,1-.31.62,1.42,1.42,0,0,1-.34.35,1.46,1.46,0,0,1-.47.21,2.48,2.48,0,0,1-.63.07,3.26,3.26,0,0,1-.7-.07l-.11-1a2.59,2.59,0,0,0,.52.06.81.81,0,0,0,.64-.25,1.88,1.88,0,0,0,.32-.65Z"/><path d="M394.89,378.08l.46-.53.49.41-.47.54a2.4,2.4,0,0,1,.41.74,2.75,2.75,0,0,1,.16.9,2.36,2.36,0,0,1-2.43,2.43,2.49,2.49,0,0,1-1.35-.37l-.5.59-.48-.42.51-.59a2.33,2.33,0,0,1-.42-.76,2.85,2.85,0,0,1-.15-.91,2.38,2.38,0,0,1,.67-1.74,2.34,2.34,0,0,1,1.73-.67A2.41,2.41,0,0,1,394.89,378.08Zm-.69.8a1,1,0,0,0-.67-.24,1.1,1.1,0,0,0-.84.38,1.58,1.58,0,0,0-.35,1.08,2.36,2.36,0,0,0,.13.78Zm.38.53-1.73,2a1.08,1.08,0,0,0,.67.22,1.12,1.12,0,0,0,.85-.38,1.6,1.6,0,0,0,.34-1.07A2.06,2.06,0,0,0,394.58,379.41Z"/><path d="M396.45,381.14l1.23-.19a.88.88,0,0,0,.33.54,1,1,0,0,0,.67.19,1.27,1.27,0,0,0,.72-.17.42.42,0,0,0,.17-.33.32.32,0,0,0-.09-.24,1,1,0,0,0-.42-.16,6.82,6.82,0,0,1-1.89-.6,1.19,1.19,0,0,1-.55-1.05,1.28,1.28,0,0,1,.48-1,2.2,2.2,0,0,1,1.48-.41A2.56,2.56,0,0,1,400,378a1.57,1.57,0,0,1,.65.92l-1.17.22a.7.7,0,0,0-.28-.42,1,1,0,0,0-.6-.15,1.36,1.36,0,0,0-.7.14.3.3,0,0,0-.14.25.25.25,0,0,0,.13.22,4.17,4.17,0,0,0,1.15.35,3.39,3.39,0,0,1,1.38.55,1.14,1.14,0,0,1,.38.92,1.39,1.39,0,0,1-.53,1.1,2.38,2.38,0,0,1-1.59.46,2.68,2.68,0,0,1-1.51-.38A1.77,1.77,0,0,1,396.45,381.14Z"/><path d="M404,377.8v1h-.85v1.88a3.67,3.67,0,0,0,0,.66.23.23,0,0,0,.11.16.33.33,0,0,0,.21.06,1.6,1.6,0,0,0,.49-.12l.11,1a2.55,2.55,0,0,1-1,.18,1.46,1.46,0,0,1-.6-.11.8.8,0,0,1-.39-.29,1,1,0,0,1-.18-.48,7,7,0,0,1,0-.87v-2h-.56v-1h.56v-.93l1.24-.72v1.65Z"/><path d="M407.59,381l1.23.21a2.06,2.06,0,0,1-.75,1,2.17,2.17,0,0,1-1.28.35,2.09,2.09,0,0,1-1.81-.79,2.74,2.74,0,0,1-.46-1.61,2.62,2.62,0,0,1,.61-1.82,2,2,0,0,1,1.53-.65,2.1,2.1,0,0,1,1.65.68,3,3,0,0,1,.57,2.11h-3.09a1.28,1.28,0,0,0,.3.86.93.93,0,0,0,.71.3.74.74,0,0,0,.49-.16A1,1,0,0,0,407.59,381Zm.07-1.25a1.18,1.18,0,0,0-.28-.81.84.84,0,0,0-.64-.28.86.86,0,0,0-.67.3,1.11,1.11,0,0,0-.26.79Z"/><path d="M411.07,382.47h-1.23V377.8H411v.66a2,2,0,0,1,.53-.61,1,1,0,0,1,.54-.15,1.51,1.51,0,0,1,.81.23l-.38,1.08a1.06,1.06,0,0,0-.58-.21.65.65,0,0,0-.44.15.94.94,0,0,0-.29.51,7.36,7.36,0,0,0-.1,1.57Z"/><path d="M365.58,393.27v-6.44h1.24v3.41l1.44-1.64h1.52l-1.59,1.71,1.71,3h-1.34l-1.17-2.1-.57.6v1.5Z"/><path d="M370.63,388v-1.14h1.24V388Zm0,5.3V388.6h1.24v4.67Z"/><path d="M374.31,393.27h-1.23V388.6h1.14v.66a2,2,0,0,1,.53-.61,1,1,0,0,1,.54-.15,1.51,1.51,0,0,1,.81.23l-.38,1.08a1.06,1.06,0,0,0-.58-.21.67.67,0,0,0-.44.15.88.88,0,0,0-.28.51,7.14,7.14,0,0,0-.11,1.57Z"/><path d="M376.59,393.27v-6.44h1.23v3.41l1.45-1.64h1.52l-1.6,1.71,1.71,3h-1.33l-1.17-2.1-.58.6v1.5Z"/><path d="M384.34,391.78l1.23.21a2.06,2.06,0,0,1-.75,1,2.17,2.17,0,0,1-1.28.35,2.08,2.08,0,0,1-1.8-.79,2.67,2.67,0,0,1-.46-1.61,2.61,2.61,0,0,1,.6-1.82,2,2,0,0,1,1.54-.65,2.09,2.09,0,0,1,1.64.68,3.09,3.09,0,0,1,.58,2.11h-3.1a1.28,1.28,0,0,0,.3.86.94.94,0,0,0,.71.3.72.72,0,0,0,.49-.16A1,1,0,0,0,384.34,391.78Zm.07-1.25a1.18,1.18,0,0,0-.28-.81.83.83,0,0,0-.64-.28.88.88,0,0,0-.67.29,1.15,1.15,0,0,0-.25.8Z"/><path d="M386.53,393.58l1.41.17a.52.52,0,0,0,.16.34,1,1,0,0,0,.56.13,1.38,1.38,0,0,0,.72-.15.61.61,0,0,0,.25-.31,1.78,1.78,0,0,0,.06-.57v-.68a1.67,1.67,0,0,1-1.4.76,1.71,1.71,0,0,1-1.49-.8,2.68,2.68,0,0,1-.43-1.56,2.59,2.59,0,0,1,.56-1.79,1.82,1.82,0,0,1,1.41-.62,1.69,1.69,0,0,1,1.42.76v-.66h1.16v4.19a4.13,4.13,0,0,1-.14,1.23,1.48,1.48,0,0,1-.38.65,1.72,1.72,0,0,1-.66.36,3.35,3.35,0,0,1-1,.13,2.7,2.7,0,0,1-1.69-.4,1.29,1.29,0,0,1-.49-1Zm1.1-2.74a1.71,1.71,0,0,0,.29,1.09.88.88,0,0,0,.71.34,1,1,0,0,0,.76-.35,1.55,1.55,0,0,0,.32-1.05,1.66,1.66,0,0,0-.3-1.08,1,1,0,0,0-.76-.35.92.92,0,0,0-.73.35A1.62,1.62,0,0,0,387.63,390.84Z"/><path d="M393.06,390l-1.12-.2a1.81,1.81,0,0,1,.65-1,2.39,2.39,0,0,1,1.38-.32,3,3,0,0,1,1.23.19,1.24,1.24,0,0,1,.57.5,2.55,2.55,0,0,1,.16,1.1v1.44a5,5,0,0,0,.06.91,2.5,2.5,0,0,0,.22.63H395a2,2,0,0,1-.12-.37.93.93,0,0,0-.05-.14,2.23,2.23,0,0,1-.67.46,2,2,0,0,1-.77.15,1.61,1.61,0,0,1-1.14-.39,1.32,1.32,0,0,1-.41-1,1.27,1.27,0,0,1,.19-.7,1.18,1.18,0,0,1,.53-.48,3.94,3.94,0,0,1,1-.28,6.54,6.54,0,0,0,1.2-.31v-.12a.63.63,0,0,0-.18-.51,1.07,1.07,0,0,0-.66-.15.89.89,0,0,0-.52.13A1,1,0,0,0,393.06,390Zm1.66,1-.75.19a2.26,2.26,0,0,0-.68.21.53.53,0,0,0-.24.44.59.59,0,0,0,.2.44.64.64,0,0,0,.49.19,1.08,1.08,0,0,0,.64-.22.81.81,0,0,0,.29-.4,2.61,2.61,0,0,0,.05-.61Zm.15-3.66a.83.83,0,0,1-.26.61.8.8,0,0,1-.6.25.82.82,0,0,1-.61-.25.85.85,0,0,1,0-1.22.82.82,0,0,1,.61-.25.8.8,0,0,1,.6.25A.83.83,0,0,1,394.87,387.37Zm-.47,0a.38.38,0,0,0-.12-.28A.39.39,0,0,0,394,387a.39.39,0,0,0-.28.11.39.39,0,0,0,0,.56.39.39,0,0,0,.28.11.39.39,0,0,0,.27-.11A.38.38,0,0,0,394.4,387.37Z"/><path d="M398.33,393.27H397.1V388.6h1.14v.66a2,2,0,0,1,.53-.61,1,1,0,0,1,.54-.15,1.51,1.51,0,0,1,.81.23l-.38,1.08a1.09,1.09,0,0,0-.58-.21.65.65,0,0,0-.44.15.94.94,0,0,0-.29.51,7.36,7.36,0,0,0-.1,1.57Z"/><path d="M404.93,393.27h-1.15v-.69a1.81,1.81,0,0,1-.67.6,1.73,1.73,0,0,1-.79.19,1.77,1.77,0,0,1-1.37-.64,3.16,3.16,0,0,1,0-3.62,1.81,1.81,0,0,1,1.41-.61,1.75,1.75,0,0,1,1.36.65v-2.32h1.23Zm-3.3-2.44a2.09,2.09,0,0,0,.21,1.08.93.93,0,0,0,.84.49.91.91,0,0,0,.72-.36,1.71,1.71,0,0,0,.3-1.09,1.88,1.88,0,0,0-.29-1.16.92.92,0,0,0-.74-.35.94.94,0,0,0-.74.35A1.56,1.56,0,0,0,401.63,390.83Z"/><path d="M275.46,358.51l.82-.92.48.41-.85,1a4.52,4.52,0,0,1,.56,1.09,4.6,4.6,0,0,1,.2,1.38,4.16,4.16,0,0,1-.45,2,3,3,0,0,1-1.25,1.3,3.5,3.5,0,0,1-1.7.44,3.86,3.86,0,0,1-1.22-.19,4.1,4.1,0,0,1-1-.56l-.82.91-.49-.41.86-1a5.25,5.25,0,0,1-.64-1.24,4.45,4.45,0,0,1-.16-1.24,4.28,4.28,0,0,1,.44-2,3,3,0,0,1,1.23-1.31,3.52,3.52,0,0,1,1.77-.44,3.26,3.26,0,0,1,1.14.17A4,4,0,0,1,275.46,358.51Zm-.58.66a3.41,3.41,0,0,0-.81-.49,2.22,2.22,0,0,0-.81-.13,2.34,2.34,0,0,0-1.76.72,3,3,0,0,0-.7,2.17,3.53,3.53,0,0,0,.43,1.81Zm.4.5-3.63,4.07a3,3,0,0,0,.69.43,2.66,2.66,0,0,0,.9.16,2.29,2.29,0,0,0,1.76-.75,3,3,0,0,0,.69-2.11A3.85,3.85,0,0,0,275.28,359.67Z"/><path d="M277.79,365v-5.19h.79v.79a2,2,0,0,1,.56-.73.94.94,0,0,1,.56-.18,1.68,1.68,0,0,1,.9.29l-.3.81a1.34,1.34,0,0,0-.64-.19.85.85,0,0,0-.52.17,1,1,0,0,0-.33.49,3.31,3.31,0,0,0-.15,1V365Z"/><path d="M284.67,363.35l.91.11a2.21,2.21,0,0,1-.79,1.23,2.7,2.7,0,0,1-3.29-.26,2.69,2.69,0,0,1-.67-2,2.85,2.85,0,0,1,.68-2,2.25,2.25,0,0,1,1.74-.73,2.22,2.22,0,0,1,1.7.71,2.81,2.81,0,0,1,.66,2v.24h-3.87a2,2,0,0,0,.48,1.31,1.46,1.46,0,0,0,1.09.45,1.31,1.31,0,0,0,.82-.25A1.65,1.65,0,0,0,284.67,363.35Zm-2.88-1.42h2.89a1.66,1.66,0,0,0-.33-1,1.46,1.46,0,0,0-2.1-.1A1.59,1.59,0,0,0,281.79,361.93Z"/><path d="M286.33,363.47l.87-.14a1.22,1.22,0,0,0,.41.8,1.41,1.41,0,0,0,.94.28,1.36,1.36,0,0,0,.9-.25.73.73,0,0,0,.29-.57.54.54,0,0,0-.26-.47,3.66,3.66,0,0,0-.9-.3,8,8,0,0,1-1.34-.42,1.33,1.33,0,0,1-.57-.5,1.38,1.38,0,0,1-.19-.69,1.27,1.27,0,0,1,.16-.64,1.59,1.59,0,0,1,.43-.5,2,2,0,0,1,.56-.25,2.68,2.68,0,0,1,.76-.11,2.93,2.93,0,0,1,1.07.18,1.43,1.43,0,0,1,.68.48,1.84,1.84,0,0,1,.31.8l-.86.12a1,1,0,0,0-.34-.63,1.25,1.25,0,0,0-.8-.22,1.38,1.38,0,0,0-.86.2.58.58,0,0,0-.26.46.49.49,0,0,0,.11.31.76.76,0,0,0,.34.24l.77.22a10.39,10.39,0,0,1,1.3.41,1.34,1.34,0,0,1,.58.46,1.28,1.28,0,0,1,.21.75,1.41,1.41,0,0,1-.26.83,1.62,1.62,0,0,1-.73.6,2.77,2.77,0,0,1-1.1.21,2.44,2.44,0,0,1-1.54-.42A2,2,0,0,1,286.33,363.47Z"/><path d="M295.08,365v-.77a1.88,1.88,0,0,1-1.64.88,2.24,2.24,0,0,1-.86-.17,1.55,1.55,0,0,1-.59-.44,1.64,1.64,0,0,1-.27-.66,4.13,4.13,0,0,1-.05-.82v-3.21h.88v2.88a4.75,4.75,0,0,0,.05.92.91.91,0,0,0,.35.55,1.11,1.11,0,0,0,.67.2,1.41,1.41,0,0,0,.74-.21,1.14,1.14,0,0,0,.49-.55,2.9,2.9,0,0,0,.14-1v-2.78h.88V365Z"/><path d="M297.25,365v-5.19H298v.74a1.87,1.87,0,0,1,1.65-.86,2.2,2.2,0,0,1,.86.17,1.37,1.37,0,0,1,.59.44,1.72,1.72,0,0,1,.27.65,4.41,4.41,0,0,1,0,.86V365h-.88v-3.16a2.32,2.32,0,0,0-.1-.8.88.88,0,0,0-.36-.43,1.24,1.24,0,0,0-.62-.15,1.43,1.43,0,0,0-1,.35,1.77,1.77,0,0,0-.4,1.35V365Z"/><path d="M306.17,365v-.66a1.6,1.6,0,0,1-1.45.77,2,2,0,0,1-1.14-.34,2.27,2.27,0,0,1-.8-1,3.32,3.32,0,0,1-.29-1.41,3.73,3.73,0,0,1,.26-1.41,2,2,0,0,1,.78-1,2.1,2.1,0,0,1,1.15-.34,1.74,1.74,0,0,1,.84.2,1.77,1.77,0,0,1,.6.52v-2.57H307V365Zm-2.77-2.59a2.26,2.26,0,0,0,.42,1.49,1.25,1.25,0,0,0,2,0,2.21,2.21,0,0,0,.4-1.44,2.45,2.45,0,0,0-.41-1.56,1.28,1.28,0,0,0-1-.5,1.22,1.22,0,0,0-1,.48A2.38,2.38,0,0,0,303.4,362.43Z"/><path d="M308,363.47l.87-.14a1.17,1.17,0,0,0,.41.8,1.38,1.38,0,0,0,.93.28,1.36,1.36,0,0,0,.9-.25.7.7,0,0,0,.29-.57.52.52,0,0,0-.26-.47,3.69,3.69,0,0,0-.89-.3,7.92,7.92,0,0,1-1.35-.42,1.36,1.36,0,0,1-.56-.5,1.28,1.28,0,0,1-.19-.69,1.27,1.27,0,0,1,.16-.64,1.37,1.37,0,0,1,.43-.5,1.73,1.73,0,0,1,.56-.25,2.58,2.58,0,0,1,.76-.11,3,3,0,0,1,1.07.18,1.54,1.54,0,0,1,.68.48,1.84,1.84,0,0,1,.3.8l-.86.12a.94.94,0,0,0-.34-.63,1.22,1.22,0,0,0-.79-.22,1.43,1.43,0,0,0-.87.2.57.57,0,0,0-.25.46.48.48,0,0,0,.1.31.82.82,0,0,0,.34.24l.78.22a11,11,0,0,1,1.3.41,1.4,1.4,0,0,1,.58.46,1.28,1.28,0,0,1,.21.75,1.48,1.48,0,0,1-.26.83,1.65,1.65,0,0,1-.74.6,2.72,2.72,0,0,1-1.09.21,2.42,2.42,0,0,1-1.54-.42A1.92,1.92,0,0,1,308,363.47Z"/><path d="M314.81,365l-2-5.19h.93l1.11,3.11c.12.33.23.68.33,1q.12-.41.33-1l1.15-3.16h.9l-2,5.19Z"/><path d="M321.92,363.35l.91.11a2.17,2.17,0,0,1-.8,1.23,2.68,2.68,0,0,1-3.28-.26,2.69,2.69,0,0,1-.67-2,2.84,2.84,0,0,1,.67-2,2.26,2.26,0,0,1,1.75-.73,2.23,2.23,0,0,1,1.7.71,2.81,2.81,0,0,1,.66,2,2.37,2.37,0,0,1,0,.24H319a2,2,0,0,0,.48,1.31,1.44,1.44,0,0,0,1.08.45,1.34,1.34,0,0,0,.83-.25A1.65,1.65,0,0,0,321.92,363.35ZM319,361.93h2.89a1.81,1.81,0,0,0-.33-1,1.36,1.36,0,0,0-1.09-.5,1.41,1.41,0,0,0-1,.4A1.58,1.58,0,0,0,319,361.93Z"/><path d="M322.81,367l.17-.75a1.58,1.58,0,0,0,.42.07.48.48,0,0,0,.4-.18,1.94,1.94,0,0,0,.13-.89v-5.45h.88v5.47a2.61,2.61,0,0,1-.25,1.33,1.16,1.16,0,0,1-1.06.49A2.72,2.72,0,0,1,322.81,367Zm1.12-8.15v-1h.88v1Z"/><path d="M331.51,365V363.3H328.4v-.8l3.27-4.64h.71v4.64h1v.8h-1V365Zm0-2.52v-3.23l-2.25,3.23Z"/><path d="M334.72,365v-1h1v1a1.81,1.81,0,0,1-.19.89,1.29,1.29,0,0,1-.62.52l-.24-.37a1,1,0,0,0,.41-.36,1.69,1.69,0,0,0,.14-.68Z"/><path d="M271.12,373.13a1.65,1.65,0,0,1-.81-.57,1.51,1.51,0,0,1-.26-.89,1.75,1.75,0,0,1,.56-1.31,2.38,2.38,0,0,1,3,0,1.79,1.79,0,0,1,.57,1.33,1.51,1.51,0,0,1-.26.87,1.67,1.67,0,0,1-.8.56,1.92,1.92,0,0,1,1,.7,1.84,1.84,0,0,1,.35,1.14,2.05,2.05,0,0,1-.65,1.54,2.64,2.64,0,0,1-3.42,0,2.1,2.1,0,0,1-.65-1.56,1.85,1.85,0,0,1,.36-1.17A1.76,1.76,0,0,1,271.12,373.13Zm-.45,1.82a1.73,1.73,0,0,0,.17.73,1.31,1.31,0,0,0,.53.54,1.57,1.57,0,0,0,.76.2,1.42,1.42,0,0,0,1-.41,1.39,1.39,0,0,0,.41-1,1.42,1.42,0,0,0-.42-1.05,1.44,1.44,0,0,0-1.06-.41,1.39,1.39,0,0,0-1.43,1.43Zm.28-3.3a1.13,1.13,0,0,0,.33.83,1.26,1.26,0,0,0,1.68,0,1.15,1.15,0,0,0,0-1.6,1.13,1.13,0,0,0-.83-.33,1.17,1.17,0,0,0-.84.32A1.07,1.07,0,0,0,271,371.65Z"/><path d="M275.81,377v-1h1v1a1.8,1.8,0,0,1-.2.89,1.25,1.25,0,0,1-.62.52l-.24-.37a1,1,0,0,0,.41-.36,1.52,1.52,0,0,0,.15-.68Z"/><path d="M285.51,376.17V377h-4.73a1.54,1.54,0,0,1,.1-.61,3.16,3.16,0,0,1,.58-1,9,9,0,0,1,1.15-1.08,9.75,9.75,0,0,0,1.58-1.52,1.82,1.82,0,0,0,.41-1.05,1.16,1.16,0,0,0-.38-.88,1.34,1.34,0,0,0-1-.36,1.37,1.37,0,0,0-1,.38,1.42,1.42,0,0,0-.38,1.05l-.91-.09a2.28,2.28,0,0,1,.7-1.54,2.42,2.42,0,0,1,1.63-.53,2.26,2.26,0,0,1,1.63.57,1.87,1.87,0,0,1,.6,1.42,2.12,2.12,0,0,1-.18.84,3,3,0,0,1-.58.87,13,13,0,0,1-1.35,1.26c-.53.45-.87.75-1,.91a2.63,2.63,0,0,0-.37.47Z"/><path d="M286.46,375.13l.88-.12a2,2,0,0,0,.51,1.08,1.27,1.27,0,0,0,.89.33,1.47,1.47,0,0,0,1.05-.43,1.49,1.49,0,0,0,.42-1.07,1.34,1.34,0,0,0-1.4-1.39,2.32,2.32,0,0,0-.62.1l.1-.77h.14a1.79,1.79,0,0,0,1-.3,1,1,0,0,0,.45-.9,1.06,1.06,0,0,0-.33-.8,1.17,1.17,0,0,0-.84-.32,1.24,1.24,0,0,0-.86.32,1.72,1.72,0,0,0-.44,1l-.88-.16a2.3,2.3,0,0,1,.74-1.37,2.12,2.12,0,0,1,1.42-.48,2.32,2.32,0,0,1,1.08.25,1.8,1.8,0,0,1,.75.69,1.69,1.69,0,0,1,.26.92,1.46,1.46,0,0,1-.25.84.66.66,0,1,0,.25,1.22,1.79,1.79,0,0,1,.35,1.15,2.08,2.08,0,0,1-.68,1.59,2.39,2.39,0,0,1-1.73.65,2.2,2.2,0,0,1-1.56-.56A2.15,2.15,0,0,1,286.46,375.13Z"/><path d="M292,373.49a6.73,6.73,0,0,1,.26-2.05,2.64,2.64,0,0,1,.78-1.19,2,2,0,0,1,1.3-.42,2.18,2.18,0,0,1,1,.23,2,2,0,0,1,.72.67,4,4,0,0,1,.44,1.06,7,7,0,0,1,.16,1.7,6.34,6.34,0,0,1-.26,2,2.58,2.58,0,0,1-.77,1.2,2.19,2.19,0,0,1-2.93-.32A4.75,4.75,0,0,1,292,373.49Zm.91,0a4.43,4.43,0,0,0,.41,2.34,1.21,1.21,0,0,0,1,.59,1.23,1.23,0,0,0,1-.59,6.91,6.91,0,0,0,0-4.69,1.23,1.23,0,0,0-1-.58,1.12,1.12,0,0,0-1,.51A4.56,4.56,0,0,0,292.92,373.49Z"/><path d="M297.58,373.49a6.43,6.43,0,0,1,.26-2.05,2.55,2.55,0,0,1,.77-1.19,2,2,0,0,1,1.3-.42,2.18,2.18,0,0,1,1,.23,2,2,0,0,1,.72.67,3.67,3.67,0,0,1,.44,1.06,7,7,0,0,1,.16,1.7,6.34,6.34,0,0,1-.26,2,2.58,2.58,0,0,1-.77,1.2,2.19,2.19,0,0,1-2.93-.32A4.75,4.75,0,0,1,297.58,373.49Zm.9,0a4.54,4.54,0,0,0,.41,2.34,1.18,1.18,0,0,0,2,0,6.91,6.91,0,0,0,0-4.69,1.23,1.23,0,0,0-1-.58,1.14,1.14,0,0,0-1,.51A4.56,4.56,0,0,0,298.48,373.49Z"/><path d="M306.23,377v-7.16h.95v3.55l3.55-3.55H312l-3,2.9,3.13,4.26H310.9l-2.55-3.63-1.17,1.15V377Z"/><path d="M313.64,377h-.82v-7.16h.88v2.55a1.76,1.76,0,0,1,1.42-.7,2.16,2.16,0,0,1,.91.2,1.79,1.79,0,0,1,.7.54,2.57,2.57,0,0,1,.44.84,3.62,3.62,0,0,1,.15,1.06,3,3,0,0,1-.66,2.06,2.06,2.06,0,0,1-1.58.72,1.65,1.65,0,0,1-1.44-.76Zm0-2.64a2.66,2.66,0,0,0,.25,1.35,1.29,1.29,0,0,0,1.13.68,1.27,1.27,0,0,0,1-.5,2.26,2.26,0,0,0,.42-1.49,2.3,2.3,0,0,0-.4-1.5,1.23,1.23,0,0,0-1-.48,1.24,1.24,0,0,0-1,.5A2.17,2.17,0,0,0,313.63,374.38Z"/><path d="M318.39,377v-7.16h.88v2.57a2,2,0,0,1,1.55-.72,2.08,2.08,0,0,1,1,.23,1.28,1.28,0,0,1,.61.63,2.9,2.9,0,0,1,.18,1.16V377h-.87v-3.29a1.36,1.36,0,0,0-.29-1,1.06,1.06,0,0,0-.81-.3,1.46,1.46,0,0,0-.73.2,1.13,1.13,0,0,0-.49.55,2.47,2.47,0,0,0-.15,1V377Z"/><path d="M326.52,374.72l.89-.08a2,2,0,0,0,.3.88,1.62,1.62,0,0,0,.72.56,2.73,2.73,0,0,0,1.1.21,2.84,2.84,0,0,0,1-.16,1.38,1.38,0,0,0,.61-.44,1,1,0,0,0,.21-.62,1,1,0,0,0-.2-.59,1.54,1.54,0,0,0-.64-.42c-.2-.07-.62-.19-1.28-.35a6,6,0,0,1-1.38-.44,1.94,1.94,0,0,1-.76-.67,1.63,1.63,0,0,1-.26-.89,1.85,1.85,0,0,1,.31-1,1.91,1.91,0,0,1,.9-.72,3.43,3.43,0,0,1,1.31-.24,3.66,3.66,0,0,1,1.41.25,2,2,0,0,1,.93.76,2.06,2.06,0,0,1,.35,1.12l-.9.07a1.47,1.47,0,0,0-.5-1,1.94,1.94,0,0,0-1.25-.35,2,2,0,0,0-1.25.32.94.94,0,0,0-.39.76.81.81,0,0,0,.28.63,3.56,3.56,0,0,0,1.42.51,9.19,9.19,0,0,1,1.59.46,2.1,2.1,0,0,1,.92.73,1.74,1.74,0,0,1,.3,1,1.93,1.93,0,0,1-.33,1.08,2.16,2.16,0,0,1-.94.79,3.4,3.4,0,0,1-1.38.28,4.1,4.1,0,0,1-1.63-.29,2.26,2.26,0,0,1-1-.85A2.47,2.47,0,0,1,326.52,374.72Z"/></g><g id="Layer_36" data-name="Layer 36"><path d="M487,86H329.52L226,350q42.94-132,85.9-264H262V9H487Z"/><path class="cls-3" d="M300,44c0,3.06-.76,4-3.32,4h-2.44V43.48h-1.58l.78-1.82h.8V32h2.44c2.56,0,3.32.72,3.32,3.36v3.22c0,1.78-.3,2.84-1.18,3.52H300Zm-1.94-8.94c0-1-.24-1.22-1.3-1.22h-.54v7.78h.46c1,0,1.38-1,1.38-3.1Zm0,8.38h-1.84v2.7h.54c1.06,0,1.3-.24,1.3-1.22Z"/><path class="cls-3" d="M310,32V45.2c0,2.52-1.54,3.08-2.9,3.08s-2.86-.64-2.86-3.08V32h2V45.36c0,.84.3,1.1.9,1.1s.9-.24.9-1.1V32Z"/><path class="cls-3" d="M319.38,44.66c0,2.56-.48,4.28-5.26,3.32v-1.9c2.9.64,3.28,0,3.28-1.22v-1.4h-3.28V35.38c0-2.56.5-4.28,5.26-3.32V34c-2.9-.64-3.28,0-3.28,1.22v6.5h3.28Z"/><path class="cls-3" d="M328.58,44.66c0,2.56-.48,4.28-5.26,3.32v-1.9c2.9.64,3.28,0,3.28-1.22v-1.4h-3.28V35.38c0-2.56.5-4.28,5.26-3.32V34c-2.9-.64-3.28,0-3.28,1.22v6.5h3.28Z"/><path class="cls-3" d="M334.54,44.88c0,1.22.38,1.86,3.28,1.22V48c-4.76,1-5.26-.76-5.26-3.32V35.36c0-2.56.5-4.26,5.26-3.32v1.9c-2.9-.64-3.28,0-3.28,1.22v6.5h2.88v1.82h-2.88Z"/><path class="cls-3" d="M344.3,32c2.56,0,3.32.72,3.32,3.36v3.22c0,1.78-.3,2.84-1.18,3.52h1.18v3.28c0,2.12.76,2.66.76,2.66h-1.94s-.76-.26-.76-2.66v-1.9h-1.84V48h-2V32Zm-.46,1.88v7.78h.46c1,0,1.38-1,1.38-3.1V35.1c0-1-.24-1.22-1.3-1.22Z"/><path class="cls-3" d="M360.36,48h-1.94V32h1.94Z"/><path class="cls-3" d="M377.18,45.38c0,2.12.76,2.66.76,2.66H376s-.76-.26-.76-2.66V34.72c0-.64-.34-1-.92-1s-.92.4-.92,1V48h-2V32h2v.68s.32-.78,1.64-.78,2.14.56,2.14,3.22Z"/><path class="cls-3" d="M387.16,44.88c0,1.22.38,1.86,3.28,1.22V48c-4.76,1-5.26-.76-5.26-3.32V43.46h-1.82V48h-2V34.86c0-2.44,1.36-3.08,2.86-3.08a3,3,0,0,1,1.82.48c.72-.56,2.06-.76,4.38-.3v1.9c-2.9-.64-3.28,0-3.28,1.22v6.56h2.9v1.82h-2.9Zm-3.8-3.24h1.82v-7.1c0-.86-.34-1.1-.92-1.1s-.9.26-.9,1.1Z"/><path class="cls-3" d="M396.86,32c2.56,0,3.32.72,3.32,3.36v3.22c0,1.78-.3,2.84-1.18,3.52h1.18v3.28c0,2.12.76,2.66.76,2.66H399s-.76-.26-.76-2.66v-1.9H396.4V48h-2V32Zm-.46,1.88v7.78h.46c1,0,1.38-1,1.38-3.1V35.1c0-1-.24-1.22-1.3-1.22Z"/><path class="cls-3" d="M404.5,32h2v9.66h1.84V32h1.94V48h-1.94V43.48h-1.84V48h-2Z"/><path class="cls-3" d="M416.62,44.88c0,1.22.38,1.86,3.28,1.22V48c-4.76,1-5.26-.76-5.26-3.32V35.36c0-2.56.5-4.26,5.26-3.32v1.9c-2.9-.64-3.28,0-3.28,1.22v6.5h2.88v1.82h-2.88Z"/><path class="cls-3" d="M423.94,32h2.44c2.56,0,3.32,1,3.32,4v8c0,3.06-.76,4-3.32,4h-2.44Zm3.82,3.1c0-1-.22-1.22-1.3-1.22h-.54v12.3h.54c1.08,0,1.3-.24,1.3-1.22Z"/><path class="cls-3" d="M435.88,44.88c0,1.22.38,1.86,3.28,1.22V48c-4.76,1-5.26-.76-5.26-3.32V35.36c0-2.56.5-4.26,5.26-3.32v1.9c-2.9-.64-3.28,0-3.28,1.22v6.5h2.88v1.82h-2.88Z"/><path class="cls-3" d="M449,45.38c0,2.12.76,2.66.76,2.66h-1.94s-.76-.26-.76-2.66V34.72c0-.64-.34-1-.92-1s-.92.4-.92,1V48h-2V32h2v.68s.32-.78,1.64-.78,2.14.56,2.14,3.22Z"/><path class="cls-1" d="M319.36,68.29l1.85-.16a3.31,3.31,0,0,0,1,2,2.6,2.6,0,0,0,1.8.68,2.79,2.79,0,0,0,2.15-1,3.59,3.59,0,0,0,.88-2.54,3.27,3.27,0,0,0-.84-2.37,3,3,0,0,0-2.22-.87,3.06,3.06,0,0,0-1.53.39,2.87,2.87,0,0,0-1.07,1l-1.65-.22,1.38-7.35h7.12V59.6h-5.71l-.77,3.85a4.65,4.65,0,0,1,2.7-.9,4.28,4.28,0,0,1,3.17,1.3,4.53,4.53,0,0,1,1.29,3.34,5.22,5.22,0,0,1-1.14,3.36A4.56,4.56,0,0,1,324,72.28a4.64,4.64,0,0,1-3.19-1.09A4.3,4.3,0,0,1,319.36,68.29Z"/><path class="cls-1" d="M341.41,67l1.9.48a6.43,6.43,0,0,1-2.14,3.56,5.92,5.92,0,0,1-3.79,1.22,6.76,6.76,0,0,1-3.76-.94,5.86,5.86,0,0,1-2.21-2.73,9.64,9.64,0,0,1-.76-3.84,8.43,8.43,0,0,1,.86-3.9,5.88,5.88,0,0,1,2.43-2.53,7.17,7.17,0,0,1,3.47-.86A5.84,5.84,0,0,1,341,58.57a5.66,5.66,0,0,1,2,3.08l-1.86.44a4.41,4.41,0,0,0-1.45-2.28,3.87,3.87,0,0,0-2.38-.71,4.62,4.62,0,0,0-2.76.79A4.2,4.2,0,0,0,333.05,62a8.45,8.45,0,0,0-.44,2.74,8.64,8.64,0,0,0,.53,3.19,3.93,3.93,0,0,0,1.65,2,4.64,4.64,0,0,0,2.43.67,4,4,0,0,0,2.7-.92A4.66,4.66,0,0,0,341.41,67Z"/><path class="cls-1" d="M350.32,66.85a5.32,5.32,0,0,1,1.6-4.26,4.82,4.82,0,0,1,3.26-1.16,4.65,4.65,0,0,1,3.5,1.41A5.34,5.34,0,0,1,360,66.71a6.9,6.9,0,0,1-.6,3.15,4.29,4.29,0,0,1-1.75,1.78,5.14,5.14,0,0,1-2.51.63,4.67,4.67,0,0,1-3.52-1.39A5.6,5.6,0,0,1,350.32,66.85Zm1.81,0a4.43,4.43,0,0,0,.87,3,2.89,2.89,0,0,0,4.36,0,4.49,4.49,0,0,0,.87-3,4.3,4.3,0,0,0-.87-2.92,2.8,2.8,0,0,0-2.18-1,2.77,2.77,0,0,0-2.18,1A4.37,4.37,0,0,0,352.13,66.85Z"/><path class="cls-1" d="M361.78,72.9l1.7.25a1.68,1.68,0,0,0,.6,1.16,3,3,0,0,0,1.79.48,3.17,3.17,0,0,0,1.88-.48,2.48,2.48,0,0,0,.9-1.37,11.81,11.81,0,0,0,.13-2.26A3.61,3.61,0,0,1,365.91,72a3.9,3.9,0,0,1-3.31-1.54,5.91,5.91,0,0,1-1.18-3.7,6.84,6.84,0,0,1,.54-2.74,4.27,4.27,0,0,1,1.56-1.94,4.18,4.18,0,0,1,2.4-.69,3.71,3.71,0,0,1,3,1.49V61.67h1.62v9a8.54,8.54,0,0,1-.49,3.44,3.62,3.62,0,0,1-1.56,1.59,5.41,5.41,0,0,1-2.63.59,4.94,4.94,0,0,1-3-.84A2.8,2.8,0,0,1,361.78,72.9Zm1.45-6.23a4.52,4.52,0,0,0,.81,3,2.68,2.68,0,0,0,4.06,0,4.32,4.32,0,0,0,.82-2.92,4.26,4.26,0,0,0-.84-2.87,2.59,2.59,0,0,0-2-1,2.55,2.55,0,0,0-2,1A4.23,4.23,0,0,0,363.23,66.67Z"/><path class="cls-1" d="M387.53,70.35V72h-9.47a3.17,3.17,0,0,1,.21-1.22,6.48,6.48,0,0,1,1.16-1.91,18,18,0,0,1,2.3-2.16,19.76,19.76,0,0,0,3.15-3,3.59,3.59,0,0,0,.82-2.11,2.34,2.34,0,0,0-.75-1.76,2.66,2.66,0,0,0-1.94-.72,2.75,2.75,0,0,0-2,.76A2.93,2.93,0,0,0,380.2,62l-1.8-.18a4.48,4.48,0,0,1,1.39-3.09A4.8,4.8,0,0,1,383,57.66a4.56,4.56,0,0,1,3.27,1.15,3.74,3.74,0,0,1,1.2,2.83,4.37,4.37,0,0,1-.35,1.69A7,7,0,0,1,386,65.08a28.92,28.92,0,0,1-2.71,2.52,26.87,26.87,0,0,0-2,1.8,5.21,5.21,0,0,0-.74.95Z"/><path class="cls-1" d="M389.41,68.29l1.85-.16a3.26,3.26,0,0,0,.95,2,2.6,2.6,0,0,0,1.8.68,2.81,2.81,0,0,0,2.15-1,3.59,3.59,0,0,0,.88-2.54,3.23,3.23,0,0,0-.85-2.37A2.94,2.94,0,0,0,394,64.1a3.06,3.06,0,0,0-1.53.39,2.87,2.87,0,0,0-1.07,1l-1.66-.22,1.39-7.35h7.12V59.6h-5.71l-.77,3.85a4.65,4.65,0,0,1,2.7-.9,4.28,4.28,0,0,1,3.17,1.3,4.56,4.56,0,0,1,1.28,3.34,5.21,5.21,0,0,1-1.13,3.36A4.56,4.56,0,0,1,394,72.28a4.64,4.64,0,0,1-3.19-1.09A4.3,4.3,0,0,1,389.41,68.29Z"/><path class="cls-1" d="M400.54,65a13.08,13.08,0,0,1,.52-4.09,5.09,5.09,0,0,1,1.55-2.39,4,4,0,0,1,2.59-.84,4.19,4.19,0,0,1,2,.47,3.84,3.84,0,0,1,1.44,1.34,7.19,7.19,0,0,1,.89,2.13,14.34,14.34,0,0,1,.32,3.38,13,13,0,0,1-.52,4.07,5.07,5.07,0,0,1-1.54,2.39,4,4,0,0,1-2.61.84A3.92,3.92,0,0,1,402,70.8Q400.54,69,400.54,65Zm1.8,0c0,2.35.28,3.91.83,4.69a2.35,2.35,0,0,0,4.07,0c.55-.78.82-2.35.82-4.69s-.27-3.92-.82-4.7a2.47,2.47,0,0,0-2.06-1.16,2.24,2.24,0,0,0-1.93,1C402.64,61,402.34,62.63,402.34,65Z"/><path class="cls-1" d="M411.73,67.44l1.78-.16a4,4,0,0,0,.59,1.77,3.2,3.2,0,0,0,1.44,1.11,5.57,5.57,0,0,0,2.2.42,5.23,5.23,0,0,0,1.92-.32,2.65,2.65,0,0,0,1.23-.88,2.07,2.07,0,0,0,.41-1.23,1.83,1.83,0,0,0-.39-1.17,2.87,2.87,0,0,0-1.29-.85c-.39-.15-1.24-.38-2.55-.7a12.77,12.77,0,0,1-2.77-.89,3.85,3.85,0,0,1-1.52-1.33,3.25,3.25,0,0,1-.51-1.79,3.64,3.64,0,0,1,.62-2,3.76,3.76,0,0,1,1.8-1.43,6.68,6.68,0,0,1,2.62-.49,7.22,7.22,0,0,1,2.81.51A4.09,4.09,0,0,1,422,59.5a4.28,4.28,0,0,1,.7,2.26l-1.81.13a3,3,0,0,0-1-2,3.9,3.9,0,0,0-2.5-.69,4,4,0,0,0-2.5.63,1.88,1.88,0,0,0-.79,1.52,1.65,1.65,0,0,0,.56,1.27,7.53,7.53,0,0,0,2.85,1,19.1,19.1,0,0,1,3.17.91A4.36,4.36,0,0,1,422.53,66a3.62,3.62,0,0,1,.59,2,3.84,3.84,0,0,1-.65,2.15,4.31,4.31,0,0,1-1.88,1.57,6.48,6.48,0,0,1-2.76.56,8.4,8.4,0,0,1-3.26-.56A4.62,4.62,0,0,1,412.51,70,4.74,4.74,0,0,1,411.73,67.44Z"/><line class="cls-8" x1="285.27" y1="51.83" x2="456.47" y2="51.83"/><rect x="216" y="353" width="13.03" height="14.33" rx="3.16"/><rect x="217.16" y="366.03" width="2.18" height="3.97" rx="0.68"/><rect x="225.41" y="366.41" width="2.18" height="3.52" rx="0.64"/><path class="cls-3" d="M219.38,354.3h6.38a2,2,0,0,1,2,2v4.55a0,0,0,0,1,0,0H217.3a0,0,0,0,1,0,0v-4.44A2.08,2.08,0,0,1,219.38,354.3Z"/><rect class="cls-3" x="217.3" y="363.42" width="2.61" height="1.3"/><rect class="cls-3" x="225.12" y="363.42" width="2.61" height="1.3"/></g><g id="Layer_31" data-name="Layer 31"><path d="M133.65,234l6.4-1.77.53.71-3.48,5.72-.56-.75,1.08-1.7-1.54-2.08-1.91.57Zm3.11-.08,1.25,1.69,1-1.54c.3-.47.56-.84.77-1.12a7.58,7.58,0,0,1-1.15.44Z"/><path d="M137.43,239.13l3.61-2.67.41.55-.51.37a1.68,1.68,0,0,1,.76.14,1.68,1.68,0,0,1,1,1.31,1.12,1.12,0,0,1-.2.7,1.63,1.63,0,0,1,1.46.65,1.42,1.42,0,0,1,.31,1,1.58,1.58,0,0,1-.7,1L141.05,244l-.45-.6,2.27-1.69a2,2,0,0,0,.49-.45.68.68,0,0,0,.1-.4.77.77,0,0,0-.18-.44,1,1,0,0,0-.72-.45,1.37,1.37,0,0,0-1,.35l-2.1,1.55-.45-.61,2.34-1.74a1.27,1.27,0,0,0,.5-.6.7.7,0,0,0-.15-.64,1.15,1.15,0,0,0-.49-.38,1,1,0,0,0-.64,0,2.6,2.6,0,0,0-.82.46l-1.88,1.38Z"/><path d="M143.9,247a2.8,2.8,0,0,1-.89-.35,2.28,2.28,0,0,1-.61-.59,1.59,1.59,0,0,1-.39-1.13,1.17,1.17,0,0,1,.51-.87,1.2,1.2,0,0,1,.57-.24,1.45,1.45,0,0,1,.59.06,1.91,1.91,0,0,1,.52.29,6.44,6.44,0,0,1,.5.48,6.73,6.73,0,0,0,1,.93l.17-.11a.82.82,0,0,0,.39-.56,1.25,1.25,0,0,0-.3-.85,1.34,1.34,0,0,0-.63-.53,1.19,1.19,0,0,0-.76.09l-.36-.66a2.06,2.06,0,0,1,.82-.19,1.53,1.53,0,0,1,.77.27,3.36,3.36,0,0,1,.73.73,2.76,2.76,0,0,1,.45.83,1.28,1.28,0,0,1,0,.63,1.33,1.33,0,0,1-.28.5,4.27,4.27,0,0,1-.54.44l-.82.61a9.84,9.84,0,0,0-1,.84,1.56,1.56,0,0,0-.32.47l-.47-.64A1.61,1.61,0,0,1,143.9,247Zm1.33-1.06a6.26,6.26,0,0,1-1-.83,3,3,0,0,0-.51-.44.68.68,0,0,0-.38-.1.63.63,0,0,0-.35.13.64.64,0,0,0-.28.49,1.08,1.08,0,0,0,.24.66,1.6,1.6,0,0,0,.62.52,1.29,1.29,0,0,0,.72.09,1.91,1.91,0,0,0,.69-.36Z"/><path d="M144.2,248.91l.35.66a.69.69,0,0,0-.25.51,1.34,1.34,0,0,0,.29.75,1.37,1.37,0,0,0,.66.53,1.06,1.06,0,0,0,.7,0,4.77,4.77,0,0,0,.82-.54,1.54,1.54,0,0,1-1.21-.65,1.71,1.71,0,0,1-.32-1.55,2.58,2.58,0,0,1,1-1.36,3.12,3.12,0,0,1,1.09-.52,1.87,1.87,0,0,1,1.08.05,1.8,1.8,0,0,1,.85.66,1.58,1.58,0,0,1,.27,1.43l.43-.32.42.56-3.12,2.31a3.67,3.67,0,0,1-1.32.71,1.54,1.54,0,0,1-1-.13,2.25,2.25,0,0,1-.88-.77,2.12,2.12,0,0,1-.48-1.26A1.2,1.2,0,0,1,144.2,248.91Zm2.54-1.09a2,2,0,0,0-.83,1.05,1.09,1.09,0,0,0,.2.94,1.1,1.1,0,0,0,.85.47,1.88,1.88,0,0,0,1.23-.47,1.83,1.83,0,0,0,.78-1,1.12,1.12,0,0,0-.19-1,1.07,1.07,0,0,0-.84-.44A1.83,1.83,0,0,0,146.74,247.82Z"/><path d="M150.43,254.29l.39.69a1.93,1.93,0,0,1-1.27.08,2.13,2.13,0,0,1-1.07-.8,2.05,2.05,0,0,1-.44-1.62,2.86,2.86,0,0,1,2.79-2,2,2,0,0,1,1.4.84,1.92,1.92,0,0,1,.38,1.55,2.4,2.4,0,0,1-1.05,1.48l-.16.12-2-2.69a1.76,1.76,0,0,0-.67,1,1.24,1.24,0,0,0,.25,1,1.13,1.13,0,0,0,.6.44A1.45,1.45,0,0,0,150.43,254.29Zm-.49-2.74,1.49,2a1.6,1.6,0,0,0,.51-.74,1.17,1.17,0,0,0-.21-1,1.22,1.22,0,0,0-.8-.5A1.41,1.41,0,0,0,149.94,251.55Z"/><path d="M150.3,256.54l3.61-2.66.41.55-.55.4a1.78,1.78,0,0,1,.79,0,.79.79,0,0,1,.42.3,1.42,1.42,0,0,1,.26.77l-.72.21a1.1,1.1,0,0,0-.2-.55.77.77,0,0,0-.39-.27.86.86,0,0,0-.5,0,3.23,3.23,0,0,0-.79.43l-1.89,1.4Z"/><path d="M152.43,259.43l-.42-.56,5-3.69.45.61-1.78,1.32a1.51,1.51,0,0,1,1.22.63,1.79,1.79,0,0,1,.33.73,1.67,1.67,0,0,1,0,.77,2.19,2.19,0,0,1-.37.73,2.86,2.86,0,0,1-.65.65,2.54,2.54,0,0,1-1.78.6,1.76,1.76,0,0,1-1.32-.72,1.44,1.44,0,0,1-.2-1.4Zm1.83-1.36a2.41,2.41,0,0,0-.81.87,1.12,1.12,0,0,0,.11,1.14,1.1,1.1,0,0,0,.86.43,2,2,0,0,0,1.25-.47,1.94,1.94,0,0,0,.84-1.06,1.05,1.05,0,0,0-.16-.92,1.09,1.09,0,0,0-.86-.44A2,2,0,0,0,154.26,258.07Z"/><path d="M154.87,262.74l3.62-2.67.4.55-.55.4a1.83,1.83,0,0,1,.8,0,.83.83,0,0,1,.41.3,1.58,1.58,0,0,1,.27.78l-.72.2a1.17,1.17,0,0,0-.2-.54.67.67,0,0,0-.39-.27.78.78,0,0,0-.5,0,2.88,2.88,0,0,0-.79.42l-1.89,1.4Z"/><path d="M158.23,263.5a2.34,2.34,0,0,1,1.9-.54,2.05,2.05,0,0,1,1.24.84,2,2,0,0,1,.41,1.58,2.35,2.35,0,0,1-1,1.47,3,3,0,0,1-1.25.6,1.79,1.79,0,0,1-1.07-.15,2.38,2.38,0,0,1-.87-.71,2.06,2.06,0,0,1-.42-1.59A2.44,2.44,0,0,1,158.23,263.5Zm.47.63a1.89,1.89,0,0,0-.82,1.07,1.21,1.21,0,0,0,.22,1,1.19,1.19,0,0,0,.91.5,2,2,0,0,0,1.28-.48,1.89,1.89,0,0,0,.79-1.05,1.23,1.23,0,0,0-.22-1,1.2,1.2,0,0,0-.9-.5A1.86,1.86,0,0,0,158.7,264.13Z"/><path d="M159.07,269.05l.35.66a.7.7,0,0,0-.24.5,1.27,1.27,0,0,0,.29.75,1.36,1.36,0,0,0,.65.53,1,1,0,0,0,.71,0,4.77,4.77,0,0,0,.82-.54,1.53,1.53,0,0,1-1.21-.65,1.68,1.68,0,0,1-.32-1.55,2.62,2.62,0,0,1,1-1.36,2.85,2.85,0,0,1,1.09-.51,1.8,1.8,0,0,1,1.08,0,1.85,1.85,0,0,1,.85.66,1.58,1.58,0,0,1,.26,1.43l.44-.32.42.57-3.13,2.3a3.44,3.44,0,0,1-1.32.71,1.54,1.54,0,0,1-1-.13,2.38,2.38,0,0,1-.88-.76,2.14,2.14,0,0,1-.48-1.26A1.23,1.23,0,0,1,159.07,269.05Zm2.55-1.1a1.93,1.93,0,0,0-.83,1.05,1.14,1.14,0,0,0,1,1.41,1.88,1.88,0,0,0,1.23-.46,1.85,1.85,0,0,0,.78-1,1.12,1.12,0,0,0-.18-1,1.07,1.07,0,0,0-.85-.45A1.8,1.8,0,0,0,161.62,268Z"/><path d="M164.5,274.84a3.06,3.06,0,0,1-.89-.36,2.42,2.42,0,0,1-.62-.58,1.64,1.64,0,0,1-.38-1.13,1.17,1.17,0,0,1,.51-.87,1.2,1.2,0,0,1,.57-.24,1.17,1.17,0,0,1,.59.06,1.68,1.68,0,0,1,.52.29,5,5,0,0,1,.5.48,6.73,6.73,0,0,0,1,.93l.17-.11a.86.86,0,0,0,.39-.57,1.26,1.26,0,0,0-.3-.85,1.37,1.37,0,0,0-.63-.52,1.07,1.07,0,0,0-.76.09l-.36-.66a1.9,1.9,0,0,1,.82-.19,1.53,1.53,0,0,1,.77.27,3.15,3.15,0,0,1,.73.73,2.75,2.75,0,0,1,.45.83,1.27,1.27,0,0,1,0,.63,1.29,1.29,0,0,1-.28.49,4.1,4.1,0,0,1-.54.45l-.82.6a11.39,11.39,0,0,0-1.05.84,1.75,1.75,0,0,0-.32.48l-.47-.64A1.61,1.61,0,0,1,164.5,274.84Zm1.33-1.06a6.88,6.88,0,0,1-1-.83,2.76,2.76,0,0,0-.51-.45.67.67,0,0,0-.38-.09.63.63,0,0,0-.35.13.64.64,0,0,0-.28.49,1.08,1.08,0,0,0,.24.66,1.58,1.58,0,0,0,.62.51,1.13,1.13,0,0,0,.72.09,1.72,1.72,0,0,0,.69-.35Z"/><path d="M166.91,279l.46-.33a1.41,1.41,0,0,1-1.29-.62,1.76,1.76,0,0,1-.35-1,2,2,0,0,1,.25-1.05,2.9,2.9,0,0,1,.84-.92,3.2,3.2,0,0,1,1.11-.55,1.8,1.8,0,0,1,1.08.05,1.76,1.76,0,0,1,.83.63,1.45,1.45,0,0,1,.29.68,1.7,1.7,0,0,1,0,.68l1.79-1.32.44.61-5,3.68Zm.37-3.26a2,2,0,0,0-.82,1.06,1.09,1.09,0,0,0,.17.94,1.08,1.08,0,0,0,.83.44,1.87,1.87,0,0,0,1.21-.46,2.12,2.12,0,0,0,.88-1.09,1.08,1.08,0,0,0-.18-1,1.06,1.06,0,0,0-.83-.44A2.09,2.09,0,0,0,167.28,275.76Z"/><path d="M171,282.17l.39.69a1.93,1.93,0,0,1-1.27.08,2.09,2.09,0,0,1-1.07-.81,2.05,2.05,0,0,1-.44-1.62,2.38,2.38,0,0,1,1-1.47,2.52,2.52,0,0,1,1.77-.58,2,2,0,0,1,1.4.85,1.92,1.92,0,0,1,.38,1.55,2.4,2.4,0,0,1-1.05,1.48l-.16.12-2-2.7a1.82,1.82,0,0,0-.67,1,1.23,1.23,0,0,0,.25,1,1.1,1.1,0,0,0,.6.45A1.54,1.54,0,0,0,171,282.17Zm-.5-2.74,1.5,2a1.53,1.53,0,0,0,.51-.73,1.17,1.17,0,0,0-.21-1,1.22,1.22,0,0,0-.8-.5A1.35,1.35,0,0,0,170.53,279.43Z"/><path class="cls-9" d="M50.62,134.51H48.84l-.7-1.83H44.91l-.67,1.83H42.51l3.15-8.07h1.72Zm-3-3.19-1.11-3-1.09,3Z"/><path class="cls-9" d="M51.35,128.66h1.43v.8a2.3,2.3,0,0,1,1.82-.93,2,2,0,0,1,1,.23,1.81,1.81,0,0,1,.67.7,2.85,2.85,0,0,1,.84-.7,2.05,2.05,0,0,1,.95-.23,2.17,2.17,0,0,1,1.09.26,1.63,1.63,0,0,1,.67.77,3.46,3.46,0,0,1,.16,1.21v3.74H58.41v-3.34a2.62,2.62,0,0,0-.16-1.13.75.75,0,0,0-.66-.33,1.06,1.06,0,0,0-.61.2,1.1,1.1,0,0,0-.42.58,4.44,4.44,0,0,0-.12,1.21v2.81H54.89v-3.2a4.89,4.89,0,0,0-.08-1.11.7.7,0,0,0-.26-.36.75.75,0,0,0-.47-.13,1.16,1.16,0,0,0-.65.2,1.1,1.1,0,0,0-.41.55,4.34,4.34,0,0,0-.12,1.21v2.84H51.35Z"/><path class="cls-9" d="M62.65,130.45l-1.4-.26a2.22,2.22,0,0,1,.81-1.25,3,3,0,0,1,1.72-.41,3.82,3.82,0,0,1,1.55.24,1.64,1.64,0,0,1,.71.63,3.15,3.15,0,0,1,.2,1.38v1.81a6.43,6.43,0,0,0,.07,1.14,3.7,3.7,0,0,0,.28.78H65.05c0-.1-.09-.25-.15-.46s0-.15-.05-.18a2.86,2.86,0,0,1-.85.58,2.4,2.4,0,0,1-1,.19,2,2,0,0,1-1.42-.49,1.61,1.61,0,0,1-.52-1.24,1.64,1.64,0,0,1,.24-.88,1.46,1.46,0,0,1,.66-.59,5.38,5.38,0,0,1,1.23-.37,7.58,7.58,0,0,0,1.5-.38v-.15a.8.8,0,0,0-.22-.64,1.34,1.34,0,0,0-.83-.19,1.08,1.08,0,0,0-.64.17A1.14,1.14,0,0,0,62.65,130.45Zm2.07,1.25a7.59,7.59,0,0,1-.94.24,2.68,2.68,0,0,0-.84.27.63.63,0,0,0-.3.54.78.78,0,0,0,.24.57.88.88,0,0,0,.62.23,1.37,1.37,0,0,0,.8-.27,1,1,0,0,0,.36-.51,3.19,3.19,0,0,0,.06-.76Z"/><path class="cls-9" d="M67.63,134.9l1.77.21a.6.6,0,0,0,.2.43,1.17,1.17,0,0,0,.69.16,1.8,1.8,0,0,0,.91-.18.73.73,0,0,0,.31-.39,2.31,2.31,0,0,0,.07-.71v-.86a2.06,2.06,0,0,1-1.75.95,2.15,2.15,0,0,1-1.87-1,3.36,3.36,0,0,1-.54-2,3.2,3.2,0,0,1,.71-2.24,2.28,2.28,0,0,1,1.76-.78,2.14,2.14,0,0,1,1.79.95v-.82h1.45v5.25a5.38,5.38,0,0,1-.17,1.55,1.8,1.8,0,0,1-.48.8,2.09,2.09,0,0,1-.82.46,4.39,4.39,0,0,1-1.31.17,3.38,3.38,0,0,1-2.11-.51,1.61,1.61,0,0,1-.62-1.3A1.21,1.21,0,0,1,67.63,134.9ZM69,131.47a2.11,2.11,0,0,0,.36,1.36,1.11,1.11,0,0,0,.89.43,1.24,1.24,0,0,0,1-.44,2,2,0,0,0,.39-1.32,2.07,2.07,0,0,0-.37-1.35,1.21,1.21,0,0,0-.95-.44,1.15,1.15,0,0,0-.92.44A2,2,0,0,0,69,131.47Z"/><path class="cls-9" d="M78.05,132.65l1.54.26a2.52,2.52,0,0,1-.94,1.29,2.72,2.72,0,0,1-1.6.44,2.63,2.63,0,0,1-2.26-1,3.35,3.35,0,0,1-.58-2,3.22,3.22,0,0,1,.76-2.28,2.5,2.5,0,0,1,1.92-.82,2.61,2.61,0,0,1,2.06.86,3.76,3.76,0,0,1,.72,2.64H75.8a1.54,1.54,0,0,0,.37,1.07,1.17,1.17,0,0,0,.89.39,1,1,0,0,0,.62-.2A1.24,1.24,0,0,0,78.05,132.65Zm.09-1.56a1.52,1.52,0,0,0-.35-1,1.08,1.08,0,0,0-.8-.35,1.1,1.1,0,0,0-.84.37,1.46,1.46,0,0,0-.33,1Z"/><path class="cls-9" d="M82.42,134.51H80.87v-5.85h1.44v.83a2.44,2.44,0,0,1,.66-.77,1.19,1.19,0,0,1,.67-.19,2,2,0,0,1,1,.29l-.48,1.35a1.33,1.33,0,0,0-.73-.25.87.87,0,0,0-.55.18,1.17,1.17,0,0,0-.35.64,9,9,0,0,0-.13,2Z"/><path class="cls-9" d="M93.64,131.54l1.58.5A3.6,3.6,0,0,1,94,134a3.81,3.81,0,0,1-4.79-.46,4.19,4.19,0,0,1-1-3,4.46,4.46,0,0,1,1-3.14A3.59,3.59,0,0,1,92,126.3a3.34,3.34,0,0,1,2.41.88,3.2,3.2,0,0,1,.83,1.48l-1.62.39a1.64,1.64,0,0,0-.6-1,1.66,1.66,0,0,0-1.1-.37,1.84,1.84,0,0,0-1.46.65,3.16,3.16,0,0,0-.56,2.08,3.46,3.46,0,0,0,.55,2.19,1.81,1.81,0,0,0,1.44.65,1.6,1.6,0,0,0,1.11-.42A2.37,2.37,0,0,0,93.64,131.54Z"/><path class="cls-9" d="M100,132.65l1.55.26a2.58,2.58,0,0,1-.94,1.29,2.75,2.75,0,0,1-1.61.44,2.63,2.63,0,0,1-2.26-1,3.42,3.42,0,0,1-.58-2,3.27,3.27,0,0,1,.76-2.28,2.51,2.51,0,0,1,1.93-.82,2.62,2.62,0,0,1,2.06.86,3.86,3.86,0,0,1,.72,2.64H97.74a1.59,1.59,0,0,0,.37,1.07,1.17,1.17,0,0,0,.9.39,1,1,0,0,0,.61-.2A1.24,1.24,0,0,0,100,132.65Zm.09-1.56a1.47,1.47,0,0,0-.35-1,1.06,1.06,0,0,0-.8-.35,1.1,1.1,0,0,0-.84.37,1.41,1.41,0,0,0-.32,1Z"/><path class="cls-9" d="M108.2,134.51h-1.55v-3a4.46,4.46,0,0,0-.1-1.23.82.82,0,0,0-.32-.43,1,1,0,0,0-.54-.16,1.33,1.33,0,0,0-.72.22,1.1,1.1,0,0,0-.43.59,5,5,0,0,0-.12,1.34v2.65h-1.55v-5.85h1.44v.86a2.41,2.41,0,0,1,2.86-.81,1.54,1.54,0,0,1,.64.48,1.63,1.63,0,0,1,.31.65,5.32,5.32,0,0,1,.08,1Z"/><path class="cls-9" d="M112.45,128.66v1.24h-1v2.35a6,6,0,0,0,0,.84.31.31,0,0,0,.13.19.48.48,0,0,0,.27.08,2,2,0,0,0,.62-.15l.13,1.2a3,3,0,0,1-1.22.23,1.87,1.87,0,0,1-.76-.14,1,1,0,0,1-.49-.36,1.51,1.51,0,0,1-.22-.6,8,8,0,0,1,0-1.09V129.9h-.71v-1.24h.71V127.5l1.56-.9v2.06Z"/><path class="cls-9" d="M115,134.51h-1.55v-5.85h1.44v.83a2.44,2.44,0,0,1,.66-.77,1.19,1.19,0,0,1,.67-.19,2,2,0,0,1,1,.29l-.48,1.35a1.33,1.33,0,0,0-.73-.25.87.87,0,0,0-.55.18,1.17,1.17,0,0,0-.35.64,9,9,0,0,0-.13,2Z"/><path class="cls-9" d="M121.3,132.65l1.55.26a2.52,2.52,0,0,1-.94,1.29,2.75,2.75,0,0,1-1.61.44,2.64,2.64,0,0,1-2.26-1,3.42,3.42,0,0,1-.57-2,3.22,3.22,0,0,1,.76-2.28,2.47,2.47,0,0,1,1.92-.82,2.61,2.61,0,0,1,2.06.86,3.86,3.86,0,0,1,.72,2.64h-3.88a1.54,1.54,0,0,0,.38,1.07,1.14,1.14,0,0,0,.89.39,1,1,0,0,0,.61-.2A1.17,1.17,0,0,0,121.3,132.65Zm.09-1.56a1.52,1.52,0,0,0-.34-1,1.08,1.08,0,0,0-.81-.35,1.1,1.1,0,0,0-.84.37,1.46,1.46,0,0,0-.32,1Z"/><path class="cls-9" d="M126.87,128.66v1.24h-1.05v2.35a6,6,0,0,0,0,.84.31.31,0,0,0,.13.19.48.48,0,0,0,.27.08,2,2,0,0,0,.62-.15l.13,1.2a3,3,0,0,1-1.22.23,1.87,1.87,0,0,1-.76-.14,1.1,1.1,0,0,1-.49-.36,1.51,1.51,0,0,1-.22-.6,8,8,0,0,1,0-1.09V129.9h-.71v-1.24h.71V127.5l1.56-.9v2.06Z"/><path class="cls-9" d="M357.57,249.18h-2l-.78-2h-3.57l-.74,2H348.6l3.48-8.94H354Zm-3.32-3.53L353,242.33l-1.2,3.32Z"/><path class="cls-9" d="M358.5,249.18v-8.94h2.7l1.63,6.1,1.6-6.1h2.71v8.94h-1.68v-7l-1.77,7H362l-1.77-7v7Z"/><path class="cls-9" d="M377,249.18h-2l-.78-2h-3.57l-.74,2H368l3.49-8.94h1.9Zm-3.33-3.53-1.23-3.32-1.21,3.32Z"/><path class="cls-9" d="M382.11,245.9v-1.51H386V248a4.73,4.73,0,0,1-1.64,1,6,6,0,0,1-2.18.42,4.94,4.94,0,0,1-2.45-.59,3.71,3.71,0,0,1-1.56-1.69,5.39,5.39,0,0,1-.53-2.38,5.14,5.14,0,0,1,.59-2.48,3.92,3.92,0,0,1,1.71-1.66,4.58,4.58,0,0,1,2.14-.45,4.23,4.23,0,0,1,2.6.7,3.13,3.13,0,0,1,1.21,1.93l-1.8.33a1.9,1.9,0,0,0-.71-1,2.15,2.15,0,0,0-1.3-.38,2.43,2.43,0,0,0-1.88.75,3.16,3.16,0,0,0-.7,2.23,3.52,3.52,0,0,0,.71,2.39,2.36,2.36,0,0,0,1.85.79,3.08,3.08,0,0,0,1.14-.22,4,4,0,0,0,1-.54V245.9Z"/><path class="cls-9" d="M387.67,249.18v-8.94h6.63v1.52h-4.83v2H394v1.5h-4.49v2.44h5v1.5Z"/><path class="cls-9" d="M396,249.18v-8.94h3.8a6.59,6.59,0,0,1,2.09.24,2.07,2.07,0,0,1,1,.86,2.58,2.58,0,0,1,.39,1.41,2.41,2.41,0,0,1-.59,1.66,2.89,2.89,0,0,1-1.77.83,4.21,4.21,0,0,1,1,.75,9.23,9.23,0,0,1,1,1.45l1.09,1.74h-2.16l-1.3-1.94a13.09,13.09,0,0,0-.95-1.32,1.42,1.42,0,0,0-.54-.37,3.31,3.31,0,0,0-.91-.1h-.37v3.73Zm1.81-5.16h1.34a6.55,6.55,0,0,0,1.62-.11.94.94,0,0,0,.5-.37,1.13,1.13,0,0,0,.19-.67,1,1,0,0,0-.92-1.08q-.23,0-1.32,0h-1.41Z"/><path class="cls-9" d="M415.14,240.9l1-1.08.85.74-1,1.15a4,4,0,0,1,.63,1.35,6.23,6.23,0,0,1,.23,1.7,4.6,4.6,0,0,1-1.18,3.35,4.1,4.1,0,0,1-3.11,1.23,4.31,4.31,0,0,1-2.68-.77l-1,1.11-.87-.75,1.05-1.17a5,5,0,0,1-.89-3.1,4.63,4.63,0,0,1,1.17-3.34,4.16,4.16,0,0,1,3.14-1.23A4.38,4.38,0,0,1,415.14,240.9ZM414,242.15a2.36,2.36,0,0,0-1.57-.52,2.27,2.27,0,0,0-1.79.76,3.36,3.36,0,0,0-.68,2.31,4.34,4.34,0,0,0,.28,1.66Zm.66,1-3.75,4.21a2.2,2.2,0,0,0,1.51.55,2.31,2.31,0,0,0,1.79-.78,3.49,3.49,0,0,0,.69-2.35A4.71,4.71,0,0,0,414.68,243.11Z"/><path class="cls-9" d="M417.75,246.27l1.75-.17a2.12,2.12,0,0,0,.65,1.3,1.92,1.92,0,0,0,1.3.42,2,2,0,0,0,1.32-.37,1.11,1.11,0,0,0,.44-.86.82.82,0,0,0-.18-.54,1.57,1.57,0,0,0-.65-.39c-.22-.07-.7-.2-1.45-.39a4.89,4.89,0,0,1-2-.89,2.31,2.31,0,0,1-.82-1.8,2.26,2.26,0,0,1,.39-1.27,2.45,2.45,0,0,1,1.11-.91,4.47,4.47,0,0,1,1.76-.31,3.79,3.79,0,0,1,2.54.74,2.63,2.63,0,0,1,.89,2l-1.8.08a1.56,1.56,0,0,0-.5-1,1.78,1.78,0,0,0-1.14-.31,2.05,2.05,0,0,0-1.24.33.64.64,0,0,0-.28.55.72.72,0,0,0,.26.55,4.67,4.67,0,0,0,1.66.59,8.89,8.89,0,0,1,1.95.65,2.49,2.49,0,0,1,1,.91,2.6,2.6,0,0,1,.36,1.42,2.69,2.69,0,0,1-.43,1.44,2.55,2.55,0,0,1-1.21,1,5.21,5.21,0,0,1-1.94.32,3.91,3.91,0,0,1-2.61-.78A3.38,3.38,0,0,1,417.75,246.27Z"/><path class="cls-9" d="M428.55,249.18v-7.42H425.9v-1.52H433v1.52h-2.65v7.42Z"/><path class="cls-9" d="M17.61,19H15.72l-.76-2H11.52l-.71,2H9l3.35-8.6h1.84Zm-3.2-3.4-1.19-3.2-1.16,3.2Z"/><path class="cls-9" d="M18.5,19v-8.6h2.61l1.56,5.87,1.54-5.87h2.61V19H25.21V12.26L23.5,19H21.82l-1.7-6.77V19Z"/><path class="cls-9" d="M36.31,19H34.42l-.75-2H30.23l-.71,2H27.67L31,10.43h1.83Zm-3.2-3.4-1.19-3.2-1.16,3.2Z"/><path class="cls-9" d="M41.24,15.87V14.42H45v3.43a4.74,4.74,0,0,1-1.58.93,5.71,5.71,0,0,1-2.1.4,4.74,4.74,0,0,1-2.36-.57A3.52,3.52,0,0,1,37.44,17a5.16,5.16,0,0,1-.51-2.29,4.91,4.91,0,0,1,.57-2.39,3.7,3.7,0,0,1,1.65-1.6,4.37,4.37,0,0,1,2.06-.43,4.08,4.08,0,0,1,2.5.67,3,3,0,0,1,1.16,1.86l-1.73.32a1.86,1.86,0,0,0-.68-1,2.1,2.1,0,0,0-1.25-.36,2.34,2.34,0,0,0-1.81.72,3,3,0,0,0-.68,2.14,3.4,3.4,0,0,0,.68,2.3,2.29,2.29,0,0,0,1.79.77,3,3,0,0,0,1.09-.22,3.59,3.59,0,0,0,.95-.52V15.87Z"/><path class="cls-9" d="M46.58,19v-8.6H53v1.45H48.32v1.91h4.32v1.45H48.32v2.34h4.81V19Z"/><path class="cls-9" d="M54.61,19v-8.6h3.66a6.06,6.06,0,0,1,2,.23,2,2,0,0,1,1,.82,2.5,2.5,0,0,1,.37,1.36,2.29,2.29,0,0,1-.57,1.6,2.73,2.73,0,0,1-1.7.8,3.7,3.7,0,0,1,.93.72,9.67,9.67,0,0,1,1,1.4L62.35,19H60.27L59,17.16a12.37,12.37,0,0,0-.92-1.26,1.23,1.23,0,0,0-.52-.36,2.74,2.74,0,0,0-.88-.1h-.35V19Zm1.74-5h1.29A6.59,6.59,0,0,0,59.2,14a1,1,0,0,0,.49-.36,1.18,1.18,0,0,0,.17-.65,1,1,0,0,0-.89-1q-.21,0-1.26,0H56.35Z"/><path class="cls-9" d="M66.64,10.43h3.44a11,11,0,0,1,1.52.08,2.24,2.24,0,0,1,.9.36,2.3,2.3,0,0,1,.66.72,1.89,1.89,0,0,1,.26,1,2,2,0,0,1-.32,1.11,2,2,0,0,1-.89.76,2.21,2.21,0,0,1,1.21.78,2,2,0,0,1,.43,1.3,2.46,2.46,0,0,1-.28,1.14,2.32,2.32,0,0,1-.74.89,2.51,2.51,0,0,1-1.17.41c-.29,0-1,.05-2.09.05H66.64Zm1.73,1.43v2h1.14c.68,0,1.1,0,1.27,0a1.14,1.14,0,0,0,.7-.31.9.9,0,0,0,.25-.67.89.89,0,0,0-.87-.95c-.17,0-.67,0-1.49,0Zm0,3.42v2.3H70a7.48,7.48,0,0,0,1.2,0,1.15,1.15,0,0,0,.63-.34,1.07,1.07,0,0,0,.24-.73,1.09,1.09,0,0,0-.19-.66,1,1,0,0,0-.54-.39,5.48,5.48,0,0,0-1.54-.13Z"/><path class="cls-9" d="M75.32,19v-8.6H79a6.17,6.17,0,0,1,2,.23,2,2,0,0,1,1,.82,2.5,2.5,0,0,1,.37,1.36,2.29,2.29,0,0,1-.57,1.6,2.73,2.73,0,0,1-1.7.8A3.7,3.7,0,0,1,81,16a9.67,9.67,0,0,1,1,1.4l1,1.67H81l-1.25-1.87a12.37,12.37,0,0,0-.92-1.26,1.23,1.23,0,0,0-.52-.36,2.74,2.74,0,0,0-.88-.1h-.35V19Zm1.74-5h1.29A6.59,6.59,0,0,0,79.91,14a1,1,0,0,0,.49-.36,1.18,1.18,0,0,0,.17-.65,1,1,0,0,0-.89-1q-.21,0-1.26,0H77.06Z"/><path class="cls-9" d="M83.65,14.78a5.48,5.48,0,0,1,.39-2.2,4.17,4.17,0,0,1,.8-1.18A3.34,3.34,0,0,1,86,10.62a4.63,4.63,0,0,1,1.85-.34,4,4,0,0,1,3,1.18A4.53,4.53,0,0,1,92,14.74,4.52,4.52,0,0,1,90.87,18a4,4,0,0,1-3,1.18A4.08,4.08,0,0,1,84.78,18,4.47,4.47,0,0,1,83.65,14.78Zm1.79-.06a3.22,3.22,0,0,0,.67,2.22,2.25,2.25,0,0,0,1.72.76A2.2,2.2,0,0,0,89.54,17a3.32,3.32,0,0,0,.66-2.25,3.21,3.21,0,0,0-.65-2.21,2.41,2.41,0,0,0-3.45,0A3.24,3.24,0,0,0,85.44,14.72Z"/></g></svg>